<svg width="335" height="69" viewBox="0 0 335 69" fill="none" xmlns="http://www.w3.org/2000/svg">
<g clip-path="url(#clip0_1_1839)">
<path d="M167.546 0.0867135C167.361 0.108384 167.207 0.151726 167.021 0.173397C167.114 0.303422 167.207 0.411776 167.299 0.541801C161.864 -0.108324 158.621 1.27861 154.544 3.9658C151.857 6.24124 145.557 7.82321 144.167 10.5104C142.252 10.8788 138.577 14.0644 136.817 14.5628C136.817 14.9312 136.817 15.2997 136.817 15.6681C135.272 15.6897 132.555 16.99 133.389 18.4419C132.863 18.2469 132.338 18.0735 131.813 17.8785C131.566 18.3119 131.597 18.767 132.338 18.8103C130.578 18.9404 127.737 20.1756 127.86 21.5842C127.768 21.4542 127.675 21.3458 127.582 21.2158C126.687 21.4542 126.656 22.3644 126.532 23.0578C125.884 22.386 124.37 23.1012 124.432 23.7946C124.834 23.4479 126.038 22.6677 125.884 23.5129C119.83 25.2032 116.866 30.0575 111.801 32.658C112.078 33.0264 112.326 33.3948 112.603 33.7632C111.43 33.1348 109.978 33.7199 109.7 34.6951C109.978 34.7601 110.225 34.8251 110.503 34.8901C110.071 34.8901 109.639 34.8901 109.175 34.8901C109.175 35.1935 109.175 35.4969 109.175 35.822C108.218 34.8684 101.794 41.0446 102.072 42.1065C103.616 41.413 104.944 39.4627 107.6 39.701C106.952 38.2924 109.917 38.8125 111.028 39.3326C111.121 39.0292 111.214 38.7258 111.306 38.4008C112.109 38.8125 113.932 37.729 113.684 37.1005C113.406 37.1005 113.159 37.1005 112.881 37.1005C113.932 35.8003 111.028 35.5619 110.781 34.8901C111.492 35.0851 112.171 35.2585 112.881 35.4535C112.881 35.1502 112.881 34.8468 112.881 34.5217C114.58 35.1935 115.414 32.6147 117.082 33.0481C116.896 32.6797 116.742 32.3113 116.557 31.9429C117.174 32.1812 117.792 32.4413 118.41 32.6797C118.194 32.3763 118.132 32.0296 118.688 31.9429C118.163 31.9429 117.638 31.9429 117.113 31.9429C117.421 31.2927 118.41 31.5311 119.213 31.7478C119.336 30.9027 121.436 31.4228 121.591 30.4476C121.93 30.5776 122.301 30.686 122.641 30.816C122.548 30.4476 122.456 30.0792 122.363 29.7108C122.795 29.7108 123.228 29.7108 123.691 29.7108C122.703 28.7789 124.247 28.4539 124.494 27.8687C126.069 29.039 126.779 26.5685 127.119 25.8317C127.397 25.8967 127.644 25.9617 127.922 26.0267C127.551 25.4416 126.995 23.6863 128.2 23.6213C128.076 24.2064 127.768 24.9865 128.478 25.2899C128.54 24.6615 128.818 24.0113 129.806 24.1847C129.682 24.5964 130.022 24.8565 130.609 24.9215C130.763 24.3364 130.207 23.838 129.559 23.4479C131.35 24.0547 131.937 23.2095 133.512 22.8845C132.925 22.6027 132.308 22.2777 132.462 21.7792C132.308 22.8194 130.238 22.1693 131.412 21.4108C130.64 21.5192 129.621 21.6926 129.559 21.0424C131.968 20.7174 133.327 22.191 135.087 21.9743C134.902 21.6709 134.747 21.3675 134.562 21.0424C135.458 20.9124 136.384 20.609 135.89 19.9372C136.23 20.0022 136.6 20.0672 136.94 20.1323C136.662 19.8289 136.415 19.5255 136.137 19.2004C137.558 19.4388 138.206 18.4203 139.565 18.832C139.565 18.6586 139.565 18.4636 139.565 18.2686C139.843 18.2686 140.09 18.2686 140.368 18.2686C140.368 18.1385 140.368 18.0302 140.368 17.9002C140.029 17.9652 139.658 18.0302 139.318 18.0952C139.318 17.8568 139.318 17.5968 139.318 17.3584C140.893 17.8568 141.017 16.7516 142.221 16.4265C141.789 16.4265 141.357 16.4265 140.893 16.4265C141.511 14.9312 140.893 15.0396 143.796 15.2346C147.503 14.0211 144.136 14.1511 142.993 13.1109C144.074 12.8942 145.001 13.6527 145.897 13.6743C145.897 13.4793 145.897 13.3059 145.897 13.1109C148.367 14.2378 148.923 11.1605 150.9 11.4422C150.869 10.9005 151.085 10.077 150.375 9.96862C151.61 9.99029 151.332 9.01511 151.178 8.29997C152.537 8.40832 153.679 7.23809 155.131 7.93156C155.347 7.15141 153.618 6.65298 154.081 6.08954C156.366 6.26291 154.451 8.2783 155.409 8.86341C155.934 7.90989 158.775 5.74281 159.887 5.17936C159.887 5.41774 159.887 5.67779 159.887 5.91617C160.072 5.91617 160.227 5.91617 160.412 5.91617C160.412 5.54777 160.412 5.17936 160.412 4.81096C161.122 4.87597 161.802 4.94098 162.512 5.006C162.265 4.39921 162.234 3.70575 163.315 3.70575C163.223 3.51071 163.13 3.33734 163.037 3.1423C163.315 3.1423 163.562 3.1423 163.84 3.1423C163.748 3.51071 163.655 3.87911 163.562 4.24752C165.446 4.03081 166.002 2.40549 167.515 1.84205C167.608 2.03709 167.701 2.21046 167.793 2.40549C165.94 2.96894 165.199 7.62817 163.068 7.95323C161.03 11.9623 155.1 15.473 154.39 19.7638C153.865 19.6988 153.34 19.6338 152.815 19.5688C152.907 19.8072 153 20.0672 153.093 20.3056C150.437 21.2375 149.047 25.2899 147.317 26.7635C147.935 26.8502 147.75 27.327 147.595 27.6954C145.619 27.1536 145.341 29.1907 145.495 30.2742C145.217 30.1442 144.97 30.0358 144.692 29.9058C145.31 31.141 142.499 31.3578 142.839 32.853C143.117 32.723 143.364 32.6147 143.642 32.4846C143.642 32.6797 143.642 32.853 143.642 33.0481C143.364 33.0481 143.117 33.0481 142.839 33.0481C142.839 33.2865 142.839 33.5465 142.839 33.7849C142.407 33.7199 141.974 33.6549 141.511 33.5899C141.943 34.435 140.307 34.8034 140.862 35.5186C141.604 36.3204 140.461 36.3854 139.689 36.1687C139.936 37.1439 136.94 38.4441 138.237 39.5927C138.979 39.6577 139.565 38.1841 139.164 37.8373C140.893 38.0757 138.793 39.1159 139.164 39.8744C139.504 39.8744 139.874 39.8744 140.214 39.8744C140.214 39.506 140.214 39.1376 140.214 38.7692C140.492 38.7692 140.739 38.7692 141.017 38.7692C140.832 39.3543 141.882 39.8311 142.592 40.2428C142.283 39.4843 142.407 38.7042 143.642 38.5742C142.932 38.3791 142.252 38.2057 141.542 38.0107C142.932 37.4039 142.592 36.3421 141.82 35.4319C142.16 35.3669 142.53 35.3019 142.87 35.2368C143.024 35.6052 143.21 36.0603 142.592 36.1687C143.766 36.5154 145.372 35.9953 144.692 35.0635C145.217 35.0635 145.742 35.0635 146.267 35.0635C146.267 34.7601 146.267 34.4567 146.267 34.1316C146.638 34.6517 147.75 34.2617 147.595 33.7632C147.163 33.7632 146.73 33.7632 146.267 33.7632C146.267 33.3948 146.267 33.0264 146.267 32.658C146.545 32.723 146.792 32.788 147.07 32.853C147.194 32.3329 147.286 31.8995 148.398 31.9212C150.22 31.7912 149.973 29.2557 151.548 28.7789C151.054 28.6056 150.56 28.6272 150.22 28.974C150.467 28.2155 150.684 27.2403 151.27 26.7635C152.753 28.3888 153.741 26.1351 154.946 25.4633C153.896 25.1382 153.896 24.3581 154.143 23.6213C154.513 24.0547 155.162 23.8596 155.718 23.6213C155.625 23.7513 155.532 23.8596 155.44 23.9897C157.355 23.6863 154.112 22.386 155.44 21.4108C156.521 22.321 159.239 20.7824 156.768 20.3056C157.54 20.1756 157.077 19.2221 157.046 18.637C157.571 18.702 158.096 18.767 158.621 18.832C158.436 19.0704 158.281 19.3304 158.096 19.5688C159.269 19.5038 159.269 17.7051 161.246 17.9002C160.814 17.6618 160.381 17.4017 159.918 17.1633C160.999 17.3367 161.586 16.7733 161.771 16.0581C162.049 16.1882 162.296 16.2965 162.574 16.4265C163.192 14.9312 161.864 13.7827 162.049 12.3741C162.667 12.9159 165.601 13.5443 166.002 12.3741C165.384 12.3741 164.767 12.3741 164.149 12.3741C164.149 11.8757 164.149 11.3989 164.149 10.9005C164.242 11.0955 164.334 11.2689 164.427 11.4639C168.133 11.1605 168.071 10.207 169.152 8.14827C168.535 7.64984 167.546 6.97804 168.349 6.47962C168.504 6.97804 169.523 6.73967 170.202 6.67465C170.017 6.30625 169.863 5.93784 169.677 5.56944C169.955 5.56944 170.202 5.56944 170.48 5.56944C170.079 4.94098 170.573 4.20418 171.005 3.53238C170.171 3.51071 169.492 3.22899 169.677 2.60053C170.449 2.66555 171.222 2.55719 171.53 2.03709C170.141 1.86372 169.492 -0.4984 167.546 0.0867135ZM166.496 0.281751C166.589 0.303422 166.682 0.346764 166.774 0.368435C166.589 0.303422 166.435 0.238409 166.249 0.173397C166.342 0.216739 166.434 0.238409 166.496 0.281751ZM165.724 1.30028C165.909 1.30028 166.064 1.30028 166.249 1.30028C166.249 1.49532 166.249 1.66869 166.249 1.86372C166.064 1.66869 165.909 1.47365 165.724 1.30028ZM167.299 1.47365C167.485 1.60367 167.639 1.71203 167.824 1.84205C167.639 1.7337 167.485 1.60367 167.299 1.47365ZM164.149 2.21046C164.612 2.42717 164.674 2.79557 164.427 3.1423C164.304 2.83891 164.242 2.51385 164.149 2.21046ZM169.924 3.05562C170.017 3.07729 170.11 3.12063 170.202 3.1423C170.017 3.07729 169.863 3.01228 169.677 2.94727C169.739 2.99061 169.832 3.01228 169.924 3.05562ZM156.521 3.51071C156.706 3.51071 156.86 3.51071 157.046 3.51071C156.953 3.64073 156.86 3.74909 156.768 3.87911C156.675 3.74909 156.613 3.64073 156.521 3.51071ZM157.046 4.05248C157.231 4.18251 157.385 4.29086 157.571 4.42088C157.385 4.31253 157.2 4.18251 157.046 4.05248ZM158.343 4.24752C159.022 4.52924 158.528 5.006 158.065 5.35273C158.188 4.98433 158.281 4.61592 158.343 4.24752ZM168.627 4.42088C168.72 4.61592 168.813 4.78929 168.905 4.98433C168.782 4.78929 168.689 4.61592 168.627 4.42088ZM167.299 4.61592C168.133 5.02767 168.38 5.61278 167.577 6.08954C167.485 5.59111 167.392 5.11435 167.299 4.61592ZM170.851 5.07101C170.882 5.22271 170.944 5.3744 170.974 5.5261C171.067 5.22271 171.16 4.91931 171.252 4.59425C171.067 4.59425 170.913 4.59425 170.727 4.59425C170.758 4.76762 170.789 4.91931 170.851 5.07101ZM99.5704 5.72114C99.6013 5.78615 99.663 5.85116 99.6939 5.91617C99.6013 5.78615 99.5086 5.67779 99.416 5.54777C99.4777 5.59111 99.5086 5.65612 99.5704 5.72114ZM96.2658 6.00286C95.401 6.06787 95.1848 6.69632 94.9378 7.19475C94.0113 6.28458 90.8302 8.06159 90.8611 8.86341C91.2935 9.47019 93.3318 9.29683 93.0847 10.337C92.3435 10.4237 91.6949 10.207 91.2317 9.77358C90.7066 11.724 90.1199 9.23181 89.1316 9.40518C89.1933 9.90361 88.9463 9.96862 87.68 10.142C85.7034 10.1853 85.9814 11.9407 84.4063 11.984C84.6842 12.2874 84.9313 12.5908 85.2093 12.9159C83.7577 12.8942 83.5724 14.6929 82.3062 14.5845C83.2018 14.3461 83.418 13.566 82.3062 13.4793C82.6459 16.7299 78.1059 13.9994 77.0559 17.3584C76.5 15.7764 69.2422 20.5223 69.7055 21.6059C69.2731 21.6059 68.8407 21.6059 68.3774 21.6059C68.501 22.2343 65.9994 22.386 66.5244 23.2745C66.3391 23.1445 66.1847 23.0361 65.9994 22.9061C65.9994 24.3797 61.9844 24.3797 62.3242 26.0484C60.6255 26.2651 58.6798 27.1103 57.846 28.2588C58.4945 27.9771 59.2049 27.8471 59.9461 27.8904C59.7608 28.6489 56.3635 28.6272 55.7458 29.7324C54.1707 30.5993 54.9428 32.788 56.2709 31.4011C56.6106 31.7695 56.9812 32.1379 57.3209 32.5063C57.5062 31.7045 58.5563 31.4228 59.699 31.4011C59.699 31.5961 59.699 31.7695 59.699 31.9645C60.6564 31.9429 61.1506 31.2927 61.552 30.6643C61.9844 31.9429 63.7448 31.3361 64.1772 30.2959C64.4243 30.6426 64.3934 30.9894 63.8992 31.2277C64.5478 30.7943 65.3817 30.5993 66.2773 30.6643C65.6596 29.7108 67.3583 28.1288 68.9025 28.4539C68.9025 28.3238 68.9025 28.2155 68.9025 28.0855C70.1378 28.1721 70.9408 27.2836 72.3306 27.7171C71.7129 27.2403 72.3924 26.4385 71.0026 26.0484C72.1144 25.745 73.2571 25.68 74.1528 26.2434C74.369 25.4416 74.616 24.4014 75.7279 24.2064C73.3807 23.1878 75.5425 23.0795 76.2529 22.1693C76.4382 22.6677 76.5926 23.1445 76.7779 23.6429C76.4691 23.0361 77.7044 23.0361 77.5809 22.5377C77.3029 22.5377 77.0559 22.5377 76.7779 22.5377C76.9941 21.1074 79.0016 22.2993 79.9281 21.5192C81.5649 20.0022 77.6118 20.9774 76.7779 19.9589C77.8589 19.6772 78.1986 19.0487 77.828 18.2902C78.2604 18.4853 78.6927 18.6586 79.156 18.8537C77.1794 20.1539 80.3914 20.7824 80.2061 19.0487C81.4723 19.9806 82.6768 19.1137 83.8813 19.6122C83.9739 19.4171 84.0666 19.2437 84.1592 19.0487C83.0165 19.2221 81.812 18.3769 82.0591 17.5751C81.6267 17.7051 81.1943 17.8135 80.7311 17.9435C80.9781 17.5968 80.9473 17.25 80.4531 17.0117C80.9782 16.9466 81.5032 16.8816 82.0282 16.8166C81.4105 17.4667 83.0783 17.7051 83.8813 17.9218C83.943 17.0333 85.6725 15.408 86.5064 14.9746C86.3211 15.213 86.1667 15.473 85.9814 15.7114C86.4138 15.8414 86.8461 15.9498 87.3094 16.0798C86.2593 14.9746 88.1741 14.9312 87.8344 13.8694C87.402 12.9375 88.2977 12.7858 88.8845 13.3059C88.7918 13.1109 88.6992 12.9375 88.6065 12.7425C89.2551 12.8725 89.4095 12.0707 89.6566 11.6373C89.6566 11.9407 89.6566 12.2441 89.6566 12.5691C90.2743 12.5691 90.892 12.5691 91.5096 12.5691C91.5096 12.2657 91.5096 11.9623 91.5096 11.6373C91.8494 11.7673 92.22 11.8757 92.5597 12.0057C92.2817 10.5321 94.6907 10.3154 94.9378 9.42685C95.2157 9.49186 95.4628 9.55688 95.7408 9.62189C95.3393 10.2503 94.7525 11.0088 95.4628 11.4639C94.7525 11.3339 94.1039 12.6125 93.6098 13.1326C93.8877 13.1976 94.1348 13.2626 94.4128 13.3276C94.4128 13.0892 94.4128 12.8292 94.4128 12.5908C95.154 12.5475 95.3084 13.3926 96.2658 13.3276C95.5555 13.566 94.876 13.826 94.1657 14.0644C95.154 14.5845 93.9495 15.148 93.1156 14.8012C93.1156 14.9312 93.1156 15.0396 93.1156 15.1696C93.3936 15.1696 93.6406 15.1696 93.9186 15.1696C93.3318 15.9064 92.1891 16.9683 92.3435 17.5751C92.6215 17.5751 92.8685 17.5751 93.1465 17.5751C93.0538 17.8135 92.9612 18.0735 92.8685 18.3119C93.0538 18.3119 93.2083 18.3119 93.3936 18.3119C92.7759 18.572 92.9612 19.1354 93.1156 19.6122C92.6832 19.3088 92.2509 19.0054 91.7876 18.6803C92.4053 19.8289 89.008 20.3923 89.4095 21.4542C89.8419 21.4542 90.2743 21.4542 90.7375 21.4542C90.8302 24.2064 95.679 22.321 97.0379 21.4542C96.9452 21.1508 96.8526 20.8474 96.7599 20.5223C97.0379 20.5223 97.285 20.5223 97.5629 20.5223C97.6865 20.1756 97.2232 20.0456 96.7599 19.9589C97.0997 19.8939 97.4703 19.8289 97.81 19.7638C97.6865 19.3954 97.1923 19.4388 96.7599 19.5688C96.7599 19.3304 96.7599 19.0704 96.7599 18.832C97.0379 18.832 97.285 18.832 97.5629 18.832C97.5012 17.8135 95.4319 16.3832 96.2349 15.148C96.7291 15.6464 97.2541 16.4049 98.088 16.2532C98.088 16.3832 98.088 16.4916 98.088 16.6216C98.7365 16.1231 99.5395 16.5782 100.188 16.99C100.342 16.0148 100.713 14.8446 102.288 15.148C102.288 15.343 102.288 15.5164 102.288 15.7114C102.813 15.3213 103.524 15.4297 104.141 15.7114C104.543 14.9746 105.933 13.5877 104.666 13.3059C104.944 13.0676 105.191 12.8075 105.469 12.5691C105.191 12.5691 104.944 12.5691 104.666 12.5691C104.913 12.1357 104.882 11.6806 104.141 11.6373C104.141 11.8323 104.141 12.0057 104.141 12.2007C103.956 12.2007 103.802 12.2007 103.616 12.2007C103.802 12.3958 103.956 12.5691 104.141 12.7642C103.122 12.6341 101.053 13.1759 101.238 14.0644C102.319 13.4143 105.13 15.278 102.937 15.2563C101.918 14.6062 99.2924 14.2161 100.96 13.1326C95.9878 12.6125 102.751 11.2905 101.238 9.44852C103.431 10.2937 105.84 7.58483 102.288 8.51667C102.566 8.14827 102.813 7.77987 103.091 7.41146C103.4 7.71485 103.894 7.82321 104.419 7.77987C104.605 7.21642 101.547 6.54463 100.466 6.11121C100.651 6.65298 99.8484 6.86969 99.138 7.04306C99.663 7.28144 100.188 7.54149 100.713 7.77987C97.2541 7.25977 100.682 9.86027 99.138 10.3587C99.2616 9.42685 96.7291 9.42685 96.2349 9.99029C96.5438 9.44852 97.0997 8.73338 97.0379 8.32164C96.6982 8.45166 96.3276 8.56002 95.9878 8.69004C96.0187 7.88822 96.6055 7.25977 97.5629 6.84802C97.81 7.28144 98.1806 7.69318 98.8909 7.58483C99.0145 6.34959 97.9335 5.67779 96.2658 6.00286ZM170.449 6.28458C170.542 6.34959 170.635 6.4146 170.727 6.47962C170.542 6.34959 170.388 6.24124 170.202 6.11121C170.264 6.15455 170.357 6.21956 170.449 6.28458ZM152.043 6.65298C152.135 6.89136 152.228 7.15141 152.32 7.38979C152.043 7.38979 151.795 7.38979 151.517 7.38979C151.703 7.12974 151.857 6.89136 152.043 6.65298ZM94.9687 7.19475C95.0613 7.32478 95.154 7.43313 95.2466 7.56316C95.1231 7.4548 95.0613 7.32478 94.9687 7.19475ZM94.1657 7.56316C94.2583 7.69318 94.351 7.80154 94.4436 7.93156C94.351 7.82321 94.2583 7.69318 94.1657 7.56316ZM96.9452 7.84488C96.9144 7.93156 96.8526 8.03992 96.8217 8.1266C97.1614 7.99658 97.532 7.88822 97.8718 7.7582C97.5938 7.69318 97.3467 7.62817 97.0688 7.56316C97.007 7.64984 96.9761 7.7582 96.9452 7.84488ZM211.216 8.03992C210.012 9.14513 206.862 9.88194 205.966 11.0955C205.688 11.0305 205.441 10.9655 205.163 10.9005C204.916 11.4422 204.885 12.8942 204.113 12.7425C204.113 12.4391 204.113 12.1357 204.113 11.8106C203.063 11.7673 200.623 12.6125 201.488 13.6527C200.778 13.6527 200.098 13.6527 199.388 13.6527C199.604 14.2161 200.16 15.0829 199.11 15.1263C199.388 15.5597 199.635 15.9931 199.913 16.4265C199.388 16.4916 198.863 16.5566 198.338 16.6216C198.986 16.3399 198.739 15.6681 198.616 15.148C198.152 15.603 197.473 15.7331 196.763 15.5164C197.35 15.8414 197.658 16.2965 197.566 16.8166C196.917 16.7733 196.33 16.5566 196.516 16.0798C195.898 16.3615 195.095 16.7733 194.663 16.2748C193.736 18.3986 192.84 17.8785 190.184 18.9404C187.281 20.1323 189.134 22.6677 184.934 21.8009C185.212 22.6461 182.649 22.7328 182.834 23.6429C182.093 23.2312 179.993 24.4881 180.734 25.1166C177.028 25.3116 177.337 29.4507 173.383 28.9956C173.538 29.4507 172.426 29.6674 171.808 29.9275C171.901 30.0575 171.994 30.1659 172.086 30.2959C171.747 30.2959 171.376 30.2959 171.036 30.2959C171.222 30.5343 171.376 30.7943 171.561 31.0327C166.589 30.816 168.535 35.6919 166.311 33.8066C166.527 34.2183 166.589 34.6734 166.033 34.9118C166.218 35.0418 166.373 35.1502 166.558 35.2802C166.126 35.3452 165.693 35.4102 165.23 35.4752C165.323 35.7136 165.415 35.9736 165.508 36.212C164.612 35.7569 163.068 35.9303 161.833 36.017C162.265 36.3854 162.698 36.7538 163.161 37.1222C162.821 37.2522 162.45 37.3606 162.111 37.4906C159.856 35.8003 158.93 39.2893 162.914 38.4225C163.099 38.8992 161.493 39.2459 160.814 39.5277C160.752 39.0292 160.165 38.8992 159.486 38.9642C159.64 38.4875 159.084 38.2708 158.436 38.2274C158.436 38.4658 158.436 38.7258 158.436 38.9642C158.158 38.8342 157.91 38.7258 157.633 38.5958C157.54 39.0943 157.355 39.6577 156.582 39.5277C156.582 39.766 156.582 40.0261 156.582 40.2645C156.768 40.2645 156.922 40.2645 157.108 40.2645C156.15 41.2397 152.475 40.7629 153.679 43.0383C154.421 42.4316 155.471 41.7381 156.305 42.4749C155.038 44.1869 151.765 42.8433 149.726 43.7752C149.479 44.837 147.07 45.8772 149.448 47.2858C148.151 47.5242 147.904 46.614 147.873 45.8122C145.001 46.6357 142.963 49.3879 139.72 50.6015C140.059 50.7315 140.43 50.8399 140.77 50.9699C139.102 50.8615 136.199 52.5302 136.045 53.5487C136.384 53.4837 136.755 53.4187 137.095 53.3537C134.593 54.5239 138.484 56.3876 136.292 55.9325C136.477 56.1275 136.631 56.3009 136.817 56.4959C136.075 56.3876 134.531 56.4743 134.717 55.9325C135.149 55.9975 135.581 56.0625 136.045 56.1275C136.261 55.5858 135.427 55.4557 134.717 55.3907C134.809 55.1524 134.902 54.8923 134.994 54.6539C133.728 54.3939 132.493 54.5672 132.369 55.5858C131.659 55.3907 130.98 55.2174 130.269 55.0223C131.566 55.044 132.493 54.3505 133.172 53.5487C132.122 53.5487 131.072 53.5487 130.022 53.5487C130.269 54.7623 128.879 55.2607 129.497 56.4959C129.837 56.4309 130.207 56.3659 130.547 56.3009C130.455 57.0811 132.091 57.9696 133.172 57.9696C133.08 57.5361 132.987 57.1027 132.894 56.6693C135.55 57.6662 142.005 56.1709 142.623 54.2638C142.901 54.3289 143.148 54.3939 143.426 54.4589C143.426 54.2205 143.426 53.9605 143.426 53.7221C144.816 54.0688 145.68 52.4868 146.854 52.6169C146.947 51.425 151.857 50.5365 152.629 49.1929C153.71 48.001 157.293 47.4592 156.83 45.7689C157.262 46.354 159.084 45.8556 158.405 45.2054C158.127 45.3355 157.88 45.4438 157.602 45.5738C157.694 45.2704 157.787 44.9671 157.88 44.642C160.69 45.7689 161.092 43.1034 163.13 42.7133C164.365 41.9981 168.071 40.8063 167.33 39.2893C168.658 39.8744 170.233 37.664 171.53 37.989C171.53 37.7507 171.53 37.4906 171.53 37.2522C173.569 36.3204 179.004 34.3483 178.109 32.2679C178.541 32.2679 178.973 32.2679 179.437 32.2679C179.251 31.5311 181.629 29.6674 182.865 30.2309C182.865 29.8625 182.865 29.4941 182.865 29.1257C183.143 29.1257 183.39 29.1257 183.668 29.1257C183.575 29.3207 183.483 29.4941 183.39 29.6891C185.644 28.3672 190.092 26.6118 191.543 24.7048C193.489 24.8782 195.126 22.256 195.496 21.5625C195.496 21.7576 195.496 21.9309 195.496 22.126C196.361 21.8659 197.35 21.7142 197.875 22.321C196.269 22.6027 193.149 24.163 193.921 25.6367C191.79 25.81 188.826 30.5559 189.443 31.9212C189.258 31.9212 189.103 31.9212 188.918 31.9212C189.011 32.2896 189.103 32.658 189.196 33.0264C188.239 32.7664 188.393 33.8932 187.621 33.7632C187.467 34.1533 188.177 34.24 188.671 34.3267C186.262 34.3267 185.922 37.3606 186.046 38.7475C181.877 43.1034 179.221 50.7748 178.695 56.2792C178.51 56.2792 178.356 56.2792 178.17 56.2792C178.294 56.821 178.572 57.4711 177.893 57.7529C178.356 57.9696 178.418 58.338 178.17 58.6847C179.251 59.1181 180.301 59.7466 181.321 60.3534C181.166 59.5732 181.444 58.8147 182.649 58.6847C182.556 58.9231 182.463 59.1831 182.371 59.4215C182.988 59.4215 183.822 59.4865 183.946 59.0531C183.822 59.5732 184.131 60.0283 184.749 60.3534C185.737 58.8147 188.764 58.8147 190.679 57.6662C192.748 57.1244 189.876 55.9758 191.08 55.0007C191.389 55.5641 192.346 55.5858 193.18 55.5641C191.79 54.6323 194.724 53.3103 193.983 55.0007C195.651 55.1957 196.67 54.5022 196.886 53.332C197.658 54.2855 198.955 53.0069 198.986 52.2268C198.4 52.3135 198.029 52.0751 197.936 51.6633C199.079 51.3816 199.264 49.648 201.086 50.5581C201.272 50.2547 201.426 49.9514 201.612 49.6263C202.137 49.8647 202.662 50.1247 203.187 50.3631C202.476 47.9143 209.209 48.1527 206.615 45.9422C206.893 46.0073 207.14 46.0723 207.418 46.1373C207.51 45.8339 207.603 45.5305 207.696 45.2054C208.591 45.8122 211.216 45.0321 210.846 44.1002C210.661 44.2953 210.506 44.4686 210.321 44.6637C210.043 44.5336 209.796 44.4253 209.518 44.2953C210.105 43.7535 210.939 43.4501 211.896 43.5584C211.896 43.3201 211.896 43.06 211.896 42.8216C212.421 42.9517 212.946 43.06 213.471 43.19C213.378 42.8216 213.286 42.4532 213.193 42.0848C214.212 42.0198 215.911 42.0198 215.571 41.153C215.324 41.153 215.046 41.153 214.768 41.153C219.648 39.2243 224.373 35.1718 229.222 32.9397C233.082 30.2525 240 28.5622 242.379 25.2899C242.718 25.4199 243.089 25.5283 243.429 25.6583C243.429 25.4199 243.429 25.1599 243.429 24.9215C243.861 24.9215 244.293 24.9215 244.757 24.9215C244.664 24.6831 244.571 24.4231 244.479 24.1847C244.757 24.1847 245.004 24.1847 245.282 24.1847C245.282 24.0113 245.282 23.8163 245.282 23.6213C247.104 24.8998 249.636 21.8226 251.582 21.9526C251.242 20.6957 253.342 19.6122 255.01 20.2839C255.041 19.2221 257.852 18.637 259.087 18.2469C260.477 17.8785 261.712 16.6432 263.442 16.9466C263.442 16.7083 263.442 16.4482 263.442 16.2098C264.337 16.4916 265.943 16.2532 266.067 15.473C268.043 17.4017 262.083 20.284 261.866 22.2993C258.963 25.8534 254.918 30.9027 252.91 34.8468C251.304 36.7321 248.061 39.1376 248.185 41.6731C247.999 41.6081 247.845 41.5431 247.66 41.478C246.949 43.125 246.332 44.7287 245.56 46.2673C245.282 46.2673 245.035 46.2673 244.757 46.2673C244.355 48.4344 241.977 53.1586 243.954 55.3041C242.379 56.1275 244.448 57.0377 245.807 57.1461C245.621 56.951 245.467 56.7777 245.282 56.5826C246.888 56.1926 247.444 58.0996 248.833 56.951C251.582 56.2142 253.003 56.4959 251.86 54.1772C252.045 54.3722 252.2 54.5456 252.385 54.7406C252.539 54.2422 253.404 54.5889 253.96 54.7406C253.064 52.4002 258.037 52.3568 258.84 50.6882C259.457 49.843 261.743 49.9297 262.515 49.0195C263.071 49.1495 266.159 46.1156 266.87 46.8091C266.962 46.4407 267.055 46.0723 267.148 45.7039C267.333 45.8339 267.487 45.9422 267.673 46.0723C268.198 45.6389 268.908 45.2271 269.526 45.7039C269.526 45.5088 269.526 45.3355 269.526 45.1404C270.39 45.0104 272.521 43.4718 272.954 42.93C275.116 42.6916 277.463 39.1809 280.304 39.7877C280.212 39.5493 280.119 39.2893 280.026 39.0509C280.459 39.1159 280.891 39.1809 281.354 39.2459C281.354 39.1159 281.354 39.0076 281.354 38.8775C282.497 39.2459 282.837 36.7755 283.979 37.4039C283.794 37.599 283.64 37.7723 283.454 37.9674C283.794 38.0974 284.165 38.2057 284.504 38.3358C284.628 37.5123 286.728 37.2089 286.08 35.9303C286.666 36.017 287.037 35.7786 287.13 35.3669C289.662 37.4473 288.766 30.881 291.33 33.6982C291.608 33.3948 291.855 33.0914 292.133 32.7664C292.226 32.9614 292.318 33.1348 292.411 33.3298C292.596 33.0914 292.751 32.8314 292.936 32.593C293.121 32.658 293.276 32.723 293.461 32.788C293.029 32.3763 292.411 32.2029 291.886 32.593C292.009 31.5528 294.943 31.7912 295.561 31.1194C295.746 31.3144 295.901 31.4878 296.086 31.6828C297.383 27.4787 311.281 23.5779 316.593 21.3458C314.802 20.544 322.832 17.3801 323.944 18.2035C324.345 17.2284 325.673 16.7949 327.094 16.5349C325.488 22.2993 315.08 27.6954 312.115 32.9614C309.243 33.5899 307.791 37.1222 307.39 38.8775C304.734 37.9024 306.216 40.0911 304.363 40.6329C302.603 41.8248 299.854 43.4934 301.614 45.3355C300.039 45.1404 298.341 45.8772 300.564 46.6357C299.977 47.2425 298.742 46.3973 297.939 47.0041C298.557 47.2642 299.144 47.6326 298.742 48.1093C298.927 48.0443 299.082 47.9793 299.267 47.9143C299.267 48.1093 299.267 48.2827 299.267 48.4777C298.68 48.391 298.31 48.6294 298.217 49.0412C297.785 48.8461 297.352 48.6728 296.889 48.4777C295.221 49.7346 297.291 50.6882 297.167 52.1618C294.604 51.3816 292.256 53.1803 295.592 53.267C295.437 55.4557 295.19 54.5456 293.214 54.5672C293.399 54.3289 293.554 54.0688 293.739 53.8304C292.287 53.7654 292.473 54.8706 292.689 55.6725C292.503 55.6074 292.349 55.5424 292.164 55.4774C292.102 55.9325 291.793 56.3442 291.114 56.2142C292.781 57.4061 288.705 57.7962 289.014 58.9881C289.353 58.9881 289.724 58.9881 290.064 58.9881C289.631 59.5515 289.539 60.1367 290.064 60.6567C288.89 60.2667 287.747 63.474 289.014 63.2356C288.921 62.9972 288.828 62.7372 288.736 62.4988C288.921 62.4988 289.075 62.4988 289.261 62.4988C289.261 62.6938 289.261 62.8672 289.261 63.0622C289.6 63.0622 289.971 63.0622 290.311 63.0622C288.396 64.0157 293.121 65.5544 290.311 66.3779C291.299 66.7896 292.781 65.9444 292.164 65.2726C297.538 64.8392 298.464 60.8518 301.645 58.533C304.857 56.2359 305.413 53.3103 306.895 50.8832C306.895 51.1216 306.895 51.3816 306.895 51.62C309.397 51.5333 308.131 48.9978 310.324 49.0412C310.138 48.8028 309.984 48.5427 309.799 48.3044C311.466 47.8493 312.825 45.8989 313.474 44.9887C313.196 45.0537 312.949 45.1187 312.671 45.1838C312.424 44.837 312.455 44.4903 312.949 44.2519C312.671 44.2519 312.424 44.2519 312.146 44.2519C312.146 44.1219 312.146 44.0135 312.146 43.8835C313.999 44.2302 316.346 43.1467 314.524 42.0415C314.864 41.9115 315.234 41.8031 315.574 41.6731C315.481 41.9115 315.389 42.1715 315.296 42.4099C318.261 40.9579 319.929 37.2306 322.121 35.2152C323.295 33.0698 327.341 31.3144 326.847 28.7573C327.186 28.8223 327.557 28.8873 327.897 28.9523C329.286 26.6335 331.17 21.7359 332.622 19.3521C334.228 18.572 332.251 15.278 333.672 14.1944C333.394 14.3245 333.147 14.4328 332.869 14.5628C333.487 13.0676 329.256 13.7177 329.441 12.7208C328.854 12.6775 328.329 12.8292 327.866 13.0892C328.051 13.2843 328.206 13.4576 328.391 13.6527C327.248 14.4111 326.6 13.0242 327.063 12.3524C325.858 12.2007 324.592 12.7425 325.21 13.6527C323.974 13.1542 324.654 11.919 322.183 13.0025C320.732 13.9994 318.168 13.6527 318.631 14.9312C317.149 14.3461 316.315 16.1015 314.956 15.8631C315.08 16.2748 314.74 16.5349 314.153 16.5999C314.339 16.6649 314.493 16.7299 314.678 16.7949C314.493 17.0333 314.339 17.2934 314.153 17.5318C312.702 15.7114 310.91 18.6803 308.749 18.832C307.297 20.2406 304.27 20.0022 303.869 21.7792C302.881 21.2591 302.479 22.8411 301.491 22.3427C301.491 22.5377 301.491 22.7111 301.491 22.9061C300.317 22.1476 298.773 23.4912 298.866 24.3797C298.526 24.1847 298.155 24.0113 297.816 23.8163C297.476 25.1166 293.955 24.8132 295.437 26.5902C291.299 26.4168 289.693 28.8006 286.635 30.1008C284.782 31.4444 282.744 31.1844 282.034 33.4165C281.756 33.2215 281.509 33.0481 281.231 32.853C281.045 33.0481 280.891 33.2215 280.706 33.4165C280.984 33.4815 281.231 33.5465 281.509 33.6115C276.011 35.0635 271.749 38.7692 267.178 41.088C263.009 42.4316 258.129 45.2704 254.948 47.2642C255.041 47.0691 255.134 46.8958 255.226 46.7007C253.775 46.5057 251.675 46.8741 250.501 46.3323C250.1 45.3138 252.385 44.9237 251.304 43.9269C252.756 44.3386 252.447 42.1932 253.682 42.4532C253.682 42.6916 253.682 42.9517 253.682 43.19C253.96 43.125 254.207 43.06 254.485 42.995C253.806 42.4099 253.651 41.6948 253.96 40.9579C254.392 41.023 254.825 41.088 255.288 41.153C255.288 41.023 255.288 40.9146 255.288 40.7846C255.566 40.7846 255.813 40.7846 256.091 40.7846C254.918 39.9177 257.574 39.4627 257.141 38.5742C256.74 38.9426 256.153 39.2026 255.566 38.9426C256.122 38.5742 255.906 38.1407 255.288 37.8373C256.184 37.8157 256.462 37.3172 256.338 36.7321C257.203 37.0355 257.944 35.5619 258.716 35.9953C258.531 36.2337 258.377 36.4937 258.191 36.7321C258.871 36.5371 259.272 36.3637 258.994 35.6269C258.624 34.565 260.569 34.5434 259.797 33.4165C260.168 33.8499 260.816 33.6549 261.372 33.4165C261.094 33.0481 260.847 32.6797 260.569 32.3113C265.017 32.6797 260.353 27.4137 264.245 28.4322C264.245 28.2372 264.245 28.0638 264.245 27.8687C265.573 27.7387 266.221 25.9617 266.993 25.3766C267.734 25.1599 266.159 22.9495 267.92 23.6213C267.827 23.7513 267.734 23.8596 267.642 23.9897C270.298 23.3179 271.317 20.6957 272.243 19.0054C272.892 18.1385 274.56 18.9187 274.097 17.5318C274.405 16.3615 275.795 15.4297 275.795 14.2161C274.004 14.8012 273.942 13.2843 275.517 13.2843C275.517 13.5226 275.517 13.7827 275.517 14.0211C275.857 13.9561 276.228 13.891 276.567 13.826C276.475 13.5877 276.382 13.3276 276.289 13.0892C277.308 13.1326 277.061 11.2689 276.567 10.8788C276.845 10.8138 277.092 10.7488 277.37 10.6838C277.37 10.9221 277.37 11.1822 277.37 11.4206C278.142 10.8355 277.123 10.1853 277.648 9.38351C277.37 9.57855 277.123 9.75191 276.845 9.94695C276.845 9.34017 276.845 8.71171 276.845 8.10493C275.795 8.23495 274.745 8.34331 273.695 8.47333C273.973 9.40518 274.22 10.3154 274.498 11.2472C272.985 10.9221 272.027 10.2937 270.02 10.6838C270.298 9.8386 272.738 10.0986 272.398 8.84174C271.749 8.90675 271.163 9.10179 271.07 9.57855C269.927 8.56002 266.839 8.75505 266.592 10.142C256.215 11.919 246.023 18.5936 236.881 22.1476C236.974 22.2777 237.066 22.386 237.159 22.516C235.461 23.0145 233.885 23.6213 232.279 24.2714C230.828 24.9432 230.334 26.5252 228.481 25.8317C228.697 26.8502 229.067 27.6304 227.029 27.5003C223.941 28.8223 220.327 31.2494 217.702 33.1348C216.683 34.0449 215.571 33.6765 214.274 34.8034C212.977 35.9086 212.081 37.1222 210.074 37.3823C210.846 38.0541 210.846 38.8342 209.271 38.9426C209.178 38.7042 209.085 38.4441 208.993 38.2057C207.881 38.2708 206.46 39.0726 207.418 39.8744C205.935 39.7227 205.812 40.9579 204.515 40.8063C207.819 42.6266 200.098 41.478 201.086 43.5801C201.364 43.5801 201.612 43.5801 201.889 43.5801C201.797 44.1002 200.592 44.447 200.561 45.2488C200.067 45.0754 199.357 44.902 199.511 44.512C199.944 44.512 200.376 44.512 200.839 44.512C200.839 44.2736 200.839 44.0135 200.839 43.7752C199.45 44.2086 197.689 45.2704 197.936 46.7224C195.991 44.1002 194.261 49.1495 191.883 48.9328C194.014 49.9947 187.127 50.8182 191.883 51.3383C190.617 51.1866 189.598 51.5767 189.258 52.4435C189.073 52.3785 188.918 52.3135 188.733 52.2485C188.918 52.0534 189.073 51.8801 189.258 51.685C187.714 51.685 187.281 53.1803 187.93 54.0905C185.583 55.0657 181.352 52.4218 185.305 52.9853C185.397 52.7902 185.49 52.6169 185.583 52.4218C184.811 52.5518 184.378 51.9667 184.008 51.49C185.274 51.5333 188.795 51.1216 186.386 50.3848C186.725 50.3198 187.096 50.2547 187.436 50.1897C187.003 49.843 186.478 49.3662 187.158 49.0845C185.922 48.8245 187.528 46.8524 187.961 48.3477C188.146 48.2177 188.3 48.1093 188.486 47.9793C186.324 47.1775 187.25 45.7255 189.536 46.3106C189.598 45.5305 187.683 45.3138 188.486 44.2736C189.32 44.447 189.752 44.9454 189.814 45.5738C191.976 44.577 190.246 43.9269 189.289 42.8C189.474 42.6699 189.628 42.5616 189.814 42.4316C189.814 42.6266 189.814 42.8 189.814 42.995C190.74 42.9517 190.617 42.1065 190.617 41.5214C191.234 41.7164 191.852 41.8898 192.47 42.0848C192.902 41.413 192.47 40.1345 191.142 40.6112C191.234 40.8062 191.327 40.9796 191.42 41.1747C191.142 41.1747 190.895 41.1747 190.617 41.1747C190.771 40.6762 190.154 40.3512 189.567 40.0694C190.092 39.636 190.617 39.2026 191.142 38.7692C191.049 39.3543 191.265 39.8961 191.945 40.2428C192.902 39.571 193.86 38.8992 194.848 38.2057C194.663 38.0757 194.508 37.9674 194.323 37.8373C194.045 38.1407 193.798 38.4441 193.52 38.7692C190.679 37.0572 199.913 35.8003 194.57 35.6269C194.941 35.0418 195.62 33.5465 194.57 33.2215C195.96 33.0914 195.126 34.5 195.744 34.7817C198.43 34.7817 199.635 30.7943 198.492 29.7108C198.214 29.7758 197.967 29.8408 197.689 29.9058C197.689 29.6674 197.689 29.4074 197.689 29.169C198.245 29.2557 199.172 29.2774 199.017 29.7324C199.882 29.6891 200.098 28.8656 200.345 28.2588C199.82 28.3238 199.295 28.3889 198.77 28.4539C199.11 28.2588 199.481 28.0855 199.82 27.8904C199.542 27.8904 199.295 27.8904 199.017 27.8904C199.079 27.327 200.067 27.1319 200.87 26.9586C198.585 25.68 202.075 24.8132 202.569 24.0113C202.075 22.8411 204.854 22.2777 204.793 21.4325C205.41 21.4325 206.028 21.4325 206.646 21.4325C206.646 21.1941 206.646 20.9341 206.646 20.6957C206.46 20.6957 206.306 20.6957 206.121 20.6957C206.213 19.3088 207.14 18.2252 209.024 17.7485C208.591 17.185 208.159 16.6432 207.696 16.0798C208.159 15.7981 208.622 16.1665 209.024 16.4482C208.499 15.0179 210.815 14.3245 210.074 12.9375C210.506 12.9375 210.939 12.9375 211.402 12.9375C211.34 12.3307 211.371 11.6806 212.205 11.4639C212.019 11.2689 211.865 11.0955 211.68 10.9005C212.112 10.7704 212.544 10.6621 213.008 10.5321C212.081 9.77358 213.903 7.95323 211.216 8.03992ZM100.868 8.1266C100.991 8.1266 101.145 8.1266 101.269 8.1266C101.176 8.36498 101.084 8.62503 100.991 8.86341C100.435 8.69004 99.941 8.14827 100.868 8.1266ZM152.568 8.40832C151.95 8.71171 152.32 9.21014 152.568 9.60022C152.351 9.01511 153.432 8.6467 154.143 8.29997C153.587 8.19161 153.093 8.10493 152.568 8.40832ZM164.921 8.1266C165.354 8.42999 165.786 8.73338 166.249 9.05845C165.292 8.69004 164.52 9.40518 163.871 9.99029C164.242 9.36184 164.581 8.73338 164.921 8.1266ZM167.824 8.29997C167.917 8.42999 168.01 8.53835 168.102 8.66837C167.917 8.66837 167.763 8.66837 167.577 8.66837C167.639 8.56002 167.732 8.42999 167.824 8.29997ZM150.467 8.66837C150.653 8.7984 150.807 8.90675 150.992 9.03678C150.807 8.92842 150.653 8.7984 150.467 8.66837ZM97.0688 9.14513C97.0688 9.23181 97.0688 9.34017 97.0688 9.42685C97.2541 9.42685 97.4085 9.42685 97.5938 9.42685C97.5938 9.23181 97.5938 9.05845 97.5938 8.86341C97.4085 8.86341 97.2541 8.86341 97.0688 8.86341C97.0688 8.95009 97.0688 9.03678 97.0688 9.14513ZM93.9186 9.23181C94.0113 9.42685 94.1039 9.60022 94.1966 9.79526C93.7951 9.86027 93.5171 9.6869 93.3936 9.42685C93.548 9.36184 93.7333 9.29683 93.9186 9.23181ZM162.574 9.40518C162.759 9.47019 162.914 9.53521 163.099 9.60022C162.914 9.53521 162.728 9.47019 162.574 9.40518ZM165.199 9.40518C165.384 9.47019 165.539 9.53521 165.724 9.60022C165.539 9.53521 165.354 9.47019 165.199 9.40518ZM151.517 9.77358C151.517 9.8386 151.517 9.90361 151.517 9.96862C151.795 9.90361 152.043 9.8386 152.32 9.77358C152.043 9.70857 151.795 9.64356 151.517 9.57855C151.517 9.66523 151.517 9.73024 151.517 9.77358ZM166.774 9.60022C166.96 9.73024 167.114 9.8386 167.299 9.96862C167.021 10.0336 166.774 10.0986 166.496 10.1637C166.589 9.96862 166.682 9.77359 166.774 9.60022ZM149.294 10.2503C149.973 10.337 149.973 10.5754 149.942 10.9005C149.664 10.9005 149.417 10.9005 149.139 10.9005C149.139 11.1388 149.139 11.3989 149.139 11.6373C148.182 11.789 148.058 9.96862 149.294 10.2503ZM99.416 11.2689C99.6013 11.3339 99.7557 11.3989 99.941 11.4639C99.7866 11.3772 99.6013 11.3122 99.416 11.2689ZM146.792 11.2689C146.885 11.2689 146.978 11.2689 147.07 11.2689C146.669 11.5939 147.194 11.919 147.595 12.2007C147.07 12.0707 146.545 11.9623 146.02 11.8323C146.205 11.5939 146.452 11.2472 146.792 11.2689ZM95.2157 11.8106C95.401 11.8757 95.5555 11.9407 95.7408 12.0057C95.5863 11.9407 95.401 11.8757 95.2157 11.8106ZM102.319 12.0057C102.319 12.0707 102.319 12.1357 102.319 12.2007C102.659 12.2007 103.029 12.2007 103.369 12.2007C103.369 12.0707 103.369 11.9623 103.369 11.8323C103.029 11.8323 102.659 11.8323 102.319 11.8323C102.319 11.8757 102.319 11.9407 102.319 12.0057ZM163.346 12.0057C163.439 12.1357 163.531 12.2441 163.624 12.3741C163.531 12.2441 163.439 12.114 163.346 12.0057ZM143.889 12.1791C144.321 12.2441 144.754 12.3091 145.217 12.3741C144.877 12.5041 144.507 12.6125 144.167 12.7425C144.074 12.5475 143.982 12.3741 143.889 12.1791ZM145.989 12.3741C146.329 12.4391 146.7 12.5041 147.039 12.5691C146.7 12.6341 146.329 12.6992 145.989 12.7642C145.989 12.6125 145.989 12.4824 145.989 12.3741ZM275.147 12.7425C275.239 12.8725 275.332 12.9809 275.425 13.1109C275.332 12.9809 275.239 12.8508 275.147 12.7425ZM202.013 12.9159C202.445 12.9809 202.878 13.0459 203.341 13.1109C202.569 13.3059 202.631 13.7827 203.063 14.2161C202.445 13.9344 201.766 13.826 201.21 14.2161C201.828 13.891 202.137 13.436 202.013 12.9159ZM268.568 12.9159C269.248 13.8044 267.611 15.278 265.943 15.3213C265.943 15.1263 265.943 14.9529 265.943 14.7579C266.221 14.7579 266.468 14.7579 266.746 14.7579C266.468 14.6279 266.221 14.5195 265.943 14.3895C266.808 13.9127 267.704 13.4143 268.568 12.9159ZM86.5373 13.2843C87.4021 13.3276 87.3712 14.0211 87.3403 14.5845C86.9079 14.5845 86.4755 14.5845 86.0123 14.5845C86.1976 14.1511 86.352 13.7177 86.5373 13.2843ZM103.894 13.2843C104.079 13.4793 104.234 13.6527 104.419 13.8477C104.079 13.9777 103.709 14.0861 103.369 14.2161C103.554 13.9127 103.74 13.5877 103.894 13.2843ZM86.8153 13.761C86.9079 13.7827 87.0006 13.826 87.0932 13.8477C86.9079 13.7827 86.7535 13.7177 86.5682 13.6527C86.6299 13.696 86.7226 13.7177 86.8153 13.761ZM162.945 14.3028C162.975 14.4545 163.037 14.6062 163.068 14.7579C163.253 14.5195 163.408 14.2595 163.593 14.0211C163.315 13.9561 163.068 13.891 162.79 13.826C162.883 13.9994 162.914 14.1511 162.945 14.3028ZM88.9154 14.2161C89.008 14.2811 89.1007 14.3461 89.1933 14.4111C89.008 14.2811 88.8536 14.1728 88.6683 14.0427C88.7301 14.0861 88.8227 14.1511 88.9154 14.2161ZM160.999 14.0211C161.184 14.0211 161.339 14.0211 161.524 14.0211C161.431 14.1511 161.339 14.2595 161.246 14.3895C161.153 14.2811 161.061 14.1511 160.999 14.0211ZM334.722 14.5845C334.753 14.7145 334.815 14.8229 334.846 14.9529C335.062 14.6495 335.124 14.3028 334.568 14.2161C334.629 14.3461 334.691 14.4545 334.722 14.5845ZM81.1635 14.7579C81.1943 14.8229 81.2561 14.8879 81.287 14.9529C81.1943 14.8229 81.1017 14.7145 81.009 14.5845C81.0708 14.6495 81.1017 14.7145 81.1635 14.7579ZM160.196 14.5845C160.783 14.4978 161.153 14.7362 161.246 15.148C160.906 15.213 160.536 15.278 160.196 15.343C160.196 15.0829 160.196 14.8229 160.196 14.5845ZM200.963 14.5845C201.241 14.5845 201.488 14.5845 201.766 14.5845C201.673 14.8879 201.457 15.2346 200.963 15.148C200.963 14.9529 200.963 14.7579 200.963 14.5845ZM84.9622 14.7579C85.2402 14.8879 85.4872 14.9963 85.7652 15.1263C85.4872 15.1263 85.2402 15.1263 84.9622 15.1263C84.9622 15.0179 84.9622 14.8879 84.9622 14.7579ZM91.139 15.1263C91.1699 15.2563 91.2317 15.3647 91.2626 15.4947C91.4479 15.2997 91.6023 15.1263 91.7876 14.9312C91.5096 14.8662 91.2626 14.8012 90.9846 14.7362C91.0464 14.8879 91.1081 15.0179 91.139 15.1263ZM98.8909 14.7579C99.0762 14.7579 99.2307 14.7579 99.416 14.7579C99.416 14.9529 99.416 15.1263 99.416 15.3213C99.2307 15.3213 99.0762 15.3213 98.8909 15.3213C98.8909 15.1263 98.8909 14.9529 98.8909 14.7579ZM95.4937 14.9529C95.7717 14.9529 96.0187 14.9529 96.2967 14.9529C96.1114 15.1913 95.957 15.4514 95.7716 15.6897C95.6481 15.4514 95.5863 15.1913 95.4937 14.9529ZM273.294 14.9529C273.479 15.0179 273.633 15.0829 273.819 15.148C273.664 15.0829 273.479 15.0179 273.294 14.9529ZM88.9154 15.408C88.9154 15.4947 88.9154 15.603 88.9154 15.6897C88.6374 15.6247 88.3903 15.5597 88.1124 15.4947C88.0197 15.7331 87.9271 15.9931 87.8344 16.2315C88.3595 16.2315 88.8845 16.2315 89.4095 16.2315C89.4095 15.7981 89.5022 15.213 88.8845 15.1263C88.9154 15.2346 88.9154 15.3213 88.9154 15.408ZM138.639 15.1263C138.546 15.2563 138.453 15.3647 138.361 15.4947C138.453 15.3863 138.546 15.2563 138.639 15.1263ZM333.672 15.408C333.641 15.4947 333.579 15.603 333.548 15.6897C333.734 15.6897 333.888 15.6897 334.073 15.6897C333.981 15.4947 333.888 15.3213 333.796 15.1263C333.765 15.2346 333.703 15.3213 333.672 15.408ZM206.491 15.3213C206.893 15.6464 206.399 15.8848 205.966 16.0581C206.151 15.8198 206.306 15.5597 206.491 15.3213ZM101.145 16.0581C101.115 16.2532 101.053 16.4265 101.022 16.6216C101.207 16.6216 101.362 16.6216 101.547 16.6216C101.454 16.2532 101.362 15.8848 101.269 15.5164C101.238 15.6897 101.176 15.8848 101.145 16.0581ZM266.468 15.4947C266.653 15.6247 266.808 15.7331 266.993 15.8631C266.808 15.7547 266.653 15.6247 266.468 15.4947ZM329.873 15.4947C330.059 15.5597 330.213 15.6247 330.398 15.6897C330.213 15.6247 330.028 15.5597 329.873 15.4947ZM80.484 15.6897C81.009 15.7764 80.9473 16.1231 80.762 16.4265C80.6693 16.1882 80.5767 15.9281 80.484 15.6897ZM95.4937 16.0581C95.5863 16.0581 95.679 16.0581 95.7716 16.0581C95.0304 16.5999 95.8025 17.5318 94.4436 17.7268C94.6289 17.9652 94.7834 18.2252 94.9687 18.4636C94.7834 18.5286 94.6289 18.5936 94.4436 18.6586C94.2583 18.4203 94.1039 18.1602 93.9186 17.9218C94.6289 17.8135 94.2583 17.0983 94.1966 16.6216C94.4745 16.6866 94.7216 16.7516 94.9995 16.8166C95.0613 16.5349 95.154 16.0581 95.4937 16.0581ZM139.164 16.0581C139.442 16.0581 139.689 16.0581 139.967 16.0581C139.967 16.2965 139.967 16.5566 139.967 16.7949C139.349 16.7299 139.04 16.4699 139.164 16.0581ZM89.8419 16.6216C89.8728 16.6866 89.9345 16.7516 89.9654 16.8166C89.8728 16.6866 89.7801 16.5782 89.6875 16.4482C89.7492 16.4916 89.7801 16.5566 89.8419 16.6216ZM86.6608 16.7083C86.1358 16.86 86.2902 17.7701 86.2593 18.2686C86.5373 18.2686 86.7844 18.2686 87.0623 18.2686C86.9388 17.5968 88.205 17.4234 87.8653 16.5999C87.4638 16.5999 87.0623 16.5999 86.6608 16.7083ZM78.6618 16.99C78.9398 17.12 79.1869 17.2284 79.4648 17.3584C79.0324 17.5968 78.6001 17.8568 78.1368 18.0952C78.2912 17.7268 78.4765 17.3584 78.6618 16.99ZM88.9154 17.5318C88.8227 17.6618 88.7301 17.7701 88.6374 17.9002C88.9771 17.7051 89.3477 17.5318 89.6875 17.3367C89.5022 17.2717 89.3478 17.2067 89.1625 17.1417C89.0698 17.2934 89.008 17.4017 88.9154 17.5318ZM77.3338 17.3584C77.5191 17.4884 77.6736 17.5968 77.8589 17.7268C77.6736 17.5968 77.5191 17.4667 77.3338 17.3584ZM80.2369 17.3584C80.4222 17.7268 80.5767 18.0952 80.762 18.4636C80.484 18.5286 80.2369 18.5936 79.959 18.6586C79.8046 18.1602 79.6192 17.6184 80.2369 17.3584ZM75.2337 17.9002C75.3264 18.0302 75.419 18.1385 75.5117 18.2686C75.419 18.1602 75.3264 18.0302 75.2337 17.9002ZM195.435 17.9002C195.62 18.1385 195.774 18.3986 195.96 18.637C195.774 18.637 195.62 18.637 195.435 18.637C195.435 18.3986 195.435 18.1602 195.435 17.9002ZM155.193 18.0952C155.378 18.1602 155.532 18.2252 155.718 18.2902C155.532 18.2035 155.378 18.1602 155.193 18.0952ZM98.1188 18.7453C98.088 19.2871 99.0454 19.4171 99.6939 19.5688C99.3233 18.9187 98.088 19.1137 98.1188 18.2686C98.1188 18.4203 98.1188 18.572 98.1188 18.7453ZM154.668 18.637C154.946 18.702 155.193 18.767 155.471 18.832C155.131 18.962 154.76 19.0704 154.421 19.2004C154.482 19.0054 154.575 18.832 154.668 18.637ZM204.638 19.2004C204.916 19.2004 205.163 19.2004 205.441 19.2004C205.348 19.5038 205.132 19.8505 204.638 19.7638C204.638 19.5688 204.638 19.3738 204.638 19.2004ZM93.6406 19.5688C95.8334 20.479 93.023 20.5873 92.7141 21.4108C90.6758 23.4912 92.5288 20.3056 91.5405 19.9372C92.3744 19.8289 93.0847 20.2189 93.6406 20.674C93.6406 20.3056 93.6406 19.9372 93.6406 19.5688ZM94.9687 19.5688C95.154 19.6338 95.3084 19.6988 95.4937 19.7638C95.3084 19.6988 95.1231 19.6338 94.9687 19.5688ZM129.929 19.7422C130.269 19.9806 130.64 20.2406 130.98 20.479C130.64 20.2406 130.3 20.0022 129.929 19.7422ZM134.686 19.7422C134.871 19.7422 135.025 19.7422 135.211 19.7422C135.118 19.9372 135.025 20.1106 134.933 20.3056C134.84 20.1106 134.778 19.9372 134.686 19.7422ZM204.638 19.9372C204.916 20.1323 205.163 20.3056 205.441 20.5007C205.163 20.3056 204.916 20.1106 204.638 19.9372ZM155.718 20.1106C155.903 20.1756 156.057 20.2406 156.243 20.3056C156.088 20.2406 155.903 20.1756 155.718 20.1106ZM99.416 20.479C99.416 20.544 99.416 20.609 99.416 20.674C99.7557 20.674 100.126 20.674 100.466 20.674C100.126 20.544 99.7557 20.4356 99.416 20.3056C99.416 20.3706 99.416 20.4356 99.416 20.479ZM132.586 20.3056C132.863 20.4356 133.111 20.544 133.389 20.674C133.111 20.544 132.833 20.4356 132.586 20.3056ZM191.234 20.3056C191.42 20.4356 191.574 20.544 191.759 20.674C191.482 20.8041 191.234 20.9124 190.956 21.0424C191.049 20.8041 191.142 20.544 191.234 20.3056ZM81.6885 20.8474C81.6576 20.9124 81.5958 20.9774 81.565 21.0424C81.9973 21.0424 82.4297 21.0424 82.893 21.0424C82.5532 20.9124 82.1826 20.8041 81.8429 20.674C81.7503 20.739 81.7194 20.8041 81.6885 20.8474ZM71.5585 21.4108C71.8982 21.4758 72.2688 21.5409 72.6086 21.6059C72.1762 21.7359 71.682 21.7792 71.5585 21.4108ZM99.5704 21.6059C99.6013 21.6709 99.663 21.7359 99.6939 21.8009C99.6013 21.6709 99.5086 21.5625 99.416 21.4325C99.4777 21.4758 99.5086 21.5409 99.5704 21.6059ZM75.7587 21.6059C75.8514 21.8009 75.944 21.9743 76.0367 22.1693C75.8514 22.1043 75.697 22.0393 75.5117 21.9743C75.5734 21.8443 75.6661 21.7142 75.7587 21.6059ZM96.6673 22.1476C96.5129 22.516 96.729 22.6027 97.0688 22.7111C97.2232 22.3427 97.4085 21.8876 96.7908 21.7792C96.7599 21.9093 96.6982 22.0176 96.6673 22.1476ZM71.0335 22.061C71.6512 22.1476 71.5585 22.6894 71.5585 23.0795C72.1453 22.8411 72.8865 22.4077 73.4115 22.7111C73.1336 23.0795 72.8865 23.4479 72.6086 23.8163C72.9483 23.6863 73.3189 23.5779 73.6586 23.4479C73.6586 23.7513 73.6586 24.0547 73.6586 24.3797C73.1336 24.3147 72.6086 24.2497 72.0835 24.1847C72.0835 24.3797 72.0835 24.5531 72.0835 24.7481C71.5585 24.7481 71.0335 24.7481 70.5084 24.7481C72.2071 23.8163 71.8056 23.2745 69.7055 23.4479C69.9834 22.9928 70.3231 21.9309 71.0335 22.061ZM72.0835 21.9743C72.3615 21.9743 72.6086 21.9743 72.8865 21.9743C72.8865 22.1043 72.8865 22.2127 72.8865 22.3427C72.6086 22.3427 72.3615 22.3427 72.0835 22.3427C72.0835 22.2127 72.0835 22.0826 72.0835 21.9743ZM187.034 21.9743C187.127 22.2777 187.22 22.5811 187.312 22.9061C187.189 22.5811 187.127 22.2777 187.034 21.9743ZM188.609 22.1476C188.887 22.2127 189.134 22.2777 189.412 22.3427C189.134 22.2777 188.856 22.2127 188.609 22.1476ZM90.3669 22.516C90.3978 22.5811 90.4596 22.6461 90.4905 22.7111C90.3978 22.5811 90.3052 22.4727 90.2125 22.3427C90.2743 22.386 90.3052 22.451 90.3669 22.516ZM156.644 22.4294C156.768 22.451 156.922 22.4944 157.046 22.516C156.768 22.451 156.521 22.386 156.243 22.321C156.366 22.3644 156.521 22.386 156.644 22.4294ZM185.706 22.3427C185.799 22.4727 185.892 22.5811 185.984 22.7111C185.892 22.5811 185.799 22.451 185.706 22.3427ZM87.9888 23.1662C87.2167 23.7079 86.5682 26.2651 86.2902 27.0453C84.8696 27.3053 83.7577 27.3703 84.4372 28.8006C84.2519 28.8006 84.0975 28.8006 83.9121 28.8006C83.9121 29.104 83.9121 29.4074 83.9121 29.7324C82.2444 29.5374 81.9664 31.0327 81.812 31.9429C82.09 31.8779 82.3371 31.8128 82.615 31.7478C82.7077 32.4413 79.5884 34.3917 80.5149 35.2585C79.434 35.0635 79.2795 35.887 79.1869 36.5588C79.7119 36.5588 80.2369 36.5588 80.762 36.5588C80.762 36.6888 80.762 36.7971 80.762 36.9272C79.7737 36.6021 79.1869 37.8157 77.8589 37.2956C77.7353 38.2057 77.2412 39.2243 76.9323 40.0694C76.2529 40.4595 78.2295 42.6266 76.0058 41.5431C75.5117 42.0415 75.4808 42.6266 75.7279 43.2117C74.4616 43.0817 73.3189 43.4934 73.8748 44.512C73.5042 45.7039 71.2188 46.3106 72.2997 48.0226C71.96 48.0226 71.5894 48.0226 71.2497 48.0226C71.1261 48.8245 71.3732 49.5829 72.2997 50.0597C71.7129 50.3198 71.1261 50.0597 70.7246 49.6913C69.551 50.9482 67.7598 52.5085 68.0995 53.7437C68.7172 53.4404 69.3348 53.137 69.9525 52.8119C69.3348 53.3753 68.7172 53.9171 68.0995 54.4806C68.5936 54.8056 69.1804 54.8056 69.6746 54.4806C69.7672 54.6756 69.8599 54.849 69.9525 55.044C67.3583 54.3289 65.6287 56.3659 68.6245 56.886C68.4392 57.0811 68.2848 57.2544 68.0995 57.4495C66.4008 56.0192 66.4626 58.1213 66.5244 59.1181C63.9301 59.0314 65.9994 61.1769 65.7214 61.892C66.0611 61.957 66.4317 62.022 66.7715 62.087C66.3391 62.087 65.9067 62.087 65.4434 62.087C65.4434 62.2821 65.4434 62.4554 65.4434 62.6505C65.1655 62.6505 64.9184 62.6505 64.6405 62.6505C65.3817 64.1674 67.42 68.2849 70.6937 66.7029C70.5084 67.1797 71.6512 67.158 72.2688 67.2664C72.1144 66.7896 72.6703 66.5729 73.3189 66.5296C73.1336 66.3345 72.9792 66.1611 72.7939 65.9661C73.4115 65.8361 74.0292 65.7277 74.6469 65.5977C74.5543 65.4027 74.4616 65.2293 74.369 65.0343C75.1719 65.0343 75.944 65.0343 76.747 65.0343C76.747 64.9042 76.747 64.7959 76.747 64.6659C77.0868 64.7959 77.4574 64.9042 77.7971 65.0343C77.7971 64.6008 77.7971 64.1674 77.7971 63.734C78.2295 63.734 78.6618 63.734 79.1251 63.734C79.1251 63.539 79.1251 63.3656 79.1251 63.1706C79.6501 63.3006 80.1752 63.409 80.7002 63.539C81.3179 62.3037 84.5298 61.5453 83.8504 60.0283C84.5607 60.0283 85.2402 60.0283 85.9505 60.0283C85.8578 59.8333 85.7652 59.6599 85.6725 59.4649C85.9505 59.4649 86.1976 59.4649 86.4755 59.4649C86.2902 58.9664 83.9739 58.0779 86.1976 57.7962C86.1976 57.9262 86.1976 58.0346 86.1976 58.1646C89.5639 57.6878 86.9697 57.2111 85.3946 56.691C86.352 56.6476 87.2476 56.4309 87.4947 55.7591C87.7727 55.9542 88.0197 56.1275 88.2977 56.3226C87.68 55.0657 90.5522 54.7406 91.4479 55.3907C91.2626 55.1957 91.1081 55.0223 90.9228 54.8273C91.5405 54.5889 92.1582 54.3289 92.7759 54.0905C92.3435 53.8521 91.9111 53.5921 91.4479 53.3537C92.22 53.0069 92.1582 52.4218 91.7258 51.8801C93.1156 51.9667 92.5906 53.6354 93.8259 53.7221C92.9921 52.7035 94.1039 52.0534 94.1039 51.1432C95.1849 53.3753 96.1731 50.9265 97.6556 50.4931C98.7365 50.3848 97.5938 48.8678 98.8292 48.9328C98.7365 49.1279 98.6439 49.3012 98.5512 49.4963C99.416 49.6263 100.312 48.9978 100.126 48.391C99.0762 48.4777 98.1188 48.2393 97.5012 47.6542C97.9953 47.4809 98.4894 47.5025 98.8292 47.8493C98.6439 47.4809 98.4894 47.1125 98.3041 46.7441C98.6439 46.7441 99.0145 46.7441 99.3542 46.7441C99.0762 46.1806 98.8292 45.6389 98.5512 45.0754C99.7248 44.9454 100.034 46.549 101.454 46.3757C101.362 46.1806 101.269 46.0073 101.176 45.8122C102.721 46.0289 102.844 44.7937 102.751 43.9702C103.091 44.0352 103.462 44.1002 103.802 44.1652C103.524 44.642 103.647 45.0754 104.327 45.2704C104.759 44.902 104.913 44.447 104.852 43.9702C104.512 43.9702 104.141 43.9702 103.802 43.9702C104.141 43.8402 104.512 43.7318 104.852 43.6018C103.554 41.6297 108.28 43.7101 107.477 40.6546C106.952 41.7164 104.079 43.2767 103.276 41.7598C103.184 42.3666 103.091 42.995 102.999 43.6018C102.381 43.3417 101.825 43.6018 101.423 43.9702C101.238 43.8402 101.084 43.7318 100.898 43.6018C101.578 43.2984 101.393 42.4099 101.423 41.7598C100.281 41.8465 99.8484 43.4934 98.5203 43.4284C99.1071 44.1002 97.9644 44.902 96.9452 44.7287C97.6247 45.5305 95.7408 45.7689 96.4202 46.5707C91.3243 46.2456 93.2083 51.5983 89.8419 51.9234C90.1199 51.8584 90.3669 51.7934 90.6449 51.7284C87.155 51.4683 82.2135 58.0996 78.5383 59.2915C78.8163 59.7249 79.0633 60.1583 79.3413 60.5917C78.8163 60.3967 78.2912 60.2233 77.7662 60.0283C77.6736 60.2233 77.5809 60.3967 77.4883 60.5917C74.9866 60.7651 71.5276 63.3873 73.288 65.381C71.96 65.5327 71.9291 64.4492 71.96 63.7123C71.5276 63.7123 71.0952 63.7123 70.632 63.7123C70.0452 64.9909 72.238 65.0126 71.96 66.1178C71.1879 66.0961 70.7555 65.7277 70.9099 65.186C70.632 65.251 70.3849 65.316 70.1069 65.381C66.6479 63.1489 72.2071 61.5669 70.1069 59.6599C70.1069 59.8549 70.1069 60.0283 70.1069 60.2233C69.6746 60.2233 69.2422 60.2233 68.7789 60.2233C69.9525 59.4649 74.7087 48.9328 73.7822 53.397C74.9557 53.0503 75.1102 51.8367 75.3572 50.9916C74.6778 51.0999 74.369 50.7098 74.3072 50.2547C76.0058 50.5798 76.1602 49.3012 77.4574 49.1495C76.9323 48.9545 76.4073 48.7811 75.8823 48.5861C76.1602 48.5861 76.4073 48.5861 76.6853 48.5861C75.5425 47.2208 78.1059 45.6389 78.5383 44.3386C78.0133 44.2736 77.4883 44.2086 76.9632 44.1436C77.0868 44.837 77.4265 45.7472 76.4382 45.9856C76.1602 45.0537 75.9132 44.1436 75.6352 43.2117C76.6853 43.4067 77.1176 42.5833 77.4883 41.9115C77.5809 42.3882 77.9206 43.1034 77.2103 43.2117C77.7044 43.8835 79.4957 42.865 79.8354 43.7752C80.2678 42.2582 83.6651 42.8867 81.4105 41.3697C82.2753 41.3047 83.2018 41.1747 83.5107 40.6329C83.0474 40.1345 81.7503 40.5462 81.287 40.2645C81.0399 39.6794 82.0591 39.4627 82.7385 39.701C82.9239 39.2459 81.7811 39.1376 81.1635 38.9642C81.4105 39.6577 79.0016 39.5493 80.3605 38.8775C81.4105 38.5742 83.0783 38.7042 84.0357 38.4225C83.8504 38.6175 83.696 38.7909 83.5107 38.9859C83.8504 39.0509 84.221 39.1159 84.5607 39.1809C84.1283 38.2491 83.696 37.3389 83.2327 36.4071C83.7268 36.3204 84.4372 36.2554 84.2828 35.8436C84.5607 36.0387 84.8078 36.212 85.0857 36.4071C85.4564 35.8003 85.6725 35.1068 84.8078 34.7384C86.9079 35.4319 88.9154 34.435 86.6608 33.2648C87.3712 33.1348 88.0506 33.0264 88.7609 32.8964C88.1741 31.8128 87.3403 30.5559 85.6108 30.8593C85.271 30.0792 87.5565 30.2309 88.5139 30.1225C88.4212 29.8191 88.3286 29.5157 88.2359 29.1907C89.1933 29.4724 89.5022 27.6737 90.2125 28.8223C90.7684 30.0142 91.139 28.0204 91.9111 28.2588C91.4788 28.6056 90.9537 29.0823 91.6332 29.364C92.1582 28.8439 92.5288 28.2588 92.1582 27.6954C92.4979 27.6304 92.8685 27.5654 93.2083 27.5003C90.2743 26.5902 89.5331 27.2186 88.7301 24.9215C89.5331 25.1599 90.3052 25.4199 91.1081 25.6583C90.8302 25.2899 90.5831 24.9215 90.3052 24.5531C91.7258 25.0949 93.023 24.4881 93.9804 23.6213C92.8377 23.2962 91.6949 23.3179 90.8302 23.8163C90.6449 23.6863 90.4905 23.5779 90.3052 23.4479C90.3978 23.5779 90.4905 23.6863 90.5831 23.8163C89.5331 23.9897 88.6683 23.1228 87.958 22.516C88.0815 22.7328 88.0197 22.9495 87.9888 23.1662ZM78.1368 22.8845C78.0442 22.9495 77.9515 23.0145 77.8589 23.0795C78.1986 23.2095 78.5692 23.3179 78.9089 23.4479C78.7236 23.2095 78.5692 22.9495 78.3839 22.7111C78.2912 22.7544 78.1986 22.8194 78.1368 22.8845ZM204.793 22.8845C204.823 22.9495 204.885 23.0145 204.916 23.0795C205.009 22.9495 205.101 22.8411 205.194 22.7111C205.009 22.7111 204.854 22.7111 204.669 22.7111C204.7 22.7544 204.731 22.8194 204.793 22.8845ZM246.486 22.8845C246.671 23.0145 246.826 23.1228 247.011 23.2529C246.826 23.1445 246.641 23.0145 246.486 22.8845ZM131.01 23.0795C131.288 23.1445 131.535 23.2095 131.813 23.2745C131.535 23.3395 131.288 23.4046 131.01 23.4696C131.01 23.3179 131.01 23.1878 131.01 23.0795ZM186.756 23.2529C187.189 23.2529 187.621 23.2529 188.084 23.2529C188.084 23.3829 188.084 23.4912 188.084 23.6213C187.652 23.6213 187.22 23.6213 186.756 23.6213C186.756 23.5129 186.756 23.3829 186.756 23.2529ZM67.6053 23.4479C67.698 23.5779 67.7906 23.6863 67.8833 23.8163C67.698 23.8813 67.5436 23.9463 67.3583 24.0113C67.42 23.8163 67.5127 23.6213 67.6053 23.4479ZM76.1602 24.1847C76.1911 24.3147 76.2529 24.4231 76.2838 24.5531C76.1911 24.3147 76.0985 24.0547 76.0058 23.8163C76.0676 23.9247 76.0985 24.0547 76.1602 24.1847ZM152.29 23.9897C152.382 24.1847 152.475 24.3581 152.568 24.5531C152.382 24.5531 152.228 24.5531 152.043 24.5531C152.135 24.3581 152.228 24.1847 152.29 23.9897ZM155.069 24.5531C155.1 24.6831 155.162 24.7915 155.193 24.9215C155.1 24.6831 155.007 24.4231 154.915 24.1847C154.977 24.2931 155.007 24.4231 155.069 24.5531ZM232.804 24.5531C232.99 24.6181 233.144 24.6831 233.329 24.7481C233.144 24.6615 232.959 24.6181 232.804 24.5531ZM73.3807 24.7265C73.566 24.8565 73.7204 24.9649 73.9057 25.0949C73.7513 24.9865 73.566 24.8565 73.3807 24.7265ZM190.184 24.9215C190.462 24.9865 190.709 25.0515 190.987 25.1166C190.709 25.0515 190.431 24.9865 190.184 24.9215ZM73.3807 25.4633C73.566 25.5283 73.7204 25.5933 73.9057 25.6583C73.7513 25.5933 73.566 25.5283 73.3807 25.4633ZM87.8653 25.6583C88.0506 25.9617 88.205 26.2651 88.3903 26.5902C87.9889 26.3084 87.4638 25.9834 87.8653 25.6583ZM293.955 25.94C293.801 26.2434 294.079 26.3084 294.357 26.3951C294.573 26.0917 294.634 25.745 294.079 25.6583C294.048 25.745 293.986 25.8317 293.955 25.94ZM68.9333 25.8317C69.1187 25.9617 69.2731 26.0701 69.4584 26.2001C69.1804 26.2001 68.9333 26.2001 68.6554 26.2001C68.748 26.0917 68.8407 25.9617 68.9333 25.8317ZM91.7876 25.94C91.8802 25.9617 91.9729 26.0051 92.0656 26.0267C91.8802 25.9617 91.7258 25.8967 91.5405 25.8317C91.6332 25.875 91.7258 25.8967 91.7876 25.94ZM125.482 26.3951C125.822 26.4601 126.193 26.5252 126.532 26.5902C126.1 26.7202 125.606 26.7635 125.482 26.3951ZM71.2805 26.5902C71.3732 26.7202 71.4658 26.8285 71.5585 26.9586C71.4658 26.8285 71.3732 26.6985 71.2805 26.5902ZM62.355 26.9586C62.633 27.1536 62.8801 27.327 63.158 27.522C62.8801 27.327 62.6021 27.1319 62.355 26.9586ZM121.776 26.9586C122.579 27.1319 123.876 27.2403 123.629 27.8904C122.826 27.6954 121.56 27.587 121.776 26.9586ZM180.332 27.1319C180.888 27.3486 180.579 28.2155 179.931 28.0638C179.931 27.8687 179.931 27.6954 179.931 27.5003C179.468 28.1938 177.306 28.3455 177.306 27.5003C178.325 27.9771 179.468 26.9586 180.332 27.1319ZM61.027 27.327C61.305 27.522 61.552 27.6954 61.83 27.8904C61.552 27.6954 61.305 27.5003 61.027 27.327ZM125.204 27.327C125.39 27.392 125.544 27.457 125.729 27.522C125.575 27.4353 125.39 27.3703 125.204 27.327ZM62.8801 27.8687C64.4243 28.1721 64.8258 29.8841 62.8801 29.7108C62.8801 29.104 62.8801 28.4972 62.8801 27.8687ZM59.977 28.2372C60.3167 28.2372 60.6873 28.2372 61.027 28.2372C61.027 28.3672 61.027 28.4755 61.027 28.6056C60.6873 28.4972 60.3167 28.3672 59.977 28.2372ZM65.7523 28.2372C66.092 28.3022 66.4626 28.3672 66.8023 28.4322C66.5553 28.7356 66.2464 29.0606 65.7523 28.9956C65.7523 28.7356 65.7523 28.4972 65.7523 28.2372ZM88.1124 28.2372C88.2977 28.3672 88.4521 28.4755 88.6374 28.6056C88.2977 28.6706 87.9271 28.7356 87.5874 28.8006C87.7727 28.6056 87.958 28.4322 88.1124 28.2372ZM119.429 28.2372C119.522 28.3672 119.614 28.4755 119.707 28.6056C119.583 28.4755 119.522 28.3672 119.429 28.2372ZM93.1156 28.6056C93.1156 28.6706 93.1156 28.7356 93.1156 28.8006C93.3936 28.8006 93.6406 28.8006 93.9186 28.8006C93.9186 28.6706 93.9186 28.5622 93.9186 28.4322C93.6406 28.4322 93.3936 28.4322 93.1156 28.4322C93.1156 28.4972 93.1156 28.5405 93.1156 28.6056ZM149.294 28.6056C149.417 28.6056 149.572 28.6056 149.695 28.6056C149.942 29.234 148.676 29.364 147.842 29.5374C148.244 29.1907 148.8 28.6056 149.294 28.6056ZM179.128 28.6056C179.313 28.7356 179.468 28.8439 179.653 28.974C179.498 28.8656 179.313 28.7356 179.128 28.6056ZM58.9269 28.974C59.0195 29.169 59.1122 29.3424 59.2048 29.5374C58.9269 29.5374 58.6798 29.5374 58.4019 29.5374C58.5563 29.3424 58.7416 29.169 58.9269 28.974ZM119.676 28.974C119.769 29.104 119.861 29.2123 119.954 29.3424C119.861 29.234 119.769 29.104 119.676 28.974ZM175.453 29.169C176.07 29.364 176.688 29.5374 177.306 29.7324C176.534 30.1659 175.422 31.0977 174.681 30.4693C174.773 30.9027 174.866 31.3361 174.959 31.7695C174.094 31.7695 173.198 31.7695 172.333 31.7695C172.426 32.0729 172.519 32.3763 172.611 32.7013C171.994 32.7013 171.376 32.7013 170.758 32.7013C171.654 31.4661 174.804 31.6395 174.711 29.9275C175.144 30.0575 175.576 30.1659 176.039 30.2959C175.792 29.9058 175.638 29.5374 175.453 29.169ZM65.2273 29.3424C65.3199 29.4724 65.4126 29.5807 65.5052 29.7108C65.3199 29.7108 65.1655 29.7108 64.9802 29.7108C65.0728 29.6024 65.1346 29.4724 65.2273 29.3424ZM85.2402 29.9925C85.3328 30.0142 85.4255 30.0575 85.5181 30.0792C84.4372 30.4476 84.6225 31.6395 83.14 31.7478C82.7386 31.1627 84.5298 29.9275 85.2402 29.9925ZM62.0771 30.0792C62.6639 30.2525 62.9418 30.5993 62.6021 31.011C62.4168 30.7076 62.2624 30.4042 62.0771 30.0792ZM89.6875 30.3609C89.5022 30.4476 89.3478 30.5559 89.1625 30.6426C89.5022 30.6426 89.8728 30.6426 90.2125 30.6426C90.2125 30.4476 90.2125 30.2742 90.2125 30.0792C90.0581 30.1875 89.8728 30.2742 89.6875 30.3609ZM146.792 30.0792C146.978 30.2092 147.132 30.3176 147.317 30.4476C147.132 30.3392 146.947 30.2092 146.792 30.0792ZM88.5139 30.5559C88.6374 30.5776 88.7918 30.6209 88.9154 30.6426C88.6374 30.5776 88.3903 30.5126 88.1124 30.4476C88.2668 30.4909 88.3903 30.5126 88.5139 30.5559ZM118.626 30.4476C118.811 30.5776 118.966 30.686 119.151 30.816C118.996 30.7076 118.811 30.5776 118.626 30.4476ZM58.1239 30.6426C58.3092 30.7076 58.4636 30.7726 58.6489 30.8377C58.371 30.9677 58.1239 31.076 57.846 31.2061C57.9695 31.011 58.0313 30.816 58.1239 30.6426ZM198.06 30.6426C198.245 30.8377 198.4 31.011 198.585 31.2061C198.4 31.2061 198.245 31.2061 198.06 31.2061C198.06 31.011 198.06 30.816 198.06 30.6426ZM53.9237 31.0977C54.0163 31.1194 54.109 31.1627 54.2016 31.1844C54.0163 31.1194 53.8619 31.0544 53.6766 30.9894C53.7384 31.0327 53.831 31.076 53.9237 31.0977ZM89.4404 31.0977C89.5331 31.1194 89.6257 31.1627 89.7184 31.1844C89.5331 31.1194 89.3786 31.0544 89.1933 30.9894C89.2551 31.0327 89.3478 31.076 89.4404 31.0977ZM90.4905 31.3794C90.4905 31.4444 90.4905 31.5095 90.4905 31.5745C90.7684 31.5745 91.0155 31.5745 91.2934 31.5745C91.2934 31.4444 91.2934 31.3361 91.2934 31.2061C91.0155 31.2061 90.7684 31.2061 90.4905 31.2061C90.4905 31.2494 90.4905 31.3144 90.4905 31.3794ZM65.2273 31.5528C65.3199 31.6178 65.4126 31.6828 65.5052 31.7478C65.3199 31.6178 65.1655 31.5095 64.9802 31.3794C65.0728 31.4444 65.1346 31.5095 65.2273 31.5528ZM196.238 31.3794C197.597 31.5528 197.102 32.7664 195.96 32.853C196.454 32.3763 196.886 31.7912 196.238 31.3794ZM189.659 31.7478C189.845 31.8128 189.999 31.8779 190.184 31.9429C190.092 32.0729 189.999 32.1813 189.906 32.3113C189.721 32.2463 189.567 32.1812 189.381 32.1162C189.474 31.9862 189.567 31.8779 189.659 31.7478ZM52.0706 32.5713C51.978 32.788 51.8853 33.0047 51.7927 33.2215C51.5147 33.0914 51.2676 32.9831 50.9897 32.853C49.5072 34.5867 45.3379 35.3019 47.3145 38.4008C47.8086 38.3141 48.519 38.2491 48.3645 37.8373C48.0248 37.9024 47.6542 37.9674 47.3145 38.0324C47.4071 37.6206 47.7777 37.4039 48.3645 37.4689C48.2719 36.9922 47.9321 36.277 48.6425 36.1687C48.8278 36.4071 48.9822 36.6671 49.1675 36.9055C49.2602 36.4721 49.3528 36.0387 49.4455 35.6052C49.9705 35.7353 50.4955 35.8436 51.0206 35.9736C49.9087 34.9551 53.8928 34.2617 51.5456 33.7632C51.8235 33.5682 52.0706 33.3948 52.3486 33.1998C53.9854 34.7384 52.8736 30.2959 52.0706 32.5713ZM83.6342 31.9429C84.0048 32.5497 84.5916 33.2865 84.1592 33.7849C83.0165 33.1998 81.7194 32.3546 83.6342 31.9429ZM85.7652 31.9429C85.8578 32.1379 85.9505 32.3113 86.0432 32.5063C85.9196 32.3113 85.827 32.1162 85.7652 31.9429ZM88.7918 32.1162C88.8227 32.1812 88.8845 32.2463 88.9154 32.3113C89.1007 32.2463 89.2551 32.1812 89.4404 32.1162C89.1624 32.0512 88.9154 31.9862 88.6374 31.9212C88.6992 31.9862 88.7301 32.0512 88.7918 32.1162ZM145.063 32.3113C145.186 32.3113 145.341 32.3113 145.464 32.3113C145.495 32.853 145.279 33.6765 145.989 33.7849C145.711 34.0883 145.464 34.3917 145.186 34.7167C144.877 34.2183 144.136 34.0449 143.333 33.9799C143.642 33.2431 143.92 32.2896 145.063 32.3113ZM290.928 32.4846C291.114 32.6147 291.268 32.723 291.453 32.853C291.175 32.9181 290.928 32.9831 290.65 33.0481C290.743 32.853 290.836 32.6797 290.928 32.4846ZM54.9737 32.853C54.6649 33.0698 54.8811 33.4815 54.9737 33.7849C55.7767 33.7416 55.8385 33.1781 55.7767 32.6797C55.4679 32.658 55.2208 32.658 54.9737 32.853ZM319.589 32.853C319.682 33.0481 319.774 33.2215 319.867 33.4165C319.681 33.4165 319.527 33.4165 319.342 33.4165C319.434 33.2215 319.527 33.0481 319.589 32.853ZM113.098 33.2215C113.283 33.2865 113.437 33.3515 113.623 33.4165C113.468 33.3515 113.283 33.2865 113.098 33.2215ZM169.152 33.4165C169.492 33.4815 169.863 33.5465 170.202 33.6115C169.739 33.7416 169.245 33.7849 169.152 33.4165ZM176.503 33.4165C176.688 33.5465 176.842 33.6549 177.028 33.7849C176.842 33.6549 176.688 33.5248 176.503 33.4165ZM88.5139 33.9583C88.5448 34.0233 88.6065 34.0883 88.6374 34.1533C88.5448 34.0233 88.4521 33.9149 88.3595 33.7849C88.4212 33.8499 88.483 33.8932 88.5139 33.9583ZM112.851 33.7849C112.943 33.7849 113.036 33.7849 113.129 33.7849C113.036 34.0233 112.943 34.2833 112.851 34.5217C112.264 34.4784 112.326 33.8066 112.851 33.7849ZM57.8768 34.1533C57.9386 34.435 59.1122 34.565 59.7299 34.7167C59.977 34.0666 58.6798 34.0666 57.8768 33.9799C57.8768 34.0233 57.8768 34.0883 57.8768 34.1533ZM54.8502 34.4133C54.8193 34.5 54.7575 34.6084 54.7267 34.6951C54.912 34.6301 55.0664 34.565 55.2517 34.5C55.159 34.37 55.0664 34.2617 54.9737 34.1316C54.9428 34.24 54.8811 34.3267 54.8502 34.4133ZM141.511 34.1533C142.098 34.2183 142.407 34.4784 142.314 34.8901C142.036 34.6301 141.789 34.3917 141.511 34.1533ZM165.601 34.24C165.724 34.2617 165.879 34.305 166.002 34.3267C165.724 34.2617 165.477 34.1966 165.199 34.1316C165.323 34.175 165.446 34.2183 165.601 34.24ZM56.3017 34.5217C56.3017 34.5867 56.3017 34.6517 56.3017 34.7167C56.5797 34.6517 56.8268 34.5867 57.1047 34.5217C56.8268 34.4567 56.5797 34.3917 56.3017 34.3267C56.3017 34.3917 56.3017 34.4567 56.3017 34.5217ZM143.364 34.3267C143.642 34.3267 143.889 34.3267 144.167 34.3267C144.167 34.565 144.167 34.8251 144.167 35.0635C143.889 34.8251 143.611 34.5867 143.364 34.3267ZM168.627 34.3267C168.72 34.4567 168.813 34.565 168.905 34.6951C168.782 34.5867 168.689 34.4567 168.627 34.3267ZM53.2751 35.0635C53.2442 35.1285 53.1824 35.1935 53.1516 35.2585C53.4295 35.3235 53.6766 35.3885 53.9546 35.4535C53.9546 35.2585 53.9546 35.0851 53.9546 34.8901C53.6766 34.8901 53.3986 34.8684 53.2751 35.0635ZM56.0238 35.2585C55.9311 35.3885 55.8385 35.4969 55.7458 35.6269C56.0238 35.5619 56.2709 35.4969 56.5488 35.4319C56.4562 35.2368 56.3635 35.0635 56.2709 34.8684C56.2091 34.9985 56.1164 35.1285 56.0238 35.2585ZM54.5722 35.4319C54.6031 35.4969 54.6649 35.5619 54.6958 35.6269C54.6031 35.4969 54.5105 35.3885 54.4178 35.2585C54.4796 35.3235 54.5414 35.3669 54.5722 35.4319ZM81.812 35.6269C81.287 36.212 83.3253 37.7073 81.287 37.664C81.3179 36.9705 81.1017 35.9303 81.812 35.6269ZM52.5957 35.9086C52.503 35.9303 52.4103 35.9736 52.3177 35.9953C52.4721 36.4721 53.4604 36.3637 54.1707 36.3637C54.1707 36.1687 54.1707 35.9953 54.1707 35.8003C53.6766 35.8003 52.9354 35.7786 52.5957 35.9086ZM55.6223 35.9953C55.6532 36.0603 55.7149 36.1253 55.7458 36.1904C55.6532 36.0603 55.5605 35.952 55.4679 35.822C55.5605 35.8653 55.5914 35.9303 55.6223 35.9953ZM112.326 35.8003C112.418 35.9953 112.511 36.1687 112.603 36.3637C112.326 36.4287 112.078 36.4937 111.801 36.5588C111.955 36.2987 112.14 36.0603 112.326 35.8003ZM114.302 36.277C114.179 36.7105 114.302 36.8188 114.704 36.9272C114.889 36.6238 115.043 36.3204 115.229 35.9953C114.951 35.9303 114.704 35.8653 114.426 35.8003C114.395 35.952 114.333 36.1253 114.302 36.277ZM194.138 35.9953C194.416 36.1253 194.663 36.2337 194.941 36.3637C194.663 36.2337 194.385 36.1253 194.138 35.9953ZM163.624 36.1687C164.643 36.5588 164.983 37.2089 164.149 37.8373C163.501 37.5556 163.624 36.7755 163.624 36.1687ZM165.446 36.1687C165.632 36.1687 165.786 36.1687 165.971 36.1687C165.879 36.2987 165.786 36.4071 165.693 36.5371C165.632 36.4287 165.539 36.2987 165.446 36.1687ZM50.4955 37.0139C50.3102 37.1655 50.1558 37.3172 49.9705 37.4689C51.2676 38.1191 53.9237 37.1005 53.3986 38.9426C53.6766 38.9426 53.9237 38.9426 54.2016 38.9426C53.9237 38.7042 53.6766 38.4441 53.3986 38.2057C54.0163 37.9674 54.634 37.7073 55.2517 37.4689C54.634 37.2089 52.225 37.0789 51.5765 37.4689C51.3912 37.1655 51.2368 36.8622 51.0514 36.5371C50.8661 36.7105 50.6808 36.8622 50.4955 37.0139ZM55.7767 36.7321C55.8694 36.7971 55.962 36.8622 56.0547 36.9272C55.8694 36.7971 55.7149 36.6888 55.5296 36.5588C55.5914 36.6021 55.6841 36.6671 55.7767 36.7321ZM109.947 36.5371C110.133 37.2739 110.287 38.0107 110.472 38.7475C109.793 38.0541 109.268 37.2522 109.947 36.5371ZM140.739 36.5371C140.832 36.5371 140.924 36.5371 141.017 36.5371C141.171 37.0572 140.492 37.5556 139.967 38.0107C139.782 37.8157 139.627 37.6423 139.442 37.4473C139.72 37.4473 139.967 37.4473 140.245 37.4473C139.874 37.1005 140.059 36.5588 140.739 36.5371ZM161.647 36.7321C161.678 36.7971 161.74 36.8622 161.771 36.9272C161.678 36.7971 161.586 36.6888 161.493 36.5588C161.555 36.6021 161.586 36.6671 161.647 36.7321ZM144.291 37.1872C144.26 37.3389 144.198 37.4906 144.167 37.6423C144.352 37.6423 144.507 37.6423 144.692 37.6423C144.599 37.3389 144.507 37.0355 144.414 36.7105C144.383 36.8838 144.321 37.0355 144.291 37.1872ZM45.4923 37.3823C45.6776 37.534 45.832 37.6856 46.0173 37.8373C46.11 37.599 46.2026 37.3389 46.2953 37.1005C45.8629 37.0355 45.4305 36.9705 44.9673 36.9055C45.1526 37.0789 45.3379 37.2306 45.4923 37.3823ZM315.667 37.1005C315.759 37.2956 315.852 37.4689 315.945 37.664C315.821 37.4689 315.728 37.2956 315.667 37.1005ZM108.65 37.2956C108.743 37.4256 108.836 37.534 108.928 37.664C108.805 37.534 108.712 37.4039 108.65 37.2956ZM50.2485 37.924C50.3411 37.9457 50.4338 37.989 50.5264 38.0107C50.3411 37.9457 50.1867 37.8807 50.0014 37.8157C50.0632 37.859 50.1558 37.9024 50.2485 37.924ZM78.1368 37.8373C78.3221 37.9024 78.4765 37.9674 78.6618 38.0324C78.4765 37.9674 78.2912 37.9024 78.1368 37.8373ZM54.8502 38.4875C54.9737 38.5742 55.1281 38.6825 55.2517 38.7692C54.9737 38.5742 54.7267 38.4008 54.4487 38.2057C54.5722 38.2924 54.7267 38.4008 54.8502 38.4875ZM51.9471 39.2243C51.9162 39.311 51.8544 39.4193 51.8235 39.506C52.8427 39.8744 53.0589 39.2243 52.1015 38.9426C52.0397 39.0292 52.0089 39.1376 51.9471 39.2243ZM106.519 39.1376C106.705 39.2026 106.859 39.2676 107.044 39.3326C106.365 39.3976 105.346 39.636 105.191 39.1376C105.655 39.0076 106.025 38.9426 106.519 39.1376ZM189.381 38.9426C189.567 39.0726 189.721 39.1809 189.906 39.311C189.752 39.1809 189.567 39.0726 189.381 38.9426ZM42.8672 39.506C41.6936 40.3295 40.0258 40.5679 39.964 41.9981C38.4507 42.1065 36.9683 41.9548 37.0609 43.5584C36.7521 42.8867 35.7638 43.5151 35.4859 43.9269C35.7638 43.9919 36.0109 44.0569 36.2888 44.1219C33.7872 44.3819 32.6754 46.9824 30.2356 47.2642C30.0194 48.2177 28.4443 49.7997 26.8074 49.843C28.0119 50.4064 27.456 51.4033 26.0044 50.9482C26.2824 51.3166 26.5295 51.685 26.8074 52.0534C29.0311 50.5798 30.39 51.75 32.8607 51.8584C32.8607 51.62 32.8607 51.36 32.8607 51.1216C31.2856 51.2516 31.0077 49.3012 32.8607 49.4529C32.6754 48.9545 32.521 48.4777 32.3357 47.9793C33.6328 47.6976 33.3857 49.1929 34.7137 48.9111C34.2814 49.5179 33.849 50.1464 33.3857 50.7532C33.9108 50.5148 34.4358 50.2547 34.9608 50.0164C34.9608 50.3198 34.9608 50.6231 34.9608 50.9482C35.1461 50.9482 35.3005 50.9482 35.4859 50.9482C35.4859 50.4498 35.4859 49.973 35.4859 49.4746C35.7638 49.4746 36.0109 49.4746 36.2888 49.4746C36.2888 49.713 36.2888 49.973 36.2888 50.2114C37.9566 50.0814 36.505 48.4561 35.4859 49.2796C35.2079 48.2393 33.6946 46.1373 36.8139 47.0691C36.8139 46.7007 36.8139 46.3323 36.8139 45.9639C36.3815 46.0939 35.9491 46.2023 35.4859 46.3323C35.1461 45.4655 36.8447 45.4872 37.8639 45.4005C37.586 46.289 37.6477 48.0226 36.2888 47.9793C36.8139 48.3477 37.3389 48.7161 37.8639 49.0845C37.7713 48.8461 37.6786 48.5861 37.586 48.3477C40.242 49.1495 41.8789 44.5986 43.3613 43.9269C42.2495 45.1838 45.9865 44.3169 45.7394 43.7318C45.307 43.7968 44.8746 43.8618 44.4114 43.9269C44.504 43.6235 44.5967 43.3201 44.6893 42.995C44.4114 43.125 44.1643 43.2334 43.8863 43.3634C43.9172 41.8898 42.651 42.1065 41.2612 42.0632C41.3229 41.413 42.5274 41.4997 43.3613 41.4997C43.3613 41.2613 43.3613 41.0013 43.3613 40.7629C43.701 40.8279 44.0716 40.8929 44.4114 40.9579C44.5658 40.1995 42.9289 39.9828 42.8363 39.1159C42.8672 39.2459 42.8672 39.376 42.8672 39.506ZM44.8437 39.506C44.9673 39.8744 45.1526 39.8961 45.4923 39.8744C45.3688 39.5277 45.2761 39.0292 44.6893 39.1376C44.7511 39.2459 44.8129 39.376 44.8437 39.506ZM46.8203 39.3976C46.913 39.4193 47.0056 39.4627 47.0983 39.4843C46.913 39.4193 46.7586 39.3543 46.5732 39.2893C46.635 39.3543 46.7277 39.376 46.8203 39.3976ZM109.422 39.5927C109.33 39.6794 109.237 39.7877 109.144 39.8744C109.422 39.8094 109.67 39.7444 109.947 39.6794C109.855 39.5493 109.762 39.441 109.67 39.311C109.608 39.3976 109.515 39.506 109.422 39.5927ZM47.8704 39.9611C47.8395 40.4595 48.3954 40.5245 48.9204 40.6112C49.0749 40.0694 48.6116 39.6794 47.8704 39.506C47.8704 39.6577 47.8704 39.8094 47.8704 39.9611ZM78.6618 39.6794C78.8472 39.6794 79.0016 39.6794 79.1869 39.6794C79.0942 39.8094 79.0016 39.9177 78.9089 40.0478C78.8163 39.9394 78.7236 39.8094 78.6618 39.6794ZM108.125 39.766C108.218 39.7877 108.311 39.8311 108.403 39.8527C108.218 39.7877 108.064 39.7227 107.878 39.6577C107.94 39.7227 108.033 39.7444 108.125 39.766ZM159.918 39.6794C160.103 39.7444 160.258 39.8094 160.443 39.8744C160.289 39.8094 160.103 39.7444 159.918 39.6794ZM52.4721 40.0478C52.503 40.1128 52.5648 40.1778 52.5957 40.2428C52.503 40.1128 52.4103 40.0044 52.3177 39.8744C52.3795 39.9394 52.4412 39.9828 52.4721 40.0478ZM137.311 40.7846C137.311 41.6081 135.458 42.1932 135.983 42.8216C136.6 42.3232 137.218 41.8465 137.836 41.348C138.052 41.8898 138.67 42.1715 139.411 41.9115C139.411 42.2149 139.411 42.5182 139.411 42.8433C140.585 42.865 141.295 42.3666 141.264 41.5431C141.542 41.6081 141.789 41.6731 142.067 41.7381C142.592 40.8496 141.758 40.1561 140.492 40.0694C140.677 41.6948 137.928 41.3697 137.589 40.0694C137.496 40.3078 137.403 40.5462 137.311 40.7846ZM41.57 40.2428C41.7553 40.3078 41.9097 40.3728 42.0951 40.4378C41.9097 40.3512 41.7244 40.3078 41.57 40.2428ZM105.871 40.6979C105.191 41.1313 105.284 41.4564 105.469 41.8898C105.747 41.8248 105.994 41.7598 106.272 41.6948C105.994 41.4997 105.747 41.3264 105.469 41.1313C106.18 40.9796 107.013 40.7196 106.519 40.1995C106.303 40.3945 106.087 40.5462 105.871 40.6979ZM139.009 40.6112C138.979 40.6762 138.917 40.7412 138.886 40.8063C139.071 40.8063 139.226 40.8063 139.411 40.8063C139.318 40.6762 139.226 40.5679 139.133 40.4378C139.102 40.4812 139.071 40.5462 139.009 40.6112ZM164.149 40.6112C164.242 40.7412 164.334 40.8496 164.427 40.9796C164.304 40.8496 164.242 40.7196 164.149 40.6112ZM156.521 40.9796C157.077 41.153 158.003 41.283 157.849 41.7164C157.138 41.8248 156.768 41.413 156.521 40.9796ZM79.5575 41.2613C79.681 41.283 79.8354 41.3264 79.959 41.348C79.5266 41.5864 79.0942 41.8465 78.631 42.0848C78.8472 41.7598 79.0633 41.1313 79.5575 41.2613ZM136.137 41.348C136.168 41.413 136.23 41.478 136.261 41.5431C136.168 41.413 136.075 41.3047 135.983 41.1747C136.045 41.218 136.075 41.283 136.137 41.348ZM253.064 41.348C253.25 41.478 253.404 41.5864 253.589 41.7164C253.404 41.5864 253.219 41.478 253.064 41.348ZM44.3187 41.9981C44.2878 42.1498 44.2261 42.3015 44.1952 42.4532C45.1835 42.6483 45.5541 41.5647 44.4731 41.5214C44.4114 41.6731 44.3805 41.8465 44.3187 41.9981ZM47.3454 42.3666C47.2527 42.4532 47.16 42.5616 47.0674 42.6483C47.5924 42.5182 48.1175 42.4099 48.6425 42.2799C48.2101 42.1932 47.6233 42.0415 47.3454 42.3666ZM255.01 42.2582C255.041 42.3232 255.103 42.3882 255.134 42.4532C255.041 42.3232 254.948 42.2149 254.856 42.0848C254.948 42.1498 254.979 42.2149 255.01 42.2582ZM302.757 42.0848C302.942 42.1498 303.097 42.2149 303.282 42.2799C303.128 42.2149 302.942 42.1498 302.757 42.0848ZM41.57 42.4532C41.848 42.6483 42.0951 42.8216 42.373 43.0167C42.0951 42.8216 41.8171 42.6483 41.57 42.4532ZM152.166 42.735C152.197 42.8216 152.259 42.93 152.29 43.0167C152.568 42.8867 152.815 42.7783 153.093 42.6483C152.753 42.5833 152.382 42.5182 152.043 42.4532C152.073 42.5399 152.135 42.6266 152.166 42.735ZM202.816 42.4532C203.001 42.5182 203.156 42.5833 203.341 42.6483C203.156 42.5833 202.97 42.5182 202.816 42.4532ZM47.7468 43.2767C47.3454 43.5801 46.9747 43.4718 46.5732 43.3634C46.4806 43.5584 46.3879 43.7318 46.2953 43.9269C47.5924 44.1652 47.7777 43.2551 48.9204 43.19C48.5189 43.0817 48.1483 42.9733 47.7468 43.2767ZM134.933 43.2767C134.84 43.2984 134.747 43.3417 134.655 43.3634C134.84 43.6018 134.994 43.8618 135.18 44.1002C134.562 44.1869 133.419 44.1869 133.605 44.6637C134.439 44.577 135.18 44.772 135.18 45.4005C134.037 44.5336 130.918 46.549 133.08 46.8741C132.987 47.0041 132.894 47.1125 132.802 47.2425C133.697 47.2208 133.975 46.7224 133.852 46.1373C135.242 46.5707 135.736 45.5738 137.002 45.9422C137.095 45.6389 137.187 45.3355 137.28 45.0104C138.731 47.2642 139.009 43.8618 136.755 44.0785C136.292 46.0073 134.809 44.2953 136.755 43.3417C136.075 43.6668 135.489 43.2767 134.933 43.2767ZM138.639 43.7535C138.886 44.1652 139.287 44.0569 139.689 43.9485C139.627 43.4501 139.04 43.3201 138.361 43.3851C138.453 43.4934 138.546 43.6235 138.639 43.7535ZM202.291 43.3851C202.476 43.4501 202.631 43.5151 202.816 43.5801C202.631 43.4934 202.445 43.4284 202.291 43.3851ZM212.143 43.7535C212.019 43.8835 211.865 43.9919 211.742 44.1219C212.081 44.0569 212.452 43.9919 212.792 43.9269C212.699 43.7318 212.606 43.5584 212.514 43.3634C212.421 43.4934 212.267 43.6235 212.143 43.7535ZM36.2888 43.5584C36.4741 43.6885 36.6286 43.7968 36.8139 43.9269C36.6594 43.7968 36.4741 43.6885 36.2888 43.5584ZM43.3922 43.5584C43.5775 43.6885 43.7319 43.7968 43.9172 43.9269C43.7628 43.7968 43.5775 43.6885 43.3922 43.5584ZM188.856 43.5584C189.042 43.7535 189.196 43.9269 189.381 44.1219C189.103 44.1219 188.856 44.1219 188.578 44.1219C188.702 43.9269 188.795 43.7535 188.856 43.5584ZM134.408 43.8402C134.5 43.8618 134.593 43.9052 134.686 43.9269C134.5 43.8618 134.346 43.7968 134.161 43.7318C134.253 43.7752 134.315 43.7968 134.408 43.8402ZM39.9949 43.9269C40.3347 44.2302 40.7053 44.5336 41.045 44.8587C40.52 44.7287 39.9949 44.6203 39.4699 44.4903C39.3773 44.7287 39.2846 44.9887 39.1919 45.2271C38.7596 44.7287 39.4081 44.2953 39.9949 43.9269ZM150.992 44.1219C151.517 44.2519 152.043 44.3603 152.568 44.4903C151.857 44.447 151.054 44.4903 150.992 45.0537C150.992 44.7287 150.992 44.4253 150.992 44.1219ZM45.4923 44.6637C45.3997 44.7937 45.307 44.902 45.2143 45.0321C45.8938 45.1404 46.2026 44.7503 46.2644 44.2953C45.9247 44.2736 45.7394 44.3169 45.4923 44.6637ZM139.164 44.3819C139.256 44.4036 139.349 44.447 139.442 44.4686C139.256 44.4036 139.102 44.3386 138.917 44.2736C138.979 44.3386 139.071 44.3603 139.164 44.3819ZM102.968 45.5955C102.999 45.7255 103.06 45.8339 103.091 45.9639C103.184 45.7255 103.276 45.4655 103.369 45.2271C103.184 45.2271 103.029 45.2271 102.844 45.2271C102.906 45.3355 102.937 45.4655 102.968 45.5955ZM39.4699 45.5955C39.7479 45.5955 39.9949 45.5955 40.2729 45.5955C40.1802 45.7905 40.0876 45.9639 39.9949 46.159C39.8096 45.9639 39.6243 45.7689 39.4699 45.5955ZM34.7137 45.7689C34.8991 45.7689 35.0535 45.7689 35.2388 45.7689C35.1461 45.8989 35.0535 46.0073 34.9608 46.1373C34.8991 46.0289 34.8064 45.8989 34.7137 45.7689ZM207.819 46.2456C207.912 46.2673 208.005 46.3106 208.097 46.3323C207.912 46.2673 207.757 46.2023 207.572 46.1373C207.634 46.1806 207.727 46.2023 207.819 46.2456ZM135.983 46.8741C135.334 47.2858 135.767 48.1093 135.983 48.7161C137.218 48.5861 137.651 47.0258 138.361 46.5057C137.558 46.5057 136.539 46.4623 135.983 46.8741ZM73.9057 46.7007C74.3381 47.1341 74.7704 47.5676 75.2337 48.001C74.8013 48.066 74.369 48.131 73.9057 48.196C73.9057 47.6759 73.9057 47.1992 73.9057 46.7007ZM197.01 47.0691C197.195 47.0691 197.35 47.0691 197.535 47.0691C197.442 47.1992 197.35 47.3075 197.257 47.4375C197.195 47.3075 197.102 47.1992 197.01 47.0691ZM131.906 47.7192C131.752 48.1743 131.999 48.4344 132.308 48.7378C132.74 48.196 132.833 47.6109 132.03 47.2642C131.999 47.4159 131.968 47.5676 131.906 47.7192ZM133.481 48.0877C133.512 48.3694 133.574 48.6511 133.605 48.9111C131.999 48.6294 131.937 50.4498 130.177 49.843C130.177 49.973 130.177 50.0814 130.177 50.2114C130.609 50.2114 131.041 50.2114 131.505 50.2114C131.752 50.8399 130.485 50.9699 129.652 51.1432C129.837 52.4435 131.844 51.3816 132.555 52.2485C132.586 51.49 132.925 50.7532 134.13 50.9482C133.944 50.8832 133.79 50.8182 133.605 50.7532C133.697 50.6231 133.79 50.5148 133.883 50.3848C134.222 50.5148 134.593 50.6231 134.933 50.7532C135.427 49.6046 134.964 47.8709 133.358 47.2425C133.419 47.5242 133.45 47.8059 133.481 48.0877ZM96.7908 47.4375C96.9761 47.4375 97.1305 47.4375 97.3159 47.4375C97.2232 47.5676 97.1306 47.6759 97.0379 47.8059C96.9761 47.6759 96.8835 47.5676 96.7908 47.4375ZM99.6939 47.7192C100.065 48.1743 100.59 47.7843 100.497 47.4375C100.157 47.4375 99.7866 47.4375 99.4469 47.4375C99.5086 47.5242 99.6013 47.6109 99.6939 47.7192ZM31.5636 48.1743C31.8415 48.1743 32.0886 48.1743 32.3666 48.1743C32.4901 48.6078 31.5636 49.0628 31.0385 49.4746C30.8532 49.1062 30.6988 48.7378 30.5135 48.3694C30.8532 48.5644 31.2238 48.7378 31.5636 48.9328C31.5636 48.6728 31.5636 48.4127 31.5636 48.1743ZM72.3306 48.3694C72.5159 48.4994 72.6703 48.6078 72.8556 48.7378C72.7012 48.6078 72.5159 48.4777 72.3306 48.3694ZM194.385 48.3694C194.57 48.4344 194.724 48.4994 194.91 48.5644C194.755 48.4777 194.57 48.4127 194.385 48.3694ZM131.257 49.1929C131.257 49.2796 131.257 49.3879 131.257 49.4746C131.752 49.5613 131.937 49.2362 132.06 48.9111C131.783 48.9111 131.535 48.9111 131.257 48.9111C131.257 48.9978 131.257 49.1062 131.257 49.1929ZM194.385 48.9111C194.57 48.9762 194.724 49.0412 194.91 49.1062C194.755 49.0412 194.57 48.9762 194.385 48.9111ZM135.736 49.3662C135.705 49.6913 136.168 49.7563 136.539 49.8213C136.662 49.4096 136.322 49.1495 135.736 49.0845C135.736 49.1929 135.736 49.2796 135.736 49.3662ZM201.766 49.1062C202.106 49.1062 202.476 49.1062 202.816 49.1062C202.94 49.4529 202.476 49.5829 202.013 49.6696C201.92 49.4746 201.859 49.2796 201.766 49.1062ZM141.511 50.2114C141.696 50.3414 141.851 50.4498 142.036 50.5798C141.882 50.4498 141.696 50.3198 141.511 50.2114ZM192.285 50.2114C192.748 50.4281 192.81 50.7965 192.562 51.1432C191.945 51.0349 192.13 50.5581 192.285 50.2114ZM71.5585 50.3848C71.6512 50.5148 71.7438 50.6231 71.8365 50.7532C71.7129 50.6448 71.6512 50.5148 71.5585 50.3848ZM183.884 50.3848C183.977 50.5148 184.069 50.6231 184.162 50.7532C183.977 50.7532 183.822 50.7532 183.637 50.7532C183.699 50.6448 183.791 50.5148 183.884 50.3848ZM201.612 50.6665C201.642 50.7532 201.704 50.8615 201.735 50.9482C201.828 50.8182 201.92 50.7098 202.013 50.5798C201.828 50.5148 201.673 50.4498 201.488 50.3848C201.55 50.4715 201.581 50.5798 201.612 50.6665ZM248.586 50.3848C248.772 50.5148 248.926 50.6231 249.111 50.7532C248.926 50.6448 248.741 50.5148 248.586 50.3848ZM306.71 50.3848C306.803 50.5148 306.895 50.6231 306.988 50.7532C306.895 50.6448 306.803 50.5148 306.71 50.3848ZM33.2622 51.2299C33.1078 51.5333 33.3857 51.5983 33.6637 51.685C33.571 51.4466 33.4784 51.1866 33.3857 50.9482C33.3548 51.0349 33.324 51.1216 33.2622 51.2299ZM134.562 51.2299C134.531 51.3166 134.469 51.425 134.439 51.5117C134.902 51.555 135.365 51.49 135.489 51.1432C135.211 51.0782 134.964 51.0132 134.686 50.9482C134.624 51.0349 134.593 51.1216 134.562 51.2299ZM35.9182 51.3166C35.9491 51.3816 36.0109 51.4466 36.0418 51.5117C36.2271 51.4466 36.3815 51.3816 36.5668 51.3166C36.2888 51.2516 36.0418 51.1866 35.7638 51.1216C35.8256 51.1866 35.8565 51.2516 35.9182 51.3166ZM91.7876 51.1216C91.9729 51.1866 92.1273 51.2516 92.3126 51.3166C92.1582 51.2516 91.9729 51.1866 91.7876 51.1216ZM200.438 51.3166C200.531 51.3816 200.623 51.4466 200.716 51.5117C200.531 51.3816 200.376 51.2733 200.191 51.1432C200.253 51.1866 200.345 51.2516 200.438 51.3166ZM23.8117 52.1401C23.4102 52.5735 23.4719 52.8119 23.6881 53.1586C22.0821 52.6819 21.0012 53.7654 21.588 54.8273C19.7967 54.4372 17.6039 56.3876 17.1098 57.4061C14.9479 56.9294 13.867 60.0066 11.8595 59.8116C12.4463 60.9818 11.4889 62.0003 9.75938 61.2852C9.85203 61.5236 9.94469 61.7836 10.0373 62.022C9.75938 61.957 9.51231 61.892 9.23435 61.827C9.29612 62.1737 9.07993 62.1954 8.18429 62.2821C6.67097 62.2604 6.73274 63.9507 5.28118 63.669C5.34295 64.1674 5.28118 64.7309 4.4782 64.7742C4.6635 64.9693 4.81792 65.1426 5.00323 65.3377C4.4782 65.2726 3.95317 65.2076 3.42814 65.1426C3.61344 65.576 3.76786 66.0095 3.95317 66.4429C3.67521 66.4429 3.42814 66.4429 3.15018 66.4429C2.99576 66.9196 3.58256 67.2013 4.20024 67.3747C4.53997 66.8763 4.91057 66.3995 5.2503 65.9011C6.05329 66.6379 7.81368 66.0745 7.87545 67.3747C8.24606 66.6596 9.04905 66.3779 9.97557 66.8113C9.97557 66.3779 9.97557 65.9444 9.97557 65.511C9.35789 65.511 8.7402 65.511 8.12252 65.511C9.51231 64.9909 7.69015 64.0157 10.0991 63.474C13.0331 62.4988 11.6742 63.4306 12.0757 64.5792C11.736 64.3408 11.3654 64.0807 11.0256 63.8424C10.655 64.1241 10.1609 64.4925 9.69761 64.2108C9.07993 65.0126 10.4697 65.2726 11.0256 64.5792C10.8403 64.8826 10.6859 65.186 10.5006 65.511C11.3036 65.446 12.0757 65.381 12.8787 65.316C12.1066 65.3377 11.6742 65.7061 11.8286 66.2478C12.3845 66.3779 13.8361 65.3593 13.6817 64.9476C13.2493 64.9476 12.8169 64.9476 12.3536 64.9476C12.2919 64.4058 13.8052 64.4275 13.4037 63.6473C13.9287 63.8424 14.4538 64.0157 14.9788 64.2108C15.0406 63.1922 16.4612 62.5421 15.7818 61.2635C16.4303 61.4586 16.6774 61.892 16.5848 62.3687C16.8627 62.3687 17.1098 62.3687 17.3878 62.3687C17.3878 62.1737 17.3878 62.0003 17.3878 61.8053C18.7158 62.3037 20.0129 60.3534 21.3409 61.4369C20.8468 59.6382 23.1322 58.6847 23.441 57.016C23.0087 57.2978 22.4528 57.4061 22.113 57.016C22.7307 56.4093 23.6881 56.1926 24.7382 56.2792C24.3985 56.4093 24.0278 56.5176 23.6881 56.6476C25.2941 57.4278 26.653 55.7591 28.9384 56.2792C28.9384 55.9758 28.9384 55.6725 28.9384 55.3474C29.2164 55.3474 29.4634 55.3474 29.7414 55.3474C29.4943 56.0842 30.9459 56.4309 31.5945 55.9108C30.2973 55.5424 31.5327 53.7004 28.9693 54.4372C29.1237 53.0503 31.0385 51.2299 27.3942 52.4002C28.1354 52.6602 29.1855 52.9203 28.9693 53.5054C28.6296 53.1153 28.1045 53.2236 27.6413 53.5054C27.178 52.5952 26.1588 52.0968 25.0161 52.7686C25.5103 52.0751 24.6146 51.2516 23.8117 52.1401ZM196.763 51.685C197.226 51.9017 197.288 52.2701 197.041 52.6169C196.547 52.3785 196.516 52.0317 196.763 51.685ZM134.562 52.0534C134.531 52.1184 134.469 52.1834 134.439 52.2485C134.624 52.2485 134.778 52.2485 134.964 52.2485C134.871 52.1184 134.778 52.0101 134.686 51.8801C134.624 51.9234 134.593 51.9884 134.562 52.0534ZM303.807 52.0534C303.992 52.1184 304.147 52.1834 304.332 52.2485C304.178 52.1834 303.992 52.1184 303.807 52.0534ZM130.732 52.4218C130.825 52.4868 130.918 52.5519 131.01 52.6169C130.825 52.4868 130.671 52.3785 130.485 52.2485C130.547 52.2918 130.64 52.3568 130.732 52.4218ZM195.96 52.5952C196.052 52.8336 196.145 53.0936 196.238 53.332C195.682 53.267 195.774 52.9203 195.96 52.5952ZM90.7375 52.7902C91.2317 53.3103 90.3669 53.6571 89.6875 53.8954C90.0581 53.527 90.3978 53.1586 90.7375 52.7902ZM29.9885 53.4404C29.9885 53.527 29.9885 53.6354 29.9885 53.7221C30.3282 53.6571 30.6988 53.5921 31.0385 53.527C30.6988 53.397 30.3282 53.2887 29.9885 53.1586C29.9885 53.2453 29.9885 53.332 29.9885 53.4404ZM184.131 53.332C184.224 53.397 184.316 53.462 184.409 53.527C184.224 53.397 184.069 53.2887 183.884 53.1586C183.946 53.2236 184.038 53.2887 184.131 53.332ZM23.6881 53.8954C24.0896 54.2638 24.6764 54.5239 25.2632 54.2638C25.3867 54.6756 25.047 54.9356 24.4602 55.0007C25.5103 54.8273 27.456 54.7623 27.0854 53.8954C27.5795 54.4806 27.5486 55.0873 26.8074 55.5641C26.4677 55.3691 26.0971 55.1957 25.7574 55.0007C25.4794 55.3041 25.2323 55.6074 24.9544 55.9325C24.2131 55.3257 23.4719 54.6539 23.6881 53.8954ZM254.485 54.0905C254.516 54.1555 254.578 54.2205 254.609 54.2855C254.516 54.1555 254.423 54.0471 254.331 53.9171C254.423 53.9605 254.454 54.0255 254.485 54.0905ZM22.3601 54.4589C22.3601 54.6539 22.3601 54.8273 22.3601 55.0223C22.0821 55.0223 21.8351 55.0223 21.5571 55.0223C21.8351 54.8273 22.0821 54.6323 22.3601 54.4589ZM183.884 54.4589C184.162 54.4589 184.409 54.4589 184.687 54.4589C184.409 54.8273 184.162 55.1957 183.884 55.5641C182.988 55.239 182.34 54.4372 183.884 54.4589ZM186.231 54.4589C186.417 54.5239 186.571 54.5889 186.756 54.6539C186.602 54.5672 186.417 54.5022 186.231 54.4589ZM191.234 54.8273C191.42 54.8923 191.574 54.9573 191.759 55.0223C191.574 54.9356 191.42 54.8706 191.234 54.8273ZM20.5071 55.0007C20.6924 55.1957 20.8468 55.3691 21.0321 55.5641C20.7541 55.5641 20.5071 55.5641 20.2291 55.5641C20.3526 55.3691 20.4453 55.1957 20.5071 55.0007ZM70.7555 55.1957C70.9408 55.3257 71.0952 55.4341 71.2805 55.5641C71.0952 55.4341 70.9408 55.3041 70.7555 55.1957ZM21.5571 55.5641C21.7424 55.6291 21.8968 55.6941 22.0821 55.7591C21.9895 55.8892 21.8968 55.9975 21.8042 56.1275C21.6189 56.0625 21.4645 55.9975 21.2792 55.9325C21.4027 55.8025 21.4953 55.6725 21.5571 55.5641ZM68.6554 55.9325C69.304 55.9758 69.8908 56.1926 69.7055 56.6693C69.3657 56.6693 68.9951 56.6693 68.6554 56.6693C68.6554 56.4093 68.6554 56.1709 68.6554 55.9325ZM89.0389 56.2142C89.0698 56.3009 89.1316 56.4093 89.1625 56.4959C89.2551 56.3009 89.3478 56.1275 89.4404 55.9325C89.2551 55.9325 89.1007 55.9325 88.9154 55.9325C88.9463 56.0192 89.008 56.1059 89.0389 56.2142ZM18.8084 56.3009C19.3026 56.3009 19.5188 56.886 19.735 57.2328C19.2099 57.2328 18.6849 57.2328 18.1599 57.2328C18.2525 56.886 18.3143 56.3009 18.8084 56.3009ZM134.284 56.3876C134.408 56.4093 134.562 56.4526 134.686 56.4743C134.346 56.5393 133.975 56.6043 133.636 56.6693C133.759 56.4743 133.883 56.2792 134.284 56.3876ZM20.785 56.6693C20.9703 56.7993 21.1247 56.9077 21.31 57.0377C21.1247 56.9077 20.9703 56.7777 20.785 56.6693ZM28.1354 56.8427C28.2281 56.9077 28.3207 56.9727 28.4134 57.0377C28.2281 56.9077 28.0737 56.7993 27.8884 56.6693C27.981 56.7343 28.0737 56.7777 28.1354 56.8427ZM67.3274 57.4061C67.42 57.6012 67.5127 57.7745 67.6053 57.9696C67.42 57.9046 67.2656 57.8395 67.0803 57.7745C67.173 57.6445 67.2656 57.5361 67.3274 57.4061ZM68.9333 57.5795C69.1187 57.6445 69.2731 57.7095 69.4584 57.7745C69.2731 57.7095 69.0878 57.6445 68.9333 57.5795ZM84.5607 57.7745C84.6842 57.7745 84.8387 57.7745 84.9622 57.7745C84.9004 58.2946 84.2519 58.3163 83.6342 58.1429C83.9121 57.9479 84.1592 57.7529 84.5607 57.7745ZM82.0591 57.9479C82.2444 57.9479 82.3988 57.9479 82.5841 57.9479C82.5841 58.1863 82.5841 58.4463 82.5841 58.6847C82.3988 58.6847 82.2444 58.6847 82.0591 58.6847C82.0591 58.4463 82.0591 58.2079 82.0591 57.9479ZM22.0821 58.3163C22.3601 58.4463 22.6072 58.5547 22.8851 58.6847C22.6072 58.6847 22.3601 58.6847 22.0821 58.6847C22.0821 58.5763 22.0821 58.4463 22.0821 58.3163ZM16.8318 58.5113C17.0171 58.5113 17.1716 58.5113 17.3569 58.5113C17.2642 58.6414 17.1716 58.7497 17.0789 58.8797C17.0171 58.7497 16.9245 58.6414 16.8318 58.5113ZM18.4069 58.5113C18.5922 58.5113 18.7467 58.5113 18.932 58.5113C18.8393 58.6414 18.7467 58.7497 18.654 58.8797C18.5922 58.7497 18.4996 58.6414 18.4069 58.5113ZM24.5838 58.6847C24.6146 58.7497 24.6764 58.8147 24.7073 58.8797C24.7999 58.7497 24.8926 58.6414 24.9853 58.5113C24.7999 58.5113 24.6455 58.5113 24.4602 58.5113C24.522 58.5764 24.5529 58.6414 24.5838 58.6847ZM19.2099 58.6847C19.4879 58.7497 19.735 58.8147 20.0129 58.8797C19.9203 59.1831 19.7041 59.5299 19.2099 59.4432C19.2099 59.1831 19.2099 58.9448 19.2099 58.6847ZM81.009 58.8797C81.6576 59.2048 81.8429 59.6816 81.5341 60.18C81.1943 60.115 80.8237 60.05 80.484 59.985C80.6693 59.6165 80.8546 59.2481 81.009 58.8797ZM84.7151 59.0748C84.9004 59.2048 85.0549 59.3132 85.2402 59.4432C84.9622 59.5082 84.7151 59.5732 84.4372 59.6382C84.5298 59.4432 84.6225 59.2481 84.7151 59.0748ZM18.4069 59.6166C18.6849 59.8116 18.932 59.985 19.2099 60.18C19.1482 59.4215 21.0012 59.6599 21.063 60.375C19.8894 60.2667 18.8393 60.5051 18.4378 61.3069C18.4069 60.7218 18.4069 60.18 18.4069 59.6166ZM82.3371 59.8116C82.4297 60.05 82.5224 60.31 82.615 60.5484C82.4297 60.5484 82.2753 60.5484 82.09 60.5484C82.1517 60.2883 82.2444 60.05 82.3371 59.8116ZM181.753 59.985C181.784 60.245 182.618 60.3967 183.081 60.5484C183.174 60.31 183.266 60.05 183.359 59.8116C182.834 59.8116 182.309 59.8116 181.784 59.8116C181.753 59.8549 181.753 59.9199 181.753 59.985ZM288.828 59.8983C288.921 59.9199 289.014 59.9633 289.106 59.985C288.921 59.9199 288.767 59.8549 288.581 59.7899C288.643 59.8333 288.736 59.8549 288.828 59.8983ZM69.4584 60.3534C69.6437 60.4184 69.7981 60.4834 69.9834 60.5484C69.7981 60.4834 69.6128 60.4184 69.4584 60.3534ZM16.3068 60.5484C16.4921 60.6784 16.6465 60.7868 16.8318 60.9168C16.5539 60.9168 16.3068 60.9168 16.0289 60.9168C16.1215 60.7868 16.2142 60.6567 16.3068 60.5484ZM67.0803 60.7218C67.3583 60.7218 67.6053 60.7218 67.8833 60.7218C67.7906 60.9601 67.698 61.2202 67.6053 61.4586C67.42 61.2202 67.2656 60.9818 67.0803 60.7218ZM69.1804 61.2852C69.4584 61.3502 69.7055 61.4152 69.9834 61.4802C69.7055 61.3936 69.4584 61.3502 69.1804 61.2852ZM81.812 61.2852C81.9973 61.2852 82.1518 61.2852 82.3371 61.2852C82.3371 61.4802 82.3371 61.6536 82.3371 61.8486C82.1518 61.8486 81.9973 61.8486 81.812 61.8486C81.812 61.6536 81.812 61.4586 81.812 61.2852ZM79.1869 61.6536C79.3722 61.7186 79.5266 61.7836 79.7119 61.8486C79.6193 61.9787 79.5266 62.087 79.434 62.2171C79.3413 62.022 79.2795 61.827 79.1869 61.6536ZM14.4538 61.827C14.9479 62.3904 14.917 62.9539 13.9287 63.1272C14.114 62.6938 14.2993 62.2604 14.4538 61.827ZM18.8084 62.022C18.7775 62.087 18.7158 62.152 18.6849 62.2171C19.2099 62.2821 19.735 62.3471 20.26 62.4121C20.0129 62.0003 19.2408 61.5669 18.8084 62.022ZM68.6554 61.827C68.8407 61.827 68.9951 61.827 69.1804 61.827C69.0878 61.957 68.9951 62.0654 68.9025 62.1954C68.8407 62.087 68.748 61.957 68.6554 61.827ZM10.0065 62.022C10.3462 62.152 10.7168 62.2604 11.0565 62.3904C10.7168 62.4554 10.3462 62.5204 10.0065 62.5855C10.0065 62.3904 10.0065 62.1954 10.0065 62.022ZM68.9333 62.5638C69.1187 62.6288 69.2731 62.6938 69.4584 62.7588C69.2731 62.6938 69.0878 62.6288 68.9333 62.5638ZM6.05329 64.9692C6.23859 64.9692 6.39301 64.9692 6.57832 64.9692C6.48566 65.0993 6.39301 65.2076 6.30036 65.3377C6.23859 65.2076 6.14594 65.0993 6.05329 64.9692ZM1.05006 66.3562C0.802987 66.8113 0.494146 66.8329 0 66.8113C0 67.0497 0 67.3097 0 67.5481C0.648566 67.3747 1.32802 67.3964 1.85305 67.7431C1.97658 67.3097 1.60597 67.0063 1.05006 66.8113C1.38979 66.5079 1.76039 66.2045 2.10012 65.8794C1.60597 65.8794 1.29713 65.9011 1.05006 66.3562ZM2.62515 66.1611C2.5325 66.2478 2.43985 66.3562 2.34719 66.4429C2.68692 66.3128 3.05753 66.2045 3.39725 66.0745C3.1193 65.9661 2.90311 65.8794 2.62515 66.1611ZM14.0832 66.0745C14.114 66.1395 14.1758 66.2045 14.2067 66.2695C14.114 66.1395 14.0214 66.0311 13.9287 65.9011C13.9905 65.9444 14.0214 66.0095 14.0832 66.0745ZM74.4307 66.3562C74.5234 66.3779 74.616 66.4212 74.7087 66.4429C74.5234 66.3779 74.3689 66.3128 74.1836 66.2478C74.2763 66.2912 74.3689 66.3345 74.4307 66.3562ZM73.2571 66.898C73.3807 66.9196 73.5351 66.963 73.6586 66.9846C73.3807 66.9196 73.1336 66.8546 72.8556 66.7896C73.01 66.8546 73.1336 66.8763 73.2571 66.898ZM5.52826 67.288C5.34295 67.3097 5.18853 67.353 5.00323 67.3747C5.99152 68.6966 2.93399 67.8948 2.90311 68.8483C4.91057 69.3901 5.65179 68.2415 7.10335 67.9165C6.67097 67.6131 6.11506 67.158 5.52826 67.288Z" fill="#141414"/>
</g>
<defs>
<clipPath id="clip0_1_1839">
<rect width="335" height="69" fill="white"/>
</clipPath>
</defs>
</svg>
