<svg width="44" height="52" viewBox="0 0 44 52" fill="none" xmlns="http://www.w3.org/2000/svg">
<path d="M35.7926 25.236H32.3054C31.5849 23.9036 30.1439 23.0247 28.5011 23.0247H25.9649C25.7055 22.0892 24.8121 21.3805 23.7746 21.3805H22.7658V5.44831C23.8898 5.10812 24.6968 4.0592 24.6968 2.84019C24.6968 1.33769 23.4575 0.090332 21.9012 0.090332C20.3737 0.090332 19.1057 1.30934 19.1057 2.84019C19.1057 4.0592 19.9126 5.10812 21.0366 5.44831V21.3805H20.6619C19.6244 21.3805 18.731 22.0609 18.4716 23.0247H16.9729C15.3302 23.0247 13.918 23.9319 13.1687 25.236H8.70149C4.3208 25.236 0.74707 28.7513 0.74707 33.0887V43.266C0.74707 47.6034 4.3208 51.0903 8.70149 51.0903H22.2183H22.2471H35.7638C40.1733 51.0903 43.7183 47.575 43.7183 43.266V33.0887C43.7471 28.7513 40.2022 25.236 35.7926 25.236Z" fill="white"/>
<path d="M14.2926 42.1604C16.3141 42.1604 17.9528 40.5485 17.9528 38.56C17.9528 36.5716 16.3141 34.9597 14.2926 34.9597C12.2712 34.9597 10.6324 36.5716 10.6324 38.56C10.6324 40.5485 12.2712 42.1604 14.2926 42.1604Z" fill="#FB72CC"/>
<path d="M26.5701 38.56C26.5701 40.5445 28.2128 42.1604 30.2303 42.1604C32.2477 42.1604 33.8904 40.5445 33.8904 38.56C33.8904 36.5756 32.2477 34.9597 30.2303 34.9597C28.2128 34.9597 26.5701 36.5756 26.5701 38.56Z" fill="#FB72CC"/>
</svg>
