<svg width="49" height="56" viewBox="0 0 49 56" fill="none" xmlns="http://www.w3.org/2000/svg">
<path d="M37.8346 26.2175L34.3202 26.6051C33.4765 25.373 31.9466 24.6677 30.2911 24.8503L27.7351 25.1322C27.3912 24.2397 26.4282 23.641 25.3826 23.7563L24.366 23.8684L22.9601 8.17766C24.0628 7.71769 24.7835 6.59497 24.6759 5.39443C24.5433 3.91469 23.1843 2.82398 21.6159 2.99698C20.0765 3.16677 18.9061 4.50826 19.0412 6.01592C19.1488 7.21646 20.0546 8.15978 21.2174 8.36987L22.6233 24.0606L22.2458 24.1023C21.2001 24.2176 20.3598 24.987 20.1834 25.9651L18.6731 26.1317C17.0175 26.3143 15.6744 27.3647 15.0343 28.7323L10.5323 29.2288C6.11749 29.7158 2.82613 33.575 3.2089 37.8467L4.10702 47.8698C4.48979 52.1415 8.39908 55.1784 12.8139 54.6914L26.436 53.189L26.465 53.1858L40.0871 51.6833C44.531 51.1932 47.7933 47.3371 47.4131 43.0933L46.5149 33.0702C46.1612 28.7953 42.2785 25.7273 37.8346 26.2175Z" fill="white"/>
<path d="M17.8994 45.3046C19.9324 45.0803 21.4385 43.314 21.2634 41.3593C21.0883 39.4047 19.2982 38.0019 17.2651 38.2262C15.2321 38.4504 13.726 40.2168 13.9011 42.1714C14.0762 44.1261 15.8663 45.5288 17.8994 45.3046Z" fill="#1AB9A2"/>
<path d="M29.7605 40.594C29.9353 42.5448 31.7298 43.951 33.7587 43.7272C35.7877 43.5034 37.2976 41.7327 37.1228 39.7819C36.948 37.8312 35.1535 36.425 33.1245 36.6488C31.0955 36.8726 29.5857 38.6433 29.7605 40.594Z" fill="#1AB9A2"/>
</svg>
