<svg width="29" height="32" viewBox="0 0 29 32" fill="none" xmlns="http://www.w3.org/2000/svg">
<g clip-path="url(#clip0_1_2444)">
<path d="M25.8863 3.68335H24.8118V4.38844V5.09354V5.97914C24.8118 7.08472 23.8875 7.98725 22.7552 7.98725C21.6229 7.98725 20.6986 7.08472 20.6986 5.97914V5.0879V4.38844V3.68335H8.30717V4.38844V5.09354V5.97914C8.30717 7.08472 7.38287 7.98725 6.2506 7.98725C5.11833 7.98725 4.19402 7.08472 4.19402 5.97914V5.0879V4.38844V3.68335H3.11375C1.39801 3.68335 0 5.04841 0 6.72372V28.9539C0 30.6292 1.39801 31.9943 3.11375 31.9943H25.8805C27.5962 31.9943 28.9942 30.6292 28.9942 28.9539V6.72372C29 5.04841 27.602 3.68335 25.8863 3.68335ZM27.5616 28.9539C27.5616 29.8565 26.8106 30.5898 25.8863 30.5898H3.11375C2.18944 30.5898 1.43845 29.8565 1.43845 28.9539V11.4845H27.5616V28.9539Z" fill="#141414"/>
<path d="M6.2504 7.28221C6.98984 7.28221 7.59063 6.69558 7.59063 5.97356V1.30866C7.59063 0.586639 6.98984 0 6.2504 0C5.51095 0 4.91016 0.586639 4.91016 1.30866V5.9792C4.91016 6.70122 5.51095 7.28221 6.2504 7.28221Z" fill="#141414"/>
<path d="M22.7494 7.28221C23.4889 7.28221 24.0897 6.69558 24.0897 5.97356V1.30866C24.0897 0.586639 23.4889 0 22.7494 0C22.01 0 21.4092 0.586639 21.4092 1.30866V5.9792C21.4092 6.70122 22.01 7.28221 22.7494 7.28221Z" fill="#141414"/>
</g>
<defs>
<clipPath id="clip0_1_2444">
<rect width="29" height="32" fill="white"/>
</clipPath>
</defs>
</svg>
