<svg width="49" height="32" viewBox="0 0 49 32" fill="none" xmlns="http://www.w3.org/2000/svg">
<g clip-path="url(#clip0_1_3297)">
<path d="M45.7462 29.7468C45.4387 31.7042 43.8096 32.2086 42.4722 30.8824C39.9506 28.5068 37.429 26.1313 34.8995 23.8191C34.7805 24.7699 34.5109 26.9251 34.392 27.8759C34.17 29.6508 33.1955 30.4302 31.4687 30.2142L16.4819 28.3395C13.9532 28.0232 11.4246 27.7069 8.89595 27.3906C4.08537 26.7889 1.28271 23.1549 1.88532 18.3374L3.77245 3.25104C4.00239 1.41279 4.90723 0.689036 6.69578 0.912763C12.7857 1.80329 23.4094 3.00345 29.3918 3.75177C33.6473 4.28409 36.3284 7.3878 36.384 11.4507C39.413 9.76942 42.5038 8.09588 45.5328 6.41462C46.9469 5.62581 48.6341 6.15876 48.4262 8.32167C47.562 15.231 46.6721 22.8453 45.7462 29.7468Z" fill="#F1F1F1"/>
</g>
<defs>
<clipPath id="clip0_1_3297">
<rect width="45" height="26" fill="white" transform="translate(4.10547 0.588745) rotate(7.13)"/>
</clipPath>
</defs>
</svg>
