<svg width="48" height="41" viewBox="0 0 48 41" fill="none" xmlns="http://www.w3.org/2000/svg">
<g clip-path="url(#clip0_1_3283)">
<path d="M18.9299 39.1963C16.2801 39.5194 13.8712 37.6457 13.5501 35.0118C13.2291 32.3779 15.1173 29.9804 17.7671 29.6574C20.417 29.3344 22.8258 31.2081 23.1469 33.842C23.468 36.4758 21.5798 38.8733 18.9299 39.1963Z" fill="white"/>
<path d="M40.5588 36.5599C37.909 36.8829 35.5001 35.0092 35.179 32.3753C34.858 29.7414 36.7462 27.3439 39.396 27.0209C42.0459 26.6979 44.4547 28.5716 44.7758 31.2055C45.0969 33.8394 43.2087 36.2369 40.5588 36.5599Z" fill="white"/>
<path d="M40.0641 32.5021L19.5099 35.0077C18.937 35.0775 18.3293 34.8626 17.9908 34.4704C17.572 34.0158 17.4309 33.455 17.5047 32.8681L19.4735 25.7649C19.5733 25.3915 19.977 25.1256 20.424 25.2156C20.7995 25.3143 21.0664 25.7152 20.9752 26.1598L19.0694 33.183C19.0781 33.2542 19.0868 33.3254 19.1671 33.3879C19.2474 33.4503 19.3277 33.5128 19.4709 33.4953L40.0252 30.9898C40.4549 30.9374 40.7847 31.2584 40.8281 31.6143C40.7456 32.1301 40.4939 32.4498 40.0641 32.5021Z" fill="white"/>
<path d="M43.1659 4.88799C42.7558 4.50453 42.2197 4.28089 41.6468 4.35073L10.708 8.12213L8.86784 4.95098C8.68989 4.6837 8.45769 4.56752 8.17122 4.60244L1.1527 5.45799C0.722993 5.51037 0.479911 5.90122 0.523299 6.25715C0.575364 6.68427 0.968161 6.92536 1.32625 6.88171L7.70021 6.10473L19.3121 25.64C19.6767 26.2458 20.3733 26.5943 21.0895 26.507L38.8506 24.3419C39.6384 24.2459 40.2938 23.6603 40.4132 22.8511L43.4914 6.36544C43.7258 5.90341 43.5131 5.35138 43.1659 4.88799ZM36.915 20.3878L21.7321 22.2385C21.3024 22.2909 20.9725 21.9699 20.9291 21.614C20.877 21.1869 21.2004 20.8585 21.5585 20.8148L36.7414 18.964C37.1711 18.9116 37.501 19.2327 37.5444 19.5886C37.5878 19.9445 37.2731 20.3441 36.915 20.3878ZM37.6314 15.5323L19.7986 17.7061C19.3689 17.7585 19.0391 17.4375 18.9957 17.0816C18.9436 16.6544 19.267 16.326 19.6251 16.2824L37.3862 14.1173C37.8159 14.0649 38.1458 14.386 38.1892 14.7419C38.3128 15.1603 37.9895 15.4887 37.6314 15.5323ZM38.07 10.783L18.2319 13.2012C17.8022 13.2536 17.4724 12.9326 17.429 12.5767C17.3769 12.1496 17.7003 11.8212 18.0584 11.7775L37.968 9.35054C38.3978 9.29816 38.7276 9.61917 38.771 9.9751C38.8144 10.331 38.4997 10.7306 38.07 10.783Z" fill="white"/>
<path d="M2.68093 6.06646C2.75903 6.70714 2.31845 7.26655 1.67389 7.34512C0.966392 7.50361 0.395649 6.99523 0.317551 6.35456C0.239454 5.71388 0.680034 5.15447 1.32459 5.07589C1.96915 4.99732 2.60283 5.42579 2.68093 6.06646Z" fill="white"/>
</g>
<defs>
<clipPath id="clip0_1_3283">
<rect width="43" height="36" fill="white" transform="translate(0.178711 5.21558) rotate(-6.95)"/>
</clipPath>
</defs>
</svg>
