<svg width="45" height="44" viewBox="0 0 45 44" fill="none" xmlns="http://www.w3.org/2000/svg">
<path fill-rule="evenodd" clip-rule="evenodd" d="M19.1313 20.5693L23.2802 19.8626L25.2806 31.6056L21.1318 32.3123L19.1313 20.5693ZM13.2909 25.4833L17.4397 24.7765L18.8274 32.9226L14.6786 33.6294L13.2909 25.4833ZM7.18009 28.8104L11.4353 28.0855L12.4626 34.1157L8.20733 34.8406L7.18009 28.8104ZM1.81344 38.4336L33.7278 32.9971L28.5375 2.52865C28.3573 1.47072 29.0642 0.479402 29.9152 0.334427C30.979 0.153207 31.7615 0.89082 31.9417 1.94875L37.132 32.4172L42.6638 31.4748C43.7276 31.2936 44.5101 32.0312 44.6903 33.0891C44.8705 34.1471 44.27 35.1203 43.3126 35.2834L37.9935 36.1895L38.8766 41.3733C39.0568 42.4312 38.4563 43.4044 37.4989 43.5675C36.6478 43.7125 35.6526 43.0111 35.4724 41.9532L34.5893 36.7694L2.67499 42.206C1.82394 42.3509 0.828713 41.6496 0.648496 40.5916C0.273537 39.6757 0.96239 38.5786 1.81344 38.4336ZM24.4044 9.11133L27.6714 10.2966L24.4264 4.09988L19.1144 7.6175L22.3273 8.48539C22.3634 8.69698 22.3634 8.69698 22.1686 8.83901C22.2047 9.0506 22.0099 9.19264 21.9756 9.63393C22.0117 9.84552 21.8169 9.98755 21.8169 9.98755C21.6583 10.3412 21.6763 10.447 21.6059 10.6767C21.6059 10.6767 21.4292 10.9245 21.4472 11.0303C21.2345 11.0665 21.2705 11.2781 21.1822 11.402C21.0235 11.7557 20.9531 11.9854 20.5817 12.3752C20.4049 12.6231 20.3526 12.9586 19.9812 13.3484C19.8045 13.5963 19.5394 13.968 19.3627 14.2158C19.0976 14.5876 18.7441 15.0833 18.6558 15.2072C18.4791 15.455 18.3907 15.5789 18.1779 15.6152C18.0012 15.863 17.9129 15.9869 17.7361 16.2347C17.5594 16.4826 17.2583 16.6427 17.0113 17.1203C16.7985 17.1565 16.7281 17.3862 16.5334 17.5282L16.0375 17.8304C15.383 18.4863 14.7988 18.9124 14.1082 19.3566C13.4176 19.8008 12.8514 20.3327 12.1247 20.5654C11.4341 21.0096 10.8319 21.3299 10.1232 21.6684C9.41462 22.0068 8.90074 22.2032 8.26245 22.312C7.76659 22.6142 7.23468 22.7048 6.7208 22.9012C6.18889 22.9918 5.86975 23.0461 5.44422 23.1186C4.7356 23.4571 4.41646 23.5114 4.41646 23.5114C4.41646 23.5114 6.04822 23.4512 8.45894 22.8228C8.99084 22.7322 9.69947 22.3938 10.3197 22.1792C11.0644 22.0524 11.6666 21.7321 12.3933 21.4994C13.1019 21.161 13.6861 20.7349 14.5011 20.3783C15.1917 19.9341 15.7579 19.4022 16.5549 18.9398L17.0508 18.6376C17.2275 18.3898 17.3159 18.2659 17.5286 18.2296C17.8117 17.9637 18.1832 17.5738 18.4663 17.3078C18.643 17.06 18.7494 17.0419 18.9441 16.8999C19.1209 16.652 19.2272 16.6339 19.422 16.4919C19.6871 16.1201 19.9702 15.8542 20.3416 15.4643C20.6247 15.1984 20.7834 14.8447 21.0845 14.6846C21.3496 14.3128 21.4903 13.8534 21.7914 13.6932C21.9501 13.3396 22.2332 13.0737 22.3919 12.7201C22.5686 12.4722 22.657 12.3483 22.657 12.3483C22.8337 12.1005 22.8157 11.9947 22.886 11.765C23.0627 11.5171 23.0627 11.5171 23.1511 11.3932C23.115 11.1816 23.3098 11.0396 23.2737 10.828C23.4505 10.5802 23.5388 10.4563 23.6795 9.99686C24.069 9.71279 24.2277 9.35916 24.4044 9.11133ZM24.6329 14.951L28.7818 14.2443L31.5211 30.3248L27.3722 31.0316L24.6329 14.951Z" fill="white"/>
</svg>
