<svg width="87" height="87" viewBox="0 0 87 87" fill="none" xmlns="http://www.w3.org/2000/svg">
<g clip-path="url(#clip0_3067_177)">
<circle cx="43" cy="43" r="25" fill="#FEA800"/>
<path d="M43.5 0C31.9631 0 20.8987 4.58302 12.7409 12.7409C4.58302 20.8987 0 31.9631 0 43.5C0 55.0369 4.58302 66.1013 12.7409 74.2591C20.8987 82.417 31.9631 87 43.5 87C55.0369 87 66.1013 82.417 74.2591 74.2591C82.417 66.1013 87 55.0369 87 43.5C87 31.9631 82.417 20.8987 74.2591 12.7409C66.1013 4.58302 55.0369 0 43.5 0ZM29.9062 29.9062V29.9117H57.0938C57.1064 29.9115 57.1191 29.9115 57.1318 29.9117C58.6978 29.9525 60.1088 30.3576 61.1093 31.3445C62.1071 32.3314 62.5312 33.7587 62.5312 35.3438V48.9375C62.5312 50.5225 62.1071 51.958 61.1039 52.9477C60.098 53.9346 58.6706 54.3342 57.0938 54.3342L54.3804 54.3859L54.3587 63.8961C54.3583 64.172 54.2739 64.4413 54.1168 64.6682C53.9597 64.895 53.7372 65.0686 53.479 65.166C53.2208 65.2634 52.9391 65.2799 52.6713 65.2133C52.4035 65.1467 52.1623 65.0002 51.9798 64.7933L42.8828 54.4185H34.6641C34.655 54.4186 34.6459 54.4186 34.6369 54.4185L29.9062 54.3315C28.3294 54.3315 26.902 53.9346 25.8961 52.9449C24.8902 51.9608 24.4688 50.528 24.4688 48.9375V35.3438C24.4688 33.7587 24.8874 32.3259 25.8852 31.3227C26.8884 30.3249 28.3212 29.9062 29.9062 29.9062ZM29.9062 32.625C28.7725 32.625 28.1663 32.886 27.8101 33.2476C27.4485 33.6065 27.1875 34.2127 27.1875 35.3438V48.9375C27.1875 50.0712 27.4431 50.6612 27.7992 51.0092C28.1527 51.3545 28.7671 51.6127 29.9062 51.6127C29.9153 51.6127 29.9244 51.6127 29.9334 51.6127L34.6749 51.7052H43.5C43.693 51.7054 43.8838 51.7468 44.0595 51.8265C44.2353 51.9062 44.3921 52.0224 44.5195 52.1674L51.6454 60.291L51.6617 53.0591C51.6616 52.7042 51.8003 52.3633 52.0482 52.1093C52.2962 51.8552 52.6336 51.7083 52.9884 51.6998L57.0611 51.6127C57.072 51.6126 57.0829 51.6126 57.0938 51.6127C58.2356 51.6127 58.8473 51.3572 59.2008 51.0092C59.5542 50.6612 59.8125 50.0712 59.8125 48.9375V35.3438C59.8125 34.21 59.5569 33.6391 59.1953 33.2829C58.8365 32.9295 58.2084 32.6549 57.0557 32.625H29.9062Z" fill="#2D2D2D"/>
</g>
<defs>
<clipPath id="clip0_3067_177">
<rect width="87" height="87" fill="white"/>
</clipPath>
</defs>
</svg>
