<svg width="18" height="16" viewBox="0 0 18 16" fill="none" xmlns="http://www.w3.org/2000/svg">
<path d="M17.4007 0.0787586C12.9493 3.5413 9.09099 7.74476 6.05132 12.4675C5.69298 11.9249 5.3192 11.3882 4.92379 10.8573C4.3832 10.1426 3.82408 9.44249 3.13212 8.82991C2.44016 8.21441 1.44547 7.67767 0.497117 8.22316C-0.553176 8.89408 0.228365 10.2768 1.29102 10.0201C1.51343 10.1718 1.72967 10.3934 1.92119 10.6035C2.31968 11.0498 2.6842 11.5603 3.024 12.062C3.72831 13.1121 4.37085 14.2264 4.95777 15.3408C5.0937 15.5829 5.2914 15.7871 5.57559 15.9038C6.19032 16.1575 6.907 15.8921 7.17575 15.3116C9.69645 9.87713 13.3416 4.8423 17.8918 0.589242C18.2131 0.256699 17.7497 -0.180859 17.4007 0.0787586Z" fill="#FEA800"/>
</svg>
