<svg width="52" height="33" viewBox="0 0 52 33" fill="none" xmlns="http://www.w3.org/2000/svg">
<g clip-path="url(#clip0_1_4842)">
<path d="M40.9694 10.8388C40.7645 10.8618 40.5603 10.8916 40.3638 10.9272C39.2459 7.13961 35.4717 4.57846 31.3258 5.04496C29.427 5.25862 27.7476 6.07047 26.464 7.26435C24.6536 4.82076 21.5787 3.37255 18.2797 3.74375C13.3961 4.29327 9.87696 8.60941 10.4149 13.3899C10.4487 13.6907 10.4962 13.9901 10.5635 14.2804C10.3639 14.2893 10.1582 14.3057 9.95333 14.3287C5.06972 14.8783 1.5506 19.1944 2.0885 23.9748C2.62641 28.7553 7.0167 32.1815 11.9003 31.632L42.9164 28.142C47.8 27.5925 51.3191 23.2763 50.7812 18.4959C50.2433 13.7154 45.853 10.2893 40.9694 10.8388Z" fill="white"/>
</g>
<defs>
<clipPath id="clip0_1_4842">
<rect width="49" height="27" fill="white" transform="translate(0.0429688 5.79578) rotate(-6.42)"/>
</clipPath>
</defs>
</svg>
