<svg width="219" height="182" viewBox="0 0 219 182" fill="none" xmlns="http://www.w3.org/2000/svg">
<g filter="url(#filter0_f_3091_698)">
<path d="M208.277 88.2617C206.819 29.4477 143.669 7.26784 86.3481 11.5044C50.8868 13.9966 20.769 40.9114 12.268 70.3184C3.76699 98.7286 29.0271 109.694 29.0271 109.694C43.6002 116.672 65.4599 108.697 72.0178 122.902C75.6611 130.628 73.2323 139.599 75.904 147.325C81.2475 162.527 93.3918 168.757 110.151 171C110.394 171 110.637 171 110.88 171C163.343 170.252 203.419 150.565 208.034 103.962C208.762 98.7286 208.52 93.4951 208.277 88.2617ZM45.7862 91.7506C38.2567 91.7506 32.1846 85.5203 32.1846 77.7948C32.1846 70.0692 38.2567 63.8389 45.7862 63.8389C53.3157 63.8389 59.3878 70.0692 59.3878 77.7948C59.3878 85.5203 53.3157 91.7506 45.7862 91.7506ZM81.0046 59.6023C73.4752 59.6023 67.403 53.372 67.403 45.6465C67.403 37.9209 73.4752 31.6906 81.0046 31.6906C88.5341 31.6906 94.6062 37.9209 94.6062 45.6465C94.6062 53.372 88.5341 59.6023 81.0046 59.6023ZM109.422 150.565C100.193 150.565 92.6631 142.839 92.6631 133.369C92.6631 123.899 100.193 116.173 109.422 116.173C118.652 116.173 126.181 123.899 126.181 133.369C126.181 142.839 118.652 150.565 109.422 150.565ZM123.267 58.6055C115.737 58.6055 109.665 52.3752 109.665 44.6496C109.665 36.924 115.737 30.6938 123.267 30.6938C130.796 30.6938 136.868 36.924 136.868 44.6496C136.868 52.3752 130.796 58.6055 123.267 58.6055ZM165.043 81.2838C157.514 81.2838 151.441 75.0535 151.441 67.3279C151.441 59.6023 157.514 53.372 165.043 53.372C172.572 53.372 178.645 59.6023 178.645 67.3279C178.645 75.0535 172.572 81.2838 165.043 81.2838Z" fill="#FB72CC"/>
</g>
<defs>
<filter id="filter0_f_3091_698" x="0.319531" y="0.8" width="218.4" height="180.4" filterUnits="userSpaceOnUse" color-interpolation-filters="sRGB">
<feFlood flood-opacity="0" result="BackgroundImageFix"/>
<feBlend mode="normal" in="SourceGraphic" in2="BackgroundImageFix" result="shape"/>
<feGaussianBlur stdDeviation="5.1" result="effect1_foregroundBlur_3091_698"/>
</filter>
</defs>
</svg>
