<svg width="76" height="86" viewBox="0 0 76 86" fill="none" xmlns="http://www.w3.org/2000/svg">
<g clip-path="url(#clip0_1_2167)">
<path d="M13.4162 58.3076C10.6538 56.2964 10.7608 52.0798 6.42004 51.4905C6.59723 52.4232 6.65744 53.0474 6.88435 53.4907C9.54342 58.9526 12.2415 64.5172 15.0034 69.9401C15.4572 70.8267 16.3756 72.0078 17.1806 72.1143C18.7197 72.2954 19.0427 70.8201 19.2698 69.5576C20.047 65.5574 20.9271 61.5182 21.7362 57.447C19.2324 57.514 19.2324 57.514 16.9193 63.9788C12.7432 52.0339 19.7348 39.9133 32.0234 38.1949C32.1438 39.4433 32.1933 40.6597 32.3137 41.908C32.7388 45.5112 34.0824 48.5897 36.898 51.0513C38.9192 52.8141 41.2136 53.5911 43.8168 52.5453C46.4519 51.4285 47.2998 49.166 47.3995 46.4814C47.6875 40.7256 44.4467 36.3666 38.8223 35.0289C38.1201 34.8834 37.4818 34.596 36.5278 34.2519C39.0006 27.4325 43.023 21.9077 49.2935 18.5891C58.9688 13.3914 66.6496 19.0667 70.3369 25.8444C70.8227 26.6601 71.0708 27.6248 71.7196 29.0257C72.4966 26.7313 71.8726 25.0857 71.2167 23.511C68.7032 17.347 61.7741 13.0336 55.1068 13.4441C50.8723 13.7556 47.0668 15.1985 43.8002 17.9075C39.0191 21.8965 35.3869 26.744 33.471 32.7053C33.2866 33.3046 33.0311 33.872 32.7828 34.6131C27.1545 35.7472 21.7991 37.6013 17.8833 42.321C14.1731 46.9628 14.0908 52.6406 13.4162 58.3076ZM35.6656 37.8727C41.581 37.8061 45.3149 41.4488 44.6829 46.4527C44.5587 47.6762 43.7463 49.1017 42.7639 49.7683C41.409 50.6937 39.9126 49.8495 38.8204 48.6755C35.8808 45.7315 35.1082 42.1425 35.6656 37.8727Z" fill="white"/>
</g>
<defs>
<clipPath id="clip0_1_2167">
<rect width="50.4007" height="70.8565" fill="white" transform="matrix(0.911866 0.410488 0.410488 -0.911866 0.513672 64.6113)"/>
</clipPath>
</defs>
</svg>
