<svg width="67" height="32" viewBox="0 0 67 32" fill="none" xmlns="http://www.w3.org/2000/svg">
<g clip-path="url(#clip0_1_2169)">
<path d="M0.513672 27.8869C0.651747 26.7017 0.58271 25.5165 0.85886 24.4011C1.27309 22.7976 1.82539 21.1941 2.65384 19.73C7.69359 10.5971 15.0116 3.90434 24.884 1.18538C34.9635 -1.60329 44.4907 0.62765 52.43 7.87819C56.4342 11.5035 59.4718 15.8956 61.8191 20.7758C62.2333 21.6821 62.6476 22.5187 63.407 23.9828C64.3045 21.961 64.9948 20.4272 65.6852 18.8237C65.8923 18.8934 66.0994 18.8934 66.3756 18.9632C66.4446 19.4512 66.6517 19.9392 66.5827 20.4272C66.3756 22.8673 66.0994 25.3074 65.8233 27.7475C65.6162 29.351 65.4781 31.0242 63.7522 31.7213C61.9572 32.4882 60.4384 31.4425 59.2647 30.2573C57.6769 28.5841 56.2271 26.7017 54.8463 24.8194C54.5702 24.4011 54.8463 23.6342 54.8463 23.0067C55.4676 23.0067 56.2271 22.7976 56.6413 23.0765C57.884 23.9828 58.9195 25.0982 60.0932 26.2137C60.1622 26.0046 60.3003 25.8651 60.2312 25.7954C54.9153 10.5274 43.8693 1.39453 28.1287 2.99802C27.3693 3.06774 26.6099 3.20717 25.8505 3.48604C15.2877 6.90216 7.48648 13.5253 2.72288 23.7039C2.10154 25.0285 1.82539 26.5623 1.41116 28.0263C1.06597 27.9566 0.789823 27.9566 0.513672 27.8869Z" fill="white"/>
</g>
<defs>
<clipPath id="clip0_1_2169">
<rect width="66" height="32" fill="white" transform="translate(0.513672)"/>
</clipPath>
</defs>
</svg>
