<svg width="47" height="37" viewBox="0 0 47 37" fill="none" xmlns="http://www.w3.org/2000/svg">
<path d="M45.7134 15.9442C44.073 2.80842 29.2935 -0.735818 16.4213 1.50339C8.45511 2.85982 2.24197 9.56424 0.974324 16.3399C-0.315542 22.8924 5.64293 24.7788 5.64293 24.7788C9.09503 26.0131 13.8622 23.7353 15.6622 26.7682C16.6586 28.416 16.3091 30.4794 17.0856 32.149C18.6332 35.4325 21.5192 36.554 25.3602 36.6788C25.4152 36.6734 25.4701 36.6679 25.5251 36.6624C37.3761 35.3138 46.003 30.0033 46.0083 19.465C46.0565 18.2768 45.885 17.1105 45.7134 15.9442ZM9.03413 20.384C7.33089 20.5535 5.81846 19.2952 5.64629 17.5655C5.47411 15.8357 6.70885 14.304 8.41209 14.1345C10.1153 13.9649 11.6278 15.2232 11.7999 16.953C11.9721 18.6827 10.7374 20.2144 9.03413 20.384ZM16.2844 12.3929C14.5812 12.5624 13.0688 11.3042 12.8966 9.57442C12.7244 7.84465 13.9592 6.31296 15.6624 6.14343C17.3656 5.97389 18.8781 7.23215 19.0502 8.96192C19.2224 10.6917 17.9877 12.2234 16.2844 12.3929ZM24.74 32.1197C22.6521 32.3275 20.7767 30.7673 20.5657 28.6469C20.3546 26.5266 21.8857 24.6273 23.9735 24.4195C26.0614 24.2116 27.9368 25.7719 28.1478 27.8923C28.3589 30.0126 26.8278 31.9119 24.74 32.1197ZM25.8223 11.2182C24.1191 11.3877 22.6067 10.1294 22.4345 8.39966C22.2623 6.66989 23.4971 5.1382 25.2003 4.96867C26.9035 4.79914 28.416 6.05739 28.5881 7.78717C28.7603 9.51694 27.5256 11.0486 25.8223 11.2182ZM35.778 15.3553C34.0747 15.5248 32.5623 14.2665 32.3901 12.5368C32.218 10.807 33.4527 9.27529 35.1559 9.10576C36.8592 8.93623 38.3716 10.1945 38.5438 11.9243C38.716 13.654 37.4812 15.1857 35.778 15.3553Z" fill="white"/>
</svg>
