<svg width="47" height="37" viewBox="0 0 47 37" fill="none" xmlns="http://www.w3.org/2000/svg">
<path d="M45.317 14.1092C42.4712 1.18091 27.4276 -0.984082 14.8171 2.43364C7.01009 4.51954 1.44228 11.7688 0.805427 18.6326C0.125849 25.2762 6.233 26.6046 6.233 26.6046C9.78428 27.5149 14.3209 24.8069 16.3932 27.6607C17.5373 29.2094 17.3798 31.2963 18.3071 32.8872C20.1511 36.0137 23.1283 36.8641 26.9645 36.6339C27.0187 36.6234 27.0729 36.6129 27.1271 36.6024C38.8031 34.1656 46.903 28.0816 45.9357 17.5878C45.874 16.4002 45.5955 15.2547 45.317 14.1092ZM9.20408 21.9154C7.52376 22.2415 5.90165 21.1282 5.57056 19.4217C5.23947 17.7152 6.32756 16.0761 8.00788 15.75C9.6882 15.424 11.3103 16.5373 11.6414 18.2438C11.9725 19.9503 10.8844 21.5894 9.20408 21.9154ZM15.6859 13.2893C14.0056 13.6153 12.3835 12.502 12.0524 10.7955C11.7213 9.08905 12.8094 7.44993 14.4897 7.12392C16.17 6.7979 17.7921 7.9112 18.1232 9.61769C18.4543 11.3242 17.3662 12.9633 15.6859 13.2893ZM25.9261 32.1515C23.8663 32.5511 21.8549 31.1706 21.4491 29.0788C21.0432 26.987 22.3924 24.9545 24.4522 24.5548C26.5119 24.1552 28.5234 25.5357 28.9292 27.6275C29.3351 29.7194 27.9858 31.7519 25.9261 32.1515ZM25.0747 11.2392C23.3943 11.5653 21.7722 10.452 21.4411 8.74547C21.11 7.03898 22.1981 5.39986 23.8785 5.07384C25.5588 4.74783 27.1809 5.86112 27.512 7.56762C27.8431 9.27412 26.755 10.9132 25.0747 11.2392ZM35.3696 14.4398C33.6893 14.7658 32.0672 13.6525 31.7361 11.946C31.405 10.2395 32.4931 8.6004 34.1734 8.27439C35.8538 7.94838 37.4759 9.06167 37.807 10.7682C38.1381 12.4747 37.05 14.1138 35.3696 14.4398Z" fill="white"/>
</svg>
