<svg width="19" height="18" viewBox="0 0 19 18" fill="none" xmlns="http://www.w3.org/2000/svg">
<path d="M17.7866 8.95703C17.7866 13.618 13.9265 17.4141 9.14307 17.4141C4.35962 17.4141 0.499554 13.618 0.499511 8.95703C0.499512 4.29605 4.35959 0.5 9.14307 0.5C13.9265 0.5 17.7866 4.29605 17.7866 8.95703Z" stroke="white"/>
<path d="M11.8628 7.50315C12.0216 7.68964 12.0216 7.99194 11.8628 8.17843L9.27399 11.2175C9.11513 11.404 8.85762 11.404 8.69876 11.2175L6.10997 8.17843C5.9511 7.99193 5.9511 7.68964 6.10997 7.50315C6.26883 7.31666 6.52633 7.31666 6.68519 7.50315L8.89448 10.0967C8.92404 10.0887 8.95474 10.0839 8.98638 10.0839C9.01801 10.0839 9.04871 10.0887 9.07828 10.0967L11.2876 7.50315C11.4464 7.31666 11.7039 7.31666 11.8628 7.50315Z" fill="white"/>
</svg>
