<svg width="39" height="50" viewBox="0 0 39 50" fill="none" xmlns="http://www.w3.org/2000/svg">
<g clip-path="url(#clip0_1_4370)">
<path d="M37.1565 19.5092L38.6044 4.19238C38.629 3.9323 38.5496 3.67657 38.389 3.47699C38.2284 3.27741 37.992 3.14869 37.7457 3.1254L5.79874 0.105529C5.54558 0.0815978 5.28928 0.163753 5.10095 0.330345C4.90577 0.49629 4.77988 0.732613 4.7553 0.992697L0.611035 44.8344C0.58645 45.0945 0.665828 45.3502 0.826453 45.5498C0.987078 45.7494 1.22344 45.8781 1.46976 45.9014L27.5939 48.3708C27.847 48.3948 28.0965 48.312 28.291 48.153L31.5094 45.436L31.5169 45.4297L34.6786 42.7286C34.8738 42.5626 35.0003 42.3193 35.0243 42.0662L37.1565 19.5092L35.0696 21.2835L33.3068 39.9323L27.2513 39.3599C26.9982 39.3359 26.7487 39.4187 26.5535 39.5847C26.3584 39.7506 26.2318 39.994 26.2079 40.247L25.6438 46.2149L2.60557 44.0371L6.56511 2.14958L36.603 4.989L35.015 21.789M28.0177 41.4039L33.0879 41.8832L27.5426 46.4298L28.0177 41.4039Z" fill="white"/>
<path d="M10.4664 10.0595L33.9004 12.2746L34.0277 10.9277L10.5934 8.71585L10.4664 10.0595Z" fill="white"/>
<path d="M7.4801 13.8541L33.5179 16.3154L33.6452 14.9685L7.60711 12.5105L7.4801 13.8541Z" fill="white"/>
<path d="M7.09729 17.895L33.1351 20.3563L33.2624 19.0094L7.2243 16.5514L7.09729 17.895Z" fill="white"/>
<path d="M6.71643 21.9358L32.7542 24.3971L32.8815 23.0502L6.84344 20.5922L6.71643 21.9358Z" fill="white"/>
</g>
<defs>
<clipPath id="clip0_1_4370">
<rect width="34" height="46" fill="white" transform="translate(4.84766 0.015625) rotate(5.4)"/>
</clipPath>
</defs>
</svg>
