<svg width="39" height="39" viewBox="0 0 39 39" fill="none" xmlns="http://www.w3.org/2000/svg">
<path d="M19.9466 38.5116C9.41536 38.4569 0.962237 29.9821 0.985675 19.4686C1.00911 8.88484 9.54818 0.480318 20.0326 0.511561C30.5872 0.542805 39.0247 9.04106 38.9857 19.5858C38.9388 30.1305 30.4232 38.4959 19.9466 38.5116ZM25.72 35.2076C25.8372 35.1763 25.9701 35.1607 26.0794 35.1216C28.8997 34.0047 31.2513 32.2628 33.1341 29.8883C33.2122 29.7868 33.2904 29.6774 33.3997 29.529C31.7904 29.529 30.2513 29.5212 28.7122 29.5368C28.6263 29.5368 28.5013 29.6774 28.4544 29.7712C28.056 30.7163 27.72 31.7005 27.2591 32.6143C26.8216 33.5126 26.2513 34.3484 25.72 35.2076ZM25.72 3.81557C25.72 3.79995 25.72 3.78433 25.72 3.7687C25.7122 3.7687 25.7044 3.7687 25.6966 3.77651C25.7044 3.79214 25.7122 3.79995 25.72 3.81557C26.9466 5.49491 27.845 7.33828 28.4935 9.30663C28.5247 9.39255 28.6888 9.47847 28.7982 9.47847C30.2669 9.48628 31.7357 9.48628 33.1966 9.48628C33.2513 9.48628 33.306 9.47066 33.3763 9.46285C33.3451 9.40817 33.3372 9.37693 33.3216 9.35349C31.3841 6.8462 28.9544 5.00283 25.9935 3.86243C25.9075 3.83119 25.8138 3.83119 25.72 3.81557ZM14.2435 3.81557C14.1107 3.84681 13.9779 3.85462 13.8529 3.9093C11.2669 4.93253 9.07161 6.51033 7.2513 8.61146C7.01692 8.87703 6.80599 9.15822 6.54036 9.48628C8.17317 9.48628 9.72005 9.48628 11.2747 9.47847C11.3529 9.47847 11.4622 9.34568 11.5013 9.24414C11.8372 8.43181 12.095 7.58042 12.5013 6.79933C13.0169 5.7761 13.6497 4.80755 14.2435 3.81557C14.2513 3.79995 14.2669 3.79214 14.2825 3.77651C14.2747 3.77651 14.2669 3.7687 14.2591 3.7687C14.2435 3.78433 14.2435 3.79995 14.2435 3.81557ZM29.1966 27.2795C29.2435 27.2873 29.2826 27.2951 29.3216 27.2951C31.0872 27.2951 32.8529 27.2951 34.6107 27.3029C34.7982 27.3029 34.8685 27.2092 34.9388 27.0764C35.7591 25.4752 36.2904 23.7802 36.5638 22.0071C36.6341 21.5541 36.6576 21.1011 36.7044 20.6168C36.5404 20.6168 36.4232 20.6168 36.306 20.6168C34.9779 20.6168 33.6497 20.6168 32.3216 20.6168C31.6185 20.6168 30.9154 20.6168 30.2201 20.6168C30.0794 20.6168 29.9388 20.5934 29.931 20.8121C29.9154 21.2729 29.8997 21.7416 29.8685 22.2024C29.8216 22.8507 29.7982 23.5068 29.7044 24.1551C29.5638 25.1862 29.3763 26.2172 29.1966 27.2795ZM12.2201 20.6324C12.2826 22.8976 12.5638 25.1081 13.1185 27.2795C15.0404 27.2795 16.9466 27.2795 18.8529 27.2795C18.8529 25.0612 18.8529 22.8507 18.8529 20.6324C16.6341 20.6324 14.4466 20.6324 12.2201 20.6324ZM10.8138 27.2951C10.3138 25.069 10.0404 22.8585 9.94661 20.6402C7.70442 20.6402 5.48567 20.6402 3.27474 20.6402C3.26692 20.6949 3.25911 20.7262 3.25911 20.7574C3.4388 22.9991 4.02474 25.1237 5.05599 27.1155C5.10286 27.2092 5.28255 27.2795 5.40755 27.2873C6.73567 27.3029 8.0638 27.2951 9.39192 27.2951C9.85286 27.2951 10.3138 27.2951 10.8138 27.2951ZM21.1263 27.2795C23.0404 27.2795 24.9388 27.2795 26.8607 27.2795C27.4232 25.1003 27.6654 22.882 27.7591 20.6402C25.5247 20.6402 23.3372 20.6402 21.1341 20.6402C21.1263 22.8663 21.1263 25.0612 21.1263 27.2795ZM12.2357 18.3438C14.47 18.3438 16.6576 18.3438 18.8451 18.3438C18.8451 16.1177 18.8451 13.9307 18.8451 11.7358C16.9154 11.7358 15.0169 11.7358 13.1107 11.7358C12.5794 13.9229 12.2591 16.1021 12.2357 18.3438ZM36.6966 18.3595C36.6732 18.047 36.6654 17.7502 36.6341 17.4612C36.3919 15.5475 35.8451 13.7276 34.9857 12.0014C34.8841 11.7983 34.7669 11.7124 34.5325 11.7124C32.8529 11.7202 31.1732 11.7202 29.4935 11.7202C29.3919 11.7202 29.2904 11.728 29.1654 11.7358C29.6576 13.9307 29.9388 16.1255 29.9466 18.3595C32.2044 18.3595 34.431 18.3595 36.6966 18.3595ZM9.86067 18.3673C10.1419 16.1255 10.4232 13.9307 10.7044 11.728C10.7279 11.728 10.681 11.7202 10.6419 11.7202C8.8763 11.7202 7.11067 11.7202 5.34505 11.7124C5.1263 11.7124 5.07942 11.8295 5.0013 11.9701C4.1888 13.5714 3.65755 15.2663 3.39192 17.0472C3.32942 17.4768 3.28255 17.9142 3.22786 18.3595C5.50911 18.3673 7.72005 18.3673 9.86067 18.3673ZM26.8685 11.7358C24.9388 11.7358 23.0404 11.7358 21.1263 11.7358C21.1263 13.9463 21.1263 16.1412 21.1263 18.3595C23.3372 18.3595 25.5326 18.3595 27.7201 18.3595C27.7122 16.1021 27.3841 13.9072 26.8685 11.7358ZM18.8451 9.47847C18.8451 7.29923 18.8451 5.15123 18.8451 2.88607C18.3997 3.13602 18.0013 3.33129 17.6419 3.57343C16.7279 4.20611 16.0482 5.06531 15.4622 5.99481C14.7669 7.08052 14.2357 8.24435 13.7982 9.47066C15.4935 9.47847 17.1576 9.47847 18.8451 9.47847ZM18.8529 29.5368C17.1654 29.5368 15.5013 29.5368 13.8138 29.5368C13.8294 29.5993 13.8372 29.654 13.8529 29.7009C14.3685 31.0912 15.0013 32.4191 15.8763 33.6219C16.5482 34.5514 17.3372 35.3638 18.3841 35.8793C18.5325 35.9496 18.6888 35.9965 18.8451 36.0589C18.8529 33.8563 18.8529 31.7005 18.8529 29.5368ZM21.1185 2.90951C21.1185 5.15904 21.1185 7.31485 21.1185 9.48628C22.806 9.48628 24.47 9.48628 26.1576 9.48628C26.1341 9.40036 26.1185 9.33006 26.095 9.26757C25.6575 8.10375 25.1341 6.97898 24.4544 5.93232C23.8294 4.97158 23.1185 4.08895 22.1419 3.46408C21.8372 3.25319 21.5013 3.10478 21.1185 2.90951ZM21.1263 36.0667C21.2591 36.0121 21.3685 35.9808 21.4701 35.934C22.2591 35.5825 22.9075 35.0357 23.4779 34.3952C24.556 33.1689 25.2982 31.7395 25.9075 30.232C25.9935 30.0133 26.0794 29.7868 26.1654 29.5525C24.4622 29.5525 22.7982 29.5525 21.1185 29.5525C21.1263 31.7161 21.1263 33.8719 21.1263 36.0667ZM6.54817 29.529C8.59505 32.1925 11.1185 34.0906 14.2122 35.2076C14.0482 34.9029 13.845 34.6295 13.6575 34.3405C12.7357 32.9268 12.056 31.3958 11.5169 29.8024C11.47 29.6696 11.4622 29.5212 11.2435 29.5212C9.71224 29.529 8.16536 29.529 6.54817 29.529Z" fill="#F8F9F9"/>
</svg>
