<svg width="66" height="32" viewBox="0 0 66 32" fill="none" xmlns="http://www.w3.org/2000/svg">
<g clip-path="url(#clip0_1_1936)">
<path d="M0 27.8867C0.138075 26.7015 0.0690377 25.5163 0.345188 24.4009C0.759414 22.7974 1.31172 21.1939 2.14017 19.7298C7.17992 10.5969 14.4979 3.90412 24.3703 1.18517C34.4498 -1.6035 43.977 0.627436 51.9163 7.87798C55.9205 11.5033 58.9582 15.8954 61.3054 20.7756C61.7197 21.6819 62.1339 22.5185 62.8933 23.9826C63.7908 21.9608 64.4812 20.427 65.1715 18.8235C65.3787 18.8932 65.5858 18.8932 65.8619 18.9629C65.931 19.451 66.1381 19.939 66.069 20.427C65.8619 22.8671 65.5858 25.3072 65.3096 27.7473C65.1025 29.3507 64.9644 31.024 63.2385 31.7211C61.4435 32.488 59.9247 31.4423 58.751 30.2571C57.1632 28.5839 55.7134 26.7015 54.3326 24.8192C54.0565 24.4009 54.3326 23.634 54.3326 23.0065C54.954 23.0065 55.7134 22.7974 56.1276 23.0762C57.3703 23.9826 58.4059 25.098 59.5795 26.2135C59.6485 26.0043 59.7866 25.8649 59.7176 25.7952C54.4017 10.5272 43.3556 1.39432 27.6151 2.99781C26.8556 3.06752 26.0962 3.20696 25.3368 3.48582C14.7741 6.90195 6.9728 13.525 2.20921 23.7037C1.58787 25.0283 1.31172 26.5621 0.89749 28.0261C0.552301 27.9564 0.276151 27.9564 0 27.8867Z" fill="#FEA800"/>
</g>
<defs>
<clipPath id="clip0_1_1936">
<rect width="66" height="32" fill="white"/>
</clipPath>
</defs>
</svg>
