<svg width="36" height="36" viewBox="0 0 36 36" fill="none" xmlns="http://www.w3.org/2000/svg">
<g clip-path="url(#clip0_1_2722)">
<path fill-rule="evenodd" clip-rule="evenodd" d="M17.4385 15.717H20.8054V25.4633H17.4385V15.717ZM12.1723 18.8779H15.5392V25.6389H12.1723V18.8779ZM6.90616 20.7218H10.3594V25.7267H6.90616V20.7218ZM1.38098 27.7462H27.2803V2.45842C27.2803 1.58037 27.9709 0.87793 28.6616 0.87793C29.5249 0.87793 30.0428 1.58037 30.0428 2.45842V27.7462H34.5321C35.3954 27.7462 35.9133 28.4487 35.9133 29.3267C35.9133 30.2048 35.309 30.9072 34.5321 30.9072H30.2155V35.2096C30.2155 36.0877 29.6112 36.7901 28.8342 36.7901C28.1436 36.7901 27.4529 36.0877 27.4529 35.2096V30.9072H1.55364C0.86299 30.9072 0.172342 30.2048 0.172342 29.3267C-0.000319377 28.5365 0.690328 27.7462 1.38098 27.7462ZM23.1364 7.19988L25.5536 8.60476L23.827 3.16086L19.1651 5.26817L21.5824 6.40964C21.5824 6.58525 21.5824 6.58525 21.4098 6.67305C21.4098 6.84866 21.2371 6.93647 21.1508 7.28769C21.1508 7.4633 20.9781 7.5511 20.9781 7.5511C20.8054 7.81452 20.8054 7.90232 20.7191 8.07793C20.7191 8.07793 20.5464 8.25354 20.5464 8.34134C20.3738 8.34134 20.3738 8.51695 20.2875 8.60476C20.1148 8.86817 20.0285 9.04378 19.6831 9.3072C19.5105 9.48281 19.4241 9.74622 19.0788 10.0096C18.9062 10.1852 18.6472 10.4487 18.4745 10.6243C18.2155 10.8877 17.8702 11.2389 17.7839 11.3267C17.6112 11.5023 17.5249 11.5901 17.3522 11.5901C17.1795 11.7657 17.0932 11.8535 16.9205 12.0292C16.7479 12.2048 16.4889 12.2926 16.2299 12.6438C16.0572 12.6438 15.9709 12.8194 15.7982 12.9072L15.3666 13.0828C14.7623 13.5218 14.2443 13.7852 13.64 14.0487C13.0357 14.3121 12.5177 14.6633 11.9134 14.7511C11.309 15.0145 10.791 15.1901 10.1867 15.3657C9.58241 15.5413 9.15076 15.6291 8.63277 15.6291C8.20112 15.8048 7.76946 15.8048 7.33781 15.8926C6.90616 15.8926 6.64716 15.8926 6.30184 15.8926C5.69752 16.0682 5.43853 16.0682 5.43853 16.0682C5.43853 16.0682 6.73349 16.2438 8.71911 16.0682C9.15076 16.0682 9.75508 15.8926 10.2731 15.8048C10.8774 15.8048 11.3954 15.6292 11.9997 15.5413C12.604 15.3657 13.122 15.1023 13.8126 14.9267C14.4169 14.6633 14.9349 14.3121 15.6256 14.0487L16.0572 13.8731C16.2299 13.6974 16.3162 13.6096 16.4889 13.6096C16.7479 13.434 17.0932 13.1706 17.3522 12.995C17.5249 12.8194 17.6112 12.8194 17.7839 12.7316C17.9565 12.556 18.0428 12.556 18.2155 12.4682C18.4745 12.2048 18.7335 12.0292 19.0788 11.7657C19.3378 11.5901 19.5105 11.3267 19.7695 11.2389C20.0285 10.9755 20.2011 10.6243 20.4601 10.5365C20.6328 10.2731 20.8918 10.0974 21.0644 9.83403C21.2371 9.65842 21.3234 9.57061 21.3234 9.57061C21.4961 9.395 21.4961 9.3072 21.5824 9.13159C21.7551 8.95598 21.7551 8.95598 21.8414 8.86817C21.8414 8.69256 22.0141 8.60476 22.0141 8.42915C22.1867 8.25354 22.2731 8.16573 22.4457 7.81452C22.791 7.63891 22.9637 7.37549 23.1364 7.19988ZM22.5321 11.9413H25.899V25.2877H22.5321V11.9413Z" fill="#FEA800"/>
</g>
<defs>
<clipPath id="clip0_1_2722">
<rect width="36" height="36" fill="white"/>
</clipPath>
</defs>
</svg>
