<svg width="508" height="69" viewBox="0 0 508 69" fill="none" xmlns="http://www.w3.org/2000/svg">
<g clip-path="url(#clip0_1_1843)">
<path d="M254.07 0.0865914C253.789 0.108262 253.555 0.151604 253.274 0.173275C253.415 0.3033 253.555 0.411654 253.696 0.541679C245.453 -0.108446 240.535 1.27849 234.353 3.96567C230.279 6.24111 220.725 7.82309 218.617 10.5103C215.714 10.8787 210.141 14.0643 207.471 14.5627C207.471 14.9311 207.471 15.2995 207.471 15.6679C205.13 15.6896 201.008 16.9899 202.273 18.4418C201.477 18.2468 200.68 18.0734 199.884 17.8784C199.51 18.3118 199.556 18.7669 200.68 18.8102C198.011 18.9402 193.702 20.1755 193.89 21.5841C193.749 21.4541 193.609 21.3457 193.468 21.2157C192.11 21.4541 192.063 22.3642 191.876 23.0577C190.892 22.3859 188.597 23.101 188.691 23.7945C189.3 23.4478 191.126 22.6676 190.892 23.5128C181.713 25.2031 177.217 30.0574 169.536 32.6579C169.958 33.0263 170.332 33.3947 170.754 33.7631C168.974 33.1346 166.773 33.7198 166.352 34.6949C166.773 34.76 167.148 34.825 167.569 34.89C166.914 34.89 166.258 34.89 165.555 34.89C165.555 35.1934 165.555 35.4968 165.555 35.8218C164.104 34.8683 154.362 41.0445 154.784 42.1064C157.125 41.4129 159.139 39.4625 163.167 39.7009C162.183 38.2923 166.679 38.8124 168.365 39.3325C168.506 39.0291 168.646 38.7257 168.787 38.4007C170.005 38.8124 172.768 37.7289 172.393 37.1004C171.972 37.1004 171.597 37.1004 171.175 37.1004C172.768 35.8002 168.365 35.5618 167.991 34.89C169.068 35.085 170.098 35.2584 171.175 35.4534C171.175 35.15 171.175 34.8466 171.175 34.5216C173.751 35.1934 175.016 32.6145 177.545 33.048C177.264 32.6796 177.03 32.3111 176.749 31.9427C177.685 32.1811 178.622 32.4412 179.559 32.6796C179.231 32.3762 179.137 32.0294 179.98 31.9427C179.184 31.9427 178.388 31.9427 177.592 31.9427C178.06 31.2926 179.559 31.531 180.776 31.7477C180.964 30.9025 184.148 31.4226 184.382 30.4475C184.898 30.5775 185.46 30.6858 185.975 30.8159C185.834 30.4475 185.694 30.0791 185.553 29.7107C186.209 29.7107 186.865 29.7107 187.567 29.7107C186.068 28.7788 188.41 28.4537 188.785 27.8686C191.173 29.0389 192.25 26.5684 192.766 25.8316C193.187 25.8966 193.562 25.9616 193.983 26.0266C193.421 25.4415 192.578 23.6862 194.405 23.6211C194.217 24.2063 193.749 24.9864 194.826 25.2898C194.92 24.6613 195.341 24.0112 196.84 24.1846C196.653 24.5963 197.168 24.8564 198.058 24.9214C198.292 24.3363 197.449 23.8378 196.465 23.4478C199.182 24.0546 200.072 23.2094 202.46 22.8843C201.57 22.6026 200.634 22.2775 200.868 21.7791C200.634 22.8193 197.496 22.1692 199.275 21.4107C198.105 21.5191 196.559 21.6924 196.465 21.0423C200.118 20.7172 202.179 22.1909 204.849 21.9742C204.568 21.6708 204.333 21.3674 204.052 21.0423C205.411 20.9123 206.816 20.6089 206.066 19.9371C206.581 20.0021 207.143 20.0671 207.659 20.1321C207.237 19.8287 206.862 19.5253 206.441 19.2003C208.595 19.4387 209.579 18.4201 211.639 18.8319C211.639 18.6585 211.639 18.4635 211.639 18.2684C212.061 18.2684 212.436 18.2684 212.857 18.2684C212.857 18.1384 212.857 18.0301 212.857 17.9C212.342 17.965 211.78 18.0301 211.265 18.0951C211.265 17.8567 211.265 17.5966 211.265 17.3583C213.653 17.8567 213.841 16.7515 215.667 16.4264C215.011 16.4264 214.356 16.4264 213.653 16.4264C214.59 14.9311 213.653 15.0395 218.055 15.2345C223.675 14.021 218.571 14.151 216.838 13.1108C218.477 12.8941 219.882 13.6525 221.24 13.6742C221.24 13.4792 221.24 13.3058 221.24 13.1108C224.987 14.2377 225.83 11.1604 228.827 11.4421C228.78 10.9003 229.108 10.0769 228.031 9.9685C229.904 9.99017 229.483 9.01498 229.249 8.29984C231.309 8.4082 233.042 7.23797 235.243 7.93144C235.571 7.15129 232.948 6.65286 233.651 6.08942C237.117 6.26278 234.213 8.27817 235.665 8.86329C236.461 7.90977 240.77 5.74268 242.456 5.17924C242.456 5.41762 242.456 5.67767 242.456 5.91605C242.737 5.91605 242.971 5.91605 243.252 5.91605C243.252 5.54765 243.252 5.17924 243.252 4.81084C244.329 4.87585 245.359 4.94086 246.436 5.00588C246.062 4.39909 246.015 3.70562 247.654 3.70562C247.514 3.51059 247.373 3.33722 247.233 3.14218C247.654 3.14218 248.029 3.14218 248.45 3.14218C248.31 3.51059 248.169 3.87899 248.029 4.2474C250.886 4.03069 251.729 2.40537 254.023 1.84193C254.164 2.03697 254.304 2.21034 254.445 2.40537C251.635 2.96882 250.511 7.62805 247.279 7.95311C244.188 11.9622 235.196 15.4729 234.119 19.7637C233.323 19.6987 232.527 19.6337 231.731 19.5687C231.871 19.8071 232.012 20.0671 232.152 20.3055C228.125 21.2373 226.017 25.2898 223.394 26.7634C224.331 26.8501 224.05 27.3269 223.816 27.6953C220.819 27.1535 220.397 29.1905 220.631 30.2741C220.21 30.1441 219.835 30.0357 219.414 29.9057C220.35 31.1409 216.089 31.3576 216.604 32.8529C217.025 32.7229 217.4 32.6145 217.821 32.4845C217.821 32.6796 217.821 32.8529 217.821 33.048C217.4 33.048 217.025 33.048 216.604 33.048C216.604 33.2863 216.604 33.5464 216.604 33.7848C215.948 33.7198 215.292 33.6547 214.59 33.5897C215.246 34.4349 212.763 34.8033 213.606 35.5184C214.73 36.3203 212.998 36.3853 211.827 36.1686C212.201 37.1438 207.659 38.444 209.626 39.5926C210.75 39.6576 211.639 38.184 211.031 37.8372C213.653 38.0756 210.469 39.1158 211.031 39.8743C211.546 39.8743 212.108 39.8743 212.623 39.8743C212.623 39.5059 212.623 39.1375 212.623 38.7691C213.044 38.7691 213.419 38.7691 213.841 38.7691C213.56 39.3542 215.152 39.8309 216.229 40.2427C215.761 39.4842 215.948 38.7041 217.821 38.574C216.744 38.379 215.714 38.2056 214.637 38.0106C216.744 37.4038 216.229 36.3419 215.058 35.4318C215.573 35.3667 216.135 35.3017 216.651 35.2367C216.885 35.6051 217.166 36.0602 216.229 36.1686C218.009 36.5153 220.444 35.9952 219.414 35.0634C220.21 35.0634 221.006 35.0634 221.802 35.0634C221.802 34.76 221.802 34.4566 221.802 34.1315C222.364 34.6516 224.05 34.2615 223.816 33.7631C223.16 33.7631 222.505 33.7631 221.802 33.7631C221.802 33.3947 221.802 33.0263 221.802 32.6579C222.224 32.7229 222.598 32.7879 223.02 32.8529C223.207 32.3328 223.348 31.8994 225.034 31.9211C227.797 31.7911 227.422 29.2556 229.811 28.7788C229.061 28.6054 228.312 28.6271 227.797 28.9738C228.171 28.2154 228.499 27.2402 229.389 26.7634C231.637 28.3887 233.136 26.135 234.962 25.4632C233.37 25.1381 233.37 24.3579 233.745 23.6211C234.307 24.0546 235.29 23.8595 236.133 23.6211C235.993 23.7512 235.852 23.8595 235.712 23.9895C238.615 23.6862 233.698 22.3859 235.712 21.4107C237.351 22.3209 241.472 20.7823 237.725 20.3055C238.896 20.1755 238.194 19.222 238.147 18.6368C238.943 18.7019 239.739 18.7669 240.535 18.8319C240.254 19.0703 240.02 19.3303 239.739 19.5687C241.519 19.5037 241.519 17.705 244.516 17.9C243.861 17.6617 243.205 17.4016 242.502 17.1632C244.142 17.3366 245.031 16.7731 245.312 16.058C245.734 16.188 246.109 16.2964 246.53 16.4264C247.467 14.9311 245.453 13.7826 245.734 12.374C246.671 12.9157 251.12 13.5442 251.729 12.374C250.792 12.374 249.855 12.374 248.919 12.374C248.919 11.8755 248.919 11.3988 248.919 10.9003C249.059 11.0954 249.2 11.2688 249.34 11.4638C254.96 11.1604 254.866 10.2069 256.506 8.14815C255.569 7.64972 254.07 6.97792 255.288 6.47949C255.522 6.97792 257.068 6.73954 258.098 6.67453C257.817 6.30613 257.583 5.93772 257.302 5.56932C257.723 5.56932 258.098 5.56932 258.519 5.56932C257.911 4.94086 258.66 4.20405 259.316 3.53226C258.051 3.51059 257.021 3.22887 257.302 2.60041C258.473 2.66542 259.643 2.55707 260.112 2.03697C258.004 1.8636 257.021 -0.498522 254.07 0.0865914ZM252.478 0.281629C252.618 0.3033 252.759 0.346642 252.899 0.368313C252.618 0.3033 252.384 0.238287 252.103 0.173275C252.244 0.216617 252.384 0.238287 252.478 0.281629ZM251.307 1.30016C251.588 1.30016 251.822 1.30016 252.103 1.30016C252.103 1.4952 252.103 1.66856 252.103 1.8636C251.822 1.66856 251.588 1.47353 251.307 1.30016ZM253.696 1.47353C253.977 1.60355 254.211 1.71191 254.492 1.84193C254.211 1.73358 253.977 1.60355 253.696 1.47353ZM248.919 2.21034C249.621 2.42704 249.715 2.79545 249.34 3.14218C249.153 2.83879 249.059 2.51373 248.919 2.21034ZM257.676 3.0555C257.817 3.07717 257.957 3.12051 258.098 3.14218C257.817 3.07717 257.583 3.01216 257.302 2.94714C257.395 2.99049 257.536 3.01216 257.676 3.0555ZM237.351 3.51059C237.632 3.51059 237.866 3.51059 238.147 3.51059C238.006 3.64061 237.866 3.74897 237.725 3.87899C237.585 3.74897 237.491 3.64061 237.351 3.51059ZM238.147 4.05236C238.428 4.18238 238.662 4.29074 238.943 4.42076C238.662 4.31241 238.381 4.18238 238.147 4.05236ZM240.114 4.2474C241.144 4.52912 240.395 5.00588 239.692 5.35261C239.88 4.9842 240.02 4.6158 240.114 4.2474ZM255.709 4.42076C255.85 4.6158 255.99 4.78917 256.131 4.9842C255.944 4.78917 255.803 4.6158 255.709 4.42076ZM253.696 4.6158C254.96 5.02755 255.335 5.61266 254.117 6.08942C253.977 5.59099 253.836 5.11423 253.696 4.6158ZM259.081 5.07089C259.128 5.22258 259.222 5.37428 259.269 5.52598C259.409 5.22258 259.55 4.91919 259.69 4.59413C259.409 4.59413 259.175 4.59413 258.894 4.59413C258.941 4.7675 258.988 4.91919 259.081 5.07089ZM150.99 5.72101C151.037 5.78603 151.131 5.85104 151.178 5.91605C151.037 5.78603 150.897 5.67767 150.756 5.54765C150.85 5.59099 150.897 5.656 150.99 5.72101ZM145.979 6.00273C144.668 6.06775 144.34 6.6962 143.965 7.19463C142.56 6.28446 137.737 8.06147 137.783 8.86329C138.439 9.47007 141.53 9.2967 141.155 10.3369C140.031 10.4236 139.048 10.2069 138.345 9.77346C137.549 11.7238 136.659 9.23169 135.161 9.40506C135.254 9.90349 134.88 9.9685 132.96 10.1419C129.962 10.1852 130.384 11.9405 127.995 11.9839C128.417 12.2873 128.791 12.5907 129.213 12.9157C127.012 12.8941 126.731 14.6927 124.811 14.5844C126.169 14.346 126.497 13.5659 124.811 13.4792C125.326 16.7298 118.441 13.9993 116.849 17.3583C116.006 15.7763 105 20.5222 105.703 21.6057C105.047 21.6057 104.391 21.6057 103.689 21.6057C103.876 22.2342 100.083 22.3859 100.879 23.2744C100.598 23.1444 100.364 23.036 100.083 22.906C100.083 24.3796 93.9943 24.3796 94.5095 26.0483C91.9336 26.265 88.9831 27.1101 87.7186 28.2587C88.7021 27.977 89.7793 27.847 90.9033 27.8903C90.6223 28.6488 85.4706 28.6271 84.534 29.7323C82.1455 30.5992 83.3163 32.7879 85.3301 31.401C85.8453 31.7694 86.4073 32.1378 86.9225 32.5062C87.2035 31.7044 88.7958 31.4226 90.5286 31.401C90.5286 31.596 90.5286 31.7694 90.5286 31.9644C91.9805 31.9427 92.7298 31.2926 93.3386 30.6642C93.9943 31.9427 96.6638 31.336 97.3194 30.2958C97.6941 30.6425 97.6473 30.9892 96.8979 31.2276C97.8814 30.7942 99.1459 30.5992 100.504 30.6642C99.5674 29.7106 102.143 28.1287 104.485 28.4537C104.485 28.3237 104.485 28.2154 104.485 28.0853C106.358 28.172 107.576 27.2835 109.683 27.7169C108.747 27.2402 109.777 26.4384 107.67 26.0483C109.356 25.7449 111.088 25.6799 112.447 26.2433C112.774 25.4415 113.149 24.4013 114.835 24.2063C111.276 23.1877 114.554 23.0794 115.631 22.1692C115.912 22.6676 116.146 23.1444 116.427 23.6428C115.959 23.036 117.832 23.036 117.645 22.5376C117.224 22.5376 116.849 22.5376 116.427 22.5376C116.755 21.1073 119.799 22.2992 121.204 21.5191C123.687 20.0021 117.692 20.9773 116.427 19.9588C118.067 19.677 118.582 19.0486 118.02 18.2901C118.675 18.4851 119.331 18.6585 120.034 18.8536C117.036 20.1538 121.907 20.7823 121.626 19.0486C123.546 19.9804 125.373 19.1136 127.199 19.612C127.34 19.417 127.48 19.2436 127.621 19.0486C125.888 19.222 124.061 18.3768 124.436 17.575C123.78 17.705 123.125 17.8134 122.422 17.9434C122.797 17.5966 122.75 17.2499 122.001 17.0115C122.797 16.9465 123.593 16.8815 124.389 16.8165C123.452 17.4666 125.981 17.705 127.199 17.9217C127.293 17.0332 129.915 15.4079 131.18 14.9745C130.899 15.2128 130.665 15.4729 130.384 15.7113C131.039 15.8413 131.695 15.9497 132.398 16.0797C130.805 14.9745 133.709 14.9311 133.194 13.8693C132.538 12.9374 133.896 12.7857 134.786 13.3058C134.646 13.1108 134.505 12.9374 134.365 12.7424C135.348 12.8724 135.582 12.0706 135.957 11.6372C135.957 11.9405 135.957 12.2439 135.957 12.569C136.894 12.569 137.83 12.569 138.767 12.569C138.767 12.2656 138.767 11.9622 138.767 11.6372C139.282 11.7672 139.844 11.8755 140.359 12.0056C139.938 10.5319 143.591 10.3152 143.965 9.42673C144.387 9.49174 144.762 9.55676 145.183 9.62177C144.574 10.2502 143.684 11.0087 144.762 11.4638C143.684 11.3338 142.701 12.6123 141.952 13.1324C142.373 13.1975 142.748 13.2625 143.169 13.3275C143.169 13.0891 143.169 12.8291 143.169 12.5907C144.293 12.5473 144.527 13.3925 145.979 13.3275C144.902 13.5659 143.872 13.8259 142.795 14.0643C144.293 14.5844 142.467 15.1478 141.202 14.8011C141.202 14.9311 141.202 15.0395 141.202 15.1695C141.624 15.1695 141.998 15.1695 142.42 15.1695C141.53 15.9063 139.797 16.9682 140.031 17.575C140.453 17.575 140.828 17.575 141.249 17.575C141.109 17.8134 140.968 18.0734 140.828 18.3118C141.109 18.3118 141.343 18.3118 141.624 18.3118C140.687 18.5718 140.968 19.1353 141.202 19.612C140.547 19.3086 139.891 19.0052 139.188 18.6802C140.125 19.8287 134.973 20.3922 135.582 21.4541C136.238 21.4541 136.894 21.4541 137.596 21.4541C137.737 24.2063 145.089 22.3209 147.15 21.4541C147.01 21.1507 146.869 20.8473 146.728 20.5222C147.15 20.5222 147.525 20.5222 147.946 20.5222C148.133 20.1755 147.431 20.0454 146.728 19.9588C147.244 19.8938 147.806 19.8287 148.321 19.7637C148.133 19.3953 147.384 19.4387 146.728 19.5687C146.728 19.3303 146.728 19.0703 146.728 18.8319C147.15 18.8319 147.525 18.8319 147.946 18.8319C147.852 17.8134 144.715 16.3831 145.932 15.1478C146.682 15.6463 147.478 16.4047 148.742 16.253C148.742 16.3831 148.742 16.4914 148.742 16.6215C149.726 16.123 150.943 16.5781 151.927 16.9899C152.161 16.0147 152.723 14.8444 155.112 15.1478C155.112 15.3429 155.112 15.5162 155.112 15.7113C155.908 15.3212 156.985 15.4296 157.922 15.7113C158.53 14.9745 160.638 13.5875 158.718 13.3058C159.139 13.0674 159.514 12.8074 159.935 12.569C159.514 12.569 159.139 12.569 158.718 12.569C159.092 12.1356 159.046 11.6805 157.922 11.6372C157.922 11.8322 157.922 12.0056 157.922 12.2006C157.641 12.2006 157.406 12.2006 157.125 12.2006C157.406 12.3956 157.641 12.569 157.922 12.764C156.376 12.634 153.238 13.1758 153.519 14.0643C155.158 13.4142 159.42 15.2779 156.095 15.2562C154.55 14.6061 150.569 14.216 153.098 13.1324C145.558 12.6123 155.814 11.2904 153.519 9.4484C156.844 10.2936 160.497 7.58471 155.112 8.51655C155.533 8.14815 155.908 7.77974 156.329 7.41134C156.798 7.71473 157.547 7.82309 158.343 7.77974C158.624 7.2163 153.988 6.54451 152.348 6.11109C152.629 6.65286 151.412 6.86957 150.335 7.04294C151.131 7.28131 151.927 7.54137 152.723 7.77974C147.478 7.25964 152.676 9.86015 150.335 10.3586C150.522 9.42673 146.682 9.42673 145.932 9.99017C146.401 9.4484 147.244 8.73326 147.15 8.32152C146.635 8.45154 146.073 8.55989 145.558 8.68992C145.604 7.8881 146.494 7.25964 147.946 6.8479C148.321 7.28131 148.883 7.69306 149.96 7.58471C150.147 6.34947 148.508 5.67767 145.979 6.00273ZM258.473 6.28446C258.613 6.34947 258.754 6.41448 258.894 6.47949C258.613 6.34947 258.379 6.24111 258.098 6.11109C258.192 6.15443 258.332 6.21944 258.473 6.28446ZM230.56 6.65286C230.7 6.89124 230.841 7.15129 230.981 7.38967C230.56 7.38967 230.185 7.38967 229.764 7.38967C230.045 7.12962 230.279 6.89124 230.56 6.65286ZM144.012 7.19463C144.153 7.32466 144.293 7.43301 144.434 7.56304C144.246 7.45468 144.153 7.32466 144.012 7.19463ZM142.795 7.56304C142.935 7.69306 143.076 7.80141 143.216 7.93144C143.076 7.82309 142.935 7.69306 142.795 7.56304ZM147.009 7.84476C146.963 7.93144 146.869 8.03979 146.822 8.12648C147.337 7.99645 147.899 7.8881 148.414 7.75807C147.993 7.69306 147.618 7.62805 147.197 7.56304C147.103 7.64972 147.056 7.75807 147.009 7.84476ZM320.292 8.03979C318.466 9.14501 313.689 9.88182 312.331 11.0954C311.909 11.0304 311.535 10.9654 311.113 10.9003C310.738 11.4421 310.692 12.8941 309.521 12.7424C309.521 12.439 309.521 12.1356 309.521 11.8105C307.928 11.7672 304.229 12.6123 305.54 13.6525C304.463 13.6525 303.432 13.6525 302.355 13.6525C302.683 14.216 303.526 15.0828 301.934 15.1262C302.355 15.5596 302.73 15.993 303.151 16.4264C302.355 16.4914 301.559 16.5564 300.763 16.6215C301.746 16.3397 301.372 15.6679 301.184 15.1478C300.482 15.6029 299.452 15.7329 298.374 15.5162C299.264 15.8413 299.733 16.2964 299.592 16.8165C298.609 16.7731 297.719 16.5564 298 16.0797C297.063 16.3614 295.845 16.7731 295.19 16.2747C293.785 18.3985 292.427 17.8784 288.399 18.9402C283.997 20.1321 286.807 22.6676 280.437 21.8008C280.859 22.646 276.972 22.7326 277.253 23.6428C276.129 23.2311 272.944 24.488 274.068 25.1164C268.448 25.3115 268.916 29.4506 262.922 28.9955C263.156 29.4506 261.47 29.6673 260.533 29.9274C260.674 30.0574 260.814 30.1657 260.955 30.2958C260.44 30.2958 259.878 30.2958 259.362 30.2958C259.643 30.5341 259.878 30.7942 260.159 31.0326C252.618 30.8159 255.569 35.6918 252.197 33.8064C252.525 34.2182 252.618 34.6733 251.775 34.9117C252.056 35.0417 252.291 35.15 252.572 35.2801C251.916 35.3451 251.26 35.4101 250.558 35.4751C250.698 35.7135 250.839 35.9735 250.979 36.2119C249.621 35.7568 247.279 35.9302 245.406 36.0169C246.062 36.3853 246.717 36.7537 247.42 37.1221C246.905 37.2521 246.343 37.3605 245.828 37.4905C242.409 35.8002 241.004 39.2892 247.045 38.4223C247.326 38.8991 244.891 39.2458 243.861 39.5275C243.767 39.0291 242.877 38.8991 241.847 38.9641C242.081 38.4873 241.238 38.2706 240.254 38.2273C240.254 38.4657 240.254 38.7257 240.254 38.9641C239.833 38.8341 239.458 38.7257 239.037 38.5957C238.896 39.0941 238.615 39.6576 237.444 39.5275C237.444 39.7659 237.444 40.026 237.444 40.2644C237.725 40.2644 237.96 40.2644 238.241 40.2644C236.789 41.2395 231.216 40.7628 233.042 43.0382C234.166 42.4314 235.758 41.738 237.023 42.4748C235.103 44.1868 230.138 42.8432 227.047 43.775C226.673 44.8369 223.02 45.8771 226.626 47.2857C224.659 47.5241 224.284 46.6139 224.237 45.8121C219.882 46.6356 216.791 49.3878 211.874 50.6014C212.389 50.7314 212.951 50.8397 213.466 50.9698C210.937 50.8614 206.535 52.5301 206.3 53.5486C206.816 53.4836 207.378 53.4186 207.893 53.3535C204.099 54.5238 210 56.3875 206.675 55.9324C206.956 56.1274 207.19 56.3008 207.471 56.4958C206.347 56.3875 204.006 56.4742 204.287 55.9324C204.942 55.9974 205.598 56.0624 206.3 56.1274C206.628 55.5856 205.364 55.4556 204.287 55.3906C204.427 55.1522 204.568 54.8922 204.708 54.6538C202.788 54.3938 200.915 54.5671 200.727 55.5856C199.65 55.3906 198.62 55.2172 197.543 55.0222C199.51 55.0439 200.915 54.3504 201.945 53.5486C200.353 53.5486 198.76 53.5486 197.168 53.5486C197.543 54.7622 195.435 55.2606 196.372 56.4958C196.887 56.4308 197.449 56.3658 197.964 56.3008C197.824 57.0809 200.306 57.9694 201.945 57.9694C201.804 57.536 201.664 57.1026 201.523 56.6692C205.551 57.666 215.339 56.1708 216.276 54.2637C216.697 54.3287 217.072 54.3938 217.493 54.4588C217.493 54.2204 217.493 53.9603 217.493 53.722C219.601 54.0687 220.912 52.4867 222.692 52.6167C222.832 51.4248 230.279 50.5363 231.45 49.1927C233.089 48.0009 238.522 47.4591 237.819 45.7688C238.475 46.3539 241.238 45.8554 240.208 45.2053C239.786 45.3353 239.411 45.4437 238.99 45.5737C239.13 45.2703 239.271 44.9669 239.411 44.6419C243.673 45.7688 244.282 43.1032 247.373 42.7132C249.246 41.998 254.866 40.8061 253.742 39.2892C255.756 39.8743 258.145 37.6639 260.112 37.9889C260.112 37.7505 260.112 37.4905 260.112 37.2521C263.203 36.3203 271.445 34.3482 270.087 32.2678C270.743 32.2678 271.399 32.2678 272.101 32.2678C271.82 31.531 275.426 29.6673 277.3 30.2308C277.3 29.8623 277.3 29.4939 277.3 29.1255C277.721 29.1255 278.096 29.1255 278.517 29.1255C278.377 29.3206 278.236 29.4939 278.096 29.689C281.515 28.3671 288.259 26.6117 290.46 24.7047C293.41 24.878 295.892 22.2559 296.454 21.5624C296.454 21.7574 296.454 21.9308 296.454 22.1259C297.766 21.8658 299.264 21.7141 300.06 22.3209C297.625 22.6026 292.895 24.1629 294.066 25.6365C290.834 25.8099 286.338 30.5558 287.275 31.9211C286.994 31.9211 286.76 31.9211 286.479 31.9211C286.619 32.2895 286.76 32.6579 286.9 33.0263C285.449 32.7662 285.683 33.8931 284.512 33.7631C284.278 34.1532 285.355 34.2399 286.104 34.3265C282.451 34.3265 281.936 37.3605 282.123 38.7474C275.801 43.1032 271.773 50.7747 270.977 56.2791C270.696 56.2791 270.462 56.2791 270.181 56.2791C270.368 56.8209 270.79 57.471 269.759 57.7527C270.462 57.9694 270.556 58.3378 270.181 58.6846C271.82 59.118 273.412 59.7465 274.958 60.3532C274.724 59.5731 275.145 58.8146 276.972 58.6846C276.831 58.923 276.691 59.183 276.55 59.4214C277.487 59.4214 278.751 59.4864 278.939 59.053C278.751 59.5731 279.22 60.0282 280.156 60.3532C281.655 58.8146 286.245 58.8146 289.148 57.6661C292.286 57.1243 287.931 55.9757 289.757 55.0005C290.225 55.564 291.677 55.5856 292.942 55.564C290.834 54.6321 295.283 53.3102 294.159 55.0005C296.688 55.1956 298.234 54.5021 298.562 53.3319C299.733 54.2854 301.7 53.0068 301.746 52.2267C300.857 52.3134 300.295 52.075 300.154 51.6632C301.887 51.3815 302.168 49.6478 304.931 50.558C305.212 50.2546 305.446 49.9512 305.727 49.6262C306.523 49.8645 307.32 50.1246 308.116 50.363C307.039 47.9142 317.248 48.1525 313.314 45.9421C313.736 46.0071 314.11 46.0721 314.532 46.1372C314.672 45.8338 314.813 45.5304 314.953 45.2053C316.312 45.8121 320.292 45.0319 319.73 44.1001C319.449 44.2951 319.215 44.4685 318.934 44.6635C318.513 44.5335 318.138 44.4252 317.717 44.2951C318.606 43.7534 319.871 43.45 321.323 43.5583C321.323 43.3199 321.323 43.0599 321.323 42.8215C322.119 42.9515 322.915 43.0599 323.711 43.1899C323.571 42.8215 323.43 42.4531 323.29 42.0847C324.835 42.0197 327.411 42.0197 326.896 41.1529C326.521 41.1529 326.1 41.1529 325.678 41.1529C333.078 39.2242 340.243 35.1717 347.596 32.9396C353.45 30.2524 363.941 28.5621 367.547 25.2898C368.062 25.4198 368.624 25.5282 369.139 25.6582C369.139 25.4198 369.139 25.1598 369.139 24.9214C369.795 24.9214 370.451 24.9214 371.153 24.9214C371.013 24.683 370.872 24.423 370.732 24.1846C371.153 24.1846 371.528 24.1846 371.949 24.1846C371.949 24.0112 371.949 23.8162 371.949 23.6211C374.713 24.8997 378.553 21.8225 381.503 21.9525C380.988 20.6956 384.173 19.612 386.702 20.2838C386.749 19.222 391.011 18.6368 392.884 18.2468C394.991 17.8784 396.865 16.6431 399.487 16.9465C399.487 16.7081 399.487 16.4481 399.487 16.2097C400.846 16.4914 403.281 16.253 403.468 15.4729C406.466 17.4016 397.427 20.2838 397.099 22.2992C392.697 25.8532 386.561 30.9025 383.517 34.8466C381.082 36.732 376.164 39.1375 376.352 41.673C376.071 41.6079 375.837 41.5429 375.556 41.4779C374.478 43.1249 373.542 44.7285 372.371 46.2672C371.949 46.2672 371.575 46.2672 371.153 46.2672C370.544 48.4343 366.938 53.1585 369.936 55.3039C367.547 56.1274 370.685 57.0376 372.746 57.146C372.465 56.9509 372.23 56.7775 371.949 56.5825C374.385 56.1924 375.228 58.0995 377.335 56.9509C381.503 56.2141 383.658 56.4958 381.925 54.177C382.206 54.3721 382.44 54.5454 382.721 54.7405C382.955 54.2421 384.267 54.5888 385.11 54.7405C383.751 52.4 391.292 52.3567 392.509 50.688C393.446 49.8429 396.912 49.9296 398.082 49.0194C398.925 49.1494 403.609 46.1155 404.686 46.809C404.826 46.4405 404.967 46.0721 405.107 45.7037C405.388 45.8338 405.623 45.9421 405.904 46.0721C406.7 45.6387 407.777 45.227 408.714 45.7037C408.714 45.5087 408.714 45.3353 408.714 45.1403C410.025 45.0103 413.256 43.4716 413.912 42.9299C417.19 42.6915 420.75 39.1808 425.058 39.7876C424.918 39.5492 424.777 39.2892 424.637 39.0508C425.293 39.1158 425.948 39.1808 426.651 39.2458C426.651 39.1158 426.651 39.0074 426.651 38.8774C428.384 39.2458 428.899 36.7753 430.632 37.4038C430.351 37.5988 430.116 37.7722 429.835 37.9672C430.35 38.0973 430.913 38.2056 431.428 38.3356C431.615 37.5122 434.8 37.2088 433.816 35.9302C434.706 36.0169 435.268 35.7785 435.409 35.3667C439.249 37.4471 437.891 30.8809 441.778 33.6981C442.199 33.3947 442.574 33.0913 442.995 32.7662C443.136 32.9613 443.276 33.1346 443.417 33.3297C443.698 33.0913 443.932 32.8313 444.213 32.5929C444.494 32.6579 444.728 32.7229 445.009 32.7879C444.354 32.3762 443.417 32.2028 442.621 32.5929C442.808 31.5527 447.257 31.7911 448.194 31.1193C448.475 31.3143 448.709 31.4877 448.99 31.6827C450.957 27.4786 472.032 23.5778 480.087 21.3457C477.371 20.5439 489.548 17.3799 491.234 18.2034C491.843 17.2282 493.856 16.7948 496.011 16.5348C493.575 22.2992 477.793 27.6953 473.297 32.9613C468.941 33.5897 466.74 37.1221 466.131 38.8774C462.103 37.9022 464.351 40.091 461.541 40.6328C458.872 41.8247 454.704 43.4933 457.373 45.3353C454.985 45.1403 452.409 45.8771 455.781 46.6356C454.891 47.2424 453.018 46.3972 451.8 47.004C452.737 47.264 453.627 47.6324 453.018 48.1092C453.299 48.0442 453.533 47.9792 453.814 47.9142C453.814 48.1092 453.814 48.2826 453.814 48.4776C452.924 48.3909 452.362 48.6293 452.222 49.0411C451.566 48.846 450.91 48.6726 450.208 48.4776C447.679 49.7345 450.817 50.688 450.629 52.1617C446.742 51.3815 443.183 53.1802 448.241 53.2669C448.007 55.4556 447.632 54.5454 444.635 54.5671C444.916 54.3287 445.15 54.0687 445.431 53.8303C443.23 53.7653 443.511 54.8705 443.839 55.6723C443.557 55.6073 443.323 55.5423 443.042 55.4773C442.949 55.9324 442.48 56.3441 441.45 56.2141C443.979 57.406 437.797 57.7961 438.265 58.988C438.78 58.988 439.342 58.988 439.858 58.988C439.202 59.5514 439.061 60.1365 439.858 60.6566C438.078 60.2666 436.345 63.4738 438.265 63.2355C438.125 62.9971 437.984 62.737 437.844 62.4986C438.125 62.4986 438.359 62.4986 438.64 62.4986C438.64 62.6937 438.64 62.8671 438.64 63.0621C439.155 63.0621 439.717 63.0621 440.232 63.0621C437.329 64.0156 444.494 65.5542 440.232 66.3777C441.731 66.7895 443.979 65.9443 443.042 65.2725C451.191 64.8391 452.596 60.8517 457.42 58.5329C462.291 56.2358 463.134 53.3102 465.382 50.8831C465.382 51.1215 465.382 51.3815 465.382 51.6199C469.175 51.5332 467.255 48.9977 470.58 49.0411C470.299 48.8027 470.065 48.5426 469.784 48.3042C472.313 47.8492 474.374 45.8988 475.357 44.9886C474.936 45.0536 474.561 45.1186 474.14 45.1836C473.765 44.8369 473.812 44.4902 474.561 44.2518C474.14 44.2518 473.765 44.2518 473.343 44.2518C473.343 44.1218 473.343 44.0134 473.343 43.8834C476.153 44.2301 479.713 43.1466 476.95 42.0414C477.465 41.9113 478.027 41.803 478.542 41.673C478.401 41.9113 478.261 42.1714 478.12 42.4098C482.616 40.9578 485.145 37.2304 488.471 35.215C490.25 33.0696 496.385 31.3143 495.636 28.7571C496.151 28.8221 496.713 28.8872 497.228 28.9522C499.336 26.6334 502.193 21.7358 504.394 19.352C506.829 18.5718 503.832 15.2779 505.986 14.1943C505.565 14.3243 505.19 14.4327 504.769 14.5627C505.705 13.0674 499.289 13.7176 499.57 12.7207C498.68 12.6774 497.884 12.8291 497.182 13.0891C497.463 13.2841 497.697 13.4575 497.978 13.6525C496.245 14.411 495.261 13.0241 495.964 12.3523C494.137 12.2006 492.217 12.7424 493.154 13.6525C491.281 13.1541 492.311 11.9189 488.564 13.0024C486.363 13.9993 482.476 13.6525 483.178 14.9311C480.93 14.346 479.666 16.1014 477.605 15.863C477.793 16.2747 477.277 16.5348 476.388 16.5998C476.669 16.6648 476.903 16.7298 477.184 16.7948C476.903 17.0332 476.669 17.2933 476.388 17.5316C474.186 15.7113 471.47 18.6802 468.192 18.8319C465.991 20.2405 461.401 20.0021 460.792 21.7791C459.293 21.259 458.685 22.841 457.186 22.3426C457.186 22.5376 457.186 22.711 457.186 22.906C455.406 22.1475 453.065 23.4911 453.205 24.3796C452.69 24.1846 452.128 24.0112 451.613 23.8162C451.098 25.1164 445.759 24.813 448.007 26.59C441.731 26.4167 439.296 28.8005 434.659 30.1007C431.849 31.4443 428.758 31.1843 427.681 33.4164C427.26 33.2213 426.885 33.048 426.463 32.8529C426.182 33.048 425.948 33.2213 425.667 33.4164C426.089 33.4814 426.463 33.5464 426.885 33.6114C418.549 35.0634 412.086 38.7691 405.154 41.0878C398.832 42.4314 391.432 45.2703 386.608 47.264C386.749 47.069 386.889 46.8956 387.03 46.7006C384.829 46.5056 381.644 46.874 379.864 46.3322C379.255 45.3137 382.721 44.9236 381.082 43.9267C383.283 44.3385 382.815 42.1931 384.688 42.4531C384.688 42.6915 384.688 42.9515 384.688 43.1899C385.11 43.1249 385.484 43.0599 385.906 42.9949C384.875 42.4098 384.641 41.6946 385.11 40.9578C385.765 41.0228 386.421 41.0878 387.123 41.1529C387.123 41.0228 387.123 40.9145 387.123 40.7845C387.545 40.7845 387.92 40.7845 388.341 40.7845C386.561 39.9176 390.589 39.4625 389.933 38.574C389.325 38.9424 388.435 39.2025 387.545 38.9424C388.388 38.574 388.06 38.1406 387.123 37.8372C388.482 37.8156 388.903 37.3171 388.716 36.732C390.027 37.0354 391.151 35.5618 392.322 35.9952C392.041 36.2336 391.807 36.4936 391.526 36.732C392.556 36.537 393.165 36.3636 392.743 35.6268C392.181 34.5649 395.132 34.5433 393.961 33.4164C394.523 33.8498 395.507 33.6547 396.35 33.4164C395.928 33.048 395.553 32.6796 395.132 32.3112C401.876 32.6796 394.804 27.4135 400.705 28.4321C400.705 28.237 400.705 28.0637 400.705 27.8686C402.719 27.7386 403.702 25.9616 404.873 25.3765C405.997 25.1598 403.609 22.9493 406.278 23.6211C406.138 23.7512 405.997 23.8595 405.857 23.9895C409.884 23.3177 411.43 20.6956 412.835 19.0052C413.818 18.1384 416.347 18.9186 415.645 17.5316C416.113 16.3614 418.221 15.4296 418.221 14.216C415.504 14.8011 415.411 13.2841 417.799 13.2841C417.799 13.5225 417.799 13.7826 417.799 14.021C418.314 13.9559 418.876 13.8909 419.392 13.8259C419.251 13.5875 419.111 13.3275 418.97 13.0891C420.516 13.1324 420.141 11.2688 419.392 10.8787C419.813 10.8137 420.188 10.7487 420.609 10.6836C420.609 10.922 420.609 11.1821 420.609 11.4204C421.78 10.8353 420.235 10.1852 421.031 9.38339C420.609 9.57843 420.235 9.75179 419.813 9.94683C419.813 9.34005 419.813 8.71159 419.813 8.10481C418.221 8.23483 416.628 8.34319 415.036 8.47321C415.458 9.40506 415.832 10.3152 416.254 11.2471C413.959 10.922 412.507 10.2936 409.463 10.6836C409.884 9.83848 413.584 10.0985 413.069 8.84162C412.086 8.90663 411.196 9.10167 411.055 9.57843C409.322 8.5599 404.639 8.75493 404.264 10.1419C388.528 11.9189 373.073 18.5935 359.211 22.1475C359.351 22.2775 359.492 22.3859 359.632 22.5159C357.057 23.0144 354.668 23.6211 352.233 24.2713C350.032 24.9431 349.282 26.525 346.472 25.8316C346.8 26.8501 347.362 27.6302 344.271 27.5002C339.588 28.8221 334.108 31.2493 330.127 33.1346C328.582 34.0448 326.896 33.6764 324.929 34.8033C322.962 35.9085 321.604 37.1221 318.56 37.3821C319.73 38.0539 319.73 38.8341 317.342 38.9424C317.201 38.7041 317.061 38.444 316.92 38.2056C315.234 38.2706 313.08 39.0725 314.532 39.8743C312.284 39.7226 312.097 40.9578 310.13 40.8061C315.141 42.6265 303.432 41.4779 304.931 43.58C305.353 43.58 305.727 43.58 306.149 43.58C306.008 44.1001 304.182 44.4468 304.135 45.2487C303.386 45.0753 302.308 44.9019 302.543 44.5118C303.198 44.5118 303.854 44.5118 304.556 44.5118C304.556 44.2735 304.556 44.0134 304.556 43.775C302.449 44.2085 299.779 45.2703 300.154 46.7223C297.204 44.1001 294.581 49.1494 290.975 48.9327C294.206 49.9946 283.763 50.8181 290.975 51.3382C289.055 51.1865 287.509 51.5765 286.994 52.4434C286.713 52.3784 286.479 52.3134 286.198 52.2483C286.479 52.0533 286.713 51.8799 286.994 51.6849C284.652 51.6849 283.997 53.1802 284.98 54.0904C281.421 55.0656 275.005 52.4217 280.999 52.9851C281.14 52.7901 281.28 52.6167 281.421 52.4217C280.25 52.5517 279.594 51.9666 279.032 51.4899C280.953 51.5332 286.292 51.1215 282.639 50.3846C283.154 50.3196 283.716 50.2546 284.231 50.1896C283.575 49.8429 282.779 49.3661 283.809 49.0844C281.936 48.8243 284.371 46.8523 285.027 48.3476C285.308 48.2176 285.542 48.1092 285.823 47.9792C282.545 47.1774 283.95 45.7254 287.416 46.3105C287.509 45.5304 284.605 45.3137 285.823 44.2735C287.088 44.4468 287.743 44.9453 287.837 45.5737C291.115 44.5769 288.493 43.9267 287.041 42.7998C287.322 42.6698 287.556 42.5615 287.837 42.4314C287.837 42.6265 287.837 42.7998 287.837 42.9949C289.242 42.9515 289.055 42.1064 289.055 41.5213C289.991 41.7163 290.928 41.8897 291.865 42.0847C292.52 41.4129 291.865 40.1343 289.851 40.6111C289.991 40.8061 290.132 40.9795 290.272 41.1745C289.851 41.1745 289.476 41.1745 289.055 41.1745C289.289 40.6761 288.352 40.351 287.462 40.0693C288.259 39.6359 289.055 39.2025 289.851 38.7691C289.71 39.3542 290.038 39.896 291.069 40.2427C292.52 39.5709 293.972 38.8991 295.471 38.2056C295.19 38.0756 294.956 37.9672 294.675 37.8372C294.253 38.1406 293.878 38.444 293.457 38.7691C289.148 37.0571 303.151 35.8002 295.049 35.6268C295.611 35.0417 296.642 33.5464 295.049 33.2213C297.157 33.0913 295.892 34.4999 296.829 34.7816C300.903 34.7816 302.73 30.7942 300.997 29.7107C300.576 29.7757 300.201 29.8407 299.779 29.9057C299.779 29.6673 299.779 29.4073 299.779 29.1689C300.622 29.2556 302.027 29.2772 301.793 29.7323C303.105 29.689 303.432 28.8655 303.807 28.2587C303.011 28.3237 302.215 28.3887 301.419 28.4537C301.934 28.2587 302.496 28.0853 303.011 27.8903C302.589 27.8903 302.215 27.8903 301.793 27.8903C301.887 27.3269 303.386 27.1318 304.603 26.9585C301.138 25.6799 306.43 24.813 307.179 24.0112C306.43 22.841 310.645 22.2775 310.551 21.4324C311.488 21.4324 312.424 21.4324 313.361 21.4324C313.361 21.194 313.361 20.934 313.361 20.6956C313.08 20.6956 312.846 20.6956 312.565 20.6956C312.705 19.3086 314.11 18.2251 316.967 17.7483C316.312 17.1849 315.656 16.6431 314.953 16.0797C315.656 15.798 316.358 16.1664 316.967 16.4481C316.171 15.0178 319.684 14.3243 318.56 12.9374C319.215 12.9374 319.871 12.9374 320.573 12.9374C320.48 12.3306 320.527 11.6805 321.791 11.4638C321.51 11.2688 321.276 11.0954 320.995 10.9003C321.651 10.7703 322.306 10.662 323.009 10.5319C321.604 9.77346 324.367 7.95311 320.292 8.03979ZM152.957 8.12648C153.145 8.12648 153.379 8.12648 153.566 8.12648C153.426 8.36486 153.285 8.62491 153.145 8.86329C152.302 8.68992 151.552 8.14815 152.957 8.12648ZM231.356 8.4082C230.419 8.71159 230.981 9.21002 231.356 9.6001C231.028 9.01498 232.667 8.64658 233.745 8.29984C232.902 8.19149 232.152 8.10481 231.356 8.4082ZM250.089 8.12648C250.745 8.42987 251.401 8.73326 252.103 9.05832C250.651 8.68992 249.481 9.40506 248.497 9.99017C249.059 9.36172 249.574 8.73326 250.089 8.12648ZM254.492 8.29984C254.632 8.42987 254.773 8.53822 254.913 8.66825C254.632 8.66825 254.398 8.66825 254.117 8.66825C254.211 8.5599 254.351 8.42987 254.492 8.29984ZM228.171 8.66825C228.452 8.79827 228.687 8.90663 228.968 9.03665C228.687 8.9283 228.452 8.79827 228.171 8.66825ZM147.197 9.14501C147.197 9.23169 147.197 9.34005 147.197 9.42673C147.478 9.42673 147.712 9.42673 147.993 9.42673C147.993 9.23169 147.993 9.05832 147.993 8.86329C147.712 8.86329 147.478 8.86329 147.197 8.86329C147.197 8.94997 147.197 9.03665 147.197 9.14501ZM142.42 9.23169C142.56 9.42673 142.701 9.6001 142.841 9.79513C142.233 9.86015 141.811 9.68678 141.624 9.42673C141.858 9.36172 142.139 9.2967 142.42 9.23169ZM246.53 9.40506C246.811 9.47007 247.045 9.53508 247.326 9.6001C247.045 9.53508 246.764 9.47007 246.53 9.40506ZM250.511 9.40506C250.792 9.47007 251.026 9.53508 251.307 9.6001C251.026 9.53508 250.745 9.47007 250.511 9.40506ZM229.764 9.77346C229.764 9.83848 229.764 9.90349 229.764 9.9685C230.185 9.90349 230.56 9.83848 230.981 9.77346C230.56 9.70845 230.185 9.64344 229.764 9.57843C229.764 9.66511 229.764 9.73012 229.764 9.77346ZM252.899 9.6001C253.18 9.73012 253.415 9.83848 253.696 9.9685C253.274 10.0335 252.899 10.0985 252.478 10.1635C252.618 9.9685 252.759 9.77346 252.899 9.6001ZM226.392 10.2502C227.422 10.3369 227.422 10.5753 227.375 10.9003C226.954 10.9003 226.579 10.9003 226.158 10.9003C226.158 11.1387 226.158 11.3988 226.158 11.6372C224.706 11.7889 224.518 9.9685 226.392 10.2502ZM150.756 11.2688C151.037 11.3338 151.271 11.3988 151.552 11.4638C151.318 11.3771 151.037 11.3121 150.756 11.2688ZM222.598 11.2688C222.739 11.2688 222.879 11.2688 223.02 11.2688C222.411 11.5938 223.207 11.9189 223.816 12.2006C223.02 12.0706 222.224 11.9622 221.427 11.8322C221.708 11.5938 222.083 11.2471 222.598 11.2688ZM144.387 11.8105C144.668 11.8755 144.902 11.9405 145.183 12.0056C144.949 11.9405 144.668 11.8755 144.387 11.8105ZM155.158 12.0056C155.158 12.0706 155.158 12.1356 155.158 12.2006C155.674 12.2006 156.236 12.2006 156.751 12.2006C156.751 12.0706 156.751 11.9622 156.751 11.8322C156.236 11.8322 155.674 11.8322 155.158 11.8322C155.158 11.8755 155.158 11.9405 155.158 12.0056ZM247.701 12.0056C247.841 12.1356 247.982 12.2439 248.122 12.374C247.982 12.2439 247.841 12.1139 247.701 12.0056ZM218.196 12.1789C218.852 12.2439 219.507 12.309 220.21 12.374C219.695 12.504 219.133 12.6123 218.617 12.7424C218.477 12.5473 218.337 12.374 218.196 12.1789ZM221.381 12.374C221.896 12.439 222.458 12.504 222.973 12.569C222.458 12.634 221.896 12.699 221.381 12.764C221.381 12.6123 221.381 12.4823 221.381 12.374ZM417.237 12.7424C417.378 12.8724 417.518 12.9807 417.659 13.1108C417.518 12.9807 417.378 12.8507 417.237 12.7424ZM306.336 12.9157C306.992 12.9807 307.647 13.0458 308.35 13.1108C307.179 13.3058 307.273 13.7826 307.928 14.216C306.992 13.9343 305.961 13.8259 305.118 14.216C306.055 13.8909 306.523 13.4358 306.336 12.9157ZM407.262 12.9157C408.292 13.8042 405.81 15.2779 403.281 15.3212C403.281 15.1262 403.281 14.9528 403.281 14.7578C403.702 14.7578 404.077 14.7578 404.499 14.7578C404.077 14.6277 403.702 14.5194 403.281 14.3894C404.592 13.9126 405.95 13.4142 407.262 12.9157ZM131.227 13.2841C132.538 13.3275 132.491 14.021 132.444 14.5844C131.789 14.5844 131.133 14.5844 130.431 14.5844C130.712 14.151 130.946 13.7176 131.227 13.2841ZM157.547 13.2841C157.828 13.4792 158.062 13.6525 158.343 13.8476C157.828 13.9776 157.266 14.086 156.751 14.216C157.032 13.9126 157.313 13.5875 157.547 13.2841ZM131.648 13.7609C131.789 13.7826 131.929 13.8259 132.07 13.8476C131.789 13.7826 131.555 13.7176 131.274 13.6525C131.367 13.6959 131.508 13.7176 131.648 13.7609ZM247.092 14.3027C247.139 14.4544 247.233 14.6061 247.279 14.7578C247.56 14.5194 247.795 14.2593 248.076 14.021C247.654 13.9559 247.279 13.8909 246.858 13.8259C246.998 13.9993 247.045 14.151 247.092 14.3027ZM134.833 14.216C134.973 14.281 135.114 14.346 135.254 14.411C134.973 14.281 134.739 14.1726 134.458 14.0426C134.552 14.086 134.692 14.151 134.833 14.216ZM244.142 14.021C244.423 14.021 244.657 14.021 244.938 14.021C244.797 14.151 244.657 14.2593 244.516 14.3894C244.376 14.281 244.235 14.151 244.142 14.021ZM507.579 14.5844C507.625 14.7144 507.719 14.8228 507.766 14.9528C508.094 14.6494 508.187 14.3027 507.344 14.216C507.438 14.346 507.532 14.4544 507.579 14.5844ZM123.078 14.7578C123.125 14.8228 123.218 14.8878 123.265 14.9528C123.125 14.8228 122.984 14.7144 122.844 14.5844C122.937 14.6494 122.984 14.7144 123.078 14.7578ZM242.924 14.5844C243.814 14.4977 244.376 14.7361 244.516 15.1478C244.001 15.2128 243.439 15.2779 242.924 15.3429C242.924 15.0828 242.924 14.8228 242.924 14.5844ZM304.744 14.5844C305.165 14.5844 305.54 14.5844 305.961 14.5844C305.821 14.8878 305.493 15.2345 304.744 15.1478C304.744 14.9528 304.744 14.7578 304.744 14.5844ZM128.838 14.7578C129.26 14.8878 129.634 14.9961 130.056 15.1262C129.634 15.1262 129.26 15.1262 128.838 15.1262C128.838 15.0178 128.838 14.8878 128.838 14.7578ZM138.205 15.1262C138.252 15.2562 138.345 15.3645 138.392 15.4946C138.673 15.2995 138.907 15.1262 139.188 14.9311C138.767 14.8661 138.392 14.8011 137.971 14.7361C138.064 14.8878 138.158 15.0178 138.205 15.1262ZM149.96 14.7578C150.241 14.7578 150.475 14.7578 150.756 14.7578C150.756 14.9528 150.756 15.1262 150.756 15.3212C150.475 15.3212 150.241 15.3212 149.96 15.3212C149.96 15.1262 149.96 14.9528 149.96 14.7578ZM144.808 14.9528C145.23 14.9528 145.604 14.9528 146.026 14.9528C145.745 15.1912 145.511 15.4512 145.23 15.6896C145.043 15.4512 144.949 15.1912 144.808 14.9528ZM414.427 14.9528C414.708 15.0178 414.942 15.0828 415.223 15.1478C414.989 15.0828 414.708 15.0178 414.427 14.9528ZM134.833 15.4079C134.833 15.4946 134.833 15.6029 134.833 15.6896C134.411 15.6246 134.037 15.5596 133.615 15.4946C133.475 15.7329 133.334 15.993 133.194 16.2314C133.99 16.2314 134.786 16.2314 135.582 16.2314C135.582 15.798 135.723 15.2128 134.786 15.1262C134.833 15.2345 134.833 15.3212 134.833 15.4079ZM210.234 15.1262C210.094 15.2562 209.953 15.3645 209.813 15.4946C209.953 15.3862 210.094 15.2562 210.234 15.1262ZM505.986 15.4079C505.939 15.4946 505.846 15.6029 505.799 15.6896C506.08 15.6896 506.314 15.6896 506.595 15.6896C506.454 15.4946 506.314 15.3212 506.174 15.1262C506.127 15.2345 506.033 15.3212 505.986 15.4079ZM313.127 15.3212C313.736 15.6463 312.986 15.8846 312.331 16.058C312.612 15.8196 312.846 15.5596 313.127 15.3212ZM153.379 16.058C153.332 16.253 153.238 16.4264 153.191 16.6215C153.472 16.6215 153.707 16.6215 153.988 16.6215C153.847 16.253 153.707 15.8846 153.566 15.5162C153.519 15.6896 153.426 15.8846 153.379 16.058ZM404.077 15.4946C404.358 15.6246 404.592 15.7329 404.873 15.863C404.592 15.7546 404.358 15.6246 404.077 15.4946ZM500.226 15.4946C500.507 15.5596 500.741 15.6246 501.022 15.6896C500.741 15.6246 500.46 15.5596 500.226 15.4946ZM122.047 15.6896C122.844 15.7763 122.75 16.123 122.469 16.4264C122.328 16.188 122.188 15.928 122.047 15.6896ZM144.808 16.058C144.949 16.058 145.089 16.058 145.23 16.058C144.106 16.5998 145.277 17.5316 143.216 17.7267C143.497 17.965 143.731 18.2251 144.012 18.4635C143.731 18.5285 143.497 18.5935 143.216 18.6585C142.935 18.4201 142.701 18.1601 142.42 17.9217C143.497 17.8134 142.935 17.0982 142.841 16.6215C143.263 16.6865 143.638 16.7515 144.059 16.8165C144.153 16.5348 144.293 16.058 144.808 16.058ZM211.031 16.058C211.452 16.058 211.827 16.058 212.248 16.058C212.248 16.2964 212.248 16.5564 212.248 16.7948C211.312 16.7298 210.843 16.4698 211.031 16.058ZM136.238 16.6215C136.285 16.6865 136.378 16.7515 136.425 16.8165C136.285 16.6865 136.144 16.5781 136.004 16.4481C136.097 16.4914 136.144 16.5564 136.238 16.6215ZM131.414 16.7081C130.618 16.8598 130.852 17.77 130.805 18.2684C131.227 18.2684 131.601 18.2684 132.023 18.2684C131.836 17.5966 133.756 17.4233 133.241 16.5998C132.632 16.5998 132.023 16.5998 131.414 16.7081ZM119.284 16.9899C119.706 17.1199 120.08 17.2282 120.502 17.3583C119.846 17.5966 119.191 17.8567 118.488 18.0951C118.722 17.7267 119.003 17.3583 119.284 16.9899ZM134.833 17.5316C134.692 17.6617 134.552 17.77 134.411 17.9C134.927 17.705 135.489 17.5316 136.004 17.3366C135.723 17.2716 135.489 17.2066 135.208 17.1416C135.067 17.2932 134.973 17.4016 134.833 17.5316ZM117.27 17.3583C117.551 17.4883 117.786 17.5966 118.067 17.7267C117.786 17.5966 117.551 17.4666 117.27 17.3583ZM121.673 17.3583C121.954 17.7267 122.188 18.0951 122.469 18.4635C122.047 18.5285 121.673 18.5935 121.251 18.6585C121.017 18.1601 120.736 17.6183 121.673 17.3583ZM114.086 17.9C114.226 18.0301 114.367 18.1384 114.507 18.2684C114.367 18.1601 114.226 18.0301 114.086 17.9ZM296.361 17.9C296.642 18.1384 296.876 18.3985 297.157 18.6368C296.876 18.6368 296.642 18.6368 296.361 18.6368C296.361 18.3985 296.361 18.1601 296.361 17.9ZM235.337 18.0951C235.618 18.1601 235.852 18.2251 236.133 18.2901C235.852 18.2034 235.618 18.1601 235.337 18.0951ZM148.789 18.7452C148.742 19.287 150.194 19.417 151.178 19.5687C150.616 18.9186 148.742 19.1136 148.789 18.2684C148.789 18.4201 148.789 18.5718 148.789 18.7452ZM234.541 18.6368C234.962 18.7019 235.337 18.7669 235.758 18.8319C235.243 18.9619 234.681 19.0703 234.166 19.2003C234.26 19.0052 234.4 18.8319 234.541 18.6368ZM310.317 19.2003C310.738 19.2003 311.113 19.2003 311.535 19.2003C311.394 19.5037 311.066 19.8504 310.317 19.7637C310.317 19.5687 310.317 19.3737 310.317 19.2003ZM141.998 19.5687C145.324 20.4789 141.062 20.5872 140.593 21.4107C137.502 23.4911 140.312 20.3055 138.814 19.9371C140.078 19.8287 141.155 20.2188 141.998 20.6739C141.998 20.3055 141.998 19.9371 141.998 19.5687ZM144.012 19.5687C144.293 19.6337 144.527 19.6987 144.808 19.7637C144.527 19.6987 144.246 19.6337 144.012 19.5687ZM197.027 19.7421C197.543 19.9804 198.105 20.2405 198.62 20.4789C198.105 20.2405 197.589 20.0021 197.027 19.7421ZM204.24 19.7421C204.521 19.7421 204.755 19.7421 205.036 19.7421C204.895 19.9371 204.755 20.1105 204.614 20.3055C204.474 20.1105 204.38 19.9371 204.24 19.7421ZM310.317 19.9371C310.738 20.1321 311.113 20.3055 311.535 20.5005C311.113 20.3055 310.738 20.1105 310.317 19.9371ZM236.133 20.1105C236.414 20.1755 236.648 20.2405 236.929 20.3055C236.695 20.2405 236.414 20.1755 236.133 20.1105ZM150.756 20.4789C150.756 20.5439 150.756 20.6089 150.756 20.6739C151.271 20.6739 151.833 20.6739 152.348 20.6739C151.833 20.5439 151.271 20.4355 150.756 20.3055C150.756 20.3705 150.756 20.4355 150.756 20.4789ZM201.055 20.3055C201.477 20.4355 201.851 20.5439 202.273 20.6739C201.851 20.5439 201.43 20.4355 201.055 20.3055ZM289.991 20.3055C290.272 20.4355 290.507 20.5439 290.788 20.6739C290.366 20.8039 289.991 20.9123 289.57 21.0423C289.71 20.8039 289.851 20.5439 289.991 20.3055ZM123.874 20.8473C123.827 20.9123 123.733 20.9773 123.687 21.0423C124.342 21.0423 124.998 21.0423 125.7 21.0423C125.185 20.9123 124.623 20.8039 124.108 20.6739C123.968 20.7389 123.921 20.8039 123.874 20.8473ZM108.513 21.4107C109.028 21.4757 109.59 21.5407 110.105 21.6057C109.449 21.7358 108.7 21.7791 108.513 21.4107ZM150.99 21.6057C151.037 21.6708 151.131 21.7358 151.178 21.8008C151.037 21.6708 150.897 21.5624 150.756 21.4324C150.85 21.4757 150.897 21.5407 150.99 21.6057ZM114.882 21.6057C115.022 21.8008 115.163 21.9742 115.303 22.1692C115.022 22.1042 114.788 22.0392 114.507 21.9742C114.601 21.8441 114.741 21.7141 114.882 21.6057ZM146.588 22.1475C146.354 22.5159 146.682 22.6026 147.197 22.711C147.431 22.3426 147.712 21.8875 146.775 21.7791C146.729 21.9091 146.635 22.0175 146.588 22.1475ZM107.716 22.0608C108.653 22.1475 108.513 22.6893 108.513 23.0794C109.402 22.841 110.526 22.4076 111.323 22.711C110.901 23.0794 110.526 23.4478 110.105 23.8162C110.62 23.6862 111.182 23.5778 111.697 23.4478C111.697 23.7512 111.697 24.0546 111.697 24.3796C110.901 24.3146 110.105 24.2496 109.309 24.1846C109.309 24.3796 109.309 24.553 109.309 24.748C108.513 24.748 107.716 24.748 106.92 24.748C109.496 23.8162 108.887 23.2744 105.703 23.4478C106.124 22.9927 106.639 21.9308 107.716 22.0608ZM109.309 21.9742C109.73 21.9742 110.105 21.9742 110.526 21.9742C110.526 22.1042 110.526 22.2125 110.526 22.3426C110.105 22.3426 109.73 22.3426 109.309 22.3426C109.309 22.2125 109.309 22.0825 109.309 21.9742ZM283.622 21.9742C283.763 22.2775 283.903 22.5809 284.044 22.906C283.856 22.5809 283.763 22.2775 283.622 21.9742ZM286.011 22.1475C286.432 22.2125 286.807 22.2775 287.228 22.3426C286.807 22.2775 286.385 22.2125 286.011 22.1475ZM137.034 22.5159C137.081 22.5809 137.175 22.646 137.221 22.711C137.081 22.5809 136.94 22.4726 136.8 22.3426C136.894 22.3859 136.94 22.4509 137.034 22.5159ZM237.538 22.4292C237.725 22.4509 237.96 22.4943 238.147 22.5159C237.725 22.4509 237.351 22.3859 236.929 22.3209C237.117 22.3642 237.351 22.3859 237.538 22.4292ZM281.608 22.3426C281.749 22.4726 281.889 22.5809 282.03 22.711C281.889 22.5809 281.749 22.4509 281.608 22.3426ZM133.428 23.1661C132.257 23.7078 131.274 26.265 130.852 27.0451C128.698 27.3052 127.012 27.3702 128.042 28.8005C127.761 28.8005 127.527 28.8005 127.246 28.8005C127.246 29.1039 127.246 29.4073 127.246 29.7323C124.717 29.5373 124.295 31.0326 124.061 31.9427C124.483 31.8777 124.857 31.8127 125.279 31.7477C125.419 32.4412 120.689 34.3916 122.094 35.2584C120.455 35.0634 120.221 35.8868 120.08 36.5586C120.877 36.5586 121.673 36.5586 122.469 36.5586C122.469 36.6887 122.469 36.797 122.469 36.927C120.97 36.602 120.08 37.8156 118.067 37.2954C117.879 38.2056 117.13 39.2242 116.662 40.0693C115.631 40.4594 118.629 42.6265 115.257 41.5429C114.507 42.0414 114.46 42.6265 114.835 43.2116C112.915 43.0816 111.182 43.4933 112.025 44.5118C111.463 45.7037 107.997 46.3105 109.637 48.0225C109.121 48.0225 108.559 48.0225 108.044 48.0225C107.857 48.8243 108.232 49.5828 109.637 50.0596C108.747 50.3196 107.857 50.0596 107.248 49.6912C105.468 50.9481 102.752 52.5084 103.267 53.7436C104.204 53.4402 105.141 53.1368 106.077 52.8118C105.141 53.3752 104.204 53.917 103.267 54.4804C104.017 54.8055 104.906 54.8055 105.656 54.4804C105.796 54.6755 105.937 54.8488 106.077 55.0439C102.143 54.3287 99.5206 56.3658 104.063 56.8859C103.782 57.0809 103.548 57.2543 103.267 57.4493C100.691 56.0191 100.785 58.1211 100.879 59.118C96.9448 59.0313 100.083 61.1767 99.6611 61.8919C100.176 61.9569 100.738 62.0219 101.253 62.0869C100.598 62.0869 99.9421 62.0869 99.2396 62.0869C99.2396 62.2819 99.2396 62.4553 99.2396 62.6503C98.8181 62.6503 98.4434 62.6503 98.0219 62.6503C99.1459 64.1673 102.237 68.2848 107.201 66.7028C106.92 67.1796 108.653 67.1579 109.59 67.2662C109.356 66.7895 110.199 66.5728 111.182 66.5294C110.901 66.3344 110.667 66.161 110.386 65.966C111.323 65.836 112.259 65.7276 113.196 65.5976C113.055 65.4025 112.915 65.2292 112.774 65.0341C113.992 65.0341 115.163 65.0341 116.381 65.0341C116.381 64.9041 116.381 64.7958 116.381 64.6657C116.896 64.7958 117.458 64.9041 117.973 65.0341C117.973 64.6007 117.973 64.1673 117.973 63.7339C118.629 63.7339 119.284 63.7339 119.987 63.7339C119.987 63.5389 119.987 63.3655 119.987 63.1704C120.783 63.3005 121.579 63.4088 122.375 63.5389C123.312 62.3036 128.183 61.5451 127.152 60.0282C128.229 60.0282 129.26 60.0282 130.337 60.0282C130.196 59.8331 130.056 59.6598 129.915 59.4647C130.337 59.4647 130.712 59.4647 131.133 59.4647C130.852 58.9663 127.34 58.0778 130.712 57.7961C130.712 57.9261 130.712 58.0345 130.712 58.1645C135.816 57.6877 131.882 57.211 129.494 56.6909C130.946 56.6475 132.304 56.4308 132.679 55.759C133.1 55.9541 133.475 56.1274 133.896 56.3225C132.96 55.0655 137.315 54.7405 138.673 55.3906C138.392 55.1956 138.158 55.0222 137.877 54.8272C138.814 54.5888 139.75 54.3287 140.687 54.0904C140.031 53.852 139.376 53.5919 138.673 53.3535C139.844 53.0068 139.75 52.4217 139.095 51.8799C141.202 51.9666 140.406 53.6353 142.279 53.722C141.015 52.7034 142.701 52.0533 142.701 51.1431C144.34 53.3752 145.839 50.9264 148.087 50.493C149.726 50.3846 147.993 48.8677 149.866 48.9327C149.726 49.1277 149.585 49.3011 149.445 49.4961C150.756 49.6262 152.114 48.9977 151.833 48.3909C150.241 48.4776 148.789 48.2392 147.852 47.6541C148.602 47.4807 149.351 47.5024 149.866 47.8492C149.585 47.4808 149.351 47.1123 149.07 46.7439C149.585 46.7439 150.147 46.7439 150.662 46.7439C150.241 46.1805 149.866 45.6387 149.445 45.0753C151.224 44.9453 151.693 46.5489 153.847 46.3755C153.707 46.1805 153.566 46.0071 153.426 45.8121C155.767 46.0288 155.955 44.7936 155.814 43.9701C156.329 44.0351 156.891 44.1001 157.406 44.1651C156.985 44.6419 157.172 45.0753 158.203 45.2703C158.858 44.9019 159.092 44.4468 158.999 43.9701C158.484 43.9701 157.922 43.9701 157.406 43.9701C157.922 43.84 158.484 43.7317 158.999 43.6017C157.032 41.6296 164.197 43.71 162.98 40.6544C162.183 41.7163 157.828 43.2766 156.61 41.7596C156.47 42.3664 156.329 42.9949 156.189 43.6017C155.252 43.3416 154.409 43.6017 153.8 43.9701C153.519 43.84 153.285 43.7317 153.004 43.6017C154.034 43.2983 153.753 42.4098 153.8 41.7596C152.067 41.8463 151.412 43.4933 149.398 43.4283C150.288 44.1001 148.555 44.9019 147.009 44.7285C148.04 45.5304 145.183 45.7688 146.213 46.5706C138.486 46.2455 141.343 51.5982 136.238 51.9233C136.659 51.8583 137.034 51.7933 137.456 51.7282C132.163 51.4682 124.67 58.0995 119.097 59.2914C119.518 59.7248 119.893 60.1582 120.315 60.5916C119.518 60.3966 118.722 60.2232 117.926 60.0282C117.786 60.2232 117.645 60.3966 117.505 60.5916C113.711 60.765 108.466 63.3872 111.135 65.3809C109.121 65.5326 109.075 64.449 109.121 63.7122C108.466 63.7122 107.81 63.7122 107.108 63.7122C106.218 64.9908 109.543 65.0125 109.121 66.1177C107.951 66.096 107.295 65.7276 107.529 65.1858C107.108 65.2508 106.733 65.3159 106.311 65.3809C101.066 63.1488 109.496 61.5668 106.311 59.6598C106.311 59.8548 106.311 60.0282 106.311 60.2232C105.656 60.2232 105 60.2232 104.298 60.2232C106.077 59.4647 113.29 48.9327 111.885 53.3969C113.664 53.0502 113.898 51.8366 114.273 50.9914C113.243 51.0998 112.774 50.7097 112.681 50.2546C115.257 50.5797 115.491 49.3011 117.458 49.1494C116.662 48.9544 115.865 48.781 115.069 48.586C115.491 48.586 115.865 48.586 116.287 48.586C114.554 47.2207 118.441 45.6387 119.097 44.3385C118.301 44.2735 117.505 44.2085 116.708 44.1434C116.896 44.8369 117.411 45.7471 115.912 45.9855C115.491 45.0536 115.116 44.1434 114.695 43.2116C116.287 43.4066 116.943 42.5831 117.505 41.9113C117.645 42.3881 118.16 43.1032 117.083 43.2116C117.832 43.8834 120.549 42.8649 121.064 43.775C121.72 42.2581 126.871 42.8865 123.452 41.3696C124.764 41.3046 126.169 41.1745 126.637 40.6328C125.935 40.1343 123.968 40.5461 123.265 40.2644C122.89 39.6792 124.436 39.4625 125.466 39.7009C125.747 39.2458 124.014 39.1375 123.078 38.9641C123.452 39.6576 119.799 39.5492 121.86 38.8774C123.452 38.574 125.981 38.7041 127.433 38.4223C127.152 38.6174 126.918 38.7907 126.637 38.9858C127.152 39.0508 127.714 39.1158 128.229 39.1808C127.574 38.249 126.918 37.3388 126.216 36.4069C126.965 36.3203 128.042 36.2552 127.808 35.8435C128.229 36.0385 128.604 36.2119 129.026 36.4069C129.588 35.8002 129.915 35.1067 128.604 34.7383C131.789 35.4318 134.833 34.4349 131.414 33.2647C132.491 33.1346 133.522 33.0263 134.599 32.8963C133.709 31.8127 132.444 30.5558 129.822 30.8592C129.307 30.0791 132.772 30.2308 134.224 30.1224C134.084 29.819 133.943 29.5156 133.803 29.1905C135.254 29.4723 135.723 27.6736 136.8 28.8221C137.643 30.014 138.205 28.0203 139.376 28.2587C138.72 28.6054 137.924 29.0822 138.954 29.3639C139.75 28.8438 140.312 28.2587 139.75 27.6953C140.266 27.6302 140.827 27.5652 141.343 27.5002C136.894 26.59 135.77 27.2185 134.552 24.9214C135.77 25.1598 136.94 25.4198 138.158 25.6582C137.737 25.2898 137.362 24.9214 136.94 24.553C139.095 25.0948 141.062 24.488 142.514 23.6211C140.781 23.2961 139.048 23.3177 137.737 23.8162C137.456 23.6862 137.221 23.5778 136.94 23.4478C137.081 23.5778 137.221 23.6862 137.362 23.8162C135.77 23.9895 134.458 23.1227 133.381 22.5159C133.568 22.7326 133.475 22.9493 133.428 23.1661ZM118.488 22.8843C118.348 22.9493 118.207 23.0144 118.067 23.0794C118.582 23.2094 119.144 23.3177 119.659 23.4478C119.378 23.2094 119.144 22.9493 118.863 22.711C118.722 22.7543 118.582 22.8193 118.488 22.8843ZM310.551 22.8843C310.598 22.9493 310.692 23.0144 310.738 23.0794C310.879 22.9493 311.019 22.841 311.16 22.711C310.879 22.711 310.645 22.711 310.364 22.711C310.411 22.7543 310.457 22.8193 310.551 22.8843ZM373.776 22.8843C374.057 23.0144 374.291 23.1227 374.572 23.2527C374.291 23.1444 374.01 23.0144 373.776 22.8843ZM198.667 23.0794C199.088 23.1444 199.463 23.2094 199.884 23.2744C199.463 23.3394 199.088 23.4044 198.667 23.4694C198.667 23.3177 198.667 23.1877 198.667 23.0794ZM283.201 23.2527C283.856 23.2527 284.512 23.2527 285.214 23.2527C285.214 23.3828 285.214 23.4911 285.214 23.6211C284.559 23.6211 283.903 23.6211 283.201 23.6211C283.201 23.5128 283.201 23.3828 283.201 23.2527ZM102.518 23.4478C102.658 23.5778 102.799 23.6862 102.939 23.8162C102.658 23.8812 102.424 23.9462 102.143 24.0112C102.237 23.8162 102.377 23.6211 102.518 23.4478ZM115.491 24.1846C115.538 24.3146 115.631 24.423 115.678 24.553C115.538 24.3146 115.397 24.0546 115.257 23.8162C115.35 23.9245 115.397 24.0546 115.491 24.1846ZM230.935 23.9895C231.075 24.1846 231.216 24.358 231.356 24.553C231.075 24.553 230.841 24.553 230.56 24.553C230.7 24.358 230.841 24.1846 230.935 23.9895ZM235.15 24.553C235.196 24.683 235.29 24.7914 235.337 24.9214C235.196 24.683 235.056 24.423 234.915 24.1846C235.009 24.2929 235.056 24.423 235.15 24.553ZM353.029 24.553C353.31 24.618 353.544 24.683 353.825 24.748C353.544 24.6613 353.263 24.618 353.029 24.553ZM111.276 24.7264C111.557 24.8564 111.791 24.9647 112.072 25.0948C111.838 24.9864 111.557 24.8564 111.276 24.7264ZM288.399 24.9214C288.82 24.9864 289.195 25.0514 289.617 25.1164C289.195 25.0514 288.774 24.9864 288.399 24.9214ZM111.276 25.4632C111.557 25.5282 111.791 25.5932 112.072 25.6582C111.838 25.5932 111.557 25.5282 111.276 25.4632ZM133.241 25.6582C133.522 25.9616 133.756 26.265 134.037 26.59C133.428 26.3083 132.632 25.9833 133.241 25.6582ZM445.759 25.9399C445.524 26.2433 445.946 26.3083 446.367 26.395C446.695 26.0916 446.789 25.7449 445.946 25.6582C445.899 25.7449 445.805 25.8316 445.759 25.9399ZM104.532 25.8316C104.813 25.9616 105.047 26.0699 105.328 26.2C104.906 26.2 104.532 26.2 104.11 26.2C104.251 26.0916 104.391 25.9616 104.532 25.8316ZM139.188 25.9399C139.329 25.9616 139.469 26.0049 139.61 26.0266C139.329 25.9616 139.095 25.8966 138.814 25.8316C138.954 25.8749 139.095 25.8966 139.188 25.9399ZM190.283 26.395C190.799 26.46 191.361 26.525 191.876 26.59C191.22 26.7201 190.471 26.7634 190.283 26.395ZM108.091 26.59C108.232 26.7201 108.372 26.8284 108.513 26.9585C108.372 26.8284 108.232 26.6984 108.091 26.59ZM94.5563 26.9585C94.9778 27.1535 95.3524 27.3269 95.7739 27.5219C95.3524 27.3269 94.9309 27.1318 94.5563 26.9585ZM184.663 26.9585C185.881 27.1318 187.848 27.2402 187.473 27.8903C186.256 27.6953 184.336 27.5869 184.663 26.9585ZM273.459 27.1318C274.302 27.3485 273.834 28.2154 272.85 28.0637C272.85 27.8686 272.85 27.6953 272.85 27.5002C272.148 28.1937 268.87 28.3454 268.87 27.5002C270.415 27.977 272.148 26.9585 273.459 27.1318ZM92.5425 27.3269C92.964 27.5219 93.3386 27.6953 93.7601 27.8903C93.3386 27.6953 92.964 27.5002 92.5425 27.3269ZM189.862 27.3269C190.143 27.3919 190.377 27.4569 190.658 27.5219C190.424 27.4352 190.143 27.3702 189.862 27.3269ZM95.3524 27.8686C97.6941 28.172 98.3029 29.884 95.3524 29.7107C95.3524 29.1039 95.3524 28.4971 95.3524 27.8686ZM90.9501 28.237C91.4653 28.237 92.0273 28.237 92.5425 28.237C92.5425 28.3671 92.5425 28.4754 92.5425 28.6054C92.0273 28.4971 91.4653 28.3671 90.9501 28.237ZM99.7079 28.237C100.223 28.302 100.785 28.3671 101.3 28.4321C100.926 28.7355 100.457 29.0605 99.7079 28.9955C99.7079 28.7355 99.7079 28.4971 99.7079 28.237ZM133.615 28.237C133.896 28.3671 134.13 28.4754 134.411 28.6054C133.896 28.6704 133.334 28.7355 132.819 28.8005C133.1 28.6054 133.381 28.4321 133.615 28.237ZM181.104 28.237C181.245 28.3671 181.385 28.4754 181.526 28.6054C181.338 28.4754 181.245 28.3671 181.104 28.237ZM141.202 28.6054C141.202 28.6704 141.202 28.7355 141.202 28.8005C141.624 28.8005 141.998 28.8005 142.42 28.8005C142.42 28.6704 142.42 28.5621 142.42 28.4321C141.998 28.4321 141.624 28.4321 141.202 28.4321C141.202 28.4971 141.202 28.5404 141.202 28.6054ZM226.392 28.6054C226.579 28.6054 226.813 28.6054 227.001 28.6054C227.375 29.2339 225.455 29.3639 224.191 29.5373C224.799 29.1905 225.642 28.6054 226.392 28.6054ZM271.633 28.6054C271.914 28.7355 272.148 28.8438 272.429 28.9738C272.195 28.8655 271.914 28.7355 271.633 28.6054ZM89.3578 28.9738C89.4983 29.1689 89.6388 29.3422 89.7793 29.5373C89.3578 29.5373 88.9831 29.5373 88.5616 29.5373C88.7958 29.3422 89.0768 29.1689 89.3578 28.9738ZM181.479 28.9738C181.619 29.1039 181.76 29.2122 181.9 29.3422C181.76 29.2339 181.619 29.1039 181.479 28.9738ZM266.06 29.1689C266.996 29.3639 267.933 29.5373 268.87 29.7323C267.699 30.1657 266.013 31.0976 264.889 30.4691C265.029 30.9025 265.17 31.336 265.31 31.7694C263.999 31.7694 262.641 31.7694 261.329 31.7694C261.47 32.0728 261.61 32.3762 261.751 32.7012C260.814 32.7012 259.878 32.7012 258.941 32.7012C260.299 31.466 265.076 31.6394 264.936 29.9274C265.591 30.0574 266.247 30.1657 266.949 30.2958C266.575 29.9057 266.341 29.5373 266.06 29.1689ZM98.9118 29.3422C99.0523 29.4723 99.1928 29.5806 99.3333 29.7107C99.0523 29.7107 98.8181 29.7107 98.5371 29.7107C98.6776 29.6023 98.7713 29.4723 98.9118 29.3422ZM129.26 29.9924C129.4 30.014 129.541 30.0574 129.681 30.0791C128.042 30.4475 128.323 31.6394 126.075 31.7477C125.466 31.1626 128.183 29.9274 129.26 29.9924ZM94.1348 30.0791C95.0246 30.2524 95.4461 30.5992 94.9309 31.0109C94.6499 30.7075 94.4158 30.4041 94.1348 30.0791ZM136.004 30.3608C135.723 30.4475 135.489 30.5558 135.208 30.6425C135.723 30.6425 136.285 30.6425 136.8 30.6425C136.8 30.4475 136.8 30.2741 136.8 30.0791C136.566 30.1874 136.285 30.2741 136.004 30.3608ZM222.598 30.0791C222.879 30.2091 223.113 30.3174 223.394 30.4475C223.113 30.3391 222.832 30.2091 222.598 30.0791ZM134.224 30.5558C134.411 30.5775 134.646 30.6208 134.833 30.6425C134.411 30.5775 134.037 30.5125 133.615 30.4475C133.849 30.4908 134.037 30.5125 134.224 30.5558ZM179.886 30.4475C180.167 30.5775 180.402 30.6858 180.683 30.8159C180.448 30.7075 180.167 30.5775 179.886 30.4475ZM88.1401 30.6425C88.4211 30.7075 88.6553 30.7725 88.9363 30.8375C88.5148 30.9676 88.1401 31.0759 87.7186 31.2059C87.906 31.0109 87.9996 30.8159 88.1401 30.6425ZM300.341 30.6425C300.622 30.8375 300.857 31.0109 301.138 31.2059C300.857 31.2059 300.622 31.2059 300.341 31.2059C300.341 31.0109 300.341 30.8159 300.341 30.6425ZM81.7708 31.0976C81.9113 31.1193 82.0518 31.1626 82.1923 31.1843C81.9113 31.1193 81.6771 31.0542 81.3961 30.9892C81.4898 31.0326 81.6303 31.0759 81.7708 31.0976ZM135.629 31.0976C135.77 31.1193 135.91 31.1626 136.051 31.1843C135.77 31.1193 135.535 31.0542 135.254 30.9892C135.348 31.0326 135.489 31.0759 135.629 31.0976ZM137.221 31.3793C137.221 31.4443 137.221 31.5093 137.221 31.5743C137.643 31.5743 138.018 31.5743 138.439 31.5743C138.439 31.4443 138.439 31.336 138.439 31.2059C138.018 31.2059 137.643 31.2059 137.221 31.2059C137.221 31.2493 137.221 31.3143 137.221 31.3793ZM98.9118 31.5527C99.0523 31.6177 99.1928 31.6827 99.3333 31.7477C99.0523 31.6177 98.8181 31.5093 98.5371 31.3793C98.6776 31.4443 98.7713 31.5093 98.9118 31.5527ZM297.578 31.3793C299.639 31.5527 298.89 32.7662 297.157 32.8529C297.906 32.3762 298.562 31.7911 297.578 31.3793ZM287.603 31.7477C287.884 31.8127 288.118 31.8777 288.399 31.9427C288.259 32.0728 288.118 32.1811 287.978 32.3112C287.697 32.2461 287.462 32.1811 287.181 32.1161C287.322 31.9861 287.462 31.8777 287.603 31.7477ZM78.9608 32.5712C78.8203 32.7879 78.6798 33.0046 78.5393 33.2213C78.1178 33.0913 77.7432 32.9829 77.3217 32.8529C75.0737 34.5866 68.7512 35.3017 71.7485 38.4007C72.4978 38.314 73.575 38.249 73.3408 37.8372C72.8257 37.9022 72.2637 37.9672 71.7485 38.0323C71.889 37.6205 72.451 37.4038 73.3408 37.4688C73.2003 36.9921 72.6852 36.2769 73.7623 36.1686C74.0433 36.4069 74.2775 36.667 74.5585 36.9054C74.699 36.472 74.8395 36.0385 74.98 35.6051C75.7762 35.7351 76.5723 35.8435 77.3685 35.9735C75.6825 34.955 81.724 34.2615 78.1646 33.7631C78.5862 33.5681 78.9608 33.3947 79.3823 33.1997C81.8645 34.7383 80.1785 30.2958 78.9608 32.5712ZM126.824 31.9427C127.386 32.5495 128.276 33.2863 127.621 33.7848C125.888 33.1997 123.921 32.3545 126.824 31.9427ZM130.056 31.9427C130.196 32.1378 130.337 32.3112 130.477 32.5062C130.29 32.3112 130.15 32.1161 130.056 31.9427ZM134.646 32.1161C134.692 32.1811 134.786 32.2461 134.833 32.3112C135.114 32.2461 135.348 32.1811 135.629 32.1161C135.208 32.0511 134.833 31.9861 134.411 31.9211C134.505 31.9861 134.552 32.0511 134.646 32.1161ZM219.976 32.3112C220.163 32.3112 220.397 32.3112 220.584 32.3112C220.631 32.8529 220.303 33.6764 221.381 33.7848C220.959 34.0882 220.585 34.3916 220.163 34.7166C219.695 34.2182 218.571 34.0448 217.353 33.9798C217.821 33.243 218.243 32.2895 219.976 32.3112ZM441.169 32.4845C441.45 32.6145 441.684 32.7229 441.965 32.8529C441.544 32.9179 441.169 32.9829 440.747 33.048C440.888 32.8529 441.029 32.6796 441.169 32.4845ZM83.3631 32.8529C82.8948 33.0696 83.2226 33.4814 83.3631 33.7848C84.5808 33.7414 84.6745 33.178 84.5808 32.6796C84.1125 32.6579 83.7378 32.6579 83.3631 32.8529ZM484.63 32.8529C484.771 33.048 484.911 33.2213 485.052 33.4164C484.771 33.4164 484.537 33.4164 484.256 33.4164C484.396 33.2213 484.537 33.048 484.63 32.8529ZM171.503 33.2213C171.784 33.2863 172.018 33.3514 172.299 33.4164C172.065 33.3514 171.784 33.2863 171.503 33.2213ZM256.506 33.4164C257.021 33.4814 257.583 33.5464 258.098 33.6114C257.395 33.7414 256.646 33.7848 256.506 33.4164ZM267.652 33.4164C267.933 33.5464 268.167 33.6547 268.448 33.7848C268.167 33.6547 267.933 33.5247 267.652 33.4164ZM134.224 33.9581C134.271 34.0231 134.365 34.0882 134.411 34.1532C134.271 34.0232 134.13 33.9148 133.99 33.7848C134.084 33.8498 134.177 33.8931 134.224 33.9581ZM171.129 33.7848C171.269 33.7848 171.41 33.7848 171.55 33.7848C171.41 34.0231 171.269 34.2832 171.129 34.5216C170.239 34.4782 170.332 33.8064 171.129 33.7848ZM87.7655 34.1532C87.8591 34.4349 89.6388 34.5649 90.5755 34.7166C90.9501 34.0665 88.9831 34.0665 87.7655 33.9798C87.7655 34.0232 87.7655 34.0882 87.7655 34.1532ZM83.1758 34.4132C83.129 34.4999 83.0353 34.6083 82.9885 34.6949C83.2695 34.6299 83.5036 34.5649 83.7846 34.4999C83.6441 34.3699 83.5036 34.2615 83.3631 34.1315C83.3163 34.2399 83.2226 34.3265 83.1758 34.4132ZM214.59 34.1532C215.48 34.2182 215.948 34.4782 215.807 34.89C215.386 34.6299 215.011 34.3916 214.59 34.1532ZM251.12 34.2399C251.307 34.2615 251.541 34.3049 251.729 34.3265C251.307 34.2615 250.932 34.1965 250.511 34.1315C250.698 34.1748 250.886 34.2182 251.12 34.2399ZM85.377 34.5216C85.377 34.5866 85.377 34.6516 85.377 34.7166C85.7985 34.6516 86.1731 34.5866 86.5946 34.5216C86.1731 34.4566 85.7985 34.3916 85.377 34.3265C85.377 34.3916 85.377 34.4566 85.377 34.5216ZM217.4 34.3265C217.821 34.3265 218.196 34.3265 218.617 34.3265C218.617 34.5649 218.617 34.825 218.617 35.0634C218.196 34.825 217.775 34.5866 217.4 34.3265ZM255.709 34.3265C255.85 34.4566 255.99 34.5649 256.131 34.6949C255.944 34.5866 255.803 34.4566 255.709 34.3265ZM80.7873 35.0634C80.7405 35.1284 80.6468 35.1934 80.6 35.2584C81.0215 35.3234 81.3961 35.3884 81.8176 35.4534C81.8176 35.2584 81.8176 35.085 81.8176 34.89C81.3961 34.89 80.9746 34.8683 80.7873 35.0634ZM84.9555 35.2584C84.815 35.3884 84.6745 35.4968 84.534 35.6268C84.9555 35.5618 85.3301 35.4968 85.7516 35.4318C85.6111 35.2367 85.4706 35.0634 85.3301 34.8683C85.2365 34.9983 85.096 35.1284 84.9555 35.2584ZM82.7543 35.4318C82.8011 35.4968 82.8948 35.5618 82.9416 35.6268C82.8011 35.4968 82.6606 35.3884 82.5201 35.2584C82.6138 35.3234 82.7075 35.3667 82.7543 35.4318ZM124.061 35.6268C123.265 36.2119 126.356 37.7072 123.265 37.6639C123.312 36.9704 122.984 35.9302 124.061 35.6268ZM79.757 35.9085C79.6165 35.9302 79.476 35.9735 79.3355 35.9952C79.5696 36.472 81.0683 36.3636 82.1455 36.3636C82.1455 36.1686 82.1455 35.9952 82.1455 35.8002C81.3961 35.8002 80.2721 35.7785 79.757 35.9085ZM84.3466 35.9952C84.3935 36.0602 84.4871 36.1252 84.534 36.1902C84.3935 36.0602 84.253 35.9519 84.1125 35.8218C84.253 35.8652 84.2998 35.9302 84.3466 35.9952ZM170.332 35.8002C170.473 35.9952 170.613 36.1686 170.754 36.3636C170.332 36.4286 169.958 36.4936 169.536 36.5586C169.77 36.2986 170.051 36.0602 170.332 35.8002ZM173.33 36.2769C173.142 36.7103 173.33 36.8187 173.939 36.927C174.22 36.6236 174.454 36.3203 174.735 35.9952C174.313 35.9302 173.939 35.8652 173.517 35.8002C173.47 35.9519 173.377 36.1252 173.33 36.2769ZM294.394 35.9952C294.815 36.1252 295.19 36.2336 295.611 36.3636C295.19 36.2336 294.768 36.1252 294.394 35.9952ZM248.122 36.1686C249.668 36.5586 250.183 37.2088 248.919 37.8372C247.935 37.5555 248.122 36.7753 248.122 36.1686ZM250.886 36.1686C251.167 36.1686 251.401 36.1686 251.682 36.1686C251.541 36.2986 251.401 36.4069 251.26 36.537C251.167 36.4286 251.026 36.2986 250.886 36.1686ZM76.5723 37.0137C76.2913 37.1654 76.0572 37.3171 75.7762 37.4688C77.7432 38.1189 81.7708 37.1004 80.9746 38.9424C81.3961 38.9424 81.7708 38.9424 82.1923 38.9424C81.7708 38.7041 81.3961 38.444 80.9746 38.2056C81.9113 37.9672 82.848 37.7072 83.7846 37.4688C82.848 37.2088 79.195 37.0787 78.2115 37.4688C77.9305 37.1654 77.6963 36.862 77.4153 36.537C77.1343 36.7103 76.8533 36.862 76.5723 37.0137ZM84.5808 36.732C84.7213 36.797 84.8618 36.862 85.0023 36.927C84.7213 36.797 84.4871 36.6887 84.2061 36.5586C84.2998 36.602 84.4403 36.667 84.5808 36.732ZM166.726 36.537C167.007 37.2738 167.241 38.0106 167.522 38.7474C166.492 38.0539 165.696 37.2521 166.726 36.537ZM213.419 36.537C213.56 36.537 213.7 36.537 213.841 36.537C214.075 37.0571 213.044 37.5555 212.248 38.0106C211.967 37.8155 211.733 37.6422 211.452 37.4471C211.874 37.4471 212.248 37.4471 212.67 37.4471C212.108 37.1004 212.389 36.5586 213.419 36.537ZM245.125 36.732C245.172 36.797 245.266 36.862 245.312 36.927C245.172 36.797 245.031 36.6887 244.891 36.5586C244.985 36.602 245.031 36.667 245.125 36.732ZM218.805 37.1871C218.758 37.3388 218.664 37.4905 218.617 37.6422C218.898 37.6422 219.133 37.6422 219.414 37.6422C219.273 37.3388 219.133 37.0354 218.992 36.7103C218.945 36.8837 218.852 37.0354 218.805 37.1871ZM68.9853 37.3821C69.2663 37.5338 69.5005 37.6855 69.7815 37.8372C69.922 37.5988 70.0625 37.3388 70.203 37.1004C69.5473 37.0354 68.8917 36.9704 68.1892 36.9054C68.4702 37.0787 68.7512 37.2304 68.9853 37.3821ZM478.682 37.1004C478.823 37.2954 478.963 37.4688 479.104 37.6639C478.917 37.4688 478.776 37.2954 478.682 37.1004ZM164.759 37.2954C164.9 37.4255 165.04 37.5338 165.181 37.6639C164.993 37.5338 164.853 37.4038 164.759 37.2954ZM76.1977 37.9239C76.3382 37.9456 76.4787 37.9889 76.6192 38.0106C76.3382 37.9456 76.104 37.8806 75.823 37.8155C75.9167 37.8589 76.0572 37.9022 76.1977 37.9239ZM118.488 37.8372C118.769 37.9022 119.003 37.9672 119.284 38.0323C119.003 37.9672 118.722 37.9022 118.488 37.8372ZM83.1758 38.4873C83.3631 38.574 83.5973 38.6824 83.7846 38.7691C83.3631 38.574 82.9885 38.4007 82.567 38.2056C82.7543 38.2923 82.9885 38.4007 83.1758 38.4873ZM78.7735 39.2242C78.7267 39.3108 78.633 39.4192 78.5862 39.5059C80.1317 39.8743 80.4595 39.2242 79.0077 38.9424C78.914 39.0291 78.8671 39.1375 78.7735 39.2242ZM161.528 39.1375C161.809 39.2025 162.043 39.2675 162.324 39.3325C161.294 39.3975 159.748 39.6359 159.514 39.1375C160.216 39.0074 160.778 38.9424 161.528 39.1375ZM287.181 38.9424C287.462 39.0725 287.697 39.1808 287.978 39.3108C287.743 39.1808 287.462 39.0725 287.181 38.9424ZM65.0045 39.5059C63.2249 40.3294 60.6959 40.5677 60.6022 41.998C58.3074 42.1064 56.0594 41.9547 56.1999 43.5583C55.7315 42.8865 54.2329 43.515 53.8114 43.9267C54.2329 43.9917 54.6075 44.0568 55.029 44.1218C51.2355 44.3818 49.5496 46.9823 45.8497 47.264C45.5219 48.2176 43.1334 49.7995 40.6512 49.8429C42.4777 50.4063 41.6347 51.4032 39.4336 50.9481C39.8551 51.3165 40.2297 51.6849 40.6512 52.0533C44.0232 50.5797 46.0839 51.7499 49.8306 51.8583C49.8306 51.6199 49.8306 51.3598 49.8306 51.1215C47.4421 51.2515 47.0206 49.3011 49.8306 49.4528C49.5496 48.9544 49.3154 48.4776 49.0344 47.9792C51.0014 47.6975 50.6267 49.1927 52.6405 48.911C51.9849 49.5178 51.3292 50.1463 50.6267 50.753C51.4229 50.5147 52.219 50.2546 53.0152 50.0162C53.0152 50.3196 53.0152 50.623 53.0152 50.9481C53.2962 50.9481 53.5304 50.9481 53.8114 50.9481C53.8114 50.4497 53.8114 49.9729 53.8114 49.4745C54.2329 49.4745 54.6075 49.4745 55.029 49.4745C55.029 49.7128 55.029 49.9729 55.029 50.2113C57.558 50.0813 55.3569 48.4559 53.8114 49.2794C53.3899 48.2392 51.095 46.1372 55.8252 47.069C55.8252 46.7006 55.8252 46.3322 55.8252 45.9638C55.1695 46.0938 54.5139 46.2022 53.8114 46.3322C53.2962 45.4654 55.872 45.487 57.4175 45.4003C56.996 46.2889 57.0897 48.0225 55.029 47.9792C55.8252 48.3476 56.6214 48.716 57.4175 49.0844C57.277 48.846 57.1365 48.586 56.996 48.3476C61.0237 49.1494 63.5059 44.5985 65.7538 43.9267C64.0678 45.1836 69.7347 44.3168 69.36 43.7317C68.7043 43.7967 68.0487 43.8617 67.3462 43.9267C67.4867 43.6233 67.6272 43.3199 67.7677 42.9949C67.3462 43.1249 66.9715 43.2333 66.55 43.3633C66.5968 41.8897 64.6767 42.1064 62.5692 42.063C62.6629 41.4129 64.4893 41.4996 65.7538 41.4996C65.7538 41.2612 65.7538 41.0012 65.7538 40.7628C66.269 40.8278 66.831 40.8928 67.3462 40.9578C67.5803 40.1993 65.0982 39.9826 64.9577 39.1158C65.0045 39.2458 65.0045 39.3759 65.0045 39.5059ZM68.0018 39.5059C68.1892 39.8743 68.4702 39.896 68.9853 39.8743C68.798 39.5275 68.6575 39.0291 67.7677 39.1375C67.8613 39.2458 67.955 39.3759 68.0018 39.5059ZM70.9992 39.3975C71.1397 39.4192 71.2802 39.4625 71.4207 39.4842C71.1397 39.4192 70.9055 39.3542 70.6245 39.2892C70.7182 39.3542 70.8587 39.3759 70.9992 39.3975ZM165.93 39.5926C165.79 39.6792 165.649 39.7876 165.509 39.8743C165.93 39.8093 166.305 39.7443 166.726 39.6792C166.586 39.5492 166.445 39.4409 166.305 39.3108C166.211 39.3975 166.071 39.5059 165.93 39.5926ZM72.5915 39.961C72.5447 40.4594 73.3877 40.5244 74.1838 40.6111C74.418 40.0693 73.7155 39.6792 72.5915 39.5059C72.5915 39.6576 72.5915 39.8093 72.5915 39.961ZM119.284 39.6792C119.565 39.6792 119.799 39.6792 120.08 39.6792C119.94 39.8093 119.799 39.9176 119.659 40.0476C119.518 39.9393 119.378 39.8093 119.284 39.6792ZM163.963 39.7659C164.104 39.7876 164.244 39.8309 164.385 39.8526C164.104 39.7876 163.869 39.7226 163.588 39.6576C163.682 39.7226 163.823 39.7443 163.963 39.7659ZM242.502 39.6792C242.783 39.7443 243.018 39.8093 243.299 39.8743C243.064 39.8093 242.783 39.7443 242.502 39.6792ZM79.5696 40.0476C79.6165 40.1127 79.7102 40.1777 79.757 40.2427C79.6165 40.1127 79.476 40.0043 79.3355 39.8743C79.4291 39.9393 79.5228 39.9826 79.5696 40.0476ZM208.221 40.7845C208.221 41.6079 205.411 42.1931 206.207 42.8215C207.143 42.3231 208.08 41.8463 209.017 41.3479C209.345 41.8897 210.281 42.1714 211.405 41.9113C211.405 42.2147 211.405 42.5181 211.405 42.8432C213.185 42.8649 214.262 42.3664 214.215 41.5429C214.637 41.6079 215.011 41.673 215.433 41.738C216.229 40.8495 214.965 40.156 213.044 40.0693C213.325 41.6946 209.157 41.3696 208.642 40.0693C208.502 40.3077 208.361 40.5461 208.221 40.7845ZM63.0375 40.2427C63.3185 40.3077 63.5527 40.3727 63.8337 40.4377C63.5527 40.351 63.2717 40.3077 63.0375 40.2427ZM160.544 40.6978C159.514 41.1312 159.654 41.4563 159.935 41.8897C160.357 41.8247 160.732 41.7596 161.153 41.6946C160.732 41.4996 160.357 41.3262 159.935 41.1312C161.013 40.9795 162.277 40.7194 161.528 40.1993C161.2 40.3944 160.872 40.5461 160.544 40.6978ZM210.796 40.6111C210.75 40.6761 210.656 40.7411 210.609 40.8061C210.89 40.8061 211.124 40.8061 211.405 40.8061C211.265 40.6761 211.124 40.5677 210.984 40.4377C210.937 40.4811 210.89 40.5461 210.796 40.6111ZM248.919 40.6111C249.059 40.7411 249.2 40.8495 249.34 40.9795C249.153 40.8495 249.059 40.7194 248.919 40.6111ZM237.351 40.9795C238.194 41.1529 239.599 41.2829 239.365 41.7163C238.287 41.8247 237.725 41.4129 237.351 40.9795ZM120.642 41.2612C120.83 41.2829 121.064 41.3262 121.251 41.3479C120.596 41.5863 119.94 41.8463 119.237 42.0847C119.565 41.7596 119.893 41.1312 120.642 41.2612ZM206.441 41.3479C206.488 41.4129 206.581 41.4779 206.628 41.5429C206.488 41.4129 206.347 41.3046 206.207 41.1745C206.3 41.2179 206.347 41.2829 206.441 41.3479ZM383.751 41.3479C384.032 41.4779 384.267 41.5863 384.548 41.7163C384.267 41.5863 383.986 41.4779 383.751 41.3479ZM67.2057 41.998C67.1588 42.1497 67.0652 42.3014 67.0183 42.4531C68.517 42.6481 69.079 41.5646 67.4398 41.5213C67.3462 41.673 67.2993 41.8463 67.2057 41.998ZM71.7953 42.3664C71.6548 42.4531 71.5143 42.5615 71.3738 42.6482C72.17 42.5181 72.9662 42.4098 73.7623 42.2797C73.1067 42.1931 72.2168 42.0414 71.7953 42.3664ZM386.702 42.2581C386.749 42.3231 386.842 42.3881 386.889 42.4531C386.749 42.3231 386.608 42.2147 386.468 42.0847C386.608 42.1497 386.655 42.2147 386.702 42.2581ZM459.106 42.0847C459.387 42.1497 459.621 42.2147 459.902 42.2797C459.668 42.2147 459.387 42.1497 459.106 42.0847ZM63.0375 42.4531C63.459 42.6481 63.8337 42.8215 64.2552 43.0166C63.8337 42.8215 63.4122 42.6481 63.0375 42.4531ZM230.747 42.7348C230.794 42.8215 230.888 42.9299 230.935 43.0166C231.356 42.8865 231.731 42.7782 232.152 42.6482C231.637 42.5831 231.075 42.5181 230.56 42.4531C230.607 42.5398 230.7 42.6265 230.747 42.7348ZM307.554 42.4531C307.835 42.5181 308.069 42.5831 308.35 42.6482C308.069 42.5831 307.788 42.5181 307.554 42.4531ZM72.4042 43.2766C71.7953 43.58 71.2333 43.4716 70.6245 43.3633C70.484 43.5583 70.3435 43.7317 70.203 43.9267C72.17 44.1651 72.451 43.2549 74.1838 43.1899C73.575 43.0816 73.013 42.9732 72.4042 43.2766ZM204.614 43.2766C204.474 43.2983 204.333 43.3416 204.193 43.3633C204.474 43.6017 204.708 43.8617 204.989 44.1001C204.052 44.1868 202.32 44.1868 202.601 44.6635C203.865 44.5769 204.989 44.7719 204.989 45.4003C203.256 44.5335 198.526 46.5489 201.804 46.874C201.664 47.004 201.523 47.1123 201.383 47.2424C202.741 47.2207 203.163 46.7223 202.975 46.1372C205.083 46.5706 205.832 45.5737 207.752 45.9421C207.893 45.6387 208.033 45.3353 208.174 45.0103C210.375 47.264 210.796 43.8617 207.378 44.0784C206.675 46.0071 204.427 44.2951 207.378 43.3416C206.347 43.6667 205.457 43.2766 204.614 43.2766ZM210.234 43.7534C210.609 44.1651 211.218 44.0568 211.827 43.9484C211.733 43.45 210.843 43.3199 209.813 43.385C209.953 43.4933 210.094 43.6233 210.234 43.7534ZM306.758 43.385C307.039 43.45 307.273 43.515 307.554 43.58C307.273 43.4933 306.992 43.4283 306.758 43.385ZM321.697 43.7534C321.51 43.8834 321.276 43.9917 321.089 44.1218C321.604 44.0568 322.166 43.9917 322.681 43.9267C322.54 43.7317 322.4 43.5583 322.259 43.3633C322.119 43.4933 321.885 43.6233 321.697 43.7534ZM55.029 43.5583C55.31 43.6884 55.5442 43.7967 55.8252 43.9267C55.591 43.7967 55.31 43.6884 55.029 43.5583ZM65.8007 43.5583C66.0817 43.6884 66.3158 43.7967 66.5968 43.9267C66.3627 43.7967 66.0817 43.6884 65.8007 43.5583ZM286.385 43.5583C286.666 43.7534 286.9 43.9267 287.181 44.1218C286.76 44.1218 286.385 44.1218 285.964 44.1218C286.151 43.9267 286.292 43.7534 286.385 43.5583ZM203.818 43.84C203.959 43.8617 204.099 43.9051 204.24 43.9267C203.959 43.8617 203.725 43.7967 203.444 43.7317C203.584 43.775 203.678 43.7967 203.818 43.84ZM60.649 43.9267C61.1642 44.2301 61.7262 44.5335 62.2414 44.8586C61.4452 44.7285 60.649 44.6202 59.8529 44.4902C59.7124 44.7286 59.5719 44.9886 59.4314 45.227C58.7757 44.7285 59.7592 44.2951 60.649 43.9267ZM228.968 44.1218C229.764 44.2518 230.56 44.3601 231.356 44.4902C230.279 44.4468 229.061 44.4902 228.968 45.0536C228.968 44.7285 228.968 44.4252 228.968 44.1218ZM68.9853 44.6635C68.8448 44.7936 68.7043 44.9019 68.5638 45.0319C69.5942 45.1403 70.0625 44.7502 70.1562 44.2951C69.641 44.2735 69.36 44.3168 68.9853 44.6635ZM211.031 44.3818C211.171 44.4035 211.312 44.4468 211.452 44.4685C211.171 44.4035 210.937 44.3385 210.656 44.2735C210.75 44.3385 210.89 44.3601 211.031 44.3818ZM156.142 45.5954C156.189 45.7254 156.282 45.8338 156.329 45.9638C156.47 45.7254 156.61 45.4654 156.751 45.227C156.47 45.227 156.236 45.227 155.955 45.227C156.048 45.3353 156.095 45.4654 156.142 45.5954ZM59.8529 45.5954C60.2744 45.5954 60.649 45.5954 61.0705 45.5954C60.93 45.7904 60.7895 45.9638 60.649 46.1588C60.368 45.9638 60.087 45.7688 59.8529 45.5954ZM52.6405 45.7688C52.9215 45.7688 53.1557 45.7688 53.4367 45.7688C53.2962 45.8988 53.1557 46.0071 53.0152 46.1372C52.9215 46.0288 52.781 45.8988 52.6405 45.7688ZM315.141 46.2455C315.281 46.2672 315.422 46.3105 315.562 46.3322C315.281 46.2672 315.047 46.2022 314.766 46.1372C314.86 46.1805 315 46.2022 315.141 46.2455ZM206.207 46.874C205.223 47.2857 205.879 48.1092 206.207 48.716C208.08 48.586 208.736 47.0257 209.813 46.5056C208.595 46.5056 207.05 46.4622 206.207 46.874ZM112.072 46.7006C112.728 47.134 113.383 47.5674 114.086 48.0009C113.43 48.0659 112.774 48.1309 112.072 48.1959C112.072 47.6758 112.072 47.199 112.072 46.7006ZM298.749 47.069C299.03 47.069 299.264 47.069 299.545 47.069C299.405 47.199 299.264 47.3074 299.124 47.4374C299.03 47.3074 298.89 47.199 298.749 47.069ZM200.025 47.7191C199.791 48.1742 200.165 48.4343 200.634 48.7377C201.289 48.1959 201.43 47.6108 200.212 47.264C200.165 47.4157 200.118 47.5674 200.025 47.7191ZM202.413 48.0875C202.46 48.3693 202.554 48.651 202.601 48.911C200.165 48.6293 200.072 50.4497 197.402 49.8429C197.402 49.9729 197.402 50.0813 197.402 50.2113C198.058 50.2113 198.713 50.2113 199.416 50.2113C199.791 50.8397 197.87 50.9698 196.606 51.1431C196.887 52.4434 199.931 51.3815 201.008 52.2483C201.055 51.4899 201.57 50.7531 203.397 50.9481C203.116 50.8831 202.882 50.8181 202.601 50.753C202.741 50.623 202.882 50.5147 203.022 50.3846C203.537 50.5147 204.099 50.623 204.614 50.753C205.364 49.6045 204.661 47.8708 202.226 47.2424C202.32 47.5241 202.366 47.8058 202.413 48.0875ZM146.775 47.4374C147.056 47.4374 147.29 47.4374 147.572 47.4374C147.431 47.5674 147.29 47.6758 147.15 47.8058C147.056 47.6758 146.916 47.5674 146.775 47.4374ZM151.178 47.7191C151.74 48.1742 152.536 47.7841 152.395 47.4374C151.88 47.4374 151.318 47.4374 150.803 47.4374C150.897 47.5241 151.037 47.6108 151.178 47.7191ZM47.8636 48.1742C48.2851 48.1742 48.6597 48.1742 49.0812 48.1742C49.2686 48.6076 47.8636 49.0627 47.0674 49.4745C46.7864 49.1061 46.5522 48.7377 46.2712 48.3693C46.7864 48.5643 47.3484 48.7377 47.8636 48.9327C47.8636 48.6726 47.8636 48.4126 47.8636 48.1742ZM109.683 48.3693C109.964 48.4993 110.199 48.6076 110.48 48.7377C110.245 48.6076 109.964 48.4776 109.683 48.3693ZM294.768 48.3693C295.049 48.4343 295.283 48.4993 295.564 48.5643C295.33 48.4776 295.049 48.4126 294.768 48.3693ZM199.041 49.1927C199.041 49.2794 199.041 49.3878 199.041 49.4745C199.791 49.5612 200.072 49.2361 200.259 48.911C199.837 48.911 199.463 48.911 199.041 48.911C199.041 48.9977 199.041 49.1061 199.041 49.1927ZM294.768 48.911C295.049 48.976 295.283 49.0411 295.564 49.1061C295.33 49.0411 295.049 48.976 294.768 48.911ZM205.832 49.3661C205.785 49.6912 206.488 49.7562 207.05 49.8212C207.237 49.4095 206.722 49.1494 205.832 49.0844C205.832 49.1927 205.832 49.2794 205.832 49.3661ZM305.961 49.1061C306.477 49.1061 307.039 49.1061 307.554 49.1061C307.741 49.4528 307.039 49.5828 306.336 49.6695C306.196 49.4745 306.102 49.2794 305.961 49.1061ZM214.59 50.2113C214.871 50.3413 215.105 50.4497 215.386 50.5797C215.152 50.4497 214.871 50.3196 214.59 50.2113ZM291.584 50.2113C292.286 50.428 292.38 50.7964 292.005 51.1431C291.069 51.0348 291.349 50.558 291.584 50.2113ZM108.513 50.3846C108.653 50.5147 108.794 50.623 108.934 50.753C108.747 50.6447 108.653 50.5147 108.513 50.3846ZM278.845 50.3846C278.986 50.5147 279.126 50.623 279.267 50.753C278.986 50.753 278.751 50.753 278.47 50.753C278.564 50.6447 278.705 50.5147 278.845 50.3846ZM305.727 50.6664C305.774 50.753 305.868 50.8614 305.915 50.9481C306.055 50.8181 306.196 50.7097 306.336 50.5797C306.055 50.5147 305.821 50.4497 305.54 50.3846C305.634 50.4713 305.68 50.5797 305.727 50.6664ZM376.961 50.3846C377.242 50.5147 377.476 50.623 377.757 50.753C377.476 50.6447 377.195 50.5147 376.961 50.3846ZM465.101 50.3846C465.241 50.5147 465.382 50.623 465.522 50.753C465.382 50.6447 465.241 50.5147 465.101 50.3846ZM50.4394 51.2298C50.2052 51.5332 50.6267 51.5982 51.0482 51.6849C50.9077 51.4465 50.7672 51.1865 50.6267 50.9481C50.5799 51.0348 50.5331 51.1215 50.4394 51.2298ZM204.052 51.2298C204.006 51.3165 203.912 51.4248 203.865 51.5115C204.568 51.5549 205.27 51.4899 205.457 51.1431C205.036 51.0781 204.661 51.0131 204.24 50.9481C204.146 51.0348 204.099 51.1215 204.052 51.2298ZM54.467 51.3165C54.5139 51.3815 54.6075 51.4465 54.6544 51.5115C54.9354 51.4465 55.1695 51.3815 55.4505 51.3165C55.029 51.2515 54.6544 51.1865 54.2329 51.1215C54.3265 51.1865 54.3734 51.2515 54.467 51.3165ZM139.188 51.1215C139.469 51.1865 139.704 51.2515 139.985 51.3165C139.75 51.2515 139.469 51.1865 139.188 51.1215ZM303.948 51.3165C304.088 51.3815 304.229 51.4465 304.369 51.5115C304.088 51.3815 303.854 51.2731 303.573 51.1431C303.667 51.1865 303.807 51.2515 303.948 51.3165ZM36.1084 52.14C35.4996 52.5734 35.5933 52.8118 35.9211 53.1585C33.4858 52.6818 31.8466 53.7653 32.7364 54.8272C30.0201 54.4371 26.6949 56.3875 25.9456 57.406C22.6673 56.9292 21.0281 60.0065 17.984 59.8115C18.8738 60.9817 17.422 62.0002 14.7993 61.2851C14.9398 61.5235 15.0803 61.7835 15.2208 62.0219C14.7993 61.9569 14.4246 61.8919 14.0031 61.8269C14.0968 62.1736 13.769 62.1953 12.4108 62.2819C10.116 62.2603 10.2096 63.9506 8.00848 63.6689C8.10215 64.1673 8.00848 64.7308 6.79082 64.7741C7.07182 64.9691 7.30598 65.1425 7.58698 65.3375C6.79082 65.2725 5.99465 65.2075 5.19849 65.1425C5.47949 65.5759 5.71365 66.0093 5.99465 66.4427C5.57315 66.4427 5.19849 66.4427 4.77699 66.4427C4.54282 66.9195 5.43265 67.2012 6.36932 67.3746C6.88448 66.8762 7.44648 66.3994 7.96165 65.901C9.17931 66.6378 11.8488 66.0743 11.9425 67.3746C12.5045 66.6595 13.7221 66.3777 15.1271 66.8111C15.1271 66.3777 15.1271 65.9443 15.1271 65.5109C14.1905 65.5109 13.2538 65.5109 12.3171 65.5109C14.4246 64.9908 11.6615 64.0156 15.3145 63.4738C19.7636 62.4986 17.703 63.4305 18.3118 64.5791C17.7966 64.3407 17.2346 64.0806 16.7195 63.8422C16.1575 64.124 15.4081 64.4924 14.7056 64.2106C13.769 65.0125 15.8765 65.2725 16.7195 64.5791C16.4385 64.8824 16.2043 65.1858 15.9233 65.5109C17.141 65.4459 18.3118 65.3809 19.5295 65.3159C18.3586 65.3375 17.703 65.7059 17.9371 66.2477C18.7801 66.3777 20.9813 65.3592 20.7471 64.9475C20.0915 64.9475 19.4358 64.9475 18.7333 64.9475C18.6396 64.4057 20.9345 64.4274 20.3256 63.6472C21.1218 63.8422 21.9179 64.0156 22.7141 64.2106C22.8078 63.1921 24.9621 62.542 23.9318 61.2634C24.9153 61.4585 25.2899 61.8919 25.1494 62.3686C25.5709 62.3686 25.9456 62.3686 26.3671 62.3686C26.3671 62.1736 26.3671 62.0002 26.3671 61.8052C28.3809 62.3036 30.3479 60.3532 32.3618 61.4368C31.6124 59.6381 35.0781 58.6846 35.5464 57.0159C34.8908 57.2976 34.0478 57.406 33.5326 57.0159C34.4693 56.4091 35.9211 56.1924 37.5134 56.2791C36.9982 56.4091 36.4362 56.5175 35.9211 56.6475C38.3564 57.4277 40.4171 55.759 43.8827 56.2791C43.8827 55.9757 43.8827 55.6723 43.8827 55.3473C44.3042 55.3473 44.6789 55.3473 45.1004 55.3473C44.7257 56.0841 46.9269 56.4308 47.9104 55.9107C45.9434 55.5423 47.8167 53.7003 43.9296 54.4371C44.1637 53.0502 47.0674 51.2298 41.5411 52.4C42.6651 52.6601 44.2574 52.9201 43.9296 53.5052C43.4144 53.1152 42.6182 53.2235 41.9157 53.5052C41.2132 52.5951 39.6677 52.0966 37.9349 52.7684C38.6842 52.075 37.3261 51.2515 36.1084 52.14ZM298.374 51.6849C299.077 51.9016 299.171 52.27 298.796 52.6167C298.047 52.3784 298 52.0316 298.374 51.6849ZM204.052 52.0533C204.006 52.1183 203.912 52.1833 203.865 52.2483C204.146 52.2483 204.38 52.2483 204.661 52.2483C204.521 52.1183 204.38 52.01 204.24 51.8799C204.146 51.9233 204.099 51.9883 204.052 52.0533ZM460.698 52.0533C460.979 52.1183 461.214 52.1833 461.495 52.2483C461.26 52.1833 460.979 52.1183 460.698 52.0533ZM198.245 52.4217C198.386 52.4867 198.526 52.5517 198.667 52.6167C198.386 52.4867 198.151 52.3784 197.87 52.2483C197.964 52.2917 198.105 52.3567 198.245 52.4217ZM297.157 52.5951C297.297 52.8335 297.438 53.0935 297.578 53.3319C296.735 53.2669 296.876 52.9201 297.157 52.5951ZM137.596 52.7901C138.345 53.3102 137.034 53.6569 136.004 53.8953C136.566 53.5269 137.081 53.1585 137.596 52.7901ZM45.4751 53.4402C45.4751 53.5269 45.4751 53.6353 45.4751 53.722C45.9902 53.6569 46.5522 53.5919 47.0674 53.5269C46.5522 53.3969 45.9902 53.2885 45.4751 53.1585C45.4751 53.2452 45.4751 53.3319 45.4751 53.4402ZM279.22 53.3319C279.36 53.3969 279.501 53.4619 279.641 53.5269C279.36 53.3969 279.126 53.2885 278.845 53.1585C278.939 53.2235 279.079 53.2885 279.22 53.3319ZM35.9211 53.8953C36.5299 54.2637 37.4198 54.5238 38.3096 54.2637C38.4969 54.6755 37.9817 54.9355 37.0919 55.0005C38.6842 54.8272 41.6347 54.7622 41.0727 53.8953C41.8221 54.4804 41.7752 55.0872 40.6512 55.564C40.1361 55.3689 39.5741 55.1956 39.0589 55.0005C38.6374 55.3039 38.2627 55.6073 37.8412 55.9324C36.7173 55.3256 35.5933 54.6538 35.9211 53.8953ZM385.906 54.0904C385.953 54.1554 386.046 54.2204 386.093 54.2854C385.953 54.1554 385.812 54.047 385.672 53.917C385.812 53.9603 385.859 54.0253 385.906 54.0904ZM33.9073 54.4588C33.9073 54.6538 33.9073 54.8272 33.9073 55.0222C33.4858 55.0222 33.1111 55.0222 32.6896 55.0222C33.1111 54.8272 33.4858 54.6321 33.9073 54.4588ZM278.845 54.4588C279.267 54.4588 279.641 54.4588 280.063 54.4588C279.641 54.8272 279.267 55.1956 278.845 55.564C277.487 55.2389 276.503 54.4371 278.845 54.4588ZM282.404 54.4588C282.685 54.5238 282.92 54.5888 283.201 54.6538C282.966 54.5671 282.685 54.5021 282.404 54.4588ZM289.991 54.8272C290.272 54.8922 290.507 54.9572 290.788 55.0222C290.507 54.9355 290.272 54.8705 289.991 54.8272ZM31.0973 55.0005C31.3783 55.1956 31.6124 55.3689 31.8934 55.564C31.4719 55.564 31.0973 55.564 30.6758 55.564C30.8631 55.3689 31.0036 55.1956 31.0973 55.0005ZM107.295 55.1956C107.576 55.3256 107.81 55.434 108.091 55.564C107.81 55.434 107.576 55.3039 107.295 55.1956ZM32.6896 55.564C32.9706 55.629 33.2048 55.694 33.4858 55.759C33.3453 55.889 33.2048 55.9974 33.0643 56.1274C32.7833 56.0624 32.5491 55.9974 32.2681 55.9324C32.4554 55.8024 32.5959 55.6723 32.6896 55.564ZM104.11 55.9324C105.094 55.9757 105.984 56.1924 105.703 56.6692C105.187 56.6692 104.625 56.6692 104.11 56.6692C104.11 56.4091 104.11 56.1708 104.11 55.9324ZM135.02 56.2141C135.067 56.3008 135.161 56.4091 135.208 56.4958C135.348 56.3008 135.489 56.1274 135.629 55.9324C135.348 55.9324 135.114 55.9324 134.833 55.9324C134.88 56.0191 134.973 56.1057 135.02 56.2141ZM28.5214 56.3008C29.2708 56.3008 29.5986 56.8859 29.9264 57.2326C29.1303 57.2326 28.3341 57.2326 27.5379 57.2326C27.6784 56.8859 27.7721 56.3008 28.5214 56.3008ZM203.631 56.3875C203.818 56.4091 204.052 56.4525 204.24 56.4742C203.725 56.5392 203.163 56.6042 202.647 56.6692C202.835 56.4742 203.022 56.2791 203.631 56.3875ZM31.5188 56.6692C31.7998 56.7992 32.0339 56.9076 32.3149 57.0376C32.0339 56.9076 31.7998 56.7775 31.5188 56.6692ZM42.6651 56.8426C42.8056 56.9076 42.9461 56.9726 43.0866 57.0376C42.8056 56.9076 42.5714 56.7992 42.2904 56.6692C42.4309 56.7342 42.5714 56.7775 42.6651 56.8426ZM102.096 57.406C102.237 57.601 102.377 57.7744 102.518 57.9694C102.237 57.9044 102.003 57.8394 101.722 57.7744C101.862 57.6444 102.003 57.536 102.096 57.406ZM104.532 57.5794C104.813 57.6444 105.047 57.7094 105.328 57.7744C105.047 57.7094 104.766 57.6444 104.532 57.5794ZM128.229 57.7744C128.417 57.7744 128.651 57.7744 128.838 57.7744C128.745 58.2945 127.761 58.3162 126.824 58.1428C127.246 57.9478 127.621 57.7527 128.229 57.7744ZM124.436 57.9478C124.717 57.9478 124.951 57.9478 125.232 57.9478C125.232 58.1861 125.232 58.4462 125.232 58.6846C124.951 58.6846 124.717 58.6846 124.436 58.6846C124.436 58.4462 124.436 58.2078 124.436 57.9478ZM33.4858 58.3162C33.9073 58.4462 34.2819 58.5546 34.7034 58.6846C34.2819 58.6846 33.9073 58.6846 33.4858 58.6846C33.4858 58.5762 33.4858 58.4462 33.4858 58.3162ZM25.5241 58.5112C25.8051 58.5112 26.0393 58.5112 26.3203 58.5112C26.1798 58.6412 26.0393 58.7496 25.8988 58.8796C25.8051 58.7496 25.6646 58.6412 25.5241 58.5112ZM27.9126 58.5112C28.1936 58.5112 28.4278 58.5112 28.7088 58.5112C28.5683 58.6412 28.4278 58.7496 28.2873 58.8796C28.1936 58.7496 28.0531 58.6412 27.9126 58.5112ZM37.2792 58.6846C37.3261 58.7496 37.4197 58.8146 37.4666 58.8796C37.6071 58.7496 37.7476 58.6412 37.8881 58.5112C37.6071 58.5112 37.3729 58.5112 37.0919 58.5112C37.1856 58.5762 37.2324 58.6412 37.2792 58.6846ZM29.1303 58.6846C29.5518 58.7496 29.9264 58.8146 30.3479 58.8796C30.2074 59.183 29.8796 59.5297 29.1303 59.4431C29.1303 59.183 29.1303 58.9446 29.1303 58.6846ZM122.844 58.8796C123.827 59.2047 124.108 59.6814 123.64 60.1799C123.125 60.1149 122.563 60.0498 122.047 59.9848C122.328 59.6164 122.609 59.248 122.844 58.8796ZM128.464 59.0747C128.745 59.2047 128.979 59.313 129.26 59.4431C128.838 59.5081 128.464 59.5731 128.042 59.6381C128.183 59.4431 128.323 59.248 128.464 59.0747ZM27.9126 59.6164C28.3341 59.8115 28.7088 59.9848 29.1303 60.1799C29.0366 59.4214 31.8466 59.6598 31.9403 60.3749C30.1606 60.2666 28.5683 60.5049 27.9594 61.3068C27.9126 60.7216 27.9126 60.1799 27.9126 59.6164ZM124.857 59.8115C124.998 60.0498 125.138 60.3099 125.279 60.5483C124.998 60.5483 124.764 60.5483 124.483 60.5483C124.576 60.2882 124.717 60.0498 124.857 59.8115ZM275.614 59.9848C275.66 60.2449 276.925 60.3966 277.627 60.5483C277.768 60.3099 277.908 60.0498 278.049 59.8115C277.253 59.8115 276.457 59.8115 275.66 59.8115C275.614 59.8548 275.614 59.9198 275.614 59.9848ZM437.984 59.8981C438.125 59.9198 438.265 59.9632 438.406 59.9848C438.125 59.9198 437.891 59.8548 437.61 59.7898C437.703 59.8331 437.844 59.8548 437.984 59.8981ZM105.328 60.3532C105.609 60.4183 105.843 60.4833 106.124 60.5483C105.843 60.4833 105.562 60.4183 105.328 60.3532ZM24.7279 60.5483C25.0089 60.6783 25.2431 60.7867 25.5241 60.9167C25.1026 60.9167 24.7279 60.9167 24.3064 60.9167C24.4469 60.7867 24.5874 60.6566 24.7279 60.5483ZM101.722 60.7216C102.143 60.7216 102.518 60.7216 102.939 60.7216C102.799 60.96 102.658 61.2201 102.518 61.4585C102.237 61.2201 102.003 60.9817 101.722 60.7216ZM104.906 61.2851C105.328 61.3501 105.703 61.4151 106.124 61.4801C105.703 61.3934 105.328 61.3501 104.906 61.2851ZM124.061 61.2851C124.342 61.2851 124.576 61.2851 124.857 61.2851C124.857 61.4801 124.857 61.6535 124.857 61.8485C124.576 61.8485 124.342 61.8485 124.061 61.8485C124.061 61.6535 124.061 61.4584 124.061 61.2851ZM120.08 61.6535C120.361 61.7185 120.596 61.7835 120.877 61.8485C120.736 61.9785 120.596 62.0869 120.455 62.2169C120.315 62.0219 120.221 61.8269 120.08 61.6535ZM21.9179 61.8269C22.6673 62.3903 22.6204 62.9537 21.1218 63.1271C21.4028 62.6937 21.6838 62.2603 21.9179 61.8269ZM28.5214 62.0219C28.4746 62.0869 28.3809 62.1519 28.3341 62.2169C29.1303 62.2819 29.9264 62.347 30.7226 62.412C30.3479 62.0002 29.1771 61.5668 28.5214 62.0219ZM104.11 61.8269C104.391 61.8269 104.625 61.8269 104.906 61.8269C104.766 61.9569 104.625 62.0652 104.485 62.1953C104.391 62.0869 104.251 61.9569 104.11 61.8269ZM15.174 62.0219C15.6891 62.1519 16.2511 62.2603 16.7663 62.3903C16.2511 62.4553 15.6891 62.5203 15.174 62.5853C15.174 62.3903 15.174 62.1953 15.174 62.0219ZM104.532 62.5637C104.813 62.6287 105.047 62.6937 105.328 62.7587C105.047 62.6937 104.766 62.6287 104.532 62.5637ZM9.17931 64.9691C9.46031 64.9691 9.69448 64.9691 9.97548 64.9691C9.83498 65.0992 9.69448 65.2075 9.55398 65.3375C9.46031 65.2075 9.31981 65.0992 9.17931 64.9691ZM1.59233 66.3561C1.21766 66.8112 0.749332 66.8328 0 66.8111C0 67.0495 0 67.3096 0 67.548C0.983498 67.3746 2.01383 67.3963 2.80999 67.743C2.99733 67.3096 2.43533 67.0062 1.59233 66.8111C2.1075 66.5078 2.66949 66.2044 3.18466 65.8793C2.43533 65.8793 1.967 65.901 1.59233 66.3561ZM3.98082 66.161C3.84032 66.2477 3.69982 66.3561 3.55933 66.4427C4.07449 66.3127 4.63649 66.2044 5.15165 66.0743C4.73016 65.966 4.40232 65.8793 3.98082 66.161ZM21.356 66.0743C21.4028 66.1394 21.4965 66.2044 21.5433 66.2694C21.4028 66.1394 21.2623 66.031 21.1218 65.901C21.2155 65.9443 21.2623 66.0093 21.356 66.0743ZM112.868 66.3561C113.009 66.3777 113.149 66.4211 113.29 66.4427C113.009 66.3777 112.774 66.3127 112.493 66.2477C112.634 66.2911 112.774 66.3344 112.868 66.3561ZM111.088 66.8978C111.276 66.9195 111.51 66.9629 111.697 66.9845C111.276 66.9195 110.901 66.8545 110.48 66.7895C110.714 66.8545 110.901 66.8762 111.088 66.8978ZM8.38315 67.2879C8.10215 67.3096 7.86798 67.3529 7.58698 67.3746C9.08565 68.6965 4.44916 67.8947 4.40232 68.8482C7.44648 69.39 8.57048 68.2414 10.7716 67.9164C10.116 67.613 9.27298 67.1579 8.38315 67.2879Z" fill="#1AB9A2"/>
</g>
<defs>
<clipPath id="clip0_1_1843">
<rect width="508" height="69" fill="white"/>
</clipPath>
</defs>
</svg>
