<svg width="699" height="8" viewBox="0 0 699 8" fill="none" xmlns="http://www.w3.org/2000/svg">
<path d="M15.7029 0.296052C30.3251 -0.403095 40.3061 0.339761 53.8708 0.458157C83.7316 0.718264 123.109 0.483995 153.65 0.502589C176.766 0.516679 200.255 0.566573 223.232 0.60659C224.41 0.608561 225.113 0.685206 225.648 0.686177C230.678 0.695194 239.114 0.625751 244.105 0.635885C254.603 0.657021 272.869 0.645079 282.484 0.716938C286.566 0.747365 290.754 0.76005 292.341 0.942517C293.833 0.951809 294.648 0.786943 295.037 0.777971C295.042 0.778134 295.046 0.778296 295.051 0.778459C296.305 0.750628 299.474 0.866222 300.173 0.859023C300.277 0.857896 299.634 0.738482 301.33 0.774553C301.481 0.777653 301.342 0.858845 302.77 0.86C303.142 0.860281 307.919 0.735777 309.284 0.728168C313.828 0.703389 324.677 0.801131 330.109 0.799455C330.94 0.799455 331.419 0.751962 332.296 0.751116C332.749 0.750625 333.428 0.802178 333.568 0.801896C334.179 0.800062 336.849 0.565938 335.89 1.02796C338.678 0.998668 337.856 0.845922 337.919 0.746722C340.945 0.732397 342.404 0.949993 343.194 0.719379C358.074 0.74721 372.953 0.775041 387.833 0.802872C387.838 0.765276 387.842 0.727679 387.847 0.690083C392.232 0.840251 393.737 0.586243 396.241 0.804337C397.784 0.756325 399.328 0.708312 400.872 0.660299C440.551 0.808239 480.136 0.632395 519.368 0.632956C521.023 0.632956 521.437 0.712956 524.167 0.71352C527.182 0.71408 531.422 0.621106 535.396 0.622214C538.881 0.623059 544.023 0.698742 547.91 0.71059C548.787 0.713126 549.421 0.662458 549.52 0.66274C550.101 0.66472 550.13 0.744935 550.693 0.74721C551.367 0.749746 552.181 0.690325 552.96 0.693989C555.869 0.707223 559.039 0.686742 559.407 0.68813C561.182 0.695724 561.573 0.774174 561.719 0.775041C563.693 0.784615 562.953 0.713807 563.445 0.717914C565.995 0.739614 567.798 0.916371 571.289 0.746722C571.194 0.812312 571.099 0.877903 571.004 0.943493C573.676 0.980399 571.911 0.806115 572.457 0.774553C572.68 0.762859 578.432 0.784144 578.875 0.787248C580.42 0.798517 580.462 0.88568 580.595 0.886854C580.921 0.889672 584.807 0.790747 586.8 0.866835C589.158 0.957003 586.383 1.13431 586.968 1.16761C587.067 1.17324 589.535 1.15507 589.867 1.21057C590.232 1.27029 588.098 1.26902 588.131 1.29407C588.154 1.31126 591.698 1.43435 591.018 1.51721C590.472 1.6003 585.664 1.49376 584.646 1.53283C584.477 1.5393 584.795 1.64186 584.646 1.64562C584.047 1.65942 572.969 1.66251 572.462 1.64562C573.039 1.59891 573.616 1.5522 574.193 1.50549C573.426 1.50077 572.659 1.49605 571.892 1.49133C572.982 1.45389 574.073 1.41646 575.164 1.37903C573.543 0.994411 568.661 1.38431 568.46 1.57629C568.373 1.66506 571.357 1.89345 568.58 2.02647C569.002 2.04925 569.424 2.07204 569.847 2.09483C570.717 2.05739 571.587 2.01996 572.457 1.98252C571.878 1.95892 571.298 1.93532 570.719 1.91173C570.932 1.88503 571.145 1.85834 571.359 1.83165C572.985 1.78884 574.612 1.74604 576.238 1.70324C577.075 1.72296 576.901 1.80176 577.475 1.817C584.644 2.00891 579.968 1.7647 584.662 1.79991C585.332 1.84223 586.002 1.88454 586.672 1.92686C586.436 1.75185 588.515 1.86174 591.029 1.78624C590.729 1.84288 590.428 1.89952 590.128 1.95616C593.771 1.926 601.154 2.21156 599.162 1.89903C599.996 1.92572 600.831 1.95241 601.666 1.97911C602.371 1.928 603.075 1.8769 603.78 1.82579C604.754 1.83165 605.728 1.83751 606.703 1.84337C606.707 1.87104 606.712 1.8987 606.716 1.92637C605.939 1.92654 605.162 1.9267 604.385 1.92686C604.969 2.01117 605.552 2.09548 606.135 2.17978C606.708 2.16579 607.281 2.15179 607.855 2.13779C605.45 2.05805 608.62 1.92781 609.388 1.81651C611.415 1.77538 612.71 1.91986 613.39 1.92637C613.71 1.92947 617.474 1.67457 615.998 1.95469C617.935 1.92068 619.871 1.88666 621.808 1.85264C622.565 1.87413 623.323 1.89561 624.08 1.9171C622.437 2.04757 627.2 2.20478 623.691 2.25888C621.071 2.29946 620.425 2.17747 619.182 2.17832C618.061 2.17892 617.468 2.26108 616.249 2.26474C608.046 2.28785 601.363 2.27278 593.573 2.23642C592.034 2.22912 590.634 2.2694 589.6 2.26377C588.433 2.25727 589.895 2.15422 588.408 2.1793C586.846 2.20581 586.508 2.28991 586.096 2.2916C585.84 2.29255 585.026 2.21689 584.278 2.21689C581.202 2.21691 576.694 2.29007 576.257 2.28964C575.763 2.2888 567.063 2.22053 566.647 2.2081C566.426 2.20134 566.884 1.92195 564.967 2.21982C564.369 2.22535 563.771 2.23089 563.172 2.23642C563.269 2.1806 563.366 2.12477 563.463 2.06895C559.919 2.28058 561.138 2.16218 557.722 2.17881C549.542 2.21882 537.476 2.17178 528.53 2.1915C526.532 2.19602 525.771 2.26286 523.407 2.26767C521.212 2.2719 515.478 2.07245 516.725 2.34872C511.84 2.10949 511.054 2.52203 508.608 2.26474C508.312 2.30218 508.016 2.33961 507.721 2.37704C505.066 2.21642 504.246 2.35759 501.348 2.37704C500.099 2.3855 501.539 2.21465 499.017 2.40487C498.535 2.39071 498.054 2.37655 497.572 2.3624C497.684 2.32106 497.796 2.27972 497.908 2.23838C495.108 2.27219 494.927 2.25065 495.247 2.40536C493.895 2.37721 492.543 2.34905 491.191 2.32089C491.023 2.37167 490.855 2.42245 490.687 2.47323C491.335 2.57009 522.031 2.42402 526.306 2.37753C531.319 2.49247 541.39 2.34877 545.44 2.37607C547.061 2.38706 547.778 2.5019 550.136 2.51571C552.494 2.52951 555.461 2.4252 556.717 2.42148C560.9 2.40851 580.717 2.43143 567.239 2.5743C567.626 2.63029 568.014 2.68628 568.401 2.74227C573.757 2.55122 571.818 2.66883 576.262 2.68856C578.133 2.69697 582.582 2.57195 582.334 2.82625C578.86 2.87359 575.169 2.79231 572.148 2.79598C571.849 2.79637 568.272 2.91248 566.431 2.88093C564.77 2.85214 565.914 2.60972 562.301 2.88191C559.617 2.61602 558.065 2.85724 557.357 2.88289C556.132 2.92735 555.998 2.79612 554.773 2.78084C553.439 2.76396 552.521 2.85107 552.339 2.85164C550.509 2.85361 540.982 2.86549 540.545 2.81258C540.928 2.7893 541.311 2.76603 541.694 2.74275C539.22 2.7053 539.737 2.83948 539.086 2.85554C538.602 2.85506 538.117 2.85457 537.633 2.85408C537.825 2.82625 538.017 2.79842 538.209 2.77059C535.287 2.7765 537.523 2.87322 533.375 2.87068C530.741 2.86897 528.02 2.76273 527.764 2.77059C527.689 2.77284 528.518 2.84447 527.444 2.85408C525.667 2.86986 522.594 2.86803 522.25 2.77059C521.38 2.78438 521.454 2.87974 521.338 2.88191C520.833 2.89121 512.137 2.92363 510.579 2.92927C506.262 2.94477 501.457 2.92444 496.78 2.9405C496.299 2.94211 496.606 2.88092 496.124 2.88289C495.35 2.88602 491.379 2.98206 490.786 2.98884C489.305 3.00546 485.41 2.96737 484.797 2.99519C484.71 2.99913 485.992 3.08184 484.493 3.10749C482.829 3.13586 483.725 3.02462 483.634 3.02351C480.248 2.98547 478.109 3.06276 475.797 3.07771C475.048 3.08249 473.666 2.99877 472.608 3.02351C472.487 3.02632 472.728 3.10368 472.608 3.10749C471.011 3.14807 469.516 3.00449 468.825 2.99519C467.133 2.97245 468.054 3.07842 467.966 3.07917C466.839 3.08255 465.323 3.04433 463.609 3.04939C455.969 3.07193 449.735 3.0784 441.613 3.07136C440.593 3.07051 439.383 2.99577 439.227 2.99568C438.745 2.99624 438.883 3.08407 437.488 3.0821C434.549 3.07759 431.823 3.08184 428.913 3.08015C428.327 3.07979 428.077 2.99841 427.63 2.99665C426.132 2.99158 421.021 3.20467 420.937 2.93953C417.963 3.17425 415.988 2.97194 413.594 2.97419C407.924 2.97927 399.046 3.02709 393.393 2.99665C392.203 2.99013 391.644 2.92219 390.982 2.91853C389.795 2.91179 383.007 2.94974 382.652 2.93904C381.955 2.91847 382.373 2.61928 378.789 2.87996C376.687 2.89853 376.935 2.77574 376.501 2.76912C373.114 2.7198 369.819 2.99385 370.434 2.74275C366.491 2.81094 363.935 2.94969 362.326 2.71492C362.347 2.82949 360.492 2.89822 358.257 2.85457C360.546 2.6621 360.262 2.5391 365.797 2.5743C365.885 2.57487 365.718 2.65772 365.805 2.65828C366.596 2.66388 368.245 2.62205 369.592 2.62655C370.939 2.63105 370.191 2.68769 370.73 2.6866C371.224 2.68548 371.208 2.60619 371.922 2.60506C374.24 2.60196 376.291 2.58011 377.61 2.5787C378.441 2.57788 379.37 2.64754 380.015 2.64754C382.508 2.64697 387.789 2.59257 390.961 2.60018C391.622 2.60196 391.344 2.68013 392.79 2.6866C392.959 2.68736 393.575 2.60585 394.841 2.58895C396.107 2.57205 397.089 2.61252 397.902 2.60409C398.581 2.59704 398.297 2.52463 399.691 2.52011C400.853 2.51644 414.013 2.56861 414.727 2.58016C415.755 2.59682 416.244 2.69851 416.871 2.68612C416.982 2.68346 417.168 2.58524 417.551 2.57821C423.86 2.46213 437.825 2.59613 445.034 2.5953C460.104 2.59389 474.007 2.5361 489.21 2.51327C489.481 2.49618 489.752 2.47909 490.023 2.462C488.486 2.46135 486.95 2.4607 485.413 2.46005C485.403 2.41383 485.393 2.3676 485.383 2.32138C483.306 2.31406 483.581 2.42338 483.64 2.48934C482.871 2.46135 482.102 2.43336 481.333 2.40536C480.67 2.56644 475.542 2.45931 472.899 2.45956C471.18 2.45956 469.134 2.52097 468.227 2.5162C466.312 2.50634 466.362 2.40695 466.212 2.40536C465.956 2.40311 463.282 2.49077 461.353 2.48739C458.502 2.48256 458.193 2.32994 454.29 2.45956C449.288 2.38038 443.746 2.42023 438.355 2.43319C439.381 2.29212 434.55 2.42564 432.371 2.42343C419.079 2.40962 402.742 2.34935 389.276 2.29355C387.545 2.28651 386.238 2.2034 385.273 2.20615C384.751 2.20756 384.522 2.30554 383.796 2.29257C383.669 2.29008 383.58 2.19846 382.228 2.18467C378.865 2.15 370.486 2.3029 368.365 2.12705C356.865 2.15423 345.364 2.18141 333.864 2.20859C333.575 2.17116 333.286 2.13372 332.997 2.09629C330.812 2.28759 322.176 2.17518 317.964 2.18418C310.551 2.20024 301.092 2.25972 294.597 2.26621C293.186 2.26762 292.029 2.21335 290.694 2.21445C290.119 2.21501 289.404 2.28537 288.806 2.28574C282.09 2.29109 272.997 2.21862 266.229 2.22031C250.862 2.22397 236.391 2.2133 220.821 2.2164C168.373 2.22739 116.226 2.33086 64.2247 2.28916C63.5275 2.28859 63.5624 2.20769 63.0221 2.20713C59.8327 2.20318 52.7105 2.26987 49.1084 2.26621C46.2385 2.26339 41.6833 2.13969 40.6957 2.26425C50.8915 2.45278 61.6634 2.4386 72.2774 2.4913C73.032 2.49501 73.1258 2.57192 73.2187 2.57333C74.9371 2.60005 73.8519 2.49413 76.3438 2.48934C77.1767 2.48774 84.8691 2.73326 83.9539 2.48886C85.7962 2.58662 98.7825 2.63549 101.289 2.60311C102.05 2.59325 101.511 2.52084 101.662 2.51718C102.318 2.50118 102.614 2.60102 103.201 2.6036C104.763 2.6098 108.738 2.52882 109.493 2.52938C111.231 2.53025 116.441 2.61152 118.735 2.59237C120.838 2.5749 120.445 2.47061 122.263 2.46102C123.696 2.45374 122.135 2.54147 125.335 2.56796C126.921 2.58092 132.469 2.51816 133.817 2.51815C135.165 2.51815 136.664 2.58056 138.523 2.57577C141.201 2.569 147.027 2.53426 149.752 2.51425C149.914 2.51312 150.311 2.43199 150.712 2.43368C151.542 2.43708 151.293 2.53728 151.92 2.54745C152.547 2.55759 163.412 2.54535 165.257 2.54647C166.529 2.54703 167.408 2.48735 168.11 2.48788C168.662 2.48844 168.721 2.5719 169.284 2.57284C169.458 2.57284 170.941 2.50035 172.422 2.50204C173.822 2.50374 179.137 2.57267 179.752 2.57333C180.153 2.57361 179.714 2.5143 180.899 2.51571C181.979 2.51716 182.688 2.59417 183.304 2.5953C184.733 2.5978 186.329 2.53214 187.845 2.53182C192.202 2.53098 191.978 2.62638 192.239 2.62948C192.964 2.63809 193.255 2.55071 193.493 2.54891C194.497 2.54159 196.959 2.52545 197.855 2.52206C198.97 2.51783 199.443 2.60088 200.628 2.60116C201.511 2.6011 203.295 2.52014 205.31 2.5162C209.853 2.5069 215.256 2.49162 219.717 2.49472C221.048 2.49556 221.252 2.57135 221.659 2.57333C223.796 2.58373 224.992 2.49898 225.602 2.50009C229.954 2.50769 237.716 2.64066 241.753 2.65194C243.397 2.65644 250.595 2.59505 254.656 2.60604C255.121 2.60718 254.686 2.66661 255.203 2.65731C256.439 2.63501 256.325 2.514 256.952 2.51766C257.255 2.5198 257.945 2.58802 258.827 2.59481C263.399 2.63004 266.543 2.57699 268.629 2.58065C288.66 2.61588 309.086 2.64758 327.792 2.65828C329.878 2.65941 332.464 2.58742 335.613 2.65731C335.71 2.6949 335.807 2.7325 335.904 2.7701C336.014 2.73315 336.124 2.69621 336.234 2.65926C339.801 2.63925 341.149 2.5917 344.791 2.63875C345.105 2.6427 346.062 2.81433 346.655 2.60116C350.263 2.75559 348.283 2.5999 350.961 2.58553C353.639 2.57116 356.241 2.61876 358.838 2.62948C360.261 2.70585 354.289 2.88199 353.9 2.88142C353.273 2.88074 352.621 2.77475 352.017 2.76912C350.228 2.75227 348.499 2.83638 348.097 2.74178C345.786 2.8418 348.664 2.79182 348.375 2.88191C346.832 2.84464 345.289 2.80737 343.746 2.7701C342.96 3.0765 334.434 2.67692 335.026 2.91023C334.348 2.86352 333.67 2.81681 332.992 2.7701C330.018 3.0628 328.269 2.85669 324.302 2.76961C324.588 2.80704 324.874 2.84448 325.16 2.88191C325.079 2.89753 321.578 2.95739 322.83 2.79793C319.241 3.00804 319.392 2.65855 316.174 2.91121C314.263 2.94361 315.412 2.79686 311.991 2.79939C309.963 2.8008 307.446 2.87753 305.181 2.88289C304.659 2.88388 304.432 2.79891 303.967 2.79891C303.503 2.79894 303.277 2.88225 302.714 2.88435C301.552 2.88886 300.046 2.83038 299.32 2.83601C298.669 2.84082 297.739 2.9143 296.171 2.92585C290.693 2.9667 292.348 2.86176 291.483 2.82625C290.553 2.78849 289.885 2.92675 288.032 2.91072C287.847 2.90903 288.327 2.82287 287.723 2.82625C287.236 2.8289 286.991 2.92255 285.377 2.94001C284.734 2.94706 274.756 2.96712 273.236 2.96882C270.906 2.97136 265.717 2.89209 263.306 2.89265C262.377 2.89267 261.384 2.96786 260.397 2.96736C257.126 2.96567 251.89 2.9593 247.742 2.95564C244.007 2.95224 237.45 2.78627 235.404 2.93611C230.159 2.95555 228.885 2.8275 228.49 2.82576C227.421 2.82097 226.926 2.9058 225.578 2.90974C208.121 2.95905 185.132 2.90298 168.598 2.90974C130.244 2.92609 91.6812 2.97244 53.1935 2.93806C53.0904 2.97566 52.9873 3.01325 52.8842 3.05085C57.433 3.07509 62.779 3.1404 67.2698 3.15534C73.2651 3.17505 82.1587 3.01848 86.5564 3.27545C84.7729 3.29799 81.8673 3.19946 81.9194 3.3316C85.1076 3.34104 88.2958 3.35048 91.484 3.35992C91.3889 3.29889 91.2938 3.23786 91.1987 3.17682C94.5275 3.15907 97.9323 3.17238 101.273 3.16364C101.853 3.1622 101.442 3.10679 101.947 3.10651C102.513 3.10631 102.129 3.1627 102.235 3.16315C103.664 3.16372 104.095 3.10667 104.27 3.10749C104.717 3.10974 104.369 3.16405 105.659 3.17926C108.052 3.20769 109.765 3.06343 109.203 3.30377C109.975 3.30377 110.748 3.30377 111.52 3.30377C111.72 3.23834 111.92 3.17292 112.12 3.10749C116.871 3.37164 119.062 2.90828 121.687 3.27594C122.553 3.21979 123.419 3.16364 124.284 3.10749C124.772 3.17292 125.26 3.23834 125.748 3.30377C125.843 3.24762 125.938 3.19147 126.034 3.13532C130.698 3.17672 135.665 3.10932 140.126 3.11579C143.233 3.1203 143.978 3.14247 146.731 3.13825C152.854 3.12867 146.773 3.24009 151.861 3.36041C151.596 3.29157 151.331 3.22272 151.066 3.15387C151.909 3.12865 152.752 3.10342 153.594 3.07819C154.181 3.13434 154.767 3.19049 155.354 3.24665C157.956 2.9554 159.642 3.19049 159.996 3.19049C160.283 3.18999 161.266 3.01465 164.345 3.16315C163.068 2.92344 166.695 3.16174 166.985 3.16315C167.261 3.16412 170.792 3.11061 172.225 3.11286C173.352 3.11457 175.756 3.16617 177.435 3.16364C178.917 3.16139 178.767 3.08001 178.875 3.07917C180.699 3.07241 179.556 3.13564 180.875 3.13874C182.194 3.14183 183.217 3.07248 183.501 3.07868C183.645 3.08198 183.166 3.15779 183.821 3.1651C185.582 3.18507 188.765 3.1187 190.781 3.12067C191.495 3.12128 192.396 3.18559 193.191 3.18756C194.411 3.19037 194.981 3.10495 195.69 3.10749C195.936 3.1086 197.51 3.24055 199.466 3.22028C199.838 3.21621 200.931 2.93701 202.383 3.33258C202.495 3.27692 202.607 3.22126 202.719 3.16559C209.278 3.02779 211.103 3.47998 214.019 3.07868C218.782 3.1235 215.512 3.27982 216.035 3.30377C216.373 3.31891 217.925 3.27593 218.096 3.27838C218.398 3.28317 218.346 3.33335 218.677 3.33307C224.748 3.32377 222.053 3.22904 223.976 3.16901C228.548 3.02614 232.115 3.34334 224.162 3.24811C224.162 3.2761 224.162 3.3041 224.162 3.33209C226.121 3.30534 231.091 3.31804 229.431 3.46002C228.124 3.57189 216.332 3.49888 223.01 3.65581C224.527 3.69132 225.312 3.58627 227.938 3.78325C229.675 3.79394 229.925 3.53874 232.276 3.64116C231.89 3.55214 231.503 3.46311 231.117 3.37408C234.323 3.25804 238.28 3.4137 240.743 3.36383C241.58 3.34683 244.594 2.92238 243.892 3.34674C245.299 3.32028 251.926 3.39845 253.158 3.36041C253.454 3.35122 253.84 3.12529 258.125 3.20417C258.423 3.23249 258.721 3.2608 259.019 3.28912C255.099 3.3714 262.021 3.45509 260.141 3.66948C259.502 3.57312 256.394 3.51434 255.893 3.46588C255.039 3.38246 257.583 3.27495 254.342 3.30426C252.298 3.66258 258.141 3.4977 257.248 3.83794C261.504 3.67911 261.929 3.83065 262.893 3.83696C267.012 3.8626 269.604 3.82654 273.49 3.86626C274.436 3.79637 267.401 3.69548 266.53 3.72563C269.737 3.47792 264.217 3.46672 261.888 3.61382C261.692 3.53895 261.497 3.46409 261.301 3.38922C264.334 3.4298 267.292 3.45065 270.295 3.38922C270.491 3.41721 270.686 3.44521 270.882 3.4732C270.208 3.51535 269.534 3.55751 268.861 3.59966C271.358 3.66869 269.86 3.45038 273.188 3.64165C273.291 3.55735 273.394 3.47304 273.497 3.38873C276.688 3.41672 279.879 3.44472 283.07 3.47271C284.731 3.30366 290.871 3.36663 289.747 3.5855C292.225 3.60096 289.166 3.48447 291.488 3.43121C292.499 3.4081 294.475 3.40161 294.963 3.46051C294.752 3.66894 291.796 3.6948 290.902 3.83794C291.444 3.88411 305.193 3.7353 303.967 3.97904C305.065 4.00835 304.56 3.88278 306.54 3.85063C312.089 3.76102 320.682 4.0092 325.15 3.6978C319.904 3.52449 318.352 3.70805 314.332 3.71538C311.764 3.72017 296.108 3.74972 299.605 3.52935C299.03 3.55735 298.455 3.58534 297.88 3.61333C297.299 3.54774 296.717 3.48215 296.136 3.41656C297.774 3.40712 299.412 3.39768 301.05 3.38824C301.441 3.45367 301.832 3.5191 302.223 3.58453C302.404 3.53781 302.584 3.4911 302.765 3.44439C303.454 3.43512 304.144 3.42584 304.834 3.41656C304.64 3.47271 304.446 3.52886 304.253 3.58501C305.316 3.59462 306.379 3.60422 307.442 3.61382C307.155 3.53879 306.869 3.46376 306.583 3.38873C311.589 3.36986 309.894 3.41685 312.671 3.55718C314.744 3.57153 311.242 3.42732 315.628 3.39068C320.728 3.34815 317.382 3.57741 323.987 3.52837C324.082 3.49094 324.177 3.45351 324.272 3.41607C325.725 3.45351 327.177 3.49094 328.629 3.52837C328.438 3.48183 328.246 3.43528 328.054 3.38873C331.051 3.40677 335.182 3.31793 336.176 3.50054C333.137 3.41262 333.167 3.73147 333.957 3.79009C335.588 3.91036 359.682 3.79846 364.352 3.79057C370.324 3.78043 374.838 3.88256 380.292 3.72563C376.596 3.59692 363.597 3.70237 361.134 3.61333C360.89 3.6046 360.958 3.31231 359.39 3.64116C354.336 3.58539 348.295 3.67856 341.98 3.669C342.173 3.58485 342.366 3.50071 342.559 3.41656C346.44 3.59551 350.032 3.20245 349.527 3.52935C350.299 3.52935 351.071 3.52935 351.844 3.52935C351.844 3.47304 351.844 3.41672 351.844 3.36041C353.008 3.36041 354.173 3.36041 355.337 3.36041C355.337 3.41672 355.337 3.47304 355.337 3.52935C356.301 3.52935 357.266 3.52935 358.23 3.52935C358.33 3.4732 358.431 3.41705 358.531 3.3609C361.419 3.47752 371.264 3.16569 366.936 3.50103C368.292 3.50103 369.649 3.50103 371.005 3.50103C371.001 3.45985 370.996 3.41868 370.992 3.3775C371.575 3.37197 372.158 3.36643 372.741 3.3609C372.549 3.39817 372.357 3.43544 372.165 3.47271C374.837 3.40593 377.37 3.60215 379.125 3.4732C377.967 3.44504 376.81 3.41689 375.653 3.38873C377.872 3.44222 381.961 3.3314 382.327 3.33112C383.442 3.33056 384.03 3.4138 385.239 3.41803C386.329 3.42164 386.179 3.35767 386.383 3.35992C392.267 3.42504 390.024 3.77133 392.772 3.36139C393.064 3.41738 393.356 3.47336 393.649 3.52935C394.038 3.48264 394.427 3.43593 394.817 3.38922C396.554 3.39361 398.292 3.39801 400.03 3.4024C399.45 3.33242 398.871 3.26243 398.291 3.19245C400.896 3.16121 402.111 3.30153 402.363 3.30475C403.077 3.31291 403.403 3.22484 403.624 3.22467C414.238 3.23228 407.791 3.30983 413.095 3.64068C414.987 3.51084 413.073 3.38068 412.805 3.2486C415.32 3.31056 416.104 3.27399 418.759 3.28131C419.45 3.28331 420.192 3.35457 420.628 3.35553C421.006 3.35637 422.186 3.28065 423.092 3.28034C424.602 3.27977 426.613 3.32491 428.681 3.32379C430.401 3.32266 435.664 3.26918 439.336 3.26862C440.903 3.26862 440.539 3.33196 440.944 3.33209C441.113 3.33209 442.333 3.25622 443.339 3.25592C451.536 3.25423 459.936 3.30225 468.174 3.30084C473.978 3.3 479.875 3.23898 485.69 3.24518C486.927 3.24659 486.272 3.30229 486.813 3.30426C486.998 3.30476 487.222 3.20757 489.135 3.24665C489.827 3.26074 489.031 3.32871 489.711 3.33209C490.042 3.33371 490.183 3.2485 492.116 3.22907C495.631 3.19358 497.52 3.30715 497.833 3.30377C498.425 3.29723 498.252 3.22672 499.036 3.22418C502.869 3.21179 506.07 3.19983 509.491 3.19391C511.089 3.19109 522.104 3.17684 522.709 3.18952C524.062 3.21769 522.802 3.36494 524.538 3.35992C525.024 3.32265 525.51 3.28538 525.997 3.24811C525.224 3.21979 524.452 3.19147 523.679 3.16315C525.806 3.21049 528.216 3.14353 529.791 3.14606C530.082 3.14664 532.759 3.21341 534.124 3.20612C533.544 3.23379 532.963 3.26146 532.383 3.28912C532.588 3.31272 532.793 3.33632 532.999 3.35992C535.729 3.32415 538.617 3.32507 541.417 3.33014C542.426 3.33187 542.085 3.3892 543.107 3.39117C549.061 3.40326 547.557 3.16487 553.285 3.61236C551.351 3.57179 544.296 3.62871 543.27 3.61382C542.555 3.60339 539.784 3.22528 540.801 3.61333C535.084 3.61164 540.05 3.39761 534.711 3.44439C534.817 3.49175 534.924 3.53912 535.031 3.58648C533.167 3.61633 531.79 3.64027 530.658 3.55669C530.278 3.78646 523.945 3.65203 520.472 3.66753C515.452 3.68951 509.781 3.74556 504.809 3.75542C503.096 3.75876 502.125 3.66871 501.91 3.669C501.596 3.66964 500.713 3.74851 500.086 3.74907C497.745 3.75132 490.622 3.618 488.85 3.83696C502.781 3.83696 516.713 3.83696 530.644 3.83696C528.893 3.72933 542.985 3.71882 543.699 3.72417C544.361 3.72898 543.804 3.80454 544.001 3.80913C545.465 3.84154 546.714 3.73198 547.179 3.73198C547.533 3.732 548.249 3.7834 549.509 3.78227C549.741 3.78211 549.805 3.72775 550.053 3.72759C551.698 3.72759 553.321 3.72836 554.97 3.72808C555.071 3.7286 555.487 3.80801 555.904 3.80815C556.321 3.80815 556.734 3.72881 556.84 3.72856C558.158 3.72913 560.419 3.78073 561.674 3.7813C562.109 3.78127 561.807 3.72312 562.295 3.72368C563.794 3.72509 563.3 3.83892 565.154 3.80962C565.775 3.79974 565.735 3.71269 566.924 3.72417C567.767 3.73234 567.676 3.88747 567.81 3.89311C567.994 3.89992 570.901 3.77741 571.852 3.87895C569.774 4.14701 574.125 3.89294 573.916 3.77983C575.068 3.80831 576.22 3.8368 577.371 3.86528C577.764 3.83663 578.157 3.80799 578.55 3.77934C583.198 3.90841 586.033 3.83092 590.605 3.87065C590.826 3.87262 594.678 3.9363 594.498 3.9766C592.192 4.04591 589.892 4.04908 588.416 3.92094C585.988 4.16527 585.946 3.97056 582.024 4.00297C580.712 4.01396 580.618 4.08025 580.467 4.08109C575.361 4.11406 567.183 4.14258 563.743 3.94877C562.779 4.00119 566.246 4.02198 564.898 4.06058C564.162 4.08173 546.47 4.14362 552.123 3.92045C551.536 3.92664 550.949 3.93282 550.363 3.93901C549.776 4.1498 546.859 4.10159 547.19 3.89164C546.913 3.93461 546.637 3.97758 546.36 4.02055C545.814 4.0569 545.168 4.07637 544.262 4.08793C540.792 4.13187 520.146 4.05875 519.048 4.0889C519.023 4.13871 518.998 4.18851 518.973 4.23831C528.094 4.29468 536.942 4.17091 546.888 4.31351C546.599 4.2668 546.311 4.22009 546.022 4.17337C549.99 4.2388 553.959 4.30423 557.928 4.36966C553.727 4.4542 547.045 4.5252 542.635 4.45559C541.852 4.44318 542.426 4.37804 542.246 4.37015C541.776 4.34965 541.27 4.46267 539.579 4.47366C537.889 4.48463 533.641 4.40451 533.252 4.40677C532.502 4.41142 530.476 4.54073 529.199 4.53909C527.52 4.53683 528.645 4.45679 528.308 4.4551C526.914 4.44724 525.665 4.4869 524.573 4.48098C522.952 4.47218 519.583 4.33144 518.45 4.53811C519.609 4.54755 520.767 4.55699 521.925 4.56643C515.645 4.64054 510.735 4.37635 504.547 4.5801C503.142 4.83035 508.254 4.79653 503.931 4.90333C504.716 4.89975 505.501 4.89617 506.286 4.89259C506.47 4.84018 506.654 4.78778 506.838 4.73537C508.19 4.7728 509.542 4.81024 510.894 4.84767C510.508 4.80096 510.122 4.75425 509.736 4.70754C514.529 4.67231 519.369 4.62441 521.042 4.8755C521.141 4.81479 521.24 4.75409 521.338 4.69338C525.788 4.76719 532.468 4.50988 531.22 4.84767C531.431 4.82977 531.642 4.81186 531.852 4.79396C534.542 4.863 533.393 4.72332 534.404 4.70754C534.693 4.70309 539.921 4.77522 537.604 4.8755C542.704 4.95215 541.131 4.63644 542.537 4.62258C545.802 4.77898 551.675 4.54437 549.206 4.79152C549.692 4.8008 550.178 4.81007 550.664 4.81935C552.262 4.62491 553.836 4.84491 555.568 4.91847C556.154 4.92286 556.741 4.92726 557.328 4.93165C557.72 4.86622 558.113 4.8008 558.506 4.73537C564.025 5.04677 562.278 4.19514 564.799 4.91066C564.406 4.95346 564.013 4.99627 563.62 5.03907C562.689 5.05941 561.758 5.07976 560.826 5.1001C564.583 5.11898 568.34 5.13786 572.097 5.15674C576.866 5.3573 579.58 5.1397 584.878 5.29834C585.374 5.2793 585.87 5.26025 586.365 5.24121C585.86 5.40325 583.936 5.37944 587.52 5.45214C587.826 5.56671 585.405 5.58153 584.302 5.49365C584.036 5.4722 586.299 5.38444 583.755 5.38135C582.026 5.37913 585.166 5.51681 579.985 5.46582C580.177 5.49381 580.369 5.5218 580.561 5.5498C579.999 5.54898 579.437 5.54817 578.875 5.54736C578.376 5.48258 577.876 5.4178 577.377 5.35303C576.093 5.44659 575.372 5.5777 572.438 5.5498C573.234 5.50922 572.155 5.37915 570.703 5.38135C570.703 5.42822 570.703 5.47509 570.703 5.52197C567.188 5.55212 568.401 5.4146 565.479 5.52197C565.187 5.48469 564.894 5.44742 564.602 5.41015C563.01 5.56374 557.149 5.66822 558.218 5.43798C556.574 5.66174 553.121 5.56078 551.837 5.38183C551.739 5.42838 551.64 5.47493 551.541 5.52148C550.858 5.53092 550.174 5.54036 549.491 5.5498C549.109 5.52164 548.728 5.49348 548.347 5.46533C547.863 5.49348 547.378 5.52164 546.894 5.5498C546.601 5.50309 546.309 5.45638 546.016 5.40966C545.238 5.46565 544.459 5.52164 543.681 5.57763C543.204 5.54036 542.728 5.50309 542.251 5.46582C542.202 5.56325 537.482 5.58494 536.164 5.52099C535.771 5.54931 535.378 5.57763 534.985 5.60595C534.793 5.55956 534.601 5.51318 534.409 5.46679C534.117 5.5039 533.824 5.54101 533.532 5.57812C532.858 5.54101 532.185 5.5039 531.511 5.46679C528.763 5.6942 528.674 5.49468 528.047 5.49609C526.884 5.4987 522.923 5.6411 522.261 5.63378C521.599 5.6264 521.28 5.54478 520.746 5.5371C511.945 5.40888 515.563 5.62791 513.797 5.66259C512.845 5.68147 512.17 5.60532 511.328 5.61376C509.888 5.62785 502.619 5.7286 502.201 5.71874C501.592 5.70451 503.026 5.34545 501.046 5.43798C500.981 5.63078 496.748 5.43619 498.727 5.70507C496.984 5.68147 495.241 5.65787 493.498 5.63427C493.695 5.86281 491.546 5.71582 489.205 5.7285C485.887 5.74628 478.418 5.89655 478.691 5.6621C477.896 5.71597 477.101 5.76984 476.307 5.82371C470.869 5.74991 465.537 5.82724 460.14 5.83006C444.123 5.8388 426.746 5.7879 410.805 5.74169C410.039 5.7394 410.149 5.66281 409.597 5.66112C406.698 5.65267 399.163 5.70684 395.102 5.68993C393.801 5.68457 393.168 5.60987 392.756 5.60644C391.355 5.59432 391.686 5.69275 391.041 5.68993C390.024 5.68541 384.644 5.59404 382.791 5.58446C381.874 5.57972 380.788 5.65793 379.714 5.63378C379.621 5.63182 379.792 5.55121 379.714 5.5498C377.756 5.53993 378.934 5.60961 378.271 5.60595C373.548 5.57974 368.5 5.57814 363.376 5.56152C362.104 5.55729 360.157 5.50047 359.065 5.49511C358.648 5.49322 359.395 5.55438 357.955 5.54931C357.462 5.54758 357.294 5.46804 356.737 5.46289C354.338 5.44119 353.535 5.69676 351.473 5.4912C347.494 5.50473 340.566 5.57036 336.936 5.57177C336.077 5.57201 335.658 5.52503 334.84 5.52587C334.259 5.52644 333.237 5.5992 332.331 5.60009C331.424 5.60093 329.994 5.53164 328.251 5.53417C326.416 5.53672 324.134 5.57788 323.72 5.57763C323.221 5.57763 322.988 5.4901 322.489 5.4912C320.978 5.49402 316.934 5.58005 314.988 5.58935C312.897 5.5992 311.641 5.55676 310.927 5.55761C310.265 5.55878 309.493 5.63264 309.191 5.63329C308.721 5.63442 308.61 5.5481 308.012 5.54882C307.037 5.55023 306.031 5.60451 304.567 5.60595C278.215 5.63272 252.378 5.5853 226.741 5.52245C223.883 5.51541 222.268 5.57594 218.056 5.54833C216.349 5.53706 217.068 5.44799 215.739 5.46484C215.146 5.47245 215.296 5.5425 214.547 5.54589C211.236 5.56054 207.377 5.49545 205.942 5.49658C205.373 5.49691 204.723 5.57647 203.556 5.57763C194.859 5.58665 184.57 5.56431 175.211 5.57812C170.256 5.58544 162.754 5.62598 157.066 5.63134C141.352 5.64627 124.446 5.62784 110.115 5.63573C88.4741 5.64729 66.9375 5.72086 45.3434 5.63378C55.446 5.82625 69.203 5.81019 80.4502 5.83104C112.937 5.89078 147.527 5.77896 180.822 5.78319C192.406 5.7846 207.011 5.78017 219.693 5.82469C220.269 5.82666 221.461 5.76548 222.704 5.77196C222.968 5.77347 226.243 5.88509 227.346 5.88621C226.3 5.68782 230.623 5.86464 231.959 5.85985C233.644 5.85361 237.159 5.75446 241.103 5.81053C244.681 5.86126 243.694 5.93757 243.892 5.94236C245.157 5.97329 245.599 5.8503 246.569 5.83787C250.531 5.78828 270.911 5.85973 276.599 5.86424C278.068 5.86537 278.11 5.94355 278.441 5.94383C279.318 5.94435 280.567 5.86713 281.972 5.86766C284.505 5.86879 287.422 5.94257 288.816 5.94285C292.151 5.94369 298.479 5.85665 302.813 5.85496C304.031 5.85446 303.957 5.93581 304.509 5.93553C306.937 5.9341 313.264 5.83823 316.278 5.83739C321.176 5.83598 326.213 5.88857 331.192 5.8618C331.508 5.89809 331.823 5.93439 332.139 5.97068C332.636 5.9326 333.134 5.89451 333.632 5.85643C342.05 5.88545 350.619 5.80371 358.99 5.80907C359.955 5.80963 364.729 5.87909 365.525 5.87938C366.188 5.87938 366.84 5.78947 367.821 5.80272C369.197 5.8211 367.902 5.99231 370.149 5.94334C370.753 5.9301 370.168 5.85681 371.381 5.83397C371.782 5.82636 379.562 5.79667 379.98 5.80174C380.677 5.81029 381.299 5.9673 381.479 5.97068C382.414 5.9884 382.374 5.86791 383.002 5.85692C384.853 5.82402 387.271 5.90508 387.572 5.9033C391.209 5.88104 398.007 5.78485 401.824 5.84178C402.352 5.84972 402.289 5.93945 402.382 5.94236C402.98 5.96095 403.351 5.85879 403.92 5.85643C406.982 5.84487 411.776 5.91366 414.855 5.93113C415.21 5.93304 415.958 5.88389 416.591 5.88865C420.17 5.91627 419.009 5.99513 419.212 5.99851C419.694 6.00688 420.542 5.91991 421.825 5.91453C425.131 5.90016 431.47 5.91265 435.014 5.91941C437.669 5.92477 437.629 6.02437 437.803 6.02634C438.175 6.02992 439.21 5.9504 440.957 5.94139C444.32 5.92364 443.937 6.00189 445.32 5.99851C445.436 5.99851 445.234 5.92193 446.768 5.91404C449.731 5.89885 456.387 5.97413 459.559 5.97019C460.779 5.96879 461.064 5.89495 462.313 5.89354C464.293 5.89101 468.763 5.97089 469.115 5.97068C469.214 5.97068 469.436 5.88572 470.017 5.88572C470.656 5.88574 471.284 5.92946 471.76 5.92918C474.473 5.92801 479.147 5.77974 477.848 6.08298C478.717 6.00812 479.587 5.93325 480.456 5.85838C486.138 5.87332 491.657 5.84333 497.287 5.82811C498.553 5.82474 499.61 5.88216 500.678 5.87938C501.747 5.87656 506.461 5.78155 507.249 5.77977C508.654 5.77667 516.644 5.76666 517.637 5.77342C519.577 5.78639 521.46 5.91171 522.25 5.88719C522.883 5.86746 522.298 5.79685 523.506 5.77684C525.598 5.74223 529.152 5.83294 529.791 5.83153C530.064 5.83095 529.553 5.77591 532.108 5.77196C533.485 5.7697 534.224 5.83034 534.724 5.83006C534.879 5.82974 534.646 5.73141 537.372 5.74462C539.254 5.75391 540.057 5.82978 540.254 5.83006C540.551 5.83057 541.266 5.74961 542.457 5.75243C545.24 5.75949 550.327 5.85231 552.971 5.85936C553.482 5.86077 553.308 5.76296 555.346 5.77196C556.804 5.77844 556.55 5.85624 557.096 5.85936C557.961 5.86415 559.251 5.76887 561.162 5.77196C563.567 5.7759 581.426 5.87473 582.35 5.90037C582.971 5.91756 583.692 5.91865 584 5.96092C583.736 6.00144 583.472 6.04197 583.208 6.0825C580.473 5.94028 581.577 6.10282 580.851 6.11326C579.8 6.12819 575.837 6.10746 574.878 6.14353C574.537 6.15656 575.319 6.24306 573.484 6.28757C571.515 6.33515 570.639 6.18114 569.855 6.39157C567.06 6.15795 564.376 6.40591 567.612 6.47213C569.419 6.50906 587.138 6.59247 590.757 6.60543C593.691 6.61584 599.186 6.55324 602.794 6.5693C604.914 6.57888 610.136 6.58974 609.916 6.70162C611.798 6.71571 609.806 6.60433 610.201 6.58883C611.027 6.55646 616.902 6.63338 618.014 6.63033C623.498 6.61568 630.419 6.49061 635.746 6.63179C635.498 6.66174 635.25 6.69169 635.002 6.72164C633.805 6.77659 628.251 6.69803 627.624 6.84175C635.746 6.84175 643.868 6.84175 651.99 6.84175C651.839 6.71944 661.913 6.72109 662.389 6.77632C662.212 6.83556 662.036 6.89481 661.859 6.95405C656.166 6.72922 656.677 7.02641 652.854 6.8686C651.298 6.86638 651.768 6.96426 651.001 6.98286C643.369 7.16767 650.879 6.782 645.036 6.86958C646.795 7.01156 642.01 7.06345 639.866 7.08149C639.378 7.08543 632.969 7.04945 632.207 7.0517C627.932 7.06439 620.589 7.14217 616.342 7.0644C612.996 7.0551 611.154 7.15623 608.116 7.17963C605.81 7.19738 606.471 7.1263 605.385 7.12543C603.108 7.12346 602.359 7.33985 600.9 7.03803C599.357 7.07563 597.813 7.11323 596.269 7.15082C596.269 7.10395 596.269 7.05707 596.269 7.0102C595.299 7.0102 594.329 7.0102 593.36 7.0102C593.074 7.05691 592.789 7.10362 592.504 7.15033C589.426 7.08636 590.711 6.97349 590.136 6.84077C589.471 6.83166 588.806 6.82254 588.141 6.81343C587.627 6.91531 587.112 7.0172 586.597 7.11908C583.629 7.11078 580.66 7.10248 577.691 7.09418C577.499 7.04747 577.308 7.00076 577.115 6.95405C577.109 7.00076 577.103 7.04747 577.097 7.09418C572.069 7.10379 567.042 7.11339 562.015 7.12299C560.678 7.19793 568.733 7.25471 569.343 7.25922C572.736 7.28401 581.746 7.20888 581.758 7.37542C583.867 7.25116 590.217 7.28202 592.192 7.43109C589.194 7.42214 586.196 7.41318 583.198 7.40423C583.295 7.46006 583.391 7.51588 583.488 7.57171C579.753 7.34655 579.206 7.35894 575.366 7.57171C575.363 7.49684 575.359 7.42197 575.356 7.34711C572.678 7.60744 567.945 7.16583 567.81 7.48724C566.384 7.4612 564.958 7.43516 563.532 7.40911C560.454 7.44829 565.234 7.69548 553.181 7.59856C552.35 7.5918 552.524 7.50993 551.275 7.51556C550.914 7.51725 548.852 7.63635 544.907 7.62395C544.291 7.62197 544.245 7.55094 543.606 7.54192C542.13 7.52051 539.192 7.66099 540.526 7.43206C534.683 7.3653 537.104 7.55318 535.292 7.62786C534.084 7.67742 534.327 7.54197 533.281 7.57268C531.987 7.61077 532.937 7.74732 527.756 7.6845C528.338 7.67522 528.919 7.66594 529.5 7.65667C529.208 7.61956 528.915 7.58245 528.623 7.54534C525.666 7.63438 525.946 7.50428 524.551 7.71282C522.402 7.61982 520.542 7.61242 517.602 7.62932C511.892 7.66229 514.819 7.88703 508.302 7.5844C507.246 7.62688 506.19 7.66936 505.134 7.71184C503.398 7.62251 504.802 7.51076 502.212 7.48821C504.239 7.70887 498.773 7.62841 497.849 7.82512C497.752 7.77824 497.655 7.73137 497.559 7.6845C496.98 7.6845 496.401 7.6845 495.823 7.6845C495.821 7.72209 495.819 7.75969 495.817 7.79729C495.047 7.76913 494.276 7.74097 493.506 7.71282C492.926 7.75009 492.347 7.78736 491.767 7.82463C490.814 7.74602 489.861 7.66741 488.909 7.5888C488.31 7.58343 487.712 7.57805 487.114 7.57268C487.303 7.62867 487.493 7.68466 487.682 7.74065C486.913 7.72193 486.144 7.70321 485.375 7.6845C486.27 7.77637 485.708 7.88409 483.314 7.88127C481.339 7.87901 483.564 7.68726 479.317 7.76701C479.021 7.7727 478.497 7.90945 474.483 7.93058C469.669 7.95592 472.008 7.85687 471.15 7.85344C470.981 7.85287 469.511 7.9217 468.134 7.93156C467.353 7.93718 466.6 7.88161 466.497 7.88176C466.015 7.88429 465.874 7.9629 465.206 7.96574C463.51 7.9725 461.233 7.93398 459.572 7.93791C458.817 7.9396 458.106 7.98617 457.769 7.98673C457.247 7.98727 456.584 7.91614 456.055 7.91642C454.103 7.91791 451.141 8.15392 450.234 7.82609C448.358 8.12754 444.427 7.76308 444.714 7.96525C439.7 7.88895 426.326 8.13697 426.718 7.79729C423.878 8.08773 424.132 7.87739 422.943 7.88176C421.612 7.88655 422.301 7.94288 421.244 7.94035C418.775 7.93443 416.416 7.91023 413.959 7.9091C414.345 7.86255 414.731 7.816 415.117 7.76946C412.537 7.75452 413.425 7.86285 410.794 7.88371C405.955 7.92175 407.994 7.83532 407.28 7.7133C407.472 7.8311 401.765 7.81279 401.184 7.79729C400.838 7.78784 402.356 7.63601 398.862 7.68499C399.053 7.7317 399.244 7.77841 399.435 7.82512C397.843 7.76123 393.519 7.8423 392.785 7.82658C392.448 7.81926 390.646 7.44255 388.996 7.74065C388.797 7.69394 388.598 7.64723 388.398 7.60052C386.567 7.65667 384.735 7.71282 382.903 7.76897C382.61 7.68482 382.318 7.60068 382.026 7.51653C381.444 7.51653 380.863 7.51653 380.282 7.51653C380.668 7.59124 381.053 7.66594 381.439 7.74065C377.85 7.70684 373.465 7.82464 372.725 7.57268C371.956 7.61939 371.187 7.66611 370.418 7.71282C369.918 7.629 369.418 7.54518 368.917 7.46136C365.357 7.4825 365.298 7.53853 362.864 7.62786C362.959 7.56243 363.055 7.497 363.15 7.43158C361.354 7.52344 358.077 7.60898 355.486 7.62053C354.255 7.62586 352.14 7.5357 351.849 7.54388C351.555 7.55249 348.667 7.90672 348.353 7.60003C344.101 7.73586 342.229 7.59713 340.503 7.60052C339.382 7.60279 338.871 7.6764 337.605 7.68401C335.792 7.695 333.968 7.65941 332.923 7.66448C332.324 7.66758 332.212 7.73937 331.8 7.74162C329.85 7.75258 330.992 7.67922 328.936 7.68401C328.747 7.68484 327.243 7.77241 325.55 7.76115C324.603 7.75493 322.152 7.65643 321.937 7.65667C320.978 7.65836 321.744 7.85528 318.468 7.62786C318.563 7.66529 318.658 7.70273 318.753 7.74016C314.698 7.83513 314.058 7.66822 313.239 7.65667C313.134 7.65572 312.147 7.72024 311.556 7.71135C310.558 7.69615 310.156 7.60782 309.935 7.60393C309.156 7.59041 306.534 7.62926 304.821 7.54388C305.181 7.79525 299.175 7.88465 297.845 7.60003C296.782 7.65618 295.719 7.71233 294.656 7.76848C294.175 7.72161 293.694 7.67473 293.213 7.62786C292.921 7.67457 292.628 7.72128 292.336 7.76799C290.787 7.66513 289.238 7.56227 287.688 7.45941C287.59 7.56243 287.491 7.66545 287.393 7.76848C286.959 7.75676 286.525 7.74504 286.091 7.73332C285.753 7.65146 285.414 7.56959 285.075 7.48773C284.533 7.50335 283.991 7.51897 283.449 7.5346C283.314 7.59384 283.18 7.65309 283.046 7.71233C280.131 7.78062 281.629 7.21558 276.076 7.71233C275.212 7.66562 274.348 7.61891 273.484 7.5722C272.508 7.79953 270.68 7.66188 269.204 7.68743C268.165 7.70546 268.221 7.79577 266.805 7.79777C265.387 7.79975 265.438 7.71338 265.327 7.71282C264.172 7.7075 263.301 7.78365 262.453 7.76848C262.325 7.76622 262.005 7.66366 260.925 7.65715C259.844 7.65067 259.193 7.75975 257.584 7.73918C256.759 7.72875 256.521 7.64234 255.789 7.63469C252.304 7.5975 248.794 8.03509 246.179 7.51605C245.59 7.58181 241.316 7.81199 239.487 7.79875C236.642 7.77761 237.738 7.6758 236.607 7.65715C236.444 7.65434 235.578 7.68873 233.191 7.68254C232.764 7.68142 232.863 7.73891 232.802 7.73967C230.019 7.73854 224.616 7.69316 221.56 7.68499C221.287 7.68414 219.857 7.84437 217.435 7.62883C213.845 7.78804 207.083 7.44599 202.348 7.68596C201.692 7.69103 200.895 7.63372 200.604 7.63567C198.1 7.65342 199.018 7.82744 193.359 7.57268C193.817 7.66143 192.494 7.74154 190.624 7.73479C187.812 7.72464 189.809 7.55916 187.549 7.57268C187.549 7.61939 187.549 7.66611 187.549 7.71282C182.35 7.58717 181.316 7.78688 176.099 7.78801C174.223 7.78829 171.451 7.68478 171.004 7.6845C170.831 7.6848 168.778 7.79742 168.582 7.79826C167.479 7.80164 166.855 7.74972 165.903 7.74944C162.754 7.74834 158.997 7.89484 159.676 7.62883C158.811 7.68499 157.945 7.74114 157.079 7.79729C153.808 7.51322 151.363 7.90473 150.677 7.62883C150.092 7.6858 149.507 7.74276 148.923 7.79973C134.894 7.77092 120.866 7.74211 106.838 7.7133C106.28 7.80207 100.162 7.77057 99.8488 7.75676C98.4083 7.69419 99.9298 7.50061 96.9903 7.54485C96.665 7.62965 96.3397 7.71444 96.0144 7.79924C92.3197 7.82685 94.0968 7.74247 92.6386 7.68499C92.0293 7.69544 92.2261 7.76125 91.4014 7.76604C86.9281 7.79224 77.7557 7.79535 72.8641 7.8007C71.8777 7.80183 72.0265 7.74032 71.7201 7.74016C70.878 7.74072 69.2159 7.81824 67.5258 7.81828C57.0747 7.81772 42.2654 7.774 31.7444 7.70891C31.0298 7.7044 30.9413 7.63103 30.4591 7.62737C29.7909 7.6226 28.2982 7.68191 27.5953 7.67571C26.9333 7.67007 26.5092 7.61435 25.8008 7.60784C22.5591 7.5774 18.2006 7.67155 14.7323 7.50726C14.4406 7.4934 10.8068 7.19803 10.7246 7.17865C10.2424 7.06367 13.4715 6.88304 8.16741 6.7148C12.908 6.56798 11.4271 6.30843 5.26895 6.18161C8.35762 6.1489 11.4463 6.11619 14.5349 6.08347C14.5394 6.05271 14.5438 6.02195 14.5483 5.99119C11.7366 5.83874 8.94706 5.78801 4.67166 5.77391C4.80499 5.74543 4.93831 5.71695 5.07163 5.68846C8.84782 5.54615 13.4031 5.51985 16.2788 5.32568C12.0613 5.18197 7.84388 5.03826 3.6264 4.89454C3.83705 4.87208 4.04771 4.84962 4.25836 4.82716C6.28008 4.76883 10.6961 4.73458 12.3751 4.68019C18.7875 4.47281 6.76285 4.52499 8.73803 4.39847C15.5082 4.40302 22.2784 4.40758 29.0486 4.41214C29.2859 4.31896 3.24079 4.0616 3.50908 3.78032C5.63692 3.76144 7.76477 3.74256 9.89262 3.72368C8.94424 3.65223 7.99586 3.58078 7.04749 3.50933C7.3088 3.48671 7.57012 3.46409 7.83143 3.44146C11.4214 3.38596 15.0114 3.33046 18.6013 3.27496C7.68658 3.33075 2.6144 3.29026 0 2.72762C0.295979 2.7133 0.591957 2.69897 0.887936 2.68465C3.25243 3.03663 14.4136 2.92278 20.3452 2.85261C19.1362 2.74951 13.9135 2.82916 12.8097 2.76717C12.497 2.74939 13.5877 2.67783 12.8631 2.6412C10.9692 2.54595 2.89891 2.4234 4.0717 2.30673C4.82695 2.23177 17.8122 2.12893 20.3452 2.13682C14.408 2.00211 8.2905 1.96315 2.33583 1.79942C6.09448 1.57116 9.42328 1.29182 16.2842 1.27942C18.3754 1.15965 3.85136 0.993736 3.51441 0.928357C6.02801 0.858209 8.5416 0.788062 11.0552 0.717914C8.92913 0.736631 6.80306 0.755348 4.67699 0.774065C4.67077 0.750628 4.66455 0.727191 4.65833 0.703754C10.1658 0.594976 15.2044 0.395315 21.5078 0.408842C21.3044 0.284846 17.5329 0.297179 15.7029 0.296052ZM618.886 7.34857C619.013 7.45138 616.702 7.43453 615.401 7.43255C615.596 7.45127 615.792 7.46999 615.987 7.4887C613.21 7.46926 608.041 7.4298 607.849 7.62932C605.868 7.65412 606.744 7.48062 606.105 7.46087C605.856 7.45298 603.27 7.55396 601.202 7.43109C600.71 7.43158 600.219 7.43206 599.727 7.43255C599.632 7.49798 599.537 7.56341 599.442 7.62883C598.757 7.54941 598.071 7.46999 597.386 7.39056C604.549 7.37656 611.712 7.36257 618.875 7.34857C618.879 7.34857 618.882 7.34857 618.886 7.34857ZM547.486 7.43304C544.877 7.39612 540.882 7.33783 541.689 7.51702C543.336 7.50758 544.984 7.49814 546.632 7.4887C546.917 7.47015 547.201 7.45159 547.486 7.43304ZM287.992 7.29193C285.814 7.11552 283.808 7.26811 280.438 7.23627C280.443 7.27354 280.447 7.31081 280.452 7.34808C281.83 7.25859 285.472 7.31813 287.992 7.29193ZM683.612 6.67427C684.092 6.68811 684.572 6.70194 685.052 6.71578C683.1 6.91614 682.75 6.77494 680.543 6.79439C680.41 6.7956 680.456 6.84147 680.409 6.84175C679.869 6.84484 679.369 6.78964 678.881 6.79048C677.94 6.79217 677.173 6.84812 675.506 6.84614C674.216 6.84443 674.204 6.75649 673.751 6.75874C673.365 6.76092 669.539 7.00285 667.077 6.89839C662.394 6.69943 682.183 6.65567 683.612 6.67427ZM697.491 6.8398C697.028 6.84061 696.565 6.84142 696.102 6.84224C697.494 6.70706 694.684 6.7276 692.622 6.73042C692.686 6.60079 697.048 6.65624 699 6.61764C698.497 6.69169 697.994 6.76574 697.491 6.8398ZM638.93 6.56197C640.742 6.54876 640.44 6.71056 640.364 6.75874C639.787 6.75874 639.211 6.75874 638.634 6.75874C638.732 6.69315 638.831 6.62756 638.93 6.56197ZM652.558 6.50582C651.994 6.61573 648.061 6.66379 646.196 6.67281C646.114 6.67283 646.627 6.61251 645.308 6.61812C644.912 6.61988 641.016 6.83936 641.873 6.59029C645.433 6.56214 648.993 6.53398 652.553 6.50582C652.555 6.50582 652.556 6.50582 652.558 6.50582ZM656.531 6.57076C655.79 6.60527 655.049 6.63977 654.307 6.67427C653.924 6.62268 653.541 6.57109 653.158 6.51949C654.001 6.50647 654.845 6.49345 655.688 6.48043C655.969 6.51054 656.25 6.54065 656.531 6.57076ZM98.8142 6.42428C98.9866 6.47946 99.159 6.53463 99.3315 6.5898C99.9996 6.62362 103.248 6.38338 102.219 6.33688C101.084 6.36602 99.9492 6.39515 98.8142 6.42428ZM85.0978 6.30856C84.4223 6.28073 83.7468 6.2529 83.0713 6.22507C82.2945 6.31865 81.5176 6.41224 80.7408 6.50582C84.1154 6.56893 87.706 6.64165 87.127 6.36569C87.8994 6.36569 88.6718 6.36569 89.4442 6.36569C88.7937 6.47979 88.8812 6.51739 90.9027 6.5898C91.3449 6.43103 93.4351 6.51192 95.8277 6.47701C94.0874 6.46774 92.3471 6.45846 90.6068 6.44918C90.6068 6.42119 90.6068 6.3932 90.6068 6.3652C94.4859 6.37532 89.6646 6.19775 87.1377 6.30905C86.9386 6.27178 86.7395 6.23451 86.5404 6.19724C86.0596 6.23435 85.5787 6.27145 85.0978 6.30856ZM365.486 6.3652C365.005 6.33704 364.524 6.30889 364.043 6.28073C362.179 6.64746 365.973 6.29958 368.675 6.5898C367.782 6.36933 371.9 6.37855 372.136 6.36374C371.662 6.28952 371.188 6.2153 370.714 6.14109C368.971 6.21579 367.228 6.2905 365.486 6.3652ZM351.854 6.11228C353.522 6.29517 345.331 6.30638 342.583 6.26608C341.915 6.25617 340.724 6.15575 340.242 6.16843C339.95 6.20554 339.657 6.24265 339.365 6.27975C339.018 6.1515 333.653 6.2957 331.539 6.36471C331.34 6.318 331.14 6.27129 330.941 6.22458C330.171 6.24313 329.4 6.26169 328.629 6.28024C328.726 6.2337 328.823 6.18715 328.92 6.1406C328.337 6.19659 327.754 6.25257 327.171 6.30856C324.882 6.37084 326.293 6.11707 324.574 6.19626C322.662 6.28419 325.794 6.4353 325.736 6.53365C327.288 6.50829 330.815 6.45151 332.389 6.44869C333.293 6.44718 332.269 6.62339 336.165 6.42086C337.019 6.46806 337.873 6.51526 338.727 6.56246C340.295 6.48743 341.863 6.4124 343.431 6.33737C343.724 6.40264 344.016 6.4679 344.308 6.53317C344.476 6.54338 348.102 6.39519 347.908 6.34616C349.377 6.47092 352.392 6.49316 355.569 6.49947C355.875 6.46399 356.18 6.42851 356.486 6.39303C353.414 6.46966 355.509 6.35549 354.593 6.28757C354.064 6.2484 352.447 6.17146 351.854 6.11228ZM120.218 6.28122C115.059 6.44043 118.253 6.30906 112.677 6.30905C113.066 6.39336 113.456 6.47767 113.845 6.56197C116.587 6.40794 121.098 6.51037 120.223 6.28122C120.222 6.28122 120.22 6.28122 120.218 6.28122ZM65.6539 6.56148C68.6047 6.51048 67.1239 6.37937 70.8642 6.33737C70.866 6.33737 70.8678 6.33737 70.8695 6.33737C68.9354 6.32793 67.0014 6.31849 65.0673 6.30905C65.2628 6.3932 65.4583 6.47734 65.6539 6.56148ZM238.151 6.45944C240.98 6.49607 240.423 6.43047 242.99 6.56148C246.813 6.40255 243.577 6.42502 243.577 6.28073C242.703 6.32305 241.83 6.36536 240.956 6.40768C238.838 6.27275 240.847 6.20483 240.847 6.19187C240.845 6.19187 240.843 6.19187 240.841 6.19187C240.841 6.14856 240.91 6.13944 240.097 6.11326C239.448 6.22865 238.8 6.34404 238.151 6.45944ZM250.259 6.28122C249.289 6.37703 248.853 6.50005 251.403 6.56148C251.405 6.56148 251.407 6.56148 251.408 6.56148C251.613 6.34735 254.058 6.52019 255.173 6.50582C255.466 6.48255 255.758 6.45927 256.051 6.436C254.12 6.38441 252.19 6.33281 250.259 6.28122ZM292.923 6.08445C292.934 6.321 290.793 6.34351 293.805 6.56148C294.39 6.55725 294.975 6.55302 295.56 6.54879C295.944 6.49687 296.328 6.44495 296.712 6.39303C304.131 6.82109 306.342 6.0922 293.805 6.36471C293.804 6.36488 293.802 6.36504 293.8 6.3652C293.508 6.27162 293.215 6.17803 292.923 6.08445ZM279.857 6.10447C279.763 6.22865 279.669 6.35283 279.574 6.47701C277.936 6.17745 275.82 6.46328 272.607 6.25192C272.316 6.28968 272.026 6.32744 271.735 6.3652C270.534 6.28211 258.741 6.25817 261.296 6.44918C262.411 6.5326 264.841 6.4193 265.05 6.42184C265.759 6.43121 266.683 6.5379 267.879 6.5317C268.571 6.52797 270.028 6.40257 271.439 6.4028C274.593 6.40336 280.351 6.74004 284.499 6.42135C284.798 6.45879 285.097 6.49622 285.395 6.53365C288.473 6.51081 287.446 6.3922 290.31 6.53365C292.288 5.94381 278.797 6.56275 281.606 6.08445C281.604 6.08445 281.603 6.08445 281.601 6.08445C281.02 6.09112 280.438 6.09779 279.857 6.10447ZM195.109 6.28122C194.923 6.1753 191.353 6.33873 192.191 6.08494C191.026 6.17331 189.861 6.26169 188.696 6.35007C188.705 6.37366 188.713 6.39726 188.722 6.42086C189.88 6.40231 191.039 6.38376 192.197 6.3652C192.201 6.40264 192.206 6.44007 192.21 6.4775C193.936 6.34208 201.138 6.40107 200.919 6.53365C201.304 6.47767 201.688 6.42168 202.073 6.36569C205.518 6.51815 208.482 6.35605 212.235 6.50485C212.526 6.45846 212.817 6.41208 213.107 6.36569C213.297 6.40312 213.486 6.44056 213.675 6.47799C215.042 6.48271 216.409 6.48743 217.776 6.49215C222.231 6.34142 213.575 6.14629 212.526 6.16843C212.387 6.17153 212.408 6.26844 211.537 6.28366C209.989 6.31038 201.326 6.21388 198.647 6.2778C198.624 6.21351 198.601 6.14922 198.578 6.08494C197.421 6.15036 196.265 6.21579 195.109 6.28122ZM309.476 6.33737C309.672 6.4028 309.867 6.46823 310.063 6.53365C313.437 6.46831 315.562 6.52543 314.697 6.30905C314.695 6.30905 314.694 6.30905 314.692 6.30905C312.953 6.31849 311.215 6.32793 309.476 6.33737ZM560.266 6.39303C560.178 6.26297 558.564 6.21435 556.48 6.30759C556.58 6.34535 556.68 6.3831 556.781 6.42086C557.867 6.31011 559.223 6.50315 562.575 6.4775C562.575 6.41208 562.575 6.34665 562.575 6.28122C561.806 6.31849 561.036 6.35576 560.266 6.39303ZM306.564 6.30905C305.536 6.2319 302.649 6.46595 304.549 6.4775C306.001 6.48623 307.116 6.35048 306.564 6.30905ZM54.0467 6.43502C54.8094 6.44869 55.572 6.46237 56.3346 6.47604C56.7319 6.42038 57.1292 6.36471 57.5265 6.30905C57.5247 6.30905 57.5229 6.30905 57.5212 6.30905C56.363 6.35104 55.2049 6.39303 54.0467 6.43502ZM228.479 6.47018C231.066 6.46204 233.652 6.4539 236.239 6.44577C236.265 6.40947 236.29 6.37318 236.316 6.33688C233.725 6.46933 232.683 6.32658 232.079 6.31784C232.082 6.31784 232.085 6.31784 232.087 6.31784C230.147 6.2891 228.299 6.26796 226.464 6.22458C227.136 6.30645 227.807 6.38831 228.479 6.47018ZM219.613 6.24118C220.049 6.49763 220.618 6.52749 224.592 6.34714C224.434 6.31556 224.277 6.28399 224.12 6.25241C222.061 6.27128 220.86 6.33049 221.221 6.19675C220.685 6.21156 220.149 6.22637 219.613 6.24118ZM260.117 6.32321C259.64 6.24157 255.856 6.32356 256.061 6.36471C256.143 6.38106 261.047 6.48328 260.117 6.32321ZM588.997 6.33639C588.125 6.31768 587.253 6.29896 586.381 6.28024C587.541 6.25241 588.701 6.22458 589.861 6.19675C589.573 6.2433 589.285 6.28985 588.997 6.33639ZM598.57 5.97166C599.191 6.00435 597.171 6.23491 600.887 6.2944C598.182 6.29929 595.478 6.30417 592.773 6.30905C594.041 6.27178 595.31 6.23451 596.578 6.19724C596.357 6.131 596.135 6.06475 595.914 5.99851C596.799 5.98956 597.685 5.98061 598.57 5.97166ZM601.474 6.1406C600.017 5.96536 607.687 5.9522 608.401 5.97361C608.56 5.9787 609.317 6.11156 609.596 6.14011C608.438 6.14027 607.279 6.14044 606.121 6.1406C606.509 6.18243 606.896 6.22426 607.284 6.26608C605.929 6.28041 604.573 6.29473 603.218 6.30905C603.797 6.26706 604.376 6.22507 604.956 6.18308C603.795 6.16892 602.635 6.15476 601.474 6.1406ZM570.703 6.18308C571.672 6.18747 572.642 6.19187 573.612 6.19626C573.418 6.13083 573.224 6.06541 573.03 5.99998C572.45 5.99998 571.87 5.99998 571.289 5.99998C571.094 6.06101 570.898 6.12205 570.703 6.18308ZM590.461 6.09861C589.049 6.41363 585.202 5.72494 589.699 5.97996C590.152 6.00589 590.595 6.06817 590.461 6.09861ZM611.276 6.01121C614.291 5.78153 613.61 6.28862 610.764 6.14011C610.621 6.13221 611.049 6.02817 611.276 6.01121ZM633.882 6.00388C634.126 6.00559 634.553 6.16978 636.884 6.01365C637.269 6.03237 637.654 6.05108 638.039 6.0698C637.138 6.14609 629.434 6.19147 630.498 6.02879C631.678 6.02625 632.662 5.99881 633.882 6.00388ZM626.421 5.39648C625.265 5.40104 624.109 5.4056 622.952 5.41015C623.333 5.46158 623.715 5.51301 624.096 5.56444C623.527 5.57844 622.958 5.59244 622.389 5.60644C621.417 5.51773 620.445 5.42903 619.472 5.34033C621.986 5.32617 624.5 5.31201 627.013 5.29785C626.816 5.33073 626.619 5.3636 626.421 5.39648ZM595.677 5.26953C597.902 5.33407 600.628 5.26538 604.242 5.27637C604.243 5.27653 604.245 5.27669 604.247 5.27686C604.427 5.27761 604.747 5.34826 605.327 5.35107C605.821 5.35332 615.58 5.27574 614.819 5.3955C611.043 5.50286 609.633 5.33964 608.727 5.60595C608.543 5.5498 608.359 5.49365 608.174 5.4375C604.544 5.34027 603.508 5.53465 601.468 5.60595C601.477 5.56363 601.484 5.52131 601.492 5.479C600.131 5.47477 598.769 5.47054 597.407 5.4663C597.599 5.49413 597.791 5.52197 597.983 5.5498C597.502 5.5498 597.02 5.5498 596.538 5.5498C595.365 5.42441 593.877 5.39518 595.677 5.26953ZM631.666 5.4663C632.735 5.14533 643.152 5.36519 647.91 5.29785C645.412 5.49112 641.542 5.35793 638.818 5.35596C633.551 5.35231 637.191 5.4706 636.298 5.52245C635.856 5.5481 632.869 5.34231 631.666 5.4663ZM587.549 5.32568C590.175 5.35161 591.646 5.27771 593.917 5.3955C593.727 5.41894 593.536 5.44238 593.346 5.46582C592.568 5.44436 586.226 5.37666 587.549 5.32568ZM654.883 5.38183C649.812 5.26657 652.313 5.55719 649.676 5.33935C651.411 5.32552 653.147 5.31169 654.883 5.29785C654.883 5.32585 654.883 5.35384 654.883 5.38183ZM300.759 5.10157C298.622 5.09423 296.235 5.03565 294.957 5.15674C296.41 5.17546 297.862 5.19418 299.314 5.21289C299.796 5.17578 300.278 5.13868 300.759 5.10157ZM361.71 3.9185C361.222 3.88947 359.292 3.97514 359.089 3.97514C358.711 3.97514 358.814 3.93294 358.809 3.92192C356.336 3.92956 358.617 4.06045 356.787 4.0889C356.475 4.0936 352.176 4.0289 350.428 4.03422C347.738 4.04239 345.052 4.03392 344.047 4.03617C342.351 4.03986 339.201 4.13803 336.413 4.1431C335.263 4.14503 334.862 4.06642 333.706 4.0684C326.288 4.08164 311.683 4.18956 305.101 4.13968C303.474 4.12729 301.923 4.02436 301.064 4.03275C300.385 4.07035 299.707 4.10795 299.029 4.14554C296.943 3.8071 296.246 4.10812 293.997 4.13968C292.569 4.15963 291.901 4.05936 291.71 4.05961C290.438 4.06158 289.81 4.10932 288.811 4.11722C287.69 4.12596 286.079 4.08073 285.678 4.0889C285.432 4.09438 286.218 4.22766 281.868 4.22513C277.434 4.2225 273.057 4.20841 268.548 4.20218C270.052 4.60456 271.347 4.32917 273.188 4.31448C273.682 4.31054 273.369 4.37443 273.799 4.37161C275.013 4.36399 277.338 4.30122 278.342 4.31644C279.428 4.33285 279.057 4.48092 280.433 4.4263C280.503 4.42348 280.282 4.36232 280.606 4.35208C283.86 4.25091 284.925 4.35728 289.038 4.36038C291.763 4.36262 308.314 4.30194 308.882 4.34183C311.844 4.556 294.405 4.55746 292.365 4.54055C291.652 4.53461 292.4 4.46709 291.75 4.45413C291.474 4.44895 288.995 4.5777 286.545 4.5884C283.582 4.60136 277.628 4.51354 274.804 4.51663C250.532 4.5434 226.597 4.46559 202.348 4.46389C201.831 4.46389 201.15 4.54103 199.466 4.54104C168.024 4.53963 135.437 4.47881 103.595 4.51516C96.653 4.52306 89.768 4.5956 82.762 4.53811C81.8927 4.59442 81.0235 4.65074 80.1542 4.70705C82.3776 4.66227 86.452 4.78965 86.823 4.79152C86.9566 4.79208 87.7997 4.72858 89.1589 4.73195C91.0702 4.73646 91.9085 4.79152 92.0653 4.79152C92.5514 4.7917 92.2329 4.73313 92.6973 4.73342C96.1598 4.73595 98.8388 4.71933 102.017 4.71877C105.606 4.71822 107.426 4.8273 110.04 4.70754C110.336 4.75425 110.632 4.80096 110.928 4.84767C112.881 4.64566 124.511 4.66802 129.223 4.67873C130.709 4.68214 130.448 4.76418 130.948 4.76418C131.267 4.76408 131.141 4.65666 135.03 4.67775C136.988 4.68846 137.501 4.76671 138.483 4.76418C139.017 4.76268 138.93 4.68508 139.697 4.68508C144.129 4.68508 147.748 4.71025 152.088 4.72463C153.308 4.72857 153.321 4.79334 153.594 4.7925C154.599 4.7896 156.348 4.67991 158.903 4.68019C163.109 4.68076 171.492 4.68113 174.931 4.73439C175.437 4.74228 175.855 4.81999 176.227 4.81886C176.79 4.81688 177.011 4.7358 177.11 4.73537C178.992 4.73396 177.86 4.80935 179.12 4.79103C179.8 4.78116 180.509 4.68869 182.088 4.67824C184.174 4.66443 183.763 4.77419 184.635 4.7632C184.727 4.76148 184.754 4.68516 185.611 4.68264C188.858 4.67362 193.569 4.65599 196.642 4.65627C197.525 4.65627 198.181 4.70765 199.412 4.70851C201.893 4.7102 215.993 4.67746 217.15 4.70705C217.272 4.71015 216.018 4.82273 218.016 4.81935C218.597 4.77248 219.177 4.7256 219.757 4.67873C220.728 4.75376 221.699 4.82879 222.669 4.90382C222.634 4.64458 228.344 4.60455 228.287 4.86964C228.912 4.88038 229.537 4.89113 230.162 4.90187C231.463 4.71871 232.329 4.78633 234.844 4.67873C235.236 4.73488 235.628 4.79103 236.02 4.84718C236.119 4.80975 236.218 4.77231 236.316 4.73488C237.658 4.93774 239.859 4.73405 240.127 4.73293C241.154 4.72843 241.927 4.77999 242.409 4.77834C244.21 4.77298 248.108 4.70193 250.211 4.73488C250.31 4.73657 250.213 4.82329 250.811 4.834C251.89 4.85334 251.996 4.72638 253.435 4.8755C253.726 4.83807 254.016 4.80063 254.307 4.7632C254.615 4.78257 254.924 4.80194 255.232 4.8213C257.053 4.81138 258.873 4.80145 260.693 4.79152C259.037 4.93834 260.943 5.02034 262.744 4.9048C263.353 4.86562 262.812 4.77624 263.016 4.76271C263.294 4.74439 271.464 4.7899 272.004 4.84767C272.391 4.81951 272.778 4.79136 273.164 4.7632C273.36 4.81951 273.555 4.87583 273.751 4.93214C273.964 4.91245 274.177 4.89275 274.391 4.87306C276.517 4.97224 282.035 4.74474 283.035 4.76271C283.57 4.77229 283.089 5.01232 285.651 4.9878C285.74 4.92189 285.829 4.85597 285.918 4.79005C286.505 4.78061 287.091 4.77117 287.678 4.76174C288.779 4.76761 290.381 4.88185 290.432 4.95997C290.776 4.9131 291.12 4.86622 291.464 4.81935C292.388 4.97207 297.314 4.91794 299.296 4.8213C299.875 4.86736 300.455 4.91342 301.034 4.95948C301.813 4.9035 302.591 4.84751 303.37 4.79152C305.174 4.77466 303.268 4.86774 303.653 4.8755C304.466 4.89156 308.611 4.73433 308.338 4.93019C308.903 4.93068 309.468 4.93116 310.034 4.93165C310.324 4.87566 310.615 4.81968 310.905 4.76369C311.876 4.95672 313.555 4.88857 316.998 4.95899C317.287 4.91456 317.576 4.87013 317.865 4.8257C318.93 4.88885 319.995 4.952 321.059 5.01515C321.278 4.94158 321.497 4.86801 321.715 4.79445C322.178 4.78387 322.641 4.77329 323.105 4.76271C324.045 4.9275 325.735 4.74943 326.595 4.8174C327.85 4.91659 326.879 5.0348 324.55 5.05762C324.724 5.17764 331.664 5.12253 333.264 5.11378C333.158 5.09034 333.052 5.0669 332.947 5.04346C331.31 5.06202 329.674 5.08057 328.038 5.09913C326.666 4.79731 331.11 4.87826 333.149 4.83937C333.336 4.83564 334.392 4.7213 336.448 4.73195C337.244 4.73618 340.348 4.90331 340.941 4.91261C345.726 4.98893 342.207 4.75011 346.889 4.95948C345.914 4.79913 348.604 4.93238 351.404 4.90138C351.881 4.89608 355.923 4.7661 356.195 4.76271C357.898 4.74186 356.045 4.88359 358.507 4.84669C358.803 4.80942 359.099 4.77215 359.395 4.73488C359.969 4.73488 360.542 4.73488 361.115 4.73488C364.594 5.06703 365.403 4.82243 366.64 4.79103C367.14 4.77835 366.496 4.86501 367.792 4.84669C368.28 4.83988 368.821 4.76778 370.133 4.76271C374.24 4.74696 375.634 5.05558 379.41 4.73439C379.989 4.78094 380.569 4.82749 381.148 4.87404C381.539 4.81821 381.931 4.76239 382.322 4.70656C385.313 4.86855 384.233 4.70264 385.313 4.70461C388.166 4.70968 394.004 4.74144 394.515 4.87501C396.978 4.56819 399.923 4.91432 400.894 4.90236C401.47 4.86508 402.047 4.82781 402.624 4.79054C403.302 4.82798 403.98 4.86541 404.659 4.90284C404.329 4.60154 407.841 4.89783 408.178 4.90236C408.568 4.90686 413.97 4.81769 415.98 4.81935C417.989 4.82104 421.488 4.90268 421.796 4.90284C422.151 4.90284 425.569 4.82095 428.241 4.82179C430.579 4.82267 444.433 4.93902 443.56 4.8047C442.654 4.7675 441.364 4.73526 440.248 4.71779C436.785 4.66425 416.462 4.59566 411.269 4.57424C400.853 4.53169 389.99 4.53958 379.527 4.51028C378.912 4.50859 378.818 4.43049 378.29 4.42874C377.488 4.42648 375.454 4.50464 374.663 4.50295C371.712 4.49619 368.122 4.48344 366.541 4.48147C363.01 4.47752 360.587 4.43049 357.915 4.42288C357.079 4.42062 352.85 4.51744 349.951 4.47659C349.425 4.45462 348.9 4.43264 348.375 4.41067C349.868 4.38503 353.785 4.31867 355.604 4.31107C358.31 4.30009 359.721 4.36343 360.721 4.36233C361.557 4.36149 365.832 4.28935 367.779 4.28763C368.383 4.28706 368.507 4.36896 369.024 4.36868C371.83 4.36671 375.525 4.36452 377.959 4.28421C376.966 4.31042 383.169 4.36066 383.495 4.36038C384.053 4.36036 384.658 4.28372 385.796 4.28372C387.985 4.28376 387.708 4.44405 390.444 4.28372C391.121 4.33043 391.798 4.37714 392.476 4.42385C392.517 4.21031 401.075 4.50078 403.509 4.24124C403.573 4.21194 392.452 4.12877 391.534 4.12455C386.027 4.09891 377.878 4.15127 372.533 4.11381C370.924 4.10254 365.867 3.97272 365.486 3.97514C364.87 3.9788 365.426 4.05306 365.16 4.0557C359.718 4.11092 362.433 3.96167 361.71 3.9185ZM601.468 5.12891C599.815 5.12012 598.162 5.11133 596.509 5.10255C596.629 5.05567 596.749 5.0088 596.869 4.96192C597.626 4.98015 598.383 4.99838 599.141 5.01661C599.723 4.98862 600.305 4.96062 600.887 4.93263C601.081 4.99806 601.275 5.06348 601.468 5.12891ZM605.543 4.93263C606.976 4.90903 607.046 5.00787 607.377 5.0127C608.365 5.02736 609.219 4.98739 610.177 4.98878C609.073 5.22358 606.722 5.11597 605.543 4.93263ZM575.932 4.84816C576.255 4.85939 578.413 5.11217 580.867 4.87697C582.704 4.95167 584.54 5.02638 586.376 5.10108C583.256 4.98695 578.939 5.10559 577.411 5.10108C576.831 5.09937 576.721 5.02178 576.257 5.02052C573.585 5.01432 570.986 5.19013 570.713 4.93312C573.24 5.0078 575.519 4.83435 575.932 4.84816ZM592.058 4.93946C592.486 4.99317 592.913 5.04688 593.341 5.10059C591.796 5.10059 590.251 5.10059 588.707 5.10059C589.124 5.04623 589.542 4.99187 589.96 4.93751C590.659 4.93816 591.359 4.93881 592.058 4.93946ZM473.216 4.76174C474.169 4.76239 475.122 4.76304 476.075 4.76369C476.023 4.72454 474.932 4.7247 474.531 4.69826C474.533 4.69826 474.534 4.69826 474.536 4.69826C474.089 4.66839 474.28 4.61799 473.467 4.59572C473.383 4.65106 473.3 4.7064 473.216 4.76174ZM78.9996 4.53909C77.4025 4.53627 62.6536 4.53598 63.91 4.67873C64.5433 4.75003 69.5876 4.68786 71.0748 4.68898C73.0797 4.69043 78.4943 4.84481 78.9996 4.53909ZM52.8788 4.51125C52.6233 4.65351 61.8409 4.67614 62.7421 4.65139C62.5507 4.6311 62.2559 4.58595 62.0008 4.57571C60.7576 4.52667 54.8659 4.55014 52.8788 4.51125ZM419.858 4.3511C420.601 4.42304 421.344 4.49498 422.087 4.56692C421.891 4.47333 421.696 4.37975 421.5 4.28616C420.953 4.30781 420.405 4.32946 419.858 4.3511ZM347.777 4.45413C335.399 4.44957 323.02 4.44501 310.641 4.44046C311.73 4.40156 312.819 4.36266 313.908 4.32376C324.574 4.33757 335.949 4.37695 346.25 4.31692C346.759 4.36266 347.268 4.40839 347.777 4.45413ZM572.444 4.42678C569.272 4.42539 566.623 4.49412 563.172 4.38479C566.461 4.27883 568.089 4.44277 571.284 4.28665C571.286 4.28665 571.287 4.28665 571.289 4.28665C571.674 4.33336 572.059 4.38007 572.444 4.42678ZM501.633 4.39847C502.597 4.33304 503.562 4.26761 504.526 4.20218C503.366 4.20218 502.206 4.20218 501.046 4.20218C501.242 4.26761 501.437 4.33304 501.633 4.39847ZM239.801 4.09037C236.484 4.23317 227.997 3.97471 225.301 4.14652C225.127 4.15779 226.729 4.23029 224.138 4.37063C226.096 4.3419 227.478 4.31257 227.623 4.20218C228.205 4.23962 228.786 4.27705 229.367 4.31448C230.332 4.28616 231.296 4.25784 232.26 4.22952C232.156 4.33943 232.232 4.33358 233.714 4.25833C234.389 4.28616 235.065 4.31399 235.74 4.34183C236.026 4.29528 236.313 4.24873 236.599 4.20218C237.184 4.26728 237.769 4.33239 238.353 4.39749C240.633 4.32686 239.245 4.20072 239.801 4.09037ZM251.414 4.11722C250.874 4.09303 235.493 4.17196 242.484 4.39114C244.301 4.38414 246.117 4.37714 247.934 4.37015C246.429 4.00718 251.38 4.33178 251.787 4.33938C253.733 4.37484 256.212 4.28853 257.624 4.293C258.838 4.29694 259.559 4.36206 260.413 4.36038C263.322 4.35475 267.916 4.35237 268.548 4.20218C266.288 4.19906 263.991 4.19744 261.64 4.20121C259.153 4.20515 256.967 4.0634 252.296 4.25784C251.141 4.23695 251.553 4.12342 251.414 4.11722ZM507.43 4.21732C507.314 4.36818 513.184 4.33211 513.221 4.27249C513.233 4.23755 511.321 4.23838 511.048 4.22513C511.047 4.22513 511.045 4.22513 511.043 4.22513C510.929 4.21934 511.507 4.16159 510.608 4.14554C509.549 4.16947 508.489 4.19339 507.43 4.21732ZM101.939 4.20169C101.146 4.11704 83.0186 4.14748 82.4847 4.18802C82.3397 4.19928 82.5419 4.23641 82.4847 4.25784C86.7136 4.1384 92.7254 4.27977 96.7397 4.28909C97.8586 4.29161 97.5242 4.23164 97.5876 4.2305C97.5903 4.2305 97.5929 4.2305 97.5956 4.2305C98.2306 4.23035 101.097 4.37688 101.939 4.20169ZM219.496 4.21537C220.267 4.23896 221.037 4.26256 221.808 4.28616C222.003 4.23945 222.199 4.19274 222.395 4.14603C222.393 4.14603 222.391 4.14603 222.389 4.14603C221.425 4.16914 220.46 4.19225 219.496 4.21537ZM192.797 4.06156C192.984 4.09444 193.172 4.12731 193.359 4.16019C195.3 4.16475 197.24 4.16931 199.18 4.17386C198.985 4.19242 198.789 4.21097 198.594 4.22952C201.527 4.27912 202.742 4.16358 204.305 4.18021C204.303 4.18021 204.302 4.18021 204.3 4.18021C204.468 4.18214 204.672 4.25064 205.297 4.25296C206.731 4.25831 210.843 4.28381 211.339 4.21488C212.391 4.06781 204.117 4.13762 202.575 4.1309C201.878 4.1278 201.039 4.06785 200.615 4.06644C200.15 4.06513 199.517 4.14608 198.386 4.14359C198.055 4.14274 194.383 4.04751 192.797 4.06156ZM158.549 4.1597C159.147 4.23382 160.396 4.16223 160.855 4.17435C160.965 4.17721 160.112 4.23925 161.146 4.25784C161.438 4.21553 161.73 4.17321 162.023 4.1309C160.865 4.1405 159.707 4.1501 158.549 4.1597ZM517.293 4.14603C517.124 4.13013 513.973 4.13595 513.821 4.14603C511.933 4.2813 518.461 4.26665 517.293 4.14603ZM596.826 3.99125C595.376 3.79464 612.577 3.98793 614.243 3.97758C614.16 4.10114 610.068 3.97691 612.212 4.14652C610.167 4.05324 604.513 4.10277 603.183 4.07572C602.375 4.05937 602.172 3.95264 602.05 3.94926C601.571 3.93724 597.337 4.06055 596.826 3.99125ZM628.456 4.06156C626.821 4.03812 625.187 4.01469 623.552 3.99125C625.481 3.97725 627.41 3.96326 629.338 3.94926C629.044 3.98669 628.75 4.02413 628.456 4.06156ZM630.512 4.00541C630.459 3.88564 636.008 3.97688 637.466 3.94926C635.822 4.153 633.079 3.96092 630.512 4.00541ZM538.198 3.83696C535.642 3.75777 534.544 4.12285 537.652 3.96391C537.746 3.95865 538.305 3.84116 538.198 3.83696ZM239.012 3.57671C238.576 3.57446 233.156 3.45609 232.842 3.5147C231.85 3.7017 235.407 3.6267 236.599 3.69731C238.522 3.81173 235.694 3.906 240.388 3.83696C240.196 3.87439 240.004 3.91183 239.812 3.94926C242.559 3.96166 241.66 3.70234 242.153 3.669C242.304 3.65886 244.022 3.68066 244.332 3.66411C248.203 3.4552 239.416 3.57846 239.012 3.57671ZM474.92 3.80913C469.831 3.69922 472.021 3.86049 466.798 3.85063C466.624 3.93292 474.258 3.88127 474.92 3.80913ZM288.566 3.72466C283.303 3.75705 278.974 3.64943 274.065 3.79399C274.385 4.01662 289.931 3.78215 288.566 3.72466ZM41.2717 3.49908C61.7499 3.89557 85.3708 3.76504 107.174 3.75884C109.55 3.75827 109.778 3.84654 110.637 3.83696C111.201 3.83075 111.102 3.75966 111.851 3.75932C138.906 3.74777 164.811 3.65476 190.728 3.69731C192.36 3.70013 200.302 3.85281 201.999 3.62261C203.282 3.44797 197.577 3.58414 196.626 3.58257C195.911 3.58145 195.881 3.49937 195.404 3.49908C194.899 3.4988 195.317 3.55487 194.73 3.55572C192.244 3.55966 189.531 3.53774 187.282 3.54253C165.235 3.58847 143.786 3.57533 121.855 3.56744C119.201 3.56659 119.746 3.50083 119.613 3.50054C119.611 3.50071 119.609 3.50087 119.607 3.50103C105.374 3.49483 89.1184 3.64235 74.0426 3.58599C63.4265 3.54074 52.8104 3.4955 42.1943 3.45025C41.8867 3.46653 41.5792 3.4828 41.2717 3.49908ZM250.251 3.80864C248.927 3.56065 248.63 3.81069 243.878 3.70952C243.492 3.75184 243.105 3.79415 242.718 3.83647C245.232 3.82719 247.746 3.81792 250.259 3.80864C250.257 3.80864 250.254 3.80864 250.251 3.80864ZM218.864 3.71831C218.061 3.38338 207.434 3.62009 202.649 3.55621C201.772 3.72441 208.728 3.64885 210.369 3.66655C211.188 3.67529 215.575 3.84829 218.909 3.75249C218.894 3.7411 218.879 3.7297 218.864 3.71831ZM578.83 3.49908C578.057 3.50884 577.283 3.51861 576.51 3.52837C578.445 3.56548 580.38 3.60259 582.315 3.6397C579.228 3.61577 576.141 3.59185 573.054 3.56792C573.63 3.49843 574.205 3.42893 574.78 3.35943C576.13 3.40598 577.48 3.45253 578.83 3.49908ZM568.815 3.53472C574.22 3.50855 568.577 3.6946 567.228 3.61187C566.421 3.56227 568.263 3.53754 568.815 3.53472ZM554.754 3.4151C557.276 3.29309 562.37 3.28469 560.559 3.52837C557.835 3.41424 556.078 3.50908 552.128 3.44342C552.705 3.39671 553.282 3.34999 553.859 3.30328C553.861 3.30328 553.864 3.30328 553.867 3.30328C554.162 3.34056 554.458 3.37783 554.754 3.4151ZM571.284 3.38727C574.825 3.52727 564.574 3.4794 567.796 3.38727C567.947 3.38304 571.144 3.38191 571.284 3.38727ZM63.91 3.24713C63.4835 3.32676 66.2066 3.32528 67.1125 3.33063C71.0394 3.35429 76.0757 3.31964 80.1595 3.33063C79.852 3.30442 79.5445 3.27822 79.2369 3.25202C74.1279 3.25039 69.019 3.24876 63.91 3.24713ZM92.9346 3.33112C95.7406 3.33112 98.5466 3.33112 101.353 3.33112C101.614 3.33112 102.841 3.26278 101.929 3.24616C98.9306 3.27448 95.9326 3.3028 92.9346 3.33112ZM267.965 3.33112C265.813 3.28652 272.008 3.05795 271.73 3.3028C270.475 3.31224 269.22 3.32168 267.965 3.33112ZM287.984 3.23346C286.635 3.25674 285.286 3.28001 283.937 3.30328C283.935 3.27513 283.933 3.24697 283.931 3.21881C285.282 3.2237 286.633 3.22858 287.984 3.23346ZM52.8788 3.19098C54.308 3.28734 57.7174 3.27251 59.8437 3.27448C58.3792 3.19169 54.8886 3.23239 52.8788 3.19098ZM235.73 3.23249C235.904 3.29815 227.346 3.28162 230.309 3.16608C232.116 3.18822 233.923 3.21035 235.73 3.23249ZM218.347 3.13532C220.182 3.12096 221.604 3.14351 221.227 3.24665C220.253 3.24225 219.28 3.23786 218.307 3.23346C218.32 3.20075 218.333 3.16803 218.347 3.13532ZM545.158 3.21881C542.065 3.22809 538.972 3.23737 535.878 3.24665C535.993 3.21849 536.108 3.19033 536.222 3.16218C539.204 3.15306 542.187 3.14395 545.168 3.13483C545.165 3.16283 545.161 3.19082 545.158 3.21881ZM51.1296 2.93806C49.0053 2.95645 46.881 2.97484 44.7568 2.99323C46.8828 3.01211 49.0089 3.03099 51.135 3.04987C51.135 3.01244 51.135 2.97501 51.135 2.93757C51.1332 2.93774 51.1314 2.9379 51.1296 2.93806ZM587.531 2.85408C578.081 2.72277 590.138 2.58396 592.632 2.77693C592.634 2.77677 592.637 2.77661 592.64 2.77644C592.858 2.7935 592.396 2.87598 592.76 2.90925C591.798 2.87198 590.836 2.83471 589.875 2.79744C588.997 2.84383 588.12 2.89021 587.243 2.9366C586.954 2.91837 586.665 2.90014 586.376 2.88191C586.761 2.87263 587.146 2.86336 587.531 2.85408ZM625.667 2.78084C634.235 2.79607 625.468 3.00231 621.227 2.83943C621.258 2.80174 624.877 2.77943 625.667 2.78084ZM603.212 2.82527C601.862 2.84399 600.512 2.86271 599.162 2.88142C598.989 2.85782 598.817 2.83422 598.645 2.81062C599.681 2.78719 600.717 2.76375 601.754 2.74031C602.24 2.76863 602.726 2.79695 603.212 2.82527ZM558.81 2.46102C556.638 2.4351 553.866 2.69751 560.842 2.6285C560.838 2.60034 560.835 2.57219 560.831 2.54403C560.553 2.54853 559.737 2.57494 559.693 2.57284C559.565 2.56579 559.716 2.47177 558.81 2.46102ZM641.532 2.03916C641.776 2.02845 641.909 1.73145 644.447 2.03867C645.214 2.01996 645.981 2.00124 646.748 1.98252C646.946 2.04795 647.144 2.11338 647.342 2.17881C644.374 2.12808 644.059 2.26046 643.844 2.26328C642.857 2.27566 643.588 2.20757 642.951 2.20664C641.307 2.20438 637.571 2.2501 639.266 2.05576C639.876 1.98616 641.288 2.04987 641.532 2.03916ZM635.727 1.87022C636.087 1.89501 634.927 1.98189 635.199 2.00645C635.437 2.02786 639.015 2.1165 638.047 2.26328C637.46 2.25709 636.872 2.25091 636.285 2.24472C636.086 2.20452 635.886 2.16432 635.687 2.12412C635.118 2.16123 634.55 2.19834 633.981 2.23545C633.022 2.13625 630.982 2.00774 633.405 1.92686C632.514 1.93532 631.623 1.94379 630.733 1.95225C630.272 1.99978 629.81 2.0473 629.349 2.09483C629.591 2.0224 629.833 1.94997 630.074 1.87755C631.959 1.87511 633.843 1.87266 635.727 1.87022ZM663.336 1.89805C663.227 1.93549 663.119 1.97292 663.011 2.01035C666.281 1.94076 671.375 1.9143 668.482 2.14902C664.051 2.16855 659.621 2.18808 655.19 2.20761C654.896 2.17946 654.601 2.1513 654.307 2.12314C657.613 2.23163 656.591 1.77 659.467 1.90245C659.952 1.9249 658.545 2.08633 661.592 1.98301C661.484 1.94542 661.375 1.90782 661.267 1.87022C661.957 1.8795 662.646 1.88878 663.336 1.89805ZM691.454 1.9542C685.853 1.9001 692.022 1.76349 693.056 1.87706C693.055 1.87706 693.053 1.87706 693.051 1.87706C695.885 2.18783 689.791 2.03768 689.419 2.03965C688.925 2.0424 687.774 2.26489 685.086 1.94053C687.209 1.94509 689.331 1.94965 691.454 1.9542ZM673.17 1.89854C673.64 1.89122 673.38 1.94772 673.583 1.94688C673.585 1.94688 673.587 1.94688 673.589 1.94688C676.586 1.93476 683.716 1.88418 684.489 2.06651C682.27 2.08172 672.341 2.12112 671.741 1.99717C672.217 1.9643 672.693 1.93142 673.17 1.89854ZM652.075 2.03428C650.235 1.91623 654.378 1.90051 655.464 1.95518C655.67 1.96702 653.982 2.15657 652.075 2.03428ZM510.904 1.7296C506.855 1.80062 512.175 1.87149 510.334 1.98252C511.107 1.97308 511.88 1.96364 512.654 1.9542C512.07 1.87934 511.487 1.80447 510.904 1.7296ZM326.294 1.50549C325.35 1.49237 325.797 1.56015 325.715 1.56115C325.095 1.55926 324.51 1.50404 324.272 1.50988C319.873 1.62135 322.799 1.67828 322.843 1.69152C322.936 1.75857 321.78 1.83704 323.382 1.91368C324.354 1.88992 325.327 1.86615 326.299 1.84239C326.782 1.87966 327.264 1.91693 327.747 1.9542C329.679 1.87424 327.151 1.85231 326.864 1.7462C326.754 1.7045 328.571 1.65456 326.294 1.50549ZM503.649 1.505C502.992 1.6228 501.383 1.77139 502.964 1.88975C502.965 1.88975 502.967 1.88975 502.969 1.88975C503.261 1.91141 504.451 1.92332 504.817 1.95372C507.423 1.79678 506.425 1.63461 503.649 1.505ZM343.735 1.29456C345.303 1.32206 346.871 1.34957 348.439 1.37707C348.412 1.44771 348.385 1.51835 348.359 1.58898C347.52 1.56994 346.681 1.5509 345.842 1.53185C345.547 1.56408 345.253 1.59631 344.959 1.62853C346.001 1.70909 347.042 1.78966 348.084 1.87022C349.339 1.84207 350.594 1.81391 351.849 1.78575C351.272 1.74848 350.695 1.71121 350.119 1.67394C353.186 1.6328 352.518 1.80456 355.057 1.87022C355.926 1.80479 356.795 1.73937 357.665 1.67394C358.923 1.73969 360.182 1.80545 361.44 1.8712C363.555 1.84048 363.741 1.7904 362.318 1.71544C363.369 1.62978 364.52 1.76451 365.787 1.7296C365.891 1.72679 365.694 1.64611 365.787 1.64513C372.334 1.59074 371.986 1.80261 373.032 1.81163C373.77 1.81782 376.716 1.67484 376.762 1.62609C376.819 1.56039 370.692 1.30133 380.287 1.29456C375.326 1.11536 369.686 1.29777 373.333 1.56066C371.763 1.53421 364.839 1.5998 364.398 1.59191C363.754 1.58 363.98 1.48026 363.174 1.47766C362.697 1.47625 361.435 1.70424 357.665 1.505C357.183 1.54243 356.701 1.57987 356.22 1.6173C355.768 1.58654 355.316 1.55578 354.865 1.52502C355.795 1.41532 356.724 1.30562 357.654 1.19593C353.971 1.31512 350.916 1.0912 348.673 1.27991C346.735 1.25795 345.793 1.23623 346.626 1.13978C346.043 1.13978 345.461 1.13978 344.879 1.13978C344.498 1.19137 344.116 1.24296 343.735 1.29456ZM491.751 1.67345C489.824 1.56393 489.131 1.80021 489.431 1.81358C491.121 1.88711 492.754 1.73043 491.751 1.67345ZM329.792 1.63097C331.918 1.69184 334.044 1.75271 336.17 1.81358C336.17 1.73888 336.17 1.66417 336.17 1.58947C334.044 1.6033 331.918 1.61714 329.792 1.63097ZM511.496 1.56164C511.692 1.61763 511.887 1.67361 512.083 1.7296C514.412 1.52509 516.724 1.81852 517.874 1.75792C518.124 1.74468 517.62 1.64582 517.144 1.62462C516.848 1.61138 511.909 1.54276 511.496 1.56164ZM608.441 1.58849C607.574 1.62609 606.706 1.66369 605.839 1.70128C605.887 1.6383 605.935 1.57531 605.983 1.51232C606.411 1.5006 606.839 1.48889 607.268 1.47717C607.659 1.51428 608.05 1.55138 608.441 1.58849ZM598.57 1.68859C597.022 1.68354 595.475 1.6785 593.928 1.67345C599.83 1.61568 594.986 1.58749 598.57 1.50549C598.57 1.56652 598.57 1.62755 598.57 1.68859ZM582.907 1.56115C583.097 1.52355 583.287 1.48596 583.478 1.44836C585.025 1.44836 586.573 1.44836 588.12 1.44836C587.141 1.31783 586.163 1.1873 585.184 1.05677C584.617 1.05645 584.05 1.05612 583.483 1.05579C583.291 1.22425 583.099 1.3927 582.907 1.56115ZM284.494 1.22473C283.559 1.22248 280.304 1.33655 280.444 1.37854C281.796 1.43013 283.147 1.48173 284.499 1.53332C284.506 1.45845 284.512 1.38358 284.518 1.30872C284.709 1.34599 284.9 1.38326 285.091 1.42053C285.86 1.39254 286.629 1.36454 287.398 1.33655C287.785 1.40198 288.173 1.4674 288.56 1.53283C288.95 1.45813 289.339 1.38342 289.728 1.30872C286.016 1.17627 286.144 1.30865 285.371 1.30725C284.98 1.30662 284.732 1.26026 284.593 1.23694C284.56 1.23287 284.527 1.2288 284.494 1.22473ZM331.261 1.15442C326.829 1.13583 324.296 1.33293 321.089 1.1681C323.145 1.51922 336.426 1.15654 341.109 1.44934C341.595 1.39302 342.081 1.33671 342.567 1.2804C340.018 1.33054 338.251 1.21456 337.008 1.19788C336.02 1.18463 336.123 1.24365 336.048 1.2428C336.044 1.2428 336.04 1.2428 336.037 1.2428C333.725 1.21857 333.01 1.16176 331.261 1.15442ZM514.789 1.28626C513.598 1.19728 511.514 1.20618 511.491 1.33606C512.651 1.37366 513.811 1.41125 514.971 1.44885C514.732 1.4156 514.993 1.30147 514.789 1.28626ZM581.107 1.19837C580.178 1.1561 577.982 1.19314 578.929 1.3053C579.099 1.3252 581.286 1.24637 580.003 1.44885C582.135 1.44572 581.636 1.22266 581.107 1.19837ZM407.005 1.42053C407.787 1.41679 408.569 1.41304 409.352 1.4093C409.534 1.35689 409.716 1.30448 409.898 1.25208C408.934 1.30823 407.97 1.36438 407.005 1.42053ZM524.842 1.19641C525.882 1.45289 527.658 1.2033 529.61 1.41418C530.331 1.41581 531.051 1.41744 531.772 1.41906C531.774 1.41906 531.776 1.41906 531.777 1.41906C531.797 1.34908 531.817 1.27909 531.836 1.20911C529.505 1.20488 527.173 1.20065 524.842 1.19641ZM358.235 1.29407C358.717 1.32662 359.199 1.35917 359.681 1.39172C360.538 1.3538 361.396 1.31588 362.254 1.27796C361.79 1.25078 361.326 1.2236 360.862 1.19641C359.986 1.22897 359.111 1.26152 358.235 1.29407ZM537.513 1.17444C534.992 1.14232 534.044 1.36528 537.268 1.36584C538.627 1.36584 540.155 1.20801 537.513 1.17444ZM236.327 1.30774C237.191 1.32678 238.055 1.34582 238.919 1.36487C239.213 1.31799 239.507 1.27112 239.801 1.22425C238.643 1.25208 237.485 1.27991 236.327 1.30774ZM593.064 1.22376C592.962 1.27063 592.861 1.31751 592.76 1.36438C591.989 1.35494 591.218 1.3455 590.448 1.33606C590.642 1.28951 590.835 1.24296 591.029 1.19641C591.707 1.20553 592.385 1.21464 593.064 1.22376ZM242.14 1.33655C242.83 1.3455 243.521 1.35445 244.212 1.3634C244.676 1.34062 245.14 1.31783 245.604 1.29504C244.957 1.27242 244.311 1.2498 243.665 1.22718C243.157 1.26363 242.648 1.30009 242.14 1.33655ZM561.413 1.19593C560.443 1.13957 556.567 1.31517 560.058 1.35998C562.282 1.38844 561.558 1.2045 561.413 1.19593ZM566.642 1.13978C562.947 1.03241 565.717 1.57735 570.127 1.22425C565.688 1.27266 566.859 1.14626 566.642 1.13978ZM599.133 0.858535C599.225 0.858817 599.302 0.937173 600.044 0.940075C602.717 0.95022 606.245 0.981181 608.156 0.985972C612.751 0.997525 626.826 0.855877 628.472 1.08265C628.815 1.13027 628.026 1.27258 628.165 1.27991C628.574 1.30035 630.928 1.2313 630.493 1.33606C628.183 1.33525 625.873 1.33443 623.563 1.33362C624.13 1.25973 624.697 1.18584 625.264 1.11194C619.508 1.15139 621.413 1.14684 619.758 1.30774C618.783 1.2454 617.81 1.18307 616.835 1.12073C614.715 1.18339 612.594 1.24606 610.473 1.30872C610.954 1.26201 611.435 1.21529 611.916 1.16858C608.721 1.08207 609.608 1.1388 607.86 1.25208C607.856 1.20537 607.853 1.15866 607.849 1.11194C604.764 1.2258 604.164 1.0858 603.49 1.08411C602.107 1.08136 600.345 1.63403 595.072 1.08411C592.848 1.3486 592.899 0.810538 591.592 1.08411C587.828 0.786291 594.986 0.89408 598.373 0.903944C598.374 0.903944 598.376 0.903944 598.378 0.903944C598.634 0.904789 598.228 0.854638 599.133 0.858535ZM579.801 1.13245C582.079 0.889673 573.078 0.866947 576.057 1.21741C576.5 1.2288 576.944 1.2402 577.387 1.25159C578.194 1.21188 579 1.17216 579.806 1.13245C579.804 1.13245 579.802 1.13245 579.801 1.13245ZM495.231 0.971324C486.894 1.07108 491.634 1.21074 494.457 1.07435C495.021 1.0473 495.33 1.01021 495.231 0.971324ZM324.928 0.967906C324.807 0.99704 324.685 1.02617 324.563 1.05531C327.359 1.02804 332.765 1.14042 332.691 0.943981C330.103 0.951957 327.516 0.959931 324.928 0.967906ZM347.044 0.839493C346.444 0.827644 343.991 0.799677 344.287 0.873183C345.35 0.925265 346.413 0.977346 347.476 1.02943C347.971 0.996877 348.466 0.964326 348.961 0.931775C348.27 0.920705 347.207 0.84259 347.044 0.839493Z" fill="#1AB9A2"/>
</svg>
