<svg width="118" height="101" viewBox="0 0 118 101" fill="none" xmlns="http://www.w3.org/2000/svg">
<path d="M118 30.6846C118 13.7635 104.156 0 87.136 0C74.6356 0 63.8861 7.40802 59 18.0545C54.1546 7.40802 43.3644 0 30.864 0C13.844 0 0 13.7635 0 30.6846C0 34.2469 0.610767 37.6878 1.75086 40.8453C3.05383 44.4886 5.00829 47.808 7.49207 50.6417C8.55073 51.8561 9.69083 52.9896 10.9531 54.0421L58.0228 100.555C58.3078 100.838 58.715 101 59.0814 101C59.4479 101 59.8551 100.838 60.1401 100.555L109.001 52.3014C112.177 49.1439 114.661 45.2982 116.208 41.0477C117.349 37.8497 118 34.3683 118 30.6846Z" fill="#1AB9A2"/>
</svg>
