<svg width="30" height="26" viewBox="0 0 30 26" fill="none" xmlns="http://www.w3.org/2000/svg">
<g clip-path="url(#clip0_1_2717)">
<path d="M20.5283 1.86328C21.8795 1.37245 23.483 1.37322 24.8857 1.88477L24.8877 1.88574C26.3982 2.43426 27.4986 3.47395 28.0518 4.77539C28.6099 6.09091 28.672 7.64198 28.1055 9.47266V9.47363C27.6861 10.832 26.9154 12.3351 25.7793 13.9238V13.9248C22.7904 18.1113 19.1666 21.656 15.0049 24.4766C10.8432 21.6559 7.21446 18.1052 4.23145 13.9248C3.23619 12.5283 2.52197 11.2055 2.07422 9.98535L1.89844 9.46875C1.33395 7.64232 1.40042 6.09344 1.95801 4.7832L1.95996 4.77637C2.50744 3.47332 3.60635 2.43442 5.11719 1.88574L5.11621 1.88477C6.52332 1.37646 8.12283 1.37293 9.47754 1.86328C11.0456 2.43584 12.5248 3.5768 13.7998 5.29785L15.0078 6.92871L16.2119 5.2959C17.4827 3.5736 18.9621 2.43029 20.5264 1.86426L20.5283 1.86328Z" stroke="#FEA800" stroke-width="3"/>
</g>
<defs>
<clipPath id="clip0_1_2717">
<rect width="30" height="26" fill="white"/>
</clipPath>
</defs>
</svg>
