<svg width="52" height="52" viewBox="0 0 52 52" fill="none" xmlns="http://www.w3.org/2000/svg">
<g clip-path="url(#clip0_1_2424)">
<path d="M26.0665 0C11.7033 0 0 11.7033 0 26.0665C0 40.4297 11.7033 52.133 26.0665 52.133C40.4297 52.133 52 40.5627 52.133 26.1995C52.133 11.7033 40.4297 0 26.0665 0ZM42.9565 33.1151C42.9565 38.1688 39.6317 42.0256 34.711 42.9565C33.6471 43.0895 32.5831 43.0895 31.5192 43.0895C29.7903 43.0895 27.9284 43.0895 26.1995 43.0895C23.8056 43.0895 21.5448 43.0895 19.1509 43.0895C13.5652 43.0895 9.30946 38.8338 9.30946 33.2481C9.30946 28.5933 9.30946 23.8056 9.30946 19.1509C9.30946 13.4322 13.5652 9.30946 19.2839 9.30946C23.9386 9.30946 28.4604 9.30946 33.1151 9.30946C38.8338 9.30946 43.0895 13.5652 43.0895 19.2839C42.9565 23.8056 42.9565 28.4604 42.9565 33.1151Z" fill="#1AB9A2"/>
<path d="M32.9822 12.5012C28.3274 12.5012 23.6727 12.5012 19.018 12.5012C15.0282 12.5012 12.2354 15.2941 12.2354 19.2838C12.2354 21.6777 12.2354 23.9386 12.2354 26.3324C12.2354 28.7263 12.2354 31.1201 12.2354 33.514C12.2354 37.3708 15.0282 40.1636 18.885 40.1636C23.6727 40.1636 28.4604 40.1636 33.2481 40.1636C37.1049 40.1636 39.8978 37.3708 39.8978 33.514C39.8978 28.8593 39.8978 24.2045 39.8978 19.4168C39.7648 15.1611 37.1049 12.5012 32.9822 12.5012ZM25.9336 34.9769C21.0128 34.9769 17.1561 30.9872 17.2891 26.0664C17.2891 21.2787 21.4118 17.2889 26.1995 17.4219C31.1203 17.5549 34.977 21.5447 34.844 26.3324C34.7111 31.2531 30.7213 35.1099 25.9336 34.9769ZM35.11 19.1508C33.9131 19.1508 32.9822 18.2199 32.9822 17.156C32.9822 15.959 33.9131 15.0281 35.11 15.1611C36.174 15.1611 37.1049 16.092 37.1049 17.156C37.1049 18.2199 36.307 19.1508 35.11 19.1508Z" fill="#1AB9A2"/>
<path d="M26.0663 20.4807C23.0075 20.4807 20.3477 23.0076 20.3477 26.1994C20.3477 29.3912 22.8745 31.9181 26.0663 31.9181C29.2581 31.9181 31.652 29.3912 31.652 26.1994C31.652 23.1406 29.1252 20.4807 26.0663 20.4807Z" fill="#1AB9A2"/>
</g>
<defs>
<clipPath id="clip0_1_2424">
<rect width="52" height="52" fill="white"/>
</clipPath>
</defs>
</svg>
