<svg width="44" height="37" viewBox="0 0 44 37" fill="none" xmlns="http://www.w3.org/2000/svg">
<g clip-path="url(#clip0_3067_301)">
<path d="M38.3893 0.834694L2.75714 4.05168C1.2833 4.18475 0.259013 5.42473 0.389179 6.86648L2.79383 33.501C2.924 34.9428 4.16066 36.0551 5.6345 35.9221L41.2666 32.7051C42.7405 32.572 43.7648 31.332 43.6346 29.8903L41.2231 3.17986C41.0929 1.73811 39.8631 0.701631 38.3893 0.834694ZM38.6222 3.41468L40.3281 22.3093L34.7951 18.1423C33.9532 17.5298 32.7394 17.6394 32.1144 18.4608L27.3785 24.0904L16.132 12.7892C15.2695 11.9491 13.8824 12.0743 13.1843 13.0553L4.64798 24.9951L2.99007 6.63167L38.6222 3.41468ZM28.2284 11.2381C28.0502 9.26517 29.4669 7.53076 31.4609 7.35074C33.4549 7.17071 35.1593 8.62334 35.3375 10.5963C35.5156 12.5692 34.0989 14.3036 32.1049 14.4836C30.1976 14.6558 28.4065 13.211 28.2284 11.2381Z" fill="white"/>
</g>
<defs>
<clipPath id="clip0_3067_301">
<rect width="41" height="32" fill="white" transform="translate(0.15625 4.2865) rotate(-5.15887)"/>
</clipPath>
</defs>
</svg>
