<svg width="41" height="41" viewBox="0 0 41 41" fill="none" xmlns="http://www.w3.org/2000/svg">
<path d="M20.1207 0C9.03378 0 0 9.03378 0 20.1207C0 31.2076 9.03378 40.2414 20.1207 40.2414C31.2076 40.2414 40.1387 31.3103 40.2414 20.2233C40.2414 9.03378 31.2076 0 20.1207 0ZM33.1581 25.5615C33.1581 29.4624 30.5917 32.4395 26.7934 33.1581C25.9721 33.2607 25.1509 33.2607 24.3296 33.2607C22.9951 33.2607 21.5579 33.2607 20.2234 33.2607C18.3755 33.2607 16.6304 33.2607 14.7826 33.2607C10.471 33.2607 7.18596 29.9757 7.18596 25.6641C7.18596 22.0712 7.18596 18.3755 7.18596 14.7825C7.18596 10.3683 10.471 7.18596 14.8852 7.18596C18.4782 7.18596 21.9685 7.18596 25.5615 7.18596C29.9757 7.18596 33.2607 10.471 33.2607 14.8852C33.1581 18.3755 33.1581 21.9685 33.1581 25.5615Z" fill="white"/>
<path d="M25.4588 9.6499C21.8658 9.6499 18.2728 9.6499 14.6798 9.6499C11.6001 9.6499 9.44434 11.8057 9.44434 14.8854C9.44434 16.7332 9.44434 18.4784 9.44434 20.3262C9.44434 22.174 9.44434 24.0218 9.44434 25.8696C9.44434 28.8467 11.6001 31.0025 14.5772 31.0025C18.2728 31.0025 21.9684 31.0025 25.6641 31.0025C28.6411 31.0025 30.7969 28.8467 30.7969 25.8696C30.7969 22.2767 30.7969 18.6837 30.7969 14.988C30.6943 11.703 28.6411 9.6499 25.4588 9.6499ZM20.018 26.9989C16.2197 26.9989 13.2426 23.9192 13.3453 20.1209C13.3453 16.4252 16.5276 13.3455 20.2233 13.4482C24.0216 13.5509 26.9986 16.6306 26.896 20.3262C26.7933 24.1245 23.7136 27.1015 20.018 26.9989ZM27.1013 14.7827C26.1774 14.7827 25.4588 14.0641 25.4588 13.2429C25.4588 12.319 26.1774 11.6004 27.1013 11.703C27.9225 11.703 28.6411 12.4216 28.6411 13.2429C28.6411 14.0641 28.0252 14.7827 27.1013 14.7827Z" fill="white"/>
<path d="M20.1208 15.8091C17.7597 15.8091 15.7065 17.7596 15.7065 20.2233C15.7065 22.6871 17.657 24.6375 20.1208 24.6375C22.5845 24.6375 24.4324 22.6871 24.4324 20.2233C24.4324 17.8622 22.4819 15.8091 20.1208 15.8091Z" fill="white"/>
</svg>
