<svg width="47" height="47" viewBox="0 0 47 47" fill="none" xmlns="http://www.w3.org/2000/svg">
<circle cx="23.5" cy="23.5" r="22.5" transform="matrix(-1 0 0 1 47 0)" stroke="white" stroke-width="2"/>
<path d="M19.9512 22.7832C20.5035 22.7832 20.9512 23.2309 20.9512 23.7832C20.9512 24.3355 20.5035 24.7832 19.9512 24.7832L19.9512 22.7832ZM18.6778 24.4903C18.2873 24.0998 18.2873 23.4666 18.6778 23.0761L25.0418 16.7121C25.4323 16.3216 26.0654 16.3216 26.456 16.7121C26.8465 17.1027 26.8465 17.7358 26.456 18.1263L20.7991 23.7832L26.456 29.4401C26.8465 29.8306 26.8465 30.4637 26.456 30.8543C26.0655 31.2448 25.4323 31.2448 25.0418 30.8543L18.6778 24.4903ZM19.9512 23.7832L19.9512 24.7832L19.3849 24.7832L19.3849 23.7832L19.3849 22.7832L19.9512 22.7832L19.9512 23.7832Z" fill="white"/>
</svg>
