<svg width="23" height="37" viewBox="0 0 23 37" fill="none" xmlns="http://www.w3.org/2000/svg">
<path d="M14.8841 31.7643H7.52509C7.10778 31.7643 6.77124 31.4315 6.77124 31.0189C6.77124 30.6062 7.10778 30.2734 7.52509 30.2734H14.8841C15.3014 30.2734 15.638 30.6062 15.638 31.0189C15.638 31.4315 15.3014 31.7643 14.8841 31.7643Z" fill="#FB72CC"/>
<path d="M14.8841 34.0983H7.52509C7.10778 34.0983 6.77124 33.7655 6.77124 33.3528C6.77124 32.9402 7.10778 32.6074 7.52509 32.6074H14.8841C15.3014 32.6074 15.638 32.9402 15.638 33.3528C15.638 33.7655 15.3014 34.0983 14.8841 34.0983Z" fill="#FB72CC"/>
<path d="M9.42333 34.9767C9.23936 34.9767 9.10474 35.1409 9.13615 35.3183C9.31564 36.2767 10.1637 37 11.1868 37C12.2099 37 13.058 36.2767 13.2375 35.3183C13.2689 35.1409 13.1343 34.9767 12.9503 34.9767H9.42333Z" fill="#FB72CC"/>
<path d="M14.1078 29.3417H8.19815C7.17506 29.3417 6.31351 28.552 6.23723 27.5403C5.98595 24.248 4.62632 22.1626 3.19041 19.953C1.61989 17.5437 0 15.0545 0 11.0257C0 5.58593 3.93529 1.00693 9.35585 0.141707C10.6212 -0.062396 11.9584 -0.0446479 13.2193 0.186077C18.4873 1.15778 22.3104 5.71461 22.3104 11.0213C22.3104 15.0501 20.6861 17.5393 19.12 19.9486C17.6796 22.1582 16.32 24.2436 16.0732 27.5359C15.9924 28.552 15.1309 29.3417 14.1078 29.3417Z" fill="#FB72CC"/>
<path d="M5.74819 17.934C5.52383 17.934 5.30396 17.832 5.16037 17.6367C1.13085 12.1615 4.10138 7.02338 4.23151 6.8104C4.43344 6.46875 4.87767 6.35339 5.22319 6.55749C5.5687 6.75716 5.68537 7.19642 5.48345 7.53807C5.37127 7.72887 2.88086 12.1038 6.33602 16.7937C6.57384 17.1132 6.50204 17.5613 6.17448 17.7965C6.04435 17.8896 5.89627 17.934 5.74819 17.934Z" fill="white"/>
</svg>
