<svg width="347" height="8" viewBox="0 0 347 8" fill="none" xmlns="http://www.w3.org/2000/svg">
<path d="M7.78981 0.296052C15.0435 -0.403095 19.9949 0.339761 26.724 0.458157C41.5372 0.718264 61.0716 0.483995 76.2221 0.502589C87.6894 0.516679 99.3417 0.566573 110.74 0.60659C111.324 0.608561 111.673 0.685206 111.938 0.686177C114.434 0.695194 118.619 0.625751 121.095 0.635885C126.302 0.657021 135.363 0.645079 140.133 0.716938C142.159 0.747365 144.236 0.76005 145.023 0.942517C145.764 0.951809 146.168 0.786943 146.361 0.777971C146.363 0.778134 146.365 0.778296 146.367 0.778459C146.99 0.750628 148.562 0.866222 148.908 0.859023C148.96 0.857896 148.641 0.738482 149.483 0.774553C149.557 0.777653 149.488 0.858845 150.197 0.86C150.381 0.860281 152.751 0.735777 153.428 0.728168C155.682 0.703389 161.065 0.801131 163.759 0.799455C164.171 0.799455 164.409 0.751962 164.844 0.751116C165.069 0.750625 165.406 0.802178 165.475 0.801896C165.778 0.800062 167.102 0.565938 166.627 1.02796C168.01 0.998668 167.602 0.845922 167.634 0.746722C169.135 0.732397 169.858 0.949993 170.25 0.719379C177.632 0.74721 185.013 0.775041 192.395 0.802872C192.397 0.765276 192.399 0.727679 192.401 0.690083C194.577 0.840251 195.323 0.586243 196.565 0.804337C197.331 0.756325 198.097 0.708312 198.863 0.660299C218.546 0.808239 238.184 0.632395 257.646 0.632956C258.467 0.632956 258.672 0.712956 260.027 0.71352C261.522 0.71408 263.626 0.621106 265.597 0.622214C267.326 0.623059 269.877 0.698742 271.805 0.71059C272.24 0.713126 272.554 0.662458 272.604 0.66274C272.892 0.66472 272.906 0.744935 273.186 0.74721C273.52 0.749746 273.924 0.690325 274.31 0.693989C275.753 0.707223 277.326 0.686742 277.508 0.68813C278.388 0.695724 278.583 0.774174 278.655 0.775041C279.634 0.784615 279.267 0.713807 279.511 0.717914C280.776 0.739614 281.671 0.916371 283.403 0.746722C283.355 0.812312 283.308 0.877903 283.261 0.943493C284.587 0.980399 283.711 0.806115 283.982 0.774553C284.093 0.762859 286.946 0.784144 287.166 0.787248C287.932 0.798517 287.953 0.88568 288.019 0.886854C288.181 0.889672 290.109 0.790747 291.097 0.866835C292.267 0.957003 290.89 1.13431 291.181 1.16761C291.229 1.17324 292.454 1.15507 292.618 1.21057C292.8 1.27029 291.741 1.26902 291.757 1.29407C291.769 1.31126 293.527 1.43435 293.19 1.51721C292.919 1.6003 290.534 1.49376 290.028 1.53283C289.945 1.5393 290.102 1.64186 290.028 1.64562C289.732 1.65942 284.236 1.66251 283.985 1.64562C284.271 1.59891 284.557 1.5522 284.843 1.50549C284.463 1.50077 284.082 1.49605 283.702 1.49133C284.243 1.45389 284.784 1.41646 285.325 1.37903C284.521 0.994411 282.099 1.38431 281.999 1.57629C281.956 1.66506 283.436 1.89345 282.059 2.02647C282.268 2.04925 282.478 2.07204 282.687 2.09483C283.119 2.05739 283.55 2.01996 283.982 1.98252C283.695 1.95892 283.407 1.93532 283.12 1.91173C283.225 1.88503 283.331 1.85834 283.437 1.83165C284.244 1.78884 285.051 1.74604 285.858 1.70324C286.273 1.72296 286.186 1.80176 286.471 1.817C290.028 2.00891 287.708 1.7647 290.036 1.79991C290.369 1.84223 290.701 1.88454 291.034 1.92686C290.916 1.75185 291.948 1.86174 293.195 1.78624C293.046 1.84288 292.897 1.89952 292.748 1.95616C294.555 1.926 298.218 2.21156 297.23 1.89903C297.644 1.92572 298.058 1.95241 298.472 1.97911C298.821 1.928 299.171 1.8769 299.521 1.82579C300.004 1.83165 300.487 1.83751 300.97 1.84337C300.973 1.87104 300.975 1.8987 300.977 1.92637C300.592 1.92654 300.206 1.9267 299.821 1.92686C300.11 2.01117 300.399 2.09548 300.689 2.17978C300.973 2.16579 301.257 2.15179 301.542 2.13779C300.349 2.05805 301.922 1.92781 302.302 1.81651C303.308 1.77538 303.951 1.91986 304.288 1.92637C304.446 1.92947 306.314 1.67457 305.582 1.95469C306.542 1.92068 307.503 1.88666 308.464 1.85264C308.84 1.87413 309.215 1.89561 309.591 1.9171C308.776 2.04757 311.138 2.20478 309.398 2.25888C308.098 2.29946 307.778 2.17747 307.161 2.17832C306.605 2.17892 306.311 2.26108 305.706 2.26474C301.636 2.28785 298.322 2.27278 294.457 2.23642C293.693 2.22912 292.999 2.2694 292.486 2.26377C291.907 2.25727 292.633 2.15422 291.895 2.1793C291.12 2.20581 290.953 2.28991 290.748 2.2916C290.621 2.29255 290.217 2.21689 289.846 2.21689C288.32 2.21691 286.084 2.29007 285.867 2.28964C285.622 2.2888 281.306 2.22053 281.1 2.2081C280.99 2.20134 281.217 1.92195 280.266 2.21982C279.97 2.22535 279.673 2.23089 279.376 2.23642C279.424 2.1806 279.472 2.12477 279.52 2.06895C277.762 2.28058 278.367 2.16218 276.672 2.17881C272.615 2.21882 266.629 2.17178 262.191 2.1915C261.2 2.19602 260.822 2.26286 259.65 2.26767C258.56 2.2719 255.716 2.07245 256.335 2.34872C253.911 2.10949 253.521 2.52203 252.308 2.26474C252.161 2.30218 252.015 2.33961 251.868 2.37704C250.551 2.21642 250.144 2.35759 248.706 2.37704C248.087 2.3855 248.801 2.21465 247.55 2.40487C247.311 2.39071 247.072 2.37655 246.833 2.3624C246.889 2.32106 246.944 2.27972 247 2.23838C245.611 2.27219 245.521 2.25065 245.68 2.40536C245.009 2.37721 244.339 2.34905 243.668 2.32089C243.585 2.37167 243.501 2.42245 243.418 2.47323C243.739 2.57009 258.967 2.42402 261.087 2.37753C263.574 2.49247 268.571 2.34877 270.58 2.37607C271.384 2.38706 271.739 2.5019 272.909 2.51571C274.079 2.52951 275.551 2.4252 276.174 2.42148C278.249 2.40851 288.08 2.43143 281.393 2.5743C281.586 2.63029 281.778 2.68628 281.97 2.74227C284.627 2.55122 283.665 2.66883 285.87 2.68856C286.798 2.69697 289.005 2.57195 288.882 2.82625C287.158 2.87359 285.327 2.79231 283.829 2.79598C283.68 2.79637 281.906 2.91248 280.993 2.88093C280.169 2.85214 280.736 2.60972 278.944 2.88191C277.612 2.61602 276.843 2.85724 276.491 2.88289C275.883 2.92735 275.817 2.79612 275.209 2.78084C274.548 2.76396 274.092 2.85107 274.002 2.85164C273.094 2.85361 268.368 2.86549 268.151 2.81258C268.341 2.7893 268.531 2.76603 268.721 2.74275C267.494 2.7053 267.75 2.83948 267.428 2.85554C267.187 2.85506 266.947 2.85457 266.707 2.85408C266.802 2.82625 266.897 2.79842 266.992 2.77059C265.543 2.7765 266.652 2.87322 264.594 2.87068C263.288 2.86897 261.938 2.76273 261.811 2.77059C261.774 2.77284 262.185 2.84447 261.652 2.85408C260.771 2.86986 259.246 2.86803 259.076 2.77059C258.644 2.78438 258.68 2.87974 258.623 2.88191C258.372 2.89121 254.059 2.92363 253.286 2.92927C251.144 2.94477 248.76 2.92444 246.44 2.9405C246.202 2.94211 246.354 2.88092 246.115 2.88289C245.731 2.88602 243.761 2.98206 243.467 2.98884C242.732 3.00546 240.8 2.96737 240.496 2.99519C240.453 2.99913 241.089 3.08184 240.345 3.10749C239.52 3.13586 239.964 3.02462 239.919 3.02351C238.239 2.98547 237.178 3.06276 236.032 3.07771C235.66 3.08249 234.974 2.99877 234.449 3.02351C234.389 3.02632 234.509 3.10368 234.449 3.10749C233.657 3.14807 232.915 3.00449 232.572 2.99519C231.733 2.97245 232.19 3.07842 232.147 3.07917C231.587 3.08255 230.835 3.04433 229.985 3.04939C226.195 3.07193 223.103 3.0784 219.074 3.07136C218.568 3.07051 217.967 2.99577 217.89 2.99568C217.65 2.99624 217.719 3.08407 217.027 3.0821C215.569 3.07759 214.217 3.08184 212.773 3.08015C212.483 3.07979 212.359 2.99841 212.137 2.99665C211.394 2.99158 208.858 3.20467 208.817 2.93953C207.341 3.17425 206.361 2.97194 205.174 2.97419C202.361 2.97927 197.957 3.02709 195.153 2.99665C194.562 2.99013 194.285 2.92219 193.957 2.91853C193.368 2.91179 190.001 2.94974 189.824 2.93904C189.479 2.91847 189.686 2.61928 187.908 2.87996C186.865 2.89853 186.988 2.77574 186.773 2.76912C185.093 2.7198 183.458 2.99385 183.763 2.74275C181.807 2.81094 180.539 2.94969 179.741 2.71492C179.751 2.82949 178.831 2.89822 177.722 2.85457C178.858 2.6621 178.717 2.5391 181.463 2.5743C181.506 2.57487 181.424 2.65772 181.467 2.65828C181.859 2.66388 182.677 2.62205 183.345 2.62655C184.014 2.63105 183.643 2.68769 183.91 2.6866C184.155 2.68548 184.147 2.60619 184.502 2.60506C185.651 2.60196 186.669 2.58011 187.323 2.5787C187.735 2.57788 188.196 2.64754 188.516 2.64754C189.753 2.64697 192.373 2.59257 193.946 2.60018C194.274 2.60196 194.136 2.68013 194.854 2.6866C194.937 2.68736 195.243 2.60585 195.871 2.58895C196.499 2.57205 196.986 2.61252 197.389 2.60409C197.727 2.59704 197.586 2.52463 198.277 2.52011C198.853 2.51644 205.382 2.56861 205.736 2.58016C206.246 2.59682 206.488 2.69851 206.8 2.68612C206.854 2.68346 206.947 2.58524 207.137 2.57821C210.267 2.46213 217.194 2.59613 220.771 2.5953C228.246 2.59389 235.143 2.5361 242.685 2.51327C242.82 2.49618 242.954 2.47909 243.089 2.462C242.326 2.46135 241.564 2.4607 240.801 2.46005C240.797 2.41383 240.792 2.3676 240.787 2.32138C239.756 2.31406 239.893 2.42338 239.922 2.48934C239.54 2.46135 239.159 2.43336 238.778 2.40536C238.449 2.56644 235.905 2.45931 234.594 2.45956C233.741 2.45956 232.726 2.52097 232.276 2.5162C231.326 2.50634 231.351 2.40695 231.276 2.40536C231.149 2.40311 229.823 2.49077 228.866 2.48739C227.452 2.48256 227.298 2.32994 225.362 2.45956C222.881 2.38038 220.131 2.42023 217.457 2.43319C217.966 2.29212 215.57 2.42564 214.489 2.42343C207.895 2.40962 199.791 2.34935 193.11 2.29355C192.252 2.28651 191.603 2.2034 191.125 2.20615C190.865 2.20756 190.752 2.30554 190.392 2.29257C190.329 2.29008 190.285 2.19846 189.614 2.18467C187.945 2.15 183.789 2.3029 182.737 2.12705C177.032 2.15423 171.327 2.18141 165.622 2.20859C165.478 2.17116 165.335 2.13372 165.192 2.09629C164.108 2.28759 159.823 2.17518 157.734 2.18418C154.057 2.20024 149.365 2.25972 146.143 2.26621C145.442 2.26762 144.869 2.21335 144.206 2.21445C143.921 2.21501 143.566 2.28537 143.269 2.28574C139.938 2.29109 135.427 2.21862 132.07 2.22031C124.447 2.22397 117.268 2.2133 109.544 2.2164C83.5256 2.22739 57.6569 2.33086 31.8603 2.28916C31.5145 2.28859 31.5317 2.20769 31.2637 2.20713C29.6816 2.20318 26.1484 2.26987 24.3615 2.26621C22.9378 2.26339 20.6781 2.13969 20.1882 2.26425C25.246 2.45278 30.5897 2.4386 35.8551 2.4913C36.2294 2.49501 36.2759 2.57192 36.322 2.57333C37.1744 2.60005 36.6361 2.49413 37.8723 2.48934C38.2854 2.48774 42.1015 2.73326 41.6475 2.48886C42.5614 2.58662 49.0036 2.63549 50.2468 2.60311C50.6244 2.59325 50.3571 2.52084 50.432 2.51718C50.7574 2.50118 50.9044 2.60102 51.1953 2.6036C51.9705 2.6098 53.9423 2.52882 54.317 2.52938C55.179 2.53025 57.7634 2.61152 58.9017 2.59237C59.945 2.5749 59.7497 2.47061 60.6518 2.46102C61.3627 2.45374 60.5883 2.54147 62.1756 2.56796C62.9623 2.58092 65.7144 2.51816 66.3833 2.51815C67.0519 2.51815 67.7958 2.58056 68.718 2.57577C70.0465 2.569 72.9364 2.53426 74.2882 2.51425C74.3689 2.51312 74.5656 2.43199 74.7644 2.43368C75.1763 2.43708 75.0526 2.53728 75.3636 2.54745C75.6748 2.55759 81.0647 2.54535 81.9801 2.54647C82.6111 2.54703 83.0468 2.48735 83.3955 2.48788C83.6691 2.48844 83.6984 2.5719 83.9775 2.57284C84.064 2.57284 84.7995 2.50035 85.5344 2.50204C86.2288 2.50374 88.8653 2.57267 89.1707 2.57333C89.3696 2.57361 89.1516 2.5143 89.7395 2.51571C90.2753 2.51716 90.6273 2.59417 90.9327 2.5953C91.6413 2.5978 92.4334 2.53214 93.1853 2.53182C95.3468 2.53098 95.2356 2.62638 95.3653 2.62948C95.7248 2.63809 95.8689 2.55071 95.987 2.54891C96.4854 2.54159 97.7068 2.52545 98.151 2.52206C98.7044 2.51783 98.9388 2.60088 99.5267 2.60116C99.9649 2.6011 100.85 2.52014 101.849 2.5162C104.103 2.5069 106.783 2.49162 108.996 2.49472C109.656 2.49556 109.758 2.57135 109.959 2.57333C111.02 2.58373 111.613 2.49898 111.916 2.50009C114.074 2.50769 117.925 2.64066 119.928 2.65194C120.743 2.65644 124.314 2.59505 126.329 2.60604C126.559 2.60718 126.343 2.66661 126.6 2.65731C127.213 2.63501 127.156 2.514 127.468 2.51766C127.618 2.5198 127.96 2.58802 128.398 2.59481C130.666 2.63004 132.225 2.57699 133.26 2.58065C143.197 2.61588 153.33 2.64758 162.61 2.65828C163.644 2.65941 164.927 2.58742 166.489 2.65731C166.537 2.6949 166.585 2.7325 166.634 2.7701C166.688 2.73315 166.743 2.69621 166.798 2.65926C168.567 2.63925 169.236 2.5917 171.042 2.63875C171.198 2.6427 171.673 2.81433 171.967 2.60116C173.757 2.75559 172.775 2.5999 174.103 2.58553C175.432 2.57116 176.723 2.61876 178.011 2.62948C178.717 2.70585 175.754 2.88199 175.561 2.88142C175.25 2.88074 174.927 2.77475 174.627 2.76912C173.74 2.75227 172.882 2.83638 172.683 2.74178C171.536 2.8418 172.963 2.79182 172.82 2.88191C172.055 2.84464 171.289 2.80737 170.524 2.7701C170.134 3.0765 165.904 2.67692 166.198 2.91023C165.862 2.86352 165.526 2.81681 165.189 2.7701C163.714 3.0628 162.846 2.85669 160.878 2.76961C161.02 2.80704 161.162 2.84448 161.304 2.88191C161.264 2.89753 159.527 2.95739 160.148 2.79793C158.367 3.00804 158.443 2.65855 156.846 2.91121C155.898 2.94361 156.468 2.79686 154.771 2.79939C153.765 2.8008 152.517 2.87753 151.393 2.88289C151.134 2.88388 151.021 2.79891 150.791 2.79891C150.56 2.79894 150.448 2.88225 150.169 2.88435C149.593 2.88886 148.845 2.83038 148.485 2.83601C148.162 2.84082 147.701 2.9143 146.923 2.92585C144.206 2.9667 145.027 2.86176 144.598 2.82625C144.136 2.78849 143.805 2.92675 142.886 2.91072C142.794 2.90903 143.032 2.82287 142.732 2.82625C142.491 2.8289 142.369 2.92255 141.568 2.94001C141.25 2.94706 136.3 2.96712 135.546 2.96882C134.39 2.97136 131.816 2.89209 130.62 2.89265C130.159 2.89267 129.666 2.96786 129.177 2.96736C127.554 2.96567 124.956 2.9593 122.899 2.95564C121.046 2.95224 117.793 2.78627 116.778 2.93611C114.176 2.95555 113.544 2.8275 113.348 2.82576C112.818 2.82097 112.573 2.9058 111.904 2.90974C103.244 2.95905 91.8396 2.90298 83.6376 2.90974C64.611 2.92609 45.4808 2.97244 26.388 2.93806C26.3368 2.97566 26.2857 3.01325 26.2345 3.05085C28.4911 3.07509 31.1431 3.1404 33.3709 3.15534C36.345 3.17505 40.7569 3.01848 42.9385 3.27545C42.0538 3.29799 40.6124 3.19946 40.6382 3.3316C42.2198 3.34104 43.8014 3.35048 45.383 3.35992C45.3358 3.29889 45.2886 3.23786 45.2415 3.17682C46.8928 3.15907 48.5818 3.17238 50.2389 3.16364C50.5267 3.1622 50.3229 3.10679 50.5736 3.10651C50.854 3.10631 50.6639 3.1627 50.7164 3.16315C51.4252 3.16372 51.6392 3.10667 51.7257 3.10749C51.9476 3.10974 51.7751 3.16405 52.4148 3.17926C53.6017 3.20769 54.4516 3.06343 54.1728 3.30377C54.556 3.30377 54.9391 3.30377 55.3223 3.30377C55.4215 3.23834 55.5207 3.17292 55.6199 3.10749C57.9768 3.37164 59.0636 2.90828 60.366 3.27594C60.7955 3.21979 61.225 3.16364 61.6544 3.10749C61.8965 3.17292 62.1385 3.23834 62.3806 3.30377C62.4278 3.24762 62.475 3.19147 62.5222 3.13532C64.8361 3.17672 67.2999 3.10932 69.513 3.11579C71.0546 3.1203 71.424 3.14247 72.7895 3.13825C75.827 3.12867 72.8106 3.24009 75.3345 3.36041C75.2031 3.29157 75.0717 3.22272 74.9403 3.15387C75.3583 3.12865 75.7763 3.10342 76.1943 3.07819C76.4853 3.13434 76.7764 3.19049 77.0674 3.24665C78.3583 2.9554 79.1945 3.19049 79.3703 3.19049C79.5123 3.18999 80 3.01465 81.5277 3.16315C80.8942 2.92344 82.6932 3.16174 82.8373 3.16315C82.9742 3.16412 84.7257 3.11061 85.4365 3.11286C85.9957 3.11457 87.1885 3.16617 88.0212 3.16364C88.7565 3.16139 88.6819 3.08001 88.7355 3.07917C89.6405 3.07241 89.0734 3.13564 89.7276 3.13874C90.3818 3.14183 90.8893 3.07248 91.0305 3.07868C91.1016 3.08198 90.8641 3.15779 91.1893 3.1651C92.0626 3.18507 93.6419 3.1187 94.6417 3.12067C94.9961 3.12128 95.4428 3.18559 95.8375 3.18756C96.4426 3.19037 96.7254 3.10495 97.0769 3.10749C97.1992 3.1086 97.9798 3.24055 98.95 3.22028C99.1346 3.21621 99.6768 2.93701 100.397 3.33258C100.453 3.27692 100.508 3.22126 100.564 3.16559C103.818 3.02779 104.723 3.47998 106.17 3.07868C108.532 3.1235 106.91 3.27982 107.17 3.30377C107.337 3.31891 108.108 3.27593 108.192 3.27838C108.342 3.28317 108.316 3.33335 108.481 3.33307C111.492 3.32377 110.155 3.22904 111.109 3.16901C113.377 3.02614 115.146 3.34334 111.201 3.24811C111.201 3.2761 111.201 3.3041 111.201 3.33209C112.173 3.30534 114.639 3.31804 113.815 3.46002C113.167 3.57189 107.317 3.49888 110.63 3.65581C111.382 3.69132 111.772 3.58627 113.075 3.78325C113.936 3.79394 114.06 3.53874 115.227 3.64116C115.035 3.55214 114.843 3.46311 114.651 3.37408C116.242 3.25804 118.205 3.4137 119.426 3.36383C119.842 3.34683 121.337 2.92238 120.989 3.34674C121.687 3.32028 124.974 3.39845 125.585 3.36041C125.732 3.35122 125.924 3.12529 128.05 3.20417C128.197 3.23249 128.345 3.2608 128.493 3.28912C126.548 3.3714 129.982 3.45509 129.05 3.66948C128.733 3.57312 127.191 3.51434 126.942 3.46588C126.519 3.38246 127.781 3.27495 126.173 3.30426C125.159 3.66258 128.057 3.4977 127.614 3.83794C129.726 3.67911 129.937 3.83065 130.415 3.83696C132.458 3.8626 133.744 3.82654 135.671 3.86626C136.141 3.79637 132.651 3.69548 132.219 3.72563C133.81 3.47792 131.072 3.46672 129.916 3.61382C129.819 3.53895 129.722 3.46409 129.625 3.38922C131.129 3.4298 132.597 3.45065 134.087 3.38922C134.184 3.41721 134.281 3.44521 134.378 3.4732C134.044 3.51535 133.709 3.55751 133.375 3.59966C134.614 3.66869 133.871 3.45038 135.522 3.64165C135.573 3.55735 135.624 3.47304 135.675 3.38873C137.258 3.41672 138.841 3.44472 140.424 3.47271C141.248 3.30366 144.294 3.36663 143.736 3.5855C144.966 3.60096 143.448 3.48447 144.6 3.43121C145.102 3.4081 146.082 3.40161 146.324 3.46051C146.22 3.66894 144.753 3.6948 144.309 3.83794C144.578 3.88411 151.399 3.7353 150.791 3.97904C151.335 4.00835 151.085 3.88278 152.067 3.85063C154.82 3.76102 159.083 4.0092 161.299 3.6978C158.696 3.52449 157.927 3.70805 155.932 3.71538C154.659 3.72017 146.892 3.74972 148.627 3.52935C148.341 3.55735 148.056 3.58534 147.771 3.61333C147.482 3.54774 147.194 3.48215 146.906 3.41656C147.718 3.40712 148.531 3.39768 149.344 3.38824C149.538 3.45367 149.732 3.5191 149.926 3.58453C150.015 3.53781 150.105 3.4911 150.194 3.44439C150.536 3.43512 150.878 3.42584 151.221 3.41656C151.125 3.47271 151.028 3.52886 150.932 3.58501C151.46 3.59462 151.987 3.60422 152.514 3.61382C152.372 3.53879 152.23 3.46376 152.088 3.38873C154.572 3.36986 153.731 3.41685 155.108 3.55718C156.137 3.57153 154.399 3.42732 156.575 3.39068C159.105 3.34815 157.445 3.57741 160.722 3.52837C160.769 3.49094 160.817 3.45351 160.864 3.41607C161.584 3.45351 162.305 3.49094 163.025 3.52837C162.93 3.48183 162.835 3.43528 162.739 3.38873C164.226 3.40677 166.276 3.31793 166.769 3.50054C165.261 3.41262 165.276 3.73147 165.668 3.79009C166.477 3.91036 178.429 3.79846 180.746 3.79057C183.709 3.78043 185.948 3.88256 188.654 3.72563C186.82 3.59692 180.372 3.70237 179.15 3.61333C179.029 3.6046 179.063 3.31231 178.285 3.64116C175.777 3.58539 172.781 3.67856 169.648 3.669C169.744 3.58485 169.84 3.50071 169.935 3.41656C171.86 3.59551 173.642 3.20245 173.392 3.52935C173.775 3.52935 174.158 3.52935 174.541 3.52935C174.541 3.47304 174.541 3.41672 174.541 3.36041C175.119 3.36041 175.696 3.36041 176.274 3.36041C176.274 3.41672 176.274 3.47304 176.274 3.52935C176.752 3.52935 177.231 3.52935 177.709 3.52935C177.759 3.4732 177.809 3.41705 177.859 3.3609C179.291 3.47752 184.175 3.16569 182.028 3.50103C182.701 3.50103 183.374 3.50103 184.047 3.50103C184.044 3.45985 184.042 3.41868 184.04 3.3775C184.329 3.37197 184.618 3.36643 184.908 3.3609C184.812 3.39817 184.717 3.43544 184.622 3.47271C185.947 3.40593 187.204 3.60215 188.074 3.4732C187.5 3.44504 186.926 3.41689 186.352 3.38873C187.453 3.44222 189.482 3.3314 189.663 3.33112C190.216 3.33056 190.508 3.4138 191.108 3.41803C191.649 3.42164 191.574 3.35767 191.675 3.35992C194.594 3.42504 193.481 3.77133 194.844 3.36139C194.989 3.41738 195.134 3.47336 195.28 3.52935C195.473 3.48264 195.666 3.43593 195.859 3.38922C196.721 3.39361 197.583 3.39801 198.445 3.4024C198.157 3.33242 197.87 3.26243 197.582 3.19245C198.875 3.16121 199.477 3.30153 199.602 3.30475C199.957 3.31291 200.119 3.22484 200.228 3.22467C205.493 3.23228 202.295 3.30983 204.927 3.64068C205.865 3.51084 204.916 3.38068 204.782 3.2486C206.03 3.31056 206.419 3.27399 207.736 3.28131C208.079 3.28331 208.447 3.35457 208.663 3.35553C208.851 3.35637 209.436 3.28065 209.886 3.28034C210.635 3.27977 211.632 3.32491 212.658 3.32379C213.511 3.32266 216.122 3.26918 217.944 3.26862C218.721 3.26862 218.541 3.33196 218.742 3.33209C218.825 3.33209 219.431 3.25622 219.929 3.25592C223.996 3.25423 228.163 3.30225 232.25 3.30084C235.129 3.3 238.054 3.23898 240.939 3.24518C241.553 3.24659 241.228 3.30229 241.496 3.30426C241.588 3.30476 241.699 3.20757 242.648 3.24665C242.991 3.26074 242.597 3.32871 242.934 3.33209C243.098 3.33371 243.168 3.2485 244.127 3.22907C245.87 3.19358 246.807 3.30715 246.963 3.30377C247.256 3.29723 247.171 3.22672 247.559 3.22418C249.461 3.21179 251.049 3.19983 252.746 3.19391C253.539 3.19109 259.003 3.17684 259.303 3.18952C259.974 3.21769 259.35 3.36494 260.21 3.35992C260.452 3.32265 260.693 3.28538 260.934 3.24811C260.551 3.21979 260.168 3.19147 259.785 3.16315C260.839 3.21049 262.035 3.14353 262.816 3.14606C262.961 3.14664 264.289 3.21341 264.966 3.20612C264.678 3.23379 264.39 3.26146 264.102 3.28912C264.204 3.31272 264.306 3.33632 264.408 3.35992C265.762 3.32415 267.195 3.32507 268.584 3.33014C269.084 3.33187 268.915 3.3892 269.422 3.39117C272.376 3.40326 271.63 3.16487 274.471 3.61236C273.512 3.57179 270.012 3.62871 269.503 3.61382C269.148 3.60339 267.774 3.22528 268.278 3.61333C265.442 3.61164 267.905 3.39761 265.257 3.44439C265.31 3.49175 265.363 3.53912 265.416 3.58648C264.491 3.61633 263.808 3.64027 263.246 3.55669C263.058 3.78646 259.916 3.65203 258.193 3.66753C255.703 3.68951 252.89 3.74556 250.423 3.75542C249.573 3.75876 249.092 3.66871 248.985 3.669C248.83 3.66964 248.392 3.74851 248.081 3.74907C246.919 3.75132 243.385 3.618 242.506 3.83696C249.418 3.83696 256.329 3.83696 263.24 3.83696C262.371 3.72933 269.361 3.71882 269.716 3.72417C270.044 3.72898 269.768 3.80454 269.865 3.80913C270.592 3.84154 271.212 3.73198 271.442 3.73198C271.618 3.732 271.973 3.7834 272.598 3.78227C272.713 3.78211 272.745 3.72775 272.868 3.72759C273.684 3.72759 274.489 3.72836 275.307 3.72808C275.357 3.7286 275.564 3.80801 275.77 3.80815C275.977 3.80815 276.182 3.72881 276.235 3.72856C276.889 3.72913 278.01 3.78073 278.633 3.7813C278.849 3.78127 278.699 3.72312 278.941 3.72368C279.684 3.72509 279.44 3.83892 280.359 3.80962C280.667 3.79974 280.647 3.71269 281.237 3.72417C281.655 3.73234 281.61 3.88747 281.676 3.89311C281.768 3.89992 283.21 3.77741 283.682 3.87895C282.651 4.14701 284.809 3.89294 284.706 3.77983C285.277 3.80831 285.848 3.8368 286.42 3.86528C286.615 3.83663 286.81 3.80799 287.005 3.77934C289.31 3.90841 290.717 3.83092 292.985 3.87065C293.094 3.87262 295.005 3.9363 294.916 3.9766C293.772 4.04591 292.631 4.04908 291.899 3.92094C290.694 4.16527 290.673 3.97056 288.728 4.00297C288.077 4.01396 288.031 4.08025 287.956 4.08109C285.423 4.11406 281.366 4.14258 279.659 3.94877C279.181 4.00119 280.901 4.02198 280.232 4.06058C279.867 4.08173 271.091 4.14362 273.895 3.92045C273.604 3.92664 273.312 3.93282 273.022 3.93901C272.73 4.1498 271.283 4.10159 271.447 3.89164C271.31 3.93461 271.173 3.97758 271.036 4.02055C270.765 4.0569 270.445 4.07637 269.995 4.08793C268.274 4.13187 258.031 4.05875 257.487 4.0889C257.475 4.13871 257.462 4.18851 257.45 4.23831C261.974 4.29468 266.364 4.17091 271.298 4.31351C271.155 4.2668 271.011 4.22009 270.868 4.17337C272.837 4.2388 274.805 4.30423 276.774 4.36966C274.691 4.4542 271.375 4.5252 269.188 4.45559C268.799 4.44318 269.084 4.37804 268.995 4.37015C268.762 4.34965 268.511 4.46267 267.672 4.47366C266.833 4.48463 264.726 4.40451 264.533 4.40677C264.161 4.41142 263.156 4.54073 262.523 4.53909C261.69 4.53683 262.248 4.45679 262.081 4.4551C261.389 4.44724 260.769 4.4869 260.228 4.48098C259.423 4.47218 257.753 4.33144 257.191 4.53811C257.765 4.54755 258.34 4.55699 258.914 4.56643C255.799 4.64054 253.363 4.37635 250.294 4.5801C249.596 4.83035 252.132 4.79653 249.988 4.90333C250.377 4.89975 250.767 4.89617 251.156 4.89259C251.247 4.84018 251.339 4.78778 251.43 4.73537C252.101 4.7728 252.771 4.81024 253.442 4.84767C253.25 4.80096 253.059 4.75425 252.868 4.70754C255.245 4.67231 257.646 4.62441 258.476 4.8755C258.525 4.81479 258.574 4.75409 258.623 4.69338C260.831 4.76719 264.144 4.50988 263.525 4.84767C263.63 4.82977 263.734 4.81186 263.839 4.79396C265.173 4.863 264.603 4.72332 265.105 4.70754C265.248 4.70309 267.841 4.77522 266.692 4.8755C269.222 4.95215 268.442 4.63644 269.139 4.62258C270.759 4.77898 273.672 4.54437 272.447 4.79152C272.689 4.8008 272.93 4.81007 273.171 4.81935C273.963 4.62491 274.745 4.84491 275.604 4.91847C275.895 4.92286 276.186 4.92726 276.477 4.93165C276.672 4.86622 276.866 4.8008 277.061 4.73537C279.799 5.04677 278.932 4.19514 280.183 4.91066C279.988 4.95346 279.793 4.99627 279.598 5.03907C279.136 5.05941 278.674 5.07976 278.212 5.1001C280.076 5.11898 281.94 5.13786 283.803 5.15674C286.169 5.3573 287.515 5.1397 290.143 5.29834C290.39 5.2793 290.636 5.26025 290.882 5.24121C290.631 5.40325 289.676 5.37944 291.454 5.45214C291.606 5.56671 290.405 5.58153 289.858 5.49365C289.726 5.4722 290.849 5.38444 289.587 5.38135C288.729 5.37913 290.286 5.51681 287.716 5.46582C287.811 5.49381 287.907 5.5218 288.002 5.5498C287.723 5.54898 287.445 5.54817 287.166 5.54736C286.918 5.48258 286.67 5.4178 286.423 5.35303C285.786 5.44659 285.428 5.5777 283.973 5.5498C284.367 5.50922 283.832 5.37915 283.112 5.38135C283.112 5.42822 283.112 5.47509 283.112 5.52197C281.368 5.55212 281.97 5.4146 280.52 5.52197C280.375 5.48469 280.23 5.44742 280.085 5.41015C279.295 5.56374 276.388 5.66822 276.918 5.43798C276.103 5.66174 274.39 5.56078 273.753 5.38183C273.704 5.42838 273.655 5.47493 273.606 5.52148C273.267 5.53092 272.928 5.54036 272.589 5.5498C272.4 5.52164 272.211 5.49348 272.021 5.46533C271.781 5.49348 271.541 5.52164 271.301 5.5498C271.156 5.50309 271.01 5.45638 270.865 5.40966C270.479 5.46565 270.093 5.52164 269.707 5.57763C269.47 5.54036 269.234 5.50309 268.998 5.46582C268.973 5.56325 266.632 5.58494 265.978 5.52099C265.783 5.54931 265.588 5.57763 265.393 5.60595C265.298 5.55956 265.203 5.51318 265.107 5.46679C264.962 5.5039 264.817 5.54101 264.672 5.57812C264.338 5.54101 264.004 5.5039 263.67 5.46679C262.306 5.6942 262.263 5.49468 261.951 5.49609C261.374 5.4987 259.409 5.6411 259.081 5.63378C258.753 5.6264 258.594 5.54478 258.329 5.5371C253.963 5.40888 255.758 5.62791 254.882 5.66259C254.41 5.68147 254.075 5.60532 253.657 5.61376C252.943 5.62785 249.337 5.7286 249.13 5.71874C248.827 5.70451 249.539 5.34545 248.557 5.43798C248.524 5.63078 246.425 5.43619 247.406 5.70507C246.541 5.68147 245.677 5.65787 244.812 5.63427C244.91 5.86281 243.844 5.71582 242.682 5.7285C241.037 5.74628 237.331 5.89655 237.467 5.6621C237.073 5.71597 236.678 5.76984 236.284 5.82371C233.587 5.74991 230.941 5.82724 228.264 5.83006C220.319 5.8388 211.698 5.7879 203.79 5.74169C203.41 5.7394 203.465 5.66281 203.191 5.66112C201.753 5.65267 198.015 5.70684 196 5.68993C195.355 5.68457 195.041 5.60987 194.836 5.60644C194.142 5.59432 194.306 5.69275 193.986 5.68993C193.481 5.68541 190.812 5.59404 189.893 5.58446C189.438 5.57972 188.9 5.65793 188.367 5.63378C188.321 5.63182 188.406 5.55121 188.367 5.5498C187.396 5.53993 187.98 5.60961 187.651 5.60595C185.308 5.57974 182.804 5.57814 180.262 5.56152C179.631 5.55729 178.665 5.50047 178.123 5.49511C177.917 5.49322 178.287 5.55438 177.573 5.54931C177.328 5.54758 177.245 5.46804 176.968 5.46289C175.778 5.44119 175.38 5.69676 174.357 5.4912C172.383 5.50473 168.947 5.57036 167.145 5.57177C166.719 5.57201 166.512 5.52503 166.106 5.52587C165.818 5.52644 165.311 5.5992 164.861 5.60009C164.411 5.60093 163.702 5.53164 162.837 5.53417C161.927 5.53672 160.795 5.57788 160.59 5.57763C160.342 5.57763 160.227 5.4901 159.979 5.4912C159.229 5.49402 157.223 5.58005 156.258 5.58935C155.22 5.5992 154.598 5.55676 154.243 5.55761C153.915 5.55878 153.532 5.63264 153.382 5.63329C153.149 5.63442 153.094 5.5481 152.797 5.54882C152.313 5.55023 151.814 5.60451 151.088 5.60595C138.016 5.63272 125.199 5.5853 112.481 5.52245C111.063 5.51541 110.262 5.57594 108.172 5.54833C107.325 5.53706 107.682 5.44799 107.023 5.46484C106.729 5.47245 106.803 5.5425 106.432 5.54589C104.789 5.56054 102.875 5.49545 102.163 5.49658C101.881 5.49691 101.558 5.57647 100.979 5.57763C96.6649 5.58665 91.5608 5.56431 86.918 5.57812C84.4597 5.58544 80.738 5.62598 77.9166 5.63134C70.1211 5.64627 61.7348 5.62784 54.6252 5.63573C43.8898 5.64729 33.2061 5.72086 22.4937 5.63378C27.5054 5.82625 34.3299 5.81019 39.9094 5.83104C56.0252 5.89078 73.1847 5.77896 89.7012 5.78319C95.4477 5.7846 102.693 5.78017 108.985 5.82469C109.27 5.82666 109.861 5.76548 110.478 5.77196C110.609 5.77347 112.234 5.88509 112.781 5.88621C112.262 5.68782 114.406 5.86464 115.069 5.85985C115.905 5.85361 117.649 5.75446 119.605 5.81053C121.38 5.86126 120.891 5.93757 120.989 5.94236C121.617 5.97329 121.836 5.8503 122.317 5.83787C124.282 5.78828 134.392 5.85973 137.214 5.86424C137.943 5.86537 137.964 5.94355 138.128 5.94383C138.563 5.94435 139.182 5.86713 139.879 5.86766C141.136 5.86879 142.583 5.94257 143.275 5.94285C144.929 5.94369 148.068 5.85665 150.218 5.85496C150.823 5.85446 150.786 5.93581 151.059 5.93553C152.264 5.9341 155.402 5.83823 156.898 5.83739C159.327 5.83598 161.826 5.88857 164.296 5.8618C164.453 5.89809 164.609 5.93439 164.766 5.97068C165.013 5.9326 165.26 5.89451 165.507 5.85643C169.682 5.88545 173.933 5.80371 178.086 5.80907C178.565 5.80963 180.933 5.87909 181.328 5.87938C181.657 5.87938 181.98 5.78947 182.467 5.80272C183.149 5.8211 182.507 5.99231 183.622 5.94334C183.922 5.9301 183.631 5.85681 184.233 5.83397C184.432 5.82636 188.292 5.79667 188.499 5.80174C188.845 5.81029 189.153 5.9673 189.242 5.97068C189.706 5.9884 189.686 5.86791 189.998 5.85692C190.916 5.82402 192.116 5.90508 192.265 5.9033C194.069 5.88104 197.442 5.78485 199.335 5.84178C199.597 5.84972 199.566 5.93945 199.612 5.94236C199.908 5.96095 200.093 5.85879 200.375 5.85643C201.894 5.84487 204.272 5.91366 205.8 5.93113C205.975 5.93304 206.347 5.88389 206.661 5.88865C208.436 5.91627 207.86 5.99513 207.961 5.99851C208.2 6.00688 208.621 5.91991 209.257 5.91453C210.897 5.90016 214.042 5.91265 215.8 5.91941C217.117 5.92477 217.097 6.02437 217.183 6.02634C217.368 6.02992 217.881 5.9504 218.748 5.94139C220.417 5.92364 220.226 6.00189 220.912 5.99851C220.97 5.99851 220.87 5.92193 221.63 5.91404C223.101 5.89885 226.402 5.97413 227.976 5.97019C228.581 5.96879 228.723 5.89495 229.342 5.89354C230.325 5.89101 232.542 5.97089 232.717 5.97068C232.766 5.97068 232.876 5.88572 233.164 5.88572C233.481 5.88574 233.793 5.92946 234.029 5.92918C235.375 5.92801 237.693 5.77974 237.049 6.08298C237.48 6.00812 237.911 5.93325 238.342 5.85838C241.161 5.87332 243.899 5.84333 246.692 5.82811C247.32 5.82474 247.844 5.88216 248.374 5.87938C248.904 5.87656 251.243 5.78155 251.634 5.77977C252.331 5.77667 256.294 5.76666 256.787 5.77342C257.75 5.78639 258.684 5.91171 259.076 5.88719C259.39 5.86746 259.099 5.79685 259.699 5.77684C260.736 5.74223 262.499 5.83294 262.816 5.83153C262.952 5.83095 262.698 5.77591 263.966 5.77196C264.649 5.7697 265.016 5.83034 265.263 5.83006C265.341 5.82974 265.225 5.73141 266.577 5.74462C267.511 5.75391 267.909 5.82978 268.007 5.83006C268.154 5.83057 268.509 5.74961 269.099 5.75243C270.48 5.75949 273.004 5.85231 274.315 5.85936C274.569 5.86077 274.483 5.76296 275.494 5.77196C276.217 5.77844 276.091 5.85624 276.362 5.85936C276.791 5.86415 277.431 5.76887 278.379 5.77196C279.572 5.7759 288.431 5.87473 288.889 5.90037C289.198 5.91756 289.556 5.91865 289.708 5.96092C289.577 6.00144 289.446 6.04197 289.315 6.0825C287.959 5.94028 288.506 6.10282 288.146 6.11326C287.625 6.12819 285.659 6.10746 285.183 6.14353C285.014 6.15656 285.402 6.24306 284.491 6.28757C283.515 6.33515 283.08 6.18114 282.691 6.39157C281.305 6.15795 279.973 6.40591 281.579 6.47213C282.475 6.50906 291.265 6.59247 293.06 6.60543C294.516 6.61584 297.242 6.55324 299.031 6.5693C300.083 6.57888 302.674 6.58974 302.564 6.70162C303.498 6.71571 302.51 6.60433 302.706 6.58883C303.116 6.55646 306.03 6.63338 306.582 6.63033C309.302 6.61568 312.735 6.49061 315.378 6.63179C315.255 6.66174 315.132 6.69169 315.009 6.72164C314.415 6.77659 311.66 6.69803 311.349 6.84175C315.378 6.84175 319.407 6.84175 323.436 6.84175C323.361 6.71944 328.359 6.72109 328.595 6.77632C328.507 6.83556 328.42 6.89481 328.332 6.95405C325.508 6.72922 325.761 7.02641 323.865 6.8686C323.093 6.86638 323.326 6.96426 322.946 6.98286C319.159 7.16767 322.885 6.782 319.987 6.86958C320.859 7.01156 318.485 7.06345 317.422 7.08149C317.18 7.08543 314 7.04945 313.623 7.0517C311.502 7.06439 307.859 7.14217 305.752 7.0644C304.092 7.0551 303.178 7.15623 301.671 7.17963C300.527 7.19738 300.855 7.1263 300.317 7.12543C299.187 7.12346 298.815 7.33985 298.092 7.03803C297.326 7.07563 296.56 7.11323 295.794 7.15082C295.794 7.10395 295.794 7.05707 295.794 7.0102C295.313 7.0102 294.832 7.0102 294.351 7.0102C294.21 7.05691 294.068 7.10362 293.927 7.15033C292.4 7.08636 293.037 6.97349 292.752 6.84077C292.422 6.83166 292.092 6.82254 291.763 6.81343C291.507 6.91531 291.252 7.0172 290.997 7.11908C289.524 7.11078 288.051 7.10248 286.579 7.09418C286.483 7.04747 286.388 7.00076 286.293 6.95405C286.29 7.00076 286.287 7.04747 286.284 7.09418C283.79 7.10379 281.296 7.11339 278.802 7.12299C278.139 7.19793 282.134 7.25471 282.437 7.25922C284.12 7.28401 288.59 7.20888 288.596 7.37542C289.642 7.25116 292.792 7.28202 293.772 7.43109C292.285 7.42214 290.797 7.41318 289.31 7.40423C289.358 7.46006 289.406 7.51588 289.454 7.57171C287.601 7.34655 287.33 7.35894 285.425 7.57171C285.423 7.49684 285.422 7.42197 285.42 7.34711C284.092 7.60744 281.744 7.16583 281.676 7.48724C280.969 7.4612 280.262 7.43516 279.555 7.40911C278.028 7.44829 280.399 7.69548 274.42 7.59856C274.008 7.5918 274.093 7.50993 273.474 7.51556C273.295 7.51725 272.272 7.63635 270.315 7.62395C270.01 7.62197 269.987 7.55094 269.67 7.54192C268.938 7.52051 267.48 7.66099 268.142 7.43206C265.243 7.3653 266.444 7.55318 265.545 7.62786C264.946 7.67742 265.067 7.54197 264.548 7.57268C263.906 7.61077 264.377 7.74732 261.807 7.6845C262.095 7.67522 262.384 7.66594 262.672 7.65667C262.527 7.61956 262.382 7.58245 262.237 7.54534C260.77 7.63438 260.909 7.50428 260.217 7.71282C259.151 7.61982 258.228 7.61242 256.77 7.62932C253.937 7.66229 255.389 7.88703 252.156 7.5844C251.632 7.62688 251.108 7.66936 250.585 7.71184C249.724 7.62251 250.42 7.51076 249.135 7.48821C250.141 7.70887 247.429 7.62841 246.971 7.82512C246.923 7.77824 246.875 7.73137 246.827 7.6845C246.54 7.6845 246.253 7.6845 245.966 7.6845C245.965 7.72209 245.964 7.75969 245.963 7.79729C245.581 7.76913 245.198 7.74097 244.816 7.71282C244.529 7.75009 244.241 7.78736 243.954 7.82463C243.481 7.74602 243.008 7.66741 242.536 7.5888C242.239 7.58343 241.942 7.57805 241.645 7.57268C241.739 7.62867 241.833 7.68466 241.927 7.74065C241.546 7.72193 241.164 7.70321 240.783 7.6845C241.227 7.77637 240.948 7.88409 239.76 7.88127C238.781 7.87901 239.884 7.68726 237.778 7.76701C237.631 7.7727 237.37 7.90945 235.379 7.93058C232.991 7.95592 234.151 7.85687 233.726 7.85344C233.642 7.85287 232.913 7.9217 232.23 7.93156C231.842 7.93718 231.469 7.88161 231.418 7.88176C231.178 7.88429 231.109 7.9629 230.777 7.96574C229.936 7.9725 228.807 7.93398 227.982 7.93791C227.608 7.9396 227.255 7.98617 227.088 7.98673C226.829 7.98727 226.5 7.91614 226.238 7.91642C225.269 7.91791 223.8 8.15392 223.35 7.82609C222.419 8.12754 220.469 7.76308 220.612 7.96525C218.125 7.88895 211.49 8.13697 211.685 7.79729C210.276 8.08773 210.402 7.87739 209.812 7.88176C209.152 7.88655 209.493 7.94288 208.969 7.94035C207.744 7.93443 206.574 7.91023 205.355 7.9091C205.546 7.86255 205.738 7.816 205.929 7.76946C204.65 7.75452 205.09 7.86285 203.785 7.88371C201.384 7.92175 202.396 7.83532 202.042 7.7133C202.137 7.8311 199.306 7.81279 199.018 7.79729C198.846 7.78784 199.599 7.63601 197.866 7.68499C197.96 7.7317 198.055 7.77841 198.15 7.82512C197.36 7.76123 195.215 7.8423 194.851 7.82658C194.684 7.81926 193.79 7.44255 192.971 7.74065C192.873 7.69394 192.774 7.64723 192.675 7.60052C191.766 7.65667 190.858 7.71282 189.949 7.76897C189.804 7.68482 189.659 7.60068 189.514 7.51653C189.225 7.51653 188.937 7.51653 188.648 7.51653C188.84 7.59124 189.031 7.66594 189.223 7.74065C187.442 7.70684 185.267 7.82464 184.9 7.57268C184.518 7.61939 184.137 7.66611 183.756 7.71282C183.507 7.629 183.259 7.54518 183.011 7.46136C181.245 7.4825 181.216 7.53853 180.008 7.62786C180.055 7.56243 180.102 7.497 180.15 7.43158C179.259 7.52344 177.633 7.60898 176.348 7.62053C175.737 7.62586 174.688 7.5357 174.544 7.54388C174.398 7.55249 172.965 7.90672 172.81 7.60003C170.7 7.73586 169.771 7.59713 168.915 7.60052C168.359 7.60279 168.106 7.6764 167.478 7.68401C166.578 7.695 165.673 7.65941 165.155 7.66448C164.858 7.66758 164.802 7.73937 164.598 7.74162C163.63 7.75258 164.197 7.67922 163.177 7.68401C163.083 7.68484 162.337 7.77241 161.497 7.76115C161.027 7.75493 159.812 7.65643 159.705 7.65667C159.229 7.65836 159.609 7.85528 157.984 7.62786C158.031 7.66529 158.078 7.70273 158.126 7.74016C156.114 7.83513 155.796 7.66822 155.39 7.65667C155.338 7.65572 154.848 7.72024 154.555 7.71135C154.06 7.69615 153.861 7.60782 153.751 7.60393C153.365 7.59041 152.064 7.62926 151.214 7.54388C151.393 7.79525 148.414 7.88465 147.754 7.60003C147.226 7.65618 146.699 7.71233 146.172 7.76848C145.933 7.72161 145.695 7.67473 145.456 7.62786C145.311 7.67457 145.166 7.72128 145.021 7.76799C144.252 7.66513 143.484 7.56227 142.715 7.45941C142.666 7.56243 142.617 7.66545 142.568 7.76848C142.353 7.75676 142.138 7.74504 141.923 7.73332C141.755 7.65146 141.587 7.56959 141.419 7.48773C141.15 7.50335 140.881 7.51897 140.612 7.5346C140.545 7.59384 140.479 7.65309 140.412 7.71233C138.966 7.78062 139.709 7.21558 136.955 7.71233C136.526 7.66562 136.097 7.61891 135.669 7.5722C135.185 7.79953 134.278 7.66188 133.546 7.68743C133.03 7.70546 133.058 7.79577 132.355 7.79777C131.652 7.79975 131.677 7.71338 131.622 7.71282C131.049 7.7075 130.617 7.78365 130.197 7.76848C130.133 7.76622 129.974 7.66366 129.439 7.65715C128.903 7.65067 128.579 7.75975 127.781 7.73918C127.372 7.72875 127.254 7.64234 126.891 7.63469C125.162 7.5975 123.421 8.03509 122.124 7.51605C121.831 7.58181 119.711 7.81199 118.803 7.79875C117.392 7.77761 117.936 7.6758 117.375 7.65715C117.294 7.65434 116.864 7.68873 115.68 7.68254C115.469 7.68142 115.518 7.73891 115.487 7.73967C114.107 7.73854 111.426 7.69316 109.91 7.68499C109.775 7.68414 109.066 7.84437 107.864 7.62883C106.083 7.78804 102.729 7.44599 100.38 7.68596C100.054 7.69103 99.6589 7.63372 99.5148 7.63567C98.2727 7.65342 98.7279 7.82744 95.9208 7.57268C96.1481 7.66143 95.4914 7.74154 94.5637 7.73479C93.1688 7.72464 94.1596 7.55916 93.0385 7.57268C93.0385 7.61939 93.0385 7.66611 93.0385 7.71282C90.4595 7.58717 89.9464 7.78688 87.3585 7.78801C86.4276 7.78829 85.0526 7.68478 84.8307 7.6845C84.7449 7.6848 83.7268 7.79742 83.6296 7.79826C83.0821 7.80164 82.7729 7.74972 82.3002 7.74944C80.7383 7.74834 78.8744 7.89484 79.2116 7.62883C78.7821 7.68499 78.3527 7.74114 77.9232 7.79729C76.3006 7.51322 75.0873 7.90473 74.7472 7.62883C74.4571 7.6858 74.167 7.74276 73.8768 7.79973C66.9177 7.77092 59.9586 7.74211 52.9995 7.7133C52.7228 7.80207 49.6882 7.77057 49.5325 7.75676C48.818 7.69419 49.5727 7.50061 48.1145 7.54485C47.9531 7.62965 47.7918 7.71444 47.6304 7.79924C45.7976 7.82685 46.6791 7.74247 45.9558 7.68499C45.6535 7.69544 45.7511 7.76125 45.342 7.76604C43.1229 7.79224 38.5727 7.79535 36.1461 7.8007C35.6568 7.80183 35.7306 7.74032 35.5786 7.74016C35.1608 7.74072 34.3363 7.81824 33.4979 7.81828C28.3134 7.81772 20.9668 7.774 15.7476 7.70891C15.3931 7.7044 15.3492 7.63103 15.11 7.62737C14.7785 7.6226 14.038 7.68191 13.6894 7.67571C13.3609 7.67007 13.1506 7.61435 12.7991 7.60784C11.191 7.5774 9.02886 7.67155 7.30832 7.50726C7.16362 7.4934 5.36098 7.19803 5.32019 7.17865C5.08099 7.06367 6.6829 6.88304 4.05165 6.7148C6.40335 6.56798 5.66869 6.30843 2.6138 6.18161C4.14601 6.1489 5.67822 6.11619 7.21043 6.08347C7.21264 6.05271 7.21484 6.02195 7.21705 5.99119C5.82225 5.83874 4.43842 5.78801 2.3175 5.77391C2.38364 5.74543 2.44977 5.71695 2.51591 5.68846C4.38919 5.54615 6.64896 5.51985 8.07552 5.32568C5.98334 5.18197 3.89116 5.03826 1.79897 4.89454C1.90347 4.87208 2.00797 4.84962 2.11247 4.82716C3.1154 4.76883 5.30609 4.73458 6.13899 4.68019C9.32002 4.47281 3.35488 4.52499 4.33472 4.39847C7.69324 4.40302 11.0518 4.40758 14.4103 4.41214C14.528 4.31896 1.60768 4.0616 1.74077 3.78032C2.79634 3.76144 3.85191 3.74256 4.90749 3.72368C4.43702 3.65223 3.96655 3.58078 3.49609 3.50933C3.62572 3.48671 3.75535 3.46409 3.88498 3.44146C5.66587 3.38596 7.44677 3.33046 9.22766 3.27496C3.81312 3.33075 1.29694 3.29026 0 2.72762C0.146828 2.7133 0.293655 2.69897 0.440483 2.68465C1.61345 3.03663 7.15025 2.92278 10.0928 2.85261C9.49302 2.74951 6.90213 2.82916 6.3546 2.76717C6.19945 2.74939 6.74051 2.67783 6.38105 2.6412C5.44156 2.54595 1.43808 2.4234 2.01987 2.30673C2.39453 2.23177 8.83621 2.12893 10.0928 2.13682C7.14743 2.00211 4.11271 1.96315 1.15875 1.79942C3.02332 1.57116 4.67466 1.29182 8.07817 1.27942C9.11557 1.15965 1.91057 0.993736 1.74341 0.928357C2.99035 0.858209 4.23728 0.788062 5.48421 0.717914C4.42952 0.736631 3.37483 0.755348 2.32014 0.774065C2.31706 0.750628 2.31397 0.727191 2.31088 0.703754C5.043 0.594976 7.54253 0.395315 10.6695 0.408842C10.5686 0.284846 8.69763 0.297179 7.78981 0.296052ZM307.014 7.34857C307.077 7.45138 305.931 7.43453 305.285 7.43255C305.382 7.45127 305.479 7.46999 305.576 7.4887C304.199 7.46926 301.634 7.4298 301.539 7.62932C300.556 7.65412 300.991 7.48062 300.674 7.46087C300.55 7.45298 299.267 7.55396 298.241 7.43109C297.998 7.43158 297.754 7.43206 297.51 7.43255C297.463 7.49798 297.416 7.56341 297.368 7.62883C297.028 7.54941 296.689 7.46999 296.349 7.39056C299.902 7.37656 303.455 7.36257 307.009 7.34857C307.011 7.34857 307.012 7.34857 307.014 7.34857ZM271.594 7.43304C270.3 7.39612 268.318 7.33783 268.719 7.51702C269.536 7.50758 270.354 7.49814 271.171 7.4887C271.312 7.47015 271.453 7.45159 271.594 7.43304ZM142.866 7.29193C141.785 7.11552 140.79 7.26811 139.119 7.23627C139.121 7.27354 139.123 7.31081 139.125 7.34808C139.809 7.25859 141.616 7.31813 142.866 7.29193ZM339.123 6.67427C339.361 6.68811 339.599 6.70194 339.837 6.71578C338.869 6.91614 338.696 6.77494 337.601 6.79439C337.534 6.7956 337.558 6.84147 337.534 6.84175C337.266 6.84484 337.019 6.78964 336.776 6.79048C336.31 6.79217 335.929 6.84812 335.102 6.84614C334.462 6.84443 334.456 6.75649 334.231 6.75874C334.04 6.76092 332.142 7.00285 330.921 6.89839C328.598 6.69943 338.414 6.65567 339.123 6.67427ZM346.008 6.8398C345.778 6.84061 345.549 6.84142 345.319 6.84224C346.01 6.70706 344.616 6.7276 343.593 6.73042C343.624 6.60079 345.789 6.65624 346.757 6.61764C346.507 6.69169 346.258 6.76574 346.008 6.8398ZM316.957 6.56197C317.856 6.54876 317.707 6.71056 317.669 6.75874C317.383 6.75874 317.097 6.75874 316.811 6.75874C316.859 6.69315 316.908 6.62756 316.957 6.56197ZM323.718 6.50582C323.439 6.61573 321.487 6.66379 320.562 6.67281C320.522 6.67283 320.776 6.61251 320.121 6.61812C319.925 6.61988 317.993 6.83936 318.418 6.59029C320.184 6.56214 321.95 6.53398 323.715 6.50582C323.716 6.50582 323.717 6.50582 323.718 6.50582ZM325.689 6.57076C325.321 6.60527 324.953 6.63977 324.586 6.67427C324.396 6.62268 324.206 6.57109 324.016 6.51949C324.434 6.50647 324.853 6.49345 325.271 6.48043C325.41 6.51054 325.55 6.54065 325.689 6.57076ZM49.0193 6.42428C49.1048 6.47946 49.1904 6.53463 49.2759 6.5898C49.6073 6.62362 51.2186 6.38338 50.7085 6.33688C50.1454 6.36602 49.5824 6.39515 49.0193 6.42428ZM42.215 6.30856C41.8799 6.28073 41.5447 6.2529 41.2096 6.22507C40.8243 6.31865 40.4389 6.41224 40.0535 6.50582C41.7276 6.56893 43.5088 6.64165 43.2216 6.36569C43.6047 6.36569 43.9879 6.36569 44.3711 6.36569C44.0484 6.47979 44.0918 6.51739 45.0946 6.5898C45.3139 6.43103 46.3509 6.51192 47.5378 6.47701C46.6745 6.46774 45.8111 6.45846 44.9478 6.44918C44.9478 6.42119 44.9478 6.3932 44.9478 6.3652C46.8721 6.37532 44.4804 6.19775 43.2269 6.30905C43.1281 6.27178 43.0293 6.23451 42.9306 6.19724C42.692 6.23435 42.4535 6.27145 42.215 6.30856ZM181.308 6.3652C181.07 6.33704 180.831 6.30889 180.593 6.28073C179.668 6.64746 181.55 6.29958 182.89 6.5898C182.448 6.36933 184.491 6.37855 184.607 6.36374C184.372 6.28952 184.137 6.2153 183.902 6.14109C183.038 6.21579 182.173 6.2905 181.308 6.3652ZM174.546 6.11228C175.374 6.29517 171.31 6.30638 169.947 6.26608C169.616 6.25617 169.025 6.15575 168.786 6.16843C168.641 6.20554 168.496 6.24265 168.351 6.27975C168.179 6.1515 165.517 6.2957 164.468 6.36471C164.369 6.318 164.271 6.27129 164.172 6.22458C163.79 6.24313 163.407 6.26169 163.025 6.28024C163.073 6.2337 163.121 6.18715 163.169 6.1406C162.88 6.19659 162.591 6.25257 162.302 6.30856C161.166 6.37084 161.866 6.11707 161.013 6.19626C160.065 6.28419 161.619 6.4353 161.59 6.53365C162.359 6.50829 164.109 6.45151 164.89 6.44869C165.339 6.44718 164.83 6.62339 166.763 6.42086C167.187 6.46806 167.611 6.51526 168.034 6.56246C168.812 6.48743 169.59 6.4124 170.368 6.33737C170.513 6.40264 170.658 6.4679 170.803 6.53317C170.886 6.54338 172.685 6.39519 172.589 6.34616C173.317 6.47092 174.813 6.49316 176.389 6.49947C176.541 6.46399 176.692 6.42851 176.844 6.39303C175.32 6.46966 176.359 6.35549 175.905 6.28757C175.643 6.2484 174.84 6.17146 174.546 6.11228ZM59.6372 6.28122C57.0781 6.44043 58.6625 6.30906 55.8964 6.30905C56.0895 6.39336 56.2826 6.47767 56.4758 6.56197C57.8358 6.40794 60.0736 6.51037 59.6398 6.28122C59.639 6.28122 59.6381 6.28122 59.6372 6.28122ZM32.5693 6.56148C34.0331 6.51048 33.2985 6.37937 35.154 6.33737C35.1549 6.33737 35.1558 6.33737 35.1566 6.33737C34.1972 6.32793 33.2377 6.31849 32.2783 6.30905C32.3753 6.3932 32.4723 6.47734 32.5693 6.56148ZM118.141 6.45944C119.544 6.49607 119.268 6.43047 120.542 6.56148C122.438 6.40255 120.833 6.42502 120.833 6.28073C120.399 6.32305 119.966 6.36536 119.532 6.40768C118.482 6.27275 119.478 6.20483 119.478 6.19187C119.477 6.19187 119.476 6.19187 119.475 6.19187C119.476 6.14856 119.509 6.13944 119.106 6.11326C118.785 6.22865 118.463 6.34404 118.141 6.45944ZM124.147 6.28122C123.666 6.37703 123.45 6.50005 124.715 6.56148C124.716 6.56148 124.717 6.56148 124.718 6.56148C124.819 6.34735 126.032 6.52019 126.585 6.50582C126.73 6.48255 126.875 6.45927 127.021 6.436C126.063 6.38441 125.105 6.33281 124.147 6.28122ZM145.312 6.08445C145.317 6.321 144.255 6.34351 145.75 6.56148C146.04 6.55725 146.33 6.55302 146.62 6.54879C146.811 6.49687 147.001 6.44495 147.191 6.39303C150.872 6.82109 151.969 6.0922 145.75 6.36471C145.749 6.36488 145.748 6.36504 145.747 6.3652C145.602 6.27162 145.457 6.17803 145.312 6.08445ZM138.83 6.10447C138.783 6.22865 138.737 6.35283 138.69 6.47701C137.877 6.17745 136.827 6.46328 135.234 6.25192C135.089 6.28968 134.945 6.32744 134.801 6.3652C134.205 6.28211 128.355 6.25817 129.622 6.44918C130.176 6.5326 131.381 6.4193 131.485 6.42184C131.836 6.43121 132.295 6.5379 132.888 6.5317C133.231 6.52797 133.954 6.40257 134.654 6.4028C136.219 6.40336 139.075 6.74004 141.133 6.42135C141.281 6.45879 141.429 6.49622 141.578 6.53365C143.105 6.51081 142.595 6.3922 144.016 6.53365C144.997 5.94381 138.304 6.56275 139.698 6.08445C139.697 6.08445 139.696 6.08445 139.695 6.08445C139.407 6.09112 139.119 6.09779 138.83 6.10447ZM96.7886 6.28122C96.6964 6.1753 94.9253 6.33873 95.3415 6.08494C94.7634 6.17331 94.1853 6.26169 93.6073 6.35007C93.6117 6.37366 93.6161 6.39726 93.6205 6.42086C94.1951 6.40231 94.7696 6.38376 95.3441 6.3652C95.3463 6.40264 95.3485 6.44007 95.3507 6.4775C96.2068 6.34208 99.7797 6.40107 99.6709 6.53365C99.8618 6.47767 100.053 6.42168 100.244 6.36569C101.953 6.51815 103.423 6.35605 105.285 6.50485C105.429 6.45846 105.573 6.41208 105.717 6.36569C105.811 6.40312 105.905 6.44056 105.999 6.47799C106.677 6.48271 107.355 6.48743 108.033 6.49215C110.243 6.34142 105.95 6.14629 105.429 6.16843C105.36 6.17153 105.37 6.26844 104.938 6.28366C104.17 6.31038 99.8727 6.21388 98.5439 6.2778C98.5324 6.21351 98.521 6.14922 98.5095 6.08494C97.9359 6.15036 97.3622 6.21579 96.7886 6.28122ZM153.524 6.33737C153.621 6.4028 153.718 6.46823 153.815 6.53365C155.489 6.46831 156.543 6.52543 156.114 6.30905C156.113 6.30905 156.112 6.30905 156.111 6.30905C155.248 6.31849 154.386 6.32793 153.524 6.33737ZM277.934 6.39303C277.89 6.26297 277.09 6.21435 276.056 6.30759C276.106 6.34535 276.156 6.3831 276.205 6.42086C276.744 6.31011 277.417 6.50315 279.08 6.4775C279.08 6.41208 279.08 6.34665 279.08 6.28122C278.698 6.31849 278.316 6.35576 277.934 6.39303ZM152.079 6.30905C151.569 6.2319 150.137 6.46595 151.079 6.4775C151.8 6.48623 152.353 6.35048 152.079 6.30905ZM26.8113 6.43502C27.1896 6.44869 27.5679 6.46237 27.9462 6.47604C28.1433 6.42038 28.3404 6.36471 28.5375 6.30905C28.5366 6.30905 28.5357 6.30905 28.5348 6.30905C27.9603 6.35104 27.3858 6.39303 26.8113 6.43502ZM113.343 6.47018C114.626 6.46204 115.909 6.4539 117.192 6.44577C117.205 6.40947 117.218 6.37318 117.231 6.33688C115.945 6.46933 115.429 6.32658 115.129 6.31784C115.13 6.31784 115.131 6.31784 115.133 6.31784C114.17 6.2891 113.254 6.26796 112.343 6.22458C112.676 6.30645 113.01 6.38831 113.343 6.47018ZM108.945 6.24118C109.161 6.49763 109.443 6.52749 111.414 6.34714C111.336 6.31556 111.258 6.28399 111.18 6.25241C110.159 6.27128 109.563 6.33049 109.742 6.19675C109.477 6.21156 109.211 6.22637 108.945 6.24118ZM129.038 6.32321C128.801 6.24157 126.924 6.32356 127.026 6.36471C127.066 6.38106 129.499 6.48328 129.038 6.32321ZM292.187 6.33639C291.755 6.31768 291.322 6.29896 290.89 6.28024C291.465 6.25241 292.04 6.22458 292.616 6.19675C292.473 6.2433 292.33 6.28985 292.187 6.33639ZM296.936 5.97166C297.244 6.00435 296.242 6.23491 298.085 6.2944C296.744 6.29929 295.402 6.30417 294.06 6.30905C294.689 6.27178 295.319 6.23451 295.948 6.19724C295.838 6.131 295.728 6.06475 295.618 5.99851C296.058 5.98956 296.497 5.98061 296.936 5.97166ZM298.376 6.1406C297.654 5.96536 301.458 5.9522 301.813 5.97361C301.892 5.9787 302.267 6.11156 302.406 6.14011C301.831 6.14027 301.257 6.14044 300.682 6.1406C300.874 6.18243 301.067 6.22426 301.259 6.26608C300.586 6.28041 299.914 6.29473 299.242 6.30905C299.529 6.26706 299.816 6.22507 300.104 6.18308C299.528 6.16892 298.952 6.15476 298.376 6.1406ZM283.112 6.18308C283.593 6.18747 284.074 6.19187 284.555 6.19626C284.459 6.13083 284.363 6.06541 284.266 5.99998C283.978 5.99998 283.691 5.99998 283.403 5.99998C283.306 6.06101 283.209 6.12205 283.112 6.18308ZM292.913 6.09861C292.213 6.41363 290.305 5.72494 292.535 5.97996C292.76 6.00589 292.98 6.06817 292.913 6.09861ZM303.239 6.01121C304.735 5.78153 304.397 6.28862 302.985 6.14011C302.914 6.13221 303.127 6.02817 303.239 6.01121ZM314.453 6.00388C314.575 6.00559 314.786 6.16978 315.943 6.01365C316.134 6.03237 316.325 6.05108 316.516 6.0698C316.069 6.14609 312.247 6.19147 312.775 6.02879C313.36 6.02625 313.848 5.99881 314.453 6.00388ZM310.752 5.39648C310.179 5.40104 309.605 5.4056 309.031 5.41015C309.22 5.46158 309.41 5.51301 309.599 5.56444C309.317 5.57844 309.034 5.59244 308.752 5.60644C308.27 5.51773 307.787 5.42903 307.305 5.34033C308.552 5.32617 309.799 5.31201 311.046 5.29785C310.948 5.33073 310.85 5.3636 310.752 5.39648ZM295.501 5.26953C296.604 5.33407 297.957 5.26538 299.749 5.27637C299.75 5.27653 299.751 5.27669 299.752 5.27686C299.841 5.27761 300 5.34826 300.288 5.35107C300.533 5.35332 305.374 5.27574 304.997 5.3955C303.124 5.50286 302.424 5.33964 301.974 5.60595C301.883 5.5498 301.792 5.49365 301.701 5.4375C299.899 5.34027 299.385 5.53465 298.374 5.60595C298.378 5.56363 298.382 5.52131 298.386 5.479C297.71 5.47477 297.035 5.47054 296.359 5.4663C296.454 5.49413 296.55 5.52197 296.645 5.5498C296.406 5.5498 296.167 5.5498 295.928 5.5498C295.346 5.42441 294.608 5.39518 295.501 5.26953ZM313.354 5.4663C313.884 5.14533 319.052 5.36519 321.412 5.29785C320.173 5.49112 318.253 5.35793 316.902 5.35596C314.289 5.35231 316.095 5.4706 315.652 5.52245C315.433 5.5481 313.951 5.34231 313.354 5.4663ZM291.469 5.32568C292.772 5.35161 293.501 5.27771 294.628 5.3955C294.533 5.41894 294.439 5.44238 294.345 5.46582C293.959 5.44436 290.812 5.37666 291.469 5.32568ZM324.872 5.38183C322.356 5.26657 323.597 5.55719 322.288 5.33935C323.149 5.32552 324.01 5.31169 324.872 5.29785C324.872 5.32585 324.872 5.35384 324.872 5.38183ZM149.199 5.10157C148.139 5.09423 146.955 5.03565 146.321 5.15674C147.042 5.17546 147.762 5.19418 148.483 5.21289C148.721 5.17578 148.96 5.13868 149.199 5.10157ZM179.435 3.9185C179.193 3.88947 178.236 3.97514 178.135 3.97514C177.948 3.97514 177.999 3.93294 177.996 3.92192C176.769 3.92956 177.901 4.06045 176.994 4.0889C176.838 4.0936 174.706 4.0289 173.839 4.03422C172.504 4.04239 171.172 4.03392 170.673 4.03617C169.832 4.03986 168.269 4.13803 166.886 4.1431C166.316 4.14503 166.117 4.06642 165.544 4.0684C161.863 4.08164 154.618 4.18956 151.353 4.13968C150.546 4.12729 149.777 4.02436 149.35 4.03275C149.014 4.07035 148.677 4.10795 148.341 4.14554C147.306 3.8071 146.96 4.10812 145.845 4.13968C145.136 4.15963 144.805 4.05936 144.71 4.05961C144.079 4.06158 143.768 4.10932 143.272 4.11722C142.716 4.12596 141.917 4.08073 141.718 4.0889C141.596 4.09438 141.986 4.22766 139.828 4.22513C137.628 4.2225 135.457 4.20841 133.22 4.20218C133.966 4.60456 134.609 4.32917 135.522 4.31448C135.767 4.31054 135.612 4.37443 135.825 4.37161C136.427 4.36399 137.58 4.30122 138.079 4.31644C138.617 4.33285 138.433 4.48092 139.116 4.4263C139.151 4.42348 139.041 4.36232 139.202 4.35208C140.816 4.25091 141.344 4.35728 143.385 4.36038C144.737 4.36262 152.947 4.30194 153.229 4.34183C154.698 4.556 146.047 4.55746 145.035 4.54055C144.681 4.53461 145.053 4.46709 144.73 4.45413C144.593 4.44895 143.363 4.5777 142.148 4.5884C140.678 4.60136 137.724 4.51354 136.324 4.51663C124.283 4.5434 112.409 4.46559 100.38 4.46389C100.123 4.46389 99.7857 4.54103 98.95 4.54104C83.3527 4.53963 67.1871 4.47881 51.391 4.51516C47.9472 4.52306 44.5317 4.5956 41.0562 4.53811C40.625 4.59442 40.1938 4.65074 39.7625 4.70705C40.8655 4.66227 42.8867 4.78965 43.0708 4.79152C43.1371 4.79208 43.5553 4.72858 44.2295 4.73195C45.1777 4.73646 45.5935 4.79152 45.6714 4.79152C45.9125 4.7917 45.7545 4.73313 45.9849 4.73342C47.7025 4.73595 49.0315 4.71933 50.6079 4.71877C52.3888 4.71822 53.2914 4.8273 54.5882 4.70754C54.735 4.75425 54.8818 4.80096 55.0286 4.84767C55.9976 4.64566 61.7671 4.66802 64.1042 4.67873C64.8416 4.68214 64.7122 4.76418 64.96 4.76418C65.1182 4.76408 65.0558 4.65666 66.9852 4.67775C67.9564 4.68846 68.2111 4.76671 68.6982 4.76418C68.9628 4.76268 68.9198 4.68508 69.3 4.68508C71.4989 4.68508 73.2943 4.71025 75.447 4.72463C76.0522 4.72857 76.0589 4.79334 76.1943 4.7925C76.693 4.7896 77.5604 4.67991 78.828 4.68019C80.9145 4.68076 85.073 4.68113 86.7792 4.73439C87.0299 4.74228 87.2376 4.81999 87.422 4.81886C87.7012 4.81688 87.8108 4.7358 87.8599 4.73537C88.7936 4.73396 88.2318 4.80935 88.8572 4.79103C89.1943 4.78116 89.5459 4.68869 90.3295 4.67824C91.3641 4.66443 91.1604 4.77419 91.5927 4.7632C91.6384 4.76148 91.652 4.68516 92.0769 4.68264C93.6879 4.67362 96.0248 4.65599 97.5492 4.65627C97.9871 4.65627 98.3128 4.70765 98.9235 4.70851C100.154 4.7102 107.149 4.67746 107.723 4.70705C107.783 4.71015 107.161 4.82273 108.153 4.81935C108.44 4.77248 108.728 4.7256 109.016 4.67873C109.498 4.75376 109.979 4.82879 110.461 4.90382C110.443 4.64458 113.276 4.60455 113.248 4.86964C113.558 4.88038 113.868 4.89113 114.178 4.90187C114.823 4.71871 115.253 4.78633 116.501 4.67873C116.695 4.73488 116.889 4.79103 117.084 4.84718C117.133 4.80975 117.182 4.77231 117.231 4.73488C117.896 4.93774 118.988 4.73405 119.121 4.73293C119.631 4.72843 120.014 4.77999 120.253 4.77834C121.147 4.77298 123.08 4.70193 124.124 4.73488C124.173 4.73657 124.124 4.82329 124.421 4.834C124.957 4.85334 125.009 4.72638 125.723 4.8755C125.867 4.83807 126.011 4.80063 126.155 4.7632C126.308 4.78257 126.461 4.80194 126.614 4.8213C127.517 4.81138 128.42 4.80145 129.323 4.79152C128.502 4.93834 129.447 5.02034 130.341 4.9048C130.643 4.86562 130.375 4.77624 130.476 4.76271C130.614 4.74439 134.667 4.7899 134.935 4.84767C135.126 4.81951 135.318 4.79136 135.51 4.7632C135.607 4.81951 135.704 4.87583 135.801 4.93214C135.907 4.91245 136.013 4.89275 136.119 4.87306C137.173 4.97224 139.911 4.74474 140.407 4.76271C140.672 4.77229 140.434 5.01232 141.705 4.9878C141.749 4.92189 141.793 4.85597 141.837 4.79005C142.128 4.78061 142.419 4.77117 142.71 4.76174C143.256 4.76761 144.051 4.88185 144.076 4.95997C144.247 4.9131 144.418 4.86622 144.588 4.81935C145.046 4.97207 147.49 4.91794 148.473 4.8213C148.761 4.86736 149.048 4.91342 149.336 4.95948C149.722 4.9035 150.108 4.84751 150.494 4.79152C151.389 4.77466 150.444 4.86774 150.635 4.8755C151.038 4.89156 153.094 4.73433 152.959 4.93019C153.239 4.93068 153.52 4.93116 153.8 4.93165C153.944 4.87566 154.088 4.81968 154.233 4.76369C154.714 4.95672 155.547 4.88857 157.255 4.95899C157.398 4.91456 157.542 4.87013 157.685 4.8257C158.213 4.88885 158.742 4.952 159.27 5.01515C159.378 4.94158 159.487 4.86801 159.595 4.79445C159.825 4.78387 160.055 4.77329 160.284 4.76271C160.751 4.9275 161.589 4.74943 162.016 4.8174C162.638 4.91659 162.157 5.0348 161.001 5.05762C161.088 5.17764 164.53 5.12253 165.324 5.11378C165.272 5.09034 165.219 5.0669 165.167 5.04346C164.355 5.06202 163.543 5.08057 162.731 5.09913C162.051 4.79731 164.256 4.87826 165.267 4.83937C165.36 4.83564 165.884 4.7213 166.903 4.73195C167.298 4.73618 168.838 4.90331 169.132 4.91261C171.506 4.98893 169.761 4.75011 172.083 4.95948C171.599 4.79913 172.934 4.93238 174.323 4.90138C174.559 4.89608 176.564 4.7661 176.7 4.76271C177.544 4.74186 176.625 4.88359 177.847 4.84669C177.994 4.80942 178.14 4.77215 178.287 4.73488C178.572 4.73488 178.856 4.73488 179.14 4.73488C180.866 5.06703 181.268 4.82243 181.881 4.79103C182.129 4.77835 181.81 4.86501 182.453 4.84669C182.695 4.83988 182.963 4.76778 183.614 4.76271C185.651 4.74696 186.343 5.05558 188.216 4.73439C188.503 4.78094 188.791 4.82749 189.078 4.87404C189.272 4.81821 189.466 4.76239 189.66 4.70656C191.144 4.86855 190.609 4.70264 191.145 4.70461C192.56 4.70968 195.456 4.74144 195.709 4.87501C196.931 4.56819 198.392 4.91432 198.874 4.90236C199.16 4.86508 199.446 4.82781 199.732 4.79054C200.068 4.82798 200.405 4.86541 200.741 4.90284C200.578 4.60154 202.32 4.89783 202.487 4.90236C202.68 4.90686 205.36 4.81769 206.358 4.81935C207.354 4.82104 209.09 4.90268 209.243 4.90284C209.419 4.90284 211.114 4.82095 212.44 4.82179C213.6 4.82267 220.472 4.93902 220.039 4.8047C219.59 4.7675 218.95 4.73526 218.396 4.71779C216.679 4.66425 206.597 4.59566 204.02 4.57424C198.853 4.53169 193.464 4.53958 188.274 4.51028C187.969 4.50859 187.922 4.43049 187.66 4.42874C187.263 4.42648 186.253 4.50464 185.861 4.50295C184.397 4.49619 182.616 4.48344 181.832 4.48147C180.08 4.47752 178.879 4.43049 177.553 4.42288C177.138 4.42062 175.04 4.51744 173.602 4.47659C173.341 4.45462 173.081 4.43264 172.82 4.41067C173.561 4.38503 175.504 4.31867 176.406 4.31107C177.749 4.30009 178.449 4.36343 178.945 4.36233C179.36 4.36149 181.48 4.28935 182.446 4.28763C182.746 4.28706 182.807 4.36896 183.064 4.36868C184.456 4.36671 186.289 4.36452 187.496 4.28421C187.004 4.31042 190.081 4.36066 190.242 4.36038C190.519 4.36036 190.819 4.28372 191.384 4.28372C192.47 4.28376 192.332 4.44405 193.69 4.28372C194.026 4.33043 194.362 4.37714 194.698 4.42385C194.718 4.21031 198.964 4.50078 200.171 4.24124C200.203 4.21194 194.686 4.12877 194.231 4.12455C191.499 4.09891 187.456 4.15127 184.805 4.11381C184.007 4.10254 181.498 3.97272 181.308 3.97514C181.003 3.9788 181.279 4.05306 181.147 4.0557C178.448 4.11092 179.794 3.96167 179.435 3.9185ZM298.374 5.12891C297.554 5.12012 296.734 5.11133 295.913 5.10255C295.973 5.05567 296.032 5.0088 296.092 4.96192C296.468 4.98015 296.843 4.99838 297.219 5.01661C297.508 4.98862 297.797 4.96062 298.085 4.93263C298.182 4.99806 298.278 5.06348 298.374 5.12891ZM300.395 4.93263C301.106 4.90903 301.141 5.00787 301.305 5.0127C301.795 5.02736 302.219 4.98739 302.694 4.98878C302.146 5.22358 300.98 5.11597 300.395 4.93263ZM285.706 4.84816C285.866 4.85939 286.936 5.11217 288.154 4.87697C289.065 4.95167 289.976 5.02638 290.887 5.10108C289.339 4.98695 287.198 5.10559 286.44 5.10108C286.152 5.09937 286.097 5.02178 285.867 5.02052C284.541 5.01432 283.252 5.19013 283.117 4.93312C284.371 5.0078 285.501 4.83435 285.706 4.84816ZM293.706 4.93946C293.918 4.99317 294.13 5.04688 294.342 5.10059C293.576 5.10059 292.809 5.10059 292.043 5.10059C292.25 5.04623 292.457 4.99187 292.665 4.93751C293.012 4.93816 293.359 4.93881 293.706 4.93946ZM234.751 4.76174C235.224 4.76239 235.696 4.76304 236.169 4.76369C236.143 4.72454 235.602 4.7247 235.403 4.69826C235.404 4.69826 235.405 4.69826 235.406 4.69826C235.184 4.66839 235.279 4.61799 234.875 4.59572C234.834 4.65106 234.793 4.7064 234.751 4.76174ZM39.1898 4.53909C38.3975 4.53627 31.0809 4.53598 31.7042 4.67873C32.0183 4.75003 34.5207 4.68786 35.2585 4.68898C36.2531 4.69043 38.9391 4.84481 39.1898 4.53909ZM26.2319 4.51125C26.1051 4.65351 30.6778 4.67614 31.1248 4.65139C31.0299 4.6311 30.8836 4.58595 30.7571 4.57571C30.1404 4.52667 27.2177 4.55014 26.2319 4.51125ZM208.281 4.3511C208.65 4.42304 209.018 4.49498 209.387 4.56692C209.29 4.47333 209.193 4.37975 209.096 4.28616C208.824 4.30781 208.553 4.32946 208.281 4.3511ZM172.524 4.45413C166.383 4.44957 160.242 4.44501 154.102 4.44046C154.642 4.40156 155.182 4.36266 155.722 4.32376C161.013 4.33757 166.656 4.37695 171.766 4.31692C172.019 4.36266 172.271 4.40839 172.524 4.45413ZM283.975 4.42678C282.402 4.42539 281.088 4.49412 279.376 4.38479C281.007 4.27883 281.815 4.44277 283.4 4.28665C283.401 4.28665 283.402 4.28665 283.403 4.28665C283.594 4.33336 283.785 4.38007 283.975 4.42678ZM248.848 4.39847C249.326 4.33304 249.805 4.26761 250.283 4.20218C249.708 4.20218 249.132 4.20218 248.557 4.20218C248.654 4.26761 248.751 4.33304 248.848 4.39847ZM118.96 4.09037C117.314 4.23317 113.104 3.97471 111.766 4.14652C111.68 4.15779 112.475 4.23029 111.19 4.37063C112.161 4.3419 112.846 4.31257 112.918 4.20218C113.207 4.23962 113.495 4.27705 113.784 4.31448C114.262 4.28616 114.74 4.25784 115.219 4.22952C115.167 4.33943 115.205 4.33358 115.94 4.25833C116.275 4.28616 116.61 4.31399 116.945 4.34183C117.087 4.29528 117.229 4.24873 117.371 4.20218C117.661 4.26728 117.951 4.33239 118.241 4.39749C119.372 4.32686 118.683 4.20072 118.96 4.09037ZM124.72 4.11722C124.453 4.09303 116.823 4.17196 120.29 4.39114C121.192 4.38414 122.093 4.37714 122.994 4.37015C122.248 4.00718 124.704 4.33178 124.905 4.33938C125.871 4.37484 127.101 4.28853 127.801 4.293C128.403 4.29694 128.761 4.36206 129.185 4.36038C130.627 4.35475 132.907 4.35237 133.22 4.20218C132.099 4.19906 130.959 4.19744 129.793 4.20121C128.56 4.20515 127.475 4.0634 125.158 4.25784C124.585 4.23695 124.789 4.12342 124.72 4.11722ZM251.724 4.21732C251.666 4.36818 254.578 4.33211 254.597 4.27249C254.602 4.23755 253.654 4.23838 253.519 4.22513C253.518 4.22513 253.517 4.22513 253.516 4.22513C253.459 4.21934 253.746 4.16159 253.3 4.14554C252.775 4.16947 252.249 4.19339 251.724 4.21732ZM50.5696 4.20169C50.1759 4.11704 41.1835 4.14748 40.9186 4.18802C40.8467 4.19928 40.947 4.23641 40.9186 4.25784C43.0165 4.1384 45.9988 4.27977 47.9902 4.28909C48.5453 4.29161 48.3794 4.23164 48.4108 4.2305C48.4121 4.2305 48.4135 4.2305 48.4148 4.2305C48.7298 4.23035 50.1518 4.37688 50.5696 4.20169ZM108.887 4.21537C109.269 4.23896 109.651 4.26256 110.033 4.28616C110.13 4.23945 110.227 4.19274 110.324 4.14603C110.324 4.14603 110.323 4.14603 110.322 4.14603C109.843 4.16914 109.365 4.19225 108.887 4.21537ZM95.6417 4.06156C95.7348 4.09444 95.8278 4.12731 95.9208 4.16019C96.8834 4.16475 97.8459 4.16931 98.8084 4.17386C98.7114 4.19242 98.6144 4.21097 98.5174 4.22952C99.9728 4.27912 100.576 4.16358 101.351 4.18021C101.35 4.18021 101.349 4.18021 101.348 4.18021C101.432 4.18214 101.533 4.25064 101.843 4.25296C102.554 4.25831 104.594 4.28381 104.84 4.21488C105.362 4.06781 101.258 4.13762 100.492 4.1309C100.146 4.1278 99.7305 4.06785 99.5201 4.06644C99.2896 4.06513 98.9757 4.14608 98.4143 4.14359C98.25 4.14274 96.4287 4.04751 95.6417 4.06156ZM78.652 4.1597C78.9489 4.23382 79.5686 4.16223 79.7962 4.17435C79.8506 4.17721 79.4276 4.23925 79.9404 4.25784C80.0855 4.21553 80.2306 4.17321 80.3756 4.1309C79.8011 4.1405 79.2266 4.1501 78.652 4.1597ZM256.616 4.14603C256.533 4.13013 254.969 4.13595 254.894 4.14603C253.958 4.2813 257.196 4.26665 256.616 4.14603ZM296.071 3.99125C295.352 3.79464 303.884 3.98793 304.711 3.97758C304.67 4.10114 302.64 3.97691 303.703 4.14652C302.689 4.05324 299.884 4.10277 299.224 4.07572C298.824 4.05937 298.723 3.95264 298.662 3.94926C298.425 3.93724 296.324 4.06055 296.071 3.99125ZM311.762 4.06156C310.951 4.03812 310.14 4.01469 309.329 3.99125C310.286 3.97725 311.243 3.96326 312.199 3.94926C312.053 3.98669 311.907 4.02413 311.762 4.06156ZM312.781 4.00541C312.755 3.88564 315.508 3.97688 316.231 3.94926C315.416 4.153 314.055 3.96092 312.781 4.00541ZM266.987 3.83696C265.719 3.75777 265.174 4.12285 266.716 3.96391C266.763 3.95865 267.04 3.84116 266.987 3.83696ZM118.568 3.57671C118.352 3.57446 115.663 3.45609 115.507 3.5147C115.015 3.7017 116.78 3.6267 117.371 3.69731C118.325 3.81173 116.922 3.906 119.251 3.83696C119.155 3.87439 119.06 3.91183 118.965 3.94926C120.328 3.96166 119.882 3.70234 120.126 3.669C120.201 3.65886 121.053 3.68066 121.207 3.66411C123.127 3.4552 118.769 3.57846 118.568 3.57671ZM235.596 3.80913C233.072 3.69922 234.158 3.86049 231.567 3.85063C231.481 3.93292 235.268 3.88127 235.596 3.80913ZM143.15 3.72466C140.54 3.75705 138.392 3.64943 135.957 3.79399C136.116 4.01662 143.828 3.78215 143.15 3.72466ZM20.4739 3.49908C30.6326 3.89557 42.3503 3.76504 53.1662 3.75884C54.3449 3.75827 54.4579 3.84654 54.8845 3.83696C55.1639 3.83075 55.115 3.75966 55.4863 3.75932C68.9077 3.74777 81.7588 3.65476 94.6152 3.69731C95.425 3.70013 99.3649 3.85281 100.207 3.62261C100.843 3.44797 98.0129 3.58414 97.5412 3.58257C97.1868 3.58145 97.1717 3.49937 96.9354 3.49908C96.6847 3.4988 96.8918 3.55487 96.6007 3.55572C95.3673 3.55966 94.0215 3.53774 92.9062 3.54253C81.9692 3.58847 71.3288 3.57533 60.4494 3.56744C59.1325 3.56659 59.4032 3.50083 59.3369 3.50054C59.336 3.50071 59.3352 3.50087 59.3343 3.50103C52.2734 3.49483 44.2095 3.64235 36.7307 3.58599C31.4643 3.54074 26.1979 3.4955 20.9315 3.45025C20.779 3.46653 20.6264 3.4828 20.4739 3.49908ZM124.143 3.80864C123.486 3.56065 123.34 3.81069 120.982 3.70952C120.79 3.75184 120.598 3.79415 120.407 3.83647C121.654 3.82719 122.901 3.81792 124.147 3.80864C124.146 3.80864 124.145 3.80864 124.143 3.80864ZM108.573 3.71831C108.175 3.38338 102.903 3.62009 100.529 3.55621C100.094 3.72441 103.545 3.64885 104.359 3.66655C104.765 3.67529 106.941 3.84829 108.596 3.75249C108.588 3.7411 108.581 3.7297 108.573 3.71831ZM287.143 3.49908C286.76 3.50884 286.376 3.51861 285.993 3.52837C286.952 3.56548 287.912 3.60259 288.872 3.6397C287.341 3.61577 285.81 3.59185 284.278 3.56792C284.564 3.49843 284.849 3.42893 285.134 3.35943C285.804 3.40598 286.474 3.45253 287.143 3.49908ZM282.175 3.53472C284.857 3.50855 282.057 3.6946 281.388 3.61187C280.987 3.56227 281.901 3.53754 282.175 3.53472ZM275.2 3.4151C276.451 3.29309 278.978 3.28469 278.08 3.52837C276.728 3.41424 275.857 3.50908 273.897 3.44342C274.183 3.39671 274.47 3.34999 274.756 3.30328C274.757 3.30328 274.758 3.30328 274.76 3.30328C274.906 3.34056 275.053 3.37783 275.2 3.4151ZM283.4 3.38727C285.156 3.52727 280.071 3.4794 281.67 3.38727C281.745 3.38304 283.331 3.38191 283.4 3.38727ZM31.7042 3.24713C31.4926 3.32676 32.8435 3.32528 33.2929 3.33063C35.2409 3.35429 37.7393 3.31964 39.7652 3.33063C39.6126 3.30442 39.4601 3.27822 39.3075 3.25202C36.7731 3.25039 34.2386 3.24876 31.7042 3.24713ZM46.1026 3.33112C47.4946 3.33112 48.8866 3.33112 50.2786 3.33112C50.4083 3.33112 51.0168 3.26278 50.5643 3.24616C49.0771 3.27448 47.5898 3.3028 46.1026 3.33112ZM132.931 3.33112C131.863 3.28652 134.937 3.05795 134.798 3.3028C134.176 3.31224 133.553 3.32168 132.931 3.33112ZM142.862 3.23346C142.193 3.25674 141.523 3.28001 140.854 3.30328C140.853 3.27513 140.852 3.24697 140.851 3.21881C141.522 3.2237 142.192 3.22858 142.862 3.23346ZM26.2319 3.19098C26.9409 3.28734 28.6322 3.27251 29.687 3.27448C28.9605 3.19169 27.2289 3.23239 26.2319 3.19098ZM116.94 3.23249C117.026 3.29815 112.781 3.28162 114.25 3.16608C115.147 3.18822 116.043 3.21035 116.94 3.23249ZM108.317 3.13532C109.227 3.12096 109.932 3.14351 109.745 3.24665C109.262 3.24225 108.779 3.23786 108.297 3.23346C108.303 3.20075 108.31 3.16803 108.317 3.13532ZM270.439 3.21881C268.905 3.22809 267.371 3.23737 265.836 3.24665C265.893 3.21849 265.95 3.19033 266.007 3.16218C267.486 3.15306 268.965 3.14395 270.445 3.13483C270.443 3.16283 270.441 3.19082 270.439 3.21881ZM25.3642 2.93806C24.3103 2.95645 23.2565 2.97484 22.2027 2.99323C23.2574 3.01211 24.3121 3.03099 25.3668 3.04987C25.3668 3.01244 25.3668 2.97501 25.3668 2.93757C25.3659 2.93774 25.365 2.9379 25.3642 2.93806ZM291.46 2.85408C286.772 2.72277 292.753 2.58396 293.99 2.77693C293.991 2.77677 293.993 2.77661 293.994 2.77644C294.102 2.7935 293.873 2.87598 294.054 2.90925C293.576 2.87198 293.099 2.83471 292.622 2.79744C292.187 2.84383 291.752 2.89021 291.317 2.9366C291.173 2.91837 291.03 2.90014 290.887 2.88191C291.078 2.87263 291.269 2.86336 291.46 2.85408ZM310.378 2.78084C314.628 2.79607 310.279 3.00231 308.176 2.83943C308.191 2.80174 309.986 2.77943 310.378 2.78084ZM299.239 2.82527C298.569 2.84399 297.899 2.86271 297.23 2.88142C297.144 2.85782 297.058 2.83422 296.973 2.81062C297.487 2.78719 298.001 2.76375 298.515 2.74031C298.757 2.76863 298.998 2.79695 299.239 2.82527ZM277.212 2.46102C276.134 2.4351 274.759 2.69751 278.22 2.6285C278.218 2.60034 278.216 2.57219 278.215 2.54403C278.077 2.54853 277.672 2.57494 277.65 2.57284C277.587 2.56579 277.661 2.47177 277.212 2.46102ZM318.248 2.03916C318.369 2.02845 318.435 1.73145 319.694 2.03867C320.075 2.01996 320.455 2.00124 320.836 1.98252C320.934 2.04795 321.032 2.11338 321.131 2.17881C319.658 2.12808 319.502 2.26046 319.395 2.26328C318.906 2.27566 319.268 2.20757 318.952 2.20664C318.137 2.20438 316.284 2.2501 317.124 2.05576C317.427 1.98616 318.127 2.04987 318.248 2.03916ZM315.369 1.87022C315.547 1.89501 314.972 1.98189 315.107 2.00645C315.225 2.02786 317 2.1165 316.52 2.26328C316.228 2.25709 315.937 2.25091 315.645 2.24472C315.546 2.20452 315.448 2.16432 315.349 2.12412C315.067 2.16123 314.784 2.19834 314.502 2.23545C314.027 2.13625 313.015 2.00774 314.217 1.92686C313.775 1.93532 313.333 1.94379 312.891 1.95225C312.662 1.99978 312.434 2.0473 312.205 2.09483C312.325 2.0224 312.445 1.94997 312.564 1.87755C313.499 1.87511 314.434 1.87266 315.369 1.87022ZM329.065 1.89805C329.011 1.93549 328.957 1.97292 328.903 2.01035C330.526 1.94076 333.053 1.9143 331.618 2.14902C329.42 2.16855 327.222 2.18808 325.024 2.20761C324.878 2.17946 324.732 2.1513 324.586 2.12314C326.226 2.23163 325.719 1.77 327.145 1.90245C327.386 1.9249 326.688 2.08633 328.2 1.98301C328.146 1.94542 328.092 1.90782 328.038 1.87022C328.38 1.8795 328.723 1.88878 329.065 1.89805ZM343.013 1.9542C340.235 1.9001 343.295 1.76349 343.808 1.87706C343.807 1.87706 343.807 1.87706 343.806 1.87706C345.212 2.18783 342.189 2.03768 342.004 2.03965C341.759 2.0424 341.188 2.26489 339.855 1.94053C340.908 1.94509 341.96 1.94965 343.013 1.9542ZM333.943 1.89854C334.177 1.89122 334.047 1.94772 334.148 1.94688C334.149 1.94688 334.15 1.94688 334.151 1.94688C335.638 1.93476 339.175 1.88418 339.558 2.06651C338.457 2.08172 333.532 2.12112 333.234 1.99717C333.47 1.9643 333.707 1.93142 333.943 1.89854ZM323.479 2.03428C322.566 1.91623 324.621 1.90051 325.16 1.95518C325.262 1.96702 324.425 2.15657 323.479 2.03428ZM253.447 1.7296C251.438 1.80062 254.078 1.87149 253.164 1.98252C253.548 1.97308 253.931 1.96364 254.315 1.9542C254.026 1.87934 253.736 1.80447 253.447 1.7296ZM161.866 1.50549C161.398 1.49237 161.62 1.56015 161.579 1.56115C161.272 1.55926 160.982 1.50404 160.864 1.50988C158.681 1.62135 160.133 1.67828 160.155 1.69152C160.201 1.75857 159.627 1.83704 160.422 1.91368C160.904 1.88992 161.387 1.86615 161.869 1.84239C162.108 1.87966 162.348 1.91693 162.587 1.9542C163.546 1.87424 162.291 1.85231 162.149 1.7462C162.095 1.7045 162.996 1.65456 161.866 1.50549ZM249.848 1.505C249.522 1.6228 248.724 1.77139 249.508 1.88975C249.509 1.88975 249.51 1.88975 249.511 1.88975C249.656 1.91141 250.246 1.92332 250.427 1.95372C251.72 1.79678 251.225 1.63461 249.848 1.505ZM170.519 1.29456C171.296 1.32206 172.074 1.34957 172.852 1.37707C172.839 1.44771 172.825 1.51835 172.812 1.58898C172.396 1.56994 171.98 1.5509 171.564 1.53185C171.418 1.56408 171.272 1.59631 171.126 1.62853C171.642 1.70909 172.159 1.78966 172.676 1.87022C173.299 1.84207 173.921 1.81391 174.544 1.78575C174.258 1.74848 173.971 1.71121 173.685 1.67394C175.207 1.6328 174.876 1.80456 176.135 1.87022C176.566 1.80479 176.998 1.73937 177.429 1.67394C178.053 1.73969 178.677 1.80545 179.302 1.8712C180.351 1.84048 180.443 1.7904 179.737 1.71544C180.259 1.62978 180.83 1.76451 181.458 1.7296C181.51 1.72679 181.412 1.64611 181.458 1.64513C184.706 1.59074 184.533 1.80261 185.052 1.81163C185.418 1.81782 186.879 1.67484 186.902 1.62609C186.931 1.56039 183.891 1.30133 188.651 1.29456C186.19 1.11536 183.392 1.29777 185.201 1.56066C184.422 1.53421 180.988 1.5998 180.769 1.59191C180.449 1.58 180.561 1.48026 180.162 1.47766C179.925 1.47625 179.299 1.70424 177.429 1.505C177.19 1.54243 176.951 1.57987 176.712 1.6173C176.488 1.58654 176.264 1.55578 176.04 1.52502C176.501 1.41532 176.962 1.30562 177.423 1.19593C175.596 1.31512 174.081 1.0912 172.968 1.27991C172.007 1.25795 171.539 1.23623 171.952 1.13978C171.664 1.13978 171.375 1.13978 171.086 1.13978C170.897 1.19137 170.708 1.24296 170.519 1.29456ZM243.946 1.67345C242.99 1.56393 242.646 1.80021 242.795 1.81358C243.633 1.88711 244.443 1.73043 243.946 1.67345ZM163.602 1.63097C164.656 1.69184 165.711 1.75271 166.766 1.81358C166.766 1.73888 166.766 1.66417 166.766 1.58947C165.711 1.6033 164.656 1.61714 163.602 1.63097ZM253.741 1.56164C253.838 1.61763 253.935 1.67361 254.032 1.7296C255.187 1.52509 256.334 1.81852 256.905 1.75792C257.029 1.74468 256.779 1.64582 256.542 1.62462C256.395 1.61138 253.945 1.54276 253.741 1.56164ZM301.833 1.58849C301.403 1.62609 300.972 1.66369 300.542 1.70128C300.566 1.6383 300.589 1.57531 300.613 1.51232C300.826 1.5006 301.038 1.48889 301.251 1.47717C301.445 1.51428 301.639 1.55138 301.833 1.58849ZM296.936 1.68859C296.168 1.68354 295.401 1.6785 294.633 1.67345C297.561 1.61568 295.158 1.58749 296.936 1.50549C296.936 1.56652 296.936 1.62755 296.936 1.68859ZM289.166 1.56115C289.26 1.52355 289.355 1.48596 289.449 1.44836C290.217 1.44836 290.984 1.44836 291.752 1.44836C291.267 1.31783 290.781 1.1873 290.296 1.05677C290.014 1.05645 289.733 1.05612 289.452 1.05579C289.357 1.22425 289.261 1.3927 289.166 1.56115ZM141.131 1.22473C140.667 1.22248 139.052 1.33655 139.121 1.37854C139.792 1.43013 140.463 1.48173 141.133 1.53332C141.136 1.45845 141.139 1.38358 141.142 1.30872C141.237 1.34599 141.332 1.38326 141.427 1.42053C141.808 1.39254 142.19 1.36454 142.571 1.33655C142.763 1.40198 142.956 1.4674 143.148 1.53283C143.341 1.45813 143.534 1.38342 143.727 1.30872C141.886 1.17627 141.949 1.30865 141.566 1.30725C141.371 1.30662 141.248 1.26026 141.179 1.23694C141.163 1.23287 141.147 1.2288 141.131 1.22473ZM164.331 1.15442C162.132 1.13583 160.875 1.33293 159.284 1.1681C160.305 1.51922 166.893 1.15654 169.216 1.44934C169.457 1.39302 169.698 1.33671 169.939 1.2804C168.674 1.33054 167.798 1.21456 167.181 1.19788C166.691 1.18463 166.743 1.24365 166.705 1.2428C166.703 1.2428 166.701 1.2428 166.7 1.2428C165.553 1.21857 165.198 1.16176 164.331 1.15442ZM255.374 1.28626C254.783 1.19728 253.75 1.20618 253.738 1.33606C254.314 1.37366 254.889 1.41125 255.464 1.44885C255.346 1.4156 255.475 1.30147 255.374 1.28626ZM288.273 1.19837C287.812 1.1561 286.723 1.19314 287.192 1.3053C287.277 1.3252 288.362 1.24637 287.725 1.44885C288.783 1.44572 288.535 1.22266 288.273 1.19837ZM201.905 1.42053C202.293 1.41679 202.681 1.41304 203.069 1.4093C203.16 1.35689 203.25 1.30448 203.341 1.25208C202.862 1.30823 202.384 1.36438 201.905 1.42053ZM260.361 1.19641C260.877 1.45289 261.758 1.2033 262.726 1.41418C263.084 1.41581 263.442 1.41744 263.799 1.41906C263.8 1.41906 263.801 1.41906 263.802 1.41906C263.811 1.34908 263.821 1.27909 263.831 1.20911C262.674 1.20488 261.518 1.20065 260.361 1.19641ZM177.712 1.29407C177.951 1.32662 178.19 1.35917 178.429 1.39172C178.854 1.3538 179.28 1.31588 179.705 1.27796C179.475 1.25078 179.245 1.2236 179.015 1.19641C178.58 1.22897 178.146 1.26152 177.712 1.29407ZM266.647 1.17444C265.396 1.14232 264.926 1.36528 266.525 1.36584C267.2 1.36584 267.958 1.20801 266.647 1.17444ZM117.236 1.30774C117.665 1.32678 118.093 1.34582 118.522 1.36487C118.668 1.31799 118.814 1.27112 118.96 1.22425C118.385 1.25208 117.811 1.27991 117.236 1.30774ZM294.204 1.22376C294.154 1.27063 294.104 1.31751 294.054 1.36438C293.671 1.35494 293.289 1.3455 292.907 1.33606C293.003 1.28951 293.099 1.24296 293.195 1.19641C293.532 1.20553 293.868 1.21464 294.204 1.22376ZM120.12 1.33655C120.462 1.3455 120.805 1.35445 121.147 1.3634C121.378 1.34062 121.608 1.31783 121.838 1.29504C121.517 1.27242 121.197 1.2498 120.876 1.22718C120.624 1.26363 120.372 1.30009 120.12 1.33655ZM278.503 1.19593C278.022 1.13957 276.099 1.31517 277.831 1.35998C278.935 1.38844 278.575 1.2045 278.503 1.19593ZM281.097 1.13978C279.264 1.03241 280.638 1.57735 282.826 1.22425C280.624 1.27266 281.205 1.14626 281.097 1.13978ZM297.215 0.858535C297.261 0.858817 297.299 0.937173 297.667 0.940075C298.993 0.95022 300.743 0.981181 301.691 0.985972C303.971 0.997525 310.953 0.855877 311.769 1.08265C311.94 1.13027 311.548 1.27258 311.617 1.27991C311.82 1.30035 312.988 1.2313 312.772 1.33606C311.626 1.33525 310.48 1.33443 309.334 1.33362C309.616 1.25973 309.897 1.18584 310.178 1.11194C307.323 1.15139 308.268 1.14684 307.447 1.30774C306.963 1.2454 306.48 1.18307 305.997 1.12073C304.945 1.18339 303.893 1.24606 302.841 1.30872C303.079 1.26201 303.318 1.21529 303.556 1.16858C301.971 1.08207 302.412 1.1388 301.544 1.25208C301.543 1.20537 301.541 1.15866 301.539 1.11194C300.009 1.2258 299.711 1.0858 299.376 1.08411C298.691 1.08136 297.816 1.63403 295.2 1.08411C294.097 1.3486 294.123 0.810538 293.474 1.08411C291.607 0.786291 295.158 0.89408 296.838 0.903944C296.839 0.903944 296.84 0.903944 296.841 0.903944C296.967 0.904789 296.766 0.854638 297.215 0.858535ZM287.625 1.13245C288.755 0.889673 284.29 0.866947 285.768 1.21741C285.988 1.2288 286.208 1.2402 286.428 1.25159C286.828 1.21188 287.228 1.17216 287.628 1.13245C287.627 1.13245 287.626 1.13245 287.625 1.13245ZM245.672 0.971324C241.536 1.07108 243.888 1.21074 245.288 1.07435C245.568 1.0473 245.721 1.01021 245.672 0.971324ZM161.189 0.967906C161.129 0.99704 161.068 1.02617 161.008 1.05531C162.395 1.02804 165.076 1.14042 165.04 0.943981C163.756 0.951957 162.473 0.959931 161.189 0.967906ZM172.16 0.839493C171.862 0.827644 170.645 0.799677 170.792 0.873183C171.32 0.925265 171.847 0.977346 172.374 1.02943C172.62 0.996877 172.866 0.964326 173.111 0.931775C172.768 0.920705 172.241 0.84259 172.16 0.839493Z" fill="#FB72CC"/>
</svg>
