<svg width="47" height="48" viewBox="0 0 47 48" fill="none" xmlns="http://www.w3.org/2000/svg">
<g clip-path="url(#clip0_1_4351)">
<path d="M28.1628 32.4584L19.9464 42.7533C19.1814 43.7122 18.2524 44.4933 17.1789 45.0767C16.1466 45.638 15.0254 45.9911 13.8532 46.123C12.6809 46.2549 11.5092 46.1598 10.378 45.8419C9.20603 45.5112 8.12235 44.9566 7.16339 44.1916C6.20443 43.4267 5.42341 42.4976 4.84 41.4242C4.28729 40.3909 3.93466 39.274 3.80276 38.1017C3.67085 36.9294 3.76645 35.7621 4.08385 34.6266C4.41461 33.4546 4.96915 32.3709 5.73413 31.412L13.95 21.1127C14.4358 20.5038 14.9863 19.9661 15.6026 19.5083C15.9566 19.2416 16.327 19.0035 16.718 18.7936C17.7503 18.2323 18.8715 17.8792 20.0438 17.7473C20.9187 17.6488 21.7861 17.6778 22.6407 17.8261C22.9344 17.8759 23.2257 17.9435 23.5141 18.0246C24.6861 18.3553 25.7698 18.9099 26.7287 19.6748C27.6877 20.4398 28.4687 21.3689 29.0521 22.4423C29.1952 22.7055 29.3259 22.9745 29.4398 23.2498L29.0305 23.7628C28.3153 24.6594 27.3193 25.1949 26.2634 25.3529C25.9732 24.2858 25.352 23.3038 24.4261 22.5613C23.496 21.8193 22.401 21.4362 21.296 21.3903C19.6297 21.3203 17.9491 22.0157 16.8322 23.4158L8.6163 33.715C6.75739 36.0453 7.14051 39.4501 9.47078 41.309C11.8011 43.1679 15.2058 42.7848 17.0647 40.4545L24.4922 31.1387C25.2438 31.2243 25.9986 31.2223 26.7615 31.1365C27.6579 31.0356 28.5283 30.8198 29.3598 30.4906C29.05 31.1889 28.6486 31.8494 28.1628 32.4584Z" fill="white"/>
<path d="M42.8759 9.74011C43.0078 10.9124 42.9127 12.084 42.5948 13.2153C42.264 14.3872 41.7095 15.4709 40.9445 16.4299L32.7367 26.7238C32.251 27.3328 31.7005 27.8704 31.0842 28.3282C30.7302 28.595 30.3598 28.8331 29.9688 29.0429C28.9365 29.6042 27.8153 29.9574 26.643 30.0893C25.7724 30.1872 24.9007 30.1587 24.046 30.0105C23.7524 29.9606 23.4611 29.893 23.1683 29.8125C21.9963 29.4817 20.9127 28.9272 19.9537 28.1622C18.9948 27.3972 18.2137 26.4682 17.6303 25.3947C17.4872 25.1315 17.3566 24.8625 17.2427 24.5873L17.6519 24.0742C18.3672 23.1776 19.3631 22.6422 20.419 22.4841C20.7093 23.5513 21.3304 24.5332 22.2563 25.2757C23.1865 26.0178 24.2814 26.4008 25.3864 26.4467C27.0528 26.5167 28.7334 25.8213 29.8503 24.4212L38.0662 14.122C39.9251 11.7917 39.5419 8.38694 37.2117 6.52804C34.8814 4.66914 31.4766 5.05225 29.6177 7.38252L22.1859 16.6988C21.4343 16.6132 20.6795 16.6152 19.9167 16.701C19.0202 16.8019 18.1498 17.0177 17.3183 17.3469C17.6282 16.6487 18.0296 15.9881 18.5153 15.3792L26.7317 5.08424C27.4967 4.12528 28.4257 3.34426 29.4992 2.76084C30.532 2.20383 31.6532 1.85072 32.8255 1.71881C33.9978 1.5869 35.1694 1.68202 36.3006 1.9999C37.4726 2.33066 38.5558 2.8809 39.5152 3.65019C40.4742 4.41517 41.2552 5.3442 41.8386 6.41766C42.3952 7.44615 42.744 8.56783 42.8759 9.74011Z" fill="white"/>
</g>
<defs>
<clipPath id="clip0_1_4351">
<rect width="42" height="42" fill="white" transform="translate(0.123047 5.39856) rotate(-6.42)"/>
</clipPath>
</defs>
</svg>
