<svg width="40" height="48" viewBox="0 0 40 48" fill="none" xmlns="http://www.w3.org/2000/svg">
<g clip-path="url(#clip0_1_3820)">
<path d="M35.4559 16.3747C35.0431 16.1546 34.5723 16.0645 34.1192 16.1197C33.9088 16.1453 33.6942 16.2042 33.4907 16.2864C32.7182 16.6181 31.886 16.9325 31.0115 17.2357C30.7281 14.6401 30.3996 11.6733 30.2843 11.0646C29.3033 5.84216 24.2119 1.93153 18.6878 2.15384C18.345 2.17102 17.9951 2.19725 17.6623 2.22959C14.6806 2.56004 12.1558 3.80983 10.1821 5.9429C8.20734 8.06789 7.09944 10.9722 7.21141 13.7114C7.23072 14.2744 7.61035 17.3908 7.94102 20.0378C7.02831 19.9606 6.1612 19.8532 5.34779 19.7147C5.12953 19.6757 4.9162 19.6771 4.69772 19.7037C4.2365 19.7599 3.80008 19.9524 3.4613 20.2722C2.95018 20.7277 2.70224 21.3888 2.78289 22.0508L5.68907 45.9078C5.82971 47.0623 6.91382 47.8724 8.11139 47.7265L37.5247 44.1435C38.7223 43.9976 39.5792 42.9428 39.4396 41.7964L36.5334 17.9394C36.4527 17.2774 36.0533 16.6952 35.4559 16.3747ZM24.6448 36.2247L18.7217 36.9463L19.1805 33.1625C18.2318 32.6553 17.5454 31.7394 17.4087 30.6172C17.1825 28.7603 18.5613 27.0684 20.4952 26.8328C22.4291 26.5972 24.1737 27.9087 24.3999 29.7655C24.5357 30.8797 24.0902 31.9417 23.291 32.6617L24.6448 36.2247ZM19.6278 19.7121C17.3135 19.994 15.0503 20.155 12.9037 20.1953C12.534 16.8237 12.1544 12.2244 12.7717 10.8875C13.7516 8.75258 15.6248 7.34457 17.9008 7.01816C17.9817 7.0083 18.0626 6.99844 18.1435 6.98859C20.4607 6.73089 22.6314 7.6299 24.1013 9.44998C25.0889 10.6816 25.813 15.075 26.2398 18.5789C24.1615 19.0451 21.9339 19.4312 19.6278 19.7121Z" fill="white"/>
</g>
<defs>
<clipPath id="clip0_1_3820">
<rect width="34" height="44" fill="white" transform="translate(0.62207 4.3136) rotate(-6.94541)"/>
</clipPath>
</defs>
</svg>
