<svg width="104" height="74" viewBox="0 0 104 74" fill="none" xmlns="http://www.w3.org/2000/svg">
<path d="M71.193 65.9871C71.193 66.0293 71.151 66.0883 71.0921 66.0883H70.604C70.5451 66.0883 70.5031 66.0461 70.5031 65.9871V64.6375C70.0992 65.616 69.1399 66.2486 67.9788 66.2486C66.2286 66.2486 64.9833 64.9243 64.9833 63.0434C64.9833 61.1878 66.2286 59.8551 67.9788 59.8551C69.1399 59.8551 70.0992 60.4877 70.5031 61.4492V60.2009C70.5031 60.0154 70.6629 59.872 70.848 59.872C71.0332 59.872 71.2183 60.0322 71.2183 60.2178V65.9787H71.193V65.9871ZM68.0966 60.4708C66.6662 60.4708 65.6733 61.5336 65.6733 63.0265C65.6733 64.5616 66.6914 65.5991 68.0966 65.5991C69.527 65.5991 70.5199 64.5363 70.5199 63.0265C70.5031 61.5336 69.5018 60.4708 68.0966 60.4708Z" fill="white"/>
<path d="M75.2317 59.8298C76.3929 59.8298 77.3521 60.4624 77.756 61.4239V60.1756C77.756 59.99 77.9159 59.8298 78.101 59.8298C78.2861 59.8298 78.4712 59.99 78.4712 60.1756V65.6919C78.4712 67.7584 77.1838 68.7536 75.5346 68.7536C74.6007 68.7536 73.7845 68.5681 73.0104 68.0957C72.8842 68.0114 72.8084 67.8933 72.8084 67.7668C72.8084 67.6065 72.9346 67.48 73.1113 67.48C73.1955 67.48 73.2712 67.4969 73.3553 67.5391C73.9696 67.9102 74.7016 68.1126 75.5346 68.1126C76.7799 68.1126 77.756 67.3957 77.756 65.6834V64.6122C77.3521 65.5907 76.3929 66.2232 75.2317 66.2232C73.4816 66.2232 72.2363 64.899 72.2363 63.0181C72.2363 61.1625 73.4731 59.8298 75.2317 59.8298ZM75.3495 60.4708C73.9191 60.4708 72.9262 61.5336 72.9262 63.0265C72.9262 64.5616 73.9443 65.5991 75.3495 65.5991C76.7547 65.5991 77.7728 64.5363 77.7728 63.0265C77.756 61.5336 76.7547 60.4708 75.3495 60.4708Z" fill="white"/>
<path d="M80.1793 63.3049C80.3055 64.6713 81.2563 65.5907 82.5858 65.5907C83.2589 65.5907 83.8479 65.4473 84.3612 65.1436C84.4453 65.0846 84.5211 65.0593 84.6052 65.0593C84.7903 65.0593 84.9081 65.1858 84.9081 65.3461C84.9081 65.4726 84.8492 65.5907 84.6809 65.675C84.0499 66.0799 83.3767 66.2064 82.5858 66.2064C80.7683 66.2064 79.4893 64.8822 79.4893 63.0012C79.4893 61.1456 80.7347 59.8129 82.468 59.8129C84.1761 59.8129 85.4214 61.1034 85.4214 62.9169C85.4214 63.2037 85.2195 63.288 85.0512 63.288H80.1793V63.3049ZM80.1793 62.7988H84.723C84.6641 61.4324 83.747 60.4708 82.4596 60.4708C81.1974 60.4708 80.2635 61.424 80.1793 62.7988Z" fill="white"/>
<path d="M90.9243 62.6723C90.9243 61.3227 90.1502 60.4455 88.947 60.4455C87.7269 60.4455 86.9275 61.3227 86.9275 62.6554V65.9618C86.9275 66.0039 86.8686 66.063 86.8266 66.063H86.3385C86.2796 66.063 86.2376 66.0208 86.2376 65.9618V60.1756C86.2376 59.99 86.3975 59.8298 86.6078 59.8298C86.7929 59.8298 86.9528 59.99 86.9528 60.1756V60.9347C87.3987 60.2178 88.156 59.8298 89.09 59.8298C90.6214 59.8298 91.6395 60.9347 91.6395 62.6301V65.9618C91.6395 66.0039 91.5806 66.063 91.5386 66.063H91.0505C90.9916 66.063 90.9496 66.0208 90.9496 65.9618V62.6723H90.9243Z" fill="white"/>
<path d="M95.6952 59.8298C96.3515 59.8298 96.9152 59.9563 97.4285 60.3021C97.5884 60.3865 97.6557 60.5046 97.6557 60.6311C97.6557 60.7913 97.5295 60.9179 97.3528 60.9179C97.2686 60.9179 97.1929 60.901 97.1088 60.8335C96.7049 60.5889 96.2337 60.4624 95.7036 60.4624C94.2984 60.4624 93.2803 61.5252 93.2803 63.0181C93.2803 64.5279 94.2984 65.5738 95.7036 65.5738C96.2337 65.5738 96.7217 65.4473 97.1088 65.1858C97.1929 65.1436 97.2686 65.1267 97.3528 65.1267C97.5379 65.1267 97.6557 65.2533 97.6557 65.4135C97.6557 65.5147 97.5968 65.6413 97.4285 65.7425C96.9152 66.0714 96.3515 66.2148 95.6952 66.2148C93.8777 66.2148 92.5987 64.8906 92.5987 63.0265C92.5903 61.1625 93.8777 59.8298 95.6952 59.8298Z" fill="white"/>
<path d="M97.9924 60.3865C97.9082 60.201 97.9924 59.9985 98.1775 59.9142C98.2196 59.8973 98.2784 59.872 98.3373 59.872C98.4636 59.872 98.5814 59.9564 98.6403 60.0576L100.878 65.0424L103.1 60.0576C103.142 59.9311 103.285 59.872 103.403 59.872C103.462 59.872 103.504 59.8889 103.563 59.9142C103.748 59.9985 103.807 60.201 103.748 60.3865L100.87 66.6956C100.357 67.8428 100.054 68.4753 98.8338 68.4753H98.5477C98.3878 68.4753 98.2448 68.3488 98.2448 68.1717C98.2448 68.0114 98.3878 67.8681 98.5477 67.8681H98.8506C99.6079 67.8681 99.8519 67.4632 100.172 66.6872L100.542 65.9112L97.9924 60.3865Z" fill="white"/>
<path d="M1.91846 3.03933V8.49654C1.91846 8.53872 1.85956 8.59776 1.81749 8.59776H1.32946C1.27056 8.59776 1.22849 8.55559 1.22849 8.49654V3.03933H0.302921C0.14305 3.03933 7.62939e-06 2.89594 7.62939e-06 2.72724C7.62939e-06 2.55855 0.14305 2.4236 0.302921 2.4236H1.20325V1.33553C1.20325 1.14997 1.36312 0.989708 1.57347 0.989708C1.75859 0.989708 1.91846 1.14997 1.91846 1.33553V2.41516H2.79354C2.95341 2.41516 3.09645 2.55855 3.09645 2.71881C3.09645 2.87907 2.95341 3.03933 2.79354 3.03933H1.91846Z" fill="white"/>
<path d="M8.58249 5.19862C8.58249 3.84907 7.80838 2.97187 6.60514 2.97187C5.38507 2.97187 4.58572 3.84907 4.58572 5.18175V8.48813C4.58572 8.5303 4.52682 8.58934 4.48475 8.58934H3.99672C3.93782 8.58934 3.89575 8.54717 3.89575 8.48813V0.399302C3.89575 0.21374 4.05562 0.0534821 4.26598 0.0534821C4.45109 0.0534821 4.61096 0.21374 4.61096 0.399302V3.46108C5.05692 2.75257 5.80579 2.36457 6.74818 2.36457C8.27958 2.36457 9.2977 3.46951 9.2977 5.16488V8.49656C9.2977 8.53873 9.2388 8.59778 9.19673 8.59778H8.7087C8.6498 8.59778 8.60773 8.5556 8.60773 8.49656L8.58249 5.19862Z" fill="white"/>
<path d="M10.947 5.83118C11.0732 7.1976 12.024 8.11697 13.3534 8.11697C14.0266 8.11697 14.6156 7.97358 15.1288 7.66994C15.213 7.61089 15.2887 7.58559 15.3729 7.58559C15.558 7.58559 15.6758 7.71211 15.6758 7.87237C15.6758 7.99889 15.6169 8.11697 15.4486 8.20132C14.8175 8.60618 14.1444 8.7327 13.3534 8.7327C11.536 8.7327 10.257 7.40846 10.257 5.52754C10.257 3.67191 11.5023 2.33924 13.2356 2.33924C14.9437 2.33924 16.189 3.62974 16.189 5.44319C16.189 5.72997 15.9871 5.81431 15.8188 5.81431H10.947V5.83118ZM10.947 5.32511H15.4907C15.4318 3.95869 14.5146 2.99714 13.2272 2.99714C11.9651 2.99714 11.0479 3.93339 10.947 5.32511Z" fill="white"/>
<path d="M31.2674 54.7268C31.0402 52.5423 29.0881 50.965 26.9256 51.2096C25.1334 51.412 23.6861 52.8628 23.5179 54.7015C23.3327 56.7427 23.5599 58.5393 22.7269 60.4877C21.8518 62.4867 20.3036 64.1652 18.3431 65.1268C17.4007 65.5907 16.3826 65.8859 15.3308 65.9955C14.2958 66.1052 13.2525 66.0377 12.2344 65.8015C11.2162 65.5654 10.2402 65.1521 9.35668 64.5869C8.96962 64.3339 8.59098 64.0556 8.246 63.7519C7.78322 63.347 7.40457 62.8494 6.91655 62.4783C7.43823 63.1362 7.74114 63.9712 7.74114 64.8737C7.74114 67.0161 6.00781 68.7537 3.87059 68.7537C2.78515 68.7537 1.80068 68.3066 1.09389 67.5812C1.23693 67.8427 1.41363 68.0958 1.62398 68.3235C4.96444 72.0179 9.67642 74 14.4052 74C16.9127 74 19.437 73.4517 21.7845 72.2878C28.2719 69.1079 32.0836 62.0397 31.2674 54.7268Z" fill="white"/>
<path d="M3.87056 68.7621C6.00778 68.7621 7.74112 67.0246 7.74112 64.8822C7.74112 62.7398 6.00778 61.0022 3.87056 61.0022C1.73334 61.0022 7.62939e-06 62.7398 7.62939e-06 64.8822C7.62939e-06 67.0246 1.73334 68.7621 3.87056 68.7621Z" fill="#1AB9A2"/>
<path d="M14.9185 17.9687C6.62202 18.382 7.62939e-06 25.2647 7.62939e-06 33.6825C7.62939e-06 42.3617 7.03432 49.4131 15.6926 49.4131C24.3508 49.4131 31.3852 42.3617 31.3852 33.6825C31.3852 27.6517 28.0026 22.4222 23.0298 19.7653C22.1295 19.2761 20.8673 18.7194 19.3023 18.3314C17.5521 17.9265 16.0207 17.9097 14.9185 17.9687ZM15.6926 41.8135C11.2078 41.8135 7.58125 38.1781 7.58125 33.6825C7.58125 29.1868 11.2078 25.5515 15.6926 25.5515C20.1774 25.5515 23.8039 29.1868 23.8039 33.6825C23.8292 38.1781 20.1774 41.8135 15.6926 41.8135Z" fill="white"/>
<path d="M25.1586 17.3529C24.9651 17.3951 24.7548 17.4204 24.5023 17.4204C24.4939 17.4204 24.4855 17.4204 24.4771 17.4204C24.4687 17.4204 24.4603 17.4204 24.4519 17.4204C22.3146 17.4204 20.5813 15.6828 20.5813 13.5404C20.5813 12.6717 20.8674 11.8704 21.347 11.2293C18.8395 13.0175 16.3742 15.1515 15.0447 17.9602C14.1276 19.9002 14.9438 22.2113 16.879 23.1306C17.4091 23.3752 17.9813 23.5018 18.5282 23.5018C19.9923 23.5018 21.3807 22.6667 22.0538 21.275C22.5418 20.2291 23.215 19.3097 24.048 18.5337C24.7043 17.918 25.2007 17.4963 26.0001 17.1083C25.7308 17.2095 25.4531 17.2939 25.1586 17.3529Z" fill="white"/>
<path d="M24.4518 17.412C26.589 17.412 28.3223 15.6745 28.3223 13.5321C28.3223 11.3897 26.589 9.65212 24.4518 9.65212C22.3146 9.65212 20.5812 11.3897 20.5812 13.5321C20.5812 15.6745 22.3146 17.412 24.4518 17.412Z" fill="#1AB9A2"/>
<path d="M88.2319 50.5348C83.461 50.5348 78.8752 48.3503 75.7788 44.4872L75.6778 44.3438C71.6811 38.8866 71.2351 31.734 74.5167 26.1418C78.4293 19.5038 85.5814 18.4157 86.9697 18.2723C89.0901 18.0446 91.0086 19.5966 91.2274 21.7221C91.4545 23.8476 89.9063 25.7707 87.7859 25.99C87.34 26.0322 83.2591 26.5636 81.206 30.0724C79.4979 32.9739 79.7587 36.7358 81.8791 39.671C83.7976 41.999 86.751 43.1461 89.6202 42.6147C90.3943 42.4713 91.1264 42.2267 91.7995 41.8809C94.45 40.5145 96.0403 37.7142 96.0403 34.7283V3.96716C96.0403 1.86694 97.6727 0.0619221 99.7678 0.00287956C101.972 -0.0814669 103.781 1.69824 103.781 3.88282C103.781 7.61936 103.781 12.5115 103.781 16.248C103.781 22.0342 103.781 27.8288 103.781 33.6149C103.781 37.807 103.091 41.4592 100.357 44.7908C97.9924 47.6502 94.652 49.6323 90.9833 50.2902C90.0662 50.4589 89.149 50.5348 88.2319 50.5348Z" fill="white"/>
<path d="M99.9109 7.76274C102.048 7.76274 103.781 6.02521 103.781 3.88281C103.781 1.74041 102.048 0.00286865 99.9109 0.00286865C97.7737 0.00286865 96.0403 1.74041 96.0403 3.88281C96.0403 6.02521 97.7737 7.76274 99.9109 7.76274Z" fill="#FEA800"/>
<path d="M65.2946 24.691C65.5134 25.1803 65.6817 25.7285 65.6817 26.3021C65.6817 28.4445 63.9484 30.182 61.8111 30.182C60.7173 30.182 59.7412 29.7265 59.0344 29.0011C60.0946 30.4856 60.65 32.2401 60.65 34.0872C60.65 38.9372 56.7121 42.8846 51.8739 42.8846C47.0357 42.8846 43.0979 38.9372 43.0979 34.0872C43.0979 32.2401 43.6532 30.4941 44.7134 29.0011C44.0066 29.7265 43.0221 30.182 41.9367 30.182C39.7995 30.182 38.0661 28.4445 38.0661 26.3021C38.0661 25.7285 38.226 25.1803 38.4532 24.691C36.5516 27.4323 35.4745 30.7387 35.4745 34.0872C35.4745 43.1545 42.837 50.5348 51.8823 50.5348C60.9277 50.5348 68.2901 43.1545 68.2901 34.0872C68.2649 30.7387 67.1963 27.4323 65.2946 24.691Z" fill="white"/>
<path d="M61.8027 30.182C59.6654 30.182 57.9321 28.4445 57.9321 26.3021C57.9321 24.1597 59.6654 22.4221 61.8027 22.4221C63.9399 22.4221 65.6732 24.1597 65.6732 26.3021C65.6732 28.4445 63.9399 30.182 61.8027 30.182Z" fill="#FB72CC"/>
<path d="M41.9199 30.182C44.0571 30.182 45.7904 28.4445 45.7904 26.3021C45.7904 24.1597 44.0571 22.4221 41.9199 22.4221C39.7826 22.4221 38.0493 24.1597 38.0493 26.3021C38.0493 28.4445 39.7826 30.182 41.9199 30.182Z" fill="#FB72CC"/>
</svg>
