<svg width="29" height="50" viewBox="0 0 29 50" fill="none" xmlns="http://www.w3.org/2000/svg">
<path d="M25.1737 0.281494H3.65794C1.88952 0.281494 0.415833 1.77997 0.415833 3.57813V45.9849C0.415833 47.783 1.88952 49.2815 3.65794 49.2815H25.1C26.8685 49.2815 28.3421 47.783 28.3421 45.9849V3.57813C28.4158 1.77997 26.9421 0.281494 25.1737 0.281494ZM26.1316 43.1378H2.70004V5.52614H26.1316V43.1378ZM11.3211 44.4115H17.4369C17.5843 44.4115 17.7316 44.5613 17.7316 44.7112V48.0827C17.7316 48.2326 17.5843 48.3824 17.4369 48.3824H11.3211C11.1737 48.3824 11.0264 48.2326 11.0264 48.0827V44.7112C11.0264 44.5613 11.1737 44.4115 11.3211 44.4115Z" fill="white"/>
</svg>
