<svg width="48" height="35" viewBox="0 0 48 35" fill="none" xmlns="http://www.w3.org/2000/svg">
<g clip-path="url(#clip0_1_6067)">
<path d="M18.1841 16.4153C12.391 10.8287 7.22441 5.29872 4.7795 2.62734C4.47645 2.2951 3.91195 2.45341 3.83501 2.89073C3.39756 5.32148 2.68003 9.63579 2.03155 14.8199C1.38308 20.0041 1.01579 24.3622 0.841016 26.8258C0.807859 27.2686 1.31597 27.5611 1.69152 27.3137C4.71912 25.3269 11.0996 21.2413 18.0793 17.2525C18.3894 17.0841 18.4418 16.6655 18.1841 16.4153Z" fill="white"/>
<path d="M23.2741 19.7119C23.444 19.864 23.7067 19.8969 23.9089 19.7914C32.5107 15.1878 41.1842 9.65579 45.105 7.10481C45.5051 6.83873 45.3819 6.22376 44.9044 6.13132C41.5382 5.49223 34.9362 4.32846 25.6658 3.16884C16.3953 2.00921 9.71008 1.5109 6.29027 1.30114C5.80466 1.2731 5.5338 1.83879 5.85606 2.19523C9.02632 5.64412 16.0712 13.1315 23.2741 19.7119Z" fill="white"/>
<path d="M28.3367 19.048C28.1572 18.8838 27.8945 18.851 27.68 18.9658C26.366 19.6954 25.0533 20.4142 23.731 21.1208C23.6244 21.1729 23.5109 21.1914 23.4015 21.1777C23.292 21.1641 23.1866 21.1182 23.0962 21.0414C21.9873 20.0415 20.8921 19.0216 19.7996 17.9801C19.62 17.8159 19.3574 17.7831 19.1429 17.898C12.2259 21.8292 5.82357 25.9121 2.60473 28.0058C2.20461 28.2719 2.32778 28.8869 2.80533 28.9793C6.17144 29.6184 12.7735 30.7822 22.0439 31.9418C31.3144 33.1014 37.9996 33.5997 41.4194 33.8095C41.905 33.8375 42.1759 33.2718 41.8536 32.9154C39.2716 30.096 34.0736 24.5512 28.3367 19.048Z" fill="white"/>
<path d="M46.0426 7.78882C43.0164 9.76492 36.6468 13.8519 29.6548 17.8501C29.3434 18.0291 29.291 18.4477 29.5501 18.6873C35.3322 24.2725 40.5084 29.8146 42.9533 32.4859C43.2564 32.8182 43.8209 32.6599 43.8978 32.2225C44.3352 29.7918 45.0528 25.4775 45.7012 20.2934C46.3497 15.1092 46.717 10.7511 46.8918 8.28748C46.9153 7.83258 46.4182 7.54147 46.0426 7.78882Z" fill="white"/>
</g>
<defs>
<clipPath id="clip0_1_6067">
<rect width="44" height="29" fill="white" transform="translate(3.83008 0.4375) rotate(7.13)"/>
</clipPath>
</defs>
</svg>
