<svg width="40" height="43" viewBox="0 0 40 43" fill="none" xmlns="http://www.w3.org/2000/svg">
<g clip-path="url(#clip0_1_5499)">
<path fill-rule="evenodd" clip-rule="evenodd" d="M21.9534 1.83354L29.6976 7.193L37.4505 12.4611L28.8221 16.2354L20.2025 19.9184L12.4496 14.6503L4.79641 9.29963L13.325 5.60785L21.9534 1.83354Z" fill="white"/>
<path fill-rule="evenodd" clip-rule="evenodd" d="M1.69807 29.9276L2.59122 20.7025L3.48438 11.4774L11.0554 16.7279L18.7174 21.9872L17.8243 31.2123L16.9223 40.5288L9.36007 35.1869L1.69807 29.9276Z" fill="white"/>
<path fill-rule="evenodd" clip-rule="evenodd" d="M36.4442 33.2916L37.4283 24.0754L38.3215 14.8502L29.7929 18.542L21.2642 22.2338L20.3711 31.4589L19.4691 40.7753L28.0066 36.9922L36.4442 33.2916Z" fill="white"/>
</g>
<defs>
<clipPath id="clip0_1_5499">
<rect width="35" height="39" fill="white" transform="translate(4.58203 0.151489) rotate(5.53)"/>
</clipPath>
</defs>
</svg>
