<svg width="134" height="118" viewBox="0 0 134 118" fill="none" xmlns="http://www.w3.org/2000/svg">
<path d="M89.761 16.0504C89.761 7.64232 82.9183 0.803223 74.5057 0.803223C68.3271 0.803223 63.0139 4.48427 60.5988 9.77451C58.2038 4.48427 52.8705 0.803223 46.6919 0.803223C38.2793 0.803223 31.4365 7.64232 31.4365 16.0504C31.4365 17.8205 31.7384 19.5303 32.3019 21.0993C32.946 22.9096 33.912 24.559 35.1397 25.9671C35.6629 26.5705 36.2265 27.1337 36.8504 27.6567L60.1158 50.7689C60.2566 50.9097 60.4579 50.9901 60.639 50.9901C60.8202 50.9901 61.0214 50.9097 61.1623 50.7689L85.3133 26.7918C86.8831 25.2228 88.1107 23.3119 88.8755 21.1998C89.439 19.6107 89.761 17.8809 89.761 16.0504Z" fill="#FB72CC"/>
<path d="M133.092 74.1626L133.132 74.0419C123.512 74.0419 117.635 68.1885 110.551 63.2402C105.419 59.6597 99.6629 56.562 91.3509 56.562C87.6277 56.562 84.4679 56.6022 81.7711 56.6827H62.2088C59.3509 56.6827 57.0365 58.9959 57.0365 61.8523C57.0365 64.7086 59.3509 67.0218 62.2088 67.0218H73.278H80.5635C84.2667 67.6253 87.1044 70.8235 87.1044 74.7057C87.1044 77.6425 85.4541 80.177 83.0591 81.4845C82.4755 81.6454 79.678 82.3897 75.9145 83.3753C73.4994 83.9586 71.205 84.5621 69.0516 85.1856L68.5887 85.3063C60.5182 87.4385 51.844 89.7316 50.2742 90.0937C49.2277 90.154 48.2818 90.1138 47.4365 89.8925L18.5358 71.1856L13.3031 67.404V67.4241C13.0616 67.2632 12.7799 67.1023 12.5182 66.9816C12.1358 66.7804 11.7333 66.6195 11.3107 66.4787C10.9887 66.3781 10.6264 66.3178 10.2843 66.2574C9.92201 66.1971 9.53962 66.1569 9.15723 66.1569C8.63396 66.1569 8.13082 66.2172 7.6478 66.3178C3.38113 66.6799 0 70.2201 0 74.585C0 76.8983 0.966038 78.9701 2.47547 80.4586L2.51572 80.4787C3.1195 81.0621 3.80377 81.5851 4.56855 81.9672L6.56101 83.4155L51.9044 116.263C52.0855 116.344 52.2667 116.404 52.4679 116.485C53.4943 116.827 54.561 117.068 55.7082 117.068C56.3723 117.068 57.0163 116.987 57.6604 116.867L57.8818 116.806C73.2377 112.904 104.976 104.838 119.829 101.177C120.191 101.036 120.533 100.916 120.896 100.775C124.679 99.8294 129.852 98.7029 133.092 98.7029V96.5506H133.132L133.092 93.5736V74.8264V74.1626Z" fill="#FB72CC"/>
</svg>
