<svg width="36" height="43" viewBox="0 0 36 43" fill="none" xmlns="http://www.w3.org/2000/svg">
<path d="M34.6498 39.3142C34.4378 38.9305 34.2053 38.5578 33.9602 38.2004C33.5366 38.74 32.7356 39.6823 31.827 40.3017C31.7571 40.35 31.6766 40.3699 31.5973 40.3661C31.4862 40.3607 31.3737 40.3036 31.3069 40.2051C31.1918 40.0366 31.2349 39.8044 31.4074 39.6896C32.5378 38.922 33.5352 37.5363 33.6503 37.3751C33.9902 36.76 34.2441 36.1129 34.4076 35.4455C35.0113 32.9921 34.4298 30.3861 33.7134 27.9363C33.0858 25.7888 31.6165 22.3851 28.1848 18.374C26.3899 16.2773 24.7804 14.8687 24.3834 14.5278L13.5236 14.0024C13.0996 14.3036 11.3774 15.5509 9.40451 17.4614C7.32293 19.4818 4.5205 22.6789 3.01034 26.4469C2.06084 28.816 1.2304 31.3537 1.59445 33.8539C1.69275 34.5339 1.88284 35.2065 2.16192 35.8476C2.26096 36.0192 3.11986 37.4947 4.1709 38.3678C4.32758 38.4985 4.35196 38.7341 4.22096 38.8945C4.14099 38.986 4.02744 39.0322 3.91639 39.0268C3.83706 39.0229 3.75889 38.9953 3.69395 38.9405C2.84941 38.2363 2.14298 37.225 1.77358 36.6431C1.49512 36.9752 1.2276 37.3277 0.979723 37.6851C0.355583 38.5884 0.133504 39.3164 0.299284 39.9163C0.481829 40.5805 1.12074 40.9332 1.61289 41.0325C2.25064 41.1626 2.93693 41.029 3.60339 40.8944C4.21356 40.773 5.0276 40.5463 5.95692 40.2377C6.00131 40.224 6.04929 40.2183 6.09292 40.2205C6.14845 40.2231 6.2034 40.2377 6.25362 40.268C6.362 40.3288 6.4783 40.39 6.59083 40.4471C9.14071 41.7304 13.626 42.0427 17.628 42.2363C21.63 42.43 26.1245 42.5521 28.7903 41.5212C28.9078 41.4753 29.0295 41.4255 29.1432 41.3754C29.2407 41.3325 29.348 41.3337 29.4413 41.3779C30.3365 41.7748 31.1248 42.079 31.7244 42.259C32.371 42.4531 33.0411 42.6524 33.6923 42.5886C34.1917 42.5373 34.8617 42.2479 35.1075 41.6044C35.3306 41.0194 35.1798 40.2733 34.6498 39.3142ZM19.2493 34.446L19.1507 36.4829L16.7828 36.3683L16.8756 34.4503C15.6724 34.257 14.1877 33.7204 13.1818 32.8178L14.8521 30.6702C15.9574 31.4903 16.8309 31.8424 17.7193 31.8854C18.7744 31.9364 19.2145 31.632 19.2507 30.883C19.3249 29.3494 13.8814 28.8755 14.0434 25.5269C14.1372 23.589 15.4113 22.316 17.4771 22.0188L17.5739 20.0175L19.9418 20.1321L19.8475 22.0818C21.1783 22.3488 22.1646 23.0003 22.9625 23.8452L21.0751 25.6327C20.3433 24.9816 19.7036 24.6448 18.9223 24.607C18.014 24.5631 17.5586 24.7714 17.5216 25.5363C17.4512 26.9906 22.9011 27.3338 22.7326 30.8171C22.6428 32.6717 21.4972 34.082 19.2493 34.446ZM25.4077 12.4205L24.309 12.3673C24.309 12.3673 24.309 12.3673 24.3051 12.3671C24.3051 12.3671 24.3051 12.3671 24.3011 12.3669L13.8736 11.8624C13.8736 11.8624 13.8736 11.8624 13.8697 11.8622C13.8697 11.8622 13.8697 11.8622 13.8657 11.862L12.767 11.8089C12.3823 11.7903 12.0499 12.088 12.0311 12.4763C12.0123 12.8647 12.3105 13.1929 12.6992 13.2117L13.425 13.2468L24.5386 13.7846L25.3319 13.8229C25.7166 13.8416 26.0491 13.5438 26.0679 13.1555C26.0866 12.7671 25.7924 12.4391 25.4077 12.4205ZM28.5758 4.78835C28.3471 4.5032 27.9074 4.3866 27.4661 4.30566C26.8081 4.18247 26.1363 4.09833 25.467 4.04608C25.4463 4.14439 25.4215 4.24646 25.3929 4.34438C25.1093 5.35944 24.5807 6.25938 24.0654 7.13215C23.9918 7.2557 23.8614 7.32089 23.7266 7.31437C23.6671 7.31149 23.6082 7.29672 23.5542 7.26233C23.3763 7.1584 23.3159 6.92906 23.4238 6.75156C23.9132 5.92123 24.4159 5.06374 24.6751 4.14282C24.7181 3.99396 24.7591 3.80528 24.793 3.5964L24.7932 3.59244C24.8817 2.99692 24.8837 2.21451 24.4923 1.51236C24.2147 1.00638 23.4218 0.467529 19.6617 0.285604C15.9016 0.10368 15.0604 0.563469 14.7314 1.03613C14.274 1.6972 14.1966 2.47597 14.2311 3.07743C14.2309 3.0814 14.2309 3.0814 14.2307 3.08536C14.2444 3.29654 14.2669 3.4883 14.2953 3.64061C14.4605 4.58206 14.8818 5.48823 15.2889 6.35797C15.3753 6.54487 15.293 6.7673 15.1099 6.85377C14.9228 6.94005 14.7002 6.85778 14.6136 6.67485C14.1889 5.75659 13.7458 4.80964 13.5614 3.77193C13.5426 3.66775 13.5276 3.56772 13.5165 3.46788C12.8454 3.4513 12.1724 3.47435 11.5017 3.53325C11.0546 3.5712 10.6057 3.64482 10.3506 3.90655C10.1579 4.10775 10.0661 4.44492 10.1123 4.80464C10.1577 5.18022 10.3305 5.55402 10.5006 5.89988C11.4342 7.80402 12.6334 9.55815 14.0604 11.1247L24.1864 11.6146C25.7619 10.1933 27.1249 8.56319 28.234 6.75788C28.4369 6.4261 28.6447 6.07469 28.7262 5.70525C28.8071 5.3477 28.752 5.0074 28.5758 4.78835Z" fill="white"/>
</svg>
