<svg width="47" height="48" viewBox="0 0 47 48" fill="none" xmlns="http://www.w3.org/2000/svg">
<g clip-path="url(#clip0_1_6036)">
<path d="M44.092 19.1602C42.9472 14.1133 39.975 9.68487 35.7203 6.6834C31.4416 3.65707 26.2078 2.34407 20.9887 2.98027C17.2391 3.43734 13.68 4.88488 10.704 7.17087C8.15472 9.12712 6.07797 11.6437 4.65039 14.5116L2.13061 13.451L3.20867 22.1234L10.2117 16.8539L7.77248 15.8252C8.97251 13.4918 10.6744 11.4445 12.7651 9.84265C15.2636 7.9273 18.2513 6.70911 21.3965 6.32571C25.7778 5.79163 30.1637 6.89556 33.762 9.42855C37.3312 11.9512 39.8261 15.6671 40.7885 19.9031C40.9964 20.8081 41.9022 21.3781 42.8116 21.177C43.727 20.9682 44.2931 20.066 44.092 19.1602Z" fill="white"/>
<path d="M42.4169 33.1463L44.9367 34.2069L43.8586 25.5346L36.8556 30.804L39.2948 31.8328C38.1016 34.1653 36.3929 36.2135 34.3022 37.8153C31.8037 39.7306 28.816 40.9488 25.6708 41.3322C21.2208 41.8747 16.7741 40.7295 13.1444 38.1101C9.53693 35.5019 7.07064 31.6784 6.19438 27.3486C6.01312 26.4333 5.11939 25.848 4.20064 26.0294C3.32997 26.205 2.74621 27.019 2.85212 27.8879C2.85712 27.9289 2.86296 27.9768 2.87483 28.017C3.91631 33.1876 6.8614 37.7374 11.157 40.8449C15.4748 43.9637 20.7779 45.3307 26.0794 44.6845C29.829 44.2274 33.3881 42.7799 36.3641 40.4939C38.9126 38.5308 40.9885 36.0074 42.4169 33.1463Z" fill="white"/>
</g>
<defs>
<clipPath id="clip0_1_6036">
<rect width="42" height="42" fill="white" transform="translate(41.8164 0.441406) rotate(83.05)"/>
</clipPath>
</defs>
</svg>
