<svg width="47" height="47" viewBox="0 0 47 47" fill="none" xmlns="http://www.w3.org/2000/svg">
<circle cx="23.5" cy="23.5" r="22.5" stroke="white" stroke-width="2"/>
<path d="M27.0488 22.7832C26.4965 22.7832 26.0488 23.2309 26.0488 23.7832C26.0488 24.3355 26.4965 24.7832 27.0488 24.7832L27.0488 22.7832ZM28.3222 24.4903C28.7127 24.0998 28.7127 23.4666 28.3222 23.0761L21.9582 16.7121C21.5677 16.3216 20.9346 16.3216 20.544 16.7121C20.1535 17.1027 20.1535 17.7358 20.544 18.1263L26.2009 23.7832L20.544 29.4401C20.1535 29.8306 20.1535 30.4637 20.544 30.8543C20.9345 31.2448 21.5677 31.2448 21.9582 30.8543L28.3222 24.4903ZM27.0488 23.7832L27.0488 24.7832L27.6151 24.7832L27.6151 23.7832L27.6151 22.7832L27.0488 22.7832L27.0488 23.7832Z" fill="white"/>
</svg>
