<svg width="33" height="45" viewBox="0 0 33 45" fill="none" xmlns="http://www.w3.org/2000/svg">
<g clip-path="url(#clip0_1_2719)">
<path d="M23.2391 3.60005C23.0076 3.27947 22.5941 3.14139 22.2165 3.25862C21.2424 3.56023 19.5197 4.20161 17.6075 5.38588C17.938 5.76015 18.9552 6.69359 21.3689 7.49946C23.7826 8.30532 25.1527 8.16896 25.6456 8.06958C24.8284 5.97401 23.8316 4.4288 23.2391 3.60005ZM7.97925 24.3739C7.66767 24.4059 7.04842 24.5085 6.35864 24.8473C5.04654 25.4855 4.11171 26.6208 3.57905 28.2162L2.31801 31.9933C2.25236 32.1899 2.36076 32.4034 2.56002 32.4699C2.66529 32.5051 2.78167 32.4945 2.87659 32.4354L8.59885 29.0138C8.26879 27.6995 8.05283 26.081 7.97925 24.3739ZM12.1668 30.9185L9.59892 30.0612L9.65865 31.0337C9.66391 31.1056 9.71044 31.1665 9.77811 31.189L11.9061 31.8995C11.9888 31.589 12.0741 31.2587 12.1668 30.9185ZM14.9794 26.6368C14.4719 26.4674 13.9258 26.7387 13.7598 27.2358C12.9856 29.5547 12.4118 31.5611 12.1028 33.0374C11.5956 35.4578 11.9779 35.6143 11.9817 35.6156C11.9854 35.6168 12.3825 35.6793 13.4225 33.478C14.0698 32.1023 14.8426 30.1005 15.5945 27.8484C15.7605 27.3512 15.4832 26.805 14.9794 26.6368ZM15.656 33.6093L14.0845 33.0846C13.9951 33.2898 13.9057 33.4826 13.8199 33.6643C12.729 35.9805 12.1901 36.1429 11.8442 36.0274C11.487 35.9082 11.1462 35.4521 11.6706 32.9426C11.7113 32.7458 11.7606 32.5355 11.8074 32.3202L10.2472 31.7993C8.89761 32.825 8.23119 34.4706 8.49984 36.1191C8.63924 36.9657 9.01277 37.8244 9.37369 38.6583C9.69676 39.4054 10.0299 40.1723 10.2003 40.9385C10.7969 40.4284 11.5239 40.0154 12.231 39.6123C13.0205 39.1625 13.8401 38.6979 14.4551 38.1074C15.6665 36.9572 16.1186 35.24 15.656 33.6093ZM14.6481 31.7469C14.5178 32.0746 14.3875 32.3898 14.2596 32.6853L16.3951 33.3983C16.4628 33.4209 16.5403 33.4014 16.5839 33.3458L17.2159 32.6043L14.6481 31.7469ZM19.5269 13.0166C17.5079 12.3425 15.3274 13.4166 14.6634 15.4053C13.9995 17.394 15.1011 19.5639 17.1163 20.2367C19.1314 20.9095 21.3157 19.8367 21.9797 17.848C22.6437 15.8593 21.542 13.6894 19.5269 13.0166ZM19.5269 13.0166C17.5079 12.3425 15.3274 13.4166 14.6634 15.4053C13.9995 17.394 15.1011 19.5639 17.1163 20.2367C19.1314 20.9095 21.3157 19.8367 21.9797 17.848C22.6437 15.8593 21.542 13.6894 19.5269 13.0166ZM26.2641 9.90913C26.121 9.41182 25.9653 8.93924 25.8023 8.48891C25.282 8.60799 23.828 8.78237 21.2301 7.915C18.636 7.04889 17.5747 6.03474 17.2303 5.62697C16.8294 5.889 16.4173 6.17205 16.0078 6.48483C12.8968 8.84415 10.6919 11.9184 9.45691 15.6175C8.01873 19.9251 8.17518 25.9898 9.15213 29.3718C9.16734 29.4263 9.21007 29.4736 9.26646 29.4924L12.2855 30.5004C12.5735 29.4749 12.9313 28.3283 13.3413 27.1002C13.5841 26.373 14.3788 25.9827 15.1157 26.2287C15.8526 26.4747 16.2534 27.2642 16.0106 27.9914C15.6068 29.201 15.1989 30.3349 14.8044 31.3414L17.6617 32.2954L17.8309 32.3518C17.8873 32.3707 17.9486 32.3623 17.9948 32.3241C20.8063 30.2112 24.5762 25.4532 26.0144 21.1456C27.2494 17.4465 27.3338 13.6643 26.2641 9.90913ZM16.6455 21.6466C13.8446 20.7114 12.3144 17.6974 13.2373 14.9332C14.1602 12.1691 17.1904 10.6777 19.9951 11.6141C22.7998 12.5505 24.3262 15.5633 23.4034 18.3274C22.4805 21.0915 19.4465 22.5817 16.6455 21.6466ZM19.8576 12.0259C17.286 11.1674 14.5057 12.536 13.6584 15.0738C12.8111 17.6116 14.2152 20.3774 16.783 21.2347C19.3546 22.0933 22.1387 20.7259 22.986 18.1881C23.8333 15.6503 22.4292 12.8845 19.8576 12.0259ZM16.9775 20.6522C14.7293 19.9016 13.5016 17.4834 14.2424 15.2647C14.9831 13.046 17.4173 11.8504 19.6656 12.601C21.9139 13.3517 23.1415 15.7698 22.4008 17.9886C21.66 20.2073 19.2258 21.4029 16.9775 20.6522ZM19.5269 13.0166C17.5079 12.3425 15.3274 13.4166 14.6634 15.4053C13.9995 17.394 15.1011 19.5639 17.1163 20.2367C19.1314 20.9095 21.3157 19.8367 21.9797 17.848C22.6437 15.8593 21.542 13.6894 19.5269 13.0166ZM22.9323 30.3643C22.5857 29.6877 22.1586 29.2399 21.9313 29.0321C20.8469 30.3525 19.7006 31.5204 18.6471 32.3728L21.166 38.5459C21.2064 38.6501 21.2931 38.7285 21.3983 38.7637C21.5976 38.8302 21.8125 38.7246 21.8782 38.528L23.1405 34.7473C23.6794 33.1457 23.6079 31.6702 22.9323 30.3643Z" fill="#FEA800"/>
</g>
<defs>
<clipPath id="clip0_1_2719">
<rect width="20.6268" height="39.7258" fill="white" transform="translate(13) rotate(18.4627)"/>
</clipPath>
</defs>
</svg>
