<svg width="30" height="46" viewBox="0 0 30 46" fill="none" xmlns="http://www.w3.org/2000/svg">
<path d="M25.63 0.760794C25.3586 0.377995 24.8707 0.214748 24.4236 0.35713C23.2702 0.723465 21.2297 1.50067 18.9615 2.92916C19.3496 3.37577 20.5456 4.4886 23.3932 5.44137C26.2407 6.39413 27.8612 6.22368 28.4444 6.10209C27.4925 3.59617 26.3247 1.75043 25.63 0.760794ZM7.4531 25.7237C7.0846 25.7637 6.35196 25.8898 5.53436 26.2992C3.97918 27.0705 2.86657 28.4353 2.22622 30.3491L0.710244 34.8799C0.631317 35.1158 0.758005 35.371 0.993082 35.4496C1.11727 35.4912 1.2549 35.4778 1.3675 35.4066L8.15421 31.2784C7.77294 29.7058 7.52857 27.7681 7.4531 25.7237ZM12.3586 33.5414L9.32923 32.5277L9.39328 33.6924C9.39902 33.7784 9.4536 33.8511 9.53344 33.8779L12.0439 34.7178C12.1438 34.3455 12.2468 33.9493 12.3586 33.5414ZM15.712 28.398C15.1132 28.1977 14.466 28.5255 14.2664 29.1219C13.3357 31.9035 12.644 34.3099 12.2688 36.0798C11.6529 38.9817 12.1038 39.1672 12.1082 39.1687C12.1127 39.1702 12.5815 39.2429 13.8256 36.6007C14.6 34.9495 15.527 32.5477 16.4309 29.8461C16.6305 29.2497 16.3064 28.5969 15.712 28.398ZM16.4648 36.7464L14.6108 36.126C14.5037 36.3723 14.3967 36.6037 14.2942 36.8218C12.9891 39.602 12.351 39.7992 11.9429 39.6627C11.5216 39.5217 11.1218 38.9772 11.7586 35.9685C11.8079 35.7326 11.8676 35.4804 11.9244 35.2223L10.0837 34.6064C8.48167 35.8421 7.68289 37.8167 7.98932 39.7899C8.1484 40.8032 8.58412 41.8299 9.00511 42.827C9.38194 43.7201 9.77055 44.637 9.96683 45.5539C10.6754 44.9398 11.5376 44.4414 12.376 43.9548C13.3123 43.4119 14.2841 42.8512 15.015 42.1407C16.4546 40.7566 17.0006 38.6974 16.4648 36.7464ZM15.286 34.5208C15.1298 34.914 14.9736 35.2923 14.8205 35.6469L17.3398 36.4898C17.4196 36.5165 17.5114 36.4928 17.5633 36.426L18.3154 35.5345L15.286 34.5208ZM21.1788 12.0595C18.797 11.2626 16.2124 12.5605 15.4142 14.9461C14.616 17.3316 15.9035 19.9251 18.2809 20.7206C20.6582 21.516 23.2473 20.2196 24.0455 17.8341C24.8437 15.4485 23.5562 12.855 21.1788 12.0595ZM21.1788 12.0595C18.797 11.2626 16.2124 12.5605 15.4142 14.9461C14.616 17.3316 15.9035 19.9251 18.2809 20.7206C20.6582 21.516 23.2473 20.2196 24.0455 17.8341C24.8437 15.4485 23.5562 12.855 21.1788 12.0595ZM29.1631 8.30236C28.9972 7.70741 28.8165 7.14214 28.6268 6.60357C28.011 6.7489 26.2913 6.96533 23.2264 5.93984C20.166 4.91584 18.9184 3.70657 18.514 3.2199C18.0384 3.53586 17.5494 3.87705 17.0633 4.25383C13.3701 7.09606 10.7434 10.79 9.25866 15.2273C7.52973 20.3946 7.6738 27.6584 8.80577 31.7043C8.82338 31.7696 8.87357 31.826 8.9401 31.8482L12.5017 33.0399C12.8491 31.81 13.2797 30.4348 13.7726 28.9616C14.0645 28.0893 15.0065 27.6176 15.8758 27.9084C16.7452 28.1993 17.2136 29.1429 16.9218 30.0153C16.4363 31.4662 15.9466 32.8266 15.4735 34.0342L18.8444 35.1621L19.044 35.2289C19.1105 35.2512 19.183 35.2408 19.2379 35.1948C22.5753 32.6493 27.0633 26.9304 28.7922 21.7631C30.2769 17.3258 30.4021 12.7949 29.1631 8.30236ZM17.715 22.4118C14.4106 21.3062 12.6222 17.7038 13.7316 14.3881C14.8411 11.0723 18.4329 9.27007 21.7417 10.3772C25.0505 11.4843 26.8344 15.0852 25.725 18.401C24.6156 21.7167 21.0193 23.5175 17.715 22.4118ZM21.5764 10.8712C18.5426 9.85611 15.247 11.51 14.2284 14.5543C13.2098 17.5985 14.8509 20.9042 17.8803 21.9178C20.9141 22.9329 24.2141 21.2805 25.2327 18.2362C26.2513 15.192 24.6102 11.8863 21.5764 10.8712ZM18.1141 21.2191C15.4617 20.3316 14.0269 17.4414 14.9174 14.7799C15.8079 12.1183 18.6932 10.6736 21.3456 11.5611C23.9979 12.4485 25.4328 15.3388 24.5422 18.0003C23.6517 20.6618 20.7664 22.1065 18.1141 21.2191ZM21.1788 12.0595C18.797 11.2626 16.2124 12.5605 15.4142 14.9461C14.616 17.3316 15.9035 19.9251 18.2809 20.7206C20.6582 21.516 23.2473 20.2196 24.0455 17.8341C24.8437 15.4485 23.5562 12.855 21.1788 12.0595ZM25.0872 32.8216C24.6821 32.013 24.1802 31.4789 23.9129 31.2311C22.6223 32.8184 21.2595 34.2232 20.0086 35.2498L22.9443 42.631C22.9914 42.7557 23.0933 42.8492 23.2174 42.8907C23.4525 42.9694 23.7073 42.8418 23.7862 42.6059L25.3037 38.0707C25.9514 36.1494 25.8768 34.3825 25.0872 32.8216Z" fill="white"/>
</svg>
