<svg width="31" height="42" viewBox="0 0 31 42" fill="none" xmlns="http://www.w3.org/2000/svg">
<g clip-path="url(#clip0_2002_643)">
<path d="M13.4452 29.2712C13.4539 29.1734 13.5001 29.0894 13.5383 29.0062C13.9173 28.0961 14.276 27.1785 14.6155 26.2501C14.6518 26.1507 14.6792 26.0442 14.6984 25.9386C14.8019 25.3705 14.4816 24.7679 13.9283 24.5385C13.3751 24.309 12.7453 24.4788 12.3895 24.9663C12.3116 25.0737 12.2482 25.1942 12.2019 25.321C12.0748 25.6474 11.9592 25.9741 11.8492 26.3068C11.6298 26.949 11.4185 27.5903 11.2025 28.2338C11.1834 28.2967 11.1574 28.3571 11.1311 28.429C11.0843 28.4197 11.0431 28.4163 11.0091 28.4038C10.1643 28.095 9.31616 27.7849 8.47017 27.4794C8.35095 27.4358 8.28889 27.3627 8.2605 27.2396C8.13166 26.6837 8.03508 26.1241 7.9627 25.5616C7.76047 23.9496 7.73066 22.3307 7.82614 20.7071C7.88434 19.703 7.99524 18.7026 8.1678 17.7132C8.28213 17.0519 8.42836 16.3985 8.60309 15.7516C8.82147 14.9537 9.10116 14.1781 9.43195 13.4213C10.5822 10.7929 12.263 8.57208 14.4825 6.75798C15.0547 6.29137 15.6488 5.85995 16.2716 5.46621C16.3325 5.42634 16.3891 5.37712 16.4769 5.35874C16.5047 5.38832 16.5347 5.42258 16.5647 5.45683C16.8843 5.81839 17.2608 6.1192 17.6627 6.38264C18.1635 6.71334 18.6933 6.99638 19.2499 7.2271C19.6026 7.37157 19.954 7.51947 20.3095 7.64556C21.0728 7.91301 21.8506 8.11972 22.6583 8.21307C23.1846 8.27343 23.7089 8.28645 24.2444 8.19482C24.2638 8.23687 24.2844 8.27548 24.2991 8.31971C25.0655 10.7439 25.3412 13.2217 25.0617 15.7607C24.9741 16.5599 24.8317 17.3506 24.6311 18.1318C24.4521 18.8431 24.239 19.542 23.9749 20.2223C23.7455 20.8181 23.4832 21.398 23.1882 21.9621C21.8506 24.522 20.1225 26.7876 18.0656 28.8011C17.578 29.2792 17.0592 29.7265 16.5151 30.1373C16.494 30.1529 16.4695 30.1672 16.4517 30.1841C16.3251 30.3087 16.1942 30.3074 16.0307 30.2476C15.2328 29.9481 14.4277 29.6576 13.6272 29.365C13.5603 29.3366 13.4918 29.3232 13.4452 29.2712ZM21.7365 17.3142C22.6674 14.7998 21.3935 11.9259 18.8218 10.9857C16.2263 10.0367 13.4201 11.4382 12.5047 13.9311C11.5618 16.4994 12.904 19.3555 15.4293 20.2749C17.9273 21.1844 20.8022 19.9012 21.7365 17.3142Z" fill="#1AB9A2"/>
<path d="M9.21187 29.6226C9.61917 29.7443 10.484 30.0722 10.6226 30.1578C10.6012 30.2587 10.5784 30.3631 10.5523 30.4662C10.4288 30.9414 10.3247 31.4161 10.2479 31.9007C10.2035 32.1913 10.1658 32.4844 10.1775 32.7799C10.1826 32.9139 10.1911 33.049 10.225 33.178C10.3332 33.6215 10.6964 33.7581 11.0596 33.4831C11.1712 33.3996 11.2708 33.2962 11.3623 33.1937C11.6061 32.9178 11.805 32.606 11.9848 32.2833C12.1914 31.9083 12.3857 31.5249 12.5821 31.1461C12.6223 31.0677 12.6614 30.9926 12.7026 30.9222C12.8556 30.9471 13.8868 31.3164 14.1335 31.4337C14.147 31.4814 14.1635 31.5418 14.1732 31.5997C14.3413 32.4497 14.2667 33.2769 13.9447 34.0835C13.6716 34.7566 13.2504 35.3173 12.6921 35.7773C12.3177 36.0832 11.9103 36.3421 11.4921 36.5776C11.1556 36.7691 10.8135 36.9548 10.4715 37.1405C9.94953 37.4274 9.4353 37.7248 8.96358 38.0961C8.94244 38.1117 8.9204 38.1192 8.89245 38.1323C8.88078 38.1008 8.87126 38.074 8.86516 38.0485C8.76126 37.5405 8.5959 37.0528 8.41315 36.5704C8.2252 36.0706 8.02918 35.5717 7.84588 35.0696C7.71142 34.6981 7.59899 34.3191 7.52474 33.9307C7.39962 33.2907 7.40999 32.6498 7.57847 32.02C7.82456 31.104 8.31719 30.3481 9.05297 29.7509C9.10151 29.7027 9.15777 29.665 9.21187 29.6226Z" fill="#1AB9A2"/>
<path d="M7.35796 22.6527C7.37851 23.1457 7.39259 23.6247 7.42155 24.1053C7.45391 24.5871 7.4956 25.0645 7.55216 25.5435C7.60997 26.0191 7.69413 26.4965 7.76988 26.9864C7.73817 27.0098 7.69589 27.0409 7.64805 27.0662C5.92921 28.0496 4.21378 29.0343 2.49619 30.0143C2.45176 30.0407 2.40266 30.0694 2.35392 30.0865C2.09408 30.1741 1.84373 29.9505 1.90021 29.6798C1.91775 29.6319 1.93403 29.5873 1.94906 29.5462C2.37747 28.3745 2.80122 27.205 3.23303 26.0345C3.51327 25.2786 3.91418 24.594 4.48399 24.0178C5.21377 23.2786 6.09194 22.8307 7.11295 22.668C7.166 22.6602 7.21905 22.6524 7.27085 22.648C7.29505 22.6452 7.31674 22.6493 7.35796 22.6527Z" fill="#1AB9A2"/>
<path d="M16.9327 30.3366C17.3125 30.0055 17.6835 29.6983 18.0357 29.3688C18.3866 29.0427 18.7311 28.7025 19.0666 28.3552C19.4008 28.0113 19.7184 27.6497 20.0449 27.2953C20.1332 27.3392 20.1837 27.412 20.2368 27.4781C20.9738 28.3457 21.3519 29.35 21.3744 30.4924C21.3826 30.977 21.3164 31.4539 21.1987 31.9235C21.1345 32.1836 21.0486 32.4396 20.9572 32.6897C20.5551 33.7895 20.1517 34.8927 19.7496 35.9924C19.7283 36.0507 19.7117 36.1067 19.6836 36.1625C19.6258 36.2889 19.5204 36.3553 19.3858 36.3643C19.2466 36.3755 19.1395 36.3092 19.0708 36.1909C19.036 36.1277 19.0118 36.0567 18.9875 35.9856C18.3762 34.3095 17.765 32.6334 17.1515 30.9526C17.091 30.7906 17.0318 30.6253 16.9713 30.4633C16.9587 30.4238 16.9474 30.3808 16.9327 30.3366Z" fill="#1AB9A2"/>
<path d="M24.1099 7.78057C24.027 7.82792 23.9467 7.82575 23.8673 7.83167C23.4954 7.8666 23.1215 7.85418 22.7508 7.81186C22.1582 7.74279 21.581 7.62108 21.0136 7.44082C20.6782 7.33372 20.3381 7.2288 20.0102 7.10114C19.3191 6.8368 18.6455 6.5245 18.0194 6.12467C17.6535 5.88988 17.3065 5.63485 16.9991 5.32437C16.9422 5.26863 16.8913 5.20728 16.8468 5.15995C16.8489 5.09081 16.8952 5.08052 16.9256 5.06059C18.2359 4.29678 19.6152 3.68245 21.0716 3.24782C21.228 3.20015 21.3847 3.18363 21.5454 3.21911C21.7552 3.26861 21.9228 3.3804 22.0459 3.56134C22.1304 3.68933 22.2149 3.81732 22.2981 3.94875C23.0204 5.11004 23.6063 6.33801 24.0686 7.62952C24.0821 7.67717 24.0943 7.72825 24.1099 7.78057Z" fill="#1AB9A2"/>
<path d="M10.689 33.2078C10.6099 33.1284 10.5991 33.0313 10.5905 32.9388C10.5654 32.7432 10.5782 32.5498 10.5978 32.3588C10.6429 31.8976 10.7348 31.4457 10.8415 30.9953C11.067 30.0407 11.3367 29.1023 11.6486 28.1754C11.9417 27.2999 12.2462 26.4247 12.5473 25.5482C12.5749 25.4729 12.6059 25.3987 12.6402 25.3259C12.8239 24.9502 13.3156 24.7144 13.788 24.9221C14.2004 25.1039 14.4114 25.5617 14.2762 26.0056C14.2658 26.0445 14.2486 26.0809 14.2348 26.1186C13.844 27.1876 13.4281 28.2512 12.9793 29.2989C12.7161 29.9135 12.4345 30.5252 12.1452 31.1263C11.8827 31.6751 11.5931 32.2139 11.2347 32.7082C11.1412 32.8372 11.0319 32.9565 10.9227 33.0758C10.8408 33.1623 10.8293 33.162 10.689 33.2078Z" fill="#1AB9A2"/>
<path d="M13.2685 29.6804C13.4407 29.7162 15.4164 30.4385 15.5677 30.5211C15.553 30.5506 15.5417 30.5815 15.5215 30.6052C15.3633 30.7843 15.1984 30.9609 15.0423 31.1446C14.9601 31.2427 14.8714 31.253 14.7603 31.2085C14.3119 31.0407 13.861 30.8797 13.4114 30.7153C13.2854 30.6693 13.1627 30.6244 13.0367 30.5783C12.9924 30.5621 12.9528 30.5438 12.9008 30.517C12.9389 30.36 13.0175 30.2295 13.0803 30.0894C13.1407 29.9561 13.1741 29.8013 13.2685 29.6804Z" fill="#1AB9A2"/>
<path d="M8.69408 28.0078C8.83319 28.0393 10.6967 28.709 10.9268 28.8086C10.9506 28.8174 10.9707 28.8363 10.9899 28.8472C10.9742 28.9852 10.7924 29.5985 10.7278 29.7224C10.6857 29.7109 10.6423 29.7028 10.6014 29.6879C10.0326 29.4799 9.46375 29.2719 8.8915 29.0627C8.86085 29.0515 8.83019 29.0403 8.79738 29.0244C8.74414 29.001 8.71328 28.9587 8.70698 28.902C8.70427 28.8777 8.69942 28.8487 8.70137 28.8223C8.69513 28.5753 8.68889 28.3283 8.68266 28.0813C8.6787 28.0605 8.68496 28.0434 8.69408 28.0078Z" fill="#1AB9A2"/>
<path d="M18.6814 11.3693C21.05 12.2315 22.2044 14.883 21.3533 17.1896C20.4909 19.5271 17.8705 20.748 15.5431 19.8893C13.226 19.0343 12.0157 16.409 12.8818 14.0612C13.7363 11.7558 16.3281 10.4973 18.6814 11.3693ZM20.821 16.9873C21.5816 14.9388 20.5183 12.6507 18.486 11.9038C16.4878 11.1693 14.185 12.1762 13.4162 14.2682C12.6591 16.318 13.7109 18.6057 15.7513 19.3517C17.821 20.1123 20.0854 19.0099 20.821 16.9873Z" fill="#1AB9A2"/>
<path d="M20.4467 16.8387C19.7955 18.6514 17.7764 19.6532 15.9073 18.9776C14.0723 18.3144 13.1082 16.2724 13.793 14.4099C14.4854 12.5268 16.5484 11.6265 18.3401 12.2816C20.1727 12.9516 21.1193 14.9989 20.4467 16.8387Z" fill="#1AB9A2"/>
</g>
<defs>
<clipPath id="clip0_2002_643">
<rect width="18.9317" height="37.1352" fill="white" transform="translate(12.752) rotate(20.0837)"/>
</clipPath>
</defs>
</svg>
