<svg width="26" height="26" viewBox="0 0 26 26" fill="none" xmlns="http://www.w3.org/2000/svg">
<path d="M17.8482 16.6079C19.2974 14.8517 20.2127 12.5991 20.2127 10.1175C20.2127 4.54332 15.6744 0 10.1063 0C4.53832 0 0 4.54332 0 10.1175C0 15.6916 4.53832 20.2349 10.1063 20.2349C12.5471 20.2349 14.8354 19.3568 16.5897 17.8678L24.4459 25.7327C24.6366 25.9236 24.8654 26 25.0942 26C25.3231 26 25.5519 25.9236 25.7426 25.7327C26.0858 25.3891 26.0858 24.7783 25.7426 24.4347L17.8482 16.6079ZM10.0682 18.4023C5.49175 18.4023 1.79245 14.699 1.79245 10.1175C1.79245 5.53598 5.49175 1.8326 10.0682 1.8326C14.6447 1.8326 18.344 5.53598 18.344 10.1175C18.344 14.699 14.6447 18.4023 10.0682 18.4023Z" fill="white"/>
</svg>
