<svg width="34" height="34" viewBox="0 0 34 34" fill="none" xmlns="http://www.w3.org/2000/svg">
<path d="M22.6874 21.7468C24.4153 19.6528 25.5066 16.9671 25.5066 14.0082C25.5066 7.3621 20.0955 1.94507 13.4567 1.94507C6.8179 1.94507 1.40683 7.3621 1.40683 14.0082C1.40683 20.6543 6.8179 26.0714 13.4567 26.0714C16.3669 26.0714 19.0951 25.0244 21.1868 23.249L30.5539 32.6264C30.7812 32.854 31.0541 32.9451 31.3269 32.9451C31.5997 32.9451 31.8725 32.854 32.0999 32.6264C32.5091 32.2167 32.5091 31.4884 32.0999 31.0787L22.6874 21.7468ZM13.4112 23.8863C7.95469 23.8863 3.54398 19.4708 3.54398 14.0082C3.54398 8.54566 7.95469 4.13009 13.4112 4.13009C18.8678 4.13009 23.2785 8.54566 23.2785 14.0082C23.2785 19.4708 18.8678 23.8863 13.4112 23.8863Z" fill="white" stroke="white" stroke-width="2"/>
</svg>
