<svg width="40" height="40" viewBox="0 0 40 40" fill="none" xmlns="http://www.w3.org/2000/svg">
<path d="M39.4099 22.0673L38.0749 27.2705L34.3963 26.3267C33.3684 28.5699 31.9709 30.4904 30.1513 31.9987L32.0921 35.3075L27.4626 38.07L25.6108 34.7081C23.424 35.5905 21.0115 35.8831 18.5673 35.7118L17.6347 39.3469L12.3997 38.0038L13.3324 34.3687C11.1076 33.3421 9.13404 31.9241 7.6422 30.0979L4.41884 32.0817L1.69118 27.4315L4.98528 25.4659C4.18739 23.286 3.81636 20.9117 3.99539 18.4507L0.316787 17.5069L1.65177 12.3037L5.33037 13.2476C6.28757 10.9862 7.75584 9.08385 9.57542 7.57552L7.68704 4.35616L12.369 1.68304L14.2574 4.90241C16.4259 4.09134 18.8566 3.72741 21.3009 3.89872L22.2335 0.263627L27.4685 1.60676L26.5175 5.31312C28.7606 6.26847 30.7159 7.75772 32.2077 9.58388L35.4835 7.6895L38.3002 12.2866L34.8829 14.1446C35.7515 16.3427 36.0518 18.6988 35.8728 21.1598L39.4099 22.0673ZM28.9184 22.1104C30.1985 17.121 27.1195 12.0768 22.2383 10.8244C17.2863 9.55392 12.2116 12.5821 10.9498 17.5002C9.68798 22.4182 12.6596 27.5868 17.6116 28.8574C22.4928 30.1097 27.6383 27.0997 28.9184 22.1104Z" fill="white"/>
</svg>
