<svg width="123" height="4" viewBox="0 0 123 4" fill="none" xmlns="http://www.w3.org/2000/svg">
<path d="M2.76316 0.148026C5.33617 -0.201548 7.09249 0.16988 9.4794 0.229077C14.7339 0.359131 21.663 0.241995 27.0372 0.251292C31.1048 0.258337 35.238 0.283283 39.2811 0.303291C39.4885 0.304277 39.6122 0.3426 39.7062 0.343085C40.5915 0.347594 42.0759 0.312872 42.9541 0.317939C44.8013 0.328506 48.0155 0.322535 49.7074 0.358464C50.4259 0.373678 51.1628 0.38002 51.4421 0.471254C51.7046 0.4759 51.8479 0.393467 51.9164 0.388981C51.9172 0.389062 51.918 0.389144 51.9188 0.389225C52.1396 0.37531 52.6971 0.433106 52.8201 0.429507C52.8385 0.428943 52.7253 0.369237 53.0238 0.387272C53.0503 0.388822 53.0258 0.429418 53.2771 0.429995C53.3426 0.430136 54.1832 0.367884 54.4234 0.364079C55.2229 0.35169 57.1321 0.400561 58.0879 0.399722C58.2341 0.399722 58.3183 0.375976 58.4727 0.375553C58.5524 0.375307 58.672 0.401084 58.6965 0.400943C58.804 0.400026 59.2738 0.282964 59.1052 0.513976C59.5956 0.499329 59.4511 0.422956 59.4622 0.373356C59.9947 0.366193 60.2513 0.474991 60.3903 0.359684C63.0087 0.3736 65.627 0.387515 68.2453 0.40143C68.2461 0.382632 68.2469 0.363834 68.2477 0.345036C69.0194 0.42012 69.2842 0.293116 69.7248 0.402163C69.9964 0.378156 70.2681 0.35415 70.5398 0.330143C77.5218 0.404113 84.4875 0.31619 91.3909 0.31647C91.6822 0.31647 91.755 0.35647 92.2355 0.356752C92.766 0.357032 93.5121 0.310545 94.2113 0.311099C94.8246 0.311521 95.7294 0.349362 96.4133 0.355287C96.5676 0.356555 96.6793 0.331221 96.6967 0.331362C96.7989 0.332351 96.804 0.372459 96.9031 0.373597C97.0217 0.374865 97.165 0.345154 97.302 0.346986C97.8139 0.353603 98.3717 0.343362 98.4365 0.344056C98.7487 0.347853 98.8177 0.387078 98.8433 0.387512C99.1906 0.392299 99.0604 0.356895 99.1469 0.358948C99.5957 0.369798 99.9129 0.458177 100.527 0.373352C100.511 0.406147 100.494 0.438943 100.477 0.471738C100.947 0.490191 100.637 0.403049 100.733 0.387268C100.772 0.381421 101.784 0.392063 101.862 0.393615C102.134 0.39925 102.141 0.442831 102.165 0.443418C102.222 0.444827 102.906 0.395364 103.257 0.433409C103.672 0.478492 103.183 0.567147 103.286 0.583795C103.304 0.586612 103.738 0.577526 103.796 0.605278C103.861 0.635136 103.485 0.634503 103.491 0.647025C103.495 0.65562 104.119 0.717168 103.999 0.758594C103.903 0.800143 103.057 0.746869 102.878 0.766406C102.848 0.769641 102.904 0.82092 102.878 0.822801C102.772 0.829703 100.823 0.831246 100.734 0.822801C100.835 0.799446 100.937 0.77609 101.038 0.752735C100.903 0.750375 100.768 0.748015 100.633 0.745655C100.825 0.726938 101.017 0.708221 101.209 0.689504C100.924 0.497197 100.065 0.692147 100.029 0.788134C100.014 0.832519 100.539 0.946718 100.051 1.01323C100.125 1.02462 100.199 1.03601 100.273 1.0474C100.427 1.02869 100.58 1.00997 100.733 0.991253C100.631 0.979453 100.529 0.967654 100.427 0.955854C100.464 0.942508 100.502 0.929162 100.539 0.915816C100.826 0.894414 101.112 0.873011 101.398 0.851609C101.545 0.861473 101.515 0.900874 101.616 0.908492C102.877 1.00444 102.054 0.882343 102.88 0.899947C102.998 0.921105 103.116 0.942264 103.234 0.963422C103.193 0.875916 103.558 0.930859 104.001 0.893111C103.948 0.921431 103.895 0.94975 103.842 0.97807C104.483 0.962993 105.783 1.10577 105.432 0.949506C105.579 0.962852 105.726 0.976198 105.873 0.989544C105.997 0.963991 106.121 0.938438 106.245 0.912886C106.416 0.915815 106.587 0.918745 106.759 0.921675C106.76 0.935509 106.76 0.949343 106.761 0.963177C106.625 0.963259 106.488 0.96334 106.351 0.963421C106.454 1.00558 106.556 1.04773 106.659 1.08988C106.76 1.08288 106.861 1.07589 106.962 1.06889C106.538 1.02902 107.096 0.963898 107.231 0.908247C107.588 0.887681 107.816 0.959921 107.936 0.963177C107.992 0.964727 108.654 0.837277 108.395 0.977337C108.735 0.960329 109.076 0.943321 109.417 0.926313C109.55 0.937055 109.683 0.947797 109.817 0.958538C109.527 1.02378 110.366 1.10238 109.748 1.12943C109.287 1.14972 109.173 1.08873 108.955 1.08915C108.758 1.08945 108.653 1.13053 108.439 1.13236C106.995 1.14392 105.819 1.13638 104.448 1.1182C104.178 1.11455 103.931 1.13469 103.749 1.13187C103.544 1.12862 103.801 1.0771 103.54 1.08964C103.265 1.1029 103.205 1.14494 103.133 1.14579C103.088 1.14627 102.945 1.10844 102.813 1.10844C102.272 1.10844 101.478 1.14502 101.401 1.14481C101.315 1.14439 99.7837 1.11026 99.7104 1.10404C99.6716 1.10066 99.7522 0.960966 99.4148 1.1099C99.3095 1.11267 99.2043 1.11544 99.099 1.1182C99.1161 1.09029 99.1331 1.06238 99.1502 1.03446C98.5266 1.14028 98.741 1.08108 98.14 1.08939C96.7006 1.1094 94.5773 1.08588 93.0031 1.09574C92.6515 1.098 92.5176 1.13142 92.1017 1.13383C91.7154 1.13594 90.7065 1.03621 90.9259 1.17435C90.0662 1.05474 89.928 1.26101 89.4976 1.13236C89.4455 1.15108 89.3935 1.1698 89.3414 1.18851C88.8742 1.1082 88.73 1.17879 88.22 1.18851C88.0002 1.19274 88.2536 1.10732 87.8099 1.20243C87.7251 1.19535 87.6404 1.18827 87.5556 1.18119C87.5753 1.16052 87.595 1.13985 87.6147 1.11918C87.122 1.13609 87.0902 1.12532 87.1464 1.20267C86.9085 1.1886 86.6706 1.17452 86.4328 1.16044C86.4032 1.18583 86.3736 1.21122 86.3441 1.23661C86.4581 1.28504 91.8595 1.212 92.6118 1.18876C93.4939 1.24623 95.2661 1.17438 95.9788 1.18802C96.264 1.19352 96.39 1.25094 96.8051 1.25785C97.22 1.26475 97.7422 1.21259 97.9631 1.21073C98.6991 1.20425 102.186 1.2157 99.8146 1.28714C99.8827 1.31514 99.951 1.34313 100.019 1.37112C100.962 1.2756 100.62 1.33441 101.402 1.34427C101.732 1.34848 102.514 1.28597 102.471 1.41312C101.859 1.43679 101.21 1.39615 100.678 1.39798C100.626 1.39818 99.9963 1.45623 99.6724 1.44046C99.3802 1.42606 99.5814 1.30485 98.9456 1.44095C98.4734 1.308 98.2004 1.42861 98.0757 1.44143C97.8601 1.46367 97.8365 1.39805 97.621 1.39041C97.3863 1.38197 97.2247 1.42553 97.1926 1.42581C96.8707 1.4268 95.1942 1.43273 95.1173 1.40628C95.1847 1.39464 95.2521 1.38301 95.3196 1.37137C94.8842 1.35264 94.9751 1.41973 94.8607 1.42776C94.7754 1.42752 94.6902 1.42728 94.6049 1.42703C94.6388 1.41312 94.6725 1.3992 94.7063 1.38528C94.1921 1.38824 94.5855 1.4366 93.8556 1.43533C93.3922 1.43448 92.9135 1.38136 92.8684 1.38528C92.8551 1.38641 93.0011 1.42223 92.8121 1.42703C92.4994 1.43492 91.9586 1.43401 91.8981 1.38528C91.7449 1.39218 91.758 1.43986 91.7376 1.44095C91.6487 1.4456 90.1185 1.46181 89.8444 1.46463C89.0848 1.47238 88.2392 1.46221 87.4162 1.47024C87.3316 1.47105 87.3856 1.44045 87.3008 1.44144C87.1646 1.443 86.4658 1.49102 86.3614 1.49441C86.1009 1.50272 85.4155 1.48368 85.3076 1.49759C85.2923 1.49956 85.5179 1.54091 85.2541 1.55374C84.9613 1.56792 85.1189 1.5123 85.103 1.51175C84.5071 1.49273 84.1308 1.53137 83.724 1.53885C83.5922 1.54124 83.3489 1.49938 83.1629 1.51175C83.1414 1.51315 83.1839 1.55183 83.1629 1.55374C82.8817 1.57403 82.6187 1.50224 82.497 1.49759C82.1994 1.48622 82.3615 1.5392 82.346 1.53958C82.1477 1.54127 81.8808 1.52216 81.5793 1.52469C80.235 1.53596 79.1379 1.53919 77.7088 1.53567C77.5293 1.53525 77.3163 1.49788 77.2888 1.49783C77.204 1.49811 77.2283 1.54203 76.9829 1.54104C76.4657 1.53879 75.9861 1.54091 75.4739 1.54007C75.3708 1.53989 75.3269 1.4992 75.2483 1.49832C74.9846 1.49578 74.0853 1.60233 74.0705 1.46976C73.5472 1.58712 73.1995 1.48597 72.7784 1.48709C71.7806 1.48963 70.2183 1.51354 69.2236 1.49832C69.0142 1.49506 68.916 1.46109 68.7995 1.45926C68.5905 1.45589 67.3961 1.47486 67.3337 1.46951C67.211 1.45923 67.2845 1.30964 66.6538 1.43997C66.284 1.44926 66.3277 1.38786 66.2512 1.38455C65.6552 1.3599 65.0754 1.49692 65.1837 1.37137C64.4898 1.40546 64.0401 1.47484 63.7569 1.35746C63.7606 1.41474 63.4342 1.44911 63.0409 1.42728C63.4436 1.33105 63.3938 1.26954 64.3678 1.28715C64.3831 1.28743 64.3539 1.32885 64.3692 1.32914C64.5083 1.33193 64.7984 1.31102 65.0355 1.31327C65.2726 1.31552 65.141 1.34384 65.2358 1.3433C65.3227 1.34273 65.3198 1.30309 65.4456 1.30253C65.8534 1.30097 66.2144 1.29005 66.4464 1.28934C66.5926 1.28893 66.7562 1.32377 66.8696 1.32377C67.3082 1.32348 68.2376 1.29628 68.7957 1.30008C68.912 1.30097 68.8632 1.34006 69.1176 1.3433C69.1473 1.34367 69.2557 1.30292 69.4784 1.29447C69.7012 1.28602 69.874 1.30626 70.0171 1.30204C70.1367 1.29852 70.0867 1.26231 70.3319 1.26005C70.5364 1.25821 72.852 1.2843 72.9778 1.29007C73.1586 1.2984 73.2446 1.34925 73.355 1.34305C73.3744 1.34172 73.4073 1.29261 73.4747 1.2891C74.5849 1.23106 77.0421 1.29806 78.3108 1.29764C80.9625 1.29694 83.4089 1.26804 86.0841 1.25663C86.1319 1.24808 86.1795 1.23954 86.2272 1.23099C85.9568 1.23067 85.6864 1.23034 85.416 1.23002C85.4143 1.20691 85.4125 1.18379 85.4108 1.16068C85.0452 1.15702 85.0937 1.21168 85.104 1.24466C84.9687 1.23067 84.8334 1.21667 84.6981 1.20267C84.5814 1.28321 83.6792 1.22965 83.214 1.22977C82.9115 1.22977 82.5515 1.26048 82.3919 1.25809C82.0549 1.25317 82.0637 1.20347 82.0372 1.20267C81.9922 1.20155 81.5217 1.24538 81.1823 1.24369C80.6806 1.24127 80.6263 1.16497 79.9394 1.22977C79.0593 1.19018 78.0841 1.21011 77.1354 1.21659C77.316 1.14605 76.4659 1.21282 76.0825 1.21171C73.7436 1.2048 70.8688 1.17467 68.4992 1.14677C68.1946 1.14325 67.9646 1.10169 67.7949 1.10307C67.7029 1.10377 67.6627 1.15276 67.535 1.14628C67.5125 1.14503 67.4969 1.09923 67.2591 1.09233C66.6672 1.075 65.1928 1.15144 64.8196 1.06352C62.796 1.07711 60.7723 1.0907 58.7486 1.10429C58.6977 1.08557 58.6469 1.06686 58.5961 1.04814C58.2116 1.14379 56.6919 1.08758 55.9507 1.09208C54.6463 1.10012 52.9819 1.12986 51.839 1.1331C51.5906 1.1338 51.3872 1.10667 51.1521 1.10722C51.051 1.1075 50.9252 1.14268 50.8199 1.14286C49.6381 1.14554 48.0381 1.10931 46.8471 1.11015C44.1432 1.11198 41.5967 1.10665 38.857 1.1082C29.6278 1.11369 20.4518 1.16543 11.3013 1.14458C11.1787 1.14429 11.1848 1.10385 11.0897 1.10356C10.5285 1.10159 9.27523 1.13493 8.6414 1.1331C8.13639 1.13169 7.33484 1.06985 7.16105 1.13213C8.95515 1.22639 10.8506 1.2193 12.7183 1.24565C12.8511 1.2475 12.8676 1.28596 12.884 1.28666C13.1864 1.30002 12.9954 1.24707 13.4339 1.24467C13.5804 1.24387 14.9341 1.36663 14.773 1.24443C15.0972 1.29331 17.3823 1.31774 17.8233 1.30155C17.9572 1.29662 17.8624 1.26042 17.889 1.25859C18.0044 1.25059 18.0566 1.30051 18.1597 1.3018C18.4347 1.3049 19.1342 1.26441 19.2671 1.26469C19.5729 1.26512 20.4896 1.30576 20.8934 1.29618C21.2634 1.28745 21.1941 1.2353 21.5141 1.23051C21.7663 1.22687 21.4916 1.27073 22.0546 1.28398C22.3337 1.29046 23.3099 1.25908 23.5472 1.25907C23.7844 1.25907 24.0482 1.29028 24.3753 1.28788C24.8466 1.2845 25.8717 1.26713 26.3512 1.25712C26.3798 1.25656 26.4496 1.21599 26.5201 1.21684C26.6662 1.21854 26.6223 1.26864 26.7326 1.27372C26.843 1.27879 28.7549 1.27267 29.0796 1.27323C29.3034 1.27351 29.458 1.24367 29.5817 1.24394C29.6787 1.24422 29.6891 1.28595 29.7881 1.28642C29.8188 1.28642 30.0797 1.25017 30.3404 1.25102C30.5867 1.25187 31.5219 1.28633 31.6302 1.28666C31.7008 1.2868 31.6234 1.25715 31.832 1.25785C32.022 1.25858 32.1469 1.29708 32.2552 1.29765C32.5066 1.2989 32.7876 1.26607 33.0543 1.26591C33.821 1.26549 33.7815 1.31319 33.8275 1.31474C33.9551 1.31904 34.0062 1.27535 34.0481 1.27445C34.2249 1.27079 34.6581 1.26272 34.8157 1.26103C35.012 1.25891 35.0951 1.30043 35.3037 1.30058C35.4591 1.30055 35.773 1.26007 36.1276 1.2581C36.927 1.25345 37.8777 1.2458 38.6627 1.24735C38.8968 1.24778 38.9327 1.28567 39.0043 1.28666C39.3804 1.29186 39.5909 1.24949 39.6983 1.25004C40.464 1.25384 41.8298 1.32033 42.5403 1.32596C42.8296 1.32822 44.0962 1.29752 44.8107 1.30302C44.8925 1.30359 44.816 1.3333 44.9069 1.32865C45.1245 1.3175 45.1044 1.257 45.2147 1.25883C45.268 1.2599 45.3895 1.29401 45.5446 1.2974C46.3491 1.31501 46.9024 1.28849 47.2694 1.29032C50.7942 1.30793 54.3885 1.32378 57.6802 1.32914C58.0472 1.3297 58.5023 1.2937 59.0564 1.32865C59.0734 1.34745 59.0905 1.36625 59.1075 1.38504C59.1269 1.36657 59.1463 1.3481 59.1657 1.32963C59.7933 1.31962 60.0305 1.29584 60.6714 1.31937C60.7266 1.32134 60.8951 1.40716 60.9994 1.30057C61.6342 1.37779 61.2859 1.29995 61.7571 1.29276C62.2283 1.28558 62.6863 1.30938 63.1432 1.31473C63.3936 1.35292 62.3427 1.44099 62.2742 1.44071C62.1638 1.44037 62.0492 1.38737 61.9429 1.38455C61.6282 1.37613 61.3238 1.41818 61.2532 1.37088C60.8464 1.42089 61.3528 1.39591 61.302 1.44095C61.0305 1.42231 60.759 1.40368 60.4874 1.38504C60.3491 1.53825 58.8489 1.33845 58.9531 1.45511C58.8338 1.43175 58.7145 1.4084 58.5951 1.38504C58.0718 1.53139 57.764 1.42834 57.066 1.3848C57.1164 1.40352 57.1667 1.42223 57.2171 1.44095C57.2028 1.44876 56.5867 1.47869 56.807 1.39896C56.1754 1.50401 56.202 1.32927 55.6358 1.4556C55.2995 1.4718 55.5018 1.39843 54.8997 1.39969C54.5429 1.4004 54.1 1.43876 53.7013 1.44144C53.6094 1.44193 53.5695 1.39945 53.4878 1.39945C53.4061 1.39946 53.3663 1.44112 53.2673 1.44217C53.0628 1.44443 52.7978 1.41518 52.67 1.418C52.5555 1.42041 52.3918 1.45715 52.1158 1.46292C51.1521 1.48335 51.4432 1.43088 51.291 1.41312C51.1274 1.39424 51.0099 1.46337 50.6838 1.45535C50.6511 1.45451 50.7357 1.41143 50.6294 1.41312C50.5436 1.41444 50.5005 1.46127 50.2165 1.47C50.1034 1.47353 48.3476 1.48356 48.0802 1.48441C47.6702 1.48567 46.7571 1.44604 46.3329 1.44632C46.1694 1.44633 45.9947 1.48393 45.821 1.48367C45.2454 1.48283 44.324 1.47965 43.5941 1.47782C42.9368 1.47612 41.783 1.39313 41.4231 1.46805C40.5001 1.47777 40.276 1.41375 40.2064 1.41288C40.0183 1.41048 39.9312 1.45289 39.694 1.45487C36.6221 1.47952 32.5769 1.45149 29.6675 1.45487C22.9185 1.46304 16.1327 1.48622 9.36023 1.46903C9.34208 1.48783 9.32394 1.50663 9.3058 1.52542C10.1062 1.53754 11.0469 1.5702 11.8372 1.57767C12.8921 1.58752 14.4571 1.50924 15.231 1.63773C14.9171 1.64899 14.4058 1.59973 14.415 1.6658C14.976 1.67052 15.537 1.67524 16.098 1.67996C16.0813 1.64944 16.0646 1.61893 16.0478 1.58841C16.6336 1.57953 17.2327 1.58619 17.8205 1.58182C17.9226 1.5811 17.8503 1.5534 17.9392 1.55325C18.0387 1.55315 17.9713 1.58135 17.9899 1.58157C18.2413 1.58186 18.3172 1.55333 18.3479 1.55374C18.4266 1.55487 18.3654 1.58202 18.5924 1.58963C19.0134 1.60384 19.3148 1.53171 19.2159 1.65188C19.3519 1.65188 19.4878 1.65188 19.6237 1.65188C19.6589 1.61917 19.6941 1.58646 19.7292 1.55374C20.5653 1.68582 20.9508 1.45414 21.4128 1.63797C21.5651 1.60989 21.7174 1.58182 21.8698 1.55374C21.9556 1.58646 22.0415 1.61917 22.1274 1.65188C22.1441 1.62381 22.1608 1.59573 22.1776 1.56766C22.9984 1.58836 23.8723 1.55466 24.6573 1.55789C25.2042 1.56015 25.3352 1.57123 25.8196 1.56912C26.897 1.56433 25.827 1.62004 26.7223 1.6802C26.6757 1.64578 26.6291 1.61136 26.5825 1.57693C26.7308 1.56432 26.879 1.55171 27.0273 1.53909C27.1305 1.56717 27.2338 1.59524 27.337 1.62332C27.7949 1.4777 28.0915 1.59524 28.1539 1.59524C28.2042 1.59499 28.3772 1.50732 28.9192 1.58157C28.6944 1.46172 29.3326 1.58087 29.3837 1.58157C29.4322 1.58206 30.0535 1.5553 30.3057 1.55643C30.504 1.55728 30.9271 1.58308 31.2225 1.58182C31.4833 1.58069 31.4568 1.54 31.4759 1.53958C31.7969 1.5362 31.5957 1.56782 31.8278 1.56937C32.0598 1.57091 32.2398 1.53624 32.2899 1.53934C32.3152 1.54099 32.2309 1.57889 32.3462 1.58255C32.656 1.59253 33.2162 1.55935 33.5709 1.56033C33.6966 1.56064 33.855 1.59279 33.995 1.59378C34.2097 1.59518 34.31 1.55247 34.4347 1.55374C34.4781 1.5543 34.7549 1.62027 35.0991 1.61014C35.1646 1.6081 35.3569 1.4685 35.6124 1.66629C35.6321 1.63846 35.6518 1.61062 35.6715 1.58279C36.8257 1.51389 37.1468 1.73999 37.66 1.53934C38.498 1.56175 37.9228 1.63991 38.0147 1.65188C38.0742 1.65945 38.3474 1.63796 38.3774 1.63919C38.4306 1.64158 38.4215 1.66667 38.4797 1.66653C39.548 1.66188 39.0737 1.61451 39.412 1.5845C40.2166 1.51307 40.8442 1.67166 39.4449 1.62405C39.4449 1.63805 39.4449 1.65205 39.4449 1.66604C39.7894 1.65266 40.6641 1.65902 40.372 1.73001C40.142 1.78594 38.067 1.74943 39.2422 1.8279C39.509 1.84566 39.6472 1.79313 40.1093 1.89162C40.4149 1.89696 40.4589 1.76937 40.8727 1.82058C40.8047 1.77607 40.7366 1.73155 40.6686 1.68704C41.2329 1.62901 41.929 1.70685 42.3624 1.68191C42.5097 1.67341 43.0402 1.46119 42.9166 1.67337C43.1642 1.66014 44.3304 1.69922 44.5471 1.6802C44.5992 1.67561 44.667 1.56264 45.4212 1.60208C45.4736 1.61624 45.526 1.6304 45.5784 1.64456C44.8886 1.6857 46.1067 1.72754 45.7759 1.83474C45.6635 1.78656 45.1165 1.75717 45.0285 1.73293C44.8782 1.69123 45.3258 1.63747 44.7554 1.65213C44.3958 1.83129 45.4239 1.74884 45.2668 1.91896C46.0157 1.83955 46.0906 1.91532 46.2601 1.91848C46.9849 1.9313 47.441 1.91327 48.1248 1.93312C48.2914 1.89818 47.0535 1.84774 46.9001 1.86281C47.4644 1.73896 46.4932 1.73335 46.0832 1.80691C46.0488 1.76947 46.0144 1.73204 45.98 1.69461C46.5136 1.7149 47.0342 1.72532 47.5627 1.69461C47.5971 1.7086 47.6315 1.7226 47.6659 1.7366C47.5473 1.75767 47.4288 1.77875 47.3102 1.79983C47.7497 1.83434 47.4861 1.72518 48.0717 1.82082C48.0899 1.77867 48.108 1.73651 48.1262 1.69436C48.6877 1.70836 49.2491 1.72235 49.8106 1.73635C50.103 1.65182 51.1834 1.68331 50.9855 1.79275C51.4216 1.80047 50.8832 1.74223 51.2919 1.7156C51.4698 1.70405 51.8174 1.7008 51.9033 1.73025C51.8663 1.83446 51.3461 1.8474 51.1887 1.91896C51.2842 1.94205 53.7035 1.86765 53.4878 1.98952C53.681 2.00417 53.5922 1.94138 53.9406 1.92531C54.9169 1.8805 56.4291 2.0046 57.2152 1.8489C56.2921 1.76224 56.019 1.85402 55.3116 1.85769C54.8598 1.86008 52.1048 1.87486 52.7202 1.76467C52.619 1.77867 52.5178 1.79267 52.4166 1.80666C52.3143 1.77387 52.212 1.74107 52.1097 1.70828C52.398 1.70356 52.6862 1.69884 52.9745 1.69412C53.0433 1.72683 53.1121 1.75954 53.1809 1.79226C53.2127 1.7689 53.2444 1.74555 53.2762 1.72219C53.3976 1.71755 53.5189 1.71291 53.6403 1.70828C53.6062 1.73635 53.5721 1.76443 53.538 1.7925C53.7251 1.7973 53.9121 1.8021 54.0992 1.80691C54.0488 1.76939 53.9985 1.73188 53.9481 1.69436C54.8291 1.68493 54.5307 1.70842 55.0193 1.77859C55.3841 1.78576 54.7679 1.71365 55.5397 1.69534C56.4371 1.67407 55.8483 1.7887 57.0106 1.76418C57.0274 1.74547 57.0441 1.72675 57.0608 1.70803C57.3164 1.72675 57.572 1.74547 57.8275 1.76418C57.7937 1.74091 57.7599 1.71763 57.7262 1.69436C58.2537 1.70338 58.9806 1.65896 59.1554 1.75027C58.6207 1.7063 58.626 1.86573 58.765 1.89504C59.052 1.95517 63.2917 1.89923 64.1135 1.89528C65.1643 1.89021 65.9586 1.94128 66.9184 1.86281C66.268 1.79845 63.9806 1.85118 63.5472 1.80666C63.5042 1.80229 63.5163 1.65615 63.2403 1.82058C62.351 1.79269 61.2879 1.83928 60.1768 1.83449C60.2108 1.79242 60.2447 1.75035 60.2787 1.70828C60.9615 1.79775 61.5936 1.60122 61.5047 1.76467C61.6406 1.76467 61.7765 1.76467 61.9124 1.76467C61.9124 1.73651 61.9124 1.70836 61.9124 1.6802C62.1173 1.6802 62.3222 1.6802 62.5271 1.6802C62.5271 1.70836 62.5271 1.73651 62.5271 1.76467C62.6968 1.76467 62.8665 1.76467 63.0362 1.76467C63.0539 1.73659 63.0715 1.70852 63.0892 1.68044C63.5974 1.73876 65.3297 1.58284 64.5681 1.75051C64.8068 1.75051 65.0455 1.75051 65.2842 1.75051C65.2834 1.72992 65.2826 1.70933 65.2818 1.68874C65.3844 1.68598 65.487 1.68321 65.5896 1.68044C65.5558 1.69908 65.522 1.71772 65.4883 1.73635C65.9584 1.70296 66.4042 1.80107 66.7129 1.73659C66.5093 1.72252 66.3056 1.70844 66.102 1.69436C66.4925 1.7211 67.212 1.66569 67.2764 1.66555C67.4727 1.66527 67.5762 1.70689 67.7888 1.70901C67.9807 1.71081 67.9543 1.67883 67.9901 1.67996C69.0255 1.71251 68.6309 1.88566 69.1143 1.68069C69.1658 1.70868 69.2172 1.73668 69.2687 1.76467C69.3372 1.74131 69.4057 1.71796 69.4742 1.6946C69.78 1.6968 70.0857 1.699 70.3915 1.70119C70.2895 1.6662 70.1876 1.63121 70.0856 1.59622C70.5439 1.5806 70.7577 1.65076 70.8021 1.65237C70.9277 1.65645 70.9851 1.61241 71.024 1.61233C72.8917 1.61613 71.7573 1.65491 72.6906 1.82033C73.0234 1.75541 72.6867 1.69034 72.6395 1.62429C73.0819 1.65527 73.2201 1.63699 73.6872 1.64065C73.8087 1.64165 73.9394 1.67728 74.0161 1.67776C74.0826 1.67818 74.2902 1.64032 74.4497 1.64016C74.7155 1.63988 75.0692 1.66245 75.4331 1.66189C75.7357 1.66133 76.662 1.63458 77.3081 1.6343C77.5838 1.6343 77.5198 1.66597 77.591 1.66604C77.6207 1.66604 77.8355 1.6281 78.0124 1.62795C79.4548 1.62711 80.933 1.65112 82.3826 1.65041C83.4038 1.64999 84.4415 1.61948 85.4648 1.62258C85.6825 1.62329 85.5673 1.65114 85.6623 1.65212C85.695 1.65237 85.7343 1.60378 86.071 1.62332C86.1927 1.63036 86.0527 1.66435 86.1723 1.66604C86.2306 1.66685 86.2553 1.62424 86.5956 1.61453C87.214 1.59678 87.5463 1.65357 87.6016 1.65188C87.7056 1.64861 87.6752 1.61335 87.8132 1.61208C88.4877 1.60589 89.0509 1.59991 89.6529 1.59695C89.934 1.59554 91.8723 1.58841 91.9788 1.59475C92.2169 1.60884 91.9953 1.68246 92.3007 1.67995C92.3862 1.66132 92.4718 1.64268 92.5573 1.62405C92.4214 1.60989 92.2855 1.59573 92.1496 1.58157C92.5238 1.60524 92.948 1.57175 93.225 1.57302C93.2762 1.57331 93.7472 1.6067 93.9875 1.60305C93.8854 1.61689 93.7832 1.63072 93.6811 1.64455C93.7172 1.65635 93.7533 1.66815 93.7895 1.67995C94.2699 1.66206 94.7781 1.66253 95.2708 1.66506C95.4484 1.66592 95.3884 1.69459 95.5682 1.69558C96.6159 1.70162 96.3513 1.58243 97.3592 1.80617C97.0189 1.78589 95.7773 1.81435 95.5969 1.8069C95.4711 1.80169 94.9835 1.61263 95.1624 1.80666C94.1565 1.80581 95.0302 1.6988 94.0907 1.72219C94.1095 1.74587 94.1283 1.76955 94.147 1.79323C93.8191 1.80816 93.5768 1.82013 93.3775 1.77834C93.3107 1.89322 92.1963 1.82601 91.5851 1.83376C90.7019 1.84475 89.704 1.87277 88.829 1.8777C88.5275 1.87937 88.3568 1.83435 88.319 1.83449C88.2637 1.83481 88.1084 1.87425 87.998 1.87453C87.586 1.87565 86.3326 1.80899 86.0208 1.91847C88.4723 1.91847 90.9237 1.91847 93.3752 1.91847C93.0669 1.86466 95.5467 1.8594 95.6724 1.86208C95.7888 1.86448 95.6908 1.90226 95.7254 1.90456C95.9831 1.92076 96.2029 1.86598 96.2847 1.86598C96.3471 1.86599 96.473 1.89169 96.6948 1.89113C96.7355 1.89105 96.7468 1.86387 96.7905 1.86379C97.0798 1.86379 97.3654 1.86417 97.6558 1.86403C97.6734 1.86429 97.7467 1.904 97.82 1.90407C97.8935 1.90407 97.9661 1.8644 97.9847 1.86427C98.2167 1.86456 98.6145 1.89036 98.8353 1.89064C98.9119 1.89063 98.8588 1.86155 98.9447 1.86183C99.2084 1.86254 99.1216 1.91945 99.4476 1.9048C99.557 1.89986 99.5499 1.85634 99.7592 1.86208C99.9074 1.86616 99.8915 1.94373 99.915 1.94655C99.9475 1.94995 100.459 1.8887 100.626 1.93947C100.261 2.0735 101.026 1.94646 100.989 1.88991C101.192 1.90415 101.395 1.91839 101.598 1.93263C101.667 1.91831 101.736 1.90399 101.805 1.88966C102.623 1.9542 103.122 1.91545 103.926 1.93532C103.965 1.9363 104.643 1.96814 104.611 1.98829C104.206 2.02295 103.801 2.02453 103.541 1.96046C103.114 2.08263 103.106 1.98527 102.416 2.00148C102.185 2.00697 102.169 2.04011 102.142 2.04054C101.244 2.05702 99.8047 2.07128 99.1994 1.97438C99.0297 2.00059 99.6398 2.01098 99.4026 2.03028C99.2732 2.04085 96.16 2.0718 97.1546 1.96022C97.0514 1.96331 96.9482 1.9664 96.845 1.96949C96.7417 2.07489 96.2283 2.05079 96.2866 1.94581C96.238 1.9673 96.1893 1.98878 96.1407 2.01027C96.0446 2.02844 95.9309 2.03818 95.7714 2.04396C95.1608 2.06593 91.5278 2.02937 91.3346 2.04444C91.3302 2.06935 91.3258 2.09425 91.3214 2.11915C92.9264 2.14733 94.4834 2.08545 96.2336 2.15674C96.1827 2.13339 96.1319 2.11003 96.0811 2.08668C96.7794 2.11939 97.4778 2.15211 98.1761 2.18482C97.437 2.22709 96.2611 2.26259 95.4852 2.22779C95.3473 2.22158 95.4484 2.18901 95.4167 2.18506C95.3339 2.17482 95.2449 2.23133 94.9475 2.23682C94.6499 2.24231 93.9025 2.20225 93.834 2.20337C93.702 2.2057 93.3456 2.27035 93.1208 2.26953C92.8254 2.26841 93.0234 2.22839 92.9641 2.22754C92.7189 2.22361 92.4989 2.24344 92.3068 2.24048C92.0215 2.23608 91.4288 2.16571 91.2295 2.26905C91.4333 2.27377 91.6371 2.27849 91.8409 2.28321C90.7358 2.32026 89.8717 2.18817 88.783 2.29004C88.5356 2.41517 89.4352 2.39826 88.6746 2.45166C88.8127 2.44987 88.9509 2.44808 89.0889 2.44629C89.1213 2.42008 89.1537 2.39388 89.1861 2.36768C89.424 2.38639 89.6619 2.40511 89.8997 2.42383C89.8319 2.40047 89.764 2.37712 89.6961 2.35376C90.5395 2.33615 91.3911 2.3122 91.6856 2.43774C91.7029 2.40739 91.7203 2.37703 91.7376 2.34668C92.5206 2.38359 93.6961 2.25493 93.4765 2.42383C93.5136 2.41488 93.5507 2.40592 93.5877 2.39697C94.061 2.43149 93.8589 2.36165 94.0367 2.35376C94.0875 2.35154 95.0075 2.3876 94.5998 2.43774C95.4973 2.47607 95.2205 2.31821 95.4678 2.31128C96.0423 2.38948 97.0758 2.27218 96.6413 2.39575C96.7269 2.40039 96.8124 2.40503 96.898 2.40967C97.1791 2.31244 97.4562 2.42245 97.7609 2.45923C97.8641 2.46142 97.9673 2.46362 98.0705 2.46582C98.1396 2.4331 98.2088 2.40039 98.2779 2.36768C99.2491 2.52338 98.9416 2.09756 99.3852 2.45532C99.3161 2.47672 99.247 2.49812 99.1779 2.51953C99.0139 2.5297 98.85 2.53987 98.6861 2.55004C99.3472 2.55948 100.008 2.56892 100.669 2.57836C101.509 2.67864 101.986 2.56984 102.918 2.64916C103.006 2.63964 103.093 2.63012 103.18 2.6206C103.091 2.70162 102.753 2.68971 103.383 2.72606C103.437 2.78334 103.011 2.79076 102.817 2.74681C102.77 2.73609 103.168 2.69221 102.721 2.69066C102.417 2.68956 102.969 2.7584 102.057 2.7329C102.091 2.7469 102.125 2.76089 102.159 2.77489C102.06 2.77448 101.961 2.77408 101.862 2.77367C101.774 2.74128 101.686 2.70889 101.598 2.6765C101.373 2.72328 101.246 2.78884 100.73 2.77489C100.87 2.7546 100.68 2.68956 100.424 2.69066C100.424 2.7141 100.424 2.73754 100.424 2.76097C99.8056 2.77605 100.019 2.70729 99.5049 2.76097C99.4534 2.74234 99.402 2.7237 99.3505 2.70507C99.0704 2.78186 98.0391 2.8341 98.2272 2.71898C97.938 2.83086 97.3303 2.78038 97.1044 2.69091C97.0871 2.71418 97.0697 2.73746 97.0523 2.76073C96.9321 2.76545 96.8118 2.77017 96.6915 2.77489C96.6244 2.76081 96.5573 2.74673 96.4902 2.73266C96.405 2.74673 96.3198 2.76081 96.2345 2.77489C96.1831 2.75153 96.1316 2.72818 96.0801 2.70482C95.9431 2.73282 95.8061 2.76081 95.6691 2.78881C95.5853 2.77017 95.5015 2.75153 95.4176 2.7329C95.409 2.78162 94.5784 2.79246 94.3464 2.76049C94.2773 2.77465 94.2082 2.78881 94.139 2.80297C94.1052 2.77977 94.0715 2.75658 94.0377 2.73339C93.9862 2.75194 93.9348 2.7705 93.8833 2.78905C93.7647 2.7705 93.6462 2.75194 93.5276 2.73339C93.0441 2.84709 93.0285 2.74733 92.9182 2.74804C92.7135 2.74934 92.0165 2.82054 91.9 2.81688C91.7836 2.81319 91.7274 2.77238 91.6335 2.76854C90.0848 2.70443 90.7214 2.81395 90.4107 2.83129C90.2431 2.84073 90.1244 2.80265 89.9762 2.80687C89.7227 2.81392 88.4437 2.86429 88.3701 2.85936C88.263 2.85225 88.5152 2.67272 88.167 2.71898C88.1554 2.81538 87.4106 2.71809 87.7587 2.85253C87.452 2.84073 87.1453 2.82893 86.8386 2.81713C86.8734 2.9314 86.4952 2.8579 86.0832 2.86424C85.4994 2.87313 84.1851 2.94827 84.2331 2.83104C84.0933 2.85798 83.9535 2.88491 83.8136 2.91185C82.8569 2.87495 81.9185 2.91361 80.9688 2.91502C78.1504 2.91939 75.0927 2.89394 72.2876 2.87084C72.1527 2.86969 72.1721 2.8314 72.075 2.83055C71.5649 2.82633 70.239 2.85341 69.5244 2.84496C69.2955 2.84228 69.1841 2.80493 69.1115 2.80321C68.8651 2.79715 68.9233 2.84637 68.8098 2.84496C68.6308 2.8427 67.6841 2.79702 67.3581 2.79223C67.1966 2.78985 67.0056 2.82896 66.8166 2.81688C66.8003 2.8159 66.8304 2.7756 66.8166 2.77489C66.4721 2.76996 66.6793 2.8048 66.5628 2.80297C65.7317 2.78987 64.8434 2.78906 63.9418 2.78075C63.7179 2.77864 63.3752 2.75023 63.183 2.74755C63.1097 2.7466 63.2412 2.77718 62.9879 2.77465C62.9011 2.77378 62.8714 2.73402 62.7734 2.73144C62.3513 2.72059 62.21 2.84838 61.8472 2.7456C61.1469 2.75236 59.928 2.78517 59.2891 2.78588C59.138 2.786 59.0644 2.76251 58.9203 2.76293C58.8181 2.76321 58.6382 2.7996 58.4788 2.80004C58.3193 2.80046 58.0676 2.76581 57.7609 2.76708C57.438 2.76835 57.0365 2.78893 56.9637 2.78881C56.8758 2.78881 56.8348 2.74505 56.7469 2.7456C56.4811 2.74701 55.7695 2.79002 55.427 2.79467C55.0591 2.7996 54.8382 2.77838 54.7124 2.7788C54.596 2.77939 54.4602 2.81631 54.407 2.81664C54.3242 2.8172 54.3047 2.77405 54.1996 2.77441C54.0279 2.77511 53.8509 2.80225 53.5934 2.80297C48.9563 2.81636 44.41 2.79264 39.8986 2.76122C39.3957 2.7577 39.1115 2.78797 38.3704 2.77416C38.0699 2.76853 38.1965 2.72399 37.9627 2.73242C37.8584 2.73622 37.8848 2.77125 37.7529 2.77294C37.1702 2.78027 36.4913 2.74772 36.2388 2.74828C36.1386 2.74845 36.0242 2.78823 35.8189 2.78881C34.2886 2.79332 32.478 2.78215 30.8312 2.78906C29.9592 2.79272 28.639 2.81299 27.6382 2.81567C24.873 2.82313 21.8983 2.81392 19.3764 2.81786C15.5684 2.82364 11.7787 2.86043 7.97888 2.81689C9.7566 2.91312 12.1773 2.90509 14.1565 2.91552C19.873 2.94539 25.9597 2.88948 31.8184 2.89159C33.8568 2.8923 36.4269 2.89008 38.6585 2.91234C38.7597 2.91333 38.9695 2.88273 39.1882 2.88598C39.2347 2.88673 39.811 2.94254 40.0051 2.9431C39.8211 2.84391 40.5817 2.93231 40.8169 2.92992C41.1134 2.9268 41.7318 2.87723 42.4258 2.90526C43.0555 2.93062 42.8818 2.96878 42.9166 2.97118C43.1393 2.98664 43.217 2.92515 43.3876 2.91893C44.0848 2.89413 47.671 2.92986 48.6719 2.93212C48.9305 2.93268 48.9378 2.97177 48.9961 2.97191C49.1504 2.97217 49.3701 2.93356 49.6173 2.93382C50.063 2.93439 50.5764 2.97128 50.8218 2.97142C51.4086 2.97184 52.522 2.92832 53.2846 2.92748C53.4991 2.92722 53.486 2.9679 53.5831 2.96776C54.0105 2.96704 55.1236 2.91911 55.6541 2.91869C56.5159 2.91798 57.4023 2.94428 58.2784 2.93089C58.3339 2.94904 58.3895 2.96719 58.445 2.98534C58.5326 2.96629 58.6202 2.94725 58.7077 2.92821C60.189 2.94272 61.6968 2.90185 63.1699 2.90453C63.3396 2.90481 64.1798 2.93954 64.3199 2.93968C64.4365 2.93968 64.5512 2.89473 64.7239 2.90135C64.9659 2.91054 64.7382 2.99615 65.1335 2.97166C65.2398 2.96504 65.1368 2.9284 65.3503 2.91698C65.4209 2.91317 66.7899 2.89833 66.8635 2.90087C66.9862 2.90514 67.0955 2.98365 67.1272 2.98534C67.2917 2.9942 67.2847 2.93395 67.3951 2.92845C67.7208 2.912 68.1464 2.95253 68.1993 2.95164C68.8393 2.94051 70.0356 2.89242 70.7073 2.92088C70.8002 2.92485 70.789 2.96972 70.8053 2.97118C70.9106 2.98047 70.976 2.92939 71.0761 2.92821C71.6148 2.92243 72.4585 2.95682 73.0003 2.96556C73.0627 2.96651 73.1944 2.94194 73.3057 2.94432C73.9355 2.95813 73.7312 2.99756 73.767 2.99925C73.8518 3.00343 74.001 2.95995 74.2268 2.95726C74.8085 2.95007 75.9239 2.95632 76.5475 2.9597C77.0147 2.96238 77.0076 3.01218 77.0383 3.01317C77.1038 3.01495 77.2858 2.97519 77.5934 2.97069C78.1852 2.96181 78.1177 3.00094 78.361 2.99925C78.3814 2.99925 78.3459 2.96096 78.6158 2.95701C79.1372 2.94942 80.3084 2.98706 80.8665 2.98509C81.0812 2.98439 81.1314 2.94747 81.3512 2.94676C81.6997 2.9455 82.4862 2.98544 82.5482 2.98533C82.5656 2.98533 82.6046 2.94285 82.7068 2.94285C82.8192 2.94286 82.9298 2.96472 83.0136 2.96458C83.491 2.964 84.3134 2.88986 84.0848 3.04148C84.2378 3.00405 84.3908 2.96662 84.5437 2.92918C85.5435 2.93665 86.5148 2.92166 87.5054 2.91405C87.7282 2.91236 87.9141 2.94107 88.1022 2.93968C88.2902 2.93827 89.1197 2.89077 89.2583 2.88988C89.5057 2.88833 90.9115 2.88332 91.0864 2.8867C91.4278 2.89319 91.7591 2.95585 91.8981 2.94359C92.0095 2.93372 91.9065 2.89842 92.1191 2.88841C92.4871 2.87111 93.1126 2.91646 93.225 2.91576C93.273 2.91547 93.1832 2.88795 93.6328 2.88597C93.875 2.88484 94.0051 2.91516 94.093 2.91502C94.1204 2.91486 94.0794 2.8657 94.559 2.8723C94.8902 2.87695 95.0314 2.91488 95.0662 2.91502C95.1184 2.91527 95.2443 2.8748 95.4538 2.87621C95.9434 2.87974 96.8387 2.92614 97.3038 2.92967C97.3938 2.93037 97.3632 2.88147 97.7219 2.88597C97.9785 2.88921 97.9337 2.92811 98.0297 2.92967C98.182 2.93207 98.409 2.88443 98.7452 2.88597C99.1685 2.88794 102.311 2.93735 102.474 2.95018C102.583 2.95877 102.71 2.95931 102.764 2.98045C102.718 3.00071 102.671 3.02098 102.625 3.04124C102.143 2.97013 102.338 3.0514 102.21 3.05662C102.025 3.06409 101.328 3.05372 101.159 3.07176C101.099 3.07827 101.236 3.12152 100.913 3.14377C100.567 3.16756 100.413 3.09056 100.275 3.19578C99.7832 3.07897 99.3108 3.20294 99.8803 3.23606C100.198 3.25452 103.316 3.29622 103.953 3.30271C104.469 3.30791 105.436 3.27661 106.071 3.28464C106.444 3.28943 107.363 3.29486 107.324 3.3508C107.655 3.35784 107.305 3.30215 107.374 3.2944C107.52 3.27822 108.554 3.31668 108.749 3.31516C109.714 3.30783 110.932 3.24529 111.869 3.31589C111.826 3.33086 111.782 3.34583 111.739 3.36081C111.528 3.38828 110.551 3.349 110.44 3.42087C111.869 3.42086 113.299 3.42086 114.728 3.42086C114.701 3.35971 116.474 3.36053 116.558 3.38815C116.527 3.41777 116.496 3.44739 116.464 3.47702C115.463 3.3646 115.553 3.5132 114.88 3.43429C114.606 3.43318 114.689 3.48212 114.554 3.49142C113.211 3.58383 114.532 3.39099 113.504 3.43478C113.814 3.50577 112.972 3.53171 112.594 3.54073C112.509 3.54271 111.381 3.52472 111.247 3.52584C110.494 3.53218 109.202 3.57107 108.455 3.53219C107.866 3.52754 107.542 3.57811 107.008 3.58981C106.602 3.59868 106.718 3.56314 106.527 3.56271C106.126 3.56172 105.994 3.66992 105.738 3.51901C105.466 3.53781 105.194 3.5566 104.923 3.5754C104.923 3.55197 104.923 3.52853 104.923 3.50509C104.752 3.50509 104.582 3.50509 104.411 3.50509C104.361 3.52845 104.311 3.5518 104.26 3.57516C103.719 3.54317 103.945 3.48674 103.844 3.42038C103.727 3.41582 103.61 3.41126 103.493 3.40671C103.402 3.45765 103.312 3.50859 103.221 3.55953C102.699 3.55538 102.176 3.55123 101.654 3.54708C101.62 3.52373 101.586 3.50037 101.553 3.47702C101.551 3.50037 101.55 3.52373 101.549 3.54708C100.665 3.55188 99.78 3.55669 98.8954 3.56149C98.6601 3.59895 100.077 3.62735 100.185 3.6296C100.782 3.642 102.367 3.60443 102.369 3.6877C102.741 3.62557 103.858 3.641 104.205 3.71553C103.678 3.71106 103.15 3.70658 102.623 3.70211C102.64 3.73002 102.657 3.75793 102.674 3.78584C102.017 3.67327 101.92 3.67946 101.245 3.78584C101.244 3.74841 101.243 3.71098 101.243 3.67354C100.772 3.80371 99.9389 3.58291 99.915 3.74361C99.6641 3.73059 99.4133 3.71757 99.1624 3.70455C98.6207 3.72414 99.4619 3.84773 97.3409 3.79927C97.1947 3.79589 97.2252 3.75495 97.0054 3.75777C96.942 3.75862 96.5791 3.81817 95.8849 3.81197C95.7766 3.81098 95.7684 3.77546 95.656 3.77095C95.3964 3.76025 94.8792 3.83049 95.114 3.71602C94.0858 3.68264 94.5119 3.77658 94.193 3.81392C93.9804 3.8387 94.0232 3.77098 93.8392 3.78633C93.6115 3.80538 93.7786 3.87365 92.867 3.84224C92.9693 3.8376 93.0716 3.83296 93.1739 3.82832C93.1224 3.80977 93.071 3.79122 93.0195 3.77266C92.4992 3.81718 92.5484 3.75213 92.303 3.8564C91.9248 3.8099 91.5975 3.8062 91.0803 3.81465C90.0754 3.83114 90.5906 3.94351 89.4437 3.79219C89.2579 3.81343 89.0721 3.83467 88.8862 3.85591C88.5808 3.81125 88.8279 3.75537 88.372 3.7441C88.7288 3.85443 87.7669 3.8142 87.6044 3.91255C87.5873 3.88911 87.5703 3.86568 87.5532 3.84224C87.4514 3.84224 87.3496 3.84224 87.2478 3.84224C87.2475 3.86104 87.2471 3.87984 87.2468 3.89864C87.1112 3.88456 86.9756 3.87048 86.84 3.8564C86.738 3.87504 86.6361 3.89367 86.5341 3.91231C86.3664 3.873 86.1988 3.8337 86.0311 3.79439C85.9259 3.79171 85.8206 3.78902 85.7154 3.78633C85.7486 3.81433 85.782 3.84232 85.8153 3.87032C85.68 3.86096 85.5447 3.8516 85.4094 3.84224C85.5668 3.88818 85.4679 3.94204 85.0467 3.94063C84.6992 3.9395 85.0906 3.84362 84.3434 3.8835C84.2912 3.88634 84.199 3.95472 83.4927 3.96528C82.6457 3.97795 83.0571 3.92843 82.9062 3.92671C82.8765 3.92643 82.6178 3.96084 82.3755 3.96577C82.238 3.96858 82.1056 3.9408 82.0874 3.94087C82.0026 3.94214 81.9778 3.98144 81.8603 3.98286C81.5619 3.98624 81.1613 3.96699 80.8689 3.96895C80.736 3.96979 80.611 3.99308 80.5517 3.99336C80.4597 3.99363 80.343 3.95806 80.25 3.9582C79.9065 3.95895 79.3852 4.07695 79.2257 3.91304C78.8956 4.06376 78.2038 3.88154 78.2545 3.98262C77.3722 3.94447 75.0188 4.06848 75.0878 3.89864C74.5881 4.04386 74.6327 3.93869 74.4234 3.94087C74.1893 3.94327 74.3106 3.97144 74.1245 3.97017C73.6901 3.96721 73.275 3.95511 72.8426 3.95454C72.9105 3.93127 72.9784 3.908 73.0463 3.88472C72.5924 3.87725 72.7487 3.93142 72.2857 3.94185C71.4342 3.96087 71.793 3.91766 71.6673 3.85665C71.701 3.91554 70.6969 3.90639 70.5947 3.89864C70.5337 3.89391 70.8009 3.818 70.186 3.84249C70.2196 3.86584 70.2532 3.8892 70.2869 3.91255C70.0067 3.88061 69.2458 3.92114 69.1167 3.91329C69.0574 3.90962 68.7402 3.72127 68.4499 3.87032C68.4149 3.84696 68.3798 3.82361 68.3448 3.80025C68.0225 3.82833 67.7001 3.8564 67.3778 3.88448C67.3263 3.84241 67.2748 3.80033 67.2234 3.75826C67.1211 3.75826 67.0188 3.75826 66.9165 3.75826C66.9844 3.79561 67.0523 3.83297 67.1202 3.87032C66.4886 3.85341 65.7169 3.91231 65.5868 3.78634C65.4515 3.80969 65.3162 3.83305 65.1809 3.8564C65.0929 3.81449 65.0048 3.77258 64.9168 3.73067C64.2903 3.74124 64.28 3.76926 63.8517 3.81392C63.8684 3.78121 63.8851 3.7485 63.9019 3.71578C63.586 3.76172 63.0093 3.80448 62.5534 3.81026C62.3366 3.81293 61.9645 3.76785 61.9134 3.77193C61.8617 3.77624 61.3534 3.95335 61.2982 3.80001C60.5499 3.86792 60.2205 3.79856 59.9169 3.80025C59.7197 3.80139 59.6297 3.8382 59.4069 3.842C59.0879 3.84749 58.7669 3.8297 58.5829 3.83223C58.4776 3.83378 58.458 3.86968 58.3854 3.87081C58.0422 3.87628 58.2433 3.8396 57.8815 3.842C57.8481 3.84241 57.5836 3.8862 57.2856 3.88057C57.1189 3.87746 56.6878 3.82821 56.6498 3.82833C56.4811 3.82917 56.6159 3.92763 56.0394 3.81392C56.0561 3.83264 56.0728 3.85136 56.0896 3.87007C55.376 3.91756 55.2634 3.83411 55.1192 3.82833C55.1009 3.82785 54.9271 3.86011 54.8232 3.85567C54.6476 3.84807 54.5768 3.80391 54.5379 3.80196C54.4009 3.7952 53.9395 3.81463 53.638 3.77193C53.7013 3.89762 52.6446 3.94232 52.4105 3.80001C52.2234 3.82808 52.0364 3.85616 51.8493 3.88423C51.7647 3.8608 51.6801 3.83736 51.5955 3.81392C51.544 3.83728 51.4926 3.86064 51.4411 3.88399C51.1685 3.83256 50.8959 3.78113 50.6233 3.7297C50.6059 3.78121 50.5886 3.83272 50.5712 3.88424C50.4949 3.87838 50.4186 3.87252 50.3422 3.86666C50.2827 3.82572 50.2231 3.78479 50.1635 3.74386C50.0681 3.75167 49.9726 3.75948 49.8773 3.7673C49.8536 3.79692 49.83 3.82654 49.8064 3.85616C49.2935 3.89031 49.5571 3.60778 48.5799 3.85616C48.4279 3.8328 48.2758 3.80945 48.1238 3.78609C47.9521 3.89976 47.6304 3.83093 47.3707 3.84371C47.1878 3.85273 47.1978 3.89788 46.9485 3.89888C46.699 3.89987 46.7079 3.85669 46.6885 3.8564C46.4852 3.85375 46.3319 3.89182 46.1827 3.88424C46.1602 3.88311 46.1039 3.83183 45.9139 3.82857C45.7237 3.82533 45.6091 3.87987 45.3259 3.86959C45.1808 3.86437 45.1389 3.82117 45.0102 3.81734C44.3968 3.79874 43.7792 4.01754 43.3191 3.75802C43.2154 3.7909 42.4633 3.90599 42.1414 3.89937C41.6408 3.8888 41.8337 3.8379 41.6347 3.82857C41.6061 3.82716 41.4536 3.84436 41.0336 3.84127C40.9585 3.84071 40.9759 3.86945 40.9651 3.86983C40.4755 3.86927 39.5247 3.84658 38.9869 3.84249C38.9389 3.84207 38.6873 3.92218 38.2611 3.81441C37.6294 3.89402 36.4394 3.72299 35.6063 3.84298C35.4908 3.84551 35.3506 3.81686 35.2994 3.81783C34.8588 3.82671 35.0203 3.91372 34.0246 3.78634C34.1052 3.83071 33.8723 3.87077 33.5432 3.86739C33.0484 3.86232 33.3999 3.77958 33.0022 3.78634C33.0022 3.80969 33.0022 3.83305 33.0022 3.85641C32.0874 3.79358 31.9054 3.89344 30.9874 3.894C30.6572 3.89414 30.1695 3.84239 30.0908 3.84225C30.0603 3.8424 29.6992 3.89871 29.6647 3.89913C29.4705 3.90082 29.3608 3.87486 29.1932 3.87472C28.6391 3.87417 27.978 3.94742 28.0976 3.81441C27.9452 3.84249 27.7929 3.87057 27.6406 3.89864C27.065 3.75661 26.6346 3.95236 26.514 3.81442C26.4111 3.8429 26.3082 3.87138 26.2053 3.89986C23.7368 3.88546 21.2682 3.87105 18.7997 3.85665C18.7016 3.90104 17.6252 3.88528 17.57 3.87838C17.3165 3.84709 17.5842 3.7503 17.067 3.77242C17.0097 3.81482 16.9525 3.85722 16.8952 3.89962C16.2451 3.91343 16.5578 3.87124 16.3012 3.84249C16.194 3.84772 16.2286 3.88062 16.0835 3.88302C15.2964 3.89612 13.6823 3.89767 12.8216 3.90035C12.648 3.90091 12.6742 3.87016 12.6203 3.87008C12.4721 3.87036 12.1796 3.90912 11.8822 3.90914C10.0432 3.90886 7.43726 3.887 5.58592 3.85445C5.46018 3.8522 5.44461 3.81552 5.35976 3.81368C5.24217 3.8113 4.97951 3.84095 4.85583 3.83785C4.73933 3.83504 4.66471 3.80717 4.54005 3.80392C3.96962 3.7887 3.20268 3.83578 2.59237 3.75363C2.54105 3.7467 1.90162 3.59901 1.88715 3.58933C1.8023 3.53184 2.37053 3.44152 1.43718 3.3574C2.27137 3.28399 2.01077 3.15421 0.927155 3.09081C1.47065 3.07445 2.01415 3.05809 2.55765 3.04174C2.55843 3.02636 2.55922 3.01098 2.56 2.99559C2.06524 2.91937 1.57438 2.894 0.822052 2.88696C0.845512 2.87271 0.868973 2.85847 0.892433 2.84423C1.55691 2.77308 2.35849 2.75992 2.86451 2.66284C2.12238 2.59098 1.38025 2.51913 0.638123 2.44727C0.67519 2.43604 0.712257 2.42481 0.749325 2.41358C1.10508 2.38441 1.88215 2.36729 2.17759 2.3401C3.30596 2.2364 1.19003 2.2625 1.53759 2.19923C2.72891 2.20151 3.92023 2.20379 5.11155 2.20607C5.15332 2.15948 0.570268 2.0308 0.617477 1.89016C0.991905 1.88072 1.36633 1.87128 1.74076 1.86184C1.57388 1.82612 1.407 1.79039 1.24012 1.75467C1.2861 1.74335 1.33208 1.73204 1.37806 1.72073C2.00977 1.69298 2.64148 1.66523 3.27319 1.63748C1.35257 1.66538 0.460045 1.64513 -5.56176e-08 1.36381C0.052082 1.35665 0.104164 1.34949 0.156246 1.34233C0.572315 1.51832 2.53631 1.46139 3.58006 1.42631C3.36732 1.37476 2.44829 1.41458 2.25407 1.38358C2.19904 1.3747 2.39096 1.33892 2.26346 1.3206C1.93021 1.27297 0.510109 1.2117 0.71648 1.15337C0.849377 1.11589 3.13434 1.06446 3.58006 1.06841C2.53531 1.00106 1.45884 0.981573 0.411026 0.899712C1.07242 0.785581 1.65817 0.64591 2.86545 0.63971C3.23343 0.579825 0.677708 0.496868 0.618416 0.464178C1.06072 0.429105 1.50303 0.394031 1.94534 0.358957C1.57122 0.368315 1.19711 0.377674 0.82299 0.387032C0.821895 0.375314 0.820801 0.363596 0.819706 0.351877C1.78883 0.297488 2.67545 0.197657 3.78463 0.20442C3.74885 0.142422 3.08518 0.148589 2.76316 0.148026ZM108.903 3.67428C108.925 3.72568 108.518 3.71725 108.289 3.71627C108.324 3.72562 108.358 3.73498 108.393 3.74434C107.904 3.73462 106.994 3.71489 106.961 3.81465C106.612 3.82705 106.766 3.7403 106.654 3.73043C106.61 3.72648 106.155 3.77697 105.791 3.71553C105.704 3.71578 105.618 3.71602 105.531 3.71627C105.515 3.74898 105.498 3.78169 105.481 3.81441C105.361 3.7747 105.24 3.73498 105.119 3.69527C106.38 3.68827 107.64 3.68127 108.901 3.67428C108.901 3.67428 108.902 3.67428 108.903 3.67428ZM96.3387 3.71651C95.8797 3.69805 95.1766 3.66891 95.3186 3.7585C95.6086 3.75378 95.8986 3.74906 96.1885 3.74434C96.2386 3.73507 96.2886 3.72579 96.3387 3.71651ZM50.6768 3.64596C50.2934 3.55775 49.9404 3.63405 49.3475 3.61813C49.3483 3.63677 49.3491 3.6554 49.3499 3.67404C49.5923 3.62929 50.2333 3.65906 50.6768 3.64596ZM120.292 3.33713C120.377 3.34404 120.461 3.35096 120.546 3.35788C120.202 3.45806 120.141 3.38746 119.752 3.39718C119.729 3.39779 119.737 3.42072 119.729 3.42086C119.634 3.42241 119.546 3.39481 119.46 3.39523C119.294 3.39608 119.159 3.42405 118.866 3.42306C118.639 3.42221 118.637 3.37823 118.557 3.37936C118.489 3.38045 117.816 3.50142 117.383 3.44918C116.559 3.34971 120.041 3.32783 120.292 3.33713ZM122.734 3.41989C122.653 3.42029 122.571 3.4207 122.49 3.42111C122.735 3.35352 122.241 3.36379 121.878 3.3652C121.889 3.30039 122.657 3.32811 123 3.30881C122.911 3.34583 122.823 3.38286 122.734 3.41989ZM112.43 3.28098C112.749 3.27437 112.695 3.35527 112.682 3.37936C112.581 3.37936 112.479 3.37936 112.378 3.37936C112.395 3.34657 112.412 3.31377 112.43 3.28098ZM114.828 3.2529C114.729 3.30785 114.036 3.33189 113.708 3.33639C113.694 3.3364 113.784 3.30625 113.552 3.30905C113.482 3.30993 112.797 3.41967 112.948 3.29514C113.574 3.28106 114.2 3.26698 114.827 3.2529C114.827 3.2529 114.828 3.2529 114.828 3.2529ZM115.527 3.28537C115.396 3.30262 115.266 3.31987 115.136 3.33713C115.068 3.31133 115.001 3.28553 114.933 3.25974C115.082 3.25323 115.23 3.24672 115.379 3.24021C115.428 3.25526 115.478 3.27032 115.527 3.28537ZM17.3879 3.21214C17.4182 3.23973 17.4486 3.26731 17.4789 3.2949C17.5965 3.31181 18.168 3.19169 17.9871 3.16844C17.7873 3.18301 17.5876 3.19757 17.3879 3.21214ZM14.9743 3.15428C14.8554 3.14036 14.7366 3.12645 14.6177 3.11253C14.481 3.15933 14.3443 3.20612 14.2076 3.25291C14.8014 3.28447 15.4333 3.32082 15.3314 3.18284C15.4673 3.18284 15.6032 3.18284 15.7391 3.18284C15.6247 3.2399 15.64 3.25869 15.9958 3.2949C16.0736 3.21551 16.4414 3.25596 16.8624 3.23851C16.5562 3.23387 16.2499 3.22923 15.9437 3.22459C15.9437 3.21059 15.9437 3.1966 15.9437 3.1826C16.6263 3.18766 15.7779 3.09887 15.3332 3.15452C15.2982 3.13589 15.2632 3.11725 15.2281 3.09862C15.1435 3.11717 15.0589 3.13573 14.9743 3.15428ZM64.3129 3.1826C64.2283 3.16852 64.1437 3.15444 64.0591 3.14036C63.7312 3.32372 64.3988 3.14978 64.8741 3.2949C64.717 3.18466 65.4416 3.18927 65.4831 3.18186C65.3997 3.14475 65.3164 3.10765 65.233 3.07054C64.9263 3.10789 64.6196 3.14524 64.3129 3.1826ZM61.9143 3.05613C62.2077 3.14758 60.7664 3.15319 60.2829 3.13304C60.1653 3.12808 59.9557 3.07787 59.8709 3.08421C59.8195 3.10276 59.768 3.12132 59.7165 3.13987C59.6556 3.07575 58.7114 3.14784 58.3394 3.18235C58.3044 3.159 58.2693 3.13564 58.2343 3.11229C58.0987 3.12156 57.9631 3.13084 57.8275 3.14012C57.8446 3.11684 57.8616 3.09357 57.8787 3.07029C57.7761 3.09829 57.6735 3.12628 57.5709 3.15428C57.1681 3.18542 57.4164 3.05853 57.1138 3.09813C56.7775 3.14209 57.3286 3.21765 57.3184 3.26682C57.5914 3.25414 58.2121 3.22575 58.4891 3.22434C58.6482 3.22358 58.4679 3.31169 59.1535 3.21043C59.3038 3.23403 59.4541 3.25763 59.6044 3.28123C59.8803 3.24371 60.1562 3.2062 60.4321 3.16868C60.4835 3.20131 60.535 3.23394 60.5865 3.26658C60.6159 3.27169 61.254 3.19759 61.2199 3.17307C61.4783 3.23545 62.009 3.24657 62.5679 3.24973C62.6217 3.23199 62.6755 3.21425 62.7293 3.19651C62.1887 3.23482 62.5573 3.17774 62.3962 3.14378C62.3032 3.12419 62.0186 3.08572 61.9143 3.05613ZM21.1542 3.14061C20.2465 3.22022 20.8085 3.15453 19.8273 3.15452C19.8958 3.19668 19.9643 3.23883 20.0328 3.28098C20.5152 3.20397 21.309 3.25518 21.1552 3.14061C21.1549 3.14061 21.1545 3.14061 21.1542 3.14061ZM11.5528 3.28074C12.0721 3.25524 11.8115 3.18968 12.4697 3.16868C12.47 3.16868 12.4703 3.16868 12.4706 3.16868C12.1303 3.16396 11.7899 3.15924 11.4496 3.15452C11.484 3.1966 11.5184 3.23867 11.5528 3.28074ZM41.9064 3.22971C42.4042 3.24803 42.3062 3.21523 42.758 3.28074C43.4306 3.20127 42.8612 3.2125 42.8612 3.14036C42.7074 3.16152 42.5537 3.18268 42.4 3.20384C42.0272 3.13637 42.3807 3.10241 42.3807 3.09593C42.3804 3.09593 42.3801 3.09593 42.3798 3.09593C42.3798 3.07427 42.3919 3.06972 42.2489 3.05662C42.1347 3.11432 42.0205 3.17202 41.9064 3.22971ZM44.037 3.14061C43.8663 3.18851 43.7895 3.25002 44.2383 3.28074C44.2386 3.28074 44.239 3.28074 44.2393 3.28074C44.2753 3.17367 44.7056 3.26009 44.9018 3.25291C44.9532 3.24127 45.0047 3.22963 45.0561 3.218C44.7164 3.1922 44.3767 3.1664 44.037 3.14061ZM51.5443 3.04222C51.5462 3.1605 51.1696 3.17175 51.6997 3.28074C51.8026 3.27862 51.9055 3.27651 52.0084 3.27439C52.076 3.24843 52.1435 3.22247 52.2111 3.19651C53.5165 3.41054 53.9057 3.0461 51.6997 3.18235C51.6994 3.18243 51.699 3.18251 51.6987 3.1826C51.6473 3.1358 51.5958 3.08901 51.5443 3.04222ZM49.2452 3.05223C49.2286 3.11432 49.2121 3.17641 49.1955 3.2385C48.9072 3.08872 48.5348 3.23164 47.9695 3.12596C47.9183 3.14484 47.8672 3.16372 47.816 3.1826C47.6048 3.14105 45.5295 3.12908 45.9791 3.22459C46.1754 3.2663 46.6029 3.20965 46.6397 3.21092C46.7644 3.2156 46.927 3.26894 47.1376 3.26585C47.2592 3.26398 47.5157 3.20128 47.7639 3.20139C48.319 3.20168 49.3322 3.37001 50.0621 3.21067C50.1147 3.22939 50.1672 3.24811 50.2198 3.26682C50.7614 3.2554 50.5806 3.19609 51.0845 3.26682C51.4327 2.9719 49.0587 3.28137 49.553 3.04222C49.5527 3.04222 49.5524 3.04222 49.5521 3.04222C49.4498 3.04556 49.3475 3.04889 49.2452 3.05223ZM34.3324 3.14061C34.2997 3.08765 33.6715 3.16936 33.8191 3.04247C33.614 3.08665 33.409 3.13084 33.204 3.17503C33.2055 3.18683 33.2071 3.19863 33.2086 3.21043C33.4124 3.20115 33.6162 3.19187 33.82 3.1826C33.8208 3.20131 33.8216 3.22003 33.8224 3.23875C34.1261 3.17104 35.3934 3.20053 35.3548 3.26682C35.4225 3.23883 35.4902 3.21084 35.558 3.18284C36.1642 3.25907 36.6857 3.17802 37.3461 3.25242C37.3973 3.22923 37.4484 3.20603 37.4996 3.18284C37.5329 3.20156 37.5662 3.22028 37.5995 3.23899C37.8401 3.24135 38.0806 3.24371 38.3211 3.24607C39.105 3.17071 37.5819 3.07314 37.3973 3.08421C37.3727 3.08576 37.3765 3.13422 37.2232 3.14183C36.9508 3.15518 35.4264 3.10694 34.955 3.1389C34.951 3.10675 34.9469 3.07461 34.9428 3.04247C34.7394 3.07518 34.5359 3.10789 34.3324 3.14061ZM54.4572 3.16868C54.4916 3.20139 54.526 3.23411 54.5604 3.26682C55.1542 3.23415 55.5282 3.26271 55.3759 3.15452C55.3756 3.15452 55.3753 3.15452 55.375 3.15452C55.069 3.15924 54.7631 3.16396 54.4572 3.16868ZM98.5876 3.19651C98.572 3.13148 98.2881 3.10717 97.9213 3.15378C97.939 3.17266 97.9567 3.19154 97.9743 3.21042C98.1655 3.15505 98.4041 3.25157 98.9939 3.23874C98.9939 3.20603 98.9939 3.17332 98.9939 3.1406C98.8585 3.15924 98.723 3.17787 98.5876 3.19651ZM53.9448 3.15452C53.7638 3.11595 53.2558 3.23297 53.5901 3.23875C53.8457 3.24311 54.0419 3.17523 53.9448 3.15452ZM9.51037 3.21751C9.64457 3.22435 9.77876 3.23118 9.91295 3.23802C9.98286 3.21019 10.0528 3.18236 10.1227 3.15452C10.1224 3.15452 10.1221 3.15452 10.1217 3.15452C9.91796 3.17552 9.71416 3.19652 9.51037 3.21751ZM40.2045 3.23509C40.6597 3.23102 41.1148 3.22695 41.5699 3.22288C41.5745 3.20473 41.579 3.18658 41.5835 3.16844C41.1276 3.23466 40.9443 3.16328 40.838 3.15892C40.8384 3.15892 40.8389 3.15892 40.8394 3.15892C40.498 3.14455 40.1728 3.13398 39.8498 3.11229C39.9681 3.15322 40.0863 3.19415 40.2045 3.23509ZM38.6444 3.12059C38.7211 3.24881 38.8212 3.26374 39.5204 3.17356C39.4927 3.15778 39.4651 3.14199 39.4374 3.1262C39.0751 3.13564 38.8637 3.16524 38.9274 3.09837C38.833 3.10578 38.7387 3.11318 38.6444 3.12059ZM45.7717 3.1616C45.6878 3.12078 45.0218 3.16177 45.058 3.18235C45.0723 3.19053 45.9352 3.24164 45.7717 3.1616ZM103.643 3.16819C103.49 3.15883 103.336 3.14947 103.183 3.14011C103.387 3.1262 103.591 3.11228 103.795 3.09837C103.745 3.12164 103.694 3.14491 103.643 3.16819ZM105.328 2.98582C105.437 3.00216 105.082 3.11745 105.736 3.14719C105.26 3.14963 104.784 3.15208 104.308 3.15452C104.531 3.13588 104.754 3.11725 104.977 3.09861C104.938 3.06549 104.899 3.03237 104.86 2.99925C105.016 2.99477 105.172 2.9903 105.328 2.98582ZM105.839 3.07029C105.582 2.98267 106.932 2.97609 107.058 2.9868C107.086 2.98934 107.219 3.05577 107.268 3.07005C107.064 3.07013 106.86 3.07021 106.657 3.07029C106.725 3.0912 106.793 3.11212 106.861 3.13303C106.623 3.14019 106.384 3.14735 106.146 3.15452C106.248 3.13352 106.35 3.11253 106.452 3.09153C106.247 3.08445 106.043 3.07737 105.839 3.07029ZM100.424 3.09153C100.595 3.09373 100.765 3.09592 100.936 3.09812C100.902 3.06541 100.868 3.03269 100.834 2.99998C100.732 2.99998 100.629 2.99998 100.527 2.99998C100.493 3.0305 100.458 3.06101 100.424 3.09153ZM103.901 3.0493C103.652 3.20681 102.975 2.86246 103.767 2.98997C103.846 3.00293 103.924 3.03408 103.901 3.0493ZM107.564 3.00559C108.094 2.89076 107.974 3.1443 107.473 3.07005C107.448 3.0661 107.524 3.01407 107.564 3.00559ZM111.541 3.00193C111.584 3.00279 111.66 3.08488 112.07 3.00682C112.138 3.01617 112.205 3.02553 112.273 3.03489C112.115 3.07303 110.759 3.09572 110.946 3.01438C111.154 3.01312 111.327 2.9994 111.541 3.00193ZM110.229 2.69823C110.025 2.70051 109.822 2.70279 109.618 2.70507C109.685 2.73078 109.752 2.7565 109.819 2.78221C109.719 2.78921 109.619 2.79621 109.519 2.80321C109.348 2.75886 109.177 2.71451 109.006 2.67016C109.448 2.66308 109.89 2.656 110.333 2.64892C110.298 2.66535 110.263 2.68179 110.229 2.69823ZM104.819 2.63476C105.21 2.66702 105.69 2.63268 106.326 2.63817C106.326 2.63826 106.326 2.63834 106.327 2.63842C106.358 2.63879 106.415 2.67412 106.517 2.67553C106.604 2.67665 108.321 2.63786 108.187 2.69774C107.523 2.75142 107.274 2.66981 107.115 2.80296C107.083 2.77489 107.05 2.74681 107.018 2.71874C106.379 2.67013 106.197 2.76732 105.838 2.80296C105.839 2.78181 105.841 2.76065 105.842 2.73949C105.602 2.73737 105.363 2.73526 105.123 2.73314C105.157 2.74706 105.191 2.76097 105.225 2.77489C105.14 2.77489 105.055 2.77489 104.97 2.77489C104.764 2.71219 104.502 2.69758 104.819 2.63476ZM111.152 2.73314C111.34 2.57266 113.173 2.68258 114.01 2.64892C113.57 2.74555 112.889 2.67895 112.41 2.67797C111.483 2.67615 112.124 2.73529 111.967 2.76122C111.889 2.77404 111.363 2.67114 111.152 2.73314ZM103.389 2.66283C103.851 2.6758 104.109 2.63885 104.509 2.69774C104.476 2.70946 104.442 2.72118 104.409 2.7329C104.272 2.72217 103.156 2.68832 103.389 2.66283ZM115.237 2.69091C114.345 2.63328 114.785 2.77859 114.321 2.66967C114.626 2.66275 114.932 2.65583 115.237 2.64892C115.237 2.66291 115.237 2.67691 115.237 2.69091ZM52.9234 2.55078C52.5473 2.54711 52.1272 2.51782 51.9024 2.57837C52.1579 2.58773 52.4135 2.59708 52.669 2.60644C52.7538 2.58789 52.8386 2.56933 52.9234 2.55078ZM63.6485 1.95924C63.5626 1.94473 63.2231 1.98756 63.1873 1.98756C63.1208 1.98756 63.1389 1.96646 63.138 1.96095C62.7029 1.96478 63.1043 2.03022 62.7823 2.04445C62.7273 2.04679 61.9709 2.01445 61.6633 2.0171C61.19 2.02119 60.7173 2.01695 60.5405 2.01808C60.2419 2.01992 59.6878 2.06901 59.1971 2.07155C58.9949 2.07251 58.9243 2.03321 58.7209 2.03419C57.4154 2.04082 54.8455 2.09478 53.6872 2.06984C53.4011 2.06364 53.1282 2.01218 52.9768 2.01637C52.8575 2.03517 52.7382 2.05397 52.6188 2.07277C52.2518 1.90355 52.1291 2.05406 51.7334 2.06984C51.4821 2.07981 51.3646 2.02967 51.3309 2.0298C51.107 2.03079 50.9966 2.05465 50.8208 2.05861C50.6235 2.06298 50.34 2.04036 50.2695 2.04445C50.2262 2.04719 50.3645 2.11383 49.599 2.11256C48.8189 2.11125 48.0487 2.1042 47.2553 2.10109C47.52 2.30228 47.7478 2.16458 48.0717 2.15724C48.1586 2.15526 48.1035 2.18721 48.1792 2.1858C48.3929 2.18199 48.8019 2.15061 48.9787 2.15821C49.1697 2.16642 49.1044 2.24046 49.3466 2.21314C49.3588 2.21174 49.3201 2.18116 49.3771 2.17604C49.9496 2.12545 50.1369 2.17864 50.8607 2.18019C51.3403 2.18131 54.2526 2.15096 54.3526 2.17091C54.8739 2.278 51.8051 2.27873 51.4463 2.27027C51.3207 2.2673 51.4524 2.23354 51.3379 2.22706C51.2894 2.22447 50.8531 2.28884 50.422 2.2942C49.9007 2.30067 48.8529 2.25676 48.3561 2.25831C44.0851 2.27169 39.8732 2.23279 35.6063 2.23194C35.5153 2.23194 35.3955 2.27051 35.0991 2.27052C29.5665 2.26981 23.8323 2.2394 18.2292 2.25758C17.0076 2.26153 15.7961 2.2978 14.5633 2.26905C14.4103 2.29721 14.2573 2.32537 14.1044 2.35352C14.4956 2.33114 15.2126 2.39482 15.2779 2.39576C15.3014 2.39604 15.4497 2.36429 15.6889 2.36597C16.0252 2.36823 16.1727 2.39576 16.2003 2.39576C16.2859 2.39585 16.2298 2.36657 16.3115 2.36671C16.9208 2.36797 17.3922 2.35966 17.9514 2.35938C18.5831 2.35911 18.9033 2.41365 19.3633 2.35377C19.4154 2.37712 19.4674 2.40048 19.5195 2.42383C19.8632 2.32283 21.9097 2.33401 22.7387 2.33936C23.0003 2.34107 22.9544 2.38209 23.0423 2.38209C23.0984 2.38204 23.0763 2.32833 23.7607 2.33887C24.1052 2.34423 24.1955 2.38335 24.3683 2.38209C24.4622 2.38134 24.4469 2.34254 24.5818 2.34254C25.3617 2.34254 25.9986 2.35512 26.7622 2.36231C26.9769 2.36428 26.9793 2.39667 27.0273 2.39625C27.2042 2.3948 27.5119 2.33995 27.9615 2.34009C28.7016 2.34038 30.1767 2.34056 30.7819 2.36719C30.8708 2.37114 30.9445 2.40999 31.0099 2.40943C31.109 2.40844 31.1479 2.3679 31.1652 2.36768C31.4965 2.36698 31.2972 2.40467 31.519 2.39551C31.6386 2.39058 31.7633 2.34434 32.0413 2.33912C32.4083 2.33221 32.336 2.38709 32.4894 2.3816C32.5056 2.38074 32.5104 2.34258 32.6611 2.34132C33.2325 2.33681 34.0615 2.32799 34.6022 2.32813C34.7575 2.32813 34.8731 2.35382 35.0897 2.35425C35.5262 2.3551 38.0074 2.33873 38.2109 2.35352C38.2323 2.35507 38.0117 2.41136 38.3634 2.40967C38.4655 2.38624 38.5676 2.3628 38.6698 2.33936C38.8405 2.37688 39.0113 2.41439 39.1821 2.45191C39.176 2.32229 40.1808 2.30227 40.1708 2.43482C40.2807 2.44019 40.3907 2.44556 40.5006 2.45093C40.7296 2.35935 40.882 2.39316 41.3245 2.33936C41.3935 2.36744 41.4625 2.39551 41.5315 2.42359C41.5488 2.40487 41.5662 2.38615 41.5835 2.36744C41.8197 2.46887 42.207 2.36702 42.254 2.36646C42.4349 2.36421 42.5708 2.38999 42.6557 2.38916C42.9726 2.38649 43.6585 2.35096 44.0286 2.36744C44.046 2.36828 44.0289 2.41164 44.1342 2.417C44.3241 2.42667 44.3426 2.36319 44.5959 2.43775C44.647 2.41903 44.6981 2.40031 44.7493 2.3816C44.8036 2.39128 44.8578 2.40096 44.9121 2.41065C45.2324 2.40568 45.5527 2.40072 45.873 2.39576C45.5817 2.46917 45.917 2.51017 46.2339 2.45239C46.3411 2.4328 46.246 2.38812 46.2817 2.38135C46.3308 2.37219 47.7683 2.39495 47.8634 2.42383C47.9314 2.40975 47.9995 2.39567 48.0675 2.3816C48.1019 2.40975 48.1363 2.43791 48.1707 2.46607C48.2083 2.45622 48.2458 2.44637 48.2834 2.43653C48.6575 2.48612 49.6285 2.37237 49.8045 2.38135C49.8986 2.38614 49.814 2.50616 50.2648 2.4939C50.2805 2.46094 50.2961 2.42798 50.3117 2.39502C50.415 2.3903 50.5182 2.38558 50.6214 2.38086C50.8151 2.3838 51.0971 2.44092 51.1061 2.47998C51.1666 2.45654 51.2272 2.43311 51.2877 2.40967C51.4502 2.48603 52.3171 2.45897 52.6658 2.41065C52.7677 2.43368 52.8697 2.45671 52.9717 2.47974C53.1087 2.45174 53.2457 2.42375 53.3827 2.39576C53.7001 2.38733 53.3648 2.43386 53.4324 2.43775C53.5756 2.44578 54.3049 2.36716 54.2568 2.46509C54.3563 2.46533 54.4558 2.46558 54.5553 2.46582C54.6064 2.43783 54.6575 2.40983 54.7087 2.38184C54.8794 2.47836 55.1749 2.44428 55.7808 2.47949C55.8317 2.45728 55.8825 2.43506 55.9333 2.41284C56.1207 2.44442 56.3081 2.47599 56.4954 2.50757C56.5339 2.47079 56.5724 2.434 56.6109 2.39722C56.6923 2.39193 56.7738 2.38664 56.8553 2.38135C57.0209 2.46375 57.3181 2.37471 57.4695 2.40869C57.6903 2.45829 57.5196 2.51739 57.1096 2.52881C57.1403 2.58882 58.3614 2.56126 58.643 2.55688C58.6244 2.54516 58.6058 2.53345 58.5872 2.52173C58.2992 2.531 58.0113 2.54028 57.7233 2.54956C57.4821 2.39865 58.264 2.43912 58.6228 2.41968C58.6556 2.41782 58.8416 2.36064 59.2032 2.36597C59.3433 2.36808 59.8896 2.45165 59.9938 2.4563C60.8359 2.49446 60.2167 2.37505 61.0406 2.47974C60.8689 2.39956 61.3423 2.46618 61.835 2.45068C61.9189 2.44804 62.6301 2.38304 62.6782 2.38135C62.9777 2.37092 62.6516 2.44179 63.085 2.42334C63.1371 2.40471 63.1891 2.38607 63.2412 2.36743C63.3421 2.36743 63.443 2.36743 63.5439 2.36743C64.156 2.53351 64.2984 2.41121 64.5161 2.39551C64.604 2.38917 64.4908 2.4325 64.7188 2.42334C64.8046 2.41993 64.8998 2.38389 65.1307 2.38135C65.8534 2.37347 66.0987 2.52779 66.7631 2.36719C66.8651 2.39046 66.967 2.41374 67.069 2.43701C67.1378 2.4091 67.2066 2.38119 67.2755 2.35327C67.8018 2.43427 67.6118 2.35131 67.8019 2.3523C68.3039 2.35484 69.3312 2.37071 69.4212 2.4375C69.8545 2.28409 70.3727 2.45716 70.5435 2.45117C70.645 2.43254 70.7465 2.4139 70.848 2.39527C70.9674 2.41398 71.0867 2.4327 71.206 2.45142C71.148 2.30076 71.7661 2.44891 71.8254 2.45117C71.8939 2.45343 72.8444 2.40884 73.1983 2.40967C73.5517 2.41051 74.1674 2.45134 74.2216 2.45142C74.284 2.45142 74.8855 2.41047 75.3557 2.41089C75.7672 2.41133 78.2049 2.4695 78.0513 2.40234C77.8918 2.38375 77.6648 2.36762 77.4686 2.35889C76.8592 2.33212 73.2831 2.29782 72.3692 2.28711C70.5363 2.26584 68.6248 2.26979 66.7838 2.25513C66.6754 2.25429 66.659 2.21524 66.566 2.21436C66.4249 2.21324 66.067 2.25232 65.9279 2.25147C65.4086 2.24809 64.7767 2.24172 64.4987 2.24073C63.8773 2.23875 63.451 2.21524 62.9808 2.21143C62.8336 2.21031 62.0894 2.25871 61.5793 2.23829C61.4869 2.2273 61.3944 2.21632 61.302 2.20533C61.5647 2.19251 62.254 2.15933 62.574 2.15553C63.0502 2.15004 63.2986 2.18171 63.4744 2.18116C63.6216 2.18074 64.3739 2.14467 64.7164 2.14381C64.8227 2.14353 64.8446 2.18448 64.9355 2.18433C65.4293 2.18335 66.0796 2.18225 66.5079 2.1421C66.333 2.1552 67.4247 2.18033 67.4819 2.18018C67.5801 2.18017 67.6865 2.14186 67.8869 2.14186C68.2721 2.14188 68.2233 2.22202 68.7047 2.14186C68.8239 2.16521 68.943 2.18857 69.0622 2.21192C69.0695 2.10515 70.5755 2.25038 71.0038 2.12062C71.0151 2.10596 69.0581 2.06438 68.8966 2.06227C67.9275 2.04945 66.4935 2.07563 65.553 2.0569C65.27 2.05126 64.3801 1.98635 64.3129 1.98756C64.2047 1.98939 64.3024 2.02652 64.2557 2.02785C63.2981 2.05545 63.7758 1.98083 63.6485 1.95924ZM105.838 2.56445C105.547 2.56005 105.256 2.55566 104.965 2.55126C104.986 2.52783 105.007 2.50439 105.028 2.48095C105.162 2.49007 105.295 2.49918 105.428 2.5083C105.531 2.4943 105.633 2.4803 105.736 2.4663C105.77 2.49902 105.804 2.53173 105.838 2.56445ZM106.555 2.4663C106.807 2.4545 106.819 2.50393 106.878 2.50634C107.051 2.51367 107.202 2.49368 107.37 2.49438C107.176 2.61178 106.762 2.55798 106.555 2.4663ZM101.344 2.42407C101.401 2.42969 101.781 2.55608 102.213 2.43847C102.536 2.47583 102.859 2.51318 103.182 2.55053C102.633 2.49346 101.873 2.55279 101.605 2.55053C101.502 2.54967 101.483 2.51088 101.401 2.51025C100.931 2.50715 100.474 2.59505 100.426 2.46655C100.871 2.50389 101.272 2.41717 101.344 2.42407ZM104.182 2.46972C104.257 2.49658 104.332 2.52343 104.408 2.55029C104.136 2.55029 103.864 2.55029 103.592 2.55029C103.666 2.52311 103.739 2.49593 103.813 2.46875C103.936 2.46907 104.059 2.4694 104.182 2.46972ZM83.2698 2.38086C83.4375 2.38119 83.6052 2.38151 83.7728 2.38184C83.7636 2.36226 83.5718 2.36234 83.5012 2.34912C83.5015 2.34912 83.5018 2.34912 83.5021 2.34912C83.4234 2.33419 83.4571 2.30899 83.3139 2.29786C83.2992 2.32552 83.2845 2.35319 83.2698 2.38086ZM13.9012 2.26954C13.6202 2.26813 11.0249 2.26799 11.246 2.33936C11.3574 2.37501 12.245 2.34393 12.5067 2.34449C12.8595 2.34521 13.8123 2.4224 13.9012 2.26954ZM9.30486 2.25563C9.2599 2.32675 10.8819 2.33807 11.0405 2.32569C11.0068 2.31555 10.9549 2.29297 10.91 2.28785C10.6913 2.26334 9.65452 2.27507 9.30486 2.25563ZM73.8805 2.17555C74.0112 2.21151 74.1421 2.24748 74.2728 2.28345C74.2383 2.23666 74.204 2.18987 74.1695 2.14308C74.0732 2.1539 73.9769 2.16472 73.8805 2.17555ZM61.1969 2.22706C59.0187 2.22478 56.8405 2.2225 54.6622 2.22022C54.8538 2.20077 55.0454 2.18132 55.237 2.16188C57.1139 2.16878 59.1155 2.18847 60.928 2.15846C61.0177 2.18132 61.1073 2.20419 61.1969 2.22706ZM100.73 2.21338C100.172 2.21268 99.7062 2.24705 99.099 2.19239C99.6776 2.13941 99.9641 2.22138 100.526 2.14332C100.527 2.14332 100.527 2.14332 100.527 2.14332C100.595 2.16667 100.663 2.19003 100.73 2.21338ZM88.2702 2.19922C88.4399 2.16651 88.6096 2.1338 88.7793 2.10108C88.5752 2.10108 88.3711 2.10108 88.167 2.10108C88.2014 2.1338 88.2357 2.16651 88.2702 2.19922ZM42.1968 2.04518C41.613 2.11658 40.1197 1.98735 39.6452 2.07326C39.6146 2.07889 39.8966 2.11514 39.4407 2.18531C39.7851 2.17095 40.0283 2.15628 40.0539 2.10109C40.1562 2.1198 40.2585 2.13852 40.3608 2.15724C40.5305 2.14308 40.7002 2.12892 40.8699 2.11476C40.8515 2.16971 40.8649 2.16678 41.1256 2.12916C41.2445 2.14308 41.3633 2.15699 41.4822 2.17091C41.5325 2.14764 41.5829 2.12436 41.6333 2.10109C41.7362 2.13364 41.8391 2.16619 41.942 2.19874C42.3432 2.16343 42.0988 2.10036 42.1968 2.04518ZM44.2402 2.05861C44.1453 2.04651 41.4388 2.08598 42.6688 2.19557C42.9885 2.19207 43.3082 2.18857 43.6279 2.18507C43.3631 2.00358 44.2343 2.16588 44.3059 2.16969C44.6483 2.18742 45.0846 2.14426 45.333 2.1465C45.5466 2.14847 45.6735 2.18103 45.8238 2.18019C46.3356 2.17737 47.1441 2.17618 47.2553 2.10109C46.8575 2.09953 46.4533 2.09872 46.0396 2.1006C45.6021 2.10257 45.2174 2.03169 44.3955 2.12892C44.1923 2.11847 44.2647 2.06171 44.2402 2.05861ZM89.2902 2.10865C89.2698 2.18408 90.3027 2.16604 90.3094 2.13624C90.3114 2.11877 89.975 2.11918 89.927 2.11256C89.9266 2.11256 89.9263 2.11256 89.926 2.11256C89.906 2.10966 90.0076 2.08079 89.8495 2.07276C89.6631 2.08473 89.4767 2.09669 89.2902 2.10865ZM17.9378 2.10085C17.7982 2.05852 14.6084 2.07374 14.5145 2.09401C14.489 2.09964 14.5245 2.1182 14.5145 2.12892C15.2586 2.0692 16.3165 2.13988 17.0229 2.14455C17.2198 2.1458 17.1609 2.11582 17.1721 2.11525C17.1725 2.11525 17.173 2.11525 17.1735 2.11525C17.2852 2.11518 17.7896 2.18844 17.9378 2.10085ZM38.6238 2.10768C38.7594 2.11948 38.895 2.13128 39.0306 2.14308C39.065 2.11972 39.0994 2.09637 39.1338 2.07301C39.1335 2.07301 39.1332 2.07301 39.1329 2.07301C38.9632 2.08457 38.7935 2.09612 38.6238 2.10768ZM33.9256 2.03078C33.9586 2.04722 33.9916 2.06365 34.0246 2.08009C34.366 2.08237 34.7075 2.08465 35.0489 2.08693C35.0145 2.09621 34.9801 2.10548 34.9457 2.11476C35.4619 2.13956 35.6757 2.08179 35.9507 2.0901C35.9504 2.0901 35.9501 2.0901 35.9498 2.0901C35.9794 2.09107 36.0152 2.12532 36.1252 2.12648C36.3776 2.12915 37.1011 2.1419 37.1885 2.10744C37.3735 2.0339 35.9176 2.06881 35.6462 2.06544C35.5235 2.06389 35.3759 2.03392 35.3013 2.03322C35.2196 2.03256 35.1082 2.07304 34.9091 2.07179C34.8508 2.07137 34.2048 2.02375 33.9256 2.03078ZM27.8991 2.07985C28.0044 2.11691 28.2242 2.08111 28.305 2.08717C28.3243 2.0886 28.1742 2.11962 28.3561 2.12892C28.4076 2.10776 28.459 2.0866 28.5105 2.06545C28.3067 2.07025 28.1029 2.07505 27.8991 2.07985ZM91.0258 2.07301C90.9961 2.06506 90.4416 2.06797 90.4149 2.07301C90.0827 2.14064 91.2313 2.13332 91.0258 2.07301ZM105.021 1.99562C104.766 1.89731 107.792 1.99395 108.086 1.98878C108.071 2.05056 107.351 1.98845 107.728 2.07325C107.368 2.02661 106.374 2.05138 106.139 2.03785C105.997 2.02967 105.962 1.97631 105.94 1.97462C105.856 1.96861 105.111 2.03027 105.021 1.99562ZM110.587 2.03077C110.299 2.01905 110.011 2.00733 109.724 1.99562C110.063 1.98862 110.403 1.98162 110.742 1.97462C110.69 1.99334 110.638 2.01205 110.587 2.03077ZM110.948 2.0027C110.939 1.94281 111.916 1.98843 112.172 1.97462C111.883 2.07649 111.4 1.98045 110.948 2.0027ZM94.7044 1.91847C94.2546 1.87888 94.0613 2.06142 94.6082 1.98195C94.6249 1.97932 94.7232 1.92057 94.7044 1.91847ZM42.0579 1.78835C41.9812 1.78723 41.0274 1.72804 40.9722 1.75735C40.7976 1.85085 41.4235 1.81335 41.6333 1.84865C41.9717 1.90586 41.474 1.953 42.3 1.91848C42.2662 1.93719 42.2325 1.95591 42.1987 1.97463C42.6821 1.98082 42.5239 1.85117 42.6106 1.83449C42.6372 1.82943 42.9394 1.84033 42.994 1.83205C43.6752 1.7276 42.129 1.78922 42.0579 1.78835ZM83.5697 1.90456C82.6742 1.84961 83.0594 1.93024 82.1404 1.92531C82.1098 1.96645 83.4531 1.94063 83.5697 1.90456ZM50.7777 1.86232C49.8515 1.87852 49.0899 1.82471 48.2261 1.89699C48.2823 2.00831 51.0179 1.89107 50.7777 1.86232ZM7.2624 1.74954C10.8659 1.94778 15.0223 1.88252 18.8589 1.87942C19.277 1.87913 19.3171 1.92327 19.4684 1.91848C19.5675 1.91538 19.5502 1.87983 19.6819 1.87966C24.4426 1.87388 29.0011 1.82738 33.5615 1.84865C33.8487 1.85006 35.2463 1.9264 35.5448 1.8113C35.7707 1.72398 34.7667 1.79206 34.5994 1.79128C34.4736 1.79072 34.4683 1.74968 34.3845 1.74954C34.2955 1.7494 34.369 1.77743 34.2658 1.77786C33.8283 1.77983 33.3509 1.76887 32.9553 1.77126C29.0757 1.79423 25.3014 1.78766 21.4423 1.78372C20.9752 1.78329 21.0712 1.75041 21.0477 1.75027C21.0474 1.75035 21.0471 1.75043 21.0468 1.75051C18.5422 1.74741 15.6818 1.82117 13.029 1.79299C11.1609 1.77037 9.29282 1.74775 7.42474 1.72513C7.37063 1.73326 7.31651 1.7414 7.2624 1.74954ZM44.0356 1.90432C43.8025 1.78032 43.7504 1.90534 42.9142 1.85476C42.8462 1.87592 42.7781 1.89707 42.7101 1.91823C43.1524 1.91359 43.5947 1.90895 44.037 1.90432C44.0366 1.90432 44.0361 1.90432 44.0356 1.90432ZM38.5126 1.85915C38.3713 1.69169 36.5013 1.81004 35.6593 1.7781C35.505 1.8622 36.729 1.82442 37.0177 1.83327C37.1618 1.83764 37.9338 1.92414 38.5205 1.87624C38.5179 1.87054 38.5152 1.86485 38.5126 1.85915ZM101.854 1.74953C101.718 1.75441 101.582 1.7593 101.446 1.76418C101.786 1.78273 102.127 1.80129 102.467 1.81984C101.924 1.80788 101.381 1.79592 100.838 1.78395C100.939 1.74921 101.04 1.71446 101.141 1.67971C101.379 1.70298 101.617 1.72626 101.854 1.74953ZM100.092 1.76735C101.043 1.75427 100.05 1.84729 99.8127 1.80593C99.6706 1.78113 99.9948 1.76876 100.092 1.76735ZM97.6177 1.70754C98.0614 1.64653 98.9579 1.64233 98.6392 1.76418C98.1597 1.70711 97.8507 1.75453 97.1556 1.7217C97.2571 1.69834 97.3586 1.67499 97.4601 1.65163C97.4605 1.65163 97.461 1.65163 97.4615 1.65163C97.5136 1.67027 97.5657 1.6889 97.6177 1.70754ZM100.526 1.69362C101.149 1.76362 99.3457 1.73969 99.9126 1.69362C99.9392 1.69151 100.502 1.69095 100.526 1.69362ZM11.246 1.62357C11.1709 1.66338 11.6501 1.66264 11.8095 1.66531C12.5005 1.67714 13.3867 1.65982 14.1053 1.66531C14.0512 1.65221 13.9971 1.63911 13.943 1.62601C13.044 1.62519 12.145 1.62438 11.246 1.62357ZM16.3533 1.66556C16.8471 1.66556 17.3408 1.66556 17.8346 1.66556C17.8806 1.66556 18.0964 1.63139 17.9359 1.62308C17.4084 1.63724 16.8809 1.6514 16.3533 1.66556ZM47.1526 1.66555C46.774 1.64326 47.8641 1.52897 47.8151 1.65139C47.5942 1.65611 47.3734 1.66083 47.1526 1.66555ZM50.6754 1.61673C50.438 1.62836 50.2005 1.64 49.9631 1.65164C49.9628 1.63756 49.9625 1.62348 49.9622 1.6094C50.1999 1.61184 50.4376 1.61429 50.6754 1.61673ZM9.30486 1.59549C9.55634 1.64367 10.1563 1.63625 10.5304 1.63724C10.2727 1.59584 9.65851 1.6162 9.30486 1.59549ZM41.4803 1.61624C41.511 1.64907 40.0051 1.64081 40.5264 1.58304C40.8444 1.5941 41.1623 1.60517 41.4803 1.61624ZM38.4215 1.56766C38.7445 1.56047 38.9947 1.57175 38.9283 1.62332C38.757 1.62112 38.5858 1.61892 38.4145 1.61673C38.4169 1.60037 38.4192 1.58401 38.4215 1.56766ZM95.9291 1.6094C95.3848 1.61404 94.8405 1.61868 94.2962 1.62331C94.3164 1.60924 94.3366 1.59516 94.3567 1.58108C94.8815 1.57652 95.4062 1.57196 95.9309 1.56741C95.9303 1.5814 95.9297 1.5954 95.9291 1.6094ZM8.99706 1.46903C8.62326 1.47823 8.24945 1.48742 7.87565 1.49662C8.24977 1.50606 8.62388 1.5155 8.998 1.52494C8.998 1.50622 8.998 1.4875 8.998 1.46879C8.99768 1.46887 8.99737 1.46895 8.99706 1.46903ZM103.385 1.42703C101.723 1.36138 103.844 1.29197 104.283 1.38846C104.283 1.38838 104.284 1.38829 104.284 1.38821C104.323 1.39674 104.241 1.43798 104.305 1.45462C104.136 1.43598 103.967 1.41735 103.798 1.39871C103.643 1.4219 103.489 1.4451 103.335 1.46829C103.284 1.45917 103.233 1.45006 103.182 1.44095C103.25 1.43631 103.318 1.43167 103.385 1.42703ZM110.096 1.39041C111.604 1.39802 110.061 1.50115 109.315 1.41971C109.32 1.40086 109.957 1.38971 110.096 1.39041ZM106.145 1.41263C105.907 1.42198 105.67 1.43134 105.432 1.4407C105.402 1.4289 105.371 1.4171 105.341 1.4053C105.523 1.39358 105.706 1.38187 105.888 1.37015C105.974 1.38431 106.059 1.39847 106.145 1.41263ZM98.3314 1.2305C97.9491 1.21754 97.4614 1.34875 98.6889 1.31424C98.6883 1.30016 98.6877 1.28608 98.6871 1.27201C98.6381 1.27425 98.4946 1.28746 98.4867 1.28641C98.4642 1.28289 98.4907 1.23588 98.3314 1.2305ZM112.888 1.01957C112.931 1.01421 112.954 0.865713 113.4 1.01933C113.535 1.00997 113.67 1.00061 113.805 0.991252C113.84 1.02397 113.875 1.05668 113.91 1.08939C113.388 1.06403 113.332 1.13022 113.294 1.13163C113.121 1.13782 113.249 1.10378 113.137 1.10331C112.848 1.10218 112.191 1.12504 112.489 1.02787C112.596 0.993069 112.845 1.02493 112.888 1.01957ZM111.866 0.935102C111.93 0.947497 111.725 0.990938 111.773 1.00321C111.815 1.01392 112.445 1.05824 112.274 1.13163C112.171 1.12854 112.068 1.12544 111.964 1.12235C111.929 1.10225 111.894 1.08215 111.859 1.06205C111.759 1.0806 111.659 1.09916 111.559 1.11771C111.39 1.06811 111.031 1.00386 111.457 0.963421C111.301 0.967653 111.144 0.971884 110.987 0.976116C110.906 0.999878 110.825 1.02364 110.744 1.0474C110.786 1.01119 110.829 0.974977 110.871 0.938764C111.203 0.937543 111.535 0.936322 111.866 0.935102ZM116.724 0.949017C116.705 0.967734 116.686 0.98645 116.667 1.00517C117.243 0.970371 118.139 0.957141 117.63 1.0745C116.85 1.08427 116.071 1.09403 115.291 1.1038C115.239 1.08972 115.187 1.07564 115.136 1.06156C115.717 1.1158 115.538 0.884989 116.044 0.951214C116.129 0.96244 115.881 1.04316 116.417 0.991496C116.398 0.972698 116.379 0.953899 116.36 0.935101C116.482 0.93974 116.603 0.944378 116.724 0.949017ZM121.672 0.977092C120.687 0.950038 121.772 0.881734 121.954 0.938518C121.954 0.938518 121.953 0.938518 121.953 0.938518C122.452 1.09391 121.38 1.01883 121.314 1.01981C121.227 1.02119 121.025 1.13243 120.552 0.970256C120.925 0.972534 121.299 0.974813 121.672 0.977092ZM118.455 0.949261C118.538 0.945597 118.492 0.973848 118.528 0.97343C118.528 0.97343 118.528 0.97343 118.528 0.97343C119.056 0.967371 120.311 0.942077 120.447 1.03324C120.056 1.04085 118.309 1.06055 118.203 0.998575C118.287 0.982137 118.371 0.965699 118.455 0.949261ZM114.743 1.01713C114.419 0.958106 115.148 0.950247 115.339 0.97758C115.375 0.983502 115.078 1.07827 114.743 1.01713ZM89.9016 0.864793C89.1891 0.900301 90.1253 0.935738 89.8012 0.991254C89.9373 0.986534 90.0734 0.981814 90.2094 0.977094C90.1068 0.939661 90.0042 0.902227 89.9016 0.864793ZM57.4165 0.752739C57.2504 0.746178 57.3291 0.78007 57.3147 0.78057C57.2056 0.779625 57.1027 0.752016 57.0608 0.754936C56.2867 0.810671 56.8015 0.839135 56.8093 0.845754C56.8257 0.879282 56.6222 0.918515 56.9041 0.956834C57.0752 0.944953 57.2463 0.933072 57.4174 0.921191C57.5023 0.939826 57.5873 0.958462 57.6722 0.977097C58.0121 0.937115 57.5673 0.926148 57.5169 0.873096C57.4975 0.852243 57.8172 0.827277 57.4165 0.752739ZM88.6249 0.752492C88.5094 0.81139 88.2262 0.885689 88.5043 0.944869C88.5046 0.944869 88.505 0.944869 88.5052 0.944869C88.5567 0.955695 88.7661 0.96165 88.8304 0.97685C89.2891 0.898384 89.1134 0.817295 88.6249 0.752492ZM60.4856 0.647273C60.7615 0.661026 61.0374 0.674779 61.3133 0.688531C61.3086 0.723849 61.3039 0.759167 61.2992 0.794485C61.1515 0.784964 61.0039 0.775443 60.8562 0.765922C60.8045 0.782034 60.7527 0.798147 60.7009 0.81426C60.8842 0.854542 61.0675 0.894824 61.2509 0.935106C61.4717 0.921028 61.6925 0.906949 61.9134 0.892871C61.8119 0.874235 61.7104 0.8556 61.6089 0.836964C62.1486 0.816392 62.0311 0.902275 62.4778 0.935106C62.6308 0.902392 62.7838 0.869678 62.9367 0.836964C63.1582 0.869841 63.3796 0.902717 63.6011 0.935594C63.9732 0.920235 64.0059 0.895196 63.7555 0.857716C63.9405 0.814884 64.1431 0.882251 64.3659 0.864795C64.3843 0.863387 64.3497 0.823047 64.3659 0.82256C65.518 0.795366 65.4568 0.901301 65.6408 0.90581C65.7706 0.908905 66.289 0.837415 66.2972 0.813039C66.3072 0.780191 65.229 0.650659 66.9175 0.647272C66.0445 0.557676 65.0521 0.648879 65.6938 0.780325C65.4175 0.767097 64.1992 0.799894 64.1215 0.79595C64.0082 0.789997 64.0479 0.740126 63.9061 0.738823C63.8223 0.738118 63.6002 0.852114 62.9367 0.752494C62.8519 0.771211 62.7672 0.789928 62.6824 0.808645C62.603 0.793264 62.5235 0.777884 62.444 0.762504C62.6076 0.707655 62.7712 0.652807 62.9348 0.597958C62.2868 0.657554 61.7491 0.545597 61.3545 0.639949C61.0134 0.628967 60.8476 0.618112 60.9942 0.569883C60.8918 0.569883 60.7893 0.569883 60.6869 0.569883C60.6198 0.595679 60.5527 0.621476 60.4856 0.647273ZM86.5313 0.836718C86.1922 0.781958 86.0703 0.900097 86.1231 0.906784C86.4204 0.943547 86.7078 0.865207 86.5313 0.836718ZM58.0321 0.815481C58.4062 0.845916 58.7803 0.876351 59.1544 0.906787C59.1544 0.869434 59.1544 0.832082 59.1544 0.79473C58.7803 0.801647 58.4062 0.808564 58.0321 0.815481ZM90.0058 0.780811C90.0402 0.808805 90.0746 0.836799 90.109 0.864793C90.5188 0.762539 90.9257 0.909251 91.1281 0.878953C91.172 0.872333 91.0834 0.822904 90.9996 0.812304C90.9474 0.805682 90.0784 0.771371 90.0058 0.780811ZM107.065 0.794237C106.912 0.813035 106.759 0.831834 106.607 0.850632C106.615 0.819139 106.624 0.787646 106.632 0.756152C106.708 0.750293 106.783 0.744434 106.858 0.738575C106.927 0.757129 106.996 0.775683 107.065 0.794237ZM105.328 0.844285C105.055 0.841762 104.783 0.839239 104.511 0.836716C105.549 0.807832 104.697 0.793735 105.328 0.752735C105.328 0.783251 105.328 0.813768 105.328 0.844285ZM102.572 0.780566C102.605 0.761768 102.639 0.742969 102.672 0.724171C102.944 0.724171 103.217 0.724171 103.489 0.724171C103.317 0.658906 103.145 0.593641 102.972 0.528376C102.873 0.528214 102.773 0.528051 102.673 0.527888C102.639 0.612114 102.605 0.69634 102.572 0.780566ZM50.0612 0.612363C49.8966 0.611236 49.3239 0.66827 49.3485 0.689265C49.5863 0.715062 49.8242 0.740858 50.0621 0.766655C50.0632 0.729221 50.0643 0.691788 50.0654 0.654354C50.099 0.672989 50.1327 0.691625 50.1663 0.71026C50.3016 0.696263 50.4369 0.682266 50.5722 0.668269C50.6403 0.700983 50.7085 0.733697 50.7767 0.766411C50.8452 0.729058 50.9137 0.691706 50.9822 0.654354C50.329 0.588131 50.3515 0.654321 50.2156 0.653621C50.1466 0.653305 50.103 0.630127 50.0785 0.618466C50.0728 0.616432 50.067 0.614397 50.0612 0.612363ZM58.2906 0.577207C57.5106 0.567908 57.0649 0.66646 56.5006 0.584043C56.8625 0.759603 59.1995 0.578264 60.0234 0.724663C60.109 0.696507 60.1945 0.66835 60.2801 0.640193C59.8314 0.665267 59.5205 0.607275 59.3018 0.598935C59.128 0.592312 59.1461 0.621818 59.1328 0.621395C59.1322 0.621395 59.1316 0.621395 59.131 0.621395C58.7241 0.609278 58.5983 0.580875 58.2906 0.577207ZM90.5853 0.64312C90.3757 0.598634 90.0089 0.603083 90.0048 0.668022C90.209 0.68682 90.413 0.705618 90.6172 0.724416C90.5752 0.70779 90.621 0.650729 90.5853 0.64312ZM102.255 0.599175C102.091 0.578039 101.705 0.59656 101.872 0.65264C101.902 0.662594 102.286 0.623174 102.061 0.724415C102.436 0.72285 102.348 0.611323 102.255 0.599175ZM71.6189 0.710258C71.7566 0.708387 71.8942 0.706515 72.0318 0.704643C72.0639 0.67844 72.096 0.652236 72.128 0.626032C71.9583 0.654108 71.7886 0.682183 71.6189 0.710258ZM92.3542 0.5982C92.5371 0.726439 92.8497 0.601642 93.1931 0.707083C93.32 0.707897 93.4468 0.70871 93.5736 0.709524C93.5739 0.709524 93.5743 0.709524 93.5746 0.709524C93.578 0.674532 93.5814 0.639539 93.5849 0.604547C93.1746 0.602431 92.7644 0.600315 92.3542 0.5982ZM63.0371 0.647029C63.1219 0.663304 63.2067 0.67958 63.2914 0.695855C63.4424 0.676894 63.5933 0.657933 63.7442 0.638972C63.6626 0.625382 63.5809 0.611792 63.4993 0.598202C63.3452 0.614478 63.1912 0.630753 63.0371 0.647029ZM94.5838 0.587213C94.1402 0.57115 93.9733 0.682631 94.5407 0.682914C94.7799 0.682913 95.0487 0.603998 94.5838 0.587213ZM41.5854 0.653866C41.7374 0.663387 41.8895 0.672909 42.0415 0.68243C42.0933 0.658993 42.145 0.635556 42.1968 0.612119C41.993 0.626035 41.7892 0.639951 41.5854 0.653866ZM104.359 0.61187C104.341 0.635307 104.323 0.658743 104.305 0.68218C104.17 0.67746 104.034 0.67274 103.899 0.668021C103.933 0.644747 103.967 0.621472 104.001 0.598199C104.12 0.602756 104.24 0.607313 104.359 0.61187ZM42.6083 0.66827C42.7298 0.672746 42.8513 0.677222 42.9729 0.681697C43.0545 0.670304 43.1361 0.658912 43.2178 0.647519C43.1041 0.636207 42.9904 0.624896 42.8767 0.613584C42.7872 0.631813 42.6977 0.650041 42.6083 0.66827ZM98.7894 0.597955C98.6186 0.569775 97.9367 0.657575 98.551 0.679983C98.9424 0.69421 98.815 0.602242 98.7894 0.597955ZM99.7095 0.569879C99.0593 0.516195 99.5468 0.788668 100.323 0.612114C99.5416 0.636321 99.7477 0.573121 99.7095 0.569879ZM105.427 0.429258C105.443 0.429399 105.457 0.468577 105.587 0.470028C106.057 0.475101 106.678 0.490581 107.015 0.492977C107.823 0.498753 110.3 0.427929 110.589 0.541315C110.65 0.565128 110.511 0.636281 110.535 0.639945C110.607 0.650163 111.022 0.615639 110.945 0.66802C110.539 0.667613 110.132 0.667206 109.726 0.666799C109.825 0.629854 109.925 0.592908 110.025 0.555963C109.012 0.575686 109.347 0.573409 109.056 0.65386C108.885 0.622693 108.713 0.591525 108.542 0.560357C108.169 0.591688 107.795 0.623018 107.422 0.654349C107.507 0.630993 107.592 0.607638 107.676 0.584283C107.114 0.541027 107.27 0.569392 106.962 0.626029C106.962 0.602674 106.961 0.579319 106.961 0.555963C106.418 0.612889 106.312 0.542893 106.193 0.542048C105.95 0.540672 105.64 0.817008 104.712 0.542048C104.321 0.674289 104.33 0.40526 104.1 0.542048C103.438 0.393137 104.697 0.447031 105.293 0.451963C105.293 0.451963 105.294 0.451963 105.294 0.451963C105.339 0.452385 105.268 0.42731 105.427 0.429258ZM102.025 0.566217C102.426 0.444827 100.842 0.433465 101.366 0.608696C101.444 0.614393 101.522 0.620089 101.6 0.625786C101.742 0.60593 101.884 0.586073 102.026 0.566217C102.026 0.566217 102.025 0.566217 102.025 0.566217ZM87.1436 0.485655C85.6766 0.535535 86.5107 0.605365 87.0075 0.537167C87.1067 0.52364 87.161 0.505096 87.1436 0.485655ZM57.1763 0.483948C57.1548 0.498515 57.1334 0.513081 57.112 0.527648C57.6039 0.514015 58.5552 0.570204 58.5421 0.471986C58.0868 0.475973 57.6315 0.479961 57.1763 0.483948ZM61.0679 0.419741C60.9622 0.413816 60.5306 0.399833 60.5827 0.436586C60.7698 0.462627 60.9568 0.488668 61.1439 0.514709C61.231 0.498433 61.3181 0.482158 61.4052 0.465882C61.2836 0.460347 61.0965 0.42129 61.0679 0.419741Z" fill="#1AB9A2"/>
</svg>
