<svg width="552" height="8" viewBox="0 0 552 8" fill="none" xmlns="http://www.w3.org/2000/svg">
<path d="M12.4005 0.296053C23.9477 -0.403093 31.8297 0.339764 42.5417 0.45816C66.1228 0.71827 97.2195 0.484003 121.337 0.502599C139.592 0.516691 158.141 0.566586 176.286 0.606605C177.217 0.608576 177.772 0.685221 178.194 0.686192C182.167 0.69521 188.829 0.625768 192.77 0.635902C201.06 0.657038 215.484 0.645098 223.077 0.716957C226.301 0.747384 229.609 0.76007 230.862 0.942537C232.04 0.951829 232.683 0.786963 232.991 0.777991C232.994 0.778154 232.998 0.778317 233.001 0.778479C233.992 0.750649 236.494 0.866243 237.046 0.859044C237.129 0.857917 236.621 0.738503 237.96 0.774574C238.08 0.777673 237.969 0.858865 239.097 0.860021C239.391 0.860302 243.164 0.735798 244.242 0.728189C247.829 0.70341 256.398 0.801153 260.687 0.799477C261.343 0.799478 261.721 0.751985 262.414 0.751139C262.772 0.750648 263.308 0.802201 263.418 0.801919C263.901 0.800085 266.009 0.565961 265.252 1.02799C267.454 0.998692 266.805 0.845946 266.855 0.746745C269.244 0.73242 270.396 0.950017 271.02 0.719403C282.771 0.747235 294.521 0.775067 306.272 0.802899C306.275 0.765303 306.279 0.727706 306.282 0.69011C309.746 0.840278 310.934 0.586271 312.911 0.804365C314.13 0.756352 315.349 0.708339 316.569 0.660326C347.903 0.808269 379.164 0.632428 410.144 0.632992C411.452 0.632992 411.779 0.712992 413.935 0.713556C416.316 0.714117 419.664 0.621142 422.802 0.622251C425.554 0.623096 429.615 0.698779 432.684 0.710628C433.377 0.713164 433.878 0.662496 433.956 0.662778C434.414 0.664758 434.438 0.744973 434.882 0.747248C435.415 0.749784 436.057 0.690364 436.672 0.694027C438.97 0.707261 441.473 0.68678 441.764 0.688169C443.165 0.695763 443.474 0.774213 443.589 0.77508C445.148 0.784654 444.564 0.713846 444.952 0.717953C446.966 0.739653 448.39 0.91641 451.147 0.746761C451.072 0.812352 450.997 0.877942 450.922 0.943533C453.032 0.980438 451.638 0.806154 452.069 0.774593C452.245 0.762899 456.787 0.784184 457.138 0.787288C458.358 0.798557 458.39 0.88572 458.496 0.886894C458.753 0.889712 461.822 0.790787 463.396 0.866876C465.258 0.957044 463.066 1.13435 463.528 1.16765C463.606 1.17328 465.556 1.15511 465.817 1.21062C466.106 1.27033 464.421 1.26906 464.447 1.29411C464.465 1.3113 467.264 1.43439 466.727 1.51725C466.296 1.60034 462.499 1.4938 461.694 1.53287C461.562 1.53934 461.812 1.6419 461.694 1.64566C461.222 1.65946 452.474 1.66255 452.073 1.64566C452.529 1.59895 452.984 1.55224 453.44 1.50553C452.834 1.50081 452.229 1.49609 451.623 1.49137C452.484 1.45393 453.345 1.4165 454.206 1.37907C452.927 0.99445 449.072 1.38435 448.913 1.57633C448.844 1.6651 451.2 1.89349 449.007 2.02651C449.341 2.04929 449.674 2.07208 450.008 2.09486C450.695 2.05743 451.382 2.02 452.069 1.98256C451.612 1.95896 451.154 1.93536 450.696 1.91176C450.865 1.88507 451.033 1.85838 451.202 1.83169C452.486 1.78888 453.771 1.74608 455.055 1.70328C455.715 1.723 455.578 1.8018 456.032 1.81704C461.693 2.00895 458.001 1.76474 461.707 1.79995C462.236 1.84227 462.766 1.88459 463.295 1.9269C463.108 1.75189 464.75 1.86178 466.735 1.78628C466.498 1.84292 466.261 1.89956 466.024 1.9562C468.9 1.92604 474.732 2.2116 473.158 1.89907C473.817 1.92576 474.476 1.95246 475.135 1.97915C475.692 1.92804 476.248 1.87694 476.805 1.82583C477.574 1.83169 478.344 1.83755 479.113 1.84341C479.116 1.87108 479.12 1.89875 479.123 1.92641C478.51 1.92658 477.896 1.92674 477.283 1.9269C477.743 2.01121 478.204 2.09552 478.664 2.17983C479.117 2.16583 479.57 2.15183 480.023 2.13783C478.124 2.0581 480.627 1.92786 481.233 1.81656C482.834 1.77542 483.857 1.9199 484.394 1.92642C484.646 1.92952 487.619 1.67462 486.453 1.95474C487.983 1.92072 489.512 1.8867 491.042 1.85269C491.64 1.87417 492.238 1.89566 492.836 1.91714C491.538 2.04761 495.299 2.20482 492.528 2.25893C490.459 2.29951 489.949 2.17752 488.968 2.17836C488.082 2.17896 487.615 2.26112 486.651 2.26478C480.173 2.28789 474.897 2.27282 468.744 2.23646C467.529 2.22916 466.423 2.26944 465.607 2.26381C464.685 2.25731 465.84 2.15426 464.666 2.17934C463.432 2.20585 463.166 2.28995 462.84 2.29164C462.637 2.29259 461.995 2.21693 461.404 2.21693C458.975 2.21695 455.415 2.29011 455.07 2.28968C454.68 2.28884 447.81 2.22057 447.481 2.20814C447.306 2.20138 447.668 1.92199 446.154 2.21986C445.682 2.22539 445.209 2.23093 444.737 2.23646C444.814 2.18064 444.89 2.12481 444.967 2.06899C442.168 2.28062 443.131 2.16222 440.433 2.17885C433.973 2.21885 424.445 2.17181 417.38 2.19154C415.802 2.19606 415.201 2.2629 413.335 2.26771C411.601 2.27193 407.073 2.07248 408.058 2.34876C404.199 2.10953 403.579 2.52206 401.648 2.26478C401.414 2.30221 401.18 2.33964 400.947 2.37708C398.85 2.21645 398.203 2.35762 395.914 2.37708C394.928 2.38553 396.065 2.21469 394.074 2.40491C393.693 2.39075 393.313 2.37659 392.932 2.36243C393.021 2.32109 393.109 2.27975 393.198 2.23841C390.986 2.27223 390.844 2.25068 391.096 2.4054C390.029 2.37724 388.961 2.34908 387.893 2.32093C387.761 2.37171 387.628 2.42249 387.495 2.47327C388.007 2.57012 412.247 2.42406 415.624 2.37757C419.583 2.49251 427.536 2.34881 430.734 2.3761C432.014 2.38709 432.58 2.50194 434.442 2.51575C436.304 2.52955 438.648 2.42524 439.639 2.42151C442.942 2.40855 458.592 2.43147 447.948 2.57434C448.254 2.63033 448.56 2.68632 448.866 2.74231C453.096 2.55126 451.564 2.66887 455.074 2.6886C456.551 2.69701 460.065 2.57199 459.869 2.82629C457.125 2.87363 454.211 2.79235 451.825 2.79601C451.588 2.79641 448.764 2.91252 447.31 2.88097C445.999 2.85218 446.902 2.60976 444.049 2.88195C441.929 2.61606 440.704 2.85728 440.145 2.88293C439.177 2.92739 439.071 2.79616 438.104 2.78088C437.051 2.764 436.325 2.85111 436.182 2.85168C434.737 2.85365 427.213 2.86552 426.868 2.81261C427.171 2.78934 427.473 2.76607 427.776 2.74279C425.822 2.70534 426.23 2.83952 425.716 2.85558C425.334 2.85509 424.951 2.8546 424.569 2.85412C424.72 2.82629 424.872 2.79845 425.023 2.77062C422.716 2.77654 424.481 2.87325 421.206 2.87072C419.126 2.86901 416.977 2.76276 416.775 2.77062C416.716 2.77288 417.371 2.84451 416.523 2.85412C415.119 2.86989 412.692 2.86807 412.421 2.77062C411.733 2.78442 411.792 2.87977 411.701 2.88195C411.301 2.89125 404.434 2.92367 403.204 2.92931C399.795 2.94481 396 2.92447 392.307 2.94054C391.927 2.94214 392.169 2.88095 391.789 2.88292C391.178 2.88606 388.042 2.98209 387.573 2.98887C386.404 3.00549 383.328 2.9674 382.844 2.99522C382.775 2.99917 383.787 3.08188 382.604 3.10752C381.29 3.13589 381.997 3.02465 381.926 3.02354C379.251 2.9855 377.563 3.06279 375.737 3.07774C375.145 3.08253 374.054 2.99881 373.219 3.02354C373.123 3.02635 373.313 3.10372 373.219 3.10752C371.957 3.1481 370.777 3.00452 370.231 2.99522C368.895 2.97249 369.622 3.07845 369.553 3.0792C368.663 3.08258 367.465 3.04436 366.112 3.04942C360.079 3.07196 355.156 3.07843 348.742 3.07139C347.936 3.07054 346.98 2.9958 346.857 2.99571C346.476 2.99627 346.585 3.0841 345.484 3.08213C343.163 3.07762 341.011 3.08187 338.712 3.08018C338.25 3.07982 338.052 2.99844 337.699 2.99668C336.516 2.99161 332.48 3.2047 332.414 2.93955C330.065 3.17428 328.505 2.97197 326.615 2.97422C322.137 2.97929 315.126 3.02712 310.662 2.99668C309.722 2.99016 309.281 2.92222 308.759 2.91856C307.821 2.91182 302.461 2.94976 302.18 2.93906C301.63 2.91849 301.96 2.61931 299.129 2.87998C297.47 2.89856 297.666 2.77577 297.322 2.76915C294.648 2.71983 292.046 2.99387 292.532 2.74278C289.418 2.81096 287.399 2.94972 286.128 2.71495C286.145 2.82952 284.68 2.89825 282.915 2.85459C284.723 2.66213 284.499 2.53913 288.87 2.57433C288.939 2.57489 288.808 2.65775 288.876 2.65831C289.501 2.6639 290.803 2.62208 291.867 2.62657C292.931 2.63108 292.34 2.68772 292.766 2.68663C293.156 2.6855 293.143 2.60622 293.707 2.60509C295.537 2.60199 297.157 2.58013 298.198 2.57872C298.854 2.5779 299.589 2.64757 300.098 2.64757C302.066 2.647 306.237 2.5926 308.742 2.60021C309.264 2.60198 309.045 2.68015 310.186 2.68663C310.32 2.68739 310.806 2.60588 311.806 2.58898C312.806 2.57208 313.581 2.61255 314.223 2.60411C314.76 2.59707 314.535 2.52466 315.636 2.52013C316.553 2.51647 326.946 2.56864 327.51 2.58019C328.322 2.59685 328.708 2.69854 329.203 2.68614C329.29 2.68349 329.438 2.58527 329.74 2.57824C334.722 2.46216 345.75 2.59616 351.443 2.59533C363.344 2.59392 374.323 2.53613 386.329 2.5133C386.543 2.49621 386.757 2.47912 386.971 2.46204C385.757 2.46138 384.544 2.46073 383.33 2.46008C383.323 2.41386 383.315 2.36764 383.307 2.32141C381.666 2.31409 381.884 2.42341 381.93 2.48938C381.323 2.46138 380.716 2.43339 380.109 2.4054C379.585 2.56648 375.536 2.45934 373.448 2.45959C372.09 2.45959 370.475 2.521 369.759 2.51623C368.246 2.50638 368.286 2.40698 368.167 2.40539C367.965 2.40314 365.854 2.4908 364.33 2.48742C362.079 2.4826 361.835 2.32998 358.752 2.45959C354.802 2.38041 350.426 2.42026 346.169 2.43322C346.979 2.29215 343.164 2.42567 341.443 2.42346C330.947 2.40965 318.045 2.34937 307.411 2.29358C306.044 2.28653 305.012 2.20342 304.25 2.20618C303.837 2.20759 303.657 2.30556 303.084 2.2926C302.983 2.29011 302.913 2.19849 301.846 2.18469C299.189 2.15003 292.572 2.30293 290.898 2.12708C281.816 2.15426 272.734 2.18143 263.652 2.20861C263.424 2.17118 263.196 2.13375 262.968 2.09631C261.242 2.28761 254.422 2.1752 251.096 2.1842C245.242 2.20026 237.773 2.25974 232.643 2.26623C231.529 2.26764 230.616 2.21337 229.561 2.21447C229.107 2.21503 228.542 2.28539 228.07 2.28576C222.766 2.29111 215.585 2.21864 210.241 2.22033C198.106 2.22399 186.678 2.21332 174.383 2.21642C132.964 2.22741 91.7836 2.33087 50.7182 2.28916C50.1677 2.2886 50.1952 2.2077 49.7685 2.20713C47.2499 2.20319 41.6254 2.26987 38.7809 2.26621C36.5145 2.26339 32.9173 2.1397 32.1374 2.26426C40.189 2.45279 48.6955 2.4386 57.0775 2.4913C57.6733 2.49501 57.7474 2.57192 57.8208 2.57333C59.1778 2.60005 58.3208 2.49414 60.2887 2.48935C60.9464 2.48774 67.0211 2.73326 66.2984 2.48886C67.7532 2.58663 78.0085 2.6355 79.9876 2.60312C80.5886 2.59325 80.1631 2.52085 80.2824 2.51718C80.8004 2.50119 81.0344 2.60103 81.4974 2.60361C82.7315 2.60981 85.8705 2.52883 86.4669 2.52939C87.8391 2.53026 91.9532 2.61153 93.7653 2.59238C95.4261 2.5749 95.1152 2.47061 96.5511 2.46103C97.6829 2.45375 96.4501 2.54148 98.9769 2.56796C100.229 2.58093 104.61 2.51817 105.675 2.51816C106.74 2.51816 107.924 2.58057 109.392 2.57578C111.507 2.56901 116.107 2.53427 118.259 2.51426C118.387 2.51313 118.7 2.432 119.017 2.43369C119.673 2.43709 119.476 2.53729 119.971 2.54746C120.466 2.5576 129.046 2.54536 130.504 2.54648C131.508 2.54705 132.202 2.48736 132.757 2.48789C133.192 2.48845 133.239 2.57191 133.683 2.57285C133.821 2.57285 134.992 2.50036 136.162 2.50205C137.267 2.50375 141.464 2.57269 141.95 2.57334C142.267 2.57362 141.92 2.51431 142.856 2.51572C143.709 2.51717 144.269 2.59418 144.755 2.59531C145.883 2.59782 147.144 2.53215 148.341 2.53184C151.782 2.53099 151.605 2.62639 151.811 2.62949C152.384 2.63811 152.613 2.55073 152.801 2.54893C153.594 2.5416 155.539 2.52546 156.246 2.52207C157.127 2.51784 157.5 2.60089 158.436 2.60117C159.133 2.60112 160.542 2.52016 162.134 2.51621C165.721 2.50691 169.988 2.49163 173.511 2.49473C174.561 2.49558 174.723 2.57137 175.044 2.57334C176.731 2.58374 177.676 2.49899 178.158 2.5001C181.594 2.50771 187.724 2.64068 190.912 2.65195C192.211 2.65646 197.895 2.59507 201.102 2.60606C201.469 2.6072 201.125 2.66662 201.534 2.65733C202.51 2.63503 202.42 2.51402 202.915 2.51768C203.154 2.51982 203.699 2.58804 204.395 2.59483C208.006 2.63005 210.489 2.577 212.136 2.58067C227.954 2.6159 244.085 2.6476 258.857 2.65831C260.504 2.65943 262.547 2.58744 265.033 2.65733C265.11 2.69493 265.186 2.73252 265.263 2.77012C265.35 2.73317 265.437 2.69623 265.524 2.65928C268.341 2.63927 269.405 2.59172 272.281 2.63878C272.529 2.64272 273.285 2.81435 273.753 2.60118C276.602 2.75561 275.039 2.59993 277.154 2.58556C279.269 2.57119 281.324 2.61879 283.374 2.6295C284.498 2.70587 279.782 2.88201 279.474 2.88145C278.979 2.88077 278.465 2.77478 277.988 2.76915C276.575 2.75229 275.209 2.8364 274.892 2.7418C273.067 2.84182 275.34 2.79185 275.111 2.88193C273.893 2.84466 272.674 2.80739 271.456 2.77012C270.835 3.07653 264.102 2.67694 264.57 2.91025C264.035 2.86354 263.499 2.81683 262.964 2.77012C260.615 3.06282 259.234 2.85672 256.101 2.76963C256.327 2.80707 256.553 2.8445 256.779 2.88193C256.715 2.89756 253.95 2.95741 254.939 2.79795C252.104 3.00806 252.224 2.65857 249.683 2.91123C248.173 2.94364 249.081 2.79688 246.379 2.79941C244.778 2.80082 242.79 2.87755 241.001 2.88291C240.589 2.8839 240.41 2.79893 240.043 2.79893C239.676 2.79896 239.497 2.88227 239.053 2.88437C238.136 2.88888 236.946 2.8304 236.373 2.83603C235.859 2.84084 235.124 2.91432 233.886 2.92587C229.56 2.96672 230.867 2.86178 230.184 2.82627C229.45 2.78851 228.922 2.92677 227.459 2.91074C227.312 2.90905 227.692 2.82289 227.215 2.82627C226.83 2.82892 226.636 2.92257 225.362 2.94003C224.854 2.94708 216.975 2.96714 215.775 2.96884C213.935 2.97138 209.837 2.89211 207.933 2.89267C207.199 2.89268 206.415 2.96788 205.635 2.96737C203.053 2.96568 198.918 2.95932 195.642 2.95566C192.692 2.95225 187.514 2.78629 185.899 2.93612C181.757 2.95556 180.751 2.82752 180.439 2.82578C179.594 2.82098 179.203 2.90581 178.139 2.90976C164.353 2.95907 146.199 2.90299 133.142 2.90975C102.854 2.9261 72.4006 2.97245 42.0069 2.93806C41.9254 2.97566 41.844 3.01326 41.7626 3.05085C45.3549 3.07509 49.5766 3.14041 53.1229 3.15534C57.8574 3.17505 64.8807 3.01848 68.3535 3.27546C66.9451 3.298 64.6506 3.19946 64.6917 3.33161C67.2094 3.34105 69.7272 3.35049 72.2449 3.35993C72.1698 3.2989 72.0947 3.23786 72.0196 3.17683C74.6483 3.15908 77.3371 3.17238 79.975 3.16365C80.4332 3.16221 80.1087 3.1068 80.5077 3.10652C80.9541 3.10632 80.6515 3.16271 80.7351 3.16316C81.8635 3.16372 82.2041 3.10667 82.3418 3.1075C82.6951 3.10975 82.4204 3.16405 83.4389 3.17927C85.3282 3.2077 86.6811 3.06343 86.2374 3.30378C86.8473 3.30378 87.4573 3.30378 88.0672 3.30378C88.2252 3.23835 88.3831 3.17292 88.541 3.1075C92.2929 3.37165 94.0229 2.90829 96.0963 3.27595C96.78 3.2198 97.4636 3.16365 98.1473 3.1075C98.5326 3.17293 98.918 3.23835 99.3033 3.30378C99.3784 3.24763 99.4535 3.19148 99.5286 3.13533C103.212 3.17673 107.134 3.10933 110.657 3.1158C113.111 3.12031 113.699 3.14248 115.873 3.13826C120.708 3.12868 115.907 3.2401 119.925 3.36042C119.715 3.29158 119.506 3.22273 119.297 3.15389C119.962 3.12866 120.628 3.10343 121.293 3.0782C121.757 3.13435 122.22 3.19051 122.683 3.24666C124.738 2.95541 126.069 3.19051 126.349 3.19051C126.575 3.19 127.352 3.01466 129.784 3.16316C128.775 2.92345 131.639 3.16175 131.868 3.16316C132.086 3.16413 134.874 3.11062 136.006 3.11287C136.896 3.11458 138.795 3.16618 140.12 3.16365C141.291 3.16141 141.172 3.08003 141.258 3.07918C142.698 3.07242 141.795 3.13565 142.837 3.13875C143.878 3.14184 144.686 3.07249 144.911 3.07869C145.024 3.082 144.646 3.1578 145.164 3.16512C146.554 3.18509 149.068 3.11871 150.66 3.12069C151.224 3.1213 151.935 3.18561 152.563 3.18758C153.526 3.19038 153.977 3.10497 154.536 3.1075C154.731 3.10862 155.973 3.24056 157.518 3.22029C157.812 3.21623 158.675 2.93702 159.822 3.33259C159.91 3.27693 159.998 3.22127 160.087 3.16561C165.266 3.0278 166.708 3.47999 169.011 3.0787C172.772 3.12352 170.19 3.27984 170.603 3.30379C170.869 3.31892 172.096 3.27595 172.23 3.2784C172.469 3.28319 172.428 3.33336 172.69 3.33308C177.484 3.32378 175.355 3.22905 176.874 3.16903C180.484 3.02615 183.301 3.34335 177.021 3.24813C177.021 3.27612 177.021 3.30411 177.021 3.33211C178.567 3.30535 182.493 3.31806 181.182 3.46003C180.15 3.57191 170.837 3.49889 176.111 3.65583C177.309 3.69134 177.929 3.58628 180.003 3.78327C181.374 3.79395 181.572 3.53876 183.429 3.64118C183.123 3.55215 182.818 3.46313 182.513 3.3741C185.045 3.25805 188.169 3.41372 190.114 3.36385C190.775 3.34685 193.156 2.9224 192.601 3.34676C193.712 3.3203 198.946 3.39847 199.918 3.36043C200.152 3.35124 200.457 3.12531 203.841 3.20418C204.077 3.2325 204.312 3.26082 204.547 3.28914C201.451 3.37142 206.918 3.45511 205.433 3.6695C204.929 3.57314 202.474 3.51436 202.079 3.46589C201.405 3.38248 203.413 3.27497 200.853 3.30428C199.24 3.6626 203.854 3.49772 203.149 3.83795C206.51 3.67913 206.846 3.83067 207.606 3.83698C210.859 3.86262 212.906 3.82656 215.975 3.86627C216.722 3.79639 211.167 3.6955 210.479 3.72565C213.011 3.47794 208.652 3.46674 206.813 3.61384C206.658 3.53897 206.504 3.4641 206.349 3.38924C208.744 3.42982 211.08 3.45067 213.452 3.38924C213.606 3.41723 213.761 3.44523 213.915 3.47322C213.383 3.51537 212.851 3.55753 212.319 3.59968C214.292 3.66871 213.109 3.4504 215.737 3.64167C215.818 3.55736 215.899 3.47306 215.981 3.38875C218.501 3.41674 221.021 3.44474 223.54 3.47273C224.852 3.30368 229.701 3.36665 228.813 3.58552C230.77 3.60098 228.354 3.48449 230.188 3.43123C230.986 3.40812 232.546 3.40163 232.932 3.46053C232.766 3.66896 230.431 3.69482 229.725 3.83796C230.153 3.88413 241.011 3.73532 240.043 3.97907C240.91 4.00837 240.511 3.8828 242.075 3.85065C246.456 3.76104 253.243 4.00922 256.771 3.69783C252.628 3.52451 251.403 3.70807 248.228 3.7154C246.2 3.72019 233.836 3.74975 236.598 3.52937C236.144 3.55737 235.69 3.58536 235.236 3.61335C234.776 3.54776 234.317 3.48217 233.858 3.41658C235.152 3.40714 236.446 3.3977 237.739 3.38826C238.048 3.45369 238.357 3.51912 238.666 3.58455C238.808 3.53784 238.951 3.49112 239.093 3.44441C239.638 3.43514 240.183 3.42586 240.727 3.41658C240.574 3.47273 240.421 3.52888 240.268 3.58503C241.108 3.59464 241.947 3.60424 242.787 3.61384C242.561 3.53881 242.335 3.46378 242.109 3.38875C246.062 3.36988 244.723 3.41687 246.916 3.5572C248.553 3.57155 245.788 3.42734 249.251 3.39071C253.279 3.34817 250.636 3.57743 255.853 3.5284C255.928 3.49096 256.003 3.45353 256.078 3.4161C257.225 3.45353 258.372 3.49096 259.519 3.5284C259.367 3.48185 259.215 3.4353 259.064 3.38875C261.431 3.40679 264.693 3.31795 265.478 3.50057C263.078 3.41264 263.102 3.73149 263.726 3.79011C265.014 3.91038 284.041 3.79849 287.729 3.7906C292.445 3.78046 296.009 3.88259 300.317 3.72566C297.398 3.59694 287.133 3.70239 285.187 3.61336C284.995 3.60462 285.049 3.31233 283.81 3.64119C279.819 3.58541 275.048 3.67859 270.062 3.66902C270.214 3.58487 270.367 3.50073 270.519 3.41659C273.583 3.59553 276.42 3.20248 276.021 3.52938C276.631 3.52938 277.241 3.52938 277.851 3.52938C277.851 3.47306 277.851 3.41675 277.851 3.36044C278.77 3.36044 279.69 3.36044 280.609 3.36044C280.609 3.41675 280.609 3.47306 280.609 3.52938C281.371 3.52938 282.133 3.52938 282.894 3.52938C282.973 3.47323 283.053 3.41707 283.132 3.36092C285.413 3.47755 293.187 3.16572 289.769 3.50106C290.84 3.50106 291.911 3.50106 292.983 3.50106C292.979 3.45988 292.976 3.4187 292.972 3.37753C293.432 3.37199 293.893 3.36646 294.353 3.36093C294.202 3.3982 294.05 3.43547 293.899 3.47274C296.009 3.40596 298.009 3.60217 299.394 3.47323C298.481 3.44507 297.567 3.41691 296.653 3.38876C298.405 3.44224 301.634 3.33142 301.923 3.33114C302.804 3.33058 303.269 3.41383 304.223 3.41805C305.084 3.42166 304.966 3.3577 305.126 3.35995C309.773 3.42506 308.002 3.77136 310.172 3.36141C310.402 3.4174 310.633 3.47339 310.864 3.52938C311.172 3.48267 311.479 3.43596 311.787 3.38925C313.159 3.39364 314.531 3.39804 315.903 3.40243C315.446 3.33244 314.988 3.26246 314.53 3.19248C316.587 3.16124 317.547 3.30156 317.746 3.30478C318.31 3.31294 318.567 3.22487 318.742 3.2247C327.124 3.23231 322.033 3.30986 326.221 3.6407C327.715 3.51087 326.204 3.38071 325.992 3.24863C327.978 3.31059 328.597 3.27401 330.694 3.28134C331.239 3.28334 331.826 3.3546 332.17 3.35556C332.468 3.3564 333.4 3.28068 334.116 3.28036C335.308 3.2798 336.896 3.32494 338.529 3.32382C339.887 3.32269 344.044 3.26921 346.944 3.26865C348.181 3.26865 347.894 3.33199 348.213 3.33212C348.346 3.33212 349.311 3.25625 350.104 3.25595C356.577 3.25426 363.212 3.30228 369.717 3.30088C374.3 3.30003 378.957 3.23902 383.549 3.24521C384.527 3.24662 384.009 3.30232 384.436 3.30429C384.582 3.30479 384.759 3.2076 386.27 3.24668C386.816 3.26077 386.188 3.32874 386.725 3.33213C386.986 3.33374 387.097 3.24854 388.624 3.2291C391.399 3.19361 392.891 3.30719 393.139 3.30381C393.606 3.29727 393.469 3.22675 394.088 3.22422C397.116 3.21182 399.643 3.19987 402.345 3.19395C403.606 3.19113 412.305 3.17688 412.783 3.18955C413.852 3.21773 412.857 3.36497 414.227 3.35996C414.611 3.32269 414.995 3.28542 415.379 3.24815C414.769 3.21983 414.159 3.19151 413.549 3.16319C415.228 3.21053 417.132 3.14356 418.376 3.1461C418.605 3.14668 420.719 3.21345 421.797 3.20616C421.339 3.23382 420.881 3.26149 420.422 3.28916C420.585 3.31276 420.747 3.33636 420.909 3.35996C423.065 3.32418 425.345 3.3251 427.557 3.33018C428.354 3.3319 428.084 3.38924 428.892 3.39121C433.593 3.4033 432.406 3.16491 436.929 3.61239C435.402 3.57183 429.83 3.62875 429.02 3.61386C428.456 3.60343 426.267 3.22532 427.07 3.61337C422.556 3.61168 426.477 3.39765 422.261 3.44443C422.345 3.49179 422.429 3.53915 422.513 3.58652C421.041 3.61637 419.954 3.6403 419.06 3.55673C418.76 3.7865 413.759 3.65207 411.016 3.66757C407.052 3.68955 402.574 3.74559 398.647 3.75545C397.294 3.7588 396.528 3.66875 396.358 3.66903C396.11 3.66968 395.413 3.74854 394.918 3.74911C393.069 3.75135 387.444 3.61803 386.045 3.83699C397.046 3.83699 408.048 3.83699 419.049 3.837C417.666 3.72937 428.795 3.71885 429.359 3.72421C429.881 3.72902 429.442 3.80458 429.597 3.80917C430.753 3.84157 431.74 3.73202 432.107 3.73202C432.387 3.73204 432.952 3.78344 433.947 3.78231C434.13 3.78215 434.181 3.72779 434.377 3.72763C435.675 3.72763 436.957 3.7284 438.26 3.72811C438.339 3.72864 438.668 3.80805 438.997 3.80819C439.327 3.80819 439.653 3.72885 439.736 3.7286C440.777 3.72917 442.563 3.78077 443.554 3.78134C443.897 3.78131 443.659 3.72316 444.044 3.72372C445.228 3.72513 444.838 3.83896 446.302 3.80966C446.792 3.79978 446.76 3.71273 447.7 3.72421C448.365 3.73238 448.293 3.88751 448.399 3.89315C448.545 3.89996 450.84 3.77745 451.591 3.87899C449.95 4.14705 453.386 3.89298 453.221 3.77987C454.131 3.80835 455.04 3.83684 455.95 3.86532C456.26 3.83667 456.57 3.80803 456.881 3.77938C460.551 3.90845 462.79 3.83096 466.401 3.87069C466.575 3.87266 469.617 3.93635 469.475 3.97664C467.654 4.04595 465.837 4.04912 464.672 3.92098C462.754 4.16531 462.721 3.9706 459.624 4.00301C458.588 4.014 458.514 4.08029 458.395 4.08113C454.363 4.1141 447.904 4.14262 445.188 3.94881C444.426 4.00123 447.164 4.02202 446.099 4.06062C445.519 4.08177 431.547 4.14366 436.011 3.92049C435.548 3.92668 435.085 3.93286 434.621 3.93904C434.158 4.14984 431.854 4.10163 432.115 3.89168C431.897 3.93465 431.679 3.97762 431.461 4.02058C431.029 4.05694 430.519 4.07641 429.803 4.08797C427.063 4.13191 410.759 4.05879 409.892 4.08894C409.872 4.13874 409.852 4.18855 409.833 4.23835C417.036 4.29471 424.023 4.17095 431.878 4.31354C431.649 4.26683 431.421 4.22012 431.193 4.17341C434.327 4.23884 437.461 4.30427 440.595 4.3697C437.278 4.45424 432.001 4.52524 428.519 4.45563C427.9 4.44322 428.354 4.37807 428.211 4.37018C427.84 4.34969 427.44 4.46271 426.106 4.4737C424.771 4.48467 421.416 4.40455 421.109 4.4068C420.516 4.41145 418.917 4.54076 417.908 4.53912C416.582 4.53687 417.471 4.45683 417.205 4.45514C416.104 4.44727 415.117 4.48693 414.255 4.48102C412.975 4.47222 410.315 4.33147 409.42 4.53814C410.335 4.54758 411.249 4.55702 412.164 4.56646C407.204 4.64058 403.327 4.37639 398.441 4.58013C397.331 4.83038 401.368 4.79656 397.954 4.90337C398.574 4.89979 399.194 4.89621 399.814 4.89263C399.959 4.84022 400.104 4.78781 400.25 4.7354C401.317 4.77284 402.385 4.81027 403.452 4.84771C403.148 4.80099 402.843 4.75428 402.539 4.70757C406.323 4.67235 410.146 4.62445 411.467 4.87554C411.545 4.81483 411.623 4.75412 411.701 4.69341C415.215 4.76723 420.49 4.50992 419.504 4.84771C419.671 4.8298 419.837 4.8119 420.003 4.794C422.128 4.86304 421.22 4.72336 422.019 4.70757C422.246 4.70313 426.375 4.77526 424.545 4.87554C428.573 4.95218 427.331 4.63647 428.441 4.62262C431.019 4.77902 435.657 4.54441 433.707 4.79156C434.091 4.80083 434.475 4.81011 434.859 4.81939C436.121 4.62494 437.365 4.84495 438.732 4.91851C439.195 4.9229 439.658 4.9273 440.121 4.93169C440.432 4.86626 440.742 4.80083 441.052 4.73541C445.41 5.04681 444.031 4.19518 446.022 4.9107C445.711 4.9535 445.401 4.9963 445.091 5.03911C444.355 5.05945 443.62 5.0798 442.884 5.10014C445.851 5.11902 448.818 5.1379 451.785 5.15678C455.551 5.35734 457.694 5.13974 461.878 5.29838C462.269 5.27934 462.661 5.2603 463.053 5.24125C462.654 5.40329 461.134 5.37948 463.964 5.45218C464.206 5.56675 462.294 5.58157 461.423 5.49369C461.213 5.47224 463 5.38448 460.991 5.38139C459.625 5.37917 462.105 5.51686 458.014 5.46586C458.165 5.49385 458.317 5.52184 458.468 5.54984C458.025 5.54902 457.581 5.54821 457.138 5.5474C456.743 5.48262 456.349 5.41784 455.954 5.35307C454.94 5.44663 454.371 5.57774 452.054 5.54984C452.683 5.50926 451.83 5.37919 450.684 5.38138C450.684 5.42826 450.684 5.47513 450.684 5.52201C447.908 5.55216 448.866 5.41464 446.559 5.522C446.328 5.48473 446.097 5.44746 445.866 5.41019C444.609 5.56378 439.981 5.66826 440.825 5.43802C439.526 5.66178 436.8 5.56082 435.786 5.38187C435.708 5.42842 435.63 5.47497 435.552 5.52152C435.012 5.53096 434.472 5.5404 433.933 5.54983C433.632 5.52168 433.33 5.49352 433.029 5.46536C432.647 5.49352 432.264 5.52168 431.882 5.54983C431.651 5.50312 431.42 5.45641 431.189 5.4097C430.574 5.46569 429.959 5.52168 429.344 5.57767C428.968 5.54039 428.592 5.50312 428.216 5.46585C428.177 5.56328 424.449 5.58498 423.408 5.52103C423.098 5.54935 422.788 5.57766 422.478 5.60598C422.326 5.5596 422.174 5.51321 422.023 5.46683C421.792 5.50394 421.561 5.54104 421.33 5.57815C420.798 5.54104 420.266 5.50394 419.734 5.46683C417.564 5.69423 417.494 5.49472 416.999 5.49612C416.08 5.49873 412.952 5.64114 412.429 5.63381C411.907 5.62643 411.655 5.54481 411.233 5.53714C404.283 5.40892 407.14 5.62795 405.746 5.66262C404.993 5.6815 404.461 5.60536 403.796 5.6138C402.658 5.62789 396.918 5.72864 396.588 5.71877C396.107 5.70454 397.239 5.34548 395.676 5.43802C395.624 5.63082 392.282 5.43622 393.844 5.7051C392.468 5.6815 391.091 5.6579 389.715 5.6343C389.871 5.86285 388.174 5.71585 386.325 5.72854C383.705 5.74631 377.806 5.89658 378.022 5.66213C377.394 5.716 376.767 5.76988 376.139 5.82375C371.845 5.74994 367.634 5.82728 363.372 5.83009C350.724 5.83883 337.001 5.78793 324.412 5.74171C323.807 5.73943 323.894 5.66284 323.459 5.66115C321.169 5.6527 315.219 5.70687 312.012 5.68996C310.985 5.6846 310.485 5.60989 310.159 5.60646C309.053 5.59434 309.314 5.69277 308.805 5.68996C308.002 5.68544 303.753 5.59407 302.29 5.58449C301.565 5.57975 300.708 5.65796 299.86 5.6338C299.787 5.63184 299.922 5.55123 299.86 5.54982C298.314 5.53996 299.244 5.60964 298.721 5.60597C294.991 5.57977 291.004 5.57817 286.958 5.56154C285.953 5.55731 284.416 5.50049 283.553 5.49514C283.224 5.49324 283.814 5.5544 282.677 5.54933C282.288 5.5476 282.155 5.46807 281.715 5.46291C279.82 5.44121 279.186 5.69679 277.558 5.49123C274.416 5.50476 268.945 5.57038 266.078 5.57179C265.4 5.57203 265.069 5.52506 264.423 5.52589C263.964 5.52646 263.157 5.59923 262.441 5.60011C261.726 5.60096 260.596 5.53166 259.22 5.5342C257.77 5.53674 255.969 5.5779 255.642 5.57765C255.247 5.57765 255.064 5.49012 254.669 5.49123C253.476 5.49405 250.283 5.58007 248.746 5.58937C247.094 5.59922 246.103 5.55679 245.539 5.55763C245.016 5.5588 244.407 5.63266 244.168 5.63331C243.797 5.63444 243.709 5.54812 243.237 5.54884C242.467 5.55025 241.672 5.60453 240.517 5.60597C219.706 5.63274 199.303 5.58531 179.057 5.52247C176.8 5.51543 175.525 5.57596 172.199 5.54835C170.85 5.53708 171.418 5.44801 170.369 5.46485C169.901 5.47246 170.019 5.54251 169.428 5.54591C166.813 5.56056 163.766 5.49546 162.633 5.49659C162.183 5.49692 161.67 5.57649 160.748 5.57764C153.88 5.58666 145.755 5.56432 138.364 5.57813C134.451 5.58546 128.526 5.62599 124.035 5.63135C111.625 5.64628 98.2753 5.62785 86.9575 5.63574C69.868 5.64729 52.8605 5.72086 35.8076 5.63378C43.7857 5.82626 54.6496 5.81019 63.5315 5.83104C89.1862 5.89079 116.502 5.77897 142.795 5.7832C151.943 5.78461 163.477 5.78018 173.492 5.82471C173.946 5.82668 174.887 5.76549 175.869 5.77197C176.078 5.77348 178.664 5.8851 179.535 5.88623C178.709 5.68783 182.123 5.86465 183.178 5.85986C184.509 5.85363 187.284 5.75448 190.399 5.81055C193.225 5.86127 192.445 5.93759 192.601 5.94238C193.601 5.97331 193.949 5.85032 194.715 5.83789C197.844 5.78829 213.938 5.85975 218.43 5.86426C219.591 5.86539 219.623 5.94357 219.885 5.94385C220.577 5.94437 221.563 5.86715 222.673 5.86768C224.673 5.86881 226.977 5.94259 228.078 5.94287C230.712 5.94371 235.709 5.85667 239.131 5.85498C240.093 5.85448 240.035 5.93583 240.47 5.93555C242.388 5.93412 247.384 5.83825 249.765 5.83741C253.632 5.836 257.61 5.88859 261.542 5.86182C261.791 5.89812 262.041 5.93441 262.29 5.97071C262.683 5.93262 263.076 5.89454 263.469 5.85645C270.116 5.88547 276.883 5.80374 283.494 5.80909C284.256 5.80966 288.026 5.87911 288.655 5.8794C289.178 5.8794 289.693 5.7895 290.468 5.80274C291.554 5.82112 290.533 5.99233 292.307 5.94337C292.784 5.93012 292.321 5.85683 293.279 5.83399C293.596 5.82638 299.74 5.7967 300.07 5.80177C300.621 5.81031 301.112 5.96733 301.254 5.97071C301.992 5.98843 301.961 5.86793 302.456 5.85694C303.918 5.82405 305.828 5.90511 306.065 5.90333C308.937 5.88107 314.306 5.78488 317.32 5.84181C317.737 5.84974 317.687 5.93948 317.76 5.94239C318.233 5.96098 318.526 5.85882 318.975 5.85646C321.393 5.8449 325.179 5.91369 327.611 5.93116C327.891 5.93306 328.482 5.88392 328.982 5.88868C331.808 5.9163 330.891 5.99516 331.052 5.99854C331.433 6.00691 332.102 5.91994 333.115 5.91456C335.726 5.90019 340.732 5.91268 343.53 5.91944C345.627 5.9248 345.595 6.0244 345.733 6.02638C346.027 6.02995 346.844 5.95043 348.224 5.94142C350.88 5.92367 350.577 6.00192 351.669 5.99854C351.761 5.99854 351.601 5.92196 352.812 5.91407C355.152 5.89888 360.409 5.97416 362.913 5.97023C363.877 5.96882 364.102 5.89498 365.089 5.89357C366.652 5.89104 370.182 5.97092 370.46 5.97071C370.538 5.97071 370.713 5.88576 371.172 5.88576C371.676 5.88577 372.173 5.92949 372.549 5.92921C374.691 5.92804 378.382 5.77978 377.356 6.08302C378.043 6.00815 378.729 5.93328 379.416 5.85841C383.903 5.87335 388.261 5.84336 392.707 5.82814C393.707 5.82477 394.542 5.8822 395.385 5.87941C396.229 5.87659 399.952 5.78159 400.574 5.77981C401.684 5.77671 407.993 5.7667 408.778 5.77346C410.31 5.78642 411.797 5.91174 412.421 5.88722C412.921 5.8675 412.458 5.79689 413.413 5.77688C415.064 5.74227 417.871 5.83297 418.376 5.83156C418.591 5.83099 418.188 5.77595 420.206 5.77199C421.293 5.76974 421.877 5.83038 422.271 5.8301C422.394 5.82978 422.21 5.73144 424.362 5.74465C425.849 5.75395 426.482 5.82982 426.638 5.8301C426.873 5.8306 427.438 5.74965 428.378 5.75246C430.575 5.75953 434.593 5.85234 436.681 5.8594C437.084 5.8608 436.947 5.763 438.557 5.772C439.708 5.77848 439.507 5.85628 439.938 5.8594C440.622 5.86419 441.64 5.76891 443.149 5.772C445.049 5.77594 459.152 5.87477 459.881 5.90041C460.372 5.9176 460.942 5.91869 461.185 5.96096C460.976 6.00148 460.768 6.04201 460.559 6.08254C458.4 5.94032 459.271 6.10286 458.698 6.1133C457.868 6.12823 454.738 6.1075 453.981 6.14357C453.711 6.1566 454.329 6.2431 452.88 6.28761C451.325 6.33519 450.633 6.18118 450.014 6.39161C447.807 6.15799 445.688 6.40595 448.243 6.47217C449.67 6.5091 463.663 6.59251 466.521 6.60547C468.838 6.61588 473.177 6.55328 476.026 6.56934C477.7 6.57892 481.825 6.58978 481.65 6.70166C483.137 6.71575 481.564 6.60437 481.876 6.58887C482.528 6.55651 487.167 6.63343 488.045 6.63037C492.376 6.61572 497.841 6.49065 502.048 6.63184C501.852 6.66179 501.657 6.69173 501.461 6.72168C500.516 6.77663 496.13 6.69807 495.634 6.84179C502.048 6.84179 508.462 6.84179 514.876 6.84179C514.757 6.71949 522.712 6.72113 523.089 6.77637C522.949 6.83561 522.809 6.89485 522.67 6.9541C518.174 6.72926 518.577 7.02646 515.559 6.86865C514.33 6.86642 514.701 6.96431 514.095 6.9829C508.068 7.16772 513.998 6.78204 509.385 6.86963C510.773 7.0116 506.995 7.06349 505.302 7.08153C504.916 7.08548 499.855 7.04949 499.254 7.05175C495.877 7.06443 490.079 7.14221 486.725 7.06444C484.083 7.05514 482.628 7.15627 480.229 7.17967C478.408 7.19742 478.93 7.12635 478.073 7.12547C476.274 7.1235 475.682 7.33989 474.531 7.03807C473.312 7.07567 472.092 7.11327 470.873 7.15086C470.873 7.10399 470.873 7.05712 470.873 7.01024C470.107 7.01024 469.342 7.01024 468.576 7.01024C468.351 7.05695 468.125 7.10366 467.9 7.15037C465.47 7.0864 466.484 6.97353 466.03 6.84081C465.505 6.8317 464.98 6.82258 464.455 6.81347C464.049 6.91536 463.642 7.01724 463.236 7.11913C460.891 7.11082 458.547 7.10252 456.203 7.09422C456.051 7.04751 455.899 7.0008 455.748 6.95409C455.743 7.0008 455.738 7.04751 455.733 7.09422C451.763 7.10383 447.793 7.11343 443.823 7.12303C442.767 7.19796 449.128 7.25475 449.61 7.25926C452.289 7.28405 459.405 7.20892 459.414 7.37546C461.079 7.2512 466.094 7.28206 467.654 7.43113C465.286 7.42218 462.919 7.41322 460.551 7.40427C460.628 7.4601 460.704 7.51592 460.781 7.57175C457.831 7.34659 457.399 7.35898 454.367 7.57175C454.364 7.49688 454.361 7.42201 454.358 7.34714C452.244 7.60748 448.506 7.16587 448.399 7.48728C447.273 7.46124 446.147 7.43519 445.021 7.40915C442.59 7.44833 446.365 7.69552 436.847 7.5986C436.191 7.59184 436.328 7.50996 435.341 7.51559C435.057 7.51729 433.428 7.63639 430.313 7.62399C429.827 7.62201 429.79 7.55098 429.285 7.54196C428.12 7.52055 425.8 7.66103 426.853 7.4321C422.239 7.36533 424.151 7.55322 422.72 7.6279C421.766 7.67745 421.958 7.54201 421.132 7.57272C420.11 7.61081 420.86 7.74736 416.769 7.68453C417.228 7.67526 417.687 7.66598 418.146 7.6567C417.915 7.61959 417.684 7.58249 417.453 7.54538C415.118 7.63442 415.339 7.50432 414.238 7.71285C412.54 7.61986 411.072 7.61245 408.75 7.62936C404.241 7.66233 406.553 7.88707 401.406 7.58444C400.572 7.62692 399.738 7.6694 398.904 7.71187C397.533 7.62255 398.642 7.51079 396.596 7.48825C398.197 7.70891 393.881 7.62845 393.151 7.82515C393.075 7.77828 392.998 7.7314 392.922 7.68453C392.465 7.68453 392.008 7.68453 391.551 7.68453C391.55 7.72213 391.548 7.75972 391.547 7.79732C390.938 7.76916 390.33 7.74101 389.721 7.71285C389.263 7.75012 388.806 7.78739 388.348 7.82466C387.596 7.74605 386.843 7.66744 386.091 7.58883C385.618 7.58346 385.146 7.57809 384.674 7.57272C384.823 7.62871 384.973 7.68469 385.122 7.74068C384.515 7.72196 383.908 7.70325 383.301 7.68453C384.007 7.7764 383.563 7.88412 381.673 7.8813C380.113 7.87904 381.87 7.6873 378.517 7.76705C378.283 7.77273 377.869 7.90948 374.699 7.93062C370.898 7.95595 372.744 7.8569 372.067 7.85347C371.934 7.85291 370.773 7.92173 369.685 7.93159C369.068 7.93721 368.474 7.88164 368.392 7.88179C368.012 7.88432 367.901 7.96293 367.373 7.96577C366.034 7.97253 364.236 7.93402 362.924 7.93794C362.327 7.93963 361.766 7.9862 361.5 7.98677C361.088 7.9873 360.564 7.91617 360.146 7.91645C358.605 7.91794 356.265 8.15395 355.55 7.82613C354.068 8.12757 350.964 7.76312 351.191 7.96528C347.231 7.88898 336.67 8.137 336.979 7.79732C334.737 8.08776 334.937 7.87742 333.998 7.88179C332.947 7.88658 333.491 7.94291 332.656 7.94038C330.707 7.93446 328.844 7.91026 326.904 7.90913C327.208 7.86258 327.513 7.81603 327.817 7.76948C325.781 7.75455 326.482 7.86287 324.404 7.88374C320.582 7.92178 322.193 7.83535 321.629 7.71333C321.78 7.83113 317.274 7.81281 316.815 7.79731C316.542 7.78787 317.74 7.63604 314.981 7.68501C315.132 7.73172 315.283 7.77843 315.434 7.82515C314.176 7.76126 310.762 7.84232 310.182 7.82661C309.916 7.81928 308.493 7.44258 307.19 7.74067C307.033 7.69396 306.875 7.64725 306.718 7.60054C305.272 7.65669 303.825 7.71284 302.378 7.76899C302.147 7.68485 301.916 7.6007 301.685 7.51656C301.226 7.51656 300.767 7.51656 300.308 7.51656C300.613 7.59126 300.918 7.66597 301.222 7.74067C298.388 7.70687 294.925 7.82467 294.341 7.57271C293.734 7.61942 293.126 7.66613 292.519 7.71284C292.124 7.62902 291.729 7.5452 291.334 7.46138C288.522 7.48253 288.476 7.53856 286.554 7.62788C286.629 7.56246 286.704 7.49703 286.779 7.4316C285.361 7.52347 282.773 7.609 280.727 7.62056C279.755 7.62589 278.084 7.53573 277.855 7.5439C277.623 7.55252 275.342 7.90674 275.095 7.60005C271.736 7.73588 270.258 7.59716 268.895 7.60054C268.01 7.60282 267.606 7.67642 266.606 7.68403C265.175 7.69502 263.735 7.65943 262.909 7.6645C262.436 7.6676 262.348 7.73939 262.022 7.74165C260.482 7.7526 261.385 7.67924 259.761 7.68403C259.611 7.68486 258.424 7.77243 257.086 7.76118C256.339 7.75495 254.404 7.65645 254.233 7.65669C253.476 7.65838 254.081 7.8553 251.494 7.62788C251.569 7.66531 251.644 7.70275 251.719 7.74018C248.517 7.83515 248.011 7.66824 247.364 7.65669C247.282 7.65574 246.502 7.72026 246.036 7.71137C245.248 7.69618 244.93 7.60785 244.755 7.60395C244.141 7.59043 242.07 7.62929 240.717 7.5439C241.001 7.79527 236.259 7.88468 235.208 7.60005C234.369 7.6562 233.529 7.71235 232.69 7.7685C232.31 7.72163 231.93 7.67475 231.551 7.62788C231.32 7.67459 231.089 7.7213 230.858 7.76801C229.634 7.66515 228.411 7.56229 227.187 7.45943C227.11 7.56245 227.032 7.66547 226.954 7.7685C226.611 7.75678 226.269 7.74506 225.926 7.73334C225.659 7.65148 225.391 7.56961 225.124 7.48775C224.696 7.50337 224.268 7.51899 223.839 7.53462C223.733 7.59386 223.627 7.6531 223.521 7.71235C221.22 7.78064 222.402 7.21559 218.017 7.71235C217.335 7.66564 216.653 7.61893 215.97 7.57221C215.2 7.79955 213.756 7.66189 212.591 7.68745C211.77 7.70548 211.814 7.79579 210.696 7.79779C209.576 7.79977 209.616 7.7134 209.529 7.71283C208.616 7.70752 207.929 7.78367 207.259 7.7685C207.158 7.76624 206.905 7.66368 206.052 7.65717C205.199 7.65069 204.685 7.75977 203.414 7.7392C202.763 7.72877 202.575 7.64236 201.997 7.63471C199.244 7.59751 196.472 8.0351 194.408 7.51606C193.942 7.58182 190.567 7.81201 189.122 7.79877C186.876 7.77763 187.741 7.67581 186.848 7.65717C186.72 7.65435 186.036 7.68874 184.151 7.68256C183.814 7.68144 183.892 7.73892 183.843 7.73969C181.646 7.73856 177.379 7.69318 174.966 7.685C174.75 7.68416 173.621 7.84439 171.708 7.62885C168.873 7.78806 163.533 7.446 159.794 7.68598C159.276 7.69105 158.646 7.63373 158.417 7.63568C156.44 7.65344 157.164 7.82745 152.696 7.5727C153.058 7.66144 152.012 7.74155 150.535 7.7348C148.315 7.72466 149.892 7.55917 148.107 7.5727C148.107 7.61941 148.107 7.66612 148.107 7.71283C144.002 7.58719 143.185 7.78689 139.065 7.78802C137.584 7.7883 135.395 7.68479 135.041 7.68451C134.905 7.68481 133.284 7.79743 133.129 7.79827C132.258 7.80166 131.766 7.74973 131.013 7.74945C128.527 7.74835 125.56 7.89485 126.096 7.62885C125.413 7.685 124.729 7.74115 124.045 7.7973C121.463 7.51323 119.531 7.90474 118.99 7.62885C118.528 7.68581 118.066 7.74277 117.604 7.79974C106.526 7.77093 95.4478 7.74212 84.3696 7.71331C83.9292 7.80208 79.0983 7.77058 78.8505 7.75677C77.713 7.6942 78.9145 7.50062 76.5932 7.54486C76.3363 7.62966 76.0794 7.71445 75.8225 7.79925C72.9049 7.82686 74.3082 7.74248 73.1567 7.68499C72.6755 7.69545 72.8309 7.76125 72.1796 7.76604C68.647 7.79225 61.4036 7.79536 57.5407 7.80071C56.7618 7.80184 56.8793 7.74032 56.6374 7.74016C55.9723 7.74073 54.6598 7.81825 53.3251 7.81829C45.0719 7.81772 33.377 7.77401 25.0685 7.70891C24.5042 7.7044 24.4343 7.63104 24.0536 7.62737C23.5258 7.6226 22.3471 7.68191 21.792 7.67571C21.2692 7.67007 20.9343 7.61435 20.3749 7.60784C17.8149 7.57741 14.373 7.67155 11.6341 7.50726C11.4037 7.4934 8.53411 7.19803 8.46918 7.17865C8.08839 7.06368 10.6385 6.88304 6.4498 6.7148C10.1934 6.56798 9.02396 6.30843 4.16089 6.18161C6.60001 6.1489 9.03912 6.11619 11.4782 6.08347C11.4818 6.05271 11.4853 6.02195 11.4888 5.99119C9.26841 5.83874 7.06549 5.78801 3.68921 5.77391C3.79449 5.74543 3.89978 5.71695 4.00507 5.68846C6.98712 5.54615 10.5844 5.51985 12.8554 5.32568C9.52484 5.18197 6.19431 5.03826 2.86377 4.89454C3.03012 4.87208 3.19647 4.84962 3.36282 4.82716C4.95938 4.76883 8.44674 4.73458 9.77261 4.6802C14.8365 4.47281 5.34062 4.52499 6.90042 4.39847C12.2468 4.40302 17.5932 4.40758 22.9396 4.41214C23.1271 4.31896 2.55925 4.0616 2.77112 3.78032C4.45148 3.76144 6.13184 3.74256 7.81219 3.72368C7.06326 3.65223 6.31433 3.58078 5.5654 3.50933C5.77176 3.48671 5.97812 3.46409 6.18448 3.44146C9.01947 3.38596 11.8545 3.33047 14.6895 3.27497C6.07009 3.33075 2.06459 3.29026 1.11235e-07 2.72762C0.233734 2.7133 0.467468 2.69897 0.701203 2.68465C2.56844 3.03663 11.3824 2.92279 16.0666 2.85262C15.1119 2.74951 10.9875 2.82916 10.1158 2.76717C9.86886 2.7494 10.7302 2.67783 10.158 2.6412C8.66239 2.54595 2.28927 2.4234 3.21542 2.30673C3.81184 2.23177 14.0663 2.12893 16.0666 2.13682C11.378 2.00212 6.547 1.96315 1.8446 1.79942C4.81281 1.57116 7.44156 1.29182 12.8596 1.27942C14.511 1.15965 3.04142 0.993737 2.77533 0.928357C4.76032 0.85821 6.7453 0.788062 8.73029 0.717915C7.05133 0.736632 5.37238 0.755348 3.69342 0.774065C3.68851 0.750628 3.68359 0.727192 3.67868 0.703755C8.02792 0.594977 12.0069 0.395316 16.9847 0.408843C16.8241 0.284847 13.8457 0.297181 12.4005 0.296053ZM488.734 7.34861C488.834 7.45142 487.009 7.43457 485.982 7.43259C486.136 7.45131 486.291 7.47003 486.445 7.48874C484.252 7.4693 480.17 7.42984 480.018 7.62936C478.454 7.65416 479.146 7.48066 478.641 7.46091C478.444 7.45302 476.402 7.554 474.769 7.43113C474.381 7.43162 473.992 7.4321 473.604 7.43259C473.529 7.49802 473.454 7.56345 473.379 7.62888C472.838 7.54945 472.297 7.47003 471.755 7.3906C477.412 7.37661 483.069 7.36261 488.725 7.34861C488.728 7.34861 488.731 7.34861 488.734 7.34861ZM432.349 7.43308C430.289 7.39616 427.134 7.33787 427.771 7.51706C429.073 7.50762 430.374 7.49818 431.675 7.48874C431.9 7.47019 432.125 7.45163 432.349 7.43308ZM227.428 7.29195C225.707 7.11554 224.123 7.26813 221.462 7.23629C221.466 7.27356 221.469 7.31083 221.473 7.3481C222.561 7.25861 225.437 7.31815 227.428 7.29195ZM539.848 6.67432C540.227 6.68816 540.606 6.70199 540.985 6.71582C539.444 6.91619 539.168 6.77499 537.424 6.79443C537.319 6.79565 537.356 6.84151 537.319 6.8418C536.892 6.84489 536.498 6.78968 536.112 6.79053C535.369 6.79222 534.763 6.84816 533.447 6.84619C532.428 6.84448 532.419 6.75654 532.061 6.75879C531.756 6.76096 528.735 7.0029 526.79 6.89843C523.093 6.69948 538.719 6.65572 539.848 6.67432ZM550.808 6.83984C550.442 6.84066 550.077 6.84147 549.711 6.84229C550.811 6.70711 548.591 6.72765 546.963 6.73047C547.014 6.60084 550.458 6.65629 552 6.61768C551.603 6.69174 551.205 6.76579 550.808 6.83984ZM504.562 6.56202C505.993 6.54881 505.755 6.7106 505.695 6.75879C505.24 6.75879 504.784 6.75879 504.329 6.75879C504.407 6.6932 504.485 6.62761 504.562 6.56202ZM515.325 6.50587C514.88 6.61577 511.773 6.66384 510.301 6.67285C510.236 6.67287 510.641 6.61256 509.599 6.61817C509.287 6.61993 506.21 6.8394 506.887 6.59034C509.698 6.56218 512.509 6.53402 515.321 6.50587C515.322 6.50587 515.323 6.50587 515.325 6.50587ZM518.462 6.57081C517.877 6.60531 517.292 6.63982 516.706 6.67432C516.404 6.62273 516.101 6.57113 515.799 6.51954C516.465 6.50652 517.131 6.4935 517.797 6.48048C518.019 6.51059 518.241 6.5407 518.462 6.57081ZM78.0335 6.42429C78.1697 6.47946 78.3058 6.53464 78.442 6.58981C78.9696 6.62363 81.5345 6.38339 80.7225 6.33689C79.8262 6.36602 78.9298 6.39516 78.0335 6.42429ZM67.2017 6.30857C66.6683 6.28074 66.1348 6.25291 65.6014 6.22507C64.9879 6.31866 64.3745 6.41224 63.761 6.50583C66.4259 6.56894 69.2614 6.64166 68.8042 6.3657C69.4141 6.3657 70.0241 6.3657 70.634 6.3657C70.1204 6.4798 70.1895 6.51739 71.7859 6.58981C72.135 6.43103 73.7856 6.51193 75.6751 6.47702C74.3008 6.46774 72.9265 6.45847 71.5521 6.44919C71.5521 6.4212 71.5521 6.3932 71.5521 6.36521C74.6154 6.37532 70.8081 6.19775 68.8126 6.30906C68.6554 6.27179 68.4981 6.23451 68.3409 6.19724C67.9612 6.23435 67.5815 6.27146 67.2017 6.30857ZM288.624 6.36523C288.244 6.33707 287.864 6.30891 287.485 6.28076C286.013 6.64749 289.009 6.2996 291.142 6.58983C290.437 6.36936 293.689 6.37857 293.875 6.36376C293.501 6.28955 293.127 6.21533 292.753 6.14111C291.377 6.21582 290 6.29052 288.624 6.36523ZM277.859 6.1123C279.176 6.2952 272.708 6.30641 270.538 6.26611C270.01 6.2562 269.07 6.15578 268.689 6.16845C268.458 6.20556 268.227 6.24267 267.996 6.27978C267.723 6.15152 263.485 6.29572 261.816 6.36474C261.659 6.31803 261.501 6.27131 261.344 6.2246C260.736 6.24316 260.127 6.26171 259.519 6.28027C259.595 6.23372 259.672 6.18717 259.748 6.14062C259.288 6.19661 258.827 6.2526 258.367 6.30859C256.559 6.37086 257.674 6.1171 256.316 6.19628C254.806 6.28421 257.28 6.43532 257.234 6.53368C258.459 6.50831 261.244 6.45154 262.488 6.44872C263.201 6.4472 262.392 6.62341 265.469 6.42089C266.144 6.46809 266.818 6.51529 267.493 6.56248C268.731 6.48745 269.969 6.41242 271.207 6.33739C271.438 6.40266 271.669 6.46792 271.9 6.53319C272.032 6.5434 274.896 6.39521 274.743 6.34618C275.903 6.47094 278.284 6.49318 280.793 6.4995C281.034 6.46402 281.276 6.42854 281.517 6.39306C279.091 6.46968 280.745 6.35552 280.022 6.28759C279.604 6.24842 278.327 6.17148 277.859 6.1123ZM94.9361 6.28123C90.8623 6.44044 93.3845 6.30907 88.9811 6.30906C89.2885 6.39337 89.596 6.47767 89.9034 6.56198C92.0684 6.40795 95.6308 6.51038 94.9403 6.28123C94.9389 6.28123 94.9375 6.28123 94.9361 6.28123ZM51.8469 6.56149C54.1771 6.51048 53.0077 6.37937 55.9614 6.33738C55.9628 6.33738 55.9642 6.33738 55.9656 6.33738C54.4383 6.32794 52.9109 6.3185 51.3836 6.30906C51.538 6.3932 51.6924 6.47734 51.8469 6.56149ZM188.068 6.45945C190.302 6.49609 189.862 6.43049 191.889 6.5615C194.908 6.40257 192.353 6.42503 192.353 6.28075C191.663 6.32306 190.973 6.36538 190.283 6.4077C188.61 6.27277 190.196 6.20484 190.196 6.19188C190.195 6.19188 190.194 6.19188 190.192 6.19188C190.192 6.14857 190.246 6.13946 189.605 6.11327C189.092 6.22867 188.58 6.34406 188.068 6.45945ZM197.63 6.28124C196.863 6.37705 196.519 6.50007 198.533 6.5615C198.534 6.5615 198.536 6.5615 198.537 6.5615C198.699 6.34736 200.63 6.52021 201.51 6.50584C201.741 6.48257 201.972 6.45929 202.203 6.43602C200.679 6.38442 199.154 6.33283 197.63 6.28124ZM231.321 6.08447C231.33 6.32103 229.639 6.34353 232.018 6.5615C232.48 6.55727 232.942 6.55304 233.404 6.54881C233.707 6.49689 234.01 6.44497 234.313 6.39305C240.172 6.82111 241.918 6.09223 232.018 6.36473C232.017 6.3649 232.015 6.36506 232.014 6.36522C231.783 6.27164 231.552 6.17805 231.321 6.08447ZM221.003 6.10449C220.929 6.22867 220.854 6.35285 220.78 6.47703C219.486 6.17747 217.815 6.4633 215.278 6.25194C215.048 6.2897 214.819 6.32746 214.589 6.36522C213.641 6.28213 204.327 6.25819 206.345 6.4492C207.226 6.53262 209.145 6.41932 209.31 6.42186C209.87 6.43123 210.599 6.53792 211.544 6.53172C212.09 6.52799 213.241 6.40259 214.355 6.40282C216.846 6.40338 221.393 6.74005 224.669 6.42137C224.905 6.45881 225.141 6.49624 225.377 6.53367C227.807 6.51083 226.996 6.39222 229.257 6.53367C230.82 5.94383 220.166 6.56277 222.384 6.08447C222.383 6.08447 222.382 6.08447 222.38 6.08447C221.921 6.09114 221.462 6.09781 221.003 6.10449ZM154.077 6.28123C153.93 6.17531 151.111 6.33875 151.773 6.08495C150.853 6.17333 149.933 6.2617 149.013 6.35008C149.02 6.37368 149.027 6.39728 149.034 6.42088C149.949 6.40232 150.863 6.38377 151.778 6.36521C151.781 6.40265 151.785 6.44008 151.788 6.47752C153.151 6.3421 158.839 6.40109 158.665 6.53367C158.969 6.47768 159.273 6.42169 159.577 6.3657C162.298 6.51816 164.638 6.35606 167.602 6.50486C167.832 6.45848 168.061 6.41209 168.291 6.3657C168.44 6.40314 168.59 6.44057 168.739 6.47801C169.819 6.48273 170.898 6.48745 171.978 6.49217C175.496 6.34144 168.66 6.1463 167.832 6.16845C167.722 6.17154 167.739 6.26846 167.05 6.28368C165.828 6.31039 158.987 6.2139 156.871 6.27782C156.853 6.21353 156.835 6.14924 156.817 6.08495C155.903 6.15038 154.99 6.21581 154.077 6.28123ZM244.393 6.33739C244.548 6.40282 244.702 6.46825 244.857 6.53367C247.521 6.46833 249.2 6.52545 248.516 6.30907C248.515 6.30907 248.513 6.30907 248.512 6.30907C247.139 6.31851 245.766 6.32795 244.393 6.33739ZM442.442 6.39307C442.372 6.26301 441.098 6.21439 439.452 6.30762C439.531 6.34538 439.61 6.38314 439.69 6.4209C440.548 6.31015 441.618 6.50319 444.265 6.47754C444.265 6.41211 444.265 6.34669 444.265 6.28126C443.658 6.31853 443.05 6.3558 442.442 6.39307ZM242.094 6.30907C241.282 6.23193 239.002 6.46597 240.502 6.47752C241.649 6.48626 242.53 6.3505 242.094 6.30907ZM42.6807 6.43503C43.2829 6.4487 43.8852 6.46237 44.4874 6.47604C44.8011 6.42038 45.1149 6.36472 45.4286 6.30905C45.4272 6.30905 45.4258 6.30905 45.4244 6.30905C44.5099 6.35105 43.5953 6.39304 42.6807 6.43503ZM180.43 6.47019C182.473 6.46206 184.515 6.45392 186.558 6.44578C186.578 6.40949 186.598 6.37319 186.619 6.3369C184.573 6.46935 183.75 6.32659 183.273 6.31786C183.275 6.31786 183.277 6.31786 183.279 6.31786C181.747 6.28912 180.288 6.26798 178.838 6.2246C179.369 6.30646 179.899 6.38833 180.43 6.47019ZM173.429 6.2412C173.773 6.49764 174.222 6.5275 177.36 6.34715C177.236 6.31558 177.112 6.284 176.987 6.25243C175.361 6.2713 174.413 6.33051 174.698 6.19676C174.275 6.21158 173.852 6.22639 173.429 6.2412ZM205.414 6.32323C205.038 6.24159 202.049 6.32357 202.212 6.36473C202.276 6.38108 206.148 6.4833 205.414 6.32323ZM465.131 6.33643C464.442 6.31772 463.754 6.299 463.065 6.28028C463.981 6.25245 464.897 6.22462 465.813 6.19679C465.586 6.24334 465.358 6.28989 465.131 6.33643ZM472.69 5.9717C473.181 6.00439 471.585 6.23495 474.52 6.29444C472.384 6.29933 470.249 6.30421 468.113 6.30909C469.114 6.27182 470.116 6.23455 471.117 6.19728C470.943 6.13104 470.768 6.0648 470.593 5.99855C471.292 5.9896 471.991 5.98065 472.69 5.9717ZM474.984 6.14064C473.833 5.9654 479.89 5.95224 480.454 5.97365C480.58 5.97875 481.177 6.1116 481.398 6.14015C480.483 6.14032 479.568 6.14048 478.654 6.14064C478.96 6.18247 479.266 6.2243 479.572 6.26613C478.501 6.28045 477.431 6.29477 476.361 6.30909C476.818 6.2671 477.276 6.22511 477.734 6.18312C476.817 6.16896 475.9 6.1548 474.984 6.14064ZM450.684 6.18312C451.449 6.18751 452.215 6.19191 452.981 6.1963C452.828 6.13087 452.675 6.06545 452.522 6.00002C452.064 6.00002 451.605 6.00002 451.147 6.00002C450.992 6.06105 450.838 6.12208 450.684 6.18312ZM466.287 6.09865C465.172 6.41367 462.134 5.72498 465.685 5.98C466.043 6.00593 466.392 6.06821 466.287 6.09865ZM482.724 6.01125C485.105 5.78158 484.568 6.28867 482.32 6.14015C482.207 6.13225 482.546 6.02821 482.724 6.01125ZM500.576 6.00393C500.769 6.00563 501.106 6.16982 502.947 6.01369C503.251 6.03241 503.555 6.05113 503.859 6.06984C503.148 6.14613 497.064 6.19151 497.904 6.02883C498.836 6.02629 499.613 5.99886 500.576 6.00393ZM494.685 5.39652C493.771 5.40108 492.858 5.40564 491.945 5.4102C492.246 5.46163 492.547 5.51306 492.848 5.56449C492.399 5.57848 491.95 5.59248 491.501 5.60648C490.733 5.51778 489.965 5.42908 489.197 5.34037C491.182 5.32621 493.167 5.31205 495.152 5.29789C494.996 5.33077 494.84 5.36365 494.685 5.39652ZM470.406 5.26957C472.163 5.33411 474.316 5.26542 477.169 5.27641C477.171 5.27657 477.172 5.27674 477.173 5.2769C477.316 5.27765 477.568 5.3483 478.026 5.35111C478.417 5.35336 486.124 5.27578 485.523 5.39555C482.541 5.5029 481.427 5.33969 480.711 5.60599C480.566 5.54984 480.421 5.49369 480.275 5.43754C477.408 5.34031 476.59 5.53469 474.979 5.60599C474.986 5.56367 474.992 5.52136 474.998 5.47904C473.923 5.47481 472.848 5.47058 471.772 5.46634C471.924 5.49418 472.076 5.52201 472.227 5.54984C471.847 5.54984 471.466 5.54984 471.086 5.54984C470.159 5.42445 468.984 5.39522 470.406 5.26957ZM498.827 5.46635C499.671 5.14538 507.897 5.36523 511.655 5.2979C509.682 5.49117 506.626 5.35797 504.474 5.356C500.315 5.35235 503.19 5.47064 502.484 5.5225C502.135 5.54814 499.776 5.34235 498.827 5.46635ZM463.988 5.32572C466.061 5.35165 467.222 5.27775 469.016 5.39555C468.866 5.41898 468.716 5.44242 468.565 5.46586C467.951 5.4444 462.942 5.3767 463.988 5.32572ZM517.161 5.38188C513.156 5.26662 515.131 5.55724 513.049 5.3394C514.419 5.32556 515.79 5.31173 517.161 5.2979C517.161 5.32589 517.161 5.35388 517.161 5.38188ZM237.51 5.10159C235.822 5.09425 233.937 5.03567 232.928 5.15676C234.075 5.17548 235.221 5.1942 236.368 5.21291C236.749 5.17581 237.129 5.1387 237.51 5.10159ZM285.642 3.91852C285.257 3.8895 283.733 3.97516 283.572 3.97516C283.274 3.97516 283.355 3.93296 283.351 3.92194C281.398 3.92959 283.2 4.06047 281.755 4.08893C281.508 4.09362 278.114 4.02893 276.733 4.03424C274.609 4.04241 272.487 4.03394 271.694 4.0362C270.354 4.03988 267.867 4.13805 265.665 4.14313C264.757 4.14505 264.441 4.06645 263.528 4.06842C257.669 4.08167 246.136 4.18958 240.938 4.1397C239.654 4.12731 238.429 4.02438 237.75 4.03277C237.214 4.07037 236.679 4.10797 236.143 4.14556C234.496 3.80712 233.945 4.10814 232.17 4.1397C231.042 4.15965 230.514 4.05938 230.363 4.05963C229.358 4.0616 228.863 4.10934 228.074 4.11724C227.189 4.12598 225.916 4.08075 225.6 4.08892C225.405 4.0944 226.026 4.22768 222.591 4.22515C219.09 4.22252 215.633 4.20843 212.073 4.2022C213.26 4.60458 214.283 4.32919 215.737 4.3145C216.127 4.31056 215.879 4.37445 216.219 4.37163C217.178 4.36401 219.013 4.30124 219.807 4.31646C220.664 4.33287 220.371 4.48094 221.458 4.42632C221.513 4.4235 221.339 4.36234 221.595 4.3521C224.164 4.25093 225.005 4.3573 228.253 4.3604C230.405 4.36264 243.475 4.30196 243.924 4.34185C246.263 4.55602 232.491 4.55748 230.881 4.54057C230.317 4.53463 230.908 4.46711 230.394 4.45415C230.177 4.44897 228.219 4.57772 226.284 4.58842C223.944 4.60138 219.242 4.51355 217.013 4.51664C197.845 4.54341 178.943 4.4656 159.794 4.46391C159.386 4.46391 158.848 4.54105 157.518 4.54105C132.689 4.53964 106.955 4.47882 81.8091 4.51517C76.3269 4.52306 70.8898 4.5956 65.3571 4.53811C64.6707 4.59443 63.9842 4.65074 63.2977 4.70705C65.0536 4.66228 68.2711 4.78966 68.5641 4.79153C68.6696 4.79209 69.3353 4.72859 70.4087 4.73196C71.9181 4.73647 72.5801 4.79153 72.7039 4.79153C73.0879 4.7917 72.8363 4.73314 73.203 4.73342C75.9374 4.73596 78.0529 4.71934 80.5625 4.71877C83.3973 4.71823 84.8342 4.82731 86.8986 4.70755C87.1323 4.75426 87.366 4.80097 87.5998 4.84768C89.1422 4.64566 98.3266 4.66803 102.047 4.67874C103.221 4.68214 103.015 4.76419 103.409 4.76419C103.661 4.76408 103.562 4.65667 106.633 4.67776C108.179 4.68847 108.585 4.76672 109.36 4.76419C109.781 4.76269 109.713 4.68509 110.318 4.68509C113.819 4.68509 116.677 4.71026 120.104 4.72464C121.067 4.72858 121.078 4.79335 121.293 4.79251C122.087 4.78961 123.468 4.67992 125.486 4.68021C128.807 4.68077 135.427 4.68115 138.143 4.7344C138.542 4.74229 138.873 4.82 139.167 4.81887C139.611 4.81689 139.785 4.73582 139.864 4.73538C141.35 4.73397 140.456 4.80936 141.451 4.79104C141.988 4.78117 142.548 4.68871 143.795 4.67825C145.442 4.66445 145.118 4.7742 145.806 4.76321C145.879 4.7615 145.9 4.68518 146.577 4.68265C149.141 4.67363 152.861 4.656 155.288 4.65628C155.985 4.65628 156.504 4.70766 157.476 4.70853C159.435 4.71022 170.57 4.67748 171.483 4.70706C171.579 4.71016 170.589 4.82275 172.167 4.81937C172.626 4.77249 173.084 4.72562 173.542 4.67875C174.309 4.75378 175.075 4.82881 175.842 4.90384C175.814 4.6446 180.323 4.60456 180.279 4.86966C180.772 4.8804 181.265 4.89114 181.759 4.90188C182.786 4.71873 183.47 4.78634 185.456 4.67875C185.766 4.7349 186.076 4.79105 186.385 4.8472C186.463 4.80976 186.541 4.77233 186.619 4.7349C187.679 4.93776 189.417 4.73407 189.628 4.73294C190.44 4.72844 191.05 4.78001 191.43 4.77835C192.852 4.773 195.931 4.70195 197.592 4.7349C197.67 4.73659 197.593 4.82331 198.065 4.83402C198.918 4.85336 199.001 4.7264 200.137 4.87552C200.367 4.83808 200.597 4.80065 200.826 4.76322C201.07 4.78259 201.313 4.80195 201.557 4.82132C202.994 4.81139 204.432 4.80147 205.869 4.79154C204.562 4.93836 206.066 5.02036 207.489 4.90482C207.97 4.86564 207.543 4.77626 207.703 4.76273C207.924 4.74441 214.375 4.78992 214.802 4.84769C215.107 4.81953 215.412 4.79138 215.718 4.76322C215.872 4.81953 216.026 4.87585 216.181 4.93216C216.349 4.91247 216.518 4.89277 216.686 4.87308C218.365 4.97226 222.723 4.74476 223.513 4.76273C223.935 4.77231 223.555 5.01234 225.579 4.98782C225.649 4.92191 225.719 4.85599 225.789 4.79007C226.253 4.78063 226.716 4.77119 227.179 4.76176C228.048 4.76763 229.314 4.88187 229.354 4.95999C229.626 4.91312 229.898 4.86624 230.169 4.81937C230.899 4.97209 234.789 4.91796 236.354 4.82132C236.811 4.86738 237.269 4.91344 237.727 4.9595C238.341 4.90352 238.956 4.84753 239.571 4.79154C240.996 4.77468 239.491 4.86776 239.794 4.87552C240.437 4.89159 243.71 4.73435 243.494 4.93021C243.941 4.9307 244.387 4.93118 244.833 4.93167C245.063 4.87569 245.292 4.8197 245.522 4.76371C246.288 4.95674 247.614 4.8886 250.333 4.95902C250.562 4.91458 250.79 4.87015 251.018 4.82572C251.859 4.88887 252.7 4.95202 253.54 5.01517C253.713 4.9416 253.886 4.86804 254.058 4.79447C254.424 4.78389 254.79 4.77331 255.156 4.76273C255.898 4.92753 257.233 4.74945 257.912 4.81742C258.903 4.91662 258.137 5.03482 256.297 5.05765C256.434 5.17766 261.915 5.12256 263.178 5.1138C263.095 5.09036 263.011 5.06692 262.928 5.04349C261.636 5.06204 260.343 5.0806 259.051 5.09915C257.968 4.79733 261.477 4.87828 263.088 4.83939C263.235 4.83567 264.07 4.72132 265.693 4.73197C266.321 4.7362 268.773 4.90333 269.241 4.91263C273.02 4.98895 270.241 4.75014 273.939 4.95951C273.168 4.79916 275.292 4.9324 277.503 4.9014C277.88 4.89611 281.072 4.76612 281.287 4.76274C282.632 4.74188 281.168 4.88361 283.113 4.84672C283.347 4.80945 283.581 4.77218 283.814 4.73491C284.267 4.73491 284.72 4.73491 285.172 4.73491C287.92 5.06706 288.559 4.82246 289.536 4.79106C289.93 4.77838 289.422 4.86504 290.445 4.84672C290.83 4.8399 291.258 4.76781 292.294 4.76274C295.537 4.74699 296.638 5.05561 299.62 4.73442C300.077 4.78097 300.535 4.82751 300.993 4.87406C301.302 4.81824 301.61 4.76241 301.919 4.70659C304.281 4.86858 303.429 4.70266 304.282 4.70463C306.535 4.70971 311.145 4.74147 311.549 4.87504C313.493 4.56821 315.819 4.91435 316.586 4.90238C317.041 4.86511 317.497 4.82784 317.952 4.79057C318.488 4.828 319.023 4.86544 319.559 4.90287C319.298 4.60156 322.072 4.89786 322.338 4.90238C322.646 4.90689 326.912 4.81772 328.5 4.81938C330.085 4.82107 332.849 4.90271 333.092 4.90287C333.372 4.90287 336.071 4.82098 338.182 4.82182C340.029 4.8227 350.968 4.93905 350.279 4.80473C349.563 4.76753 348.545 4.73529 347.664 4.71782C344.929 4.66428 328.88 4.59569 324.779 4.57427C316.553 4.53172 307.975 4.53961 299.712 4.5103C299.226 4.50861 299.152 4.43052 298.735 4.42876C298.102 4.42651 296.496 4.50467 295.872 4.50298C293.541 4.49622 290.705 4.48347 289.458 4.4815C286.669 4.47754 284.756 4.43051 282.646 4.4229C281.985 4.42065 278.645 4.51746 276.356 4.47661C275.941 4.45464 275.526 4.43267 275.111 4.4107C276.29 4.38505 279.384 4.3187 280.82 4.31109C282.957 4.30011 284.072 4.36346 284.861 4.36236C285.521 4.36151 288.897 4.28937 290.435 4.28765C290.912 4.28709 291.01 4.36899 291.418 4.36871C293.634 4.36673 296.552 4.36454 298.474 4.28424C297.69 4.31045 302.589 4.36069 302.846 4.36041C303.286 4.36038 303.764 4.28375 304.663 4.28375C306.392 4.28379 306.173 4.44408 308.333 4.28375C308.868 4.33046 309.403 4.37717 309.938 4.42388C309.971 4.21034 316.729 4.5008 318.651 4.24127C318.702 4.21196 309.919 4.1288 309.194 4.12457C304.845 4.09894 298.41 4.1513 294.189 4.11383C292.919 4.10256 288.925 3.97274 288.624 3.97516C288.138 3.97882 288.577 4.05309 288.367 4.05573C284.07 4.11094 286.214 3.9617 285.642 3.91852ZM474.979 5.12895C473.674 5.12016 472.368 5.11138 471.063 5.10259C471.157 5.05571 471.252 5.00884 471.347 4.96197C471.945 4.98019 472.543 4.99842 473.141 5.01665C473.601 4.98866 474.061 4.96066 474.52 4.93267C474.673 4.9981 474.826 5.06353 474.979 5.12895ZM478.197 4.93267C479.329 4.90907 479.384 5.00791 479.646 5.01275C480.425 5.0274 481.1 4.98743 481.857 4.98882C480.985 5.22362 479.128 5.11602 478.197 4.93267ZM454.813 4.8482C455.068 4.85943 456.772 5.11221 458.711 4.87701C460.161 4.95171 461.611 5.02642 463.061 5.10112C460.597 4.98699 457.188 5.10563 455.982 5.10112C455.523 5.09941 455.436 5.02182 455.07 5.02056C452.959 5.01436 450.908 5.19017 450.692 4.93316C452.688 5.00784 454.487 4.83439 454.813 4.8482ZM467.548 4.9395C467.886 4.99321 468.224 5.04692 468.561 5.10063C467.341 5.10063 466.121 5.10063 464.901 5.10063C465.231 5.04627 465.561 4.99191 465.891 4.93755C466.443 4.9382 466.996 4.93885 467.548 4.9395ZM373.699 4.76177C374.451 4.76242 375.204 4.76307 375.956 4.76372C375.915 4.72458 375.054 4.72473 374.737 4.69829C374.738 4.69829 374.74 4.69829 374.741 4.69829C374.388 4.66842 374.539 4.61802 373.897 4.59576C373.831 4.65109 373.765 4.70643 373.699 4.76177ZM62.386 4.53909C61.1247 4.53627 49.4775 4.53599 50.4697 4.67873C50.9698 4.75003 54.9533 4.68786 56.1278 4.68899C57.711 4.69044 61.9869 4.84482 62.386 4.53909ZM41.7584 4.51126C41.5566 4.65351 48.8357 4.67614 49.5474 4.65139C49.3963 4.63111 49.1634 4.58596 48.962 4.57571C47.9803 4.52668 43.3276 4.55014 41.7584 4.51126ZM331.561 4.35113C332.148 4.42307 332.735 4.49501 333.322 4.56695C333.167 4.47336 333.013 4.37978 332.858 4.28619C332.426 4.30784 331.994 4.32949 331.561 4.35113ZM274.64 4.45415C264.864 4.44959 255.089 4.44504 245.313 4.44048C246.173 4.40158 247.033 4.36268 247.893 4.32378C256.316 4.33759 265.299 4.37697 273.433 4.31695C273.835 4.36268 274.238 4.40842 274.64 4.45415ZM452.059 4.42682C449.554 4.42543 447.462 4.49416 444.737 4.38483C447.334 4.27887 448.619 4.44281 451.143 4.28669C451.144 4.28669 451.145 4.28669 451.147 4.28669C451.451 4.3334 451.755 4.38011 452.059 4.42682ZM396.139 4.3985C396.901 4.33307 397.662 4.26764 398.424 4.20222C397.508 4.20222 396.592 4.20222 395.676 4.20222C395.831 4.26764 395.985 4.33307 396.139 4.3985ZM189.371 4.09039C186.751 4.23319 180.049 3.97473 177.92 4.14654C177.783 4.15781 179.048 4.23031 177.002 4.37065C178.548 4.34191 179.639 4.31259 179.754 4.2022C180.213 4.23963 180.672 4.27707 181.131 4.3145C181.893 4.28618 182.654 4.25786 183.416 4.22954C183.333 4.33945 183.394 4.33359 184.564 4.25835C185.097 4.28618 185.631 4.31401 186.164 4.34184C186.39 4.29529 186.616 4.24875 186.842 4.2022C187.304 4.2673 187.766 4.3324 188.228 4.3975C190.028 4.32688 188.931 4.20074 189.371 4.09039ZM198.541 4.11724C198.115 4.09305 185.969 4.17198 191.489 4.39116C192.924 4.38416 194.359 4.37716 195.793 4.37016C194.605 4.00719 198.515 4.33179 198.836 4.3394C200.373 4.37486 202.331 4.28854 203.446 4.29302C204.404 4.29696 204.974 4.36208 205.648 4.3604C207.945 4.35477 211.573 4.35239 212.073 4.2022C210.287 4.19908 208.473 4.19746 206.617 4.20122C204.653 4.20517 202.927 4.06341 199.238 4.25786C198.326 4.23697 198.651 4.12344 198.541 4.11724ZM400.717 4.21735C400.626 4.36822 405.261 4.33214 405.291 4.27253C405.3 4.23758 403.79 4.23841 403.575 4.22517C403.573 4.22517 403.572 4.22517 403.57 4.22517C403.481 4.21938 403.937 4.16163 403.227 4.14558C402.391 4.1695 401.554 4.19343 400.717 4.21735ZM80.5014 4.2017C79.8748 4.11705 65.5598 4.14749 65.1381 4.18803C65.0236 4.19928 65.1833 4.23642 65.1381 4.25785C68.4777 4.13841 73.2253 4.27978 76.3953 4.2891C77.2789 4.29162 77.0148 4.23164 77.0649 4.23051C77.067 4.23051 77.0691 4.23051 77.0712 4.23051C77.5726 4.23036 79.8364 4.37688 80.5014 4.2017ZM173.336 4.21538C173.945 4.23898 174.553 4.26258 175.162 4.28618C175.316 4.23947 175.47 4.19276 175.625 4.14605C175.623 4.14605 175.622 4.14605 175.621 4.14605C174.859 4.16916 174.098 4.19227 173.336 4.21538ZM152.251 4.06157C152.4 4.09445 152.548 4.12733 152.696 4.1602C154.228 4.16476 155.76 4.16932 157.293 4.17388C157.138 4.19243 156.984 4.21098 156.829 4.22954C159.146 4.27914 160.106 4.1636 161.34 4.18022C161.338 4.18022 161.337 4.18022 161.336 4.18022C161.468 4.18216 161.629 4.25066 162.123 4.25298C163.256 4.25833 166.502 4.28382 166.895 4.21489C167.725 4.06783 161.191 4.13763 159.973 4.13091C159.423 4.12781 158.76 4.06787 158.425 4.06646C158.059 4.06514 157.559 4.14609 156.665 4.1436C156.404 4.14276 153.504 4.04752 152.251 4.06157ZM125.206 4.15971C125.678 4.23383 126.665 4.16224 127.027 4.17436C127.114 4.17722 126.44 4.23926 127.257 4.25786C127.488 4.21554 127.719 4.17322 127.949 4.13091C127.035 4.14051 126.12 4.15011 125.206 4.15971ZM408.506 4.14607C408.373 4.13016 405.884 4.13598 405.765 4.14607C404.274 4.28134 409.428 4.26668 408.506 4.14607ZM471.313 3.99129C470.168 3.79469 483.751 3.98797 485.068 3.97762C485.002 4.10119 481.771 3.97695 483.463 4.14656C481.848 4.05328 477.384 4.10282 476.333 4.07576C475.696 4.05941 475.535 3.95268 475.438 3.9493C475.06 3.93728 471.717 4.06059 471.313 3.99129ZM496.291 4.0616C495 4.03817 493.71 4.01473 492.419 3.99129C493.942 3.9773 495.465 3.9633 496.988 3.9493C496.756 3.98674 496.524 4.02417 496.291 4.0616ZM497.915 4.00545C497.873 3.88569 502.255 3.97692 503.406 3.9493C502.108 4.15304 499.942 3.96096 497.915 4.00545ZM425.015 3.837C422.996 3.75781 422.129 4.12289 424.583 3.96395C424.658 3.95869 425.099 3.84119 425.015 3.837ZM188.748 3.57673C188.404 3.57448 184.123 3.4561 183.875 3.51472C183.092 3.70171 185.901 3.62672 186.842 3.69733C188.361 3.81175 186.127 3.90602 189.834 3.83698C189.683 3.87441 189.531 3.91184 189.379 3.94928C191.549 3.96167 190.839 3.70236 191.228 3.66901C191.347 3.65888 192.704 3.68068 192.949 3.66413C196.006 3.45522 189.067 3.57847 188.748 3.57673ZM375.044 3.80916C371.025 3.69926 372.754 3.86052 368.63 3.85066C368.493 3.93295 374.521 3.8813 375.044 3.80916ZM227.88 3.72468C223.724 3.75707 220.306 3.64945 216.429 3.79401C216.682 4.01664 228.958 3.78217 227.88 3.72468ZM32.5922 3.49908C48.7639 3.89557 67.4173 3.76505 84.6349 3.75884C86.5113 3.75828 86.6913 3.84655 87.3702 3.83697C87.815 3.83076 87.7373 3.75967 88.3283 3.75933C109.694 3.74778 130.151 3.65477 150.617 3.69733C151.907 3.70015 158.178 3.85282 159.518 3.62262C160.532 3.44798 156.026 3.58415 155.275 3.58259C154.711 3.58146 154.687 3.49938 154.311 3.49909C153.912 3.49881 154.241 3.55489 153.778 3.55573C151.815 3.55967 149.672 3.53776 147.897 3.54255C130.486 3.58848 113.548 3.57534 96.229 3.56744C94.1326 3.56659 94.5636 3.50083 94.4581 3.50055C94.4567 3.50071 94.4553 3.50088 94.4539 3.50104C83.2137 3.49484 70.3768 3.64236 58.4714 3.586C50.0879 3.54075 41.7043 3.4955 33.3208 3.45026C33.0779 3.46653 32.8351 3.48281 32.5922 3.49908ZM197.623 3.80866C196.577 3.56067 196.343 3.81071 192.591 3.70954C192.285 3.75185 191.98 3.79417 191.675 3.83649C193.66 3.82721 195.645 3.81793 197.63 3.80866C197.627 3.80866 197.625 3.80866 197.623 3.80866ZM172.837 3.71833C172.203 3.3834 163.811 3.6201 160.032 3.55622C159.339 3.72442 164.833 3.64886 166.128 3.66657C166.775 3.6753 170.239 3.8483 172.873 3.7525C172.861 3.74111 172.849 3.72972 172.837 3.71833ZM457.102 3.49912C456.491 3.50888 455.881 3.51865 455.27 3.52841C456.798 3.56552 458.326 3.60263 459.854 3.63974C457.416 3.61581 454.979 3.59189 452.541 3.56796C452.995 3.49847 453.449 3.42897 453.903 3.35947C454.969 3.40602 456.036 3.45257 457.102 3.49912ZM449.193 3.53476C453.462 3.50859 449.005 3.69463 447.94 3.61191C447.302 3.56231 448.757 3.53758 449.193 3.53476ZM438.089 3.41514C440.08 3.29312 444.104 3.28472 442.673 3.52841C440.522 3.41428 439.135 3.50912 436.015 3.44345C436.471 3.39674 436.926 3.35003 437.382 3.30332C437.384 3.30332 437.386 3.30332 437.388 3.30332C437.622 3.34059 437.856 3.37786 438.089 3.41514ZM451.143 3.38731C453.939 3.52731 445.844 3.47944 448.388 3.38731C448.508 3.38308 451.033 3.38195 451.143 3.38731ZM50.4697 3.24714C50.1329 3.32677 52.2834 3.32528 52.9987 3.33063C56.0998 3.3543 60.077 3.31965 63.3019 3.33063C63.0591 3.30443 62.8162 3.27823 62.5734 3.25202C58.5388 3.25039 54.5043 3.24877 50.4697 3.24714ZM73.3904 3.33112C75.6063 3.33112 77.8222 3.33112 80.0381 3.33112C80.2446 3.33112 81.2133 3.26279 80.493 3.24616C78.1255 3.27448 75.7579 3.3028 73.3904 3.33112ZM211.612 3.33113C209.912 3.28654 214.805 3.05797 214.585 3.30281C213.594 3.31225 212.603 3.32169 211.612 3.33113ZM227.421 3.23348C226.356 3.25676 225.29 3.28003 224.225 3.3033C224.223 3.27515 224.222 3.24699 224.221 3.21883C225.287 3.22372 226.354 3.2286 227.421 3.23348ZM41.7584 3.19099C42.887 3.28734 45.5794 3.27251 47.2585 3.27448C46.102 3.19169 43.3455 3.2324 41.7584 3.19099ZM186.156 3.2325C186.293 3.29816 179.535 3.28164 181.875 3.1661C183.302 3.18823 184.729 3.21037 186.156 3.2325ZM172.428 3.13534C173.878 3.12097 175.001 3.14353 174.703 3.24666C173.934 3.24227 173.165 3.23787 172.397 3.23348C172.407 3.20076 172.418 3.16805 172.428 3.13534ZM430.511 3.21885C428.068 3.22813 425.626 3.23741 423.183 3.24668C423.274 3.21853 423.364 3.19037 423.455 3.16221C425.81 3.1531 428.164 3.14398 430.519 3.13487C430.517 3.16286 430.514 3.19086 430.511 3.21885ZM40.377 2.93806C38.6995 2.95646 37.0219 2.97485 35.3444 2.99324C37.0233 3.01212 38.7023 3.031 40.3813 3.04988C40.3813 3.01244 40.3813 2.97501 40.3813 2.93758C40.3799 2.93774 40.3784 2.9379 40.377 2.93806ZM463.973 2.85412C456.511 2.72281 466.032 2.584 468.001 2.77697C468.003 2.77681 468.005 2.77665 468.007 2.77649C468.18 2.79354 467.815 2.87602 468.102 2.90929C467.343 2.87202 466.583 2.83475 465.824 2.79748C465.131 2.84387 464.438 2.89025 463.745 2.93664C463.517 2.91841 463.289 2.90018 463.061 2.88195C463.365 2.87267 463.669 2.8634 463.973 2.85412ZM494.089 2.78088C500.855 2.79611 493.932 3.00236 490.583 2.83947C490.607 2.80178 493.465 2.77947 494.089 2.78088ZM476.356 2.82531C475.29 2.84403 474.224 2.86275 473.158 2.88146C473.022 2.85786 472.886 2.83426 472.749 2.81066C473.568 2.78723 474.386 2.76379 475.205 2.74035C475.589 2.76867 475.973 2.79699 476.356 2.82531ZM441.292 2.46106C439.576 2.43514 437.388 2.69755 442.897 2.62854C442.894 2.60038 442.891 2.57223 442.888 2.54407C442.669 2.54857 442.024 2.57498 441.989 2.57288C441.888 2.56583 442.007 2.47181 441.292 2.46106ZM506.618 2.03921C506.81 2.02849 506.915 1.73149 508.919 2.03872C509.525 2.02 510.131 2.00129 510.736 1.98257C510.893 2.048 511.049 2.11342 511.206 2.17885C508.862 2.12813 508.613 2.2605 508.443 2.26332C507.664 2.27571 508.241 2.20762 507.738 2.20668C506.44 2.20443 503.49 2.25015 504.828 2.05581C505.31 1.9862 506.425 2.04992 506.618 2.03921ZM502.034 1.87027C502.318 1.89506 501.402 1.98194 501.617 2.00649C501.805 2.02791 504.63 2.11655 503.866 2.26332C503.402 2.25714 502.938 2.25095 502.474 2.24477C502.316 2.20457 502.159 2.16437 502.002 2.12416C501.553 2.16127 501.104 2.19838 500.654 2.23549C499.897 2.13629 498.286 2.00778 500.199 1.92691C499.496 1.93537 498.793 1.94383 498.09 1.95229C497.725 1.99982 497.361 2.04734 496.997 2.09487C497.188 2.02244 497.379 1.95002 497.569 1.87759C499.057 1.87515 500.546 1.87271 502.034 1.87027ZM523.836 1.8981C523.75 1.93553 523.665 1.97297 523.579 2.0104C526.162 1.94081 530.184 1.91435 527.9 2.14907C524.401 2.1686 520.902 2.18813 517.403 2.20766C517.171 2.1795 516.938 2.15135 516.706 2.12319C519.316 2.23167 518.51 1.77004 520.781 1.90249C521.164 1.92495 520.052 2.08638 522.459 1.98306C522.373 1.94546 522.288 1.90786 522.202 1.87027C522.747 1.87955 523.292 1.88882 523.836 1.8981ZM546.041 1.95425C541.618 1.90014 546.49 1.76354 547.306 1.87711C547.305 1.87711 547.304 1.87711 547.302 1.87711C549.54 2.18788 544.728 2.03773 544.434 2.0397C544.044 2.04245 543.135 2.26494 541.012 1.94058C542.689 1.94514 544.365 1.94969 546.041 1.95425ZM531.602 1.89859C531.974 1.89126 531.768 1.94776 531.928 1.94693C531.93 1.94693 531.931 1.94693 531.933 1.94693C534.3 1.93481 539.93 1.88422 540.541 2.06655C538.788 2.08177 530.947 2.12117 530.473 1.99722C530.85 1.96434 531.226 1.93146 531.602 1.89859ZM514.944 2.03433C513.49 1.91628 516.762 1.90056 517.62 1.95523C517.782 1.96707 516.449 2.15661 514.944 2.03433ZM403.461 1.72964C400.263 1.80065 404.465 1.87153 403.01 1.98256C403.621 1.97312 404.232 1.96368 404.842 1.95424C404.382 1.87937 403.921 1.8045 403.461 1.72964ZM257.674 1.50551C256.929 1.49239 257.282 1.56017 257.217 1.56117C256.727 1.55928 256.266 1.50407 256.078 1.5099C252.604 1.62137 254.914 1.6783 254.949 1.69154C255.023 1.7586 254.109 1.83706 255.375 1.9137C256.142 1.88994 256.91 1.86618 257.678 1.84241C258.059 1.87968 258.44 1.91696 258.822 1.95423C260.347 1.87426 258.351 1.85233 258.125 1.74623C258.037 1.70452 259.472 1.65459 257.674 1.50551ZM397.731 1.50503C397.213 1.62283 395.942 1.77143 397.19 1.88979C397.191 1.88979 397.193 1.88979 397.194 1.88979C397.425 1.91144 398.365 1.92335 398.654 1.95375C400.712 1.79682 399.923 1.63464 397.731 1.50503ZM271.447 1.29458C272.686 1.32209 273.924 1.34959 275.162 1.3771C275.141 1.44773 275.12 1.51837 275.099 1.58901C274.436 1.56996 273.774 1.55092 273.111 1.53188C272.879 1.5641 272.646 1.59633 272.414 1.62855C273.237 1.70912 274.059 1.78968 274.882 1.87025C275.873 1.84209 276.864 1.81393 277.855 1.78578C277.4 1.74851 276.944 1.71123 276.489 1.67396C278.911 1.63282 278.383 1.80459 280.388 1.87025C281.075 1.80482 281.761 1.73939 282.448 1.67396C283.442 1.73972 284.435 1.80547 285.429 1.87122C287.099 1.84051 287.246 1.79043 286.122 1.71547C286.953 1.6298 287.862 1.76454 288.862 1.72963C288.944 1.72681 288.789 1.64613 288.862 1.64516C294.032 1.59077 293.757 1.80264 294.583 1.81166C295.166 1.81785 297.492 1.67487 297.529 1.62612C297.574 1.56042 292.735 1.30136 300.313 1.29458C296.395 1.11539 291.941 1.2978 294.821 1.56069C293.581 1.53423 288.113 1.59983 287.765 1.59194C287.256 1.58003 287.435 1.48029 286.798 1.47768C286.422 1.47627 285.425 1.70426 282.448 1.50502C282.067 1.54246 281.687 1.57989 281.306 1.61733C280.95 1.58656 280.593 1.5558 280.237 1.52504C280.971 1.41535 281.705 1.30565 282.439 1.19595C279.531 1.31514 277.118 1.09123 275.347 1.27993C273.816 1.25797 273.072 1.23626 273.73 1.1398C273.27 1.1398 272.811 1.1398 272.351 1.1398C272.05 1.19139 271.749 1.24299 271.447 1.29458ZM388.336 1.67349C386.814 1.56397 386.267 1.80024 386.504 1.81362C387.838 1.88714 389.127 1.73046 388.336 1.67349ZM260.437 1.63099C262.116 1.69187 263.795 1.75274 265.474 1.81361C265.474 1.7389 265.474 1.6642 265.474 1.58949C263.795 1.60333 262.116 1.61716 260.437 1.63099ZM403.928 1.56167C404.083 1.61766 404.237 1.67365 404.392 1.72964C406.231 1.52513 408.057 1.81855 408.965 1.75796C409.162 1.74472 408.764 1.64586 408.388 1.62466C408.154 1.61142 404.254 1.54279 403.928 1.56167ZM480.486 1.58853C479.801 1.62613 479.116 1.66373 478.431 1.70132C478.469 1.63834 478.506 1.57535 478.544 1.51237C478.883 1.50065 479.221 1.48893 479.559 1.47721C479.868 1.51432 480.177 1.55143 480.486 1.58853ZM472.69 1.68863C471.468 1.68358 470.246 1.67854 469.024 1.67349C473.685 1.61572 469.86 1.58753 472.69 1.50553C472.69 1.56656 472.69 1.6276 472.69 1.68863ZM460.321 1.56119C460.472 1.52359 460.622 1.486 460.772 1.4484C461.994 1.4484 463.216 1.4484 464.438 1.4484C463.665 1.31787 462.893 1.18734 462.12 1.05681C461.672 1.05649 461.224 1.05616 460.776 1.05583C460.625 1.22429 460.473 1.39274 460.321 1.56119ZM224.665 1.22475C223.926 1.2225 221.356 1.33657 221.466 1.37856C222.534 1.43015 223.601 1.48174 224.669 1.53334C224.674 1.45847 224.679 1.3836 224.684 1.30874C224.835 1.34601 224.986 1.38328 225.137 1.42055C225.744 1.39255 226.351 1.36456 226.958 1.33657C227.264 1.402 227.57 1.46742 227.876 1.53285C228.183 1.45815 228.491 1.38344 228.798 1.30874C225.867 1.17629 225.968 1.30867 225.358 1.30727C225.048 1.30664 224.852 1.26028 224.743 1.23696C224.717 1.23289 224.691 1.22882 224.665 1.22475ZM261.597 1.15445C258.097 1.13585 256.096 1.33295 253.564 1.16812C255.188 1.51924 265.676 1.15656 269.373 1.44936C269.757 1.39305 270.141 1.33673 270.525 1.28042C268.512 1.33057 267.117 1.21458 266.135 1.1979C265.355 1.18466 265.436 1.24367 265.377 1.24282C265.374 1.24282 265.371 1.24282 265.368 1.24282C263.542 1.21859 262.978 1.16178 261.597 1.15445ZM406.529 1.28629C405.588 1.19732 403.943 1.20622 403.924 1.33609C404.84 1.37369 405.756 1.41129 406.672 1.44888C406.484 1.41563 406.689 1.30151 406.529 1.28629ZM458.9 1.19841C458.166 1.15614 456.432 1.19318 457.18 1.30534C457.314 1.32524 459.041 1.24641 458.028 1.44889C459.711 1.44576 459.318 1.2227 458.9 1.19841ZM321.412 1.42056C322.029 1.41681 322.647 1.41307 323.265 1.40933C323.409 1.35692 323.553 1.30451 323.697 1.25211C322.935 1.30826 322.173 1.36441 321.412 1.42056ZM414.467 1.19645C415.289 1.45293 416.691 1.20334 418.232 1.41422C418.802 1.41585 419.371 1.41747 419.94 1.4191C419.942 1.4191 419.943 1.4191 419.944 1.4191C419.96 1.34912 419.975 1.27913 419.991 1.20915C418.15 1.20491 416.309 1.20068 414.467 1.19645ZM282.898 1.29409C283.279 1.32664 283.659 1.3592 284.04 1.39175C284.717 1.35382 285.394 1.3159 286.072 1.27798C285.705 1.2508 285.339 1.22362 284.972 1.19644C284.281 1.22899 283.59 1.26154 282.898 1.29409ZM424.474 1.17448C422.483 1.14235 421.734 1.36532 424.28 1.36588C425.353 1.36588 426.56 1.20805 424.474 1.17448ZM186.627 1.30776C187.309 1.3268 187.992 1.34584 188.674 1.36488C188.906 1.31801 189.139 1.27114 189.371 1.22426C188.456 1.25209 187.542 1.27993 186.627 1.30776ZM468.342 1.2238C468.262 1.27067 468.182 1.31755 468.102 1.36442C467.494 1.35498 466.885 1.34554 466.276 1.3361C466.429 1.28955 466.582 1.243 466.735 1.19646C467.271 1.20557 467.807 1.21468 468.342 1.2238ZM191.218 1.33656C191.763 1.34552 192.308 1.35447 192.854 1.36342C193.22 1.34063 193.587 1.31785 193.953 1.29506C193.443 1.27244 192.932 1.24982 192.422 1.22719C192.021 1.26365 191.619 1.30011 191.218 1.33656ZM443.347 1.19597C442.581 1.13961 439.521 1.31521 442.278 1.36002C444.034 1.38848 443.462 1.20454 443.347 1.19597ZM447.477 1.13982C444.559 1.03245 446.747 1.57739 450.229 1.22429C446.723 1.2727 447.648 1.1463 447.477 1.13982ZM473.135 0.858576C473.208 0.858858 473.269 0.937214 473.855 0.940117C475.965 0.950262 478.751 0.981223 480.26 0.986014C483.889 0.997568 495.004 0.85592 496.304 1.08269C496.575 1.13032 495.952 1.27262 496.062 1.27995C496.385 1.30039 498.244 1.23134 497.9 1.3361C496.076 1.33529 494.252 1.33447 492.427 1.33366C492.875 1.25977 493.323 1.18588 493.771 1.11199C489.225 1.15143 490.73 1.14688 489.422 1.30778C488.653 1.24545 487.884 1.18311 487.115 1.12078C485.44 1.18344 483.765 1.2461 482.09 1.30876C482.47 1.26205 482.85 1.21534 483.23 1.16863C480.706 1.08212 481.407 1.13885 480.027 1.25212C480.024 1.20541 480.021 1.1587 480.018 1.11199C477.582 1.22584 477.108 1.08585 476.575 1.08416C475.484 1.0814 474.092 1.63408 469.928 1.08415C468.172 1.34864 468.212 0.810579 467.18 1.08415C464.208 0.786332 469.86 0.894121 472.535 0.903985C472.536 0.903985 472.537 0.903985 472.539 0.903985C472.741 0.90483 472.42 0.854679 473.135 0.858576ZM457.868 1.13249C459.667 0.889713 452.56 0.866986 454.912 1.21745C455.262 1.22884 455.612 1.24024 455.963 1.25163C456.599 1.21192 457.236 1.1722 457.873 1.13249C457.871 1.13249 457.87 1.13249 457.868 1.13249ZM391.084 0.971359C384.5 1.07112 388.243 1.21078 390.473 1.07438C390.918 1.04733 391.161 1.01024 391.084 0.971359ZM256.596 0.967929C256.5 0.997062 256.404 1.0262 256.307 1.05533C258.515 1.02806 262.784 1.14044 262.726 0.944004C260.682 0.951979 258.639 0.959954 256.596 0.967929ZM274.061 0.839517C273.587 0.827668 271.65 0.799701 271.883 0.873207C272.723 0.925288 273.562 0.97737 274.402 1.02945C274.793 0.996901 275.184 0.96435 275.575 0.931799C275.029 0.920729 274.189 0.842614 274.061 0.839517Z" fill="#1AB9A2"/>
</svg>
