<svg width="347" height="9" viewBox="0 0 347 9" fill="none" xmlns="http://www.w3.org/2000/svg">
<path d="M7.98658 0.996248C15.2403 0.297101 20.1917 1.03996 26.9207 1.15835C41.734 1.41846 61.2684 1.18419 76.4189 1.20278C87.8862 1.21687 99.5385 1.26677 110.937 1.30678C111.521 1.30876 111.87 1.3854 112.135 1.38637C114.631 1.39539 118.816 1.32595 121.291 1.33608C126.499 1.35722 135.56 1.34527 140.33 1.41713C142.355 1.44756 144.433 1.46024 145.22 1.64271C145.96 1.652 146.364 1.48714 146.558 1.47817C146.56 1.47833 146.562 1.47849 146.564 1.47865C147.187 1.45082 148.758 1.56642 149.105 1.55922C149.157 1.55809 148.838 1.43868 149.679 1.47475C149.754 1.47785 149.685 1.55904 150.394 1.56019C150.578 1.56048 152.948 1.43597 153.625 1.42836C155.879 1.40358 161.261 1.50133 163.956 1.49965C164.368 1.49965 164.605 1.45216 165.041 1.45131C165.265 1.45082 165.603 1.50237 165.672 1.50209C165.975 1.50026 167.299 1.26613 166.824 1.72816C168.206 1.69886 167.799 1.54612 167.83 1.44692C169.331 1.43259 170.055 1.65019 170.447 1.41957C177.828 1.44741 185.21 1.47524 192.591 1.50307C192.594 1.46547 192.596 1.42787 192.598 1.39028C194.774 1.54045 195.52 1.28644 196.762 1.50453C197.528 1.45652 198.294 1.40851 199.06 1.36049C218.743 1.50843 238.381 1.33259 257.842 1.33315C258.664 1.33315 258.869 1.41315 260.223 1.41372C261.719 1.41428 263.823 1.3213 265.794 1.32241C267.523 1.32325 270.073 1.39894 272.001 1.41079C272.437 1.41332 272.751 1.36265 272.8 1.36294C273.088 1.36491 273.103 1.44513 273.382 1.44741C273.717 1.44994 274.12 1.39052 274.507 1.39418C275.95 1.40742 277.522 1.38694 277.705 1.38833C278.585 1.39592 278.78 1.47437 278.852 1.47524C279.831 1.48481 279.464 1.414 279.708 1.41811C280.973 1.43981 281.867 1.61657 283.599 1.44692C283.552 1.51251 283.505 1.5781 283.458 1.64369C284.783 1.68059 283.908 1.50631 284.179 1.47475C284.289 1.46305 287.143 1.48434 287.363 1.48744C288.129 1.49871 288.15 1.58588 288.216 1.58705C288.377 1.58987 290.305 1.49094 291.294 1.56703C292.464 1.6572 291.087 1.83451 291.377 1.8678C291.426 1.87344 292.651 1.85527 292.815 1.91077C292.997 1.97049 291.938 1.96922 291.954 1.99426C291.966 2.01145 293.724 2.13455 293.387 2.2174C293.116 2.3005 290.73 2.19395 290.225 2.23303C290.142 2.23949 290.299 2.34205 290.225 2.34582C289.928 2.35962 284.433 2.3627 284.181 2.34582C284.468 2.2991 284.754 2.25239 285.04 2.20568C284.659 2.20096 284.279 2.19624 283.898 2.19152C284.439 2.15409 284.98 2.11666 285.521 2.07922C284.717 1.69461 282.296 2.08451 282.196 2.27648C282.153 2.36525 283.633 2.59365 282.255 2.72666C282.465 2.74945 282.674 2.77223 282.884 2.79502C283.316 2.75759 283.747 2.72015 284.179 2.68272C283.891 2.65912 283.604 2.63552 283.316 2.61192C283.422 2.58523 283.528 2.55854 283.634 2.53184C284.441 2.48904 285.248 2.44624 286.054 2.40343C286.469 2.42316 286.383 2.50196 286.668 2.5172C290.225 2.7091 287.905 2.4649 290.233 2.50011C290.566 2.54242 290.898 2.58474 291.23 2.62706C291.113 2.45204 292.145 2.56193 293.392 2.48644C293.243 2.54307 293.094 2.59971 292.945 2.65635C294.752 2.6262 298.415 2.91175 297.426 2.59923C297.84 2.62592 298.254 2.65261 298.668 2.6793C299.018 2.6282 299.368 2.57709 299.717 2.52599C300.201 2.53184 300.684 2.5377 301.167 2.54356C301.169 2.57123 301.172 2.5989 301.174 2.62657C300.788 2.62673 300.403 2.62689 300.018 2.62706C300.307 2.71136 300.596 2.79567 300.885 2.87998C301.17 2.86598 301.454 2.85198 301.739 2.83799C300.546 2.75825 302.118 2.62801 302.499 2.51671C303.505 2.47558 304.147 2.62006 304.485 2.62657C304.643 2.62967 306.51 2.37477 305.778 2.65489C306.739 2.62087 307.7 2.58686 308.661 2.55284C309.036 2.57432 309.412 2.59581 309.788 2.61729C308.972 2.74777 311.335 2.90497 309.595 2.95908C308.295 2.99966 307.974 2.87767 307.358 2.87851C306.802 2.87911 306.508 2.96127 305.903 2.96494C301.833 2.98805 298.519 2.97297 294.654 2.93662C293.89 2.92931 293.196 2.9696 292.683 2.96396C292.104 2.95746 292.829 2.85441 292.092 2.87949C291.317 2.906 291.149 2.9901 290.945 2.99179C290.818 2.99275 290.414 2.91709 290.043 2.91709C288.517 2.9171 286.281 2.99026 286.064 2.98984C285.819 2.98899 281.503 2.92072 281.296 2.9083C281.187 2.90153 281.414 2.62214 280.463 2.92002C280.166 2.92555 279.87 2.93108 279.573 2.93662C279.621 2.88079 279.669 2.82497 279.717 2.76914C277.959 2.98077 278.564 2.86238 276.869 2.879C272.811 2.91901 266.825 2.87197 262.387 2.8917C261.396 2.89621 261.019 2.96306 259.846 2.96787C258.757 2.97209 255.913 2.77264 256.532 3.04892C254.108 2.80969 253.718 3.22222 252.505 2.96494C252.358 3.00237 252.211 3.0398 252.065 3.07724C250.748 2.91661 250.341 3.05778 248.903 3.07724C248.283 3.08569 248.998 2.91485 247.747 3.10507C247.508 3.09091 247.269 3.07675 247.03 3.06259C247.086 3.02125 247.141 2.97991 247.197 2.93857C245.808 2.97239 245.718 2.95085 245.877 3.10556C245.206 3.0774 244.535 3.04924 243.865 3.02109C243.781 3.07187 243.698 3.12265 243.615 3.17343C243.936 3.27028 259.163 3.12422 261.284 3.07773C263.771 3.19267 268.767 3.04897 270.776 3.07626C271.581 3.08725 271.936 3.2021 273.106 3.21591C274.275 3.2297 275.748 3.12539 276.37 3.12167C278.445 3.10871 288.276 3.13162 281.59 3.2745C281.782 3.33049 281.975 3.38647 282.167 3.44246C284.824 3.25141 283.862 3.36903 286.066 3.38875C286.994 3.39717 289.202 3.27215 289.078 3.52644C287.355 3.57379 285.524 3.49251 284.025 3.49617C283.877 3.49657 282.103 3.61268 281.189 3.58113C280.366 3.55233 280.933 3.30991 279.14 3.58211C277.809 3.31622 277.039 3.55744 276.688 3.58308C276.08 3.62754 276.014 3.49632 275.406 3.48103C274.744 3.46415 274.289 3.55126 274.198 3.55183C273.291 3.5538 268.564 3.56568 268.348 3.51277C268.538 3.4895 268.728 3.46622 268.918 3.44295C267.69 3.40549 267.947 3.53968 267.624 3.55574C267.384 3.55525 267.144 3.55476 266.903 3.55427C266.999 3.52644 267.094 3.49861 267.189 3.47078C265.739 3.4767 266.849 3.57341 264.791 3.57088C263.484 3.56917 262.135 3.46292 262.008 3.47078C261.97 3.47303 262.382 3.54467 261.849 3.55427C260.967 3.57005 259.443 3.56823 259.272 3.47078C258.84 3.48457 258.877 3.57993 258.82 3.58211C258.569 3.5914 254.255 3.62383 253.483 3.62947C251.341 3.64497 248.957 3.62463 246.637 3.6407C246.399 3.6423 246.551 3.58111 246.312 3.58308C245.928 3.58622 243.958 3.68225 243.664 3.68904C242.929 3.70565 240.997 3.66756 240.693 3.69538C240.649 3.69933 241.285 3.78204 240.542 3.80768C239.716 3.83606 240.161 3.72481 240.116 3.7237C238.436 3.68566 237.375 3.76295 236.228 3.7779C235.857 3.78269 235.171 3.69897 234.646 3.7237C234.586 3.72651 234.706 3.80388 234.646 3.80768C233.854 3.84827 233.112 3.70468 232.769 3.69538C231.93 3.67265 232.387 3.77861 232.343 3.77937C231.784 3.78275 231.032 3.74452 230.182 3.74958C226.392 3.77213 223.299 3.7786 219.27 3.77155C218.764 3.77071 218.164 3.69597 218.086 3.69587C217.847 3.69644 217.916 3.78427 217.224 3.78229C215.766 3.77779 214.414 3.78203 212.97 3.78034C212.679 3.77999 212.555 3.69861 212.334 3.69685C211.59 3.69178 209.055 3.90487 209.014 3.63972C207.538 3.87445 206.558 3.67214 205.371 3.67439C202.558 3.67946 198.154 3.72728 195.349 3.69685C194.759 3.69032 194.482 3.62239 194.154 3.61873C193.565 3.61198 190.197 3.64993 190.021 3.63923C189.675 3.61866 189.883 3.31948 188.105 3.58015C187.062 3.59873 187.185 3.47594 186.97 3.46932C185.289 3.42 183.655 3.69404 183.96 3.44295C182.004 3.51113 180.736 3.64989 179.938 3.41512C179.948 3.52969 179.028 3.59842 177.919 3.55476C179.055 3.3623 178.914 3.2393 181.66 3.2745C181.703 3.27506 181.621 3.35792 181.664 3.35848C182.056 3.36407 182.874 3.32225 183.542 3.32674C184.211 3.33125 183.84 3.38789 184.107 3.3868C184.352 3.38567 184.344 3.30639 184.698 3.30526C185.848 3.30216 186.866 3.2803 187.52 3.27889C187.932 3.27807 188.393 3.34774 188.713 3.34774C189.949 3.34717 192.569 3.29277 194.143 3.30038C194.471 3.30215 194.333 3.38032 195.05 3.3868C195.134 3.38755 195.44 3.30605 196.068 3.28915C196.696 3.27224 197.183 3.31272 197.586 3.30428C197.923 3.29724 197.782 3.22483 198.474 3.2203C199.05 3.21664 205.578 3.2688 205.933 3.28036C206.443 3.29701 206.685 3.39871 206.996 3.38631C207.051 3.38365 207.144 3.28543 207.334 3.2784C210.464 3.16233 217.391 3.29633 220.967 3.29549C228.443 3.29408 235.34 3.23629 242.882 3.21346C243.016 3.19638 243.151 3.17929 243.285 3.1622C242.523 3.16155 241.761 3.16089 240.998 3.16024C240.993 3.11402 240.989 3.0678 240.984 3.02158C239.953 3.01426 240.09 3.12357 240.119 3.18954C239.737 3.16155 239.356 3.13355 238.974 3.10556C238.645 3.26664 236.102 3.15951 234.79 3.15976C233.938 3.15976 232.923 3.22116 232.473 3.21639C231.523 3.20654 231.548 3.10714 231.473 3.10556C231.346 3.1033 230.02 3.19097 229.063 3.18759C227.648 3.18276 227.495 3.03014 225.559 3.15976C223.078 3.08057 220.328 3.12042 217.654 3.13339C218.163 2.99232 215.766 3.12584 214.686 3.12362C208.092 3.10982 199.987 3.04954 193.307 2.99374C192.448 2.9867 191.8 2.90359 191.321 2.90635C191.062 2.90775 190.949 3.00573 190.589 2.99277C190.525 2.99027 190.481 2.89866 189.811 2.88486C188.142 2.8502 183.986 3.0031 182.934 2.82725C177.229 2.85443 171.524 2.88161 165.818 2.90879C165.675 2.87135 165.532 2.83392 165.389 2.79649C164.305 2.98778 160.02 2.87537 157.931 2.88437C154.253 2.90044 149.561 2.95992 146.339 2.9664C145.639 2.96781 145.065 2.91354 144.403 2.91465C144.118 2.91521 143.763 2.98557 143.466 2.98593C140.135 2.99129 135.624 2.91881 132.266 2.9205C124.644 2.92417 117.465 2.9135 109.741 2.9166C83.7223 2.92759 57.8537 3.03106 32.0571 2.98935C31.7112 2.98879 31.7285 2.90789 31.4605 2.90732C29.8783 2.90338 26.3451 2.97006 24.5583 2.9664C23.1346 2.96358 20.8749 2.83989 20.3849 2.96445C25.4428 3.15298 30.7865 3.13879 36.0518 3.19149C36.4262 3.1952 36.4727 3.27211 36.5188 3.27352C37.3712 3.30024 36.8329 3.19433 38.0691 3.18954C38.4822 3.18793 42.2983 3.43345 41.8443 3.18905C42.7582 3.28682 49.2004 3.33569 50.4436 3.30331C50.8211 3.29344 50.5539 3.22103 50.6288 3.21737C50.9542 3.20138 51.1012 3.30121 51.392 3.30379C52.1673 3.30999 54.1391 3.22901 54.5138 3.22958C55.3758 3.23044 57.9602 3.31171 59.0985 3.29256C60.1418 3.27509 59.9465 3.1708 60.8485 3.16122C61.5595 3.15394 60.785 3.24166 62.3724 3.26815C63.1591 3.28111 65.9112 3.21836 66.5801 3.21835C67.2487 3.21835 67.9926 3.28075 68.9148 3.27596C70.2433 3.2692 73.1331 3.23445 74.485 3.21444C74.5657 3.21331 74.7623 3.13219 74.9612 3.13388C75.3731 3.13728 75.2494 3.23747 75.5604 3.24764C75.8716 3.25779 81.2614 3.24555 82.1769 3.24667C82.8079 3.24723 83.2436 3.18755 83.5923 3.18807C83.8659 3.18864 83.8952 3.2721 84.1743 3.27303C84.2608 3.27303 84.9963 3.20054 85.7312 3.20223C86.4256 3.20394 89.0621 3.27287 89.3675 3.27352C89.5664 3.2738 89.3484 3.2145 89.9363 3.21591C90.4721 3.21736 90.824 3.29437 91.1294 3.29549C91.8381 3.298 92.6302 3.23233 93.3821 3.23202C95.5436 3.23117 95.4324 3.32657 95.562 3.32967C95.9216 3.33829 96.0657 3.25091 96.1837 3.24911C96.6821 3.24178 97.9035 3.22564 98.3478 3.22225C98.9011 3.21803 99.1356 3.30107 99.7235 3.30135C100.162 3.3013 101.047 3.22034 102.046 3.21639C104.3 3.20709 106.98 3.19181 109.193 3.19491C109.853 3.19576 109.954 3.27155 110.156 3.27352C111.216 3.28392 111.81 3.19917 112.113 3.20028C114.271 3.20789 118.122 3.34086 120.125 3.35213C120.94 3.35664 124.511 3.29524 126.525 3.30624C126.756 3.30737 126.54 3.3668 126.797 3.3575C127.41 3.3352 127.353 3.2142 127.664 3.21786C127.815 3.22 128.157 3.28822 128.594 3.29501C130.862 3.33023 132.422 3.27718 133.457 3.28085C143.394 3.31607 153.527 3.34777 162.806 3.35848C163.841 3.35961 165.124 3.28761 166.686 3.3575C166.734 3.3951 166.782 3.4327 166.83 3.47029C166.885 3.43335 166.94 3.3964 166.994 3.35946C168.764 3.33945 169.432 3.2919 171.239 3.33895C171.395 3.34289 171.87 3.51453 172.164 3.30135C173.953 3.45578 172.971 3.3001 174.3 3.28573C175.628 3.27136 176.919 3.31896 178.208 3.32967C178.914 3.40604 175.951 3.58218 175.758 3.58162C175.447 3.58094 175.123 3.47495 174.824 3.46932C173.937 3.45246 173.078 3.53657 172.879 3.44197C171.733 3.54199 173.16 3.49202 173.017 3.58211C172.252 3.54483 171.486 3.50756 170.721 3.47029C170.331 3.7767 166.101 3.37711 166.395 3.61042C166.059 3.56371 165.722 3.517 165.386 3.47029C163.911 3.76299 163.043 3.55689 161.075 3.4698C161.217 3.50724 161.359 3.54467 161.501 3.58211C161.461 3.59773 159.724 3.65759 160.345 3.49812C158.564 3.70823 158.639 3.35874 157.043 3.6114C156.095 3.64381 156.665 3.49706 154.968 3.49959C153.962 3.501 152.713 3.57773 151.589 3.58308C151.33 3.58407 151.218 3.4991 150.988 3.4991C150.757 3.49913 150.645 3.58245 150.366 3.58455C149.789 3.58906 149.042 3.53057 148.682 3.53621C148.359 3.54102 147.898 3.6145 147.12 3.62605C144.403 3.66689 145.223 3.56196 144.794 3.52644C144.333 3.48868 144.002 3.62695 143.083 3.61091C142.99 3.60922 143.229 3.52306 142.929 3.52644C142.687 3.52909 142.566 3.62275 141.765 3.64021C141.446 3.64726 136.497 3.66732 135.743 3.66902C134.587 3.67155 132.013 3.59228 130.817 3.59285C130.356 3.59286 129.863 3.66805 129.373 3.66755C127.751 3.66586 125.153 3.6595 123.096 3.65583C121.243 3.65243 117.99 3.48646 116.975 3.6363C114.373 3.65574 113.741 3.5277 113.545 3.52595C113.015 3.52116 112.769 3.60599 112.101 3.60994C103.44 3.65925 92.0363 3.60317 83.8343 3.60994C64.8078 3.62628 45.6776 3.67263 26.5848 3.63826C26.5336 3.67585 26.4825 3.71345 26.4313 3.75105C28.6879 3.77528 31.3399 3.8406 33.5677 3.85553C36.5418 3.87524 40.9537 3.71867 43.1353 3.97565C42.2505 3.99818 40.8091 3.89965 40.835 4.0318C42.4166 4.04124 43.9982 4.05068 45.5798 4.06012C45.5326 3.99909 45.4854 3.93805 45.4382 3.87702C47.0896 3.85927 48.7786 3.87257 50.4357 3.86384C50.7235 3.8624 50.5197 3.80699 50.7703 3.80671C51.0508 3.80651 50.8606 3.8629 50.9132 3.86335C51.622 3.86391 51.836 3.80686 51.9225 3.80768C52.1444 3.80994 51.9718 3.86424 52.6116 3.87946C53.7985 3.90789 54.6484 3.76362 54.3696 4.00397C54.7528 4.00397 55.1359 4.00397 55.5191 4.00397C55.6183 3.93854 55.7175 3.87311 55.8167 3.80768C58.1736 4.07184 59.2603 3.60847 60.5628 3.97614C60.9923 3.91999 61.4217 3.86384 61.8512 3.80768C62.0933 3.87311 62.3353 3.93854 62.5774 4.00397C62.6246 3.94782 62.6718 3.89167 62.7189 3.83552C65.0329 3.87692 67.4967 3.80951 69.7098 3.81599C71.2514 3.82049 71.6207 3.84266 72.9863 3.83845C76.0237 3.82886 73.0074 3.94028 75.5313 4.06061C75.3999 3.99176 75.2685 3.92292 75.1371 3.85407C75.5551 3.82884 75.9731 3.80362 76.3911 3.77839C76.6821 3.83454 76.9731 3.89069 77.2641 3.94684C78.555 3.6556 79.3913 3.89069 79.5671 3.89069C79.7091 3.89018 80.1968 3.71485 81.7245 3.86335C81.091 3.62364 82.89 3.86194 83.0341 3.86335C83.171 3.86432 84.9225 3.8108 85.6333 3.81306C86.1925 3.81476 87.3853 3.86636 88.218 3.86384C88.9532 3.86159 88.8786 3.78021 88.9323 3.77937C89.8372 3.7726 89.2702 3.83583 89.9244 3.83893C90.5786 3.84203 91.0861 3.77268 91.2273 3.77888C91.2984 3.78218 91.0608 3.85798 91.386 3.8653C92.2594 3.88527 93.8387 3.8189 94.8385 3.82087C95.1929 3.82148 95.6396 3.88579 96.0343 3.88776C96.6394 3.89056 96.9221 3.80515 97.2737 3.80768C97.396 3.8088 98.1765 3.94074 99.1468 3.92047C99.3313 3.91641 99.8735 3.6372 100.594 4.03278C100.649 3.97711 100.705 3.92145 100.761 3.86579C104.014 3.72798 104.92 4.18017 106.366 3.77888C108.729 3.8237 107.107 3.98002 107.366 4.00397C107.534 4.0191 108.304 3.97613 108.389 3.97858C108.539 3.98337 108.513 4.03354 108.677 4.03326C111.689 4.02396 110.352 3.92923 111.306 3.86921C113.574 3.72633 115.343 4.04353 111.398 3.94831C111.398 3.9763 111.398 4.00429 111.398 4.03229C112.37 4.00553 114.835 4.01824 114.012 4.16021C113.364 4.27209 107.514 4.19907 110.827 4.35601C111.579 4.39152 111.969 4.28646 113.271 4.48345C114.133 4.49413 114.257 4.23893 115.423 4.34136C115.232 4.25233 115.04 4.16331 114.848 4.07428C116.439 3.95823 118.401 4.1139 119.623 4.06402C120.038 4.04703 121.534 3.62258 121.185 4.04694C121.884 4.02048 125.171 4.09865 125.782 4.06061C125.929 4.05142 126.12 3.82549 128.246 3.90436C128.394 3.93268 128.542 3.961 128.69 3.98932C126.745 4.0716 130.179 4.15528 129.246 4.36968C128.929 4.27332 127.388 4.21454 127.139 4.16607C126.716 4.08266 127.978 3.97515 126.369 4.00446C125.356 4.36278 128.254 4.19789 127.811 4.53813C129.923 4.37931 130.134 4.53085 130.612 4.53715C132.655 4.5628 133.941 4.52673 135.868 4.56645C136.338 4.49656 132.848 4.39568 132.416 4.42583C134.007 4.17812 131.269 4.16691 130.113 4.31402C130.016 4.23915 129.919 4.16428 129.822 4.08941C131.326 4.12999 132.794 4.15084 134.284 4.08941C134.381 4.11741 134.478 4.1454 134.575 4.1734C134.24 4.21555 133.906 4.2577 133.572 4.29986C134.811 4.36889 134.068 4.15057 135.719 4.34185C135.77 4.25754 135.821 4.17323 135.872 4.08893C137.455 4.11692 139.038 4.14491 140.621 4.17291C141.445 4.00385 144.491 4.06682 143.933 4.2857C145.163 4.30115 143.645 4.18466 144.797 4.13141C145.298 4.1083 146.278 4.1018 146.521 4.1607C146.416 4.36913 144.95 4.395 144.506 4.53813C144.775 4.58431 151.596 4.4355 150.988 4.67924C151.532 4.70854 151.282 4.58297 152.264 4.55083C155.016 4.46121 159.279 4.7094 161.496 4.398C158.893 4.22469 158.123 4.40825 156.129 4.41558C154.855 4.42037 147.089 4.44992 148.823 4.22955C148.538 4.25754 148.253 4.28553 147.968 4.31353C147.679 4.24794 147.391 4.18235 147.103 4.11676C147.915 4.10732 148.728 4.09788 149.54 4.08844C149.734 4.15387 149.928 4.21929 150.122 4.28472C150.212 4.23801 150.301 4.1913 150.391 4.14459C150.733 4.13531 151.075 4.12603 151.417 4.11676C151.321 4.17291 151.225 4.22906 151.129 4.28521C151.656 4.29481 152.184 4.30441 152.711 4.31402C152.569 4.23899 152.427 4.16396 152.285 4.08893C154.769 4.07006 153.928 4.11705 155.305 4.25738C156.333 4.27173 154.596 4.12751 156.772 4.09088C159.302 4.04834 157.642 4.2776 160.919 4.22857C160.966 4.19114 161.013 4.1537 161.06 4.11627C161.781 4.1537 162.501 4.19114 163.222 4.22857C163.127 4.18202 163.031 4.13547 162.936 4.08893C164.423 4.10696 166.472 4.01813 166.965 4.20074C165.458 4.11282 165.473 4.43166 165.865 4.49028C166.674 4.61055 178.626 4.49866 180.943 4.49077C183.905 4.48063 186.145 4.58276 188.851 4.42583C187.017 4.29711 180.568 4.40256 179.346 4.31353C179.225 4.30479 179.259 4.0125 178.481 4.34136C175.974 4.28558 172.977 4.37876 169.845 4.36919C169.941 4.28505 170.036 4.2009 170.132 4.11676C172.057 4.29571 173.839 3.90265 173.588 4.22955C173.972 4.22955 174.355 4.22955 174.738 4.22955C174.738 4.17323 174.738 4.11692 174.738 4.06061C175.316 4.06061 175.893 4.06061 176.471 4.06061C176.471 4.11692 176.471 4.17323 176.471 4.22955C176.949 4.22955 177.428 4.22955 177.906 4.22955C177.956 4.1734 178.006 4.11725 178.055 4.06109C179.488 4.17772 184.372 3.86589 182.225 4.20123C182.898 4.20123 183.57 4.20123 184.243 4.20123C184.241 4.16005 184.239 4.11887 184.237 4.0777C184.526 4.07216 184.815 4.06663 185.104 4.06109C185.009 4.09837 184.914 4.13564 184.819 4.17291C186.144 4.10613 187.401 4.30234 188.271 4.1734C187.697 4.14524 187.123 4.11708 186.549 4.08893C187.65 4.14241 189.678 4.03159 189.86 4.03131C190.413 4.03075 190.705 4.11399 191.304 4.11822C191.845 4.12183 191.771 4.05786 191.872 4.06012C194.791 4.12523 193.678 4.47153 195.041 4.06158C195.186 4.11757 195.331 4.17356 195.476 4.22955C195.669 4.18284 195.863 4.13613 196.056 4.08941C196.918 4.09381 197.78 4.0982 198.642 4.1026C198.354 4.03261 198.067 3.96263 197.779 3.89264C199.071 3.86141 199.674 4.00173 199.799 4.00494C200.153 4.01311 200.315 3.92503 200.425 3.92487C205.69 3.93248 202.492 4.01003 205.123 4.34087C206.062 4.21104 205.112 4.08088 204.979 3.94879C206.227 4.01076 206.616 3.97418 207.933 3.98151C208.275 3.9835 208.644 4.05476 208.86 4.05572C209.047 4.05657 209.633 3.98084 210.082 3.98053C210.832 3.97997 211.829 4.02511 212.855 4.02399C213.708 4.02286 216.319 3.96938 218.141 3.96881C218.918 3.96882 218.738 4.03215 218.938 4.03229C219.022 4.03229 219.628 3.95642 220.126 3.95612C224.193 3.95443 228.36 4.00244 232.446 4.00104C235.326 4.00019 238.251 3.93918 241.136 3.94538C241.75 3.94678 241.425 4.00248 241.693 4.00446C241.785 4.00495 241.896 3.90776 242.845 3.94684C243.188 3.96093 242.793 4.02891 243.131 4.03229C243.295 4.0339 243.364 3.9487 244.324 3.92926C246.067 3.89377 247.004 4.00735 247.16 4.00397C247.453 3.99743 247.367 3.92692 247.756 3.92438C249.658 3.91198 251.246 3.90003 252.943 3.89411C253.735 3.89129 259.2 3.87703 259.5 3.88971C260.171 3.91789 259.546 4.06513 260.407 4.06012C260.648 4.02285 260.89 3.98558 261.131 3.94831C260.748 3.91999 260.364 3.89167 259.981 3.86335C261.036 3.91069 262.232 3.84372 263.013 3.84626C263.157 3.84684 264.485 3.91361 265.163 3.90631C264.875 3.93398 264.587 3.96165 264.299 3.98932C264.401 4.01292 264.503 4.03652 264.604 4.06012C265.959 4.02434 267.391 4.02526 268.78 4.03033C269.281 4.03206 269.112 4.0894 269.619 4.09137C272.572 4.10346 271.827 3.86506 274.668 4.31255C273.709 4.27198 270.208 4.32891 269.7 4.31402C269.345 4.30359 267.97 3.92548 268.475 4.31353C265.639 4.31184 268.102 4.09781 265.454 4.14459C265.506 4.19195 265.559 4.23931 265.612 4.28667C264.688 4.31653 264.005 4.34046 263.443 4.25689C263.255 4.48666 260.113 4.35223 258.39 4.36773C255.9 4.38971 253.087 4.44575 250.62 4.45561C249.77 4.45896 249.289 4.36891 249.182 4.36919C249.026 4.36984 248.588 4.4487 248.277 4.44927C247.116 4.45151 243.582 4.31819 242.703 4.53715C249.614 4.53715 256.525 4.53715 263.436 4.53715C262.567 4.42953 269.558 4.41901 269.913 4.42436C270.241 4.42918 269.965 4.50474 270.062 4.50932C270.788 4.54173 271.408 4.43218 271.639 4.43218C271.815 4.43219 272.17 4.4836 272.795 4.48247C272.91 4.48231 272.942 4.42795 273.065 4.42778C273.88 4.42778 274.686 4.42855 275.504 4.42827C275.554 4.4288 275.76 4.50821 275.967 4.50835C276.174 4.50835 276.379 4.42901 276.431 4.42876C277.086 4.42932 278.207 4.48093 278.829 4.48149C279.045 4.48147 278.896 4.42332 279.138 4.42388C279.881 4.42529 279.636 4.53912 280.556 4.50981C280.864 4.49994 280.844 4.41289 281.434 4.42436C281.852 4.43254 281.807 4.58767 281.873 4.59331C281.965 4.60012 283.407 4.47761 283.879 4.57915C282.848 4.8472 285.006 4.59313 284.902 4.48003C285.474 4.50851 286.045 4.53699 286.617 4.56547C286.812 4.53683 287.006 4.50818 287.201 4.47954C289.507 4.60861 290.914 4.53111 293.182 4.57084C293.291 4.57282 295.202 4.6365 295.113 4.6768C293.969 4.74611 292.828 4.74928 292.096 4.62114C290.891 4.86546 290.87 4.67076 288.925 4.70316C288.274 4.71416 288.227 4.78044 288.152 4.78129C285.619 4.81425 281.562 4.84278 279.856 4.64897C279.378 4.70138 281.097 4.72217 280.429 4.76078C280.064 4.78192 271.287 4.84382 274.091 4.62065C273.8 4.62683 273.509 4.63302 273.218 4.6392C272.927 4.85 271.48 4.80179 271.644 4.59184C271.507 4.63481 271.37 4.67777 271.233 4.72074C270.962 4.7571 270.641 4.77657 270.192 4.78812C268.47 4.83207 258.228 4.75895 257.684 4.7891C257.671 4.8389 257.659 4.88871 257.647 4.93851C262.171 4.99487 266.561 4.87111 271.495 5.0137C271.351 4.96699 271.208 4.92028 271.065 4.87357C273.034 4.939 275.002 5.00442 276.971 5.06985C274.887 5.1544 271.572 5.22539 269.385 5.15579C268.996 5.14337 269.281 5.07823 269.192 5.07034C268.958 5.04985 268.707 5.16287 267.869 5.17385C267.03 5.18483 264.923 5.10471 264.73 5.10696C264.358 5.11161 263.353 5.24092 262.719 5.23928C261.887 5.23703 262.445 5.15699 262.278 5.1553C261.586 5.14743 260.966 5.18709 260.424 5.18118C259.62 5.17238 257.949 5.03163 257.387 5.2383C257.962 5.24774 258.536 5.25718 259.111 5.26662C255.996 5.34074 253.56 5.07655 250.49 5.2803C249.793 5.53054 252.329 5.49672 250.185 5.60353C250.574 5.59995 250.964 5.59637 251.353 5.59279C251.444 5.54038 251.535 5.48797 251.627 5.43556C252.297 5.473 252.968 5.51043 253.639 5.54787C253.447 5.50115 253.256 5.45444 253.065 5.40773C255.442 5.37251 257.843 5.32461 258.673 5.5757C258.722 5.51499 258.771 5.45428 258.82 5.39357C261.027 5.46739 264.341 5.21008 263.722 5.54787C263.827 5.52996 263.931 5.51206 264.036 5.49416C265.37 5.5632 264.8 5.42351 265.301 5.40773C265.445 5.40329 268.038 5.47541 266.889 5.5757C269.419 5.65234 268.639 5.33663 269.336 5.32277C270.956 5.47918 273.869 5.24457 272.644 5.49171C272.885 5.50099 273.127 5.51027 273.368 5.51955C274.16 5.3251 274.942 5.54511 275.8 5.61866C276.091 5.62306 276.382 5.62745 276.673 5.63185C276.868 5.56642 277.063 5.50099 277.258 5.43556C279.996 5.74696 279.129 4.89534 280.38 5.61085C280.185 5.65366 279.99 5.69646 279.795 5.73927C279.333 5.75961 278.871 5.77995 278.409 5.8003C280.273 5.81918 282.136 5.83806 284 5.85694C286.366 6.05749 287.712 5.83989 290.34 5.99854C290.586 5.97949 290.832 5.96045 291.078 5.94141C290.828 6.10345 289.873 6.07964 291.651 6.15234C291.803 6.2669 290.602 6.28173 290.055 6.19384C289.923 6.1724 291.045 6.08464 289.783 6.08154C288.926 6.07933 290.483 6.21701 287.913 6.16601C288.008 6.194 288.103 6.222 288.199 6.24999C287.92 6.24918 287.641 6.24836 287.363 6.24755C287.115 6.18277 286.867 6.118 286.619 6.05322C285.982 6.14678 285.625 6.27789 284.17 6.24999C284.564 6.20942 284.029 6.07934 283.308 6.08154C283.308 6.12841 283.308 6.17529 283.308 6.22216C281.565 6.25231 282.167 6.11479 280.717 6.22216C280.572 6.18489 280.427 6.14762 280.282 6.11035C279.492 6.26393 276.585 6.36842 277.115 6.13818C276.3 6.36194 274.587 6.26098 273.95 6.08203C273.901 6.12858 273.852 6.17512 273.803 6.22167C273.464 6.23111 273.125 6.24055 272.786 6.24999C272.597 6.22184 272.407 6.19368 272.218 6.16552C271.978 6.19368 271.738 6.22184 271.497 6.24999C271.352 6.20328 271.207 6.15657 271.062 6.10986C270.676 6.16585 270.29 6.22184 269.903 6.27782C269.667 6.24055 269.431 6.20328 269.194 6.16601C269.17 6.26344 266.829 6.28514 266.175 6.22118C265.98 6.2495 265.785 6.27782 265.59 6.30614C265.495 6.25976 265.399 6.21337 265.304 6.16699C265.159 6.2041 265.014 6.2412 264.869 6.27831C264.535 6.2412 264.2 6.2041 263.866 6.16699C262.503 6.39439 262.459 6.19487 262.148 6.19628C261.571 6.19889 259.606 6.3413 259.278 6.33397C258.949 6.32659 258.791 6.24497 258.526 6.2373C254.16 6.10908 255.955 6.32811 255.079 6.36278C254.607 6.38166 254.272 6.30552 253.854 6.31396C253.139 6.32805 249.534 6.4288 249.326 6.41893C249.024 6.4047 249.735 6.04564 248.754 6.13818C248.721 6.33098 246.621 6.13638 247.603 6.40526C246.738 6.38166 245.874 6.35806 245.009 6.33446C245.107 6.56301 244.041 6.41602 242.879 6.4287C241.233 6.44647 237.528 6.59674 237.663 6.36229C237.269 6.41617 236.875 6.47004 236.481 6.52391C233.784 6.45011 231.138 6.52744 228.461 6.53026C220.515 6.53899 211.895 6.4881 203.987 6.44188C203.607 6.4396 203.662 6.36301 203.388 6.36132C201.95 6.35286 198.212 6.40703 196.197 6.39012C195.552 6.38477 195.238 6.31006 195.033 6.30663C194.339 6.29451 194.503 6.39294 194.183 6.39012C193.678 6.3856 191.009 6.29424 190.09 6.28466C189.635 6.27992 189.096 6.35813 188.564 6.33397C188.518 6.33201 188.602 6.2514 188.564 6.24999C187.592 6.24013 188.176 6.30981 187.848 6.30614C185.505 6.27994 183.001 6.27834 180.459 6.26171C179.828 6.25748 178.862 6.20066 178.32 6.19531C178.113 6.19341 178.484 6.25457 177.77 6.2495C177.525 6.24777 177.441 6.16824 177.165 6.16308C175.975 6.14138 175.577 6.39696 174.554 6.1914C172.58 6.20493 169.144 6.27056 167.342 6.27196C166.916 6.2722 166.709 6.22523 166.303 6.22607C166.014 6.22663 165.507 6.2994 165.058 6.30028C164.608 6.30113 163.899 6.23183 163.034 6.23437C162.124 6.23691 160.992 6.27807 160.787 6.27782C160.539 6.27782 160.423 6.1903 160.175 6.1914C159.426 6.19422 157.42 6.28024 156.455 6.28954C155.417 6.2994 154.794 6.25696 154.44 6.2578C154.112 6.25898 153.729 6.33283 153.579 6.33349C153.346 6.33461 153.29 6.2483 152.994 6.24902C152.51 6.25042 152.011 6.3047 151.285 6.30614C138.212 6.33291 125.396 6.28549 112.677 6.22265C111.26 6.21561 110.458 6.27614 108.369 6.24853C107.522 6.23726 107.879 6.14819 107.22 6.16503C106.926 6.17264 107 6.24269 106.628 6.24609C104.986 6.26074 103.072 6.19564 102.36 6.19677C102.077 6.1971 101.755 6.27667 101.176 6.27782C96.8617 6.28684 91.7576 6.26451 87.1148 6.27831C84.6565 6.28564 80.9348 6.32618 78.1133 6.33153C70.3178 6.34647 61.9316 6.32804 54.822 6.33593C44.0866 6.34748 33.4028 6.42105 22.6905 6.33397C27.7022 6.52645 34.5267 6.51038 40.1061 6.53123C56.222 6.59098 73.3814 6.47916 89.8979 6.48338C95.6445 6.48479 102.89 6.48036 109.181 6.52489C109.467 6.52686 110.058 6.46567 110.675 6.47215C110.806 6.47366 112.43 6.58528 112.978 6.58641C112.459 6.38801 114.603 6.56483 115.266 6.56004C116.102 6.55381 117.845 6.45466 119.802 6.51073C121.577 6.56145 121.087 6.63777 121.185 6.64256C121.813 6.67349 122.032 6.5505 122.514 6.53807C124.479 6.48847 134.589 6.55993 137.411 6.56444C138.14 6.56556 138.16 6.64374 138.325 6.64402C138.76 6.64454 139.379 6.56733 140.076 6.56785C141.333 6.56898 142.78 6.64276 143.472 6.64305C145.126 6.64389 148.265 6.55685 150.415 6.55516C151.019 6.55465 150.982 6.636 151.256 6.63572C152.461 6.63429 155.599 6.53843 157.095 6.53758C159.524 6.53617 162.023 6.58877 164.493 6.56199C164.65 6.59829 164.806 6.63458 164.963 6.67088C165.21 6.63279 165.456 6.59471 165.703 6.55662C169.879 6.58564 174.13 6.50391 178.283 6.50926C178.761 6.50983 181.13 6.57928 181.525 6.57957C181.854 6.57957 182.177 6.48967 182.664 6.50291C183.346 6.52129 182.704 6.6925 183.819 6.64353C184.118 6.63029 183.828 6.557 184.43 6.53416C184.629 6.52655 188.488 6.49687 188.696 6.50194C189.042 6.51048 189.35 6.6675 189.439 6.67088C189.903 6.6886 189.883 6.5681 190.194 6.55711C191.113 6.52422 192.312 6.60527 192.462 6.6035C194.266 6.58123 197.639 6.48505 199.532 6.54198C199.794 6.54991 199.762 6.63964 199.808 6.64256C200.105 6.66115 200.289 6.55899 200.572 6.55662C202.09 6.54507 204.469 6.61386 205.996 6.63133C206.172 6.63323 206.544 6.58409 206.857 6.58885C208.633 6.61647 208.057 6.69533 208.158 6.69871C208.397 6.70708 208.818 6.62011 209.454 6.61473C211.094 6.60035 214.239 6.61285 215.996 6.61961C217.314 6.62497 217.294 6.72457 217.38 6.72654C217.565 6.73012 218.078 6.6506 218.945 6.64158C220.613 6.62384 220.423 6.70208 221.109 6.69871C221.167 6.69871 221.066 6.62213 221.827 6.61424C223.297 6.59905 226.599 6.67433 228.173 6.67039C228.778 6.66898 228.919 6.59514 229.539 6.59373C230.521 6.59121 232.739 6.67108 232.913 6.67088C232.962 6.67088 233.072 6.58592 233.361 6.58592C233.677 6.58593 233.989 6.62966 234.226 6.62938C235.571 6.6282 237.89 6.47994 237.245 6.78318C237.677 6.70831 238.108 6.63344 238.539 6.55858C241.358 6.57351 244.096 6.54352 246.889 6.5283C247.517 6.52493 248.041 6.58236 248.571 6.57957C249.101 6.57676 251.44 6.48175 251.83 6.47997C252.528 6.47687 256.491 6.46686 256.984 6.47362C257.946 6.48658 258.88 6.6119 259.272 6.58738C259.586 6.56766 259.296 6.49704 259.895 6.47704C260.933 6.44243 262.696 6.53313 263.013 6.53172C263.148 6.53115 262.895 6.47611 264.163 6.47215C264.846 6.4699 265.212 6.53054 265.46 6.53026C265.537 6.52994 265.422 6.4316 266.774 6.44481C267.707 6.45411 268.106 6.52998 268.204 6.53026C268.351 6.53076 268.706 6.44981 269.296 6.45262C270.677 6.45969 273.201 6.5525 274.512 6.55955C274.766 6.56096 274.679 6.46316 275.691 6.47215C276.414 6.47863 276.288 6.55644 276.558 6.55955C276.988 6.56434 277.627 6.46907 278.576 6.47215C279.769 6.4761 288.628 6.57492 289.086 6.60057C289.395 6.61776 289.752 6.61884 289.905 6.66111C289.774 6.70164 289.643 6.74216 289.512 6.78269C288.155 6.64048 288.703 6.80301 288.343 6.81345C287.821 6.82839 285.855 6.80765 285.38 6.84372C285.21 6.85675 285.598 6.94326 284.688 6.98776C283.711 7.03534 283.277 6.88134 282.888 7.09176C281.502 6.85814 280.17 7.1061 281.775 7.17233C282.672 7.20925 291.462 7.29266 293.257 7.30562C294.712 7.31604 297.438 7.25343 299.228 7.26949C300.28 7.27907 302.871 7.28993 302.761 7.40181C303.695 7.4159 302.707 7.30452 302.903 7.28902C303.312 7.25666 306.227 7.33358 306.778 7.33053C309.499 7.31587 312.932 7.1908 315.575 7.33199C315.452 7.36194 315.329 7.39188 315.206 7.42183C314.612 7.47678 311.857 7.39822 311.546 7.54194C315.575 7.54194 319.604 7.54194 323.633 7.54194C323.558 7.41964 328.556 7.42128 328.792 7.47652C328.704 7.53576 328.616 7.595 328.529 7.65425C325.705 7.42941 325.958 7.72661 324.062 7.5688C323.29 7.56657 323.523 7.66446 323.142 7.68305C319.356 7.86787 323.082 7.48219 320.183 7.56978C321.056 7.71176 318.682 7.76364 317.618 7.78168C317.376 7.78563 314.197 7.74964 313.819 7.7519C311.698 7.76458 308.056 7.84236 305.949 7.76459C304.289 7.7553 303.375 7.85643 301.868 7.87982C300.724 7.89758 301.052 7.8265 300.514 7.82563C299.384 7.82365 299.012 8.04005 298.289 7.73823C297.523 7.77582 296.757 7.81342 295.991 7.85102C295.991 7.80414 295.991 7.75727 295.991 7.7104C295.51 7.7104 295.029 7.7104 294.548 7.7104C294.406 7.75711 294.265 7.80382 294.123 7.85053C292.597 7.78655 293.234 7.67368 292.949 7.54097C292.619 7.53185 292.289 7.52274 291.959 7.51363C291.704 7.61551 291.449 7.7174 291.193 7.81928C289.721 7.81098 288.248 7.80268 286.775 7.79438C286.68 7.74767 286.585 7.70096 286.49 7.65425C286.487 7.70096 286.484 7.74767 286.48 7.79438C283.987 7.80398 281.493 7.81358 278.999 7.82319C278.335 7.89812 282.331 7.9549 282.634 7.95941C284.317 7.9842 288.787 7.90908 288.793 8.07562C289.839 7.95136 292.989 7.98221 293.969 8.13128C292.481 8.12233 290.994 8.11338 289.507 8.10443C289.555 8.16025 289.603 8.21608 289.651 8.2719C287.798 8.04675 287.527 8.05914 285.622 8.2719C285.62 8.19704 285.618 8.12217 285.617 8.0473C284.288 8.30763 281.941 7.86603 281.873 8.18743C281.166 8.16139 280.459 8.13535 279.751 8.10931C278.224 8.14849 280.596 8.39567 274.616 8.29876C274.204 8.29199 274.29 8.21012 273.671 8.21575C273.492 8.21744 272.469 8.33655 270.512 8.32415C270.206 8.32217 270.183 8.25114 269.866 8.24212C269.135 8.22071 267.677 8.36119 268.339 8.13226C265.44 8.06549 266.641 8.25338 265.742 8.32805C265.143 8.37761 265.263 8.24216 264.745 8.27288C264.103 8.31097 264.574 8.44752 262.004 8.38469C262.292 8.37542 262.581 8.36614 262.869 8.35686C262.724 8.31975 262.579 8.28264 262.434 8.24554C260.967 8.33458 261.105 8.20448 260.414 8.41301C259.348 8.32002 258.425 8.31261 256.967 8.32952C254.134 8.36249 255.586 8.58723 252.353 8.2846C251.829 8.32708 251.305 8.36956 250.781 8.41204C249.92 8.32271 250.617 8.21095 249.332 8.18841C250.337 8.40907 247.626 8.32861 247.168 8.52531C247.12 8.47844 247.071 8.43157 247.023 8.38469C246.736 8.38469 246.449 8.38469 246.162 8.38469C246.161 8.42229 246.161 8.45989 246.16 8.49748C245.777 8.46933 245.395 8.44117 245.013 8.41301C244.725 8.45028 244.438 8.48755 244.15 8.52482C243.678 8.44621 243.205 8.3676 242.732 8.28899C242.436 8.28362 242.139 8.27825 241.842 8.27288C241.936 8.32887 242.03 8.38486 242.124 8.44084C241.742 8.42213 241.361 8.40341 240.98 8.38469C241.424 8.47656 241.145 8.58428 239.957 8.58146C238.977 8.5792 240.081 8.38746 237.974 8.46721C237.827 8.47289 237.567 8.60965 235.576 8.63078C233.188 8.65612 234.348 8.55706 233.923 8.55363C233.839 8.55307 233.11 8.62189 232.427 8.63176C232.039 8.63737 231.666 8.58181 231.614 8.58195C231.375 8.58449 231.306 8.66309 230.974 8.66593C230.133 8.6727 229.003 8.63418 228.179 8.6381C227.805 8.63979 227.452 8.68637 227.285 8.68693C227.026 8.68747 226.697 8.61634 226.434 8.61662C225.466 8.61811 223.997 8.85411 223.547 8.52629C222.616 8.82773 220.666 8.46328 220.809 8.66545C218.321 8.58915 211.687 8.83716 211.881 8.49748C210.473 8.78793 210.598 8.57759 210.008 8.58195C209.348 8.58674 209.69 8.64308 209.166 8.64054C207.941 8.63462 206.771 8.61042 205.552 8.60929C205.743 8.56275 205.935 8.5162 206.126 8.46965C204.846 8.45472 205.287 8.56304 203.982 8.5839C201.581 8.62195 202.593 8.53552 202.238 8.4135C202.333 8.5313 199.503 8.51298 199.214 8.49748C199.043 8.48803 199.796 8.33621 198.062 8.38518C198.157 8.43189 198.252 8.4786 198.347 8.52531C197.557 8.46143 195.412 8.54249 195.048 8.52678C194.881 8.51945 193.987 8.14275 193.168 8.44084C193.069 8.39413 192.971 8.34742 192.872 8.30071C191.963 8.35686 191.054 8.41301 190.146 8.46916C190 8.38502 189.855 8.30087 189.71 8.21673C189.422 8.21673 189.134 8.21673 188.845 8.21673C189.037 8.29143 189.228 8.36614 189.419 8.44084C187.639 8.40703 185.463 8.52483 185.097 8.27288C184.715 8.31959 184.334 8.3663 183.952 8.41301C183.704 8.32919 183.456 8.24537 183.208 8.16155C181.441 8.1827 181.412 8.23873 180.205 8.32805C180.252 8.26263 180.299 8.1972 180.346 8.13177C179.456 8.22364 177.83 8.30918 176.545 8.32073C175.934 8.32606 174.885 8.2359 174.741 8.24407C174.595 8.25269 173.162 8.60691 173.006 8.30022C170.897 8.43605 169.968 8.29733 169.112 8.30071C168.556 8.30299 168.302 8.3766 167.674 8.3842C166.775 8.39519 165.87 8.3596 165.352 8.36467C165.055 8.36777 164.999 8.43956 164.795 8.44182C163.827 8.45277 164.394 8.37941 163.374 8.3842C163.28 8.38503 162.534 8.47261 161.694 8.46135C161.224 8.45513 160.009 8.35662 159.902 8.35686C159.426 8.35855 159.806 8.55547 158.181 8.32805C158.228 8.36549 158.275 8.40292 158.322 8.44035C156.311 8.53532 155.993 8.36842 155.587 8.35686C155.535 8.35591 155.045 8.42043 154.752 8.41155C154.257 8.39635 154.057 8.30802 153.948 8.30413C153.562 8.2906 152.261 8.32946 151.411 8.24407C151.589 8.49545 148.61 8.58485 147.95 8.30022C147.423 8.35637 146.896 8.41252 146.368 8.46867C146.13 8.4218 145.891 8.37493 145.653 8.32805C145.508 8.37476 145.363 8.42147 145.218 8.46819C144.449 8.36532 143.68 8.26246 142.912 8.1596C142.863 8.26263 142.814 8.36565 142.765 8.46867C142.55 8.45696 142.335 8.44524 142.12 8.43352C141.952 8.35165 141.784 8.26979 141.616 8.18792C141.347 8.20355 141.078 8.21917 140.809 8.23479C140.742 8.29404 140.676 8.35328 140.609 8.41252C139.163 8.48082 139.906 7.91577 137.151 8.41252C136.723 8.36581 136.294 8.3191 135.866 8.27239C135.382 8.49973 134.474 8.36207 133.743 8.38762C133.227 8.40565 133.255 8.49596 132.552 8.49797C131.849 8.49994 131.874 8.41358 131.819 8.41301C131.246 8.4077 130.814 8.48385 130.393 8.46867C130.33 8.46642 130.171 8.36386 129.635 8.35735C129.099 8.35087 128.776 8.45995 127.978 8.43938C127.569 8.42895 127.451 8.34254 127.088 8.33489C125.359 8.29769 123.617 8.73528 122.32 8.21624C122.028 8.282 119.908 8.51219 119 8.49895C117.589 8.47781 118.133 8.37599 117.572 8.35735C117.491 8.35453 117.061 8.38892 115.877 8.38274C115.665 8.38162 115.714 8.4391 115.684 8.43987C114.304 8.43874 111.623 8.39336 110.107 8.38518C109.972 8.38434 109.263 8.54457 108.061 8.32903C106.28 8.48824 102.925 8.14618 100.577 8.38616C100.251 8.39123 99.8557 8.33391 99.7116 8.33587C98.4695 8.35362 98.9246 8.52763 96.1176 8.27288C96.3449 8.36162 95.6881 8.44173 94.7604 8.43498C93.3656 8.42484 94.3564 8.25935 93.2353 8.27288C93.2353 8.31959 93.2353 8.3663 93.2353 8.41301C90.6563 8.28737 90.1432 8.48708 87.5553 8.4882C86.6244 8.48849 85.2494 8.38497 85.0275 8.38469C84.9416 8.38499 83.9236 8.49761 83.8264 8.49846C83.2788 8.50184 82.9697 8.44991 82.497 8.44963C80.9351 8.44853 79.0712 8.59503 79.4083 8.32903C78.9789 8.38518 78.5494 8.44133 78.12 8.49748C76.4974 8.21342 75.2841 8.60492 74.944 8.32903C74.6539 8.38599 74.3637 8.44296 74.0736 8.49992C67.1145 8.47112 60.1554 8.44231 53.1963 8.4135C52.9196 8.50227 49.8849 8.47076 49.7293 8.45696C49.0147 8.39439 49.7695 8.20081 48.3113 8.24505C48.1499 8.32984 47.9885 8.41464 47.8272 8.49943C45.9943 8.52705 46.8759 8.44267 46.1525 8.38518C45.8502 8.39564 45.9479 8.46144 45.5388 8.46623C43.3197 8.49244 38.7695 8.49555 36.3428 8.5009C35.8535 8.50203 35.9274 8.44051 35.7754 8.44035C35.3576 8.44092 34.5331 8.51844 33.6947 8.51848C28.5101 8.51791 21.1636 8.4742 15.9444 8.40911C15.5899 8.4046 15.546 8.33123 15.3068 8.32757C14.9753 8.3228 14.2348 8.3821 13.8861 8.3759C13.5577 8.37027 13.3473 8.31454 12.9959 8.30803C11.3878 8.2776 9.22563 8.37175 7.50509 8.20745C7.36039 8.19359 5.55775 7.89822 5.51697 7.87885C5.27776 7.76387 6.87968 7.58324 4.24843 7.415C6.60012 7.26817 5.86547 7.00862 2.81058 6.88181C4.34279 6.84909 5.875 6.81638 7.40721 6.78367C7.40941 6.75291 7.41162 6.72215 7.41382 6.69138C6.01903 6.53894 4.6352 6.4882 2.51427 6.47411C2.58041 6.44562 2.64655 6.41714 2.71269 6.38866C4.58597 6.24635 6.84574 6.22004 8.2723 6.02588C6.18012 5.88216 4.08793 5.73845 1.99575 5.59474C2.10025 5.57228 2.20475 5.54982 2.30924 5.52736C3.31217 5.46902 5.50287 5.43478 6.33576 5.38039C9.5168 5.173 3.55166 5.22519 4.5315 5.09866C7.89002 5.10322 11.2485 5.10777 14.6071 5.11233C14.7248 5.01916 1.80445 4.76179 1.93755 4.48052C2.99312 4.46164 4.04869 4.44276 5.10426 4.42388C4.6338 4.35243 4.16333 4.28098 3.69286 4.20953C3.8225 4.1869 3.95213 4.16428 4.08176 4.14166C5.86265 4.08616 7.64354 4.03066 9.42444 3.97516C4.0099 4.03095 1.49372 3.99045 0.196777 3.42781C0.343605 3.41349 0.490433 3.39917 0.63726 3.38485C1.81023 3.73683 7.34703 3.62298 10.2895 3.55281C9.6898 3.44971 7.09891 3.52936 6.55138 3.46736C6.39622 3.44959 6.93729 3.37803 6.57783 3.34139C5.63834 3.24614 1.63486 3.12359 2.21665 3.00693C2.59131 2.93197 9.03299 2.82912 10.2895 2.83701C7.34421 2.70231 4.30949 2.66334 1.35553 2.49962C3.2201 2.27136 4.87144 1.99202 8.27495 1.97962C9.31235 1.85985 2.10734 1.69393 1.94019 1.62855C3.18712 1.5584 4.43406 1.48826 5.68099 1.41811C4.6263 1.43683 3.57161 1.45554 2.51692 1.47426C2.51383 1.45082 2.51075 1.42739 2.50766 1.40395C5.23978 1.29517 7.73931 1.09551 10.8663 1.10904C10.7654 0.985041 8.89441 0.997375 7.98658 0.996248ZM307.211 8.04877C307.274 8.15158 306.128 8.13472 305.482 8.13275C305.579 8.15146 305.676 8.17018 305.773 8.1889C304.395 8.16945 301.831 8.13 301.736 8.32952C300.753 8.35432 301.188 8.18081 300.871 8.16107C300.747 8.15318 299.464 8.25415 298.438 8.13128C298.194 8.13177 297.951 8.13226 297.707 8.13275C297.66 8.19817 297.612 8.2636 297.565 8.32903C297.225 8.24961 296.885 8.17018 296.545 8.09076C300.099 8.07676 303.652 8.06276 307.206 8.04877C307.207 8.04877 307.209 8.04877 307.211 8.04877ZM271.791 8.13324C270.497 8.09632 268.515 8.03803 268.915 8.21722C269.733 8.20778 270.55 8.19834 271.368 8.1889C271.509 8.17034 271.65 8.15179 271.791 8.13324ZM143.063 7.99213C141.982 7.81571 140.987 7.96831 139.315 7.93646C139.318 7.97373 139.32 8.01101 139.322 8.04828C140.005 7.95878 141.812 8.01833 143.063 7.99213ZM339.32 7.37447C339.558 7.3883 339.796 7.40214 340.034 7.41597C339.066 7.61634 338.892 7.47514 337.797 7.49458C337.731 7.4958 337.754 7.54166 337.731 7.54194C337.463 7.54504 337.215 7.48983 336.973 7.49068C336.506 7.49237 336.126 7.54831 335.299 7.54634C334.659 7.54463 334.653 7.45669 334.428 7.45894C334.237 7.46111 332.339 7.70305 331.117 7.59858C328.795 7.39963 338.611 7.35587 339.32 7.37447ZM346.205 7.53999C345.975 7.54081 345.745 7.54162 345.516 7.54243C346.207 7.40725 344.812 7.4278 343.79 7.43062C343.821 7.30099 345.985 7.35644 346.954 7.31783C346.704 7.39188 346.454 7.46594 346.205 7.53999ZM317.154 7.26217C318.053 7.24896 317.903 7.41075 317.866 7.45894C317.58 7.45894 317.293 7.45894 317.007 7.45894C317.056 7.39335 317.105 7.32776 317.154 7.26217ZM323.915 7.20602C323.635 7.31592 321.684 7.36399 320.759 7.373C320.718 7.37302 320.972 7.31271 320.318 7.31832C320.122 7.32008 318.189 7.53955 318.615 7.29049C320.38 7.26233 322.146 7.23417 323.912 7.20602C323.913 7.20602 323.914 7.20602 323.915 7.20602ZM325.886 7.27096C325.518 7.30546 325.15 7.33997 324.783 7.37447C324.593 7.32288 324.402 7.27128 324.212 7.21969C324.631 7.20667 325.049 7.19365 325.468 7.18063C325.607 7.21074 325.746 7.24085 325.886 7.27096ZM49.2161 7.12448C49.3016 7.17965 49.3871 7.23483 49.4727 7.29C49.8041 7.32382 51.4154 7.08358 50.9053 7.03708C50.3422 7.06621 49.7791 7.09534 49.2161 7.12448ZM42.4117 7.00876C42.0766 6.98093 41.7415 6.9531 41.4064 6.92526C41.0211 7.01885 40.6357 7.11243 40.2503 7.20602C41.9244 7.26913 43.7056 7.34185 43.4184 7.06589C43.8015 7.06589 44.1847 7.06589 44.5678 7.06589C44.2452 7.17999 44.2886 7.21758 45.2914 7.29C45.5107 7.13122 46.5476 7.21212 47.7346 7.17721C46.8712 7.16793 46.0079 7.15866 45.1446 7.14938C45.1446 7.12138 45.1446 7.09339 45.1446 7.0654C47.0689 7.07551 44.6772 6.89794 43.4237 7.00925C43.3249 6.97198 43.2261 6.9347 43.1273 6.89743C42.8888 6.93454 42.6503 6.97165 42.4117 7.00876ZM181.505 7.0654C181.267 7.03724 181.028 7.00908 180.79 6.98093C179.865 7.34766 181.747 6.99977 183.087 7.29C182.645 7.06953 184.687 7.07874 184.804 7.06393C184.569 6.98972 184.334 6.9155 184.099 6.84128C183.234 6.91599 182.37 6.99069 181.505 7.0654ZM174.743 6.81247C175.57 6.99537 171.507 7.00658 170.144 6.96628C169.812 6.95637 169.222 6.85595 168.983 6.86863C168.837 6.90573 168.692 6.94284 168.547 6.97995C168.376 6.8517 165.714 6.99589 164.665 7.06491C164.566 7.0182 164.467 6.97149 164.369 6.92478C163.986 6.94333 163.604 6.96188 163.222 6.98044C163.27 6.93389 163.318 6.88734 163.366 6.84079C163.077 6.89678 162.788 6.95277 162.498 7.00876C161.363 7.07104 162.063 6.81727 161.21 6.89646C160.262 6.98438 161.815 7.1355 161.787 7.23385C162.556 7.20848 164.306 7.15171 165.087 7.14889C165.535 7.14737 165.027 7.32358 166.96 7.12106C167.384 7.16826 167.807 7.21546 168.231 7.26266C169.009 7.18763 169.787 7.1126 170.565 7.03757C170.71 7.10283 170.855 7.1681 171 7.23336C171.083 7.24358 172.882 7.09538 172.785 7.04635C173.514 7.17112 175.01 7.19335 176.586 7.19967C176.737 7.16419 176.889 7.12871 177.041 7.09323C175.517 7.16985 176.556 7.05569 176.102 6.98776C175.839 6.94859 175.037 6.87165 174.743 6.81247ZM59.834 6.98142C57.2749 7.14063 58.8593 7.00926 56.0932 7.00925C56.2863 7.09355 56.4794 7.17786 56.6725 7.26217C58.0326 7.10813 60.2703 7.21057 59.8366 6.98142C59.8357 6.98142 59.8348 6.98142 59.834 6.98142ZM32.7661 7.26168C34.2299 7.21067 33.4953 7.07956 35.3508 7.03757C35.3517 7.03757 35.3525 7.03757 35.3534 7.03757C34.394 7.02813 33.4345 7.01869 32.4751 7.00925C32.5721 7.09339 32.6691 7.17754 32.7661 7.26168ZM118.338 7.15963C119.741 7.19627 119.465 7.13067 120.738 7.26168C122.635 7.10275 121.029 7.12521 121.029 6.98093C120.596 7.02324 120.163 7.06556 119.729 7.10788C118.678 6.97295 119.675 6.90502 119.675 6.89206C119.674 6.89206 119.673 6.89206 119.672 6.89206C119.672 6.84875 119.706 6.83964 119.303 6.81345C118.981 6.92885 118.659 7.04424 118.338 7.15963ZM124.344 6.98142C123.863 7.07723 123.647 7.20025 124.912 7.26168C124.913 7.26168 124.913 7.26168 124.914 7.26168C125.016 7.04754 126.229 7.22039 126.782 7.20602C126.927 7.18274 127.072 7.15947 127.217 7.1362C126.26 7.0846 125.302 7.03301 124.344 6.98142ZM145.509 6.78464C145.514 7.0212 144.452 7.0437 145.946 7.26168C146.237 7.25745 146.527 7.25322 146.817 7.24899C147.007 7.19707 147.198 7.14515 147.388 7.09323C151.069 7.52128 152.166 6.7924 145.946 7.06491C145.946 7.06507 145.945 7.06523 145.944 7.0654C145.799 6.97181 145.654 6.87823 145.509 6.78464ZM139.027 6.80466C138.98 6.92885 138.934 7.05303 138.887 7.17721C138.074 6.87765 137.024 7.16348 135.43 6.95212C135.286 6.98988 135.142 7.02764 134.998 7.0654C134.402 6.9823 128.552 6.95836 129.819 7.14938C130.373 7.23279 131.578 7.1195 131.682 7.12204C132.033 7.13141 132.492 7.23809 133.085 7.2319C133.428 7.22817 134.151 7.10277 134.851 7.10299C136.416 7.10356 139.272 7.44023 141.33 7.12155C141.478 7.15898 141.626 7.19641 141.774 7.23385C143.301 7.21101 142.792 7.09239 144.212 7.23385C145.194 6.644 138.501 7.26294 139.895 6.78464C139.894 6.78464 139.893 6.78464 139.892 6.78464C139.604 6.79132 139.315 6.79799 139.027 6.80466ZM96.9853 6.98142C96.8932 6.87549 95.1221 7.03893 95.5382 6.78513C94.9602 6.87351 94.3821 6.96188 93.8041 7.05026C93.8085 7.07386 93.8129 7.09746 93.8173 7.12106C94.3918 7.1025 94.9664 7.08395 95.5409 7.0654C95.5431 7.10283 95.5453 7.14026 95.5475 7.1777C96.4036 7.04228 99.9765 7.10127 99.8677 7.23385C100.059 7.17786 100.25 7.12187 100.44 7.06589C102.149 7.21834 103.62 7.05625 105.482 7.20504C105.626 7.15866 105.77 7.11227 105.914 7.06589C106.008 7.10332 106.102 7.14075 106.196 7.17819C106.874 7.18291 107.552 7.18763 108.23 7.19235C110.44 7.04162 106.146 6.84648 105.626 6.86863C105.557 6.87173 105.567 6.96864 105.135 6.98386C104.367 7.01057 100.069 6.91408 98.7407 6.978C98.7292 6.91371 98.7177 6.84942 98.7063 6.78513C98.1326 6.85056 97.559 6.91599 96.9853 6.98142ZM153.72 7.03757C153.817 7.10299 153.914 7.16842 154.011 7.23385C155.685 7.1685 156.74 7.22562 156.31 7.00925C156.309 7.00925 156.309 7.00925 156.308 7.00925C155.445 7.01869 154.583 7.02813 153.72 7.03757ZM278.131 7.09323C278.087 6.96317 277.287 6.91455 276.253 7.00778C276.303 7.04554 276.352 7.0833 276.402 7.12106C276.941 7.01031 277.614 7.20334 279.277 7.1777C279.277 7.11227 279.277 7.04684 279.277 6.98142C278.895 7.01869 278.513 7.05596 278.131 7.09323ZM152.276 7.00925C151.766 6.9321 150.334 7.16615 151.276 7.1777C151.996 7.18643 152.55 7.05067 152.276 7.00925ZM27.008 7.13522C27.3864 7.14889 27.7647 7.16256 28.143 7.17623C28.3401 7.12057 28.5372 7.06491 28.7343 7.00925C28.7334 7.00925 28.7325 7.00925 28.7316 7.00925C28.1571 7.05124 27.5826 7.09323 27.008 7.13522ZM113.54 7.17037C114.823 7.16224 116.106 7.1541 117.389 7.14596C117.402 7.10967 117.415 7.07337 117.427 7.03708C116.142 7.16953 115.625 7.02677 115.326 7.01803C115.327 7.01803 115.328 7.01803 115.33 7.01803C114.367 6.9893 113.45 6.96816 112.54 6.92478C112.873 7.00664 113.206 7.08851 113.54 7.17037ZM109.142 6.94138C109.358 7.19782 109.64 7.22768 111.611 7.04733C111.533 7.01576 111.455 6.98418 111.377 6.95261C110.356 6.97148 109.76 7.03069 109.939 6.89694C109.673 6.91176 109.408 6.92657 109.142 6.94138ZM129.235 7.02341C128.998 6.94177 127.121 7.02375 127.223 7.06491C127.263 7.08125 129.696 7.18347 129.235 7.02341ZM292.384 7.03659C291.951 7.01787 291.519 6.99916 291.086 6.98044C291.662 6.95261 292.237 6.92478 292.812 6.89694C292.67 6.94349 292.527 6.99004 292.384 7.03659ZM297.133 6.67185C297.441 6.70454 296.439 6.93511 298.282 6.9946C296.94 6.99948 295.599 7.00436 294.257 7.00925C294.886 6.97198 295.515 6.9347 296.145 6.89743C296.035 6.83119 295.925 6.76495 295.815 6.69871C296.254 6.68976 296.694 6.68081 297.133 6.67185ZM298.573 6.84079C297.851 6.66555 301.655 6.65239 302.01 6.67381C302.089 6.6789 302.464 6.81175 302.602 6.84031C302.028 6.84047 301.453 6.84063 300.879 6.84079C301.071 6.88262 301.263 6.92445 301.456 6.96628C300.783 6.9806 300.111 6.99492 299.438 7.00925C299.726 6.96726 300.013 6.92526 300.301 6.88327C299.725 6.86911 299.149 6.85495 298.573 6.84079ZM283.308 6.88327C283.789 6.88767 284.271 6.89206 284.752 6.89646C284.655 6.83103 284.559 6.7656 284.463 6.70017C284.175 6.70017 283.887 6.70017 283.599 6.70017C283.502 6.76121 283.405 6.82224 283.308 6.88327ZM293.11 6.7988C292.41 7.11383 290.501 6.42513 292.732 6.68015C292.957 6.70608 293.176 6.76837 293.11 6.7988ZM303.436 6.7114C304.931 6.48173 304.594 6.98882 303.182 6.84031C303.111 6.8324 303.323 6.72836 303.436 6.7114ZM314.65 6.70408C314.771 6.70579 314.983 6.86997 316.14 6.71385C316.331 6.73256 316.521 6.75128 316.712 6.77C316.266 6.84628 312.444 6.89166 312.972 6.72898C313.557 6.72645 314.045 6.69901 314.65 6.70408ZM310.949 6.09668C310.375 6.10123 309.802 6.10579 309.228 6.11035C309.417 6.16178 309.606 6.21321 309.796 6.26464C309.513 6.27864 309.231 6.29263 308.949 6.30663C308.467 6.21793 307.984 6.12923 307.502 6.04053C308.749 6.02637 309.996 6.01221 311.243 5.99805C311.145 6.03092 311.047 6.0638 310.949 6.09668ZM295.697 5.96973C296.801 6.03426 298.154 5.96557 299.946 5.97656C299.947 5.97673 299.948 5.97689 299.949 5.97705C300.038 5.9778 300.197 6.04845 300.485 6.05127C300.73 6.05352 305.571 5.97594 305.194 6.0957C303.32 6.20305 302.621 6.03984 302.171 6.30614C302.08 6.24999 301.989 6.19384 301.897 6.13769C300.096 6.04047 299.582 6.23485 298.571 6.30614C298.574 6.26383 298.578 6.22151 298.582 6.17919C297.907 6.17496 297.231 6.17073 296.556 6.1665C296.651 6.19433 296.746 6.22216 296.842 6.24999C296.603 6.24999 296.364 6.24999 296.125 6.24999C295.543 6.1246 294.805 6.09538 295.697 5.96973ZM313.551 6.1665C314.081 5.84553 319.249 6.06538 321.609 5.99805C320.37 6.19132 318.45 6.05812 317.099 6.05615C314.486 6.05251 316.292 6.17079 315.849 6.22265C315.63 6.24829 314.148 6.0425 313.551 6.1665ZM291.666 6.02588C292.968 6.0518 293.698 5.9779 294.824 6.0957C294.73 6.11914 294.636 6.14257 294.541 6.16601C294.155 6.14456 291.009 6.07686 291.666 6.02588ZM325.068 6.08203C322.552 5.96677 323.793 6.25739 322.485 6.03955C323.346 6.02572 324.207 6.01188 325.068 5.99805C325.068 6.02604 325.068 6.05403 325.068 6.08203ZM149.396 5.80176C148.336 5.79442 147.152 5.73585 146.518 5.85694C147.238 5.87565 147.959 5.89437 148.679 5.91309C148.918 5.87598 149.157 5.83887 149.396 5.80176ZM179.632 4.61869C179.39 4.58967 178.433 4.67533 178.332 4.67533C178.144 4.67533 178.196 4.63313 178.193 4.62211C176.966 4.62976 178.098 4.76064 177.19 4.7891C177.035 4.79379 174.903 4.7291 174.036 4.73441C172.701 4.74259 171.369 4.73411 170.87 4.73637C170.028 4.74005 168.466 4.83823 167.083 4.8433C166.513 4.84522 166.314 4.76662 165.74 4.76859C162.06 4.78184 154.815 4.88976 151.55 4.83988C150.743 4.82748 149.974 4.72456 149.547 4.73295C149.211 4.77055 148.874 4.80814 148.538 4.84574C147.503 4.5073 147.157 4.80832 146.042 4.83988C145.333 4.85983 145.002 4.75955 144.907 4.7598C144.276 4.76178 143.964 4.80951 143.469 4.81742C142.913 4.82616 142.113 4.78093 141.915 4.7891C141.793 4.79458 142.182 4.92786 140.024 4.92533C137.825 4.9227 135.654 4.90861 133.417 4.90238C134.163 5.30476 134.806 5.02937 135.719 5.01468C135.964 5.01073 135.808 5.07462 136.022 5.07181C136.624 5.06419 137.777 5.00142 138.276 5.01663C138.814 5.03305 138.63 5.18112 139.313 5.12649C139.347 5.12368 139.238 5.06252 139.399 5.05228C141.013 4.95111 141.541 5.05748 143.581 5.06058C144.933 5.06282 153.144 5.00213 153.425 5.04202C154.895 5.2562 146.244 5.25765 145.232 5.24075C144.878 5.2348 145.249 5.16728 144.927 5.15432C144.79 5.14914 143.56 5.27789 142.345 5.2886C140.875 5.30155 137.921 5.21373 136.52 5.21682C124.48 5.24359 112.606 5.16578 100.577 5.16409C100.32 5.16409 99.9825 5.24123 99.1468 5.24123C83.5495 5.23983 67.3839 5.179 51.5878 5.21536C48.144 5.22325 44.7285 5.29579 41.253 5.2383C40.8218 5.29462 40.3905 5.35093 39.9593 5.40724C41.0623 5.36247 43.0835 5.48984 43.2676 5.49171C43.3338 5.49228 43.752 5.42878 44.4263 5.43215C45.3745 5.43666 45.7903 5.49171 45.8681 5.49171C46.1093 5.49189 45.9513 5.43333 46.1816 5.43361C47.8993 5.43615 49.2283 5.41953 50.8047 5.41896C52.5855 5.41842 53.4881 5.52749 54.7849 5.40773C54.9318 5.45444 55.0786 5.50115 55.2254 5.54787C56.1943 5.34585 61.9638 5.36822 64.301 5.37893C65.0384 5.38233 64.909 5.46437 65.1568 5.46437C65.315 5.46427 65.2526 5.35685 67.182 5.37795C68.1532 5.38866 68.4079 5.46691 68.895 5.46437C69.1596 5.46288 69.1166 5.38528 69.4968 5.38527C71.6956 5.38527 73.4911 5.41045 75.6437 5.42482C76.2489 5.42877 76.2557 5.49354 76.3911 5.49269C76.8898 5.48979 77.7571 5.38011 79.0247 5.38039C81.1113 5.38095 85.2697 5.38133 86.9759 5.43459C87.2267 5.44248 87.4343 5.52018 87.6188 5.51906C87.898 5.51707 88.0076 5.436 88.0566 5.43556C88.9904 5.43416 88.4286 5.50954 89.054 5.49123C89.3911 5.48135 89.7427 5.38889 90.5262 5.37844C91.5609 5.36463 91.3572 5.47439 91.7895 5.4634C91.8352 5.46168 91.8488 5.38536 92.2736 5.38283C93.8846 5.37381 96.2215 5.35618 97.7459 5.35646C98.1839 5.35646 98.5096 5.40784 99.1203 5.40871C100.351 5.4104 107.346 5.37766 107.919 5.40724C107.98 5.41034 107.358 5.52293 108.349 5.51955C108.637 5.47267 108.925 5.4258 109.213 5.37893C109.695 5.45396 110.176 5.52899 110.658 5.60402C110.64 5.34478 113.473 5.30474 113.445 5.56984C113.755 5.58058 114.065 5.59132 114.375 5.60206C115.02 5.41891 115.45 5.48652 116.697 5.37893C116.892 5.43508 117.086 5.49123 117.281 5.54738C117.33 5.50994 117.379 5.47251 117.427 5.43508C118.093 5.63794 119.185 5.43425 119.318 5.43312C119.828 5.42862 120.211 5.48019 120.45 5.47853C121.343 5.47318 123.277 5.40213 124.32 5.43508C124.369 5.43677 124.321 5.52349 124.618 5.53419C125.153 5.55353 125.206 5.42657 125.92 5.5757C126.064 5.53826 126.208 5.50083 126.352 5.4634C126.505 5.48276 126.658 5.50213 126.811 5.5215C127.714 5.51157 128.617 5.50164 129.52 5.49171C128.699 5.63854 129.644 5.72053 130.537 5.60499C130.84 5.56581 130.572 5.47644 130.672 5.46291C130.811 5.44459 134.863 5.49009 135.131 5.54787C135.323 5.51971 135.515 5.49155 135.707 5.4634C135.804 5.51971 135.901 5.57602 135.998 5.63234C136.104 5.61264 136.209 5.59295 136.315 5.57326C137.37 5.67244 140.108 5.44494 140.604 5.46291C140.869 5.47249 140.63 5.71252 141.901 5.688C141.945 5.62208 141.99 5.55617 142.034 5.49025C142.325 5.48081 142.616 5.47137 142.907 5.46193C143.453 5.46781 144.248 5.58204 144.273 5.66017C144.444 5.61329 144.614 5.56642 144.785 5.51955C145.243 5.67227 147.687 5.61814 148.67 5.5215C148.958 5.56756 149.245 5.61362 149.532 5.65968C149.919 5.60369 150.305 5.5477 150.691 5.49171C151.586 5.47486 150.641 5.56793 150.831 5.5757C151.235 5.59176 153.291 5.43452 153.156 5.63038C153.436 5.63087 153.716 5.63136 153.997 5.63185C154.141 5.57586 154.285 5.51987 154.429 5.46388C154.911 5.65692 155.744 5.58877 157.452 5.65919C157.595 5.61476 157.739 5.57033 157.882 5.52589C158.41 5.58904 158.938 5.65219 159.466 5.71534C159.575 5.64178 159.683 5.56821 159.792 5.49464C160.022 5.48407 160.251 5.47349 160.481 5.46291C160.948 5.6277 161.786 5.44962 162.213 5.51759C162.835 5.61679 162.354 5.73499 161.198 5.75782C161.284 5.87784 164.727 5.82273 165.521 5.81397C165.468 5.79053 165.416 5.7671 165.363 5.74366C164.552 5.76221 163.74 5.78077 162.928 5.79932C162.248 5.4975 164.452 5.57845 165.464 5.53956C165.556 5.53584 166.081 5.42149 167.1 5.43215C167.495 5.43637 169.035 5.60351 169.329 5.6128C171.703 5.68912 169.957 5.45031 172.28 5.65968C171.796 5.49933 173.131 5.63257 174.52 5.60157C174.756 5.59628 176.761 5.46629 176.897 5.46291C177.741 5.44205 176.822 5.58379 178.044 5.54689C178.19 5.50962 178.337 5.47235 178.484 5.43508C178.768 5.43508 179.053 5.43508 179.337 5.43508C181.063 5.76723 181.464 5.52263 182.078 5.49123C182.326 5.47855 182.007 5.56521 182.649 5.54689C182.891 5.54007 183.16 5.46798 183.811 5.46291C185.848 5.44716 186.54 5.75578 188.413 5.43459C188.7 5.48114 188.988 5.52768 189.275 5.57423C189.469 5.51841 189.663 5.46258 189.857 5.40676C191.341 5.56875 190.805 5.40283 191.341 5.4048C192.756 5.40988 195.653 5.44164 195.906 5.57521C197.128 5.26838 198.589 5.61452 199.07 5.60255C199.356 5.56528 199.643 5.52801 199.929 5.49074C200.265 5.52817 200.602 5.56561 200.938 5.60304C200.775 5.30173 202.517 5.59803 202.684 5.60255C202.877 5.60706 205.557 5.51789 206.555 5.51955C207.551 5.52124 209.287 5.60288 209.439 5.60304C209.615 5.60304 211.311 5.52114 212.637 5.52199C213.797 5.52287 220.669 5.63921 220.236 5.5049C219.786 5.4677 219.146 5.43546 218.593 5.41799C216.875 5.36444 206.794 5.29585 204.217 5.27444C199.05 5.23189 193.661 5.23978 188.471 5.21047C188.166 5.20878 188.119 5.13069 187.857 5.12893C187.459 5.12668 186.45 5.20484 186.058 5.20315C184.594 5.19639 182.813 5.18364 182.029 5.18167C180.277 5.17771 179.075 5.13068 177.75 5.12307C177.335 5.12082 175.237 5.21763 173.799 5.17678C173.538 5.15481 173.278 5.13284 173.017 5.11087C173.758 5.08522 175.701 5.01887 176.603 5.01126C177.946 5.00029 178.646 5.06363 179.141 5.06253C179.556 5.06168 181.677 4.98954 182.643 4.98782C182.943 4.98726 183.004 5.06916 183.261 5.06888C184.652 5.0669 186.486 5.06471 187.693 4.98441C187.2 5.01061 190.278 5.06086 190.439 5.06058C190.716 5.06055 191.016 4.98392 191.581 4.98392C192.667 4.98396 192.529 5.14425 193.886 4.98392C194.222 5.03063 194.558 5.07734 194.894 5.12405C194.915 4.91051 199.16 5.20097 200.368 4.94144C200.4 4.91213 194.883 4.82897 194.427 4.82474C191.695 4.79911 187.653 4.85147 185.001 4.814C184.203 4.80273 181.694 4.67292 181.505 4.67533C181.2 4.67899 181.476 4.75326 181.344 4.7559C178.644 4.81111 179.991 4.66187 179.632 4.61869ZM298.571 5.82911C297.75 5.82032 296.93 5.81153 296.11 5.80274C296.17 5.75587 296.229 5.70899 296.289 5.66212C296.664 5.68035 297.04 5.69858 297.416 5.71681C297.704 5.68881 297.993 5.66082 298.282 5.63282C298.378 5.69825 298.474 5.76368 298.571 5.82911ZM300.592 5.63282C301.303 5.60922 301.338 5.70807 301.502 5.7129C301.992 5.72755 302.415 5.68758 302.891 5.68897C302.343 5.92377 301.177 5.81617 300.592 5.63282ZM285.902 5.54835C286.063 5.55959 287.133 5.81236 288.351 5.57716C289.262 5.65187 290.173 5.72657 291.084 5.80128C289.536 5.68714 287.394 5.80578 286.637 5.80128C286.349 5.79956 286.294 5.72197 286.064 5.72071C284.738 5.71451 283.449 5.89032 283.314 5.63331C284.567 5.70799 285.698 5.53454 285.902 5.54835ZM293.902 5.63966C294.115 5.69337 294.327 5.74708 294.539 5.80079C293.772 5.80079 293.006 5.80079 292.24 5.80079C292.447 5.74643 292.654 5.69207 292.861 5.63771C293.208 5.63836 293.555 5.63901 293.902 5.63966ZM234.948 5.46193C235.421 5.46258 235.893 5.46323 236.366 5.46388C236.34 5.42474 235.799 5.42489 235.6 5.39846C235.601 5.39846 235.602 5.39846 235.603 5.39846C235.381 5.36858 235.476 5.31818 235.072 5.29592C235.031 5.35126 234.989 5.40659 234.948 5.46193ZM39.3866 5.23928C38.5942 5.23646 31.2777 5.23618 31.901 5.37893C32.2151 5.45022 34.7175 5.38805 35.4553 5.38918C36.4498 5.39063 39.1358 5.54501 39.3866 5.23928ZM26.4287 5.21145C26.3019 5.3537 30.8745 5.37633 31.3216 5.35158C31.2267 5.3313 31.0804 5.28615 30.9539 5.2759C30.3372 5.22687 27.4144 5.25033 26.4287 5.21145ZM208.478 5.0513C208.846 5.12324 209.215 5.19517 209.584 5.26711C209.487 5.17353 209.39 5.07994 209.293 4.98636C209.021 5.00801 208.749 5.02965 208.478 5.0513ZM172.721 5.15432C166.58 5.14977 160.439 5.14521 154.298 5.14065C154.839 5.10175 155.379 5.06285 155.919 5.02396C161.21 5.03776 166.853 5.07714 171.963 5.01712C172.215 5.06285 172.468 5.10859 172.721 5.15432ZM284.172 5.12698C282.599 5.12558 281.285 5.19432 279.573 5.08499C281.204 4.97903 282.012 5.14297 283.597 4.98685C283.598 4.98685 283.599 4.98685 283.599 4.98685C283.79 5.03356 283.981 5.08027 284.172 5.12698ZM249.045 5.09866C249.523 5.03323 250.001 4.9678 250.48 4.90238C249.904 4.90238 249.329 4.90238 248.754 4.90238C248.851 4.9678 248.948 5.03323 249.045 5.09866ZM119.156 4.79056C117.511 4.93337 113.301 4.67491 111.963 4.84671C111.877 4.85799 112.672 4.93049 111.386 5.07083C112.357 5.04209 113.043 5.01277 113.115 4.90238C113.404 4.93981 113.692 4.97724 113.98 5.01468C114.459 4.98636 114.937 4.95804 115.416 4.92972C115.364 5.03963 115.402 5.03377 116.136 4.95853C116.472 4.98636 116.807 5.01419 117.142 5.04202C117.284 4.99547 117.426 4.94893 117.568 4.90238C117.858 4.96748 118.148 5.03258 118.438 5.09768C119.569 5.02706 118.88 4.90092 119.156 4.79056ZM124.917 4.81742C124.649 4.79322 117.019 4.87216 120.487 5.09134C121.388 5.08434 122.29 5.07734 123.191 5.07034C122.444 4.70737 124.9 5.03197 125.102 5.03958C126.067 5.07504 127.297 4.98872 127.998 4.99319C128.6 4.99714 128.958 5.06225 129.381 5.06058C130.824 5.05494 133.103 5.05257 133.417 4.90238C132.296 4.89925 131.156 4.89764 129.99 4.9014C128.756 4.90535 127.672 4.76359 125.355 4.95804C124.782 4.93714 124.986 4.82362 124.917 4.81742ZM251.92 4.91751C251.863 5.06838 254.775 5.0323 254.793 4.97269C254.799 4.93774 253.851 4.93857 253.715 4.92533C253.714 4.92533 253.714 4.92533 253.713 4.92533C253.656 4.91954 253.943 4.86179 253.497 4.84574C252.971 4.86966 252.446 4.89359 251.92 4.91751ZM50.7664 4.90189C50.3727 4.81723 41.3803 4.84768 41.1154 4.88822C41.0435 4.89947 41.1438 4.93661 41.1154 4.95804C43.2133 4.8386 46.1956 4.97997 48.187 4.98929C48.7421 4.99181 48.5762 4.93183 48.6076 4.9307C48.6089 4.9307 48.6102 4.9307 48.6116 4.9307C48.9266 4.93055 50.3486 5.07707 50.7664 4.90189ZM109.083 4.91556C109.466 4.93916 109.848 4.96276 110.23 4.98636C110.327 4.93965 110.424 4.89294 110.521 4.84623C110.52 4.84623 110.52 4.84623 110.519 4.84623C110.04 4.86934 109.562 4.89245 109.083 4.91556ZM95.8385 4.76176C95.9315 4.79463 96.0246 4.82751 96.1176 4.86039C97.0801 4.86494 98.0427 4.8695 99.0052 4.87406C98.9082 4.89261 98.8112 4.91117 98.7142 4.92972C100.17 4.97932 100.772 4.86378 101.548 4.88041C101.547 4.88041 101.546 4.88041 101.545 4.88041C101.628 4.88234 101.729 4.95084 102.04 4.95316C102.751 4.95851 104.791 4.984 105.037 4.91507C105.559 4.76801 101.454 4.83781 100.689 4.83109C100.343 4.82799 99.9273 4.76805 99.7169 4.76664C99.4864 4.76533 99.1724 4.84628 98.611 4.84379C98.4468 4.84294 96.6255 4.7477 95.8385 4.76176ZM78.8488 4.8599C79.1457 4.93401 79.7653 4.86243 79.993 4.87455C80.0474 4.87741 79.6244 4.93945 80.1372 4.95804C80.2823 4.91572 80.4273 4.87341 80.5724 4.83109C79.9979 4.84069 79.4233 4.8503 78.8488 4.8599ZM256.813 4.84623C256.73 4.83032 255.166 4.83614 255.091 4.84623C254.154 4.9815 257.393 4.96684 256.813 4.84623ZM296.268 4.69145C295.548 4.49484 304.081 4.68812 304.908 4.67778C304.867 4.80134 302.837 4.67711 303.9 4.84671C302.885 4.75344 300.081 4.80297 299.421 4.77592C299.02 4.75956 298.919 4.65284 298.859 4.64946C298.621 4.63743 296.521 4.76075 296.268 4.69145ZM311.958 4.76176C311.148 4.73832 310.337 4.71488 309.526 4.69145C310.483 4.67745 311.439 4.66345 312.396 4.64946C312.25 4.68689 312.104 4.72432 311.958 4.76176ZM312.978 4.70561C312.952 4.58584 315.705 4.67707 316.428 4.64946C315.612 4.85319 314.252 4.66111 312.978 4.70561ZM267.184 4.53715C265.916 4.45797 265.371 4.82304 266.913 4.6641C266.96 4.65885 267.237 4.54135 267.184 4.53715ZM118.765 4.27691C118.549 4.27465 115.86 4.15628 115.704 4.2149C115.212 4.40189 116.976 4.3269 117.568 4.39751C118.522 4.51192 117.119 4.6062 119.447 4.53715C119.352 4.57459 119.257 4.61202 119.162 4.64946C120.524 4.66185 120.078 4.40254 120.323 4.36919C120.398 4.35905 121.25 4.38086 121.404 4.36431C123.324 4.1554 118.965 4.27865 118.765 4.27691ZM235.793 4.50932C233.269 4.39942 234.355 4.56068 231.764 4.55083C231.677 4.63311 235.465 4.58147 235.793 4.50932ZM143.347 4.42485C140.736 4.45725 138.589 4.34963 136.154 4.49419C136.312 4.71682 144.024 4.48234 143.347 4.42485ZM20.6706 4.19927C30.8294 4.59576 42.5471 4.46524 53.363 4.45903C54.5417 4.45847 54.6547 4.54674 55.0812 4.53715C55.3606 4.53095 55.3118 4.45985 55.6831 4.45952C69.1044 4.44797 81.9556 4.35496 94.812 4.39751C95.6218 4.40033 99.5617 4.553 100.403 4.32281C101.04 4.14816 98.2097 4.28433 97.738 4.28277C97.3835 4.28164 97.3685 4.19957 97.1322 4.19927C96.8814 4.19899 97.0886 4.25507 96.7975 4.25591C95.5641 4.25985 94.2183 4.23794 93.103 4.24273C82.1659 4.28866 71.5256 4.27552 60.6461 4.26763C59.3292 4.26678 59.6 4.20102 59.5337 4.20074C59.5328 4.2009 59.5319 4.20106 59.531 4.20123C52.4702 4.19503 44.4062 4.34255 36.9275 4.28619C31.6611 4.24094 26.3947 4.19569 21.1283 4.15045C20.9758 4.16672 20.8232 4.183 20.6706 4.19927ZM124.34 4.50883C123.683 4.26085 123.536 4.51089 121.179 4.40972C120.987 4.45203 120.795 4.49435 120.603 4.53667C121.85 4.52739 123.097 4.51811 124.344 4.50883C124.343 4.50883 124.342 4.50883 124.34 4.50883ZM108.77 4.41851C108.372 4.08358 103.1 4.32028 100.726 4.2564C100.291 4.4246 103.742 4.34904 104.556 4.36675C104.962 4.37549 107.138 4.54848 108.792 4.45268C108.785 4.44129 108.777 4.4299 108.77 4.41851ZM287.34 4.19927C286.957 4.20904 286.573 4.2188 286.189 4.22857C287.149 4.26568 288.109 4.30279 289.069 4.33989C287.538 4.31597 286.006 4.29204 284.475 4.26812C284.76 4.19862 285.046 4.12913 285.331 4.05963C286.001 4.10618 286.67 4.15273 287.34 4.19927ZM282.372 4.23492C285.054 4.20875 282.254 4.39479 281.585 4.31206C281.184 4.26247 282.098 4.23774 282.372 4.23492ZM275.397 4.11529C276.648 3.99328 279.175 3.98488 278.277 4.22857C276.925 4.11444 276.054 4.20927 274.094 4.14361C274.38 4.0969 274.666 4.05019 274.952 4.00348C274.954 4.00348 274.955 4.00348 274.956 4.00348C275.103 4.04075 275.25 4.07802 275.397 4.11529ZM283.597 4.08746C285.353 4.22746 280.268 4.17959 281.867 4.08746C281.942 4.08323 283.528 4.08211 283.597 4.08746ZM31.901 3.94733C31.6894 4.02696 33.0403 4.02547 33.4896 4.03082C35.4377 4.05449 37.9361 4.01984 39.962 4.03082C39.8094 4.00462 39.6568 3.97842 39.5043 3.95221C36.9698 3.95058 34.4354 3.94896 31.901 3.94733ZM46.2994 4.03131C47.6914 4.03131 49.0834 4.03131 50.4753 4.03131C50.605 4.03131 51.2135 3.96298 50.7611 3.94635C49.2738 3.97467 47.7866 4.00299 46.2994 4.03131ZM133.127 4.03131C132.06 3.98672 135.133 3.75815 134.995 4.00299C134.373 4.01243 133.75 4.02187 133.127 4.03131ZM143.059 3.93366C142.39 3.95693 141.72 3.98021 141.051 4.00348C141.05 3.97532 141.049 3.94717 141.048 3.91901C141.718 3.92389 142.389 3.92877 143.059 3.93366ZM26.4287 3.89118C27.1376 3.98753 28.829 3.9727 29.8838 3.97467C29.1573 3.89189 27.4257 3.93259 26.4287 3.89118ZM117.136 3.93268C117.223 3.99834 112.977 3.98182 114.447 3.86628C115.344 3.88841 116.24 3.91055 117.136 3.93268ZM108.513 3.83552C109.424 3.82115 110.129 3.84371 109.942 3.94684C109.459 3.94245 108.976 3.93805 108.493 3.93366C108.5 3.90094 108.507 3.86823 108.513 3.83552ZM270.636 3.91901C269.102 3.92829 267.567 3.93756 266.033 3.94684C266.09 3.91868 266.147 3.89053 266.204 3.86237C267.683 3.85326 269.162 3.84414 270.642 3.83503C270.64 3.86302 270.638 3.89102 270.636 3.91901ZM25.5609 3.63826C24.5071 3.65665 23.4533 3.67504 22.3995 3.69343C23.4542 3.71231 24.5089 3.73119 25.5636 3.75007C25.5636 3.71264 25.5636 3.6752 25.5636 3.63777C25.5627 3.63793 25.5618 3.63809 25.5609 3.63826ZM291.656 3.55427C286.969 3.42297 292.95 3.28416 294.187 3.47713C294.188 3.47697 294.19 3.4768 294.191 3.47664C294.299 3.49369 294.07 3.57617 294.25 3.60945C293.773 3.57218 293.296 3.53491 292.819 3.49764C292.384 3.54402 291.949 3.59041 291.514 3.63679C291.37 3.61856 291.227 3.60033 291.084 3.58211C291.275 3.57283 291.465 3.56355 291.656 3.55427ZM310.575 3.48103C314.825 3.49626 310.476 3.70251 308.372 3.53963C308.387 3.50193 310.183 3.47963 310.575 3.48103ZM299.436 3.52547C298.766 3.54418 298.096 3.5629 297.426 3.58162C297.341 3.55802 297.255 3.53442 297.17 3.51082C297.684 3.48738 298.198 3.46395 298.712 3.44051C298.953 3.46883 299.194 3.49715 299.436 3.52547ZM277.409 3.16122C276.331 3.13529 274.956 3.39771 278.417 3.3287C278.415 3.30054 278.413 3.27238 278.411 3.24423C278.274 3.24872 277.869 3.27513 277.847 3.27303C277.783 3.26599 277.858 3.17197 277.409 3.16122ZM318.445 2.73936C318.566 2.72864 318.632 2.43164 319.891 2.73887C320.271 2.72015 320.652 2.70144 321.033 2.68272C321.131 2.74815 321.229 2.81357 321.328 2.879C319.855 2.82828 319.699 2.96065 319.592 2.96347C319.102 2.97586 319.465 2.90777 319.149 2.90683C318.333 2.90458 316.48 2.9503 317.321 2.75596C317.623 2.68635 318.324 2.75007 318.445 2.73936ZM315.566 2.57042C315.744 2.59521 315.169 2.68209 315.304 2.70664C315.422 2.72806 317.197 2.8167 316.716 2.96347C316.425 2.95729 316.133 2.9511 315.842 2.94492C315.743 2.90472 315.644 2.86452 315.546 2.82432C315.264 2.86142 314.981 2.89853 314.699 2.93564C314.224 2.83644 313.212 2.70794 314.413 2.62706C313.972 2.63552 313.53 2.64398 313.088 2.65245C312.859 2.69997 312.63 2.7475 312.401 2.79502C312.521 2.72259 312.641 2.65017 312.761 2.57774C313.696 2.5753 314.631 2.57286 315.566 2.57042ZM329.262 2.59825C329.208 2.63568 329.154 2.67312 329.1 2.71055C330.723 2.64096 333.249 2.6145 331.814 2.84922C329.616 2.86875 327.418 2.88828 325.22 2.90781C325.074 2.87965 324.929 2.8515 324.783 2.82334C326.422 2.93182 325.916 2.47019 327.342 2.60264C327.583 2.6251 326.885 2.78653 328.396 2.68321C328.343 2.64561 328.289 2.60801 328.235 2.57042C328.577 2.57969 328.919 2.58897 329.262 2.59825ZM343.21 2.6544C340.432 2.60029 343.492 2.46368 344.005 2.57725C344.004 2.57725 344.003 2.57725 344.002 2.57725C345.408 2.88803 342.385 2.73787 342.201 2.73985C341.956 2.7426 341.385 2.96508 340.051 2.64073C341.104 2.64529 342.157 2.64984 343.21 2.6544ZM334.14 2.59874C334.373 2.59141 334.244 2.64791 334.345 2.64708C334.346 2.64708 334.347 2.64708 334.348 2.64708C335.835 2.63496 339.372 2.58437 339.755 2.7667C338.654 2.78192 333.729 2.82131 333.431 2.69737C333.667 2.66449 333.904 2.63161 334.14 2.59874ZM323.675 2.73448C322.763 2.61643 324.818 2.60071 325.357 2.65538C325.458 2.66722 324.621 2.85676 323.675 2.73448ZM253.644 2.4298C251.635 2.50081 254.274 2.57169 253.361 2.68272C253.744 2.67328 254.128 2.66384 254.512 2.6544C254.222 2.57953 253.933 2.50466 253.644 2.4298ZM162.063 2.20568C161.595 2.19256 161.817 2.26034 161.776 2.26135C161.468 2.25946 161.178 2.20424 161.06 2.21008C158.878 2.32155 160.329 2.37847 160.351 2.39171C160.398 2.45877 159.824 2.53724 160.619 2.61387C161.101 2.59011 161.583 2.56635 162.066 2.54259C162.305 2.57986 162.545 2.61713 162.784 2.6544C163.742 2.57444 162.488 2.5525 162.346 2.4464C162.291 2.40469 163.193 2.35476 162.063 2.20568ZM250.045 2.20519C249.719 2.32299 248.921 2.47159 249.705 2.58995C249.706 2.58995 249.706 2.58995 249.707 2.58995C249.852 2.6116 250.443 2.62351 250.624 2.65391C251.917 2.49698 251.422 2.3348 250.045 2.20519ZM170.715 1.99475C171.493 2.02226 172.271 2.04976 173.049 2.07727C173.036 2.1479 173.022 2.21854 173.009 2.28918C172.593 2.27013 172.177 2.25109 171.76 2.23205C171.614 2.26427 171.468 2.2965 171.322 2.32873C171.839 2.40929 172.356 2.48985 172.873 2.57042C173.495 2.54226 174.118 2.5141 174.741 2.48595C174.454 2.44868 174.168 2.41141 173.882 2.37413C175.404 2.33299 175.072 2.50476 176.332 2.57042C176.763 2.50499 177.194 2.43956 177.626 2.37413C178.25 2.43989 178.874 2.50564 179.499 2.57139C180.548 2.54068 180.64 2.4906 179.934 2.41564C180.455 2.32997 181.026 2.46471 181.655 2.4298C181.706 2.42698 181.609 2.3463 181.655 2.34533C184.903 2.29094 184.73 2.50281 185.249 2.51183C185.615 2.51802 187.076 2.37504 187.099 2.32628C187.127 2.26059 184.088 2.00153 188.848 1.99475C186.387 1.81556 183.589 1.99797 185.398 2.26086C184.619 2.2344 181.185 2.3 180.966 2.29211C180.646 2.2802 180.758 2.18046 180.358 2.17785C180.122 2.17644 179.496 2.40443 177.626 2.20519C177.387 2.24263 177.148 2.28006 176.909 2.3175C176.685 2.28674 176.461 2.25597 176.237 2.22521C176.698 2.11552 177.159 2.00582 177.62 1.89612C175.793 2.01531 174.278 1.7914 173.165 1.9801C172.203 1.95814 171.736 1.93643 172.149 1.83997C171.86 1.83997 171.572 1.83997 171.283 1.83997C171.094 1.89156 170.904 1.94316 170.715 1.99475ZM244.142 2.37365C243.187 2.26413 242.843 2.5004 242.992 2.51378C243.83 2.5873 244.64 2.43062 244.142 2.37365ZM163.799 2.33117C164.853 2.39204 165.908 2.45291 166.963 2.51378C166.963 2.43907 166.963 2.36437 166.963 2.28966C165.908 2.3035 164.853 2.31733 163.799 2.33117ZM253.938 2.26183C254.035 2.31782 254.132 2.37381 254.229 2.4298C255.384 2.22529 256.531 2.51871 257.102 2.45812C257.225 2.44488 256.975 2.34602 256.739 2.32482C256.592 2.31157 254.142 2.24295 253.938 2.26183ZM302.03 2.28869C301.599 2.32628 301.169 2.36388 300.739 2.40148C300.762 2.33849 300.786 2.27551 300.81 2.21252C301.023 2.2008 301.235 2.18908 301.448 2.17736C301.642 2.21447 301.836 2.25158 302.03 2.28869ZM297.133 2.38878C296.365 2.38374 295.597 2.37869 294.83 2.37365C297.758 2.31588 295.355 2.28768 297.133 2.20568C297.133 2.26672 297.133 2.32775 297.133 2.38878ZM289.363 2.26135C289.457 2.22375 289.551 2.18615 289.646 2.14856C290.413 2.14856 291.181 2.14856 291.949 2.14856C291.463 2.01803 290.978 1.8875 290.492 1.75697C290.211 1.75664 289.93 1.75632 289.648 1.75599C289.553 1.92444 289.458 2.09289 289.363 2.26135ZM141.327 1.92493C140.863 1.92268 139.249 2.03674 139.318 2.07873C139.989 2.13033 140.659 2.18192 141.33 2.23351C141.333 2.15865 141.336 2.08378 141.339 2.00891C141.434 2.04618 141.529 2.08345 141.624 2.12072C142.005 2.09273 142.386 2.06474 142.768 2.03674C142.96 2.10217 143.152 2.1676 143.345 2.23303C143.538 2.15832 143.731 2.08362 143.924 2.00891C142.082 1.87647 142.146 2.00885 141.763 2.00745C141.568 2.00681 141.445 1.96046 141.376 1.93714C141.36 1.93307 141.344 1.929 141.327 1.92493ZM164.527 1.85462C162.329 1.83602 161.072 2.03313 159.481 1.86829C160.501 2.21941 167.09 1.85673 169.412 2.14953C169.654 2.09322 169.895 2.03691 170.136 1.98059C168.871 2.03074 167.995 1.91476 167.378 1.89808C166.888 1.88483 166.939 1.94384 166.902 1.943C166.9 1.943 166.898 1.943 166.896 1.943C165.75 1.91876 165.395 1.86195 164.527 1.85462ZM255.571 1.98645C254.98 1.89748 253.946 1.90638 253.935 2.03625C254.51 2.07385 255.086 2.11145 255.661 2.14904C255.543 2.11579 255.672 2.00167 255.571 1.98645ZM288.47 1.89856C288.009 1.85629 286.919 1.89333 287.389 2.00549C287.474 2.0254 288.559 1.94656 287.922 2.14904C288.979 2.14591 288.732 1.92286 288.47 1.89856ZM202.102 2.12072C202.49 2.11698 202.878 2.11324 203.266 2.10949C203.357 2.05709 203.447 2.00468 203.537 1.95227C203.059 2.00842 202.58 2.06457 202.102 2.12072ZM260.558 1.89661C261.074 2.15309 261.955 1.9035 262.923 2.11438C263.281 2.116 263.638 2.11763 263.996 2.11926C263.997 2.11926 263.998 2.11926 263.999 2.11926C264.008 2.04927 264.018 1.97929 264.028 1.90931C262.871 1.90507 261.715 1.90084 260.558 1.89661ZM177.909 1.99426C178.148 2.02681 178.387 2.05937 178.626 2.09192C179.051 2.05399 179.477 2.01607 179.902 1.97815C179.672 1.95097 179.442 1.92379 179.212 1.89661C178.777 1.92916 178.343 1.96171 177.909 1.99426ZM266.844 1.87464C265.593 1.84251 265.123 2.06547 266.722 2.06604C267.396 2.06604 268.154 1.90821 266.844 1.87464ZM117.433 2.00794C117.861 2.02698 118.29 2.04602 118.718 2.06506C118.864 2.01819 119.01 1.97132 119.156 1.92444C118.582 1.95227 118.007 1.9801 117.433 2.00794ZM294.401 1.92395C294.351 1.97083 294.301 2.0177 294.25 2.06457C293.868 2.05513 293.486 2.04569 293.104 2.03625C293.2 1.98971 293.296 1.94316 293.392 1.89661C293.728 1.90572 294.065 1.91484 294.401 1.92395ZM120.316 2.03674C120.659 2.04569 121.002 2.05465 121.344 2.0636C121.574 2.04081 121.805 2.01803 122.035 1.99524C121.714 1.97262 121.394 1.94999 121.073 1.92737C120.821 1.96383 120.569 2.00029 120.316 2.03674ZM278.7 1.89612C278.219 1.83976 276.296 2.01536 278.028 2.06018C279.131 2.08863 278.772 1.9047 278.7 1.89612ZM281.294 1.83997C279.461 1.7326 280.835 2.27755 283.023 1.92444C280.821 1.97285 281.401 1.84646 281.294 1.83997ZM297.412 1.55873C297.458 1.55901 297.496 1.63737 297.864 1.64027C299.19 1.65042 300.94 1.68138 301.888 1.68617C304.167 1.69772 311.15 1.55607 311.966 1.78284C312.136 1.83047 311.745 1.97278 311.814 1.9801C312.017 2.00054 313.185 1.93149 312.969 2.03625C311.823 2.03544 310.677 2.03463 309.531 2.03381C309.812 1.95992 310.094 1.88603 310.375 1.81214C307.52 1.85159 308.465 1.84703 307.643 2.00794C307.16 1.9456 306.677 1.88326 306.194 1.82093C305.142 1.88359 304.09 1.94625 303.038 2.00891C303.276 1.9622 303.515 1.91549 303.753 1.86878C302.168 1.78227 302.608 1.839 301.741 1.95227C301.739 1.90556 301.738 1.85885 301.736 1.81214C300.206 1.92599 299.908 1.786 299.573 1.78431C298.887 1.78156 298.013 2.33423 295.397 1.78431C294.294 2.04879 294.319 1.51073 293.671 1.78431C291.804 1.48649 295.355 1.59428 297.035 1.60414C297.036 1.60414 297.036 1.60414 297.037 1.60414C297.164 1.60498 296.963 1.55483 297.412 1.55873ZM287.822 1.83265C288.952 1.58987 284.487 1.56714 285.965 1.91761C286.185 1.929 286.405 1.94039 286.625 1.95178C287.025 1.91207 287.424 1.87236 287.824 1.83265C287.823 1.83265 287.823 1.83265 287.822 1.83265ZM245.869 1.67152C241.733 1.77128 244.084 1.91094 245.485 1.77454C245.764 1.74749 245.918 1.7104 245.869 1.67152ZM161.386 1.6681C161.325 1.69724 161.265 1.72637 161.205 1.7555C162.591 1.72824 165.273 1.84061 165.236 1.64418C163.953 1.65215 162.669 1.66013 161.386 1.6681ZM172.357 1.53969C172.059 1.52784 170.842 1.49987 170.989 1.57338C171.516 1.62546 172.044 1.67754 172.571 1.72962C172.817 1.69707 173.062 1.66452 173.308 1.63197C172.965 1.6209 172.438 1.54279 172.357 1.53969Z" fill="#FB72CC"/>
</svg>
