<svg width="239" height="8" viewBox="0 0 239 8" fill="none" xmlns="http://www.w3.org/2000/svg">
<path d="M5.36908 0.296052C10.3687 -0.403095 13.7813 0.339761 18.4193 0.458157C28.6292 0.718264 42.0932 0.483995 52.5356 0.502589C60.4394 0.516679 68.4706 0.566573 76.3268 0.60659C76.7297 0.608561 76.9701 0.685206 77.1528 0.686177C78.8729 0.695194 81.7573 0.625751 83.4636 0.635885C87.053 0.657021 93.2984 0.645079 96.5859 0.716938C97.982 0.747365 99.4139 0.76005 99.9565 0.942517C100.467 0.951809 100.745 0.786943 100.878 0.777971C100.88 0.778134 100.881 0.778296 100.883 0.778459C101.312 0.750628 102.395 0.866222 102.634 0.859023C102.67 0.857896 102.45 0.738482 103.03 0.774553C103.082 0.777653 103.034 0.858845 103.522 0.86C103.649 0.860281 105.283 0.735777 105.75 0.728168C107.303 0.703389 111.013 0.801131 112.87 0.799455C113.154 0.799455 113.318 0.751962 113.618 0.751116C113.773 0.750625 114.005 0.802178 114.053 0.801896C114.261 0.800062 115.174 0.565938 114.847 1.02796C115.8 0.998668 115.519 0.845922 115.54 0.746722C116.575 0.732397 117.074 0.949993 117.344 0.719379C122.431 0.74721 127.519 0.775041 132.607 0.802872C132.608 0.765276 132.61 0.727679 132.611 0.690083C134.111 0.840251 134.625 0.586243 135.481 0.804337C136.009 0.756325 136.537 0.708312 137.065 0.660299C150.632 0.808239 164.167 0.632395 177.581 0.632956C178.147 0.632956 178.288 0.712956 179.222 0.71352C180.253 0.71408 181.702 0.621106 183.061 0.622214C184.253 0.623059 186.011 0.698742 187.34 0.71059C187.64 0.713126 187.857 0.662458 187.89 0.66274C188.089 0.66472 188.099 0.744935 188.291 0.74721C188.522 0.749746 188.8 0.690325 189.066 0.693989C190.061 0.707223 191.145 0.686742 191.271 0.68813C191.878 0.695724 192.011 0.774174 192.061 0.775041C192.736 0.784615 192.483 0.713807 192.651 0.717914C193.523 0.739614 194.14 0.916371 195.334 0.746722C195.301 0.812312 195.268 0.877903 195.236 0.943493C196.15 0.980399 195.546 0.806115 195.733 0.774553C195.809 0.762859 197.776 0.784144 197.927 0.787248C198.456 0.798517 198.47 0.88568 198.515 0.886854C198.627 0.889672 199.956 0.790747 200.637 0.866835C201.443 0.957003 200.494 1.13431 200.694 1.16761C200.728 1.17324 201.572 1.15507 201.685 1.21057C201.81 1.27029 201.081 1.26902 201.092 1.29407C201.1 1.31126 202.312 1.43435 202.079 1.51721C201.893 1.6003 200.249 1.49376 199.9 1.53283C199.843 1.5393 199.951 1.64186 199.9 1.64562C199.696 1.65942 195.908 1.66251 195.735 1.64562C195.932 1.59891 196.129 1.5522 196.326 1.50549C196.064 1.50077 195.802 1.49605 195.54 1.49133C195.912 1.45389 196.285 1.41646 196.658 1.37903C196.104 0.994411 194.435 1.38431 194.366 1.57629C194.336 1.66506 195.357 1.89345 194.407 2.02647C194.552 2.04925 194.696 2.07204 194.84 2.09483C195.138 2.05739 195.435 2.01996 195.733 1.98252C195.535 1.95892 195.337 1.93532 195.138 1.91173C195.211 1.88503 195.284 1.85834 195.357 1.83165C195.913 1.78884 196.47 1.74604 197.026 1.70324C197.312 1.72296 197.252 1.80176 197.449 1.817C199.9 2.00891 198.301 1.7647 199.906 1.79991C200.135 1.84223 200.364 1.88454 200.593 1.92686C200.512 1.75185 201.223 1.86174 202.083 1.78624C201.98 1.84288 201.877 1.89952 201.775 1.95616C203.02 1.926 205.545 2.21156 204.864 1.89903C205.149 1.92572 205.434 1.95241 205.72 1.97911C205.961 1.928 206.202 1.8769 206.443 1.82579C206.776 1.83165 207.109 1.83751 207.442 1.84337C207.443 1.87104 207.445 1.8987 207.447 1.92637C207.181 1.92654 206.915 1.9267 206.65 1.92686C206.849 2.01117 207.048 2.09548 207.248 2.17978C207.444 2.16579 207.64 2.15179 207.836 2.13779C207.014 2.05805 208.098 1.92781 208.36 1.81651C209.053 1.77538 209.496 1.91986 209.729 1.92637C209.838 1.92947 211.125 1.67457 210.62 1.95469C211.282 1.92068 211.945 1.88666 212.607 1.85264C212.866 1.87413 213.125 1.89561 213.384 1.9171C212.822 2.04757 214.45 2.20478 213.251 2.25888C212.355 2.29946 212.134 2.17747 211.709 2.17832C211.326 2.17892 211.123 2.26108 210.706 2.26474C207.901 2.28785 205.616 2.27278 202.953 2.23642C202.426 2.22912 201.948 2.2694 201.594 2.26377C201.195 2.25727 201.695 2.15422 201.187 2.1793C200.653 2.20581 200.537 2.28991 200.396 2.2916C200.309 2.29255 200.03 2.21689 199.774 2.21689C198.723 2.21691 197.182 2.29007 197.032 2.28964C196.863 2.2888 193.889 2.22053 193.746 2.2081C193.671 2.20134 193.827 1.92195 193.172 2.21982C192.967 2.22535 192.763 2.23089 192.558 2.23642C192.591 2.1806 192.624 2.12477 192.658 2.06895C191.446 2.28058 191.863 2.16218 190.695 2.17881C187.898 2.21882 183.772 2.17178 180.713 2.1915C180.03 2.19602 179.77 2.26286 178.962 2.26767C178.211 2.2719 176.251 2.07245 176.677 2.34872C175.007 2.10949 174.738 2.52203 173.902 2.26474C173.801 2.30218 173.699 2.33961 173.598 2.37704C172.691 2.21642 172.41 2.35759 171.419 2.37704C170.992 2.3855 171.485 2.21465 170.622 2.40487C170.458 2.39071 170.293 2.37655 170.128 2.3624C170.167 2.32106 170.205 2.27972 170.243 2.23838C169.286 2.27219 169.224 2.25065 169.333 2.40536C168.871 2.37721 168.409 2.34905 167.947 2.32089C167.889 2.37167 167.832 2.42245 167.774 2.47323C167.996 2.57009 178.491 2.42402 179.953 2.37753C181.667 2.49247 185.111 2.34877 186.495 2.37607C187.05 2.38706 187.294 2.5019 188.101 2.51571C188.907 2.52951 189.922 2.4252 190.351 2.42148C191.781 2.40851 198.557 2.43143 193.949 2.5743C194.081 2.63029 194.214 2.68628 194.346 2.74227C196.177 2.55122 195.514 2.66883 197.034 2.68856C197.674 2.69697 199.195 2.57195 199.11 2.82625C197.922 2.87359 196.66 2.79231 195.627 2.79598C195.525 2.79637 194.302 2.91248 193.672 2.88093C193.105 2.85214 193.496 2.60972 192.26 2.88191C191.343 2.61602 190.812 2.85724 190.57 2.88289C190.151 2.92735 190.105 2.79612 189.686 2.78084C189.23 2.76396 188.916 2.85107 188.854 2.85164C188.229 2.85361 184.971 2.86549 184.821 2.81258C184.952 2.7893 185.083 2.76603 185.214 2.74275C184.368 2.7053 184.545 2.83948 184.323 2.85554C184.157 2.85506 183.992 2.85457 183.826 2.85408C183.892 2.82625 183.957 2.79842 184.023 2.77059C183.024 2.7765 183.788 2.87322 182.37 2.87068C181.469 2.86897 180.539 2.76273 180.452 2.77059C180.426 2.77284 180.709 2.84447 180.342 2.85408C179.735 2.86986 178.684 2.86803 178.566 2.77059C178.269 2.78438 178.294 2.87974 178.254 2.88191C178.082 2.89121 175.108 2.92363 174.576 2.92927C173.1 2.94477 171.457 2.92444 169.858 2.9405C169.693 2.94211 169.798 2.88092 169.633 2.88289C169.369 2.88602 168.011 2.98206 167.808 2.98884C167.302 3.00546 165.97 2.96737 165.76 2.99519C165.731 2.99913 166.169 3.08184 165.656 3.10749C165.087 3.13586 165.394 3.02462 165.363 3.02351C164.205 2.98547 163.474 3.06276 162.683 3.07771C162.427 3.08249 161.954 2.99877 161.593 3.02351C161.551 3.02632 161.634 3.10368 161.593 3.10749C161.047 3.14807 160.536 3.00449 160.299 2.99519C159.721 2.97245 160.036 3.07842 160.006 3.07917C159.62 3.08255 159.102 3.04433 158.516 3.04939C155.904 3.07193 153.772 3.0784 150.995 3.07136C150.646 3.07051 150.232 2.99577 150.179 2.99568C150.014 2.99624 150.061 3.08407 149.585 3.0821C148.58 3.07759 147.648 3.08184 146.653 3.08015C146.452 3.07979 146.367 2.99841 146.214 2.99665C145.702 2.99158 143.954 3.20467 143.926 2.93953C142.909 3.17425 142.233 2.97194 141.415 2.97419C139.476 2.97927 136.44 3.02709 134.508 2.99665C134.101 2.99013 133.91 2.92219 133.684 2.91853C133.278 2.91179 130.957 2.94974 130.835 2.93904C130.597 2.91847 130.74 2.61928 129.514 2.87996C128.796 2.89853 128.881 2.77574 128.732 2.76912C127.574 2.7198 126.447 2.99385 126.658 2.74275C125.309 2.81094 124.436 2.94969 123.885 2.71492C123.893 2.82949 123.258 2.89822 122.494 2.85457C123.277 2.6621 123.18 2.5391 125.072 2.5743C125.102 2.57487 125.045 2.65772 125.075 2.65828C125.345 2.66388 125.909 2.62205 126.37 2.62655C126.83 2.63105 126.575 2.68769 126.759 2.6866C126.928 2.68548 126.922 2.60619 127.167 2.60506C127.959 2.60196 128.66 2.58011 129.111 2.5787C129.395 2.57788 129.713 2.64754 129.934 2.64754C130.786 2.64697 132.592 2.59257 133.676 2.60018C133.902 2.60196 133.807 2.68013 134.302 2.6866C134.359 2.68736 134.57 2.60585 135.003 2.58895C135.436 2.57205 135.771 2.61252 136.049 2.60409C136.282 2.59704 136.185 2.52463 136.661 2.52011C137.058 2.51644 141.558 2.56861 141.802 2.58016C142.154 2.59682 142.321 2.69851 142.535 2.68612C142.573 2.68346 142.637 2.58524 142.768 2.57821C144.925 2.46213 149.7 2.59613 152.165 2.5953C157.317 2.59389 162.071 2.5361 167.269 2.51327C167.362 2.49618 167.455 2.47909 167.547 2.462C167.022 2.46135 166.496 2.4607 165.971 2.46005C165.968 2.41383 165.964 2.3676 165.961 2.32138C165.251 2.31406 165.345 2.42338 165.365 2.48934C165.102 2.46135 164.839 2.43336 164.576 2.40536C164.349 2.56644 162.596 2.45931 161.692 2.45956C161.104 2.45956 160.405 2.52097 160.095 2.5162C159.44 2.50634 159.457 2.40695 159.406 2.40536C159.318 2.40311 158.404 2.49077 157.745 2.48739C156.77 2.48256 156.664 2.32994 155.329 2.45956C153.619 2.38038 151.724 2.42023 149.881 2.43319C150.232 2.29212 148.58 2.42564 147.835 2.42343C143.29 2.40962 137.704 2.34935 133.1 2.29355C132.508 2.28651 132.061 2.2034 131.732 2.20615C131.553 2.20756 131.475 2.30554 131.226 2.29257C131.183 2.29008 131.152 2.19846 130.69 2.18467C129.54 2.15 126.675 2.3029 125.95 2.12705C122.018 2.15423 118.086 2.18141 114.154 2.20859C114.055 2.17116 113.956 2.13372 113.857 2.09629C113.11 2.28759 110.157 2.17518 108.717 2.18418C106.183 2.20024 102.949 2.25972 100.728 2.26621C100.245 2.26762 99.8498 2.21335 99.3931 2.21445C99.1966 2.21501 98.9521 2.28537 98.7476 2.28574C96.4513 2.29109 93.3423 2.21862 91.0281 2.22031C85.7741 2.22397 80.8261 2.2133 75.5026 2.2164C57.5695 2.22739 39.7397 2.33086 21.9595 2.28916C21.7211 2.28859 21.7331 2.20769 21.5483 2.20713C20.4578 2.20318 18.0226 2.26987 16.791 2.26621C15.8097 2.26339 14.2522 2.13969 13.9146 2.26425C17.4007 2.45278 21.0838 2.4386 24.7129 2.4913C24.9709 2.49501 25.0029 2.57192 25.0347 2.57333C25.6223 2.60005 25.2512 2.49413 26.1032 2.48934C26.388 2.48774 29.0182 2.73326 28.7053 2.48886C29.3352 2.58662 33.7754 2.63549 34.6323 2.60311C34.8925 2.59325 34.7083 2.52084 34.76 2.51718C34.9842 2.50118 35.0855 2.60102 35.286 2.6036C35.8204 2.6098 37.1794 2.52882 37.4377 2.52938C38.0318 2.53025 39.8131 2.61152 40.5977 2.59237C41.3167 2.5749 41.1821 2.47061 41.8038 2.46102C42.2939 2.45374 41.7601 2.54147 42.8541 2.56796C43.3964 2.58092 45.2932 2.51816 45.7543 2.51815C46.2151 2.51815 46.7278 2.58056 47.3635 2.57577C48.2791 2.569 50.2709 2.53426 51.2027 2.51425C51.2583 2.51312 51.3938 2.43199 51.5309 2.43368C51.8148 2.43708 51.7295 2.53728 51.9439 2.54745C52.1584 2.55759 55.8733 2.54535 56.5043 2.54647C56.9392 2.54703 57.2395 2.48735 57.4798 2.48788C57.6684 2.48844 57.6886 2.5719 57.881 2.57284C57.9406 2.57284 58.4475 2.50035 58.9541 2.50204C59.4327 2.50374 61.2499 2.57267 61.4604 2.57333C61.5974 2.57361 61.4472 2.5143 61.8524 2.51571C62.2217 2.51716 62.4643 2.59417 62.6748 2.5953C63.1632 2.5978 63.7092 2.53214 64.2274 2.53182C65.7172 2.53098 65.6405 2.62638 65.7299 2.62948C65.9778 2.63809 66.077 2.55071 66.1584 2.54891C66.5019 2.54159 67.3438 2.52545 67.65 2.52206C68.0314 2.51783 68.1929 2.60088 68.5982 2.60116C68.9002 2.6011 69.5101 2.52014 70.1991 2.5162C71.7524 2.5069 73.5997 2.49162 75.1251 2.49472C75.58 2.49556 75.6498 2.57135 75.7888 2.57333C76.5196 2.58373 76.9287 2.49898 77.1373 2.50009C78.6251 2.50769 81.279 2.64066 82.6595 2.65194C83.2217 2.65644 85.6828 2.59505 87.0713 2.60604C87.2301 2.60718 87.0814 2.66661 87.2582 2.65731C87.681 2.63501 87.6418 2.514 87.8563 2.51766C87.9597 2.5198 88.1958 2.58802 88.4972 2.59481C90.0605 2.63004 91.1356 2.57699 91.8487 2.58065C98.6977 2.61588 105.682 2.64758 112.078 2.65828C112.791 2.65941 113.675 2.58742 114.752 2.65731C114.785 2.6949 114.818 2.7325 114.851 2.7701C114.889 2.73315 114.927 2.69621 114.964 2.65926C116.184 2.63925 116.645 2.5917 117.89 2.63875C117.997 2.6427 118.325 2.81433 118.527 2.60116C119.761 2.75559 119.084 2.5999 120 2.58553C120.915 2.57116 121.805 2.61876 122.693 2.62948C123.179 2.70585 121.137 2.88199 121.004 2.88142C120.79 2.88074 120.567 2.77475 120.361 2.76912C119.749 2.75227 119.158 2.83638 119.02 2.74178C118.23 2.8418 119.214 2.79182 119.115 2.88191C118.588 2.84464 118.06 2.80737 117.533 2.7701C117.264 3.0765 114.349 2.67692 114.551 2.91023C114.319 2.86352 114.087 2.81681 113.856 2.7701C112.839 3.0628 112.241 2.85669 110.884 2.76961C110.982 2.80704 111.08 2.84448 111.178 2.88191C111.15 2.89753 109.953 2.95739 110.381 2.79793C109.154 3.00804 109.206 2.65855 108.105 2.91121C107.452 2.94361 107.845 2.79686 106.675 2.79939C105.982 2.8008 105.121 2.87753 104.346 2.88289C104.168 2.88388 104.09 2.79891 103.932 2.79891C103.773 2.79894 103.695 2.88225 103.503 2.88435C103.106 2.88886 102.591 2.83038 102.342 2.83601C102.12 2.84082 101.802 2.9143 101.266 2.92585C99.393 2.9667 99.9587 2.86176 99.663 2.82625C99.3452 2.78849 99.1167 2.92675 98.4832 2.91072C98.4196 2.90903 98.584 2.82287 98.3774 2.82625C98.2108 2.8289 98.127 2.92255 97.5751 2.94001C97.3554 2.94706 93.9438 2.96712 93.4241 2.96882C92.6276 2.97136 90.8532 2.89209 90.0289 2.89265C89.7112 2.89267 89.3717 2.96786 89.0342 2.96736C87.9159 2.96567 86.1255 2.9593 84.7072 2.95564C83.4301 2.95224 81.1881 2.78627 80.4887 2.93611C78.6954 2.95555 78.2598 2.8275 78.1247 2.82576C77.7591 2.82097 77.5899 2.9058 77.1291 2.90974C71.16 2.95905 63.2998 2.90298 57.6467 2.90974C44.5328 2.92609 31.3474 2.97244 18.1878 2.93806C18.1525 2.97566 18.1173 3.01325 18.082 3.05085C19.6373 3.07509 21.4652 3.1404 23.0007 3.15534C25.0506 3.17505 28.0915 3.01848 29.5951 3.27545C28.9853 3.29799 27.9918 3.19946 28.0096 3.3316C29.0997 3.34104 30.1898 3.35048 31.2799 3.35992C31.2474 3.29889 31.2149 3.23786 31.1824 3.17682C32.3206 3.15907 33.4847 3.17238 34.6268 3.16364C34.8252 3.1622 34.6847 3.10679 34.8575 3.10651C35.0508 3.10631 34.9198 3.1627 34.956 3.16315C35.4445 3.16372 35.592 3.10667 35.6516 3.10749C35.8046 3.10974 35.6856 3.16405 36.1266 3.17926C36.9447 3.20769 37.5304 3.06343 37.3383 3.30377C37.6024 3.30377 37.8665 3.30377 38.1306 3.30377C38.1989 3.23834 38.2673 3.17292 38.3357 3.10749C39.9602 3.37164 40.7092 2.90828 41.6069 3.27594C41.9029 3.21979 42.1989 3.16364 42.4949 3.10749C42.6618 3.17292 42.8286 3.23834 42.9955 3.30377C43.028 3.24762 43.0605 3.19147 43.093 3.13532C44.6879 3.17672 46.386 3.10932 47.9114 3.11579C48.974 3.1203 49.2285 3.14247 50.1697 3.13825C52.2633 3.12867 50.1842 3.24009 51.9239 3.36041C51.8333 3.29157 51.7427 3.22272 51.6522 3.15387C51.9403 3.12865 52.2284 3.10342 52.5165 3.07819C52.717 3.13434 52.9176 3.19049 53.1182 3.24665C54.0079 2.9554 54.5843 3.19049 54.7055 3.19049C54.8034 3.18999 55.1395 3.01465 56.1925 3.16315C55.7558 2.92344 56.9958 3.16174 57.0951 3.16315C57.1895 3.16412 58.3967 3.11061 58.8866 3.11286C59.272 3.11457 60.0941 3.16617 60.6681 3.16364C61.1748 3.16139 61.1234 3.08001 61.1604 3.07917C61.7842 3.07241 61.3933 3.13564 61.8442 3.13874C62.2951 3.14183 62.6449 3.07248 62.7422 3.07868C62.7912 3.08198 62.6275 3.15779 62.8516 3.1651C63.4536 3.18507 64.5421 3.1187 65.2312 3.12067C65.4755 3.12128 65.7834 3.18559 66.0554 3.18756C66.4725 3.19037 66.6674 3.10495 66.9097 3.10749C66.9939 3.1086 67.5319 3.24055 68.2007 3.22028C68.3279 3.21621 68.7016 2.93701 69.1981 3.33258C69.2364 3.27692 69.2747 3.22126 69.313 3.16559C71.5556 3.02779 72.1796 3.47998 73.1768 3.07868C74.8052 3.1235 73.6873 3.27982 73.866 3.30377C73.9816 3.31891 74.5124 3.27593 74.5708 3.27838C74.6741 3.28317 74.6563 3.33335 74.7696 3.33307C76.8453 3.32377 75.9237 3.22904 76.5811 3.16901C78.1443 3.02614 79.364 3.34334 76.6449 3.24811C76.6449 3.2761 76.6449 3.3041 76.6449 3.33209C77.3145 3.30534 79.014 3.31804 78.4465 3.46002C77.9996 3.57189 73.9675 3.49888 76.2511 3.65581C76.7695 3.69132 77.0381 3.58627 77.9359 3.78325C78.5297 3.79394 78.6152 3.53874 79.4193 3.64116C79.2871 3.55214 79.1549 3.46311 79.0227 3.37408C80.1191 3.25804 81.4718 3.4137 82.314 3.36383C82.6002 3.34683 83.631 2.92238 83.3907 3.34674C83.8718 3.32028 86.1378 3.39845 86.5589 3.36041C86.6602 3.35122 86.7921 3.12529 88.2574 3.20417C88.3592 3.23249 88.4611 3.2608 88.5628 3.28912C87.2226 3.3714 89.5895 3.45509 88.9467 3.66948C88.7282 3.57312 87.6654 3.51434 87.4943 3.46588C87.2023 3.38246 88.0721 3.27495 86.9637 3.30426C86.265 3.66258 88.2627 3.4977 87.9575 3.83794C89.4127 3.67911 89.5581 3.83065 89.8876 3.83696C91.2958 3.8626 92.182 3.82654 93.5107 3.86626C93.8345 3.79637 91.4291 3.69548 91.1311 3.72563C92.2276 3.47792 90.3404 3.46672 89.5438 3.61382C89.477 3.53895 89.4101 3.46409 89.3433 3.38922C90.3801 3.4298 91.3916 3.45065 92.4185 3.38922C92.4853 3.41721 92.5522 3.44521 92.6191 3.4732C92.3887 3.51535 92.1583 3.55751 91.928 3.59966C92.782 3.66869 92.2698 3.45038 93.4077 3.64165C93.4429 3.55735 93.4782 3.47304 93.5135 3.38873C94.6045 3.41672 95.6955 3.44472 96.7865 3.47271C97.3545 3.30366 99.4539 3.36663 99.0694 3.5855C99.9168 3.60096 98.8707 3.48447 99.6648 3.43121C100.01 3.4081 100.686 3.40161 100.853 3.46051C100.781 3.66894 99.77 3.6948 99.4642 3.83794C99.6498 3.88411 104.351 3.7353 103.932 3.97904C104.307 4.00835 104.134 3.88278 104.811 3.85063C106.708 3.76102 109.647 4.0092 111.174 3.6978C109.381 3.52449 108.85 3.70805 107.475 3.71538C106.597 3.72017 101.244 3.74972 102.44 3.52935C102.243 3.55735 102.047 3.58534 101.85 3.61333C101.651 3.54774 101.453 3.48215 101.254 3.41656C101.814 3.40712 102.374 3.39768 102.934 3.38824C103.068 3.45367 103.202 3.5191 103.335 3.58453C103.397 3.53781 103.459 3.4911 103.52 3.44439C103.756 3.43512 103.992 3.42584 104.228 3.41656C104.162 3.47271 104.095 3.52886 104.029 3.58501C104.393 3.59462 104.756 3.60422 105.12 3.61382C105.022 3.53879 104.924 3.46376 104.826 3.38873C106.538 3.36986 105.958 3.41685 106.907 3.55718C107.616 3.57153 106.419 3.42732 107.919 3.39068C109.662 3.34815 108.518 3.57741 110.777 3.52837C110.809 3.49094 110.842 3.45351 110.874 3.41607C111.371 3.45351 111.867 3.49094 112.364 3.52837C112.298 3.48183 112.233 3.43528 112.167 3.38873C113.192 3.40677 114.605 3.31793 114.944 3.50054C113.905 3.41262 113.915 3.73147 114.186 3.79009C114.743 3.91036 122.981 3.79846 124.578 3.79057C126.62 3.78043 128.163 3.88256 130.028 3.72563C128.765 3.59692 124.32 3.70237 123.478 3.61333C123.394 3.6046 123.418 3.31231 122.882 3.64116C121.154 3.58539 119.088 3.67856 116.929 3.669C116.995 3.58485 117.061 3.50071 117.127 3.41656C118.454 3.59551 119.682 3.20245 119.509 3.52935C119.773 3.52935 120.037 3.52935 120.301 3.52935C120.301 3.47304 120.301 3.41672 120.301 3.36041C120.7 3.36041 121.098 3.36041 121.496 3.36041C121.496 3.41672 121.496 3.47304 121.496 3.52935C121.825 3.52935 122.155 3.52935 122.485 3.52935C122.519 3.4732 122.554 3.41705 122.588 3.3609C123.575 3.47752 126.941 3.16569 125.462 3.50103C125.925 3.50103 126.389 3.50103 126.853 3.50103C126.851 3.45985 126.85 3.41868 126.848 3.3775C127.048 3.37197 127.247 3.36643 127.446 3.3609C127.381 3.39817 127.315 3.43544 127.25 3.47271C128.163 3.40593 129.029 3.60215 129.629 3.4732C129.233 3.44504 128.838 3.41689 128.442 3.38873C129.201 3.44222 130.599 3.3314 130.724 3.33112C131.105 3.33056 131.307 3.4138 131.72 3.41803C132.093 3.42164 132.041 3.35767 132.111 3.35992C134.123 3.42504 133.356 3.77133 134.295 3.36139C134.395 3.41738 134.495 3.47336 134.595 3.52935C134.728 3.48264 134.861 3.43593 134.995 3.38922C135.589 3.39361 136.183 3.39801 136.777 3.4024C136.579 3.33242 136.381 3.26243 136.183 3.19245C137.073 3.16121 137.488 3.30153 137.575 3.30475C137.819 3.31291 137.93 3.22484 138.006 3.22467C141.635 3.23228 139.431 3.30983 141.244 3.64068C141.891 3.51084 141.237 3.38068 141.145 3.2486C142.005 3.31056 142.273 3.27399 143.181 3.28131C143.417 3.28331 143.671 3.35457 143.82 3.35553C143.949 3.35637 144.352 3.28065 144.662 3.28034C145.179 3.27977 145.866 3.32491 146.573 3.32379C147.161 3.32266 148.961 3.26918 150.217 3.26862C150.752 3.26862 150.628 3.33196 150.766 3.33209C150.824 3.33209 151.241 3.25622 151.585 3.25592C154.388 3.25423 157.26 3.30225 160.077 3.30084C162.061 3.3 164.077 3.23898 166.066 3.24518C166.489 3.24659 166.265 3.30229 166.45 3.30426C166.513 3.30476 166.589 3.20757 167.244 3.24665C167.48 3.26074 167.208 3.32871 167.441 3.33209C167.554 3.33371 167.602 3.2485 168.263 3.22907C169.465 3.19358 170.11 3.30715 170.218 3.30377C170.42 3.29723 170.361 3.22672 170.629 3.22418C171.94 3.21179 173.034 3.19983 174.204 3.19391C174.75 3.19109 178.516 3.17684 178.723 3.18952C179.186 3.21769 178.755 3.36494 179.348 3.35992C179.515 3.32265 179.681 3.28538 179.847 3.24811C179.583 3.21979 179.319 3.19147 179.055 3.16315C179.782 3.21049 180.606 3.14353 181.145 3.14606C181.244 3.14664 182.159 3.21341 182.626 3.20612C182.428 3.23379 182.229 3.26146 182.031 3.28912C182.101 3.31272 182.171 3.33632 182.241 3.35992C183.175 3.32415 184.162 3.32507 185.12 3.33014C185.465 3.33187 185.348 3.3892 185.698 3.39117C187.733 3.40326 187.219 3.16487 189.178 3.61236C188.516 3.57179 186.104 3.62871 185.753 3.61382C185.509 3.60339 184.561 3.22528 184.909 3.61333C182.954 3.61164 184.652 3.39761 182.827 3.44439C182.863 3.49175 182.9 3.53912 182.936 3.58648C182.299 3.61633 181.828 3.64027 181.441 3.55669C181.311 3.78646 179.146 3.65203 177.958 3.66753C176.242 3.68951 174.303 3.74556 172.603 3.75542C172.017 3.75876 171.685 3.66871 171.612 3.669C171.504 3.66964 171.202 3.74851 170.988 3.74907C170.187 3.75132 167.752 3.618 167.146 3.83696C171.909 3.83696 176.673 3.83696 181.436 3.83696C180.837 3.72933 185.656 3.71882 185.9 3.72417C186.126 3.72898 185.936 3.80454 186.003 3.80913C186.504 3.84154 186.931 3.73198 187.09 3.73198C187.211 3.732 187.456 3.7834 187.887 3.78227C187.966 3.78211 187.988 3.72775 188.073 3.72759C188.635 3.72759 189.19 3.72836 189.754 3.72808C189.788 3.7286 189.931 3.80801 190.073 3.80815C190.216 3.80815 190.357 3.72881 190.393 3.72856C190.844 3.72913 191.617 3.78073 192.046 3.7813C192.195 3.78127 192.092 3.72312 192.258 3.72368C192.771 3.72509 192.602 3.83892 193.236 3.80962C193.448 3.79974 193.434 3.71269 193.841 3.72417C194.129 3.73234 194.098 3.88747 194.144 3.89311C194.207 3.89992 195.201 3.77741 195.526 3.87895C194.815 4.14701 196.303 3.89294 196.232 3.77983C196.625 3.80831 197.019 3.8368 197.413 3.86528C197.547 3.83663 197.682 3.80799 197.816 3.77934C199.405 3.90841 200.375 3.83092 201.938 3.87065C202.013 3.87262 203.331 3.9363 203.269 3.9766C202.481 4.04591 201.694 4.04908 201.189 3.92094C200.359 4.16527 200.345 3.97056 199.004 4.00297C198.555 4.01396 198.523 4.08025 198.472 4.08109C196.726 4.11406 193.93 4.14258 192.753 3.94877C192.424 4.00119 193.609 4.02198 193.148 4.06058C192.897 4.08173 186.848 4.14362 188.78 3.92045C188.58 3.92664 188.379 3.93282 188.178 3.93901C187.978 4.1498 186.98 4.10159 187.093 3.89164C186.999 3.93461 186.904 3.97758 186.81 4.02055C186.623 4.0569 186.402 4.07637 186.092 4.08793C184.906 4.13187 177.847 4.05875 177.471 4.0889C177.463 4.13871 177.454 4.18851 177.446 4.23831C180.564 4.29468 183.59 4.17091 186.99 4.31351C186.892 4.2668 186.793 4.22009 186.694 4.17337C188.051 4.2388 189.408 4.30423 190.765 4.36966C189.329 4.4542 187.044 4.5252 185.536 4.45559C185.268 4.44318 185.465 4.37804 185.403 4.37015C185.242 4.34965 185.069 4.46267 184.491 4.47366C183.913 4.48463 182.461 4.40451 182.328 4.40677C182.071 4.41142 181.379 4.54073 180.942 4.53909C180.368 4.53683 180.753 4.45679 180.638 4.4551C180.161 4.44724 179.734 4.4869 179.36 4.48098C178.806 4.47218 177.654 4.33144 177.267 4.53811C177.663 4.54755 178.059 4.55699 178.455 4.56643C176.308 4.64054 174.629 4.37635 172.513 4.5801C172.033 4.83035 173.781 4.79653 172.303 4.90333C172.571 4.89975 172.839 4.89617 173.108 4.89259C173.171 4.84018 173.234 4.78778 173.296 4.73537C173.759 4.7728 174.221 4.81024 174.683 4.84767C174.551 4.80096 174.419 4.75425 174.288 4.70754C175.926 4.67231 177.581 4.62441 178.153 4.8755C178.187 4.81479 178.221 4.75409 178.254 4.69338C179.776 4.76719 182.06 4.50988 181.633 4.84767C181.705 4.82977 181.777 4.81186 181.849 4.79396C182.769 4.863 182.376 4.72332 182.722 4.70754C182.82 4.70309 184.608 4.77522 183.816 4.8755C185.56 4.95215 185.022 4.63644 185.503 4.62258C186.619 4.77898 188.627 4.54437 187.783 4.79152C187.949 4.8008 188.115 4.81007 188.281 4.81935C188.828 4.62491 189.366 4.84491 189.958 4.91847C190.159 4.92286 190.359 4.92726 190.56 4.93165C190.694 4.86622 190.828 4.8008 190.963 4.73537C192.85 5.04677 192.252 4.19514 193.114 4.91066C192.98 4.95346 192.846 4.99627 192.711 5.03907C192.393 5.05941 192.074 5.07976 191.756 5.1001C193.041 5.11898 194.325 5.13786 195.61 5.15674C197.24 5.3573 198.168 5.1397 199.98 5.29834C200.149 5.2793 200.319 5.26025 200.488 5.24121C200.316 5.40325 199.658 5.37944 200.883 5.45214C200.988 5.56671 200.16 5.58153 199.783 5.49365C199.692 5.4722 200.466 5.38444 199.596 5.38135C199.004 5.37913 200.078 5.51681 198.307 5.46582C198.372 5.49381 198.438 5.5218 198.504 5.5498C198.311 5.54898 198.119 5.54817 197.927 5.54736C197.757 5.48258 197.586 5.4178 197.415 5.35303C196.976 5.44659 196.73 5.5777 195.726 5.5498C195.999 5.50922 195.629 5.37915 195.133 5.38135C195.133 5.42822 195.133 5.47509 195.133 5.52197C193.931 5.55212 194.346 5.4146 193.347 5.52197C193.247 5.48469 193.147 5.44742 193.047 5.41015C192.503 5.56374 190.499 5.66822 190.864 5.43798C190.302 5.66174 189.122 5.56078 188.683 5.38183C188.649 5.42838 188.615 5.47493 188.581 5.52148C188.348 5.53092 188.114 5.54036 187.88 5.5498C187.75 5.52164 187.62 5.49348 187.489 5.46533C187.324 5.49348 187.158 5.52164 186.992 5.5498C186.892 5.50309 186.792 5.45638 186.692 5.40966C186.426 5.46565 186.16 5.52164 185.894 5.57763C185.731 5.54036 185.568 5.50309 185.405 5.46582C185.388 5.56325 183.774 5.58494 183.324 5.52099C183.189 5.54931 183.055 5.57763 182.921 5.60595C182.855 5.55956 182.789 5.51318 182.724 5.46679C182.624 5.5039 182.524 5.54101 182.424 5.57812C182.193 5.54101 181.963 5.5039 181.733 5.46679C180.793 5.6942 180.763 5.49468 180.548 5.49609C180.151 5.4987 178.796 5.6411 178.57 5.63378C178.344 5.6264 178.235 5.54478 178.052 5.5371C175.043 5.40888 176.28 5.62791 175.676 5.66259C175.35 5.68147 175.12 5.60532 174.832 5.61376C174.339 5.62785 171.854 5.7286 171.711 5.71874C171.503 5.70451 171.993 5.34545 171.316 5.43798C171.294 5.63078 169.847 5.43619 170.523 5.70507C169.927 5.68147 169.331 5.65787 168.735 5.63427C168.803 5.86281 168.068 5.71582 167.267 5.7285C166.133 5.74628 163.579 5.89655 163.672 5.6621C163.401 5.71597 163.129 5.76984 162.857 5.82371C160.998 5.74991 159.175 5.82724 157.33 5.83006C151.853 5.8388 145.912 5.7879 140.461 5.74169C140.199 5.7394 140.237 5.66281 140.048 5.66112C139.057 5.65267 136.481 5.70684 135.092 5.68993C134.647 5.68457 134.431 5.60987 134.29 5.60644C133.811 5.59432 133.924 5.69275 133.704 5.68993C133.356 5.68541 131.516 5.59404 130.883 5.58446C130.569 5.57972 130.198 5.65793 129.831 5.63378C129.799 5.63182 129.857 5.55121 129.831 5.5498C129.161 5.53993 129.564 5.60961 129.337 5.60595C127.723 5.57974 125.996 5.57814 124.245 5.56152C123.81 5.55729 123.144 5.50047 122.77 5.49511C122.628 5.49322 122.883 5.55438 122.391 5.54931C122.222 5.54758 122.165 5.46804 121.974 5.46289C121.154 5.44119 120.88 5.69676 120.175 5.4912C118.814 5.50473 116.446 5.57036 115.204 5.57177C114.91 5.57201 114.767 5.52503 114.487 5.52587C114.289 5.52644 113.939 5.5992 113.629 5.60009C113.32 5.60093 112.83 5.53164 112.235 5.53417C111.607 5.53672 110.827 5.57788 110.686 5.57763C110.515 5.57763 110.435 5.4901 110.264 5.4912C109.748 5.49402 108.365 5.58005 107.7 5.58935C106.985 5.5992 106.555 5.55676 106.311 5.55761C106.085 5.55878 105.821 5.63264 105.718 5.63329C105.557 5.63442 105.519 5.5481 105.315 5.54882C104.981 5.55023 104.637 5.60451 104.137 5.60595C95.1265 5.63272 86.2925 5.5853 77.5266 5.52245C76.5494 5.51541 75.9971 5.57594 74.5571 5.54833C73.9733 5.53706 74.2192 5.44799 73.7648 5.46484C73.5622 5.47245 73.6135 5.5425 73.3573 5.54589C72.2251 5.56054 70.9059 5.49545 70.4152 5.49658C70.2206 5.49691 69.9982 5.57647 69.5992 5.57763C66.6257 5.58665 63.1077 5.56431 59.9077 5.57812C58.2133 5.58544 55.6482 5.62598 53.7035 5.63134C48.3305 5.64627 42.5504 5.62784 37.6501 5.63573C30.2508 5.64729 22.8871 5.72086 15.5037 5.63378C18.9579 5.82625 23.6617 5.81019 27.5073 5.83104C38.6151 5.89078 50.4421 5.77896 61.826 5.78319C65.7867 5.7846 70.7807 5.78017 75.1169 5.82469C75.3136 5.82666 75.7212 5.76548 76.1462 5.77196C76.2365 5.77347 77.3563 5.88509 77.7335 5.88621C77.376 5.68782 78.8539 5.86464 79.3108 5.85985C79.887 5.85361 81.0886 5.75446 82.4371 5.81053C83.6606 5.86126 83.3232 5.93757 83.3907 5.94236C83.8235 5.97329 83.9745 5.8503 84.3061 5.83787C85.6608 5.78828 92.629 5.85973 94.5738 5.86424C95.0763 5.86537 95.0906 5.94355 95.2038 5.94383C95.5036 5.94435 95.9305 5.86713 96.4109 5.86766C97.2769 5.86879 98.2745 5.94257 98.7512 5.94285C99.8914 5.94369 102.055 5.85665 103.537 5.85496C103.954 5.85446 103.928 5.93581 104.117 5.93553C104.947 5.9341 107.11 5.83823 108.141 5.83739C109.815 5.83598 111.538 5.88857 113.24 5.8618C113.348 5.89809 113.456 5.93439 113.564 5.97068C113.734 5.9326 113.904 5.89451 114.074 5.85643C116.953 5.88545 119.882 5.80371 122.745 5.80907C123.075 5.80963 124.707 5.87909 124.979 5.87938C125.206 5.87938 125.429 5.78947 125.764 5.80272C126.235 5.8211 125.792 5.99231 126.56 5.94334C126.767 5.9301 126.567 5.85681 126.982 5.83397C127.119 5.82636 129.779 5.79667 129.922 5.80174C130.16 5.81029 130.373 5.9673 130.434 5.97068C130.754 5.9884 130.74 5.86791 130.955 5.85692C131.588 5.82402 132.415 5.90508 132.517 5.9033C133.761 5.88104 136.085 5.78485 137.391 5.84178C137.571 5.84972 137.549 5.93945 137.581 5.94236C137.786 5.96095 137.913 5.85879 138.107 5.85643C139.154 5.84487 140.793 5.91366 141.846 5.93113C141.967 5.93304 142.223 5.88389 142.44 5.88865C143.663 5.91627 143.266 5.99513 143.336 5.99851C143.501 6.00688 143.791 5.91991 144.229 5.91453C145.36 5.90016 147.527 5.91265 148.739 5.91941C149.646 5.92477 149.633 6.02437 149.692 6.02634C149.82 6.02992 150.173 5.9504 150.771 5.94139C151.921 5.92364 151.79 6.00189 152.262 5.99851C152.302 5.99851 152.233 5.92193 152.757 5.91404C153.771 5.89885 156.046 5.97413 157.131 5.97019C157.548 5.96879 157.646 5.89495 158.073 5.89354C158.75 5.89101 160.278 5.97089 160.399 5.97068C160.432 5.97068 160.508 5.88572 160.707 5.88572C160.925 5.88574 161.14 5.92946 161.303 5.92918C162.23 5.92801 163.828 5.77974 163.384 6.08298C163.682 6.00812 163.979 5.93325 164.276 5.85838C166.219 5.87332 168.106 5.84333 170.031 5.82811C170.464 5.82474 170.825 5.88216 171.19 5.87938C171.556 5.87656 173.168 5.78155 173.437 5.77977C173.918 5.77667 176.649 5.76666 176.989 5.77342C177.652 5.78639 178.296 5.91171 178.566 5.88719C178.783 5.86746 178.582 5.79685 178.996 5.77684C179.711 5.74223 180.926 5.83294 181.145 5.83153C181.238 5.83095 181.063 5.77591 181.937 5.77196C182.408 5.7697 182.66 5.83034 182.831 5.83006C182.884 5.82974 182.805 5.73141 183.737 5.74462C184.38 5.75391 184.655 5.82978 184.722 5.83006C184.823 5.83057 185.068 5.74961 185.475 5.75243C186.427 5.75949 188.166 5.85231 189.07 5.85936C189.245 5.86077 189.185 5.76296 189.882 5.77196C190.381 5.77844 190.294 5.85624 190.48 5.85936C190.776 5.86415 191.217 5.76887 191.871 5.77196C192.693 5.7759 198.799 5.87473 199.115 5.90037C199.328 5.91756 199.574 5.91865 199.68 5.96092C199.589 6.00144 199.499 6.04197 199.409 6.0825C198.474 5.94028 198.851 6.10282 198.603 6.11326C198.243 6.12819 196.888 6.10746 196.561 6.14353C196.444 6.15656 196.711 6.24306 196.084 6.28757C195.411 6.33515 195.111 6.18114 194.843 6.39157C193.888 6.15795 192.97 6.40591 194.076 6.47213C194.694 6.50906 200.753 6.59247 201.99 6.60543C202.993 6.61584 204.872 6.55324 206.105 6.5693C206.83 6.57888 208.616 6.58974 208.541 6.70162C209.184 6.71571 208.503 6.60433 208.638 6.58883C208.921 6.55646 210.929 6.63338 211.309 6.63033C213.185 6.61568 215.551 6.49061 217.372 6.63179C217.288 6.66174 217.203 6.69169 217.118 6.72164C216.709 6.77659 214.81 6.69803 214.595 6.84175C217.372 6.84175 220.149 6.84175 222.927 6.84175C222.875 6.71944 226.319 6.72109 226.482 6.77632C226.422 6.83556 226.361 6.89481 226.301 6.95405C224.354 6.72922 224.529 7.02641 223.222 6.8686C222.69 6.86638 222.85 6.96426 222.588 6.98286C219.979 7.16767 222.546 6.782 220.549 6.86958C221.15 7.01156 219.514 7.06345 218.781 7.08149C218.614 7.08543 216.423 7.04945 216.163 7.0517C214.701 7.06439 212.19 7.14217 210.738 7.0644C209.594 7.0551 208.964 7.15623 207.925 7.17963C207.137 7.19738 207.363 7.1263 206.992 7.12543C206.213 7.12346 205.957 7.33985 205.458 7.03803C204.93 7.07563 204.402 7.11323 203.874 7.15082C203.874 7.10395 203.874 7.05707 203.874 7.0102C203.543 7.0102 203.211 7.0102 202.88 7.0102C202.782 7.05691 202.685 7.10362 202.587 7.15033C201.535 7.08636 201.974 6.97349 201.778 6.84077C201.55 6.83166 201.323 6.82254 201.096 6.81343C200.92 6.91531 200.744 7.0172 200.568 7.11908C199.553 7.11078 198.538 7.10248 197.523 7.09418C197.457 7.04747 197.391 7.00076 197.326 6.95405C197.323 7.00076 197.321 7.04747 197.319 7.09418C195.6 7.10379 193.881 7.11339 192.163 7.12299C191.705 7.19793 194.459 7.25471 194.668 7.25922C195.828 7.28401 198.909 7.20888 198.913 7.37542C199.634 7.25116 201.805 7.28202 202.48 7.43109C201.455 7.42214 200.43 7.41318 199.405 7.40423C199.438 7.46006 199.471 7.51588 199.505 7.57171C198.227 7.34655 198.04 7.35894 196.728 7.57171C196.726 7.49684 196.725 7.42197 196.724 7.34711C195.808 7.60744 194.19 7.16583 194.144 7.48724C193.656 7.4612 193.169 7.43516 192.681 7.40911C191.629 7.44829 193.263 7.69548 189.142 7.59856C188.858 7.5918 188.917 7.50993 188.49 7.51556C188.367 7.51725 187.662 7.63635 186.313 7.62395C186.102 7.62197 186.087 7.55094 185.868 7.54192C185.364 7.52051 184.359 7.66099 184.815 7.43206C182.817 7.3653 183.645 7.55318 183.025 7.62786C182.612 7.67742 182.695 7.54197 182.338 7.57268C181.896 7.61077 182.22 7.74732 180.449 7.6845C180.648 7.67522 180.846 7.66594 181.045 7.65667C180.945 7.61956 180.845 7.58245 180.745 7.54534C179.734 7.63438 179.83 7.50428 179.353 7.71282C178.618 7.61982 177.982 7.61242 176.977 7.62932C175.025 7.66229 176.026 7.88703 173.797 7.5844C173.436 7.62688 173.075 7.66936 172.714 7.71184C172.12 7.62251 172.6 7.51076 171.715 7.48821C172.408 7.70887 170.539 7.62841 170.223 7.82512C170.19 7.77824 170.157 7.73137 170.124 7.6845C169.926 7.6845 169.728 7.6845 169.53 7.6845C169.53 7.72209 169.529 7.75969 169.528 7.79729C169.265 7.76913 169.001 7.74097 168.738 7.71282C168.54 7.75009 168.342 7.78736 168.144 7.82463C167.818 7.74602 167.492 7.66741 167.166 7.5888C166.962 7.58343 166.757 7.57805 166.553 7.57268C166.617 7.62867 166.682 7.68466 166.747 7.74065C166.484 7.72193 166.221 7.70321 165.958 7.6845C166.264 7.77637 166.072 7.88409 165.253 7.88127C164.578 7.87901 165.339 7.68726 163.887 7.76701C163.785 7.7727 163.606 7.90945 162.234 7.93058C160.588 7.95592 161.388 7.85687 161.094 7.85344C161.037 7.85287 160.534 7.9217 160.063 7.93156C159.796 7.93718 159.538 7.88161 159.503 7.88176C159.338 7.88429 159.29 7.9629 159.062 7.96574C158.482 7.9725 157.704 7.93398 157.135 7.93791C156.877 7.9396 156.634 7.98617 156.519 7.98673C156.34 7.98727 156.114 7.91614 155.933 7.91642C155.266 7.91791 154.253 8.15392 153.943 7.82609C153.301 8.12754 151.957 7.76308 152.055 7.96525C150.341 7.88895 145.768 8.13697 145.902 7.79729C144.931 8.08773 145.018 7.87739 144.611 7.88176C144.156 7.88655 144.392 7.94288 144.031 7.94035C143.186 7.93443 142.38 7.91023 141.54 7.9091C141.672 7.86255 141.804 7.816 141.935 7.76946C141.054 7.75452 141.357 7.86285 140.458 7.88371C138.803 7.92175 139.5 7.83532 139.256 7.7133C139.321 7.8311 137.37 7.81279 137.172 7.79729C137.053 7.78784 137.572 7.63601 136.378 7.68499C136.443 7.7317 136.508 7.77841 136.574 7.82512C136.029 7.76123 134.551 7.8423 134.3 7.82658C134.185 7.81926 133.568 7.44255 133.004 7.74065C132.936 7.69394 132.868 7.64723 132.8 7.60052C132.174 7.65667 131.547 7.71282 130.921 7.76897C130.821 7.68482 130.721 7.60068 130.621 7.51653C130.422 7.51653 130.224 7.51653 130.025 7.51653C130.157 7.59124 130.289 7.66594 130.421 7.74065C129.193 7.70684 127.694 7.82464 127.441 7.57268C127.178 7.61939 126.915 7.66611 126.652 7.71282C126.481 7.629 126.31 7.54518 126.139 7.46136C124.922 7.4825 124.902 7.53853 124.07 7.62786C124.102 7.56243 124.135 7.497 124.167 7.43158C123.553 7.52344 122.433 7.60898 121.547 7.62053C121.126 7.62586 120.403 7.5357 120.303 7.54388C120.203 7.55249 119.215 7.90672 119.108 7.60003C117.654 7.73586 117.014 7.59713 116.424 7.60052C116.041 7.60279 115.866 7.6764 115.433 7.68401C114.813 7.695 114.189 7.65941 113.832 7.66448C113.627 7.66758 113.589 7.73937 113.448 7.74162C112.781 7.75258 113.172 7.67922 112.469 7.68401C112.404 7.68484 111.89 7.77241 111.311 7.76115C110.987 7.75493 110.149 7.65643 110.076 7.65667C109.748 7.65836 110.01 7.85528 108.889 7.62786C108.922 7.66529 108.955 7.70273 108.987 7.74016C107.601 7.83513 107.382 7.66822 107.102 7.65667C107.066 7.65572 106.728 7.72024 106.526 7.71135C106.185 7.69615 106.048 7.60782 105.972 7.60393C105.706 7.59041 104.809 7.62926 104.223 7.54388C104.346 7.79525 102.293 7.88465 101.838 7.60003C101.475 7.65618 101.111 7.71233 100.748 7.76848C100.583 7.72161 100.419 7.67473 100.255 7.62786C100.155 7.67457 100.055 7.72128 99.9547 7.76799C99.425 7.66513 98.8953 7.56227 98.3656 7.45941C98.3319 7.56243 98.2981 7.66545 98.2644 7.76848C98.1161 7.75676 97.9678 7.74504 97.8195 7.73332C97.7037 7.65146 97.5879 7.56959 97.4721 7.48773C97.2867 7.50335 97.1013 7.51897 96.916 7.5346C96.8701 7.59384 96.8242 7.65309 96.7783 7.71233C95.7817 7.78062 96.2938 7.21558 94.3951 7.71233C94.0997 7.66562 93.8043 7.61891 93.5089 7.5722C93.1752 7.79953 92.5501 7.66188 92.0456 7.68743C91.6901 7.70546 91.7095 7.79577 91.225 7.79777C90.7404 7.79975 90.7577 7.71338 90.72 7.71282C90.3249 7.7075 90.027 7.78365 89.7371 7.76848C89.6935 7.76622 89.5841 7.66366 89.2147 7.65715C88.8453 7.65067 88.6226 7.75975 88.0724 7.73918C87.7904 7.72875 87.7089 7.64234 87.4588 7.63469C86.267 7.5975 85.0668 8.03509 84.173 7.51605C83.9715 7.58181 82.51 7.81199 81.8846 7.79875C80.9118 7.77761 81.2866 7.6758 80.8999 7.65715C80.8443 7.65434 80.5481 7.68873 79.732 7.68254C79.586 7.68142 79.6199 7.73891 79.5989 7.73967C78.6475 7.73854 76.8 7.69316 75.7551 7.68499C75.6618 7.68414 75.173 7.84437 74.3447 7.62883C73.1172 7.78804 70.8051 7.44599 69.1862 7.68596C68.9618 7.69103 68.6893 7.63372 68.59 7.63567C67.7338 7.65342 68.0476 7.82744 66.1128 7.57268C66.2695 7.66143 65.8168 7.74154 65.1774 7.73479C64.216 7.72464 64.8989 7.55916 64.1262 7.57268C64.1262 7.61939 64.1262 7.66611 64.1262 7.71282C62.3487 7.58717 61.995 7.78688 60.2113 7.78801C59.5697 7.78829 58.622 7.68478 58.469 7.6845C58.4099 7.6848 57.7082 7.79742 57.6412 7.79826C57.2638 7.80164 57.0507 7.74972 56.7249 7.74944C55.6484 7.74834 54.3637 7.89484 54.5961 7.62883C54.3001 7.68499 54.0041 7.74114 53.7081 7.79729C52.5897 7.51322 51.7534 7.90473 51.5191 7.62883C51.3191 7.6858 51.1191 7.74276 50.9192 7.79973C46.1226 7.77092 41.3261 7.74211 36.5296 7.7133C36.3389 7.80207 34.2473 7.77057 34.14 7.75676C33.6475 7.69419 34.1677 7.50061 33.1626 7.54485C33.0514 7.62965 32.9402 7.71444 32.8289 7.79924C31.5657 7.82685 32.1733 7.74247 31.6747 7.68499C31.4664 7.69544 31.5337 7.76125 31.2517 7.76604C29.7222 7.79224 26.586 7.79535 24.9135 7.8007C24.5762 7.80183 24.6271 7.74032 24.5223 7.74016C24.2344 7.74072 23.6661 7.81824 23.0882 7.81828C19.5148 7.81772 14.4513 7.774 10.8539 7.70891C10.6096 7.7044 10.5794 7.63103 10.4145 7.62737C10.186 7.6226 9.67562 7.68191 9.43531 7.67571C9.20894 7.67007 9.06395 7.61435 8.82173 7.60784C7.71333 7.5774 6.22309 7.67155 5.03721 7.50726C4.93748 7.4934 3.69502 7.19803 3.66691 7.17865C3.50204 7.06367 4.60615 6.88304 2.79258 6.7148C4.41347 6.56798 3.90711 6.30843 1.80154 6.18161C2.85761 6.1489 3.91368 6.11619 4.96975 6.08347C4.97127 6.05271 4.97278 6.02195 4.9743 5.99119C4.01295 5.83874 3.05915 5.78801 1.59732 5.77391C1.64291 5.74543 1.68849 5.71695 1.73408 5.68846C3.02522 5.54615 4.58275 5.51985 5.56601 5.32568C4.12398 5.18197 2.68195 5.03826 1.23993 4.89454C1.31195 4.87208 1.38398 4.84962 1.45601 4.82716C2.14727 4.76883 3.65719 4.73458 4.23126 4.68019C6.42377 4.47281 2.31233 4.52499 2.98768 4.39847C5.30252 4.40302 7.61736 4.40758 9.9322 4.41214C10.0134 4.31896 1.10808 4.0616 1.19981 3.78032C1.92736 3.76144 2.65491 3.74256 3.38245 3.72368C3.05819 3.65223 2.73392 3.58078 2.40966 3.50933C2.499 3.48671 2.58835 3.46409 2.6777 3.44146C3.90517 3.38596 5.13264 3.33046 6.36011 3.27496C2.62817 3.33075 0.893908 3.29026 0 2.72762C0.1012 2.7133 0.2024 2.69897 0.3036 2.68465C1.11206 3.03663 4.92827 2.92278 6.95637 2.85261C6.54301 2.74951 4.75725 2.82916 4.37987 2.76717C4.27293 2.74939 4.64586 2.67783 4.3981 2.6412C3.75056 2.54595 0.991188 2.4234 1.39219 2.30673C1.65042 2.23177 6.0903 2.12893 6.95637 2.13682C4.92633 2.00211 2.83466 1.96315 0.79866 1.79942C2.08381 1.57116 3.22198 1.29182 5.56783 1.27942C6.28285 1.15965 1.31685 0.993736 1.20164 0.928357C2.06108 0.858209 2.92052 0.788062 3.77996 0.717914C3.05302 0.736631 2.32608 0.755348 1.59914 0.774065C1.59702 0.750628 1.59489 0.727191 1.59276 0.703754C3.47586 0.594976 5.19864 0.395315 7.35387 0.408842C7.28435 0.284846 5.99479 0.297179 5.36908 0.296052ZM211.608 7.34857C211.651 7.45138 210.861 7.43453 210.416 7.43255C210.483 7.45127 210.55 7.46999 210.617 7.4887C209.667 7.46926 207.9 7.4298 207.834 7.62932C207.157 7.65412 207.456 7.48062 207.238 7.46087C207.152 7.45298 206.268 7.55396 205.561 7.43109C205.393 7.43158 205.225 7.43206 205.057 7.43255C205.024 7.49798 204.992 7.56341 204.959 7.62883C204.725 7.54941 204.491 7.46999 204.256 7.39056C206.706 7.37656 209.155 7.36257 211.604 7.34857C211.605 7.34857 211.606 7.34857 211.608 7.34857ZM187.195 7.43304C186.303 7.39612 184.937 7.33783 185.213 7.51702C185.776 7.50758 186.339 7.49814 186.903 7.4887C187 7.47015 187.097 7.45159 187.195 7.43304ZM98.4695 7.29193C97.7246 7.11552 97.0387 7.26811 95.8866 7.23627C95.8882 7.27354 95.8897 7.31081 95.8912 7.34808C96.3623 7.25859 97.6077 7.31813 98.4695 7.29193ZM233.739 6.67427C233.903 6.68811 234.067 6.70194 234.231 6.71578C233.563 6.91614 233.444 6.77494 232.689 6.79439C232.644 6.7956 232.659 6.84147 232.644 6.84175C232.459 6.84484 232.288 6.78964 232.121 6.79048C231.799 6.79217 231.537 6.84812 230.967 6.84614C230.526 6.84443 230.522 6.75649 230.367 6.75874C230.235 6.76092 228.927 7.00285 228.085 6.89839C226.484 6.69943 233.25 6.65567 233.739 6.67427ZM238.484 6.8398C238.326 6.84061 238.167 6.84142 238.009 6.84224C238.485 6.70706 237.524 6.7276 236.819 6.73042C236.841 6.60079 238.333 6.65624 239 6.61764C238.828 6.69169 238.656 6.76574 238.484 6.8398ZM218.461 6.56197C219.081 6.54876 218.977 6.71056 218.951 6.75874C218.754 6.75874 218.557 6.75874 218.36 6.75874C218.393 6.69315 218.427 6.62756 218.461 6.56197ZM223.121 6.50582C222.928 6.61573 221.583 6.66379 220.945 6.67281C220.918 6.67283 221.093 6.61251 220.642 6.61812C220.506 6.61988 219.174 6.83936 219.467 6.59029C220.685 6.56214 221.902 6.53398 223.119 6.50582C223.119 6.50582 223.12 6.50582 223.121 6.50582ZM224.479 6.57076C224.226 6.60527 223.972 6.63977 223.719 6.67427C223.588 6.62268 223.457 6.57109 223.326 6.51949C223.614 6.50647 223.903 6.49345 224.191 6.48043C224.287 6.51054 224.383 6.54065 224.479 6.57076ZM33.7862 6.42428C33.8452 6.47946 33.9041 6.53463 33.9631 6.5898C34.1916 6.62362 35.3021 6.38338 34.9505 6.33688C34.5624 6.36602 34.1743 6.39515 33.7862 6.42428ZM29.0964 6.30856C28.8654 6.28073 28.6345 6.2529 28.4035 6.22507C28.1379 6.31865 27.8723 6.41224 27.6067 6.50582C28.7605 6.56893 29.9882 6.64165 29.7902 6.36569C30.0543 6.36569 30.3184 6.36569 30.5825 6.36569C30.3601 6.47979 30.39 6.51739 31.0812 6.5898C31.2324 6.43103 31.947 6.51192 32.7651 6.47701C32.1701 6.46774 31.575 6.45846 30.98 6.44918C30.98 6.42119 30.98 6.3932 30.98 6.3652C32.3063 6.37532 30.6579 6.19775 29.7939 6.30905C29.7258 6.27178 29.6577 6.23451 29.5896 6.19724C29.4252 6.23435 29.2608 6.27145 29.0964 6.30856ZM124.966 6.3652C124.801 6.33704 124.637 6.30889 124.472 6.28073C123.835 6.64746 125.133 6.29958 126.056 6.5898C125.751 6.36933 127.159 6.37855 127.24 6.36374C127.078 6.28952 126.916 6.2153 126.754 6.14109C126.158 6.21579 125.562 6.2905 124.966 6.3652ZM120.305 6.11228C120.875 6.29517 118.075 6.30638 117.135 6.26608C116.907 6.25617 116.499 6.15575 116.335 6.16843C116.235 6.20554 116.135 6.24265 116.035 6.27975C115.916 6.1515 114.081 6.2957 113.359 6.36471C113.291 6.318 113.223 6.27129 113.154 6.22458C112.891 6.24313 112.628 6.26169 112.364 6.28024C112.397 6.2337 112.43 6.18715 112.463 6.1406C112.264 6.19659 112.065 6.25257 111.865 6.30856C111.083 6.37084 111.565 6.11707 110.977 6.19626C110.324 6.28419 111.395 6.4353 111.375 6.53365C111.905 6.50829 113.111 6.45151 113.65 6.44869C113.959 6.44718 113.608 6.62339 114.941 6.42086C115.233 6.46806 115.525 6.51526 115.817 6.56246C116.353 6.48743 116.889 6.4124 117.425 6.33737C117.525 6.40264 117.625 6.4679 117.725 6.53317C117.782 6.54338 119.022 6.39519 118.956 6.34616C119.458 6.47092 120.489 6.49316 121.575 6.49947C121.68 6.46399 121.784 6.42851 121.889 6.39303C120.838 6.46966 121.554 6.35549 121.241 6.28757C121.061 6.2484 120.508 6.17146 120.305 6.11228ZM41.1046 6.28122C39.3407 6.44043 40.4328 6.30906 38.5262 6.30905C38.6594 6.39336 38.7924 6.47767 38.9256 6.56197C39.8629 6.40794 41.4053 6.51037 41.1064 6.28122C41.1058 6.28122 41.1052 6.28122 41.1046 6.28122ZM22.4482 6.56148C23.4571 6.51048 22.9508 6.37937 24.2297 6.33737C24.2303 6.33737 24.2309 6.33737 24.2315 6.33737C23.5702 6.32793 22.9089 6.31849 22.2476 6.30905C22.3145 6.3932 22.3813 6.47734 22.4482 6.56148ZM81.4278 6.45944C82.3951 6.49607 82.2047 6.43047 83.0826 6.56148C84.3895 6.40255 83.2831 6.42502 83.2831 6.28073C82.9844 6.32305 82.6856 6.36536 82.3869 6.40768C81.6627 6.27275 82.3495 6.20483 82.3495 6.19187C82.3489 6.19187 82.3483 6.19187 82.3477 6.19187C82.3477 6.14856 82.3712 6.13944 82.0933 6.11326C81.8715 6.22865 81.6496 6.34404 81.4278 6.45944ZM85.5679 6.28122C85.2362 6.37703 85.087 6.50005 85.959 6.56148C85.9596 6.56148 85.9602 6.56148 85.9608 6.56148C86.0308 6.34735 86.8669 6.52019 87.2482 6.50582C87.3481 6.48255 87.4481 6.45927 87.5481 6.436C86.888 6.38441 86.228 6.33281 85.5679 6.28122ZM100.155 6.08445C100.159 6.321 99.4271 6.34351 100.457 6.56148C100.657 6.55725 100.857 6.55302 101.057 6.54879C101.188 6.49687 101.32 6.44495 101.451 6.39303C103.987 6.82109 104.744 6.0922 100.457 6.36471C100.456 6.36488 100.456 6.36504 100.455 6.3652C100.355 6.27162 100.255 6.17803 100.155 6.08445ZM95.6879 6.10447C95.6557 6.22865 95.6235 6.35283 95.5912 6.47701C95.0311 6.17745 94.3074 6.46328 93.2089 6.25192C93.1096 6.28968 93.0102 6.32744 92.9108 6.3652C92.5003 6.28211 88.4679 6.25817 89.3415 6.44918C89.7228 6.5326 90.5536 6.4193 90.6252 6.42184C90.8674 6.43121 91.1834 6.5379 91.5925 6.5317C91.8289 6.52797 92.3271 6.40257 92.8096 6.4028C93.8882 6.40336 95.8569 6.74004 97.2752 6.42135C97.3773 6.45879 97.4794 6.49622 97.5815 6.53365C98.6339 6.51081 98.2826 6.3922 99.2618 6.53365C99.9383 5.94381 95.3254 6.56275 96.286 6.08445C96.2854 6.08445 96.2848 6.08445 96.2841 6.08445C96.0854 6.09112 95.8866 6.09779 95.6879 6.10447ZM66.7109 6.28122C66.6474 6.1753 65.4267 6.33873 65.7135 6.08494C65.3151 6.17331 64.9167 6.26169 64.5183 6.35007C64.5213 6.37366 64.5243 6.39726 64.5274 6.42086C64.9234 6.40231 65.3194 6.38376 65.7153 6.3652C65.7169 6.40264 65.7184 6.44007 65.7199 6.4775C66.31 6.34208 68.7725 6.40107 68.6975 6.53365C68.8291 6.47767 68.9607 6.42168 69.0923 6.36569C70.2703 6.51815 71.2836 6.35605 72.5669 6.50485C72.6662 6.45846 72.7656 6.41208 72.865 6.36569C72.9297 6.40312 72.9945 6.44056 73.0592 6.47799C73.5266 6.48271 73.994 6.48743 74.4614 6.49215C75.9845 6.34142 73.0251 6.14629 72.6662 6.16843C72.6186 6.17153 72.6259 6.26844 72.328 6.28366C71.7988 6.31038 68.8367 6.21388 67.9208 6.2778C67.9129 6.21351 67.905 6.14922 67.8971 6.08494C67.5017 6.15036 67.1063 6.21579 66.7109 6.28122ZM105.815 6.33737C105.882 6.4028 105.949 6.46823 106.016 6.53365C107.17 6.46831 107.896 6.52543 107.6 6.30905C107.6 6.30905 107.599 6.30905 107.599 6.30905C107.004 6.31849 106.41 6.32793 105.815 6.33737ZM191.564 6.39303C191.534 6.26297 190.983 6.21435 190.27 6.30759C190.304 6.34535 190.339 6.3831 190.373 6.42086C190.744 6.31011 191.208 6.50315 192.354 6.4775C192.354 6.41208 192.354 6.34665 192.354 6.28122C192.091 6.31849 191.828 6.35576 191.564 6.39303ZM104.82 6.30905C104.468 6.2319 103.481 6.46595 104.13 6.4775C104.627 6.48623 105.008 6.35048 104.82 6.30905ZM18.4795 6.43502C18.7403 6.44869 19.001 6.46237 19.2618 6.47604C19.3976 6.42038 19.5334 6.36471 19.6693 6.30905C19.6687 6.30905 19.6681 6.30905 19.6675 6.30905C19.2715 6.35104 18.8755 6.39303 18.4795 6.43502ZM78.121 6.47018C79.0054 6.46204 79.8897 6.4539 80.7741 6.44577C80.7829 6.40947 80.7917 6.37318 80.8005 6.33688C79.9146 6.46933 79.5584 6.32658 79.3518 6.31784C79.3527 6.31784 79.3537 6.31784 79.3545 6.31784C78.6912 6.2891 78.0593 6.26796 77.4318 6.22458C77.6615 6.30645 77.8913 6.38831 78.121 6.47018ZM75.0896 6.24118C75.2385 6.49763 75.4331 6.52749 76.7917 6.34714C76.7379 6.31556 76.6842 6.28399 76.6303 6.25241C75.9264 6.27128 75.5157 6.33049 75.6393 6.19675C75.4561 6.21156 75.2728 6.22637 75.0896 6.24118ZM88.9385 6.32321C88.7754 6.24157 87.4815 6.32356 87.5518 6.36471C87.5796 6.38106 89.2563 6.48328 88.9385 6.32321ZM201.388 6.33639C201.09 6.31768 200.792 6.29896 200.494 6.28024C200.89 6.25241 201.287 6.22458 201.684 6.19675C201.585 6.2433 201.487 6.28985 201.388 6.33639ZM204.661 5.97166C204.874 6.00435 204.183 6.23491 205.454 6.2944C204.529 6.29929 203.604 6.30417 202.679 6.30905C203.113 6.27178 203.547 6.23451 203.98 6.19724C203.905 6.131 203.829 6.06475 203.753 5.99851C204.056 5.98956 204.359 5.98061 204.661 5.97166ZM205.654 6.1406C205.156 5.96536 207.778 5.9522 208.023 5.97361C208.077 5.9787 208.336 6.11156 208.431 6.14011C208.035 6.14027 207.639 6.14044 207.243 6.1406C207.376 6.18243 207.508 6.22426 207.641 6.26608C207.177 6.28041 206.714 6.29473 206.25 6.30905C206.449 6.26706 206.647 6.22507 206.845 6.18308C206.448 6.16892 206.051 6.15476 205.654 6.1406ZM195.133 6.18308C195.465 6.18747 195.796 6.19187 196.128 6.19626C196.061 6.13083 195.995 6.06541 195.929 5.99998C195.73 5.99998 195.532 5.99998 195.334 5.99998C195.267 6.06101 195.2 6.12205 195.133 6.18308ZM201.889 6.09861C201.406 6.41363 200.091 5.72494 201.628 5.97996C201.783 6.00589 201.934 6.06817 201.889 6.09861ZM209.006 6.01121C210.036 5.78153 209.804 6.28862 208.831 6.14011C208.782 6.13221 208.928 6.02817 209.006 6.01121ZM216.735 6.00388C216.819 6.00559 216.965 6.16978 217.762 6.01365C217.893 6.03237 218.025 6.05108 218.156 6.0698C217.848 6.14609 215.214 6.19147 215.578 6.02879C215.981 6.02625 216.318 5.99881 216.735 6.00388ZM214.184 5.39648C213.789 5.40104 213.393 5.4056 212.998 5.41015C213.128 5.46158 213.259 5.51301 213.389 5.56444C213.195 5.57844 213 5.59244 212.806 5.60644C212.473 5.51773 212.141 5.42903 211.808 5.34033C212.668 5.32617 213.527 5.31201 214.386 5.29785C214.319 5.33073 214.252 5.3636 214.184 5.39648ZM203.672 5.26953C204.433 5.33407 205.365 5.26538 206.6 5.27637C206.601 5.27653 206.602 5.27669 206.602 5.27686C206.664 5.27761 206.773 5.34826 206.972 5.35107C207.141 5.35332 210.477 5.27574 210.217 5.3955C208.926 5.50286 208.444 5.33964 208.134 5.60595C208.071 5.5498 208.008 5.49365 207.945 5.4375C206.704 5.34027 206.35 5.53465 205.652 5.60595C205.655 5.56363 205.658 5.52131 205.66 5.479C205.195 5.47477 204.729 5.47054 204.264 5.4663C204.329 5.49413 204.395 5.52197 204.461 5.5498C204.296 5.5498 204.131 5.5498 203.967 5.5498C203.565 5.42441 203.057 5.39518 203.672 5.26953ZM215.977 5.4663C216.343 5.14533 219.905 5.36519 221.532 5.29785C220.677 5.49112 219.354 5.35793 218.423 5.35596C216.622 5.35231 217.867 5.4706 217.561 5.52245C217.41 5.5481 216.389 5.34231 215.977 5.4663ZM200.893 5.32568C201.791 5.35161 202.294 5.27771 203.07 5.3955C203.005 5.41894 202.94 5.44238 202.875 5.46582C202.609 5.44436 200.441 5.37666 200.893 5.32568ZM223.916 5.38183C222.182 5.26657 223.037 5.55719 222.135 5.33935C222.729 5.32552 223.322 5.31169 223.916 5.29785C223.916 5.32585 223.916 5.35384 223.916 5.38183ZM102.835 5.10157C102.104 5.09423 101.288 5.03565 100.851 5.15674C101.347 5.17546 101.844 5.19418 102.341 5.21289C102.505 5.17578 102.67 5.13868 102.835 5.10157ZM123.675 3.9185C123.508 3.88947 122.848 3.97514 122.779 3.97514C122.649 3.97514 122.685 3.93294 122.683 3.92192C121.837 3.92956 122.617 4.06045 121.992 4.0889C121.885 4.0936 120.415 4.0289 119.817 4.03422C118.898 4.04239 117.979 4.03392 117.636 4.03617C117.055 4.03986 115.979 4.13803 115.025 4.1431C114.632 4.14503 114.495 4.06642 114.1 4.0684C111.563 4.08164 106.57 4.18956 104.319 4.13968C103.763 4.12729 103.233 4.02436 102.939 4.03275C102.707 4.07035 102.475 4.10795 102.243 4.14554C101.53 3.8071 101.291 4.10812 100.523 4.13968C100.034 4.15963 99.806 4.05936 99.7404 4.05961C99.3055 4.06158 99.091 4.10932 98.7494 4.11722C98.366 4.12596 97.8152 4.08073 97.6782 4.0889C97.594 4.09438 97.8627 4.22766 96.3753 4.22513C94.8595 4.2225 93.3629 4.20841 91.8213 4.20218C92.3355 4.60456 92.7783 4.32917 93.4077 4.31448C93.5765 4.31054 93.4695 4.37443 93.6165 4.37161C94.0317 4.36399 94.8264 4.30122 95.17 4.31644C95.5411 4.33285 95.4143 4.48092 95.8848 4.4263C95.9086 4.42348 95.8334 4.36232 95.9441 4.35208C97.0565 4.25091 97.4205 4.35728 98.8269 4.36038C99.7588 4.36262 105.418 4.30194 105.612 4.34183C106.625 4.556 100.662 4.55746 99.9647 4.54055C99.7206 4.53461 99.9766 4.46709 99.7541 4.45413C99.6598 4.44895 98.8122 4.5777 97.9745 4.5884C96.9614 4.60136 94.9256 4.51354 93.9602 4.51663C85.6612 4.5434 77.4773 4.46559 69.1862 4.46389C69.0094 4.46389 68.7766 4.54103 68.2007 4.54104C57.4503 4.53963 46.3083 4.47881 35.4209 4.51516C33.0473 4.52306 30.6932 4.5956 28.2977 4.53811C28.0005 4.59442 27.7033 4.65074 27.4061 4.70705C28.1663 4.66227 29.5594 4.78965 29.6863 4.79152C29.732 4.79208 30.0202 4.72858 30.4849 4.73195C31.1385 4.73646 31.4251 4.79152 31.4787 4.79152C31.6449 4.7917 31.536 4.73313 31.6948 4.73342C32.8787 4.73595 33.7947 4.71933 34.8812 4.71877C36.1086 4.71822 36.7308 4.8273 37.6246 4.70754C37.7258 4.75425 37.827 4.80096 37.9282 4.84767C38.596 4.64566 42.5726 4.66802 44.1834 4.67873C44.6917 4.68214 44.6025 4.76418 44.7733 4.76418C44.8823 4.76408 44.8393 4.65666 46.1691 4.67775C46.8385 4.68846 47.0141 4.76671 47.3498 4.76418C47.5322 4.76268 47.5026 4.68508 47.7646 4.68508C49.2802 4.68508 50.5176 4.71025 52.0014 4.72463C52.4185 4.72857 52.4231 4.79334 52.5165 4.7925C52.8602 4.7896 53.458 4.67991 54.3317 4.68019C55.7698 4.68076 58.636 4.68113 59.812 4.73439C59.9848 4.74228 60.128 4.81999 60.2551 4.81886C60.4475 4.81688 60.5231 4.7358 60.5569 4.73537C61.2005 4.73396 60.8133 4.80935 61.2443 4.79103C61.4767 4.78116 61.7189 4.68869 62.259 4.67824C62.9722 4.66443 62.8318 4.77419 63.1297 4.7632C63.1612 4.76148 63.1706 4.68516 63.4634 4.68264C64.5738 4.67362 66.1845 4.65599 67.2352 4.65627C67.537 4.65627 67.7615 4.70765 68.1824 4.70851C69.0306 4.7102 73.8517 4.67746 74.2471 4.70705C74.2888 4.71015 73.8601 4.82273 74.5434 4.81935C74.7419 4.77248 74.9404 4.7256 75.1388 4.67873C75.4707 4.75376 75.8025 4.82879 76.1344 4.90382C76.1225 4.64458 78.0748 4.60455 78.0554 4.86964C78.269 4.88038 78.4826 4.89113 78.6963 4.90187C79.1412 4.71871 79.4374 4.78633 80.2973 4.67873C80.4313 4.73488 80.5653 4.79103 80.6993 4.84718C80.7331 4.80975 80.7668 4.77231 80.8005 4.73488C81.2594 4.93774 82.012 4.73405 82.1034 4.73293C82.4548 4.72843 82.7189 4.77999 82.8838 4.77834C83.4995 4.77298 84.8323 4.70193 85.5515 4.73488C85.5852 4.73657 85.552 4.82329 85.7566 4.834C86.1256 4.85334 86.1616 4.72638 86.6537 4.8755C86.7531 4.83807 86.8525 4.80063 86.9519 4.7632C87.0573 4.78257 87.1628 4.80194 87.2682 4.8213C87.8906 4.81138 88.513 4.80145 89.1354 4.79152C88.5693 4.93834 89.2207 5.02034 89.8365 4.9048C90.0449 4.86562 89.86 4.77624 89.9295 4.76271C90.0249 4.74439 92.8182 4.7899 93.0029 4.84767C93.1351 4.81951 93.2673 4.79136 93.3995 4.7632C93.4663 4.81951 93.5332 4.87583 93.6001 4.93214C93.673 4.91245 93.7459 4.89275 93.8189 4.87306C94.5458 4.97224 96.4326 4.74474 96.7747 4.76271C96.9574 4.77229 96.7931 5.01232 97.669 4.9878C97.6994 4.92189 97.7298 4.85597 97.7602 4.79005C97.9608 4.78061 98.1614 4.77117 98.3619 4.76174C98.7383 4.76761 99.2862 4.88185 99.3037 4.95997C99.4213 4.9131 99.539 4.86622 99.6566 4.81935C99.9724 4.97207 101.657 4.91794 102.334 4.8213C102.532 4.86736 102.731 4.91342 102.929 4.95948C103.195 4.9035 103.461 4.84751 103.727 4.79152C104.344 4.77466 103.693 4.86774 103.824 4.8755C104.102 4.89156 105.519 4.73433 105.426 4.93019C105.619 4.93068 105.812 4.93116 106.006 4.93165C106.105 4.87566 106.204 4.81968 106.304 4.76369C106.636 4.95672 107.21 4.88857 108.387 4.95899C108.486 4.91456 108.585 4.87013 108.683 4.8257C109.048 4.88885 109.412 4.952 109.776 5.01515C109.85 4.94158 109.925 4.86801 110 4.79445C110.158 4.78387 110.317 4.77329 110.475 4.76271C110.797 4.9275 111.374 4.74943 111.668 4.8174C112.097 4.91659 111.766 5.0348 110.969 5.05762C111.029 5.17764 113.401 5.12253 113.949 5.11378C113.912 5.09034 113.876 5.0669 113.84 5.04346C113.281 5.06202 112.721 5.08057 112.162 5.09913C111.693 4.79731 113.212 4.87826 113.909 4.83937C113.973 4.83564 114.334 4.7213 115.037 4.73195C115.309 4.73618 116.371 4.90331 116.573 4.91261C118.21 4.98893 117.007 4.75011 118.607 4.95948C118.274 4.79913 119.194 4.93238 120.151 4.90138C120.314 4.89608 121.696 4.7661 121.789 4.76271C122.371 4.74186 121.738 4.88359 122.58 4.84669C122.681 4.80942 122.782 4.77215 122.883 4.73488C123.079 4.73488 123.275 4.73488 123.471 4.73488C124.661 5.06703 124.938 4.82243 125.36 4.79103C125.531 4.77835 125.311 4.86501 125.754 4.84669C125.921 4.83988 126.106 4.76778 126.555 4.76271C127.959 4.74696 128.436 5.05558 129.727 4.73439C129.925 4.78094 130.123 4.82749 130.321 4.87404C130.455 4.81821 130.589 4.76239 130.722 4.70656C131.745 4.86855 131.376 4.70264 131.745 4.70461C132.721 4.70968 134.717 4.74144 134.892 4.87501C135.734 4.56819 136.74 4.91432 137.072 4.90236C137.27 4.86508 137.467 4.82781 137.664 4.79054C137.896 4.82798 138.128 4.86541 138.36 4.90284C138.247 4.60154 139.448 4.89783 139.563 4.90236C139.696 4.90686 141.543 4.81769 142.231 4.81935C142.917 4.82104 144.114 4.90268 144.219 4.90284C144.34 4.90284 145.509 4.82095 146.423 4.82179C147.222 4.82267 151.959 4.93902 151.661 4.8047C151.351 4.7675 150.91 4.73526 150.528 4.71779C149.344 4.66425 142.396 4.59566 140.62 4.57424C137.058 4.53169 133.344 4.53958 129.767 4.51028C129.556 4.50859 129.524 4.43049 129.344 4.42874C129.07 4.42648 128.374 4.50464 128.104 4.50295C127.095 4.49619 125.867 4.48344 125.327 4.48147C124.119 4.47752 123.291 4.43049 122.377 4.42288C122.091 4.42062 120.645 4.51744 119.654 4.47659C119.474 4.45462 119.295 4.43264 119.115 4.41067C119.626 4.38503 120.965 4.31867 121.587 4.31107C122.512 4.30009 122.995 4.36343 123.336 4.36233C123.622 4.36149 125.084 4.28935 125.75 4.28763C125.956 4.28706 125.999 4.36896 126.176 4.36868C127.135 4.36671 128.398 4.36452 129.231 4.28421C128.891 4.31042 131.012 4.36066 131.123 4.36038C131.314 4.36036 131.521 4.28372 131.91 4.28372C132.659 4.28376 132.564 4.44405 133.499 4.28372C133.731 4.33043 133.962 4.37714 134.194 4.42385C134.208 4.21031 137.134 4.50078 137.967 4.24124C137.989 4.21194 134.186 4.12877 133.872 4.12455C131.989 4.09891 129.203 4.15127 127.375 4.11381C126.825 4.10254 125.096 3.97272 124.966 3.97514C124.755 3.9788 124.945 4.05306 124.854 4.0557C122.994 4.11092 123.922 3.96167 123.675 3.9185ZM205.652 5.12891C205.087 5.12012 204.522 5.11133 203.956 5.10255C203.998 5.05567 204.039 5.0088 204.08 4.96192C204.338 4.98015 204.597 4.99838 204.856 5.01661C205.055 4.98862 205.254 4.96062 205.454 4.93263C205.52 4.99806 205.586 5.06348 205.652 5.12891ZM207.045 4.93263C207.536 4.90903 207.56 5.00787 207.673 5.0127C208.01 5.02736 208.302 4.98739 208.63 4.98878C208.252 5.22358 207.449 5.11597 207.045 4.93263ZM196.921 4.84816C197.031 4.85939 197.769 5.11217 198.608 4.87697C199.236 4.95167 199.864 5.02638 200.492 5.10108C199.425 4.98695 197.949 5.10559 197.427 5.10108C197.228 5.09937 197.191 5.02178 197.032 5.02052C196.118 5.01432 195.23 5.19013 195.137 4.93312C196.001 5.0078 196.78 4.83435 196.921 4.84816ZM202.435 4.93946C202.581 4.99317 202.727 5.04688 202.873 5.10059C202.345 5.10059 201.817 5.10059 201.289 5.10059C201.432 5.04623 201.574 4.99187 201.717 4.93751C201.956 4.93816 202.196 4.93881 202.435 4.93946ZM161.801 4.76174C162.127 4.76239 162.452 4.76304 162.778 4.76369C162.76 4.72454 162.387 4.7247 162.25 4.69826C162.251 4.69826 162.251 4.69826 162.252 4.69826C162.099 4.66839 162.165 4.61799 161.886 4.59572C161.858 4.65106 161.829 4.7064 161.801 4.76174ZM27.0113 4.53909C26.4652 4.53627 21.4223 4.53598 21.8519 4.67873C22.0684 4.75003 23.7932 4.68786 24.3017 4.68898C24.9872 4.69043 26.8385 4.84481 27.0113 4.53909ZM18.0802 4.51125C17.9928 4.65351 21.1445 4.67614 21.4526 4.65139C21.3872 4.6311 21.2863 4.58595 21.1991 4.57571C20.7741 4.52667 18.7596 4.55014 18.0802 4.51125ZM143.556 4.3511C143.81 4.42304 144.065 4.49498 144.319 4.56692C144.252 4.47333 144.185 4.37975 144.118 4.28616C143.931 4.30781 143.744 4.32946 143.556 4.3511ZM118.911 4.45413C114.679 4.44957 110.446 4.44501 106.214 4.44046C106.586 4.40156 106.958 4.36266 107.33 4.32376C110.977 4.33757 114.867 4.37695 118.389 4.31692C118.563 4.36266 118.737 4.40839 118.911 4.45413ZM195.728 4.42678C194.644 4.42539 193.738 4.49412 192.558 4.38479C193.683 4.27883 194.239 4.44277 195.332 4.28665C195.332 4.28665 195.333 4.28665 195.334 4.28665C195.465 4.33336 195.597 4.38007 195.728 4.42678ZM171.517 4.39847C171.847 4.33304 172.176 4.26761 172.506 4.20218C172.109 4.20218 171.713 4.20218 171.316 4.20218C171.383 4.26761 171.45 4.33304 171.517 4.39847ZM81.9921 4.09037C80.8579 4.23317 77.9561 3.97471 77.0342 4.14652C76.9746 4.15779 77.5227 4.23029 76.6367 4.37063C77.306 4.3419 77.7784 4.31257 77.8284 4.20218C78.0271 4.23962 78.2259 4.27705 78.4246 4.31448C78.7544 4.28616 79.0841 4.25784 79.4138 4.22952C79.3781 4.33943 79.4042 4.33358 79.9107 4.25833C80.1416 4.28616 80.3726 4.31399 80.6036 4.34183C80.7014 4.29528 80.7993 4.24873 80.8972 4.20218C81.0972 4.26728 81.2971 4.33239 81.4971 4.39749C82.2765 4.32686 81.8018 4.20072 81.9921 4.09037ZM85.9626 4.11722C85.7783 4.09303 80.5192 4.17196 82.9093 4.39114C83.5305 4.38414 84.1517 4.37714 84.7729 4.37015C84.2584 4.00718 85.9512 4.33178 86.0903 4.33938C86.7556 4.37484 87.6034 4.28853 88.086 4.293C88.5012 4.29694 88.7477 4.36206 89.0397 4.36038C90.0342 4.35475 91.6051 4.35237 91.8213 4.20218C91.0482 4.19906 90.263 4.19744 89.4591 4.20121C88.6089 4.20515 87.8615 4.0634 86.2644 4.25784C85.8695 4.23695 86.0103 4.12342 85.9626 4.11722ZM173.499 4.21732C173.459 4.36818 175.466 4.33211 175.479 4.27249C175.483 4.23755 174.829 4.23838 174.736 4.22513C174.736 4.22513 174.735 4.22513 174.734 4.22513C174.695 4.21934 174.893 4.16159 174.586 4.14554C174.223 4.16947 173.861 4.19339 173.499 4.21732ZM34.8548 4.20169C34.5835 4.11704 28.3855 4.14748 28.2029 4.18802C28.1533 4.19928 28.2225 4.23641 28.2029 4.25784C29.6489 4.1384 31.7044 4.27977 33.0769 4.28909C33.4595 4.29161 33.3452 4.23164 33.3669 4.2305C33.3678 4.2305 33.3687 4.2305 33.3696 4.2305C33.5867 4.23035 34.5668 4.37688 34.8548 4.20169ZM75.0495 4.21537C75.3129 4.23896 75.5764 4.26256 75.8399 4.28616C75.9067 4.23945 75.9736 4.19274 76.0405 4.14603C76.0399 4.14603 76.0393 4.14603 76.0387 4.14603C75.7089 4.16914 75.3792 4.19225 75.0495 4.21537ZM65.9205 4.06156C65.9846 4.09444 66.0487 4.12731 66.1128 4.16019C66.7763 4.16475 67.4397 4.16931 68.1031 4.17386C68.0362 4.19242 67.9694 4.21097 67.9025 4.22952C68.9057 4.27912 69.3211 4.16358 69.8554 4.18021C69.8548 4.18021 69.8542 4.18021 69.8536 4.18021C69.9111 4.18214 69.9807 4.25064 70.1946 4.25296C70.685 4.25831 72.0906 4.28381 72.2605 4.21488C72.62 4.06781 69.7912 4.13762 69.2637 4.1309C69.0254 4.1278 68.7386 4.06785 68.5936 4.06644C68.4348 4.06513 68.2184 4.14608 67.8314 4.14359C67.7182 4.14274 66.4629 4.04751 65.9205 4.06156ZM54.2104 4.1597C54.415 4.23382 54.8421 4.16223 54.9991 4.17435C55.0366 4.17721 54.745 4.23925 55.0984 4.25784C55.1984 4.21553 55.2984 4.17321 55.3984 4.1309C55.0024 4.1405 54.6064 4.1501 54.2104 4.1597ZM176.871 4.14603C176.814 4.13013 175.736 4.13595 175.684 4.14603C175.039 4.2813 177.271 4.26665 176.871 4.14603ZM204.065 3.99125C203.569 3.79464 209.45 3.98793 210.02 3.97758C209.992 4.10114 208.593 3.97691 209.326 4.14652C208.626 4.05324 206.693 4.10277 206.239 4.07572C205.962 4.05937 205.893 3.95264 205.851 3.94926C205.687 3.93724 204.24 4.06055 204.065 3.99125ZM214.88 4.06156C214.321 4.03812 213.762 4.01469 213.203 3.99125C213.863 3.97725 214.522 3.96326 215.182 3.94926C215.081 3.98669 214.98 4.02413 214.88 4.06156ZM215.583 4.00541C215.565 3.88564 217.462 3.97688 217.96 3.94926C217.398 4.153 216.461 3.96092 215.583 4.00541ZM184.019 3.83696C183.145 3.75777 182.77 4.12285 183.832 3.96391C183.865 3.95865 184.056 3.84116 184.019 3.83696ZM81.7223 3.57671C81.5733 3.57446 79.7198 3.45609 79.6126 3.5147C79.2733 3.7017 80.4896 3.6267 80.8972 3.69731C81.5547 3.81173 80.5877 3.906 82.1927 3.83696C82.1271 3.87439 82.0614 3.91183 81.9958 3.94926C82.9352 3.96166 82.6277 3.70234 82.7963 3.669C82.8479 3.65886 83.4351 3.68066 83.5411 3.66411C84.8648 3.4552 81.8605 3.57846 81.7223 3.57671ZM162.383 3.80913C160.643 3.69922 161.392 3.86049 159.606 3.85063C159.547 3.93292 162.157 3.88127 162.383 3.80913ZM98.6655 3.72466C96.866 3.75705 95.3861 3.64943 93.7076 3.79399C93.8169 4.01662 99.1323 3.78215 98.6655 3.72466ZM14.1115 3.49908C21.1133 3.89557 29.1897 3.76504 36.6445 3.75884C37.4569 3.75827 37.5348 3.84654 37.8288 3.83696C38.0213 3.83075 37.9877 3.75966 38.2436 3.75932C47.4942 3.74777 56.3517 3.65476 65.213 3.69731C65.7711 3.70013 68.4866 3.85281 69.0668 3.62261C69.5056 3.44797 67.5548 3.58414 67.2297 3.58257C66.9854 3.58145 66.975 3.49937 66.8121 3.49908C66.6393 3.4988 66.7821 3.55487 66.5815 3.55572C65.7313 3.55966 64.8037 3.53774 64.035 3.54253C56.4967 3.58847 49.1629 3.57533 41.6644 3.56744C40.7567 3.56659 40.9433 3.50083 40.8976 3.50054C40.897 3.50071 40.8964 3.50087 40.8958 3.50103C36.0291 3.49483 30.4711 3.64235 25.3164 3.58599C21.6866 3.54074 18.0568 3.4955 14.4269 3.45025C14.3218 3.46653 14.2166 3.4828 14.1115 3.49908ZM85.5651 3.80864C85.1123 3.56065 85.011 3.81069 83.3862 3.70952C83.2539 3.75184 83.1218 3.79415 82.9896 3.83647C83.849 3.82719 84.7084 3.81792 85.5679 3.80864C85.567 3.80864 85.5661 3.80864 85.5651 3.80864ZM74.8334 3.71831C74.5588 3.38338 70.9253 3.62009 69.2892 3.55621C68.9894 3.72441 71.3678 3.64885 71.9287 3.66655C72.2087 3.67529 73.7087 3.84829 74.8489 3.75249C74.8437 3.7411 74.8385 3.7297 74.8334 3.71831ZM197.912 3.49908C197.647 3.50884 197.383 3.51861 197.119 3.52837C197.78 3.56548 198.442 3.60259 199.103 3.6397C198.048 3.61577 196.993 3.59185 195.937 3.56792C196.134 3.49843 196.33 3.42893 196.527 3.35943C196.989 3.40598 197.45 3.45253 197.912 3.49908ZM194.487 3.53472C196.336 3.50855 194.406 3.6946 193.945 3.61187C193.669 3.56227 194.299 3.53754 194.487 3.53472ZM189.68 3.4151C190.542 3.29309 192.284 3.28469 191.665 3.52837C190.733 3.41424 190.133 3.50908 188.782 3.44342C188.979 3.39671 189.176 3.34999 189.374 3.30328C189.375 3.30328 189.375 3.30328 189.376 3.30328C189.478 3.34056 189.579 3.37783 189.68 3.4151ZM195.332 3.38727C196.542 3.52727 193.038 3.4794 194.139 3.38727C194.191 3.38304 195.284 3.38191 195.332 3.38727ZM21.8519 3.24713C21.7061 3.32676 22.6372 3.32528 22.9469 3.33063C24.2896 3.35429 26.0116 3.31964 27.4079 3.33063C27.3028 3.30442 27.1976 3.27822 27.0925 3.25202C25.3456 3.25039 23.5988 3.24876 21.8519 3.24713ZM31.7759 3.33112C32.7353 3.33112 33.6948 3.33112 34.6542 3.33112C34.7436 3.33112 35.163 3.26278 34.8511 3.24616C33.8261 3.27448 32.801 3.3028 31.7759 3.33112ZM91.6217 3.33112C90.886 3.28652 93.0043 3.05795 92.909 3.3028C92.4799 3.31224 92.0507 3.32168 91.6217 3.33112ZM98.4668 3.23346C98.0055 3.25674 97.5441 3.28001 97.0828 3.30328C97.0822 3.27513 97.0816 3.24697 97.081 3.21881C97.5429 3.2237 98.0049 3.22858 98.4668 3.23346ZM18.0802 3.19098C18.5688 3.28734 19.7346 3.27251 20.4616 3.27448C19.9609 3.19169 18.7673 3.23239 18.0802 3.19098ZM80.6 3.23249C80.6595 3.29815 77.7334 3.28162 78.7464 3.16608C79.3643 3.18822 79.9821 3.21035 80.6 3.23249ZM74.6565 3.13532C75.2841 3.12096 75.7703 3.14351 75.6412 3.24665C75.3084 3.24225 74.9756 3.23786 74.6428 3.23346C74.6474 3.20075 74.6519 3.16803 74.6565 3.13532ZM186.399 3.21881C185.341 3.22809 184.284 3.23737 183.226 3.24665C183.265 3.21849 183.304 3.19033 183.344 3.16218C184.363 3.15306 185.383 3.14395 186.402 3.13483C186.401 3.16283 186.4 3.19082 186.399 3.21881ZM17.4821 2.93806C16.7558 2.95645 16.0294 2.97484 15.3031 2.99323C16.03 3.01211 16.757 3.03099 17.4839 3.04987C17.4839 3.01244 17.4839 2.97501 17.4839 2.93757C17.4833 2.93774 17.4827 2.9379 17.4821 2.93806ZM200.887 2.85408C197.656 2.72277 201.778 2.58396 202.631 2.77693C202.632 2.77677 202.633 2.77661 202.634 2.77644C202.708 2.7935 202.55 2.87598 202.675 2.90925C202.346 2.87198 202.017 2.83471 201.688 2.79744C201.388 2.84383 201.088 2.89021 200.788 2.9366C200.69 2.91837 200.591 2.90014 200.492 2.88191C200.624 2.87263 200.755 2.86336 200.887 2.85408ZM213.926 2.78084C216.856 2.79607 213.858 3.00231 212.408 2.83943C212.418 2.80174 213.656 2.77943 213.926 2.78084ZM206.249 2.82527C205.787 2.84399 205.325 2.86271 204.864 2.88142C204.805 2.85782 204.746 2.83422 204.687 2.81062C205.041 2.78719 205.395 2.76375 205.75 2.74031C205.916 2.76863 206.082 2.79695 206.249 2.82527ZM191.067 2.46102C190.324 2.4351 189.376 2.69751 191.761 2.6285C191.76 2.60034 191.759 2.57219 191.758 2.54403C191.663 2.54853 191.384 2.57494 191.368 2.57284C191.325 2.56579 191.376 2.47177 191.067 2.46102ZM219.351 2.03916C219.434 2.02845 219.48 1.73145 220.347 2.03867C220.61 2.01996 220.872 2.00124 221.134 1.98252C221.202 2.04795 221.27 2.11338 221.337 2.17881C220.322 2.12808 220.215 2.26046 220.141 2.26328C219.804 2.27566 220.053 2.20757 219.836 2.20664C219.274 2.20438 217.996 2.2501 218.576 2.05576C218.784 1.98616 219.267 2.04987 219.351 2.03916ZM217.366 1.87022C217.489 1.89501 217.092 1.98189 217.185 2.00645C217.267 2.02786 218.49 2.1165 218.159 2.26328C217.958 2.25709 217.757 2.25091 217.557 2.24472C217.488 2.20452 217.42 2.16432 217.352 2.12412C217.158 2.16123 216.963 2.19834 216.769 2.23545C216.441 2.13625 215.744 2.00774 216.572 1.92686C216.267 1.93532 215.963 1.94379 215.658 1.95225C215.501 1.99978 215.343 2.0473 215.185 2.09483C215.268 2.0224 215.35 1.94997 215.433 1.87755C216.077 1.87511 216.722 1.87266 217.366 1.87022ZM226.806 1.89805C226.769 1.93549 226.732 1.97292 226.695 2.01035C227.813 1.94076 229.555 1.9143 228.565 2.14902C227.05 2.16855 225.536 2.18808 224.021 2.20761C223.92 2.17946 223.819 2.1513 223.719 2.12314C224.849 2.23163 224.5 1.77 225.483 1.90245C225.649 1.9249 225.168 2.08633 226.21 1.98301C226.173 1.94542 226.135 1.90782 226.098 1.87022C226.334 1.8795 226.57 1.88878 226.806 1.89805ZM236.42 1.9542C234.505 1.9001 236.614 1.76349 236.968 1.87706C236.967 1.87706 236.967 1.87706 236.966 1.87706C237.935 2.18783 235.851 2.03768 235.724 2.03965C235.555 2.0424 235.162 2.26489 234.243 1.94053C234.968 1.94509 235.694 1.94965 236.42 1.9542ZM230.168 1.89854C230.329 1.89122 230.24 1.94772 230.31 1.94688C230.31 1.94688 230.311 1.94688 230.311 1.94688C231.336 1.93476 233.774 1.88418 234.038 2.06651C233.28 2.08172 229.885 2.12112 229.68 1.99717C229.842 1.9643 230.005 1.93142 230.168 1.89854ZM222.956 2.03428C222.326 1.91623 223.743 1.90051 224.114 1.95518C224.185 1.96702 223.608 2.15657 222.956 2.03428ZM174.687 1.7296C173.302 1.80062 175.121 1.87149 174.492 1.98252C174.756 1.97308 175.021 1.96364 175.285 1.9542C175.086 1.87934 174.886 1.80447 174.687 1.7296ZM111.565 1.50549C111.243 1.49237 111.396 1.56015 111.368 1.56115C111.156 1.55926 110.956 1.50404 110.874 1.50988C109.37 1.62135 110.37 1.67828 110.386 1.69152C110.417 1.75857 110.022 1.83704 110.57 1.91368C110.902 1.88992 111.235 1.86615 111.567 1.84239C111.732 1.87966 111.897 1.91693 112.062 1.9542C112.723 1.87424 111.858 1.85231 111.76 1.7462C111.723 1.7045 112.344 1.65456 111.565 1.50549ZM172.206 1.505C171.982 1.6228 171.431 1.77139 171.972 1.88975C171.972 1.88975 171.973 1.88975 171.974 1.88975C172.074 1.91141 172.48 1.92332 172.605 1.95372C173.497 1.79678 173.155 1.63461 172.206 1.505ZM117.529 1.29456C118.065 1.32206 118.601 1.34957 119.137 1.37707C119.128 1.44771 119.119 1.51835 119.11 1.58898C118.823 1.56994 118.536 1.5509 118.249 1.53185C118.149 1.56408 118.048 1.59631 117.947 1.62853C118.304 1.70909 118.66 1.78966 119.016 1.87022C119.445 1.84207 119.874 1.81391 120.303 1.78575C120.106 1.74848 119.909 1.71121 119.712 1.67394C120.76 1.6328 120.532 1.80456 121.4 1.87022C121.697 1.80479 121.994 1.73937 122.292 1.67394C122.722 1.73969 123.152 1.80545 123.583 1.8712C124.306 1.84048 124.369 1.7904 123.883 1.71544C124.242 1.62978 124.636 1.76451 125.069 1.7296C125.104 1.72679 125.037 1.64611 125.069 1.64513C127.307 1.59074 127.188 1.80261 127.546 1.81163C127.798 1.81782 128.805 1.67484 128.821 1.62609C128.841 1.56039 126.746 1.30133 130.027 1.29456C128.33 1.11536 126.402 1.29777 127.649 1.56066C127.112 1.53421 124.745 1.5998 124.594 1.59191C124.374 1.58 124.451 1.48026 124.175 1.47766C124.012 1.47625 123.581 1.70424 122.292 1.505C122.127 1.54243 121.962 1.57987 121.798 1.6173C121.643 1.58654 121.489 1.55578 121.334 1.52502C121.652 1.41532 121.97 1.30562 122.288 1.19593C121.029 1.31512 119.984 1.0912 119.217 1.27991C118.554 1.25795 118.232 1.23623 118.517 1.13978C118.318 1.13978 118.119 1.13978 117.92 1.13978C117.79 1.19137 117.659 1.24296 117.529 1.29456ZM168.138 1.67345C167.479 1.56393 167.242 1.80021 167.345 1.81358C167.923 1.88711 168.481 1.73043 168.138 1.67345ZM112.762 1.63097C113.488 1.69184 114.215 1.75271 114.942 1.81358C114.942 1.73888 114.942 1.66417 114.942 1.58947C114.215 1.6033 113.488 1.61714 112.762 1.63097ZM174.889 1.56164C174.956 1.61763 175.023 1.67361 175.09 1.7296C175.886 1.52509 176.677 1.81852 177.07 1.75792C177.155 1.74468 176.983 1.64582 176.82 1.62462C176.719 1.61138 175.03 1.54276 174.889 1.56164ZM208.036 1.58849C207.74 1.62609 207.443 1.66369 207.147 1.70128C207.163 1.6383 207.179 1.57531 207.196 1.51232C207.342 1.5006 207.489 1.48889 207.635 1.47717C207.769 1.51428 207.903 1.55138 208.036 1.58849ZM204.661 1.68859C204.132 1.68354 203.603 1.6785 203.074 1.67345C205.092 1.61568 203.436 1.58749 204.661 1.50549C204.661 1.56652 204.661 1.62755 204.661 1.68859ZM199.306 1.56115C199.371 1.52355 199.436 1.48596 199.501 1.44836C200.03 1.44836 200.559 1.44836 201.088 1.44836C200.754 1.31783 200.419 1.1873 200.084 1.05677C199.891 1.05645 199.697 1.05612 199.503 1.05579C199.437 1.22425 199.372 1.3927 199.306 1.56115ZM97.2734 1.22473C96.9535 1.22248 95.8408 1.33655 95.8885 1.37854C96.3507 1.43013 96.813 1.48173 97.2752 1.53332C97.2773 1.45845 97.2794 1.38358 97.2816 1.30872C97.3469 1.34599 97.4122 1.38326 97.4776 1.42053C97.7404 1.39254 98.0033 1.36454 98.2662 1.33655C98.3987 1.40198 98.5312 1.4674 98.6637 1.53283C98.7968 1.45813 98.9299 1.38342 99.063 1.30872C97.7938 1.17627 97.8375 1.30865 97.5733 1.30725C97.4394 1.30662 97.3546 1.26026 97.3071 1.23694C97.2958 1.23287 97.2846 1.2288 97.2734 1.22473ZM113.264 1.15442C111.748 1.13583 110.882 1.33293 109.786 1.1681C110.489 1.51922 115.03 1.15654 116.631 1.44934C116.797 1.39302 116.963 1.33671 117.13 1.2804C116.258 1.33054 115.654 1.21456 115.229 1.19788C114.891 1.18463 114.926 1.24365 114.9 1.2428C114.899 1.2428 114.898 1.2428 114.897 1.2428C114.106 1.21857 113.862 1.16176 113.264 1.15442ZM176.015 1.28626C175.608 1.19728 174.895 1.20618 174.887 1.33606C175.284 1.37366 175.681 1.41125 176.077 1.44885C175.996 1.4156 176.085 1.30147 176.015 1.28626ZM198.69 1.19837C198.373 1.1561 197.622 1.19314 197.946 1.3053C198.004 1.3252 198.752 1.24637 198.313 1.44885C199.042 1.44572 198.871 1.22266 198.69 1.19837ZM139.162 1.42053C139.429 1.41679 139.697 1.41304 139.964 1.4093C140.027 1.35689 140.089 1.30448 140.151 1.25208C139.821 1.30823 139.492 1.36438 139.162 1.42053ZM179.452 1.19641C179.808 1.45289 180.415 1.2033 181.083 1.41418C181.329 1.41581 181.575 1.41744 181.822 1.41906C181.823 1.41906 181.823 1.41906 181.824 1.41906C181.83 1.34908 181.837 1.27909 181.844 1.20911C181.047 1.20488 180.25 1.20065 179.452 1.19641ZM122.487 1.29407C122.651 1.32662 122.816 1.35917 122.981 1.39172C123.274 1.3538 123.567 1.31588 123.861 1.27796C123.702 1.25078 123.543 1.2236 123.385 1.19641C123.085 1.22897 122.786 1.26152 122.487 1.29407ZM183.785 1.17444C182.923 1.14232 182.599 1.36528 183.701 1.36584C184.166 1.36584 184.688 1.20801 183.785 1.17444ZM80.8042 1.30774C81.0996 1.32678 81.395 1.34582 81.6904 1.36487C81.7909 1.31799 81.8915 1.27112 81.9921 1.22425C81.5962 1.25208 81.2002 1.27991 80.8042 1.30774ZM202.779 1.22376C202.744 1.27063 202.709 1.31751 202.675 1.36438C202.411 1.35494 202.148 1.3455 201.884 1.33606C201.95 1.28951 202.017 1.24296 202.083 1.19641C202.315 1.20553 202.547 1.21464 202.779 1.22376ZM82.7917 1.33655C83.0278 1.3455 83.264 1.35445 83.5001 1.3634C83.6588 1.34062 83.8174 1.31783 83.976 1.29504C83.7551 1.27242 83.5341 1.2498 83.3132 1.22718C83.1394 1.26363 82.9655 1.30009 82.7917 1.33655ZM191.957 1.19593C191.625 1.13957 190.3 1.31517 191.493 1.35998C192.254 1.38844 192.006 1.2045 191.957 1.19593ZM193.744 1.13978C192.481 1.03241 193.428 1.57735 194.936 1.22425C193.418 1.27266 193.819 1.14626 193.744 1.13978ZM204.854 0.858535C204.885 0.858817 204.912 0.937173 205.165 0.940075C206.079 0.95022 207.285 0.981181 207.939 0.985972C209.51 0.997525 214.322 0.855877 214.885 1.08265C215.002 1.13027 214.733 1.27258 214.78 1.27991C214.92 1.30035 215.725 1.2313 215.576 1.33606C214.786 1.33525 213.997 1.33443 213.207 1.33362C213.401 1.25973 213.595 1.18584 213.788 1.11194C211.82 1.15139 212.472 1.14684 211.906 1.30774C211.573 1.2454 211.24 1.18307 210.906 1.12073C210.181 1.18339 209.456 1.24606 208.731 1.30872C208.896 1.26201 209.06 1.21529 209.224 1.16858C208.132 1.08207 208.435 1.1388 207.838 1.25208C207.836 1.20537 207.835 1.15866 207.834 1.11194C206.779 1.2258 206.574 1.0858 206.343 1.08411C205.871 1.08136 205.268 1.63403 203.465 1.08411C202.705 1.3486 202.722 0.810538 202.275 1.08411C200.989 0.786291 203.436 0.89408 204.594 0.903944C204.594 0.903944 204.595 0.903944 204.596 0.903944C204.683 0.904789 204.544 0.854638 204.854 0.858535ZM198.244 1.13245C199.023 0.889673 195.945 0.866947 196.964 1.21741C197.115 1.2288 197.267 1.2402 197.419 1.25159C197.694 1.21188 197.97 1.17216 198.246 1.13245C198.245 1.13245 198.244 1.13245 198.244 1.13245ZM169.328 0.971324C166.477 1.07108 168.098 1.21074 169.063 1.07435C169.256 1.0473 169.362 1.01021 169.328 0.971324ZM111.099 0.967906C111.057 0.99704 111.015 1.02617 110.974 1.05531C111.93 1.02804 113.778 1.14042 113.753 0.943981C112.868 0.951957 111.983 0.959931 111.099 0.967906ZM118.66 0.839493C118.455 0.827644 117.616 0.799677 117.718 0.873183C118.081 0.925265 118.445 0.977346 118.808 1.02943C118.977 0.996877 119.147 0.964326 119.316 0.931775C119.079 0.920705 118.716 0.84259 118.66 0.839493Z" fill="#FEA800"/>
</svg>
