<svg width="46" height="41" viewBox="0 0 46 41" fill="none" xmlns="http://www.w3.org/2000/svg">
<g clip-path="url(#clip0_1_3275)">
<path d="M12.3879 6.96744C12.1973 5.27404 13.3921 3.74309 15.0498 3.55656L26.9714 2.21512C28.6291 2.0286 30.1343 3.25575 30.3249 4.94914L30.7191 8.45254L28.5402 8.69771L28.146 5.19431C28.0935 4.72786 27.6779 4.38443 27.2164 4.43636L15.2997 5.77724C14.8431 5.82862 14.5087 6.25132 14.5617 6.72283L14.9559 10.2262L12.7771 10.4714L12.3829 6.968L12.3879 6.96744ZM1.80337 15.5466C1.63279 14.0306 2.70022 12.6629 4.18422 12.4959L39.552 8.51631C41.036 8.34932 42.3806 9.44564 42.5512 10.9616L43.4583 19.023C43.6289 20.5389 42.5614 21.9066 41.0774 22.0736L5.7097 26.0532C4.22571 26.2202 2.88102 25.1239 2.71045 23.608L1.80337 15.5466ZM20.8161 25.4111L26.2011 24.8052L26.3734 26.3363C26.4408 26.9346 26.0191 27.4749 25.4334 27.5408L22.1726 27.9077C21.5869 27.9736 21.0557 27.5405 20.9884 26.9423L20.8161 25.4111ZM45.0958 33.6202C45.2663 35.1361 44.1989 36.5038 42.7149 36.6708L7.35214 40.6499C5.86815 40.8169 4.52346 39.7206 4.35288 38.2046L3.00425 26.219C3.76082 26.8681 4.77006 27.2166 5.82722 27.0977L19.7937 25.5261L19.9659 27.0573C20.0983 28.2335 21.1436 29.0812 22.2901 28.9522L25.5509 28.5852C26.7024 28.4557 27.5276 27.3925 27.3959 26.2213L27.2236 24.6901L41.19 23.1186C42.2472 22.9996 43.1488 22.4361 43.7471 21.6346L45.0958 33.6202Z" fill="white"/>
</g>
<defs>
<clipPath id="clip0_1_3275">
<rect width="41" height="36" fill="white" transform="translate(0.636719 5.17834) rotate(-6.42)"/>
</clipPath>
</defs>
</svg>
