<svg width="47" height="43" viewBox="0 0 47 43" fill="none" xmlns="http://www.w3.org/2000/svg">
<g clip-path="url(#clip0_3067_320)">
<path d="M4.28744 22.6063C3.09389 21.193 2.52096 19.3848 2.66943 17.5271C2.8179 15.6693 3.67013 13.9827 5.07361 12.7693C6.47708 11.5558 8.25332 10.9699 10.0843 11.1162L10.482 11.148L9.37033 25.0584L8.97261 25.0266C7.1335 24.8873 5.47287 24.0266 4.28744 22.6063ZM17.5178 39.908C17.2883 40.1349 16.9853 40.2409 16.6626 40.2151L14.3963 40.034C13.9011 39.9944 13.4423 39.7815 13.0933 39.4241C12.7442 39.0668 12.5325 38.5978 12.4895 38.0963L11.685 27.657L17.5457 28.1254L17.8649 39.0622C17.8693 39.3844 17.7474 39.6812 17.5178 39.908ZM18.3582 27.4088L11.1017 26.8289C10.4939 26.7803 10.0463 26.2388 10.095 25.6297L10.1035 25.5231L11.2779 10.8285L11.2864 10.7219C11.3357 10.1052 11.8705 9.64985 12.4708 9.69782L19.7273 10.2778C20.3351 10.3263 20.7827 10.8678 20.734 11.4769L19.5432 26.3771C19.4939 26.9938 18.966 27.4574 18.3582 27.4088ZM36.6152 34.0707C35.2217 32.4192 33.3759 30.946 31.1336 29.7094C28.1395 28.0526 24.5124 26.8509 20.3399 26.142L21.4838 11.828C24.8094 11.795 27.8684 11.4111 30.5772 10.6851C32.8385 10.0766 34.8618 9.23454 36.6001 8.17813C38.2198 7.18886 39.2961 6.19447 39.9423 5.47987L37.5564 35.3336C37.3206 34.9776 37.0151 34.5471 36.6152 34.0707ZM40.6572 36.884C40.6031 37.5616 40.0109 38.0737 39.343 38.0203C38.6751 37.9669 38.1718 37.3673 38.2259 36.6897L40.8175 4.26253C40.8716 3.5849 41.4638 3.07287 42.1317 3.12625C42.7996 3.17962 43.3029 3.77921 43.2488 4.45684L40.6572 36.884ZM45.335 22.0096C45.2922 22.1671 45.1699 22.2799 45.0231 22.3218L42.5419 23.0354L42.9106 18.4214L45.247 19.52C45.3928 19.5852 45.4875 19.7231 45.5054 19.8777C45.5378 20.1332 45.5668 20.5263 45.5328 20.9527C45.4987 21.379 45.4076 21.7626 45.335 22.0096Z" fill="white"/>
</g>
<defs>
<clipPath id="clip0_3067_320">
<rect width="43" height="39" fill="white" transform="translate(4.06348 0.0838623) rotate(4.56932)"/>
</clipPath>
</defs>
</svg>
