<svg width="19" height="19" viewBox="0 0 19 19" fill="none" xmlns="http://www.w3.org/2000/svg">
<path d="M9.90049 15.2298L14.5033 18.1523C15.097 18.5267 15.8276 17.9696 15.654 17.2847L14.3207 12.0425C14.2846 11.8972 14.2904 11.7447 14.3372 11.6025C14.3841 11.4603 14.4702 11.3343 14.5855 11.2389L18.7135 7.79587C19.2523 7.34837 18.9783 6.44424 18.2751 6.39858L12.8869 6.05154C12.7398 6.04298 12.5985 5.99179 12.4801 5.90421C12.3617 5.81663 12.2714 5.69645 12.2202 5.55837L10.211 0.498893C10.1578 0.352682 10.0609 0.226378 9.93349 0.137127C9.80605 0.0478753 9.65424 0 9.49865 0C9.34307 0 9.19125 0.0478753 9.06382 0.137127C8.93638 0.226378 8.83949 0.352682 8.78631 0.498893L6.77713 5.55837C6.72592 5.69645 6.6356 5.81663 6.5172 5.90421C6.39881 5.99179 6.25746 6.04298 6.11044 6.05154L0.722188 6.39858C0.0189748 6.44424 -0.255004 7.34837 0.283821 7.79587L4.41177 11.2389C4.52715 11.3343 4.61323 11.4603 4.66008 11.6025C4.70694 11.7447 4.71267 11.8972 4.67662 12.0425L3.44371 16.9011C3.23366 17.723 4.1104 18.3897 4.81361 17.9422L9.09682 15.2298C9.21693 15.1535 9.35632 15.1129 9.49865 15.1129C9.64099 15.1129 9.78038 15.1535 9.90049 15.2298Z" fill="#FEA800"/>
</svg>
