<svg width="45" height="44" viewBox="0 0 45 44" fill="none" xmlns="http://www.w3.org/2000/svg">
<g clip-path="url(#clip0_1_3263)">
<path d="M39.4461 13.1993C38.663 11.7666 37.7187 10.4538 36.6183 9.26903L35.4976 9.229L33.9229 11.1516C34.9728 12.2202 35.8721 13.4292 36.5927 14.7556C37.6357 16.6689 38.2744 18.7392 38.4914 20.9208C38.7084 23.1023 38.4904 25.2622 37.8443 27.3391C37.2213 29.3445 36.2274 31.1877 34.8919 32.8182C33.5565 34.4486 31.9452 35.7862 30.1018 36.7919C28.1885 37.8349 26.1182 38.4736 23.9366 38.6906C21.7551 38.9076 19.5952 38.6896 17.5182 38.0435C15.5128 37.4205 13.6697 36.4265 12.0392 35.0911C10.4088 33.7557 9.07122 32.1444 8.06549 30.301C7.02294 28.392 6.38376 26.3173 6.16678 24.1358C5.9498 21.9542 6.16781 19.7944 6.81392 17.7174C7.43685 15.712 8.43084 13.8688 9.76628 12.2384C11.1017 10.608 12.713 9.27041 14.5564 8.26468C16.4654 7.22212 18.54 6.58294 20.7216 6.36597C22.9031 6.14899 25.063 6.367 27.14 7.01311C28.5827 7.46259 29.9405 8.10232 31.1992 8.92071L32.774 6.99812L32.514 5.90726C31.1357 5.06181 29.6622 4.39031 28.1038 3.90905C25.6073 3.13586 23.0146 2.87433 20.4002 3.13436C17.7857 3.39439 15.2953 4.16149 13.0001 5.41127C10.7871 6.61823 8.85171 8.22177 7.24995 10.1774C5.6439 12.1334 4.453 14.3467 3.70557 16.754C2.93238 19.2505 2.67085 21.8432 2.93089 24.4576C3.19092 27.0721 3.95802 29.5625 5.2078 31.8577C6.41476 34.0707 8.0183 36.0061 9.97388 37.6079C11.9295 39.2096 14.1428 40.4005 16.5501 41.1479C19.0466 41.9211 21.6393 42.1827 24.2537 41.9226C26.8682 41.6626 29.3586 40.8955 31.6538 39.6457C33.8668 38.4388 35.8022 36.8352 37.404 34.8796C39.0057 32.9241 40.1966 30.7107 40.944 28.3034C41.7172 25.8069 41.9788 23.2142 41.7187 20.5998C41.4587 17.9853 40.6959 15.4945 39.4461 13.1993Z" fill="white"/>
<path d="M33.8209 16.2648C33.2917 15.2959 32.6536 14.4071 31.9079 13.6113L29.8237 16.1559C31.1167 17.6678 31.9172 19.5359 32.1179 21.5546C32.378 24.169 31.6026 26.7306 29.9391 28.7616C28.2756 30.7925 25.9169 32.0573 23.3025 32.3173C20.688 32.5774 18.1265 31.802 16.0955 30.1385C14.0645 28.475 12.7998 26.1163 12.5397 23.5018C12.2797 20.8874 13.0551 18.3258 14.7186 16.2949C16.3821 14.2639 18.7408 12.9991 21.3552 12.7391C23.3782 12.5379 25.3631 12.9551 27.1 13.925L29.1842 11.3804C28.2528 10.8065 27.2553 10.3517 26.2059 10.0276C24.5309 9.50594 22.791 9.33273 21.0338 9.5075C19.2765 9.68228 17.6048 10.1948 16.0654 11.0361C14.5791 11.8462 13.2795 12.9234 12.2027 14.2381C11.1258 15.5528 10.3257 17.0391 9.82431 18.6558C9.3027 20.3308 9.12949 22.0707 9.30427 23.828C9.47904 25.5852 9.99158 27.2569 10.8329 28.7964C11.643 30.2827 12.7201 31.5822 14.0348 32.6591C15.3496 33.7359 16.8358 34.536 18.4526 35.0375C20.1272 35.5548 21.8671 35.728 23.6243 35.5532C25.3816 35.3784 27.0533 34.8659 28.5927 34.0246C30.079 33.2145 31.3786 32.1374 32.4554 30.8226C33.5323 29.5079 34.3323 28.0216 34.8338 26.4049C35.3554 24.7299 35.5286 22.99 35.3538 21.2327C35.1791 19.4755 34.6622 17.8042 33.8209 16.2648Z" fill="white"/>
<path d="M27.7788 18.6535L25.5595 21.363C25.6549 21.6262 25.7169 21.9014 25.7455 22.1885C25.8363 23.1014 25.5658 23.994 24.9873 24.7051C24.4045 25.4167 23.5822 25.8534 22.6693 25.9442C21.7564 26.035 20.8638 25.7645 20.1527 25.186C19.4412 24.6032 19.0002 23.7814 18.9094 22.8684C18.8186 21.9555 19.0891 21.063 19.6719 20.3514C20.2547 19.6399 21.0769 19.2032 21.9898 19.1124C22.277 19.0838 22.559 19.0904 22.8358 19.1321L25.0551 16.4226C24.0041 15.9514 22.8427 15.764 21.6684 15.8808C19.8897 16.0577 18.2911 16.9135 17.1607 18.2985C16.0298 19.6792 15.5017 21.4198 15.6782 23.1942C15.8547 24.9685 16.711 26.5714 18.0959 27.7019C19.4766 28.8328 21.2172 29.3608 22.9916 29.1844C24.766 29.0079 26.3689 28.1516 27.4993 26.7666C28.6302 25.3859 29.1583 23.6454 28.9818 21.871C28.8603 20.6928 28.4477 19.5911 27.7788 18.6535Z" fill="white"/>
<path d="M40.8285 3.94619L39.5986 2.93882L40.4014 1.95868C40.7333 1.55343 40.6741 0.957678 40.2688 0.625747C39.8636 0.293816 39.2678 0.353069 38.9359 0.758321L38.1331 1.73847L36.9032 0.731093C36.5262 0.42232 35.9733 0.47731 35.6688 0.853863L33.2136 3.84656C33.04 4.05861 32.9768 4.33757 33.038 4.60418L33.6554 7.20037L21.5944 21.9304C21.2625 22.3356 21.3217 22.9314 21.727 23.2633C21.9296 23.4293 22.1786 23.4954 22.4229 23.4711C22.6629 23.4472 22.8982 23.3329 23.0642 23.1303L35.1256 8.40459L37.7926 8.49858C38.066 8.50601 38.3271 8.38915 38.5008 8.1771L40.9555 5.18012C41.2604 4.80786 41.2054 4.25497 40.8285 3.94619Z" fill="white"/>
</g>
<defs>
<clipPath id="clip0_1_3263">
<rect width="40" height="40" fill="white" transform="translate(0.901367 4.05225) rotate(-5.68)"/>
</clipPath>
</defs>
</svg>
