<svg width="30" height="30" viewBox="0 0 30 30" fill="none" xmlns="http://www.w3.org/2000/svg">
<g clip-path="url(#clip0_2002_671)">
<path d="M28.0876 9.68771C27.6096 8.56033 27.0023 7.51047 26.269 6.54461L25.4356 6.43154L24.1176 7.74951C24.8218 8.62493 25.4032 9.59403 25.8426 10.6374C26.4789 12.1428 26.802 13.7353 26.802 15.3795C26.802 17.0238 26.4789 18.6195 25.8426 20.1216C25.2288 21.5721 24.3502 22.8739 23.2325 23.9916C22.1148 25.1093 20.813 25.9879 19.3625 26.6017C17.8572 27.238 16.2647 27.5611 14.6204 27.5611C12.9762 27.5611 11.3804 27.238 9.87832 26.6017C8.42791 25.9879 7.12609 25.1093 6.0084 23.9916C4.89071 22.8739 4.01206 21.5721 3.3983 20.1216C2.76192 18.6195 2.43889 17.0238 2.43889 15.3795C2.43889 13.7353 2.76192 12.1395 3.3983 10.6374C4.01206 9.18701 4.89071 7.88519 6.0084 6.7675C7.12609 5.64981 8.42791 4.77116 9.87832 4.1574C11.3804 3.52102 12.9762 3.19799 14.6204 3.19799C16.2647 3.19799 17.8605 3.52102 19.3625 4.1574C20.4059 4.59995 21.3718 5.17818 22.2505 5.88239L23.5684 4.56442L23.4554 3.73099C22.4895 2.99771 21.4396 2.38718 20.3123 1.91232C18.5065 1.14997 16.5909 0.762329 14.6204 0.762329C12.6499 0.762329 10.7344 1.14997 8.92861 1.91232C7.18747 2.64884 5.62399 3.70192 4.28341 5.04251C2.93959 6.38309 1.88651 7.94656 1.14999 9.68771C0.387639 11.4935 0 13.409 0 15.3795C0 17.35 0.387639 19.2656 1.14999 21.0714C1.88651 22.8125 2.93959 24.376 4.28018 25.7166C5.62076 27.0571 7.18424 28.1102 8.92538 28.8467C10.7311 29.6091 12.6467 29.9967 14.6172 29.9967C16.5877 29.9967 18.5033 29.6091 20.309 28.8467C22.0502 28.1102 23.6137 27.0571 24.9542 25.7166C26.2948 24.376 27.3479 22.8125 28.0844 21.0714C28.8468 19.2656 29.2344 17.35 29.2344 15.3795C29.2344 13.409 28.85 11.4935 28.0876 9.68771Z" fill="#FEA800"/>
<path d="M23.6623 11.558C23.3393 10.7957 22.929 10.085 22.4316 9.43572L20.6872 11.1801C21.54 12.4044 21.9987 13.858 21.9987 15.3795C21.9987 17.35 21.2299 19.2042 19.8376 20.5965C18.4454 21.9888 16.5912 22.7576 14.6207 22.7576C12.6502 22.7576 10.796 21.9888 9.40369 20.5965C8.01142 19.2042 7.2426 17.35 7.2426 15.3795C7.2426 13.409 8.01142 11.5548 9.40369 10.1625C10.796 8.77028 12.6502 8.00146 14.6207 8.00146C16.1454 8.00146 17.5958 8.46016 18.8201 9.31297L20.5644 7.5686C19.9119 7.07113 19.2013 6.65764 18.4421 6.33784C17.2308 5.82422 15.9451 5.5658 14.6207 5.5658C13.2962 5.5658 12.0106 5.82422 10.7992 6.33784C9.62981 6.83208 8.57996 7.53952 7.6787 8.44078C6.77744 9.34204 6.07 10.3919 5.57576 11.5613C5.06214 12.7726 4.80371 14.0583 4.80371 15.3827C4.80371 16.7072 5.06214 17.9928 5.57576 19.2042C6.07 20.3736 6.77744 21.4234 7.6787 22.3247C8.57996 23.226 9.62981 23.9334 10.7992 24.4276C12.0106 24.938 13.2962 25.1965 14.6207 25.1965C15.9451 25.1965 17.2308 24.938 18.4421 24.4244C19.6115 23.9302 20.6614 23.2227 21.5626 22.3215C22.4639 21.4202 23.1713 20.3704 23.6656 19.201C24.1792 17.9896 24.4376 16.7039 24.4376 15.3795C24.4376 14.0551 24.1759 12.7694 23.6623 11.558Z" fill="#FEA800"/>
<path d="M18.9749 12.8923L17.1174 14.7497C17.1691 14.9532 17.195 15.1632 17.195 15.3796C17.195 16.0677 16.9268 16.7137 16.4423 17.2015C15.9545 17.6893 15.3085 17.9542 14.6204 17.9542C13.9323 17.9542 13.2863 17.6861 12.7985 17.2015C12.3107 16.7137 12.0426 16.0677 12.0426 15.3796C12.0426 14.6916 12.3107 14.0455 12.7985 13.5577C13.2863 13.0699 13.9323 12.805 14.6204 12.805C14.8368 12.805 15.0468 12.8309 15.2503 12.8826L17.1077 11.0251C16.3583 10.5955 15.5055 10.3694 14.6204 10.3694C13.2798 10.3694 12.0232 10.8895 11.0767 11.8392C10.1302 12.7857 9.60693 14.0455 9.60693 15.3828C9.60693 16.7202 10.127 17.98 11.0767 18.9265C12.0232 19.873 13.283 20.3963 14.6204 20.3963C15.9577 20.3963 17.2176 19.8762 18.1641 18.9265C19.1105 17.98 19.6339 16.7202 19.6339 15.3828C19.6306 14.4945 19.4045 13.6417 18.9749 12.8923Z" fill="#FEA800"/>
<path d="M29.8062 2.88468L28.9631 2.04156L29.635 1.36966C29.9128 1.09185 29.9128 0.642834 29.635 0.365026C29.3572 0.0872187 28.9082 0.0872187 28.6304 0.365026L27.9585 1.03693L27.1154 0.193819C26.8569 -0.0646064 26.4402 -0.0646064 26.185 0.193819L24.1306 2.24507C23.9852 2.39044 23.9174 2.59395 23.9432 2.79746L24.2113 4.78088L14.1166 14.8789C13.8388 15.1567 13.8388 15.6057 14.1166 15.8835C14.2555 16.0224 14.4364 16.0902 14.6205 16.0902C14.8014 16.0902 14.9855 16.0224 15.1244 15.8835L25.2192 5.78874L27.2026 6.05685C27.4061 6.0827 27.6096 6.01486 27.755 5.86949L29.8095 3.81501C30.0647 3.55981 30.0647 3.1431 29.8062 2.88468Z" fill="#FEA800"/>
</g>
<defs>
<clipPath id="clip0_2002_671">
<rect width="30" height="30" fill="white"/>
</clipPath>
</defs>
</svg>
