<svg width="52" height="52" viewBox="0 0 52 52" fill="none" xmlns="http://www.w3.org/2000/svg">
<path d="M17.619 12.7347C17.5551 12.658 17.4911 12.6196 17.3889 12.6196C16.0336 12.6196 14.6783 12.6196 13.323 12.6196C13.2846 12.6196 13.2335 12.6196 13.1567 12.6196C13.3102 12.8242 13.4508 13.0032 13.5787 13.195C17.1843 18.028 20.7771 22.8611 24.3827 27.6941C27.2851 31.581 30.1747 35.4679 33.0771 39.3676C33.1282 39.4315 33.1794 39.4699 33.2689 39.4699C34.6369 39.4699 36.0178 39.4699 37.3859 39.4699C37.4243 39.4699 37.4626 39.4699 37.5138 39.4571C37.4754 39.406 37.4626 39.3804 37.437 39.3548C36.964 38.7155 36.4909 38.0762 36.005 37.4369C33.0515 33.4605 30.0852 29.4969 27.1317 25.5205C23.9608 21.2501 20.7899 16.9924 17.619 12.7347Z" fill="#1AB9A2"/>
<path d="M25.9938 1.70044C12.5814 1.70044 1.70068 12.5812 1.70068 25.9935C1.70068 39.4059 12.5814 50.2866 25.9938 50.2866C39.4061 50.2866 50.2869 39.4059 50.2869 25.9935C50.2869 12.5812 39.4189 1.70044 25.9938 1.70044ZM41.1706 41.3365C38.1147 41.3365 35.0461 41.3365 31.9903 41.3365C31.888 41.3365 31.8241 41.311 31.7602 41.2215C28.9089 37.3218 26.0449 33.4093 23.1809 29.5096C23.1553 29.4841 23.1297 29.4457 23.1042 29.4073C23.0658 29.4457 23.0402 29.4713 23.0019 29.5096C20.9434 31.7472 18.8976 33.9847 16.8391 36.2222C15.3048 37.8971 13.7577 39.5849 12.2234 41.2598C12.1851 41.2982 12.1339 41.3237 12.0828 41.3237C11.2006 41.3237 10.3311 41.3237 9.4489 41.3237C9.43611 41.3237 9.42333 41.3237 9.38497 41.311C13.5532 36.772 17.7086 32.233 21.8639 27.7068C17.7086 22.0299 13.5532 16.353 9.37219 10.6505C9.46169 10.6505 9.51283 10.6505 9.56397 10.6505C12.6198 10.6505 15.6628 10.6505 18.7186 10.6505C18.8337 10.6505 18.8976 10.6761 18.9743 10.7656C21.6594 14.4351 24.3572 18.1175 27.0422 21.787C27.0806 21.8381 27.1061 21.8765 27.1573 21.9532C27.1956 21.9021 27.2212 21.8765 27.2596 21.8381C30.2131 18.6033 33.1794 15.3813 36.1329 12.1465C36.5677 11.6734 37.0024 11.1875 37.4499 10.7145C37.4882 10.6761 37.5522 10.6377 37.6033 10.6377C38.46 10.6377 39.3294 10.6377 40.1861 10.6377C40.2116 10.6377 40.2244 10.6377 40.2883 10.6505C36.3119 14.9849 32.3483 19.3065 28.3847 23.6281C32.6936 29.5224 37.0024 35.4039 41.3368 41.3237C41.2601 41.3365 41.2089 41.3365 41.1706 41.3365Z" fill="#1AB9A2"/>
</svg>
