<svg width="38" height="38" viewBox="0 0 38 38" fill="none" xmlns="http://www.w3.org/2000/svg">
<path d="M12.461 8.82955C12.4117 8.77033 12.3623 8.74072 12.2834 8.74072C11.2372 8.74072 10.1911 8.74072 9.1449 8.74072C9.1153 8.74072 9.07582 8.74072 9.0166 8.74072C9.13503 8.89863 9.2436 9.0368 9.34229 9.18484C12.1255 12.9155 14.8987 16.6461 17.6819 20.3767C19.9223 23.377 22.1527 26.3773 24.3931 29.3874C24.4326 29.4368 24.472 29.4664 24.5411 29.4664C25.5971 29.4664 26.663 29.4664 27.7191 29.4664C27.7487 29.4664 27.7783 29.4664 27.8178 29.4565C27.7881 29.4171 27.7783 29.3973 27.7585 29.3776C27.3934 28.8841 27.0282 28.3906 26.6532 27.8972C24.3733 24.8278 22.0836 21.7683 19.8038 18.6989C17.3562 15.4025 14.9086 12.116 12.461 8.82955Z" fill="white"/>
<path d="M18.9256 0.3125C8.57266 0.3125 0.173828 8.71133 0.173828 19.0643C0.173828 29.4173 8.57266 37.8161 18.9256 37.8161C29.2786 37.8161 37.6774 29.4173 37.6774 19.0643C37.6774 8.71133 29.2885 0.3125 18.9256 0.3125ZM30.6406 30.9076C28.2818 30.9076 25.9131 30.9076 23.5544 30.9076C23.4754 30.9076 23.4261 30.8878 23.3767 30.8187C21.1758 27.8086 18.9651 24.7885 16.7544 21.7784C16.7346 21.7586 16.7149 21.729 16.6952 21.6994C16.6655 21.729 16.6458 21.7488 16.6162 21.7784C15.0272 23.5055 13.4481 25.2327 11.8592 26.9598C10.6748 28.2527 9.48065 29.5554 8.29632 30.8483C8.26671 30.8779 8.22723 30.8977 8.18776 30.8977C7.50677 30.8977 6.83565 30.8977 6.15467 30.8977C6.1448 30.8977 6.13493 30.8977 6.10532 30.8878C9.32273 27.3842 12.5303 23.8806 15.7378 20.3868C12.5303 16.0048 9.32273 11.6228 6.09545 7.22106C6.16454 7.22106 6.20401 7.22106 6.24349 7.22106C8.60227 7.22106 10.9512 7.22106 13.31 7.22106C13.3988 7.22106 13.4481 7.2408 13.5073 7.30988C15.5799 10.1424 17.6624 12.9848 19.7349 15.8173C19.7645 15.8568 19.7843 15.8864 19.8237 15.9456C19.8534 15.9061 19.8731 15.8864 19.9027 15.8568C22.1825 13.3598 24.4722 10.8727 26.752 8.37578C27.0876 8.01061 27.4232 7.63557 27.7686 7.27041C27.7982 7.2408 27.8475 7.21119 27.887 7.21119C28.5483 7.21119 29.2194 7.21119 29.8806 7.21119C29.9004 7.21119 29.9102 7.21119 29.9596 7.22106C26.8902 10.5668 23.8307 13.9026 20.7712 17.2385C24.0972 21.7882 27.4232 26.3282 30.7689 30.8977C30.7097 30.9075 30.6702 30.9076 30.6406 30.9076Z" fill="white"/>
</svg>
