<svg width="303" height="49" viewBox="0 0 303 49" fill="none" xmlns="http://www.w3.org/2000/svg">
<path d="M151.542 0.0616057C151.374 0.0769951 151.235 0.107774 151.067 0.123163C151.151 0.2155 151.235 0.292447 151.318 0.384784C146.402 -0.0768994 143.469 0.908025 139.782 2.81632C137.351 4.43221 131.653 5.55564 130.396 7.46393C128.664 7.72555 125.34 9.9878 123.748 10.3418C123.748 10.6034 123.748 10.865 123.748 11.1266C122.351 11.142 119.893 12.0654 120.647 13.0965C120.172 12.958 119.697 12.8348 119.222 12.6963C118.999 13.0041 119.027 13.3273 119.697 13.3581C118.105 13.4504 115.535 14.3276 115.647 15.3279C115.563 15.2356 115.479 15.1587 115.395 15.0663C114.585 15.2356 114.557 15.882 114.446 16.3744C113.859 15.8973 112.49 16.4052 112.546 16.8977C112.909 16.6514 113.999 16.0974 113.859 16.6976C108.384 17.898 105.702 21.3452 101.121 23.1919C101.372 23.4536 101.596 23.7152 101.847 23.9768C100.786 23.5305 99.4729 23.946 99.2215 24.6386C99.4729 24.6847 99.6964 24.7309 99.9478 24.7771C99.5567 24.7771 99.1657 24.7771 98.7467 24.7771C98.7467 24.9925 98.7467 25.208 98.7467 25.4388C97.8807 24.7617 92.0704 29.1477 92.3218 29.9017C93.7185 29.4093 94.9197 28.0242 97.322 28.1935C96.7354 27.1932 99.4171 27.5625 100.423 27.9319C100.507 27.7164 100.59 27.501 100.674 27.2701C101.4 27.5625 103.048 26.7931 102.825 26.3468C102.574 26.3468 102.35 26.3468 102.099 26.3468C103.048 25.4234 100.423 25.2541 100.199 24.7771C100.842 24.9156 101.456 25.0387 102.099 25.1772C102.099 24.9617 102.099 24.7463 102.099 24.5154C103.635 24.9925 104.389 23.1612 105.898 23.469C105.73 23.2073 105.59 22.9457 105.423 22.6841C105.982 22.8534 106.54 23.0381 107.099 23.2073C106.903 22.9919 106.848 22.7456 107.35 22.6841C106.875 22.6841 106.401 22.6841 105.926 22.6841C106.205 22.2224 107.099 22.3917 107.825 22.5456C107.937 21.9454 109.836 22.3147 109.976 21.6222C110.283 21.7146 110.619 21.7915 110.926 21.8838C110.842 21.6222 110.758 21.3606 110.674 21.099C111.066 21.099 111.457 21.099 111.876 21.099C110.982 20.4372 112.378 20.2064 112.602 19.7909C114.027 20.6219 114.669 18.8675 114.976 18.3443C115.228 18.3904 115.451 18.4366 115.703 18.4828C115.367 18.0673 114.865 16.8207 115.954 16.7745C115.842 17.1901 115.563 17.7441 116.205 17.9595C116.261 17.5132 116.513 17.0516 117.407 17.1747C117.295 17.4671 117.602 17.6517 118.133 17.6979C118.273 17.2824 117.77 16.9284 117.183 16.6514C118.803 17.0823 119.334 16.4821 120.759 16.2513C120.228 16.0512 119.669 15.8204 119.809 15.4664C119.669 16.2051 117.798 15.7435 118.859 15.2048C118.161 15.2818 117.239 15.4049 117.183 14.9432C119.362 14.7124 120.591 15.7588 122.183 15.6049C122.016 15.3895 121.876 15.174 121.708 14.9432C122.518 14.8509 123.357 14.6354 122.91 14.1583C123.217 14.2045 123.552 14.2507 123.859 14.2968C123.608 14.0814 123.384 13.8659 123.133 13.6351C124.418 13.8044 125.005 13.0811 126.234 13.3735C126.234 13.2504 126.234 13.1119 126.234 12.9734C126.485 12.9734 126.709 12.9734 126.96 12.9734C126.96 12.881 126.96 12.8041 126.96 12.7117C126.653 12.7579 126.318 12.8041 126.01 12.8502C126.01 12.681 126.01 12.4963 126.01 12.327C127.435 12.681 127.547 11.8961 128.636 11.6652C128.245 11.6652 127.854 11.6652 127.435 11.6652C127.994 10.6034 127.435 10.6803 130.061 10.8188C133.413 9.95702 130.368 10.0494 129.334 9.31066C130.312 9.15677 131.15 9.6954 131.96 9.71079C131.96 9.57228 131.96 9.44917 131.96 9.31066C134.195 10.1109 134.698 7.92561 136.485 8.12568C136.458 7.74094 136.653 7.15614 136.011 7.07919C137.128 7.09458 136.877 6.40206 136.737 5.89421C137.966 5.97115 139 5.14012 140.312 5.63259C140.508 5.07857 138.944 4.72461 139.363 4.32448C141.43 4.4476 139.698 5.87882 140.564 6.29433C141.039 5.6172 143.609 4.07825 144.614 3.67813C144.614 3.84741 144.614 4.03208 144.614 4.20137C144.782 4.20137 144.922 4.20137 145.089 4.20137C145.089 3.93975 145.089 3.67813 145.089 3.41651C145.732 3.46267 146.346 3.50884 146.989 3.55501C146.765 3.12411 146.737 2.63164 147.715 2.63164C147.631 2.49314 147.547 2.37002 147.464 2.23152C147.715 2.23152 147.938 2.23152 148.19 2.23152C148.106 2.49314 148.022 2.75476 147.938 3.01638C149.642 2.86248 150.145 1.70828 151.514 1.30815C151.598 1.44666 151.682 1.56977 151.765 1.70828C150.089 2.1084 149.419 5.41713 147.491 5.64797C145.648 8.49502 140.285 10.9881 139.642 14.0352C139.167 13.9891 138.692 13.9429 138.217 13.8967C138.301 14.066 138.385 14.2507 138.469 14.42C136.066 15.0817 134.809 17.9595 133.245 19.006C133.804 19.0676 133.636 19.4061 133.497 19.6678C131.709 19.283 131.457 20.7296 131.597 21.4991C131.346 21.4068 131.122 21.3298 130.871 21.2375C131.429 22.1147 128.887 22.2686 129.195 23.3305C129.446 23.2381 129.67 23.1612 129.921 23.0688C129.921 23.2073 129.921 23.3305 129.921 23.469C129.67 23.469 129.446 23.469 129.195 23.469C129.195 23.6382 129.195 23.8229 129.195 23.9922C128.804 23.946 128.413 23.8999 127.994 23.8537C128.385 24.4539 126.904 24.7155 127.407 25.2234C128.077 25.7928 127.044 25.8389 126.345 25.685C126.569 26.3776 123.859 27.3009 125.033 28.1166C125.703 28.1627 126.234 27.1163 125.871 26.87C127.435 27.0393 125.535 27.778 125.871 28.3166C126.178 28.3166 126.513 28.3166 126.82 28.3166C126.82 28.055 126.82 27.7934 126.82 27.5318C127.072 27.5318 127.295 27.5318 127.547 27.5318C127.379 27.9473 128.329 28.2859 128.971 28.5783C128.692 28.0396 128.804 27.4856 129.921 27.3933C129.279 27.2548 128.664 27.1316 128.021 26.9931C129.279 26.5622 128.971 25.8082 128.273 25.1618C128.58 25.1156 128.915 25.0695 129.223 25.0233C129.362 25.2849 129.53 25.6081 128.971 25.685C130.033 25.9313 131.485 25.5619 130.871 24.9002C131.346 24.9002 131.821 24.9002 132.295 24.9002C132.295 24.6847 132.295 24.4693 132.295 24.2384C132.631 24.6078 133.636 24.3308 133.497 23.9768C133.105 23.9768 132.714 23.9768 132.295 23.9768C132.295 23.7152 132.295 23.4536 132.295 23.1919C132.547 23.2381 132.77 23.2843 133.022 23.3305C133.133 22.9611 133.217 22.6533 134.223 22.6687C135.871 22.5764 135.647 20.7758 137.072 20.4372C136.625 20.3141 136.178 20.3295 135.871 20.5757C136.094 20.0371 136.29 19.3446 136.821 19.006C138.162 20.1602 139.055 18.5597 140.145 18.0826C139.195 17.8518 139.195 17.2978 139.419 16.7745C139.754 17.0823 140.34 16.9438 140.843 16.7745C140.759 16.8669 140.676 16.9438 140.592 17.0362C142.324 16.8207 139.391 15.8973 140.592 15.2048C141.569 15.8512 144.028 14.7585 141.793 14.42C142.491 14.3276 142.072 13.6505 142.044 13.235C142.519 13.2811 142.994 13.3273 143.469 13.3735C143.301 13.5428 143.162 13.7274 142.994 13.8967C144.056 13.8506 144.056 12.5732 145.843 12.7117C145.452 12.5424 145.061 12.3578 144.642 12.1885C145.62 12.3116 146.151 11.9115 146.318 11.4036C146.57 11.496 146.793 11.5729 147.045 11.6652C147.603 10.6034 146.402 9.78774 146.57 8.78742C147.128 9.17216 149.782 9.61845 150.145 8.78742C149.587 8.78742 149.028 8.78742 148.469 8.78742C148.469 8.43346 148.469 8.0949 148.469 7.74094C148.553 7.87944 148.637 8.00256 148.721 8.14107C152.073 7.92561 152.017 7.24848 152.994 5.78648C152.436 5.43252 151.542 4.95545 152.268 4.60149C152.408 4.95545 153.33 4.78617 153.944 4.74C153.777 4.47838 153.637 4.21676 153.469 3.95514C153.721 3.95514 153.944 3.95514 154.196 3.95514C153.832 3.50884 154.279 2.9856 154.671 2.50853C153.916 2.49314 153.302 2.29308 153.469 1.84678C154.168 1.89295 154.866 1.816 155.145 1.44666C153.888 1.32354 153.302 -0.353909 151.542 0.0616057ZM150.592 0.200111C150.676 0.2155 150.76 0.246279 150.844 0.261668C150.676 0.2155 150.536 0.169332 150.369 0.123163C150.452 0.153942 150.536 0.169332 150.592 0.200111ZM149.894 0.923415C150.061 0.923415 150.201 0.923415 150.369 0.923415C150.369 1.06192 150.369 1.18504 150.369 1.32354C150.201 1.18504 150.061 1.04653 149.894 0.923415ZM151.318 1.04653C151.486 1.13887 151.626 1.21581 151.793 1.30815C151.626 1.2312 151.486 1.13887 151.318 1.04653ZM148.469 1.56977C148.888 1.72367 148.944 1.98529 148.721 2.23152C148.609 2.01607 148.553 1.78522 148.469 1.56977ZM153.693 2.16996C153.777 2.18535 153.86 2.21613 153.944 2.23152C153.777 2.18535 153.637 2.13918 153.469 2.09301C153.525 2.12379 153.609 2.13918 153.693 2.16996ZM141.569 2.49314C141.737 2.49314 141.877 2.49314 142.044 2.49314C141.961 2.58547 141.877 2.66242 141.793 2.75476C141.709 2.66242 141.653 2.58547 141.569 2.49314ZM142.044 2.87787C142.212 2.97021 142.352 3.04716 142.519 3.13949C142.352 3.06255 142.184 2.97021 142.044 2.87787ZM143.218 3.01638C143.832 3.21644 143.385 3.55501 142.966 3.80124C143.078 3.53962 143.162 3.278 143.218 3.01638ZM152.52 3.13949C152.603 3.278 152.687 3.40112 152.771 3.53962C152.659 3.40112 152.575 3.278 152.52 3.13949ZM151.318 3.278C152.073 3.5704 152.296 3.98591 151.57 4.32448C151.486 3.97053 151.402 3.63196 151.318 3.278ZM154.531 3.60118C154.559 3.7089 154.615 3.81663 154.643 3.92436C154.726 3.7089 154.81 3.49345 154.894 3.26261C154.726 3.26261 154.587 3.26261 154.419 3.26261C154.447 3.38573 154.475 3.49345 154.531 3.60118ZM90.0592 4.06286C90.0871 4.10903 90.143 4.1552 90.1709 4.20137C90.0871 4.10903 90.0033 4.03208 89.9195 3.93975C89.9754 3.97053 90.0033 4.01669 90.0592 4.06286ZM87.0703 4.26292C86.2881 4.30909 86.0926 4.75539 85.8691 5.10934C85.0311 4.46299 82.1539 5.72492 82.1818 6.29433C82.5729 6.72524 84.4165 6.60212 84.193 7.34081C83.5226 7.40237 82.936 7.24848 82.517 6.94069C82.0421 8.32574 81.5114 6.55595 80.6175 6.67907C80.6734 7.03303 80.4499 7.07919 79.3046 7.20231C77.5168 7.23309 77.7682 8.47963 76.3436 8.51041C76.595 8.72586 76.8185 8.94132 77.0699 9.17216C75.757 9.15677 75.5894 10.4341 74.4441 10.3571C75.2542 10.1879 75.4497 9.63384 74.4441 9.57228C74.7514 11.8807 70.6451 9.94163 69.6953 12.327C69.1925 11.2036 62.628 14.5739 63.047 15.3433C62.6559 15.3433 62.2649 15.3433 61.8459 15.3433C61.9576 15.7896 59.6949 15.8973 60.1698 16.5283C60.0022 16.436 59.8625 16.359 59.6949 16.2667C59.6949 17.3132 56.0635 17.3132 56.3708 18.4982C54.8344 18.6521 53.0746 19.2522 52.3204 20.0679C52.907 19.8678 53.5495 19.7755 54.2199 19.8063C54.0523 20.3449 50.9795 20.3295 50.4209 21.1144C48.9962 21.7299 49.6946 23.2843 50.8957 22.2994C51.203 22.561 51.5382 22.8226 51.8455 23.0842C52.0131 22.5148 52.9628 22.3147 53.9964 22.2994C53.9964 22.4379 53.9964 22.561 53.9964 22.6995C54.8624 22.6841 55.3093 22.2224 55.6724 21.7761C56.0635 22.6841 57.6558 22.2532 58.0468 21.5145C58.2703 21.7607 58.2424 22.007 57.7954 22.1762C58.382 21.8685 59.1363 21.7299 59.9463 21.7761C59.3877 21.099 60.924 19.9756 62.3207 20.2064C62.3207 20.1141 62.3207 20.0371 62.3207 19.9448C63.4381 20.0063 64.1644 19.3754 65.4214 19.6832C64.8627 19.3446 65.4773 18.7752 64.2202 18.4982C65.2259 18.2827 66.2594 18.2365 67.0695 18.6367C67.2651 18.0673 67.4885 17.3286 68.4941 17.1901C66.3712 16.4668 68.3265 16.3898 68.969 15.7435C69.1366 16.0974 69.2763 16.436 69.4439 16.7899C69.1646 16.359 70.2819 16.359 70.1702 16.0051C69.9188 16.0051 69.6953 16.0051 69.4439 16.0051C69.6394 14.9894 71.4551 15.8358 72.2932 15.2818C73.7737 14.2045 70.1981 14.897 69.4439 14.1737C70.4216 13.9737 70.7289 13.5274 70.3937 12.9887C70.7847 13.1272 71.1758 13.2504 71.5948 13.3889C69.807 14.3122 72.7122 14.7585 72.5446 13.5274C73.6899 14.1891 74.7793 13.5735 75.8687 13.9275C75.9525 13.789 76.0363 13.6659 76.1201 13.5274C75.0866 13.6505 73.9971 13.0503 74.2206 12.4809C73.8295 12.5732 73.4385 12.6502 73.0194 12.7425C73.2429 12.4963 73.215 12.25 72.768 12.0808C73.2429 12.0346 73.7178 11.9884 74.1927 11.9423C73.634 12.4039 75.1424 12.5732 75.8687 12.7271C75.9246 12.0962 77.4889 10.9419 78.2431 10.6342C78.0755 10.8034 77.9358 10.9881 77.7682 11.1574C78.1593 11.2497 78.5504 11.3267 78.9694 11.419C78.0196 10.6342 79.7515 10.6034 79.4443 9.84929C79.0532 9.18755 79.8633 9.07982 80.394 9.44917C80.3102 9.31066 80.2264 9.18755 80.1426 9.04904C80.7292 9.14138 80.8689 8.57197 81.0924 8.26418C81.0924 8.47963 81.0924 8.69509 81.0924 8.92593C81.6511 8.92593 82.2097 8.92593 82.7684 8.92593C82.7684 8.71047 82.7684 8.49502 82.7684 8.26418C83.0757 8.35652 83.4109 8.43347 83.7182 8.5258C83.4668 7.47932 85.6456 7.32542 85.8691 6.69446C86.1205 6.74063 86.344 6.78679 86.5954 6.83296C86.2322 7.27926 85.7015 7.81789 86.344 8.14107C85.7015 8.04873 85.1149 8.95671 84.6679 9.32605C84.9193 9.37222 85.1428 9.41839 85.3942 9.46456C85.3942 9.29527 85.3942 9.1106 85.3942 8.94132C86.0646 8.91054 86.2043 9.51073 87.0703 9.46456C86.4278 9.63384 85.8132 9.81852 85.1707 9.9878C86.0646 10.3571 84.9752 10.7573 84.221 10.511C84.221 10.6034 84.221 10.6803 84.221 10.7727C84.4724 10.7727 84.6959 10.7727 84.9473 10.7727C84.4165 11.2959 83.383 12.05 83.5226 12.4809C83.774 12.4809 83.9975 12.4809 84.2489 12.4809C84.1651 12.6502 84.0813 12.8348 83.9975 13.0041C84.1651 13.0041 84.3048 13.0041 84.4724 13.0041C83.9137 13.1888 84.0813 13.5889 84.221 13.9275C83.8299 13.712 83.4388 13.4966 83.0198 13.2658C83.5785 14.0814 80.5058 14.4815 80.8689 15.2356C81.26 15.2356 81.6511 15.2356 82.0701 15.2356C82.1539 17.1901 86.5395 15.8512 87.7686 15.2356C87.6848 15.0201 87.601 14.8047 87.5172 14.5739C87.7686 14.5739 87.9921 14.5739 88.2435 14.5739C88.3552 14.3276 87.9362 14.2353 87.5172 14.1737C87.8245 14.1276 88.1597 14.0814 88.4669 14.0352C88.3552 13.7736 87.9083 13.8044 87.5172 13.8967C87.5172 13.7274 87.5172 13.5428 87.5172 13.3735C87.7686 13.3735 87.9921 13.3735 88.2435 13.3735C88.1876 12.6502 86.316 11.6345 87.0423 10.7573C87.4893 11.1112 87.9641 11.6499 88.7184 11.5421C88.7184 11.6345 88.7184 11.7114 88.7184 11.8038C89.305 11.4498 90.0312 11.773 90.6179 12.0654C90.7575 11.3728 91.0928 10.5418 92.5174 10.7573C92.5174 10.8958 92.5174 11.0189 92.5174 11.1574C92.9923 10.8804 93.6347 10.9573 94.1934 11.1574C94.5566 10.6342 95.8136 9.64923 94.6683 9.44917C94.9197 9.27988 95.1432 9.09521 95.3946 8.92593C95.1432 8.92593 94.9197 8.92593 94.6683 8.92593C94.8918 8.61814 94.8638 8.29496 94.1934 8.26418C94.1934 8.40269 94.1934 8.5258 94.1934 8.66431C94.0258 8.66431 93.8861 8.66431 93.7185 8.66431C93.8861 8.80281 94.0258 8.92593 94.1934 9.06443C93.2716 8.9721 91.4 9.35683 91.5676 9.9878C92.5453 9.52612 95.0873 10.8496 93.104 10.8342C92.1822 10.3725 89.8078 10.0955 91.3162 9.32605C86.8188 8.95671 92.9364 8.01795 91.5676 6.70985C93.5509 7.31003 95.7298 5.38635 92.5174 6.0481C92.7688 5.78648 92.9923 5.52486 93.2437 5.26324C93.523 5.47869 93.9699 5.55564 94.4448 5.52486C94.6124 5.12473 91.847 4.64766 90.8693 4.33987C91.0369 4.72461 90.3106 4.8785 89.6681 5.00162C90.143 5.1709 90.6179 5.35558 91.0927 5.52486C87.9641 5.15551 91.0648 7.00225 89.6681 7.3562C89.7798 6.69446 87.4893 6.69446 87.0423 7.09458C87.3217 6.70985 87.8245 6.20199 87.7686 5.9096C87.4613 6.00193 87.1261 6.07888 86.8188 6.17122C86.8468 5.60181 87.3775 5.15551 88.2435 4.86311C88.4669 5.1709 88.8022 5.4633 89.4446 5.38635C89.5564 4.50916 88.5787 4.03208 87.0703 4.26292ZM154.168 4.46299C154.252 4.50916 154.335 4.55532 154.419 4.60149C154.251 4.50916 154.112 4.43221 153.944 4.33987C154 4.37065 154.084 4.41682 154.168 4.46299ZM137.519 4.72461C137.603 4.89389 137.687 5.07857 137.77 5.24785C137.519 5.24785 137.296 5.24785 137.044 5.24785C137.212 5.06318 137.351 4.89389 137.519 4.72461ZM85.897 5.10934C85.9808 5.20168 86.0646 5.27863 86.1484 5.37097C86.0367 5.29402 85.9808 5.20168 85.897 5.10934ZM85.1707 5.37097C85.2545 5.4633 85.3383 5.54025 85.4221 5.63259C85.3383 5.55564 85.2545 5.4633 85.1707 5.37097ZM87.6848 5.57103C87.6569 5.63259 87.601 5.70953 87.5731 5.77109C87.8803 5.67875 88.2155 5.60181 88.5228 5.50947C88.2714 5.4633 88.0479 5.41713 87.7965 5.37097C87.7407 5.43252 87.7127 5.50947 87.6848 5.57103ZM191.041 5.70953C189.951 6.49439 187.102 7.01764 186.292 7.87944C186.04 7.83328 185.817 7.78711 185.566 7.74094C185.342 8.12568 185.314 9.15677 184.616 9.04904C184.616 8.83359 184.616 8.61814 184.616 8.3873C183.666 8.35652 181.459 8.95671 182.241 9.6954C181.599 9.6954 180.984 9.6954 180.342 9.6954C180.537 10.0955 181.04 10.7111 180.09 10.7419C180.342 11.0497 180.565 11.3575 180.817 11.6652C180.342 11.7114 179.867 11.7576 179.392 11.8038C179.979 11.6037 179.755 11.1266 179.643 10.7573C179.224 11.0805 178.61 11.1728 177.967 11.0189C178.498 11.2497 178.778 11.5729 178.694 11.9423C178.107 11.9115 177.576 11.7576 177.744 11.419C177.185 11.6191 176.459 11.9115 176.068 11.5575C175.23 13.0657 174.42 12.6963 172.018 13.4504C169.392 14.2968 171.068 16.0974 167.269 15.4818C167.52 16.082 165.202 16.1436 165.369 16.7899C164.699 16.4975 162.799 17.3901 163.47 17.8364C160.118 17.9749 160.397 20.9143 156.821 20.5911C156.961 20.9143 155.955 21.0682 155.397 21.2529C155.481 21.3452 155.564 21.4222 155.648 21.5145C155.341 21.5145 155.006 21.5145 154.698 21.5145C154.866 21.6838 155.006 21.8685 155.173 22.0377C150.676 21.8838 152.436 25.3465 150.425 24.0076C150.62 24.3 150.676 24.6232 150.173 24.7924C150.341 24.8848 150.48 24.9617 150.648 25.0541C150.257 25.1002 149.866 25.1464 149.447 25.1926C149.531 25.3619 149.614 25.5465 149.698 25.7158C148.888 25.3926 147.491 25.5158 146.374 25.5773C146.765 25.8389 147.156 26.1006 147.575 26.3622C147.268 26.4545 146.933 26.5315 146.626 26.6238C144.586 25.4234 143.748 27.9011 147.352 27.2855C147.519 27.6241 146.067 27.8703 145.452 28.0704C145.396 27.7164 144.866 27.6241 144.251 27.6703C144.391 27.3317 143.888 27.1778 143.301 27.147C143.301 27.3163 143.301 27.501 143.301 27.6703C143.05 27.5779 142.826 27.501 142.575 27.4087C142.491 27.7626 142.324 28.1627 141.625 28.0704C141.625 28.2397 141.625 28.4244 141.625 28.5936C141.793 28.5936 141.933 28.5936 142.1 28.5936C141.234 29.2862 137.91 28.9476 139 30.5635C139.67 30.1326 140.62 29.6401 141.374 30.1634C140.229 31.3791 137.268 30.425 135.424 31.0867C135.201 31.8408 133.022 32.5795 135.173 33.5798C133.999 33.7491 133.776 33.1027 133.748 32.5333C131.15 33.1181 129.306 35.0726 126.373 35.9344C126.681 36.0267 127.016 36.1037 127.323 36.196C125.815 36.1191 123.189 37.3041 123.049 38.0274C123.357 37.9812 123.692 37.935 123.999 37.8889C121.736 38.7199 125.256 40.0434 123.273 39.7202C123.44 39.8587 123.58 39.9818 123.748 40.1203C123.077 40.0434 121.68 40.1049 121.848 39.7202C122.239 39.7664 122.63 39.8125 123.049 39.8587C123.245 39.474 122.491 39.3816 121.848 39.3355C121.932 39.1662 122.016 38.9815 122.099 38.8122C120.954 38.6276 119.837 38.7507 119.725 39.474C119.083 39.3355 118.468 39.2124 117.826 39.0739C118.999 39.0892 119.837 38.5968 120.451 38.0274C119.502 38.0274 118.552 38.0274 117.602 38.0274C117.826 38.8892 116.569 39.2431 117.127 40.1203C117.434 40.0742 117.77 40.028 118.077 39.9818C117.993 40.5359 119.474 41.1668 120.451 41.1668C120.368 40.859 120.284 40.5512 120.2 40.2435C122.602 40.9514 128.44 39.8895 128.999 38.5352C129.251 38.5814 129.474 38.6276 129.725 38.6737C129.725 38.5044 129.725 38.3198 129.725 38.1505C130.982 38.3967 131.765 37.2733 132.826 37.3656C132.91 36.5192 137.351 35.8882 138.05 34.9341C139.027 34.0877 142.268 33.7029 141.849 32.5026C142.24 32.9181 143.888 32.5641 143.273 32.1024C143.022 32.1948 142.799 32.2717 142.547 32.3641C142.631 32.1486 142.715 31.9332 142.799 31.7023C145.341 32.5026 145.704 30.6097 147.547 30.3326C148.665 29.8248 152.017 28.9784 151.346 27.9011C152.548 28.3166 153.972 26.7469 155.145 26.9777C155.145 26.8085 155.145 26.6238 155.145 26.4545C156.989 25.7928 161.905 24.3923 161.095 22.9149C161.486 22.9149 161.877 22.9149 162.296 22.9149C162.129 22.3917 164.28 21.0682 165.397 21.4683C165.397 21.2067 165.397 20.9451 165.397 20.6835C165.649 20.6835 165.872 20.6835 166.123 20.6835C166.04 20.822 165.956 20.9451 165.872 21.0836C167.911 20.1448 171.934 18.8983 173.247 17.544C175.006 17.6671 176.487 15.805 176.822 15.3125C176.822 15.4511 176.822 15.5742 176.822 15.7127C177.604 15.528 178.498 15.4203 178.973 15.8512C177.521 16.0512 174.699 17.1593 175.398 18.2058C173.47 18.3289 170.788 21.6992 171.347 22.6687C171.18 22.6687 171.04 22.6687 170.872 22.6687C170.956 22.9303 171.04 23.1919 171.124 23.4536C170.258 23.2689 170.397 24.0691 169.699 23.9768C169.559 24.2538 170.202 24.3154 170.649 24.3769C168.47 24.3769 168.163 26.5315 168.274 27.5164C164.503 30.6097 162.101 36.0575 161.626 39.9664C161.458 39.9664 161.319 39.9664 161.151 39.9664C161.263 40.3512 161.514 40.8129 160.9 41.0129C161.319 41.1668 161.375 41.4284 161.151 41.6747C162.129 41.9825 163.079 42.4288 164 42.8597C163.861 42.3056 164.112 41.767 165.202 41.6747C165.118 41.844 165.034 42.0286 164.95 42.1979C165.509 42.1979 166.263 42.2441 166.375 41.9363C166.263 42.3056 166.542 42.6288 167.101 42.8597C167.995 41.767 170.733 41.767 172.464 40.9514C174.336 40.5666 171.738 39.751 172.828 39.0585C173.107 39.4586 173.973 39.474 174.727 39.4586C173.47 38.7968 176.124 37.8581 175.453 39.0585C176.962 39.197 177.884 38.7045 178.079 37.8735C178.778 38.5506 179.951 37.6426 179.979 37.0886C179.448 37.1502 179.113 36.9809 179.029 36.6885C180.063 36.4884 180.23 35.2573 181.878 35.9036C182.046 35.6882 182.185 35.4727 182.353 35.2419C182.828 35.4112 183.303 35.5958 183.778 35.7651C183.135 34.0261 189.225 34.1954 186.878 32.6257C187.13 32.6718 187.353 32.718 187.605 32.7642C187.688 32.5487 187.772 32.3333 187.856 32.1024C188.666 32.5333 191.041 31.9793 190.705 31.3176C190.538 31.4561 190.398 31.5792 190.23 31.7177C189.979 31.6254 189.756 31.5484 189.504 31.4561C190.035 31.0713 190.789 30.8559 191.655 30.9328C191.655 30.7636 191.655 30.5789 191.655 30.4096C192.13 30.5019 192.605 30.5789 193.08 30.6712C192.996 30.4096 192.912 30.148 192.828 29.8864C193.75 29.8402 195.287 29.8402 194.979 29.2246C194.756 29.2246 194.504 29.2246 194.253 29.2246C198.667 27.8549 202.94 24.9771 207.326 23.392C210.818 21.4837 217.075 20.2833 219.226 17.9595C219.533 18.0519 219.868 18.1288 220.176 18.2212C220.176 18.0519 220.176 17.8672 220.176 17.6979C220.567 17.6979 220.958 17.6979 221.377 17.6979C221.293 17.5286 221.209 17.344 221.125 17.1747C221.377 17.1747 221.6 17.1747 221.852 17.1747C221.852 17.0516 221.852 16.913 221.852 16.7745C223.5 17.6825 225.79 15.4972 227.55 15.5896C227.243 14.697 229.143 13.9275 230.651 14.4046C230.679 13.6505 233.221 13.235 234.338 12.958C235.595 12.6963 236.713 11.8191 238.277 12.0346C238.277 11.8653 238.277 11.6806 238.277 11.5114C239.087 11.7114 240.54 11.5421 240.651 10.9881C242.439 12.3578 237.048 14.4046 236.852 15.8358C234.227 18.3597 230.567 21.9454 228.751 24.7463C227.299 26.0852 224.366 27.7934 224.478 29.594C224.31 29.5478 224.17 29.5016 224.003 29.4554C223.36 30.625 222.801 31.7639 222.103 32.8565C221.852 32.8565 221.628 32.8565 221.377 32.8565C221.014 34.3955 218.863 37.7504 220.651 39.2739C219.226 39.8587 221.098 40.5051 222.327 40.582C222.159 40.4435 222.019 40.3204 221.852 40.1819C223.304 39.9049 223.807 41.2592 225.064 40.4435C227.55 39.9203 228.835 40.1203 227.802 38.4737C227.969 38.6122 228.109 38.7353 228.277 38.8738C228.416 38.5198 229.198 38.7661 229.701 38.8738C228.891 37.2117 233.388 37.181 234.115 35.996C234.673 35.3958 236.741 35.4573 237.439 34.811C237.942 34.9033 240.735 32.7488 241.378 33.2413C241.461 32.9796 241.545 32.718 241.629 32.4564C241.797 32.5487 241.936 32.6257 242.104 32.718C242.579 32.4102 243.221 32.1178 243.78 32.4564C243.78 32.3179 243.78 32.1948 243.78 32.0563C244.562 31.9639 246.49 30.8713 246.881 30.4865C248.836 30.3173 250.959 27.8242 253.529 28.2551C253.445 28.0858 253.361 27.9011 253.277 27.7318C253.669 27.778 254.06 27.8242 254.479 27.8703C254.479 27.778 254.479 27.7011 254.479 27.6087C255.512 27.8703 255.819 26.1159 256.853 26.5622C256.685 26.7007 256.546 26.8239 256.378 26.9624C256.685 27.0547 257.021 27.1316 257.328 27.224C257.44 26.6392 259.339 26.4237 258.753 25.5158C259.283 25.5773 259.619 25.408 259.702 25.1156C261.993 26.593 261.183 21.93 263.501 23.9306C263.753 23.7152 263.976 23.4997 264.228 23.2689C264.311 23.4074 264.395 23.5305 264.479 23.669C264.647 23.4997 264.786 23.3151 264.954 23.1458C265.122 23.1919 265.261 23.2381 265.429 23.2843C265.038 22.9919 264.479 22.8688 264.004 23.1458C264.116 22.4071 266.77 22.5764 267.328 22.0993C267.496 22.2378 267.636 22.3609 267.803 22.4994C268.976 19.5139 281.547 16.7438 286.351 15.1587C284.731 14.5892 291.994 12.3424 293 12.9272C293.363 12.2347 294.564 11.9269 295.849 11.7422C294.396 15.8358 284.983 19.6678 282.301 23.4074C279.703 23.8537 278.39 26.3622 278.027 27.6087C275.625 26.9162 276.966 28.4705 275.289 28.8553C273.697 29.7017 271.211 30.8867 272.803 32.1948C271.379 32.0563 269.842 32.5795 271.854 33.1181C271.323 33.549 270.206 32.9489 269.479 33.3798C270.038 33.5644 270.569 33.8261 270.206 34.1646C270.373 34.1185 270.513 34.0723 270.68 34.0261C270.68 34.1646 270.68 34.2877 270.68 34.4262C270.15 34.3647 269.814 34.534 269.731 34.8264C269.34 34.6879 268.948 34.5647 268.529 34.4262C267.021 35.3188 268.893 35.996 268.781 37.0424C266.462 36.4884 264.339 37.7658 267.356 37.8273C267.217 39.3816 266.993 38.7353 265.205 38.7507C265.373 38.5814 265.513 38.3967 265.68 38.2274C264.367 38.1813 264.535 38.9661 264.73 39.5355C264.563 39.4894 264.423 39.4432 264.256 39.397C264.2 39.7202 263.92 40.0126 263.306 39.9203C264.814 40.7667 261.127 41.0437 261.406 41.8901C261.714 41.8901 262.049 41.8901 262.356 41.8901C261.965 42.2902 261.881 42.7058 262.356 43.0751C261.295 42.7981 260.261 45.0757 261.406 44.9065C261.322 44.7372 261.239 44.5525 261.155 44.3832C261.322 44.3832 261.462 44.3832 261.63 44.3832C261.63 44.5217 261.63 44.6448 261.63 44.7833C261.937 44.7833 262.272 44.7833 262.58 44.7833C260.848 45.4605 265.122 46.5531 262.58 47.1379C263.473 47.4303 264.814 46.8301 264.256 46.3531C269.116 46.0453 269.954 43.2136 272.831 41.5669C275.736 39.9357 276.239 37.8581 277.58 36.1345C277.58 36.3038 277.58 36.4884 277.58 36.6577C279.843 36.5962 278.697 34.7956 280.681 34.8264C280.513 34.6571 280.373 34.4724 280.206 34.3031C281.714 33.9799 282.943 32.5949 283.53 31.9485C283.279 31.9947 283.055 32.0409 282.804 32.087C282.58 31.8408 282.608 31.5946 283.055 31.4253C282.804 31.4253 282.58 31.4253 282.329 31.4253C282.329 31.333 282.329 31.256 282.329 31.1637C284.005 31.4099 286.128 30.6404 284.48 29.8556C284.787 29.7632 285.122 29.6863 285.43 29.594C285.346 29.7632 285.262 29.9479 285.178 30.1172C287.86 29.0861 289.368 26.4391 291.352 25.0079C292.413 23.4843 296.072 22.2378 295.625 20.4218C295.933 20.468 296.268 20.5142 296.575 20.5604C297.832 18.9137 299.536 15.4357 300.849 13.7428C302.302 13.1888 300.514 10.8496 301.799 10.0801C301.547 10.1725 301.324 10.2494 301.073 10.3418C301.631 9.27988 297.804 9.74157 297.972 9.03365C297.441 9.00287 296.966 9.1106 296.547 9.29527C296.715 9.43378 296.855 9.55689 297.022 9.6954C295.989 10.234 295.402 9.24911 295.821 8.77203C294.732 8.66431 293.586 9.04904 294.145 9.6954C293.028 9.34144 293.642 8.46424 291.407 9.23372C290.094 9.94163 287.776 9.6954 288.195 10.6034C286.854 10.1879 286.1 11.4344 284.871 11.2651C284.983 11.5575 284.675 11.7422 284.145 11.7884C284.312 11.8345 284.452 11.8807 284.619 11.9269C284.452 12.0962 284.312 12.2808 284.145 12.4501C282.832 11.1574 281.211 13.2658 279.256 13.3735C277.943 14.3738 275.206 14.2045 274.843 15.4664C273.949 15.0971 273.586 16.2205 272.692 15.8666C272.692 16.0051 272.692 16.1282 272.692 16.2667C271.63 15.7281 270.233 16.6822 270.317 17.3132C270.01 17.1747 269.675 17.0516 269.367 16.9131C269.06 17.8364 265.876 17.621 267.217 18.8829C263.473 18.7598 262.021 20.4526 259.255 21.376C257.579 22.3301 255.736 22.1455 255.093 23.7306C254.842 23.5921 254.618 23.469 254.367 23.3305C254.199 23.469 254.06 23.5921 253.892 23.7306C254.143 23.7767 254.367 23.8229 254.618 23.8691C249.646 24.9002 245.791 27.5318 241.657 29.1784C237.886 30.1326 233.472 32.1486 230.595 33.5644C230.679 33.4259 230.763 33.3028 230.847 33.1643C229.534 33.0258 227.634 33.2874 226.573 32.9027C226.209 32.1794 228.277 31.9024 227.299 31.1945C228.612 31.4869 228.332 29.9633 229.45 30.148C229.45 30.3173 229.45 30.5019 229.45 30.6712C229.701 30.625 229.925 30.5789 230.176 30.5327C229.562 30.1172 229.422 29.6093 229.701 29.0861C230.092 29.1323 230.483 29.1784 230.902 29.2246C230.902 29.1323 230.902 29.0553 230.902 28.963C231.154 28.963 231.377 28.963 231.629 28.963C230.567 28.3474 232.969 28.0242 232.578 27.3933C232.215 27.6549 231.685 27.8396 231.154 27.6549C231.657 27.3933 231.461 27.0855 230.902 26.87C231.712 26.8546 231.964 26.5007 231.852 26.0852C232.634 26.3006 233.305 25.2541 234.003 25.5619C233.835 25.7312 233.696 25.9159 233.528 26.0852C234.143 25.9467 234.506 25.8235 234.254 25.3003C233.919 24.5462 235.679 24.5308 234.981 23.7306C235.316 24.0384 235.903 23.8999 236.405 23.7306C236.154 23.469 235.93 23.2073 235.679 22.9457C239.702 23.2073 235.484 19.4677 239.003 20.191C239.003 20.0525 239.003 19.9294 239.003 19.7909C240.204 19.6985 240.791 18.4366 241.489 18.0211C242.16 17.8672 240.735 16.2975 242.327 16.7745C242.244 16.8669 242.16 16.9438 242.076 17.0362C244.478 16.5591 245.4 14.697 246.238 13.4966C246.825 12.881 248.333 13.435 247.914 12.4501C248.194 11.6191 249.451 10.9573 249.451 10.0955C247.83 10.511 247.774 9.43378 249.199 9.43378C249.199 9.60306 249.199 9.78774 249.199 9.95702C249.506 9.91085 249.842 9.86468 250.149 9.81851C250.065 9.64923 249.981 9.46456 249.897 9.29527C250.819 9.32605 250.596 8.00256 250.149 7.72555C250.4 7.67938 250.624 7.63321 250.875 7.58705C250.875 7.75633 250.875 7.941 250.875 8.11029C251.574 7.69477 250.652 7.23309 251.127 6.66368C250.875 6.80218 250.652 6.9253 250.4 7.0638C250.4 6.6329 250.4 6.18661 250.4 5.7557C249.451 5.84804 248.501 5.92498 247.551 6.01732C247.802 6.67907 248.026 7.32542 248.277 7.98717C246.909 7.75633 246.043 7.31003 244.227 7.58705C244.478 6.98686 246.685 7.17153 246.378 6.27894C245.791 6.32511 245.26 6.46362 245.177 6.80218C244.143 6.07888 241.35 6.21738 241.126 7.20231C231.74 8.46424 222.522 13.2042 214.254 15.7281C214.338 15.8204 214.421 15.8973 214.505 15.9897C212.969 16.3436 211.544 16.7745 210.092 17.2362C208.779 17.7133 208.332 18.8367 206.656 18.3443C206.851 19.0676 207.186 19.6216 205.343 19.5293C202.549 20.468 199.281 22.1916 196.907 23.5305C195.985 24.1769 194.979 23.9152 193.806 24.7155C192.633 25.5004 191.823 26.3622 190.007 26.5468C190.705 27.0239 190.705 27.5779 189.281 27.6549C189.197 27.4856 189.113 27.3009 189.029 27.1316C188.024 27.1778 186.739 27.7472 187.605 28.3166C186.264 28.2089 186.152 29.0861 184.979 28.9784C187.968 30.2711 180.984 29.4555 181.878 30.9482C182.13 30.9482 182.353 30.9482 182.605 30.9482C182.521 31.3176 181.431 31.5638 181.403 32.1332C180.956 32.0101 180.314 31.887 180.454 31.61C180.845 31.61 181.236 31.61 181.655 31.61C181.655 31.4407 181.655 31.256 181.655 31.0867C180.398 31.3945 178.805 32.1486 179.029 33.1797C177.269 31.3176 175.705 34.9033 173.554 34.7494C175.481 35.5035 169.252 36.0883 173.554 36.4576C172.409 36.3499 171.487 36.6269 171.179 37.2425C171.012 37.1963 170.872 37.1502 170.705 37.104C170.872 36.9655 171.012 36.8424 171.179 36.7039C169.783 36.7039 169.392 37.7658 169.978 38.4121C167.855 39.1046 164.028 37.2271 167.604 37.6272C167.688 37.4887 167.772 37.3656 167.855 37.2271C167.157 37.3195 166.766 36.9039 166.431 36.5654C167.576 36.5962 170.76 36.3038 168.582 35.7805C168.889 35.7343 169.224 35.6882 169.531 35.642C169.14 35.3958 168.665 35.0572 169.28 34.8571C168.163 34.6725 169.615 33.272 170.006 34.3339C170.174 34.2416 170.314 34.1646 170.481 34.0723C168.526 33.5029 169.364 32.4718 171.431 32.8873C171.487 32.3333 169.755 32.1794 170.481 31.4407C171.235 31.5638 171.626 31.9178 171.682 32.3641C173.638 31.6561 172.073 31.1945 171.207 30.3942C171.375 30.3019 171.515 30.2249 171.682 30.1326C171.682 30.2711 171.682 30.3942 171.682 30.5327C172.52 30.5019 172.409 29.9017 172.409 29.4862C172.967 29.6247 173.526 29.7478 174.085 29.8864C174.476 29.4093 174.085 28.5013 172.883 28.8399C172.967 28.9784 173.051 29.1015 173.135 29.24C172.883 29.24 172.66 29.24 172.409 29.24C172.548 28.886 171.99 28.6552 171.459 28.4551C171.934 28.1473 172.409 27.8396 172.883 27.5318C172.8 27.9473 172.995 28.332 173.61 28.5783C174.476 28.1012 175.342 27.6241 176.236 27.1316C176.068 27.0393 175.928 26.9624 175.761 26.87C175.509 27.0855 175.286 27.3009 175.034 27.5318C172.464 26.316 180.817 25.4234 175.984 25.3003C176.319 24.8848 176.934 23.8229 175.984 23.5921C177.241 23.4997 176.487 24.5 177.046 24.7001C179.476 24.7001 180.565 21.8685 179.532 21.099C179.28 21.1451 179.057 21.1913 178.805 21.2375C178.805 21.0682 178.805 20.8835 178.805 20.7142C179.308 20.7758 180.146 20.7912 180.007 21.1144C180.789 21.0836 180.984 20.4988 181.208 20.0679C180.733 20.1141 180.258 20.1602 179.783 20.2064C180.09 20.0679 180.426 19.9448 180.733 19.8063C180.482 19.8063 180.258 19.8063 180.007 19.8063C180.063 19.4061 180.956 19.2676 181.683 19.1445C179.616 18.2365 182.772 17.621 183.219 17.0516C182.772 16.2205 185.286 15.8204 185.23 15.2202C185.789 15.2202 186.348 15.2202 186.906 15.2202C186.906 15.0509 186.906 14.8663 186.906 14.697C186.739 14.697 186.599 14.697 186.431 14.697C186.515 13.712 187.353 12.9426 189.057 12.604C188.666 12.2039 188.275 11.8191 187.856 11.419C188.275 11.219 188.694 11.4806 189.057 11.6806C188.582 10.6649 190.677 10.1725 190.007 9.18755C190.398 9.18755 190.789 9.18755 191.208 9.18755C191.152 8.75664 191.18 8.29496 191.934 8.14107C191.767 8.00256 191.627 7.87944 191.46 7.74094C191.851 7.6486 192.242 7.57166 192.661 7.47932C191.823 6.94069 193.471 5.64797 191.041 5.70953ZM91.2324 5.77109C91.3442 5.77109 91.4838 5.77109 91.5956 5.77109C91.5117 5.94037 91.428 6.12505 91.3441 6.29433C90.8413 6.17122 90.3944 5.78648 91.2324 5.77109ZM137.994 5.97115C137.435 6.18661 137.77 6.54056 137.994 6.81757C137.798 6.40206 138.776 6.14044 139.419 5.89421C138.916 5.81726 138.469 5.7557 137.994 5.97115ZM149.168 5.77109C149.559 5.98654 149.95 6.20199 150.369 6.43284C149.503 6.17122 148.804 6.67907 148.218 7.09458C148.553 6.64829 148.86 6.20199 149.168 5.77109ZM151.793 5.89421C151.877 5.98654 151.961 6.06349 152.045 6.15583C151.877 6.15583 151.737 6.15583 151.57 6.15583C151.626 6.07888 151.71 5.98654 151.793 5.89421ZM136.094 6.15583C136.262 6.24816 136.402 6.32511 136.569 6.41745C136.402 6.3405 136.262 6.24816 136.094 6.15583ZM87.7965 6.49439C87.7965 6.55595 87.7965 6.6329 87.7965 6.69446C87.9641 6.69446 88.1038 6.69446 88.2714 6.69446C88.2714 6.55595 88.2714 6.43284 88.2714 6.29433C88.1038 6.29433 87.9641 6.29433 87.7965 6.29433C87.7965 6.35589 87.7965 6.41745 87.7965 6.49439ZM84.9473 6.55595C85.0311 6.69446 85.1149 6.81757 85.1987 6.95608C84.8355 7.00225 84.5841 6.87913 84.4724 6.69446C84.6121 6.64829 84.7797 6.60212 84.9473 6.55595ZM147.045 6.67907C147.212 6.72524 147.352 6.7714 147.519 6.81757C147.352 6.7714 147.184 6.72524 147.045 6.67907ZM149.419 6.67907C149.587 6.72524 149.726 6.7714 149.894 6.81757C149.726 6.7714 149.559 6.72524 149.419 6.67907ZM137.044 6.94069C137.044 6.98686 137.044 7.03302 137.044 7.07919C137.296 7.03302 137.519 6.98686 137.77 6.94069C137.519 6.89452 137.296 6.84835 137.044 6.80218C137.044 6.86374 137.044 6.90991 137.044 6.94069ZM150.844 6.81757C151.011 6.90991 151.151 6.98686 151.318 7.07919C151.067 7.12536 150.844 7.17153 150.592 7.2177C150.676 7.07919 150.76 6.94069 150.844 6.81757ZM135.033 7.27926C135.647 7.34081 135.647 7.5101 135.62 7.74094C135.368 7.74094 135.145 7.74094 134.893 7.74094C134.893 7.91022 134.893 8.0949 134.893 8.26418C134.027 8.37191 133.916 7.07919 135.033 7.27926ZM89.9195 8.00256C90.0871 8.04873 90.2268 8.0949 90.3944 8.14107C90.2547 8.07951 90.0871 8.03334 89.9195 8.00256ZM132.77 8.00256C132.854 8.00256 132.938 8.00256 133.022 8.00256C132.659 8.2334 133.133 8.46424 133.497 8.66431C133.022 8.57197 132.547 8.49502 132.072 8.40269C132.24 8.2334 132.463 7.98717 132.77 8.00256ZM86.1205 8.3873C86.2881 8.43347 86.4278 8.47963 86.5954 8.5258C86.4557 8.47963 86.2881 8.43347 86.1205 8.3873ZM92.5453 8.5258C92.5453 8.57197 92.5453 8.61814 92.5453 8.66431C92.8526 8.66431 93.1878 8.66431 93.4951 8.66431C93.4951 8.57197 93.4951 8.49502 93.4951 8.40269C93.1878 8.40269 92.8526 8.40269 92.5453 8.40269C92.5453 8.43346 92.5453 8.47963 92.5453 8.5258ZM147.743 8.5258C147.827 8.61814 147.91 8.69508 147.994 8.78742C147.91 8.69508 147.827 8.60275 147.743 8.5258ZM130.144 8.64892C130.536 8.69509 130.927 8.74125 131.346 8.78742C131.038 8.87976 130.703 8.95671 130.396 9.04904C130.312 8.91054 130.228 8.78742 130.144 8.64892ZM132.044 8.78742C132.351 8.83359 132.686 8.87976 132.994 8.92593C132.686 8.9721 132.351 9.01826 132.044 9.06443C132.044 8.95671 132.044 8.86437 132.044 8.78742ZM248.864 9.04904C248.948 9.14138 249.032 9.21833 249.115 9.31066C249.032 9.21833 248.948 9.12599 248.864 9.04904ZM182.716 9.17216C183.107 9.21833 183.498 9.26449 183.917 9.31066C183.219 9.44917 183.275 9.78774 183.666 10.0955C183.107 9.89546 182.493 9.81851 181.99 10.0955C182.549 9.86468 182.828 9.5415 182.716 9.17216ZM242.914 9.17216C243.529 9.80313 242.048 10.8496 240.54 10.8804C240.54 10.7419 240.54 10.6188 240.54 10.4803C240.791 10.4803 241.014 10.4803 241.266 10.4803C241.014 10.3879 240.791 10.311 240.54 10.2186C241.322 9.88007 242.132 9.52612 242.914 9.17216ZM78.271 9.43378C79.0532 9.46456 79.0253 9.95702 78.9973 10.3571C78.6062 10.3571 78.2152 10.3571 77.7962 10.3571C77.9638 10.0494 78.1034 9.74157 78.271 9.43378ZM93.9699 9.43378C94.1376 9.57228 94.2772 9.6954 94.4448 9.8339C94.1376 9.92624 93.8023 10.0032 93.4951 10.0955C93.6627 9.88007 93.8303 9.64923 93.9699 9.43378ZM78.5225 9.77235C78.6063 9.78774 78.6901 9.81851 78.7739 9.8339C78.6062 9.78774 78.4666 9.74157 78.299 9.6954C78.3548 9.72618 78.4387 9.74157 78.5225 9.77235ZM147.38 10.1571C147.408 10.2648 147.464 10.3725 147.491 10.4803C147.659 10.311 147.799 10.1263 147.966 9.95702C147.715 9.91085 147.491 9.86468 147.24 9.81851C147.324 9.94163 147.352 10.0494 147.38 10.1571ZM80.422 10.0955C80.5058 10.1417 80.5896 10.1879 80.6734 10.234C80.5058 10.1417 80.3661 10.0647 80.1985 9.97241C80.2544 10.0032 80.3382 10.0494 80.422 10.0955ZM145.62 9.95702C145.787 9.95702 145.927 9.95702 146.095 9.95702C146.011 10.0494 145.927 10.1263 145.843 10.2186C145.76 10.1417 145.676 10.0494 145.62 9.95702ZM302.749 10.3571C302.777 10.4495 302.832 10.5264 302.86 10.6188C303.056 10.4033 303.112 10.1571 302.609 10.0955C302.665 10.1879 302.721 10.2648 302.749 10.3571ZM73.4105 10.4803C73.4385 10.5264 73.4943 10.5726 73.5223 10.6188C73.4385 10.5264 73.3547 10.4495 73.2709 10.3571C73.3267 10.4033 73.3547 10.4495 73.4105 10.4803ZM144.894 10.3571C145.424 10.2956 145.76 10.4649 145.843 10.7573C145.536 10.8034 145.201 10.8496 144.894 10.8958C144.894 10.7111 144.894 10.5264 144.894 10.3571ZM181.766 10.3571C182.018 10.3571 182.241 10.3571 182.493 10.3571C182.409 10.5726 182.213 10.8188 181.766 10.7573C181.766 10.6188 181.766 10.4803 181.766 10.3571ZM76.8464 10.4803C77.0978 10.5726 77.3213 10.6495 77.5727 10.7419C77.3213 10.7419 77.0978 10.7419 76.8464 10.7419C76.8464 10.6649 76.8464 10.5726 76.8464 10.4803ZM82.4332 10.7419C82.4611 10.8342 82.517 10.9112 82.5449 11.0035C82.7125 10.865 82.8522 10.7419 83.0198 10.6034C82.7684 10.5572 82.5449 10.511 82.2935 10.4649C82.3494 10.5726 82.4053 10.6649 82.4332 10.7419ZM89.4446 10.4803C89.6122 10.4803 89.7519 10.4803 89.9195 10.4803C89.9195 10.6188 89.9195 10.7419 89.9195 10.8804C89.7519 10.8804 89.6122 10.8804 89.4446 10.8804C89.4446 10.7419 89.4446 10.6188 89.4446 10.4803ZM86.3719 10.6188C86.6233 10.6188 86.8468 10.6188 87.0982 10.6188C86.9306 10.7881 86.7909 10.9727 86.6233 11.142C86.5116 10.9727 86.4557 10.7881 86.3719 10.6188ZM247.188 10.6188C247.355 10.6649 247.495 10.7111 247.663 10.7573C247.523 10.7111 247.355 10.6649 247.188 10.6188ZM80.422 10.9419C80.422 11.0035 80.422 11.0805 80.422 11.142C80.1706 11.0958 79.9471 11.0497 79.6957 11.0035C79.6119 11.1728 79.5281 11.3575 79.4443 11.5267C79.9191 11.5267 80.394 11.5267 80.8689 11.5267C80.8689 11.219 80.9527 10.8034 80.394 10.7419C80.422 10.8188 80.422 10.8804 80.422 10.9419ZM125.396 10.7419C125.312 10.8342 125.228 10.9112 125.144 11.0035C125.228 10.9266 125.312 10.8342 125.396 10.7419ZM301.799 10.9419C301.771 11.0035 301.715 11.0805 301.687 11.142C301.855 11.142 301.994 11.142 302.162 11.142C302.078 11.0035 301.994 10.8804 301.911 10.7419C301.883 10.8188 301.827 10.8804 301.799 10.9419ZM186.767 10.8804C187.13 11.1112 186.683 11.2805 186.292 11.4036C186.459 11.2343 186.599 11.0497 186.767 10.8804ZM91.4838 11.4036C91.4559 11.5421 91.4 11.6652 91.3721 11.8038C91.5397 11.8038 91.6794 11.8038 91.847 11.8038C91.7632 11.5421 91.6794 11.2805 91.5956 11.0189C91.5676 11.142 91.5118 11.2805 91.4838 11.4036ZM241.014 11.0035C241.182 11.0958 241.322 11.1728 241.489 11.2651C241.322 11.1882 241.182 11.0958 241.014 11.0035ZM298.363 11.0035C298.531 11.0497 298.67 11.0958 298.838 11.142C298.67 11.0958 298.503 11.0497 298.363 11.0035ZM72.796 11.142C73.2709 11.2036 73.215 11.4498 73.0474 11.6652C72.9636 11.496 72.8798 11.3113 72.796 11.142ZM86.3719 11.4036C86.4557 11.4036 86.5395 11.4036 86.6233 11.4036C85.9529 11.7884 86.6512 12.4501 85.4221 12.5886C85.5897 12.7579 85.7294 12.9426 85.897 13.1119C85.7294 13.158 85.5897 13.2042 85.4221 13.2504C85.2545 13.0811 85.1149 12.8964 84.9473 12.7271C85.5898 12.6502 85.2545 12.1423 85.1987 11.8038C85.4501 11.8499 85.6736 11.8961 85.925 11.9423C85.9808 11.7422 86.0646 11.4036 86.3719 11.4036ZM125.871 11.4036C126.122 11.4036 126.345 11.4036 126.597 11.4036C126.597 11.5729 126.597 11.7576 126.597 11.9269C126.038 11.8807 125.759 11.696 125.871 11.4036ZM81.26 11.8038C81.2879 11.8499 81.3438 11.8961 81.3717 11.9423C81.2879 11.8499 81.2041 11.773 81.1203 11.6806C81.1762 11.7114 81.2041 11.7576 81.26 11.8038ZM78.3828 11.8653C77.9079 11.973 78.0476 12.6194 78.0196 12.9734C78.271 12.9734 78.4945 12.9734 78.7459 12.9734C78.6342 12.4963 79.7795 12.3732 79.4722 11.7884C79.1091 11.7884 78.7459 11.7884 78.3828 11.8653ZM71.1479 12.0654C71.3993 12.1577 71.6227 12.2347 71.8742 12.327C71.4831 12.4963 71.092 12.681 70.673 12.8502C70.8127 12.5886 70.9803 12.327 71.1479 12.0654ZM80.422 12.4501C80.3382 12.5424 80.2544 12.6194 80.1706 12.7117C80.4778 12.5732 80.813 12.4501 81.1203 12.3116C80.9527 12.2654 80.813 12.2193 80.6454 12.1731C80.5616 12.2808 80.5058 12.3578 80.422 12.4501ZM69.9467 12.327C70.1143 12.4193 70.254 12.4963 70.4216 12.5886C70.254 12.4963 70.1143 12.4039 69.9467 12.327ZM72.5725 12.327C72.7401 12.5886 72.8798 12.8502 73.0474 13.1119C72.796 13.158 72.5725 13.2042 72.3211 13.2504C72.1814 12.8964 72.0138 12.5117 72.5725 12.327ZM68.0472 12.7117C68.131 12.8041 68.2148 12.881 68.2986 12.9734C68.2148 12.8964 68.131 12.8041 68.0472 12.7117ZM176.766 12.7117C176.934 12.881 177.074 13.0657 177.241 13.235C177.074 13.235 176.934 13.235 176.766 13.235C176.766 13.0657 176.766 12.8964 176.766 12.7117ZM140.368 12.8502C140.536 12.8964 140.676 12.9426 140.843 12.9887C140.676 12.9272 140.536 12.8964 140.368 12.8502ZM88.7463 13.3119C88.7184 13.6967 89.5843 13.789 90.1709 13.8967C89.8357 13.435 88.7184 13.5735 88.7463 12.9734C88.7463 13.0811 88.7463 13.1888 88.7463 13.3119ZM139.893 13.235C140.145 13.2811 140.368 13.3273 140.62 13.3735C140.312 13.4658 139.977 13.5428 139.67 13.6351C139.726 13.4966 139.81 13.3735 139.893 13.235ZM185.091 13.6351C185.342 13.6351 185.566 13.6351 185.817 13.6351C185.733 13.8506 185.538 14.0968 185.091 14.0352C185.091 13.8967 185.091 13.7582 185.091 13.6351ZM84.6959 13.8967C86.6792 14.5431 84.1372 14.62 83.8578 15.2048C82.0142 16.6822 83.6902 14.42 82.7963 14.1583C83.5506 14.0814 84.1931 14.3584 84.6959 14.6816C84.6959 14.42 84.6959 14.1583 84.6959 13.8967ZM85.897 13.8967C86.0646 13.9429 86.2043 13.9891 86.3719 14.0352C86.2043 13.9891 86.0367 13.9429 85.897 13.8967ZM117.518 14.0198C117.826 14.1891 118.161 14.3738 118.468 14.5431C118.161 14.3738 117.854 14.2045 117.518 14.0198ZM121.82 14.0198C121.988 14.0198 122.127 14.0198 122.295 14.0198C122.211 14.1583 122.127 14.2815 122.044 14.42C121.96 14.2815 121.904 14.1583 121.82 14.0198ZM185.091 14.1583C185.342 14.2968 185.566 14.42 185.817 14.5585C185.566 14.42 185.342 14.2815 185.091 14.1583ZM140.843 14.2815C141.011 14.3276 141.15 14.3738 141.318 14.42C141.178 14.3738 141.011 14.3276 140.843 14.2815ZM89.9195 14.5431C89.9195 14.5892 89.9195 14.6354 89.9195 14.6816C90.2268 14.6816 90.562 14.6816 90.8693 14.6816C90.562 14.5892 90.2268 14.5123 89.9195 14.42C89.9195 14.4661 89.9195 14.5123 89.9195 14.5431ZM119.921 14.42C120.172 14.5123 120.396 14.5892 120.647 14.6816C120.396 14.5892 120.144 14.5123 119.921 14.42ZM172.967 14.42C173.135 14.5123 173.275 14.5892 173.442 14.6816C173.191 14.7739 172.967 14.8509 172.716 14.9432C172.8 14.7739 172.883 14.5892 172.967 14.42ZM73.8854 14.8047C73.8575 14.8509 73.8016 14.897 73.7737 14.9432C74.1647 14.9432 74.5558 14.9432 74.9748 14.9432C74.6676 14.8509 74.3324 14.7739 74.0251 14.6816C73.9413 14.7277 73.9133 14.7739 73.8854 14.8047ZM64.7231 15.2048C65.0303 15.251 65.3655 15.2972 65.6728 15.3433C65.2817 15.4357 64.8348 15.4664 64.7231 15.2048ZM90.0592 15.3433C90.0871 15.3895 90.143 15.4357 90.1709 15.4818C90.0871 15.3895 90.0033 15.3125 89.9195 15.2202C89.9754 15.251 90.0033 15.2972 90.0592 15.3433ZM68.5221 15.3433C68.6059 15.4818 68.6897 15.6049 68.7735 15.7435C68.6059 15.6973 68.4662 15.6511 68.2986 15.6049C68.3545 15.5126 68.4383 15.4203 68.5221 15.3433ZM87.4334 15.7281C87.2937 15.9897 87.4893 16.0512 87.7965 16.1282C87.9362 15.8666 88.1038 15.5434 87.5451 15.4664C87.5172 15.5588 87.4613 15.6357 87.4334 15.7281ZM64.2482 15.6665C64.8069 15.7281 64.7231 16.1128 64.7231 16.3898C65.2538 16.2205 65.9242 15.9127 66.3991 16.1282C66.1477 16.3898 65.9242 16.6514 65.6728 16.9131C65.9801 16.8207 66.3153 16.7438 66.6226 16.6514C66.6226 16.8669 66.6226 17.0823 66.6226 17.3132C66.1477 17.267 65.6728 17.2208 65.1979 17.1747C65.1979 17.3132 65.1979 17.4363 65.1979 17.5748C64.7231 17.5748 64.2482 17.5748 63.7733 17.5748C65.3097 16.913 64.9465 16.5283 63.047 16.6514C63.2984 16.3283 63.6057 15.5742 64.2482 15.6665ZM65.1979 15.6049C65.4493 15.6049 65.6728 15.6049 65.9242 15.6049C65.9242 15.6973 65.9242 15.7742 65.9242 15.8666C65.6728 15.8666 65.4493 15.8666 65.1979 15.8666C65.1979 15.7742 65.1979 15.6819 65.1979 15.6049ZM169.168 15.6049C169.252 15.8204 169.336 16.0359 169.42 16.2667C169.308 16.0359 169.252 15.8204 169.168 15.6049ZM170.593 15.7281C170.844 15.7742 171.068 15.8204 171.319 15.8666C171.068 15.8204 170.816 15.7742 170.593 15.7281ZM81.7349 15.9897C81.7628 16.0359 81.8187 16.082 81.8466 16.1282C81.7628 16.0359 81.679 15.9589 81.5952 15.8666C81.6511 15.8973 81.679 15.9435 81.7349 15.9897ZM141.681 15.9281C141.793 15.9435 141.933 15.9743 142.044 15.9897C141.793 15.9435 141.569 15.8973 141.318 15.8512C141.43 15.882 141.569 15.8973 141.681 15.9281ZM167.967 15.8666C168.051 15.9589 168.135 16.0359 168.218 16.1282C168.135 16.0359 168.051 15.9435 167.967 15.8666ZM79.5839 16.4514C78.8856 16.8361 78.299 18.6521 78.0476 19.2061C76.7626 19.3908 75.757 19.4369 76.3715 20.4526C76.2039 20.4526 76.0643 20.4526 75.8967 20.4526C75.8967 20.6681 75.8967 20.8835 75.8967 21.1144C74.3882 20.9759 74.1368 22.0377 73.9971 22.6841C74.2485 22.6379 74.472 22.5918 74.7234 22.5456C74.8072 23.038 71.9859 24.4231 72.8239 25.0387C71.8462 24.9002 71.7066 25.485 71.6227 25.962C72.0976 25.962 72.5725 25.962 73.0474 25.962C73.0474 26.0544 73.0474 26.1313 73.0474 26.2237C72.1535 25.9928 71.6228 26.8546 70.4216 26.4853C70.3099 27.1316 69.8629 27.8549 69.5836 28.4551C68.969 28.7321 70.7568 30.2711 68.7456 29.5016C68.2986 29.8556 68.2707 30.2711 68.4941 30.6866C67.3489 30.5943 66.3153 30.8867 66.8181 31.61C66.4829 32.4564 64.4158 32.8873 65.3935 34.1031C65.0862 34.1031 64.751 34.1031 64.4437 34.1031C64.332 34.6725 64.5555 35.2111 65.3935 35.5497C64.8627 35.7343 64.332 35.5497 63.9688 35.2881C62.9073 36.1806 61.2872 37.2887 61.5945 38.1659C62.1531 37.9504 62.7118 37.735 63.2705 37.5041C62.7118 37.9043 62.1531 38.289 61.5945 38.6891C62.0414 38.92 62.5721 38.92 63.0191 38.6891C63.1029 38.8276 63.1867 38.9507 63.2705 39.0892C60.924 38.5814 59.3597 40.028 62.0693 40.3973C61.9017 40.5359 61.7621 40.659 61.5945 40.7975C60.0581 39.7818 60.1139 41.2745 60.1698 41.9825C57.8234 41.9209 59.6949 43.4445 59.4435 43.9523C59.7508 43.9985 60.086 44.0446 60.3933 44.0908C60.0022 44.0908 59.6111 44.0908 59.1921 44.0908C59.1921 44.2293 59.1921 44.3524 59.1921 44.4909C58.9407 44.4909 58.7173 44.4909 58.4658 44.4909C59.1363 45.5682 60.9799 48.4922 63.9409 47.3688C63.7733 47.7073 64.8069 47.6919 65.3655 47.7689C65.2259 47.4303 65.7287 47.2764 66.3153 47.2457C66.1477 47.1071 66.008 46.984 65.8404 46.8455C66.3991 46.7532 66.9578 46.6762 67.5165 46.5839C67.4327 46.4454 67.3489 46.3223 67.2651 46.1838C67.9913 46.1838 68.6897 46.1838 69.416 46.1838C69.416 46.0914 69.416 46.0145 69.416 45.9222C69.7232 46.0145 70.0584 46.0914 70.3657 46.1838C70.3657 45.876 70.3657 45.5682 70.3657 45.2604C70.7568 45.2604 71.1479 45.2604 71.5669 45.2604C71.5669 45.1219 71.5669 44.9988 71.5669 44.8603C72.0418 44.9526 72.5166 45.0296 72.9915 45.1219C73.5502 44.2447 76.4553 43.7061 75.8408 42.6288C76.4833 42.6288 77.0978 42.6288 77.7403 42.6288C77.6565 42.4903 77.5727 42.3672 77.4889 42.2287C77.7403 42.2287 77.9638 42.2287 78.2152 42.2287C78.0476 41.8747 75.9525 41.2438 77.9638 41.0437C77.9638 41.136 77.9638 41.213 77.9638 41.3053C81.0086 40.9668 78.6621 40.6282 77.2375 40.2588C78.1034 40.2281 78.9135 40.0742 79.137 39.5971C79.3884 39.7356 79.6119 39.8587 79.8633 39.9972C79.3046 39.1046 81.9025 38.8738 82.7125 39.3355C82.5449 39.197 82.4053 39.0739 82.2377 38.9353C82.7963 38.7661 83.355 38.5814 83.9137 38.4121C83.5226 38.2428 83.1316 38.0582 82.7125 37.8889C83.4109 37.6426 83.355 37.2271 82.964 36.8424C84.221 36.9039 83.7461 38.0889 84.8635 38.1505C84.1092 37.4272 85.1149 36.9655 85.1149 36.3191C86.0926 37.9043 86.9865 36.1652 88.3273 35.8575C89.305 35.7805 88.2714 34.7033 89.3888 34.7494C89.305 34.8879 89.2212 35.011 89.1374 35.1495C89.9195 35.2419 90.7296 34.7956 90.562 34.3647C89.6122 34.4262 88.7463 34.257 88.1876 33.8414C88.6346 33.7183 89.0815 33.7337 89.3888 33.9799C89.2212 33.7183 89.0815 33.4567 88.9139 33.1951C89.2212 33.1951 89.5564 33.1951 89.8637 33.1951C89.6122 32.795 89.3888 32.4102 89.1374 32.0101C90.1989 31.9178 90.4782 33.0566 91.7632 32.9335C91.6794 32.795 91.5956 32.6718 91.5118 32.5333C92.9085 32.6872 93.0202 31.81 92.9364 31.2252C93.2437 31.2714 93.5789 31.3176 93.8861 31.3637C93.6347 31.7023 93.7465 32.0101 94.361 32.1486C94.7521 31.887 94.8918 31.5638 94.8359 31.2252C94.5286 31.2252 94.1934 31.2252 93.8861 31.2252C94.1934 31.1329 94.5286 31.056 94.8359 30.9636C93.6627 29.5632 97.9366 31.0406 97.2103 28.8707C96.7354 29.6247 94.1376 30.7328 93.4113 29.6555C93.3275 30.0864 93.2437 30.5327 93.1599 30.9636C92.6012 30.7789 92.0984 30.9636 91.7352 31.2252C91.5676 31.1329 91.428 31.056 91.2604 30.9636C91.8749 30.7482 91.7073 30.1172 91.7352 29.6555C90.7017 29.7171 90.3106 30.8867 89.1094 30.8405C89.6402 31.3176 88.6066 31.887 87.6848 31.7639C88.2993 32.3333 86.5954 32.5026 87.2099 33.072C82.6008 32.8411 84.3048 36.6423 81.26 36.8732C81.5114 36.827 81.7349 36.7808 81.9863 36.7347C78.8297 36.55 74.3603 41.2592 71.0361 42.1056C71.2875 42.4134 71.511 42.7212 71.7624 43.0289C71.2875 42.8904 70.8127 42.7673 70.3378 42.6288C70.254 42.7673 70.1702 42.8904 70.0864 43.0289C67.8237 43.1521 64.6951 45.0142 66.2874 46.43C65.0862 46.5377 65.0583 45.7683 65.0862 45.245C64.6951 45.245 64.304 45.245 63.885 45.245C63.3543 46.153 65.3376 46.1684 65.0862 46.9533C64.3878 46.9379 63.9968 46.6762 64.1364 46.2915C63.885 46.3377 63.6616 46.3838 63.4102 46.43C60.2816 44.8449 65.3097 43.7215 63.4102 42.3672C63.4102 42.5057 63.4102 42.6288 63.4102 42.7673C63.0191 42.7673 62.628 42.7673 62.209 42.7673C63.2705 42.2287 67.5723 34.7494 66.7343 37.9196C67.7958 37.6734 67.9355 36.8116 68.1589 36.2114C67.5444 36.2884 67.2651 36.0114 67.2092 35.6882C68.7456 35.919 68.8852 35.011 70.0584 34.9033C69.5836 34.7648 69.1087 34.6417 68.6338 34.5032C68.8852 34.5032 69.1087 34.5032 69.3601 34.5032C68.3265 33.5337 70.6451 32.4102 71.0361 31.4869C70.5613 31.4407 70.0864 31.3945 69.6115 31.3484C69.7232 31.8408 70.0305 32.4872 69.1366 32.6565C68.8852 31.9947 68.6618 31.3484 68.4103 30.6866C69.3601 30.8251 69.7512 30.2403 70.0864 29.7632C70.1702 30.1018 70.4775 30.6097 69.835 30.6866C70.2819 31.1637 71.9021 30.4404 72.2094 31.0867C72.6004 30.0095 75.6732 30.4558 73.634 29.3785C74.4162 29.3323 75.2542 29.24 75.5335 28.8553C75.1145 28.5013 73.9413 28.7937 73.5223 28.5936C73.2988 28.1781 74.2206 28.0242 74.8352 28.1935C75.0028 27.8703 73.9692 27.7934 73.4105 27.6703C73.634 28.1627 71.4552 28.0858 72.6842 27.6087C73.634 27.3933 75.1424 27.4856 76.0084 27.2855C75.8408 27.424 75.7011 27.5472 75.5335 27.6857C75.8408 27.7318 76.176 27.778 76.4833 27.8242C76.0922 27.1624 75.7011 26.5161 75.2821 25.8543C75.729 25.7928 76.3715 25.7466 76.2319 25.4542C76.4833 25.5927 76.7067 25.7158 76.9581 25.8543C77.2934 25.4234 77.4889 24.931 76.7067 24.6693C78.6063 25.1618 80.422 24.4539 78.3828 23.6228C79.0253 23.5305 79.6398 23.4536 80.2823 23.3612C79.7515 22.5918 78.9973 21.6992 77.433 21.9146C77.1258 21.3606 79.1929 21.4683 80.0588 21.3914C79.975 21.1759 79.8912 20.9605 79.8074 20.7296C80.6734 20.9297 80.9527 19.6524 81.5952 20.468C82.098 21.3144 82.4332 19.8986 83.1316 20.0679C82.7405 20.3141 82.2656 20.6527 82.8802 20.8527C83.355 20.4834 83.6902 20.0679 83.355 19.6678C83.6623 19.6216 83.9975 19.5754 84.3048 19.5293C81.6511 18.8829 80.9806 19.3292 80.2544 17.6979C80.9806 17.8672 81.679 18.0519 82.4053 18.2212C82.1539 17.9595 81.9304 17.6979 81.679 17.4363C82.964 17.821 84.1372 17.3901 85.0031 16.7745C83.9696 16.5437 82.936 16.5591 82.1539 16.9131C81.9863 16.8207 81.8466 16.7438 81.679 16.6514C81.7628 16.7438 81.8466 16.8207 81.9304 16.9131C80.9806 17.0362 80.1985 16.4206 79.556 15.9897C79.6677 16.1436 79.6119 16.2975 79.5839 16.4514ZM70.673 16.2513C70.5892 16.2975 70.5054 16.3436 70.4216 16.3898C70.7289 16.4821 71.0641 16.5591 71.3713 16.6514C71.2037 16.4821 71.0641 16.2975 70.8965 16.1282C70.8127 16.159 70.7289 16.2051 70.673 16.2513ZM185.23 16.2513C185.258 16.2975 185.314 16.3436 185.342 16.3898C185.426 16.2975 185.51 16.2205 185.593 16.1282C185.426 16.1282 185.286 16.1282 185.119 16.1282C185.146 16.159 185.174 16.2051 185.23 16.2513ZM222.941 16.2513C223.109 16.3436 223.248 16.4206 223.416 16.5129C223.248 16.436 223.081 16.3436 222.941 16.2513ZM118.496 16.3898C118.747 16.436 118.971 16.4821 119.222 16.5283C118.971 16.5745 118.747 16.6207 118.496 16.6668C118.496 16.5591 118.496 16.4668 118.496 16.3898ZM168.917 16.5129C169.308 16.5129 169.699 16.5129 170.118 16.5129C170.118 16.6053 170.118 16.6822 170.118 16.7745C169.727 16.7745 169.336 16.7745 168.917 16.7745C168.917 16.6976 168.917 16.6053 168.917 16.5129ZM61.1475 16.6514C61.2313 16.7438 61.3151 16.8207 61.3989 16.9131C61.2313 16.9592 61.0916 17.0054 60.924 17.0516C60.9799 16.9131 61.0637 16.7745 61.1475 16.6514ZM68.8852 17.1747C68.9132 17.267 68.969 17.344 68.997 17.4363C68.9132 17.267 68.8294 17.0823 68.7456 16.9131C68.8014 16.99 68.8294 17.0823 68.8852 17.1747ZM137.743 17.0362C137.826 17.1747 137.91 17.2978 137.994 17.4363C137.826 17.4363 137.687 17.4363 137.519 17.4363C137.603 17.2978 137.687 17.1747 137.743 17.0362ZM140.257 17.4363C140.285 17.5286 140.34 17.6056 140.368 17.6979C140.285 17.5286 140.201 17.344 140.117 17.1747C140.173 17.2516 140.201 17.344 140.257 17.4363ZM210.566 17.4363C210.734 17.4825 210.874 17.5286 211.041 17.5748C210.874 17.5132 210.706 17.4825 210.566 17.4363ZM66.3712 17.5594C66.5388 17.6517 66.6784 17.7287 66.846 17.821C66.7064 17.7441 66.5388 17.6517 66.3712 17.5594ZM172.018 17.6979C172.269 17.7441 172.492 17.7902 172.744 17.8364C172.492 17.7902 172.241 17.7441 172.018 17.6979ZM66.3712 18.0826C66.5388 18.1288 66.6784 18.175 66.846 18.2212C66.7064 18.175 66.5388 18.1288 66.3712 18.0826ZM79.4722 18.2212C79.6398 18.4366 79.7795 18.6521 79.9471 18.8829C79.5839 18.6828 79.1091 18.452 79.4722 18.2212ZM265.876 18.4212C265.736 18.6367 265.987 18.6828 266.239 18.7444C266.434 18.5289 266.49 18.2827 265.987 18.2212C265.96 18.2827 265.904 18.3443 265.876 18.4212ZM62.3487 18.3443C62.5163 18.4366 62.6559 18.5136 62.8235 18.6059C62.5721 18.6059 62.3487 18.6059 62.0973 18.6059C62.1811 18.5289 62.2649 18.4366 62.3487 18.3443ZM83.0198 18.4212C83.1036 18.4366 83.1874 18.4674 83.2712 18.4828C83.1036 18.4366 82.964 18.3904 82.7963 18.3443C82.8801 18.375 82.964 18.3904 83.0198 18.4212ZM113.496 18.7444C113.803 18.7906 114.138 18.8367 114.446 18.8829C114.054 18.9752 113.608 19.006 113.496 18.7444ZM64.4716 18.8829C64.5555 18.9752 64.6393 19.0522 64.7231 19.1445C64.6393 19.0522 64.5555 18.9598 64.4716 18.8829ZM56.3987 19.1445C56.6501 19.283 56.8736 19.4061 57.125 19.5446C56.8736 19.4061 56.6222 19.2676 56.3987 19.1445ZM110.144 19.1445C110.87 19.2676 112.043 19.3446 111.82 19.8063C111.093 19.6678 109.948 19.5908 110.144 19.1445ZM163.107 19.2676C163.609 19.4215 163.33 20.0371 162.743 19.9294C162.743 19.7909 162.743 19.6678 162.743 19.5293C162.324 20.0217 160.369 20.1294 160.369 19.5293C161.291 19.8678 162.324 19.1445 163.107 19.2676ZM55.1976 19.4061C55.449 19.5446 55.6724 19.6678 55.9238 19.8063C55.6724 19.6678 55.449 19.5293 55.1976 19.4061ZM113.244 19.4061C113.412 19.4523 113.552 19.4985 113.719 19.5446C113.58 19.4831 113.412 19.4369 113.244 19.4061ZM56.8736 19.7909C58.2703 20.0063 58.6334 21.2221 56.8736 21.099C56.8736 20.6681 56.8736 20.2372 56.8736 19.7909ZM54.2478 20.0525C54.5551 20.0525 54.8903 20.0525 55.1976 20.0525C55.1976 20.1448 55.1976 20.2218 55.1976 20.3141C54.8903 20.2372 54.5551 20.1448 54.2478 20.0525ZM59.4715 20.0525C59.7787 20.0987 60.1139 20.1448 60.4212 20.191C60.1978 20.4065 59.9184 20.6373 59.4715 20.5911C59.4715 20.4065 59.4715 20.2372 59.4715 20.0525ZM79.6957 20.0525C79.8633 20.1448 80.003 20.2218 80.1706 20.3141C79.8633 20.3603 79.5281 20.4065 79.2208 20.4526C79.3884 20.3141 79.556 20.191 79.6957 20.0525ZM108.021 20.0525C108.105 20.1448 108.188 20.2218 108.272 20.3141C108.16 20.2218 108.105 20.1448 108.021 20.0525ZM84.221 20.3141C84.221 20.3603 84.221 20.4065 84.221 20.4526C84.4724 20.4526 84.6959 20.4526 84.9473 20.4526C84.9473 20.3603 84.9473 20.2833 84.9473 20.191C84.6959 20.191 84.4724 20.191 84.221 20.191C84.221 20.2372 84.221 20.268 84.221 20.3141ZM135.033 20.3141C135.145 20.3141 135.284 20.3141 135.396 20.3141C135.62 20.7604 134.474 20.8527 133.72 20.9759C134.083 20.7296 134.586 20.3141 135.033 20.3141ZM162.017 20.3141C162.185 20.4065 162.324 20.4834 162.492 20.5757C162.352 20.4988 162.185 20.4065 162.017 20.3141ZM53.2981 20.5757C53.3819 20.7142 53.4657 20.8374 53.5495 20.9759C53.2981 20.9759 53.0746 20.9759 52.8232 20.9759C52.9628 20.8374 53.1305 20.7142 53.2981 20.5757ZM108.244 20.5757C108.328 20.6681 108.412 20.745 108.496 20.8374C108.412 20.7604 108.328 20.6681 108.244 20.5757ZM158.693 20.7142C159.252 20.8528 159.81 20.9759 160.369 21.1144C159.671 21.4222 158.665 22.0839 157.995 21.6376C158.078 21.9454 158.162 22.2532 158.246 22.561C157.464 22.561 156.654 22.561 155.872 22.561C155.955 22.7764 156.039 22.9919 156.123 23.2227C155.564 23.2227 155.006 23.2227 154.447 23.2227C155.257 22.3455 158.106 22.4686 158.023 21.2529C158.414 21.3452 158.805 21.4222 159.224 21.5145C159 21.2375 158.861 20.9759 158.693 20.7142ZM58.9966 20.8374C59.0804 20.9297 59.1642 21.0066 59.248 21.099C59.0804 21.099 58.9407 21.099 58.7731 21.099C58.8569 21.022 58.9128 20.9297 58.9966 20.8374ZM77.0978 21.299C77.1816 21.3144 77.2654 21.3452 77.3492 21.3606C76.3715 21.6222 76.5391 22.4686 75.1983 22.5456C74.8352 22.1301 76.4553 21.2529 77.0978 21.299ZM56.1473 21.3606C56.6781 21.4837 56.9295 21.7299 56.6222 22.0223C56.4546 21.8069 56.3149 21.5914 56.1473 21.3606ZM81.1203 21.5607C80.9527 21.6222 80.813 21.6992 80.6454 21.7607C80.9527 21.7607 81.2879 21.7607 81.5952 21.7607C81.5952 21.6222 81.5952 21.4991 81.5952 21.3606C81.4555 21.4375 81.2879 21.4991 81.1203 21.5607ZM132.77 21.3606C132.938 21.4529 133.078 21.5299 133.245 21.6222C133.078 21.5453 132.91 21.4529 132.77 21.3606ZM80.0588 21.6992C80.1706 21.7146 80.3102 21.7453 80.422 21.7607C80.1706 21.7146 79.9471 21.6684 79.6957 21.6222C79.8353 21.653 79.9471 21.6684 80.0588 21.6992ZM107.294 21.6222C107.462 21.7146 107.602 21.7915 107.769 21.8838C107.63 21.8069 107.462 21.7146 107.294 21.6222ZM52.5718 21.7607C52.7394 21.8069 52.879 21.8531 53.0466 21.8992C52.7952 21.9916 52.5718 22.0685 52.3204 22.1609C52.4321 22.0223 52.488 21.8838 52.5718 21.7607ZM179.141 21.7607C179.308 21.8992 179.448 22.0223 179.616 22.1609C179.448 22.1609 179.308 22.1609 179.141 22.1609C179.141 22.0223 179.141 21.8838 179.141 21.7607ZM48.7728 22.0839C48.8566 22.0993 48.9404 22.1301 49.0242 22.1455C48.8565 22.0993 48.7169 22.0531 48.5493 22.007C48.6051 22.0377 48.6889 22.0685 48.7728 22.0839ZM80.8968 22.0839C80.9806 22.0993 81.0644 22.1301 81.1482 22.1455C80.9806 22.0993 80.841 22.0531 80.6734 22.007C80.7292 22.0377 80.813 22.0685 80.8968 22.0839ZM81.8466 22.284C81.8466 22.3301 81.8466 22.3763 81.8466 22.4225C82.098 22.4225 82.3215 22.4225 82.5729 22.4225C82.5729 22.3301 82.5729 22.2532 82.5729 22.1609C82.3215 22.1609 82.098 22.1609 81.8466 22.1609C81.8466 22.1916 81.8466 22.2378 81.8466 22.284ZM58.9966 22.4071C59.0804 22.4533 59.1642 22.4994 59.248 22.5456C59.0804 22.4533 58.9407 22.3763 58.7731 22.284C58.8569 22.3301 58.9128 22.3763 58.9966 22.4071ZM177.493 22.284C178.722 22.4071 178.275 23.2689 177.241 23.3305C177.688 22.9919 178.079 22.5764 177.493 22.284ZM171.543 22.5456C171.71 22.5918 171.85 22.6379 172.018 22.6841C171.934 22.7764 171.85 22.8534 171.766 22.9457C171.599 22.8995 171.459 22.8534 171.291 22.8072C171.375 22.7149 171.459 22.6379 171.543 22.5456ZM47.0967 23.1304C47.0129 23.2843 46.9291 23.4382 46.8453 23.5921C46.5939 23.4997 46.3704 23.4228 46.119 23.3305C44.7782 24.5616 41.0071 25.0695 42.7949 27.2701C43.2418 27.2086 43.8843 27.1624 43.7446 26.87C43.4374 26.9162 43.1021 26.9624 42.7949 27.0085C42.8787 26.7161 43.2139 26.5622 43.7446 26.6084C43.6608 26.2698 43.3536 25.762 43.996 25.685C44.1636 25.8543 44.3033 26.039 44.4709 26.2083C44.5547 25.9005 44.6385 25.5927 44.7223 25.2849C45.1972 25.3772 45.6721 25.4542 46.147 25.5465C45.1413 24.8232 48.7448 24.3308 46.6218 23.9768C46.8732 23.8383 47.0967 23.7152 47.3481 23.5767C48.8286 24.6693 47.823 21.5145 47.0967 23.1304ZM75.6452 22.6841C75.9805 23.115 76.5112 23.6382 76.1201 23.9922C75.0866 23.5767 73.9133 22.9765 75.6452 22.6841ZM77.5727 22.6841C77.6565 22.8226 77.7403 22.9457 77.8241 23.0842C77.7124 22.9457 77.6286 22.8072 77.5727 22.6841ZM80.3102 22.8072C80.3382 22.8534 80.394 22.8995 80.422 22.9457C80.5896 22.8995 80.7292 22.8534 80.8968 22.8072C80.6454 22.761 80.422 22.7149 80.1706 22.6687C80.2264 22.7149 80.2544 22.761 80.3102 22.8072ZM131.206 22.9457C131.318 22.9457 131.457 22.9457 131.569 22.9457C131.597 23.3305 131.401 23.9152 132.044 23.9922C131.793 24.2076 131.569 24.4231 131.318 24.6539C131.038 24.3 130.368 24.1769 129.642 24.1307C129.921 23.6075 130.172 22.9303 131.206 22.9457ZM263.138 23.0688C263.306 23.1612 263.445 23.2381 263.613 23.3305C263.362 23.3766 263.138 23.4228 262.887 23.469C262.971 23.3305 263.054 23.2073 263.138 23.0688ZM49.7225 23.3305C49.4432 23.4843 49.6387 23.7767 49.7225 23.9922C50.4488 23.9614 50.5047 23.5613 50.4488 23.2073C50.1694 23.1919 49.946 23.1919 49.7225 23.3305ZM289.061 23.3305C289.145 23.469 289.229 23.5921 289.312 23.7306C289.145 23.7306 289.005 23.7306 288.837 23.7306C288.921 23.5921 289.005 23.469 289.061 23.3305ZM102.294 23.5921C102.462 23.6382 102.602 23.6844 102.769 23.7306C102.629 23.6844 102.462 23.6382 102.294 23.5921ZM152.994 23.7306C153.302 23.7767 153.637 23.8229 153.944 23.8691C153.525 23.9614 153.078 23.9922 152.994 23.7306ZM159.643 23.7306C159.81 23.8229 159.95 23.8999 160.118 23.9922C159.95 23.8999 159.81 23.8075 159.643 23.7306ZM80.0588 24.1153C80.0868 24.1615 80.1426 24.2076 80.1706 24.2538C80.0868 24.1615 80.003 24.0845 79.9192 23.9922C79.975 24.0384 80.0309 24.0691 80.0588 24.1153ZM102.071 23.9922C102.155 23.9922 102.238 23.9922 102.322 23.9922C102.238 24.1615 102.155 24.3462 102.071 24.5154C101.54 24.4847 101.596 24.0076 102.071 23.9922ZM52.3483 24.2538C52.4042 24.4539 53.4657 24.5462 54.0243 24.6539C54.2478 24.1923 53.0746 24.1923 52.3483 24.1307C52.3483 24.1615 52.3483 24.2076 52.3483 24.2538ZM49.6108 24.4385C49.5828 24.5 49.527 24.577 49.499 24.6386C49.6666 24.5924 49.8063 24.5462 49.9739 24.5C49.8901 24.4077 49.8063 24.3308 49.7225 24.2384C49.6946 24.3154 49.6387 24.3769 49.6108 24.4385ZM127.994 24.2538C128.524 24.3 128.804 24.4847 128.72 24.7771C128.468 24.5924 128.245 24.4231 127.994 24.2538ZM149.782 24.3154C149.894 24.3308 150.033 24.3615 150.145 24.3769C149.894 24.3308 149.67 24.2846 149.419 24.2384C149.531 24.2692 149.642 24.3 149.782 24.3154ZM50.9237 24.5154C50.9237 24.5616 50.9237 24.6078 50.9237 24.6539C51.1751 24.6078 51.3985 24.5616 51.6499 24.5154C51.3985 24.4693 51.1751 24.4231 50.9237 24.3769C50.9237 24.4231 50.9237 24.4693 50.9237 24.5154ZM129.67 24.3769C129.921 24.3769 130.144 24.3769 130.396 24.3769C130.396 24.5462 130.396 24.7309 130.396 24.9002C130.144 24.7309 129.893 24.5616 129.67 24.3769ZM152.52 24.3769C152.603 24.4693 152.687 24.5462 152.771 24.6386C152.659 24.5616 152.575 24.4693 152.52 24.3769ZM48.1861 24.9002C48.1582 24.9463 48.1023 24.9925 48.0744 25.0387C48.3258 25.0848 48.5493 25.131 48.8007 25.1772C48.8007 25.0387 48.8007 24.9156 48.8007 24.7771C48.5493 24.7771 48.2979 24.7617 48.1861 24.9002ZM50.6723 25.0387C50.5885 25.131 50.5047 25.208 50.4209 25.3003C50.6723 25.2541 50.8957 25.208 51.1471 25.1618C51.0633 25.0233 50.9795 24.9002 50.8957 24.7617C50.8399 24.854 50.7561 24.9463 50.6723 25.0387ZM49.3594 25.1618C49.3873 25.208 49.4432 25.2541 49.4711 25.3003C49.3873 25.208 49.3035 25.131 49.2197 25.0387C49.2756 25.0848 49.3314 25.1156 49.3594 25.1618ZM73.9971 25.3003C73.5223 25.7158 75.3659 26.7777 73.5223 26.7469C73.5502 26.2544 73.3547 25.5158 73.9971 25.3003ZM47.5716 25.5004C47.4878 25.5158 47.404 25.5465 47.3202 25.5619C47.4599 25.9005 48.3537 25.8235 48.9962 25.8235C48.9962 25.685 48.9962 25.5619 48.9962 25.4234C48.5493 25.4234 47.8789 25.408 47.5716 25.5004ZM50.3091 25.5619C50.3371 25.6081 50.3929 25.6543 50.4209 25.7004C50.3371 25.6081 50.2533 25.5311 50.1694 25.4388C50.2533 25.4696 50.2812 25.5158 50.3091 25.5619ZM101.596 25.4234C101.68 25.5619 101.764 25.685 101.847 25.8235C101.596 25.8697 101.372 25.9159 101.121 25.962C101.261 25.7774 101.428 25.6081 101.596 25.4234ZM103.384 25.762C103.272 26.0698 103.384 26.1467 103.747 26.2237C103.914 26.0082 104.054 25.7928 104.222 25.5619C103.97 25.5158 103.747 25.4696 103.495 25.4234C103.467 25.5311 103.412 25.6543 103.384 25.762ZM175.593 25.5619C175.844 25.6543 176.068 25.7312 176.319 25.8235C176.068 25.7312 175.817 25.6543 175.593 25.5619ZM147.994 25.685C148.916 25.962 149.223 26.4237 148.469 26.87C147.883 26.67 147.994 26.1159 147.994 25.685ZM149.642 25.685C149.81 25.685 149.95 25.685 150.117 25.685C150.033 25.7774 149.95 25.8543 149.866 25.9467C149.81 25.8697 149.726 25.7774 149.642 25.685ZM45.6721 26.2852C45.5045 26.393 45.3648 26.5007 45.1972 26.6084C46.3704 27.0701 48.7727 26.3468 48.2979 27.6549C48.5493 27.6549 48.7727 27.6549 49.0242 27.6549C48.7727 27.4856 48.5493 27.3009 48.2979 27.1316C48.8565 26.9624 49.4152 26.7777 49.9739 26.6084C49.4152 26.4237 47.2364 26.3314 46.6498 26.6084C46.4822 26.3929 46.3425 26.1775 46.1749 25.9467C46.0073 26.0698 45.8397 26.1775 45.6721 26.2852ZM50.4488 26.0852C50.5326 26.1313 50.6164 26.1775 50.7002 26.2237C50.5326 26.1313 50.3929 26.0544 50.2253 25.962C50.2812 25.9928 50.365 26.039 50.4488 26.0852ZM99.445 25.9467C99.6126 26.4699 99.7523 26.9931 99.9199 27.5164C99.3053 27.0239 98.8305 26.4545 99.445 25.9467ZM127.295 25.9467C127.379 25.9467 127.463 25.9467 127.547 25.9467C127.686 26.316 127.072 26.67 126.597 26.9931C126.429 26.8546 126.29 26.7315 126.122 26.593C126.373 26.593 126.597 26.593 126.848 26.593C126.513 26.3468 126.681 25.962 127.295 25.9467ZM146.207 26.0852C146.234 26.1313 146.29 26.1775 146.318 26.2237C146.234 26.1313 146.151 26.0544 146.067 25.962C146.123 25.9928 146.151 26.039 146.207 26.0852ZM130.508 26.4083C130.48 26.5161 130.424 26.6238 130.396 26.7315C130.563 26.7315 130.703 26.7315 130.871 26.7315C130.787 26.5161 130.703 26.3006 130.619 26.0698C130.591 26.1929 130.536 26.3006 130.508 26.4083ZM41.1468 26.5468C41.3144 26.6546 41.454 26.7623 41.6216 26.87C41.7054 26.7007 41.7892 26.5161 41.8731 26.3468C41.482 26.3006 41.0909 26.2544 40.6719 26.2083C40.8395 26.3314 41.0071 26.4391 41.1468 26.5468ZM285.513 26.3468C285.597 26.4853 285.681 26.6084 285.765 26.7469C285.653 26.6084 285.569 26.4853 285.513 26.3468ZM98.2718 26.4853C98.3556 26.5776 98.4394 26.6546 98.5232 26.7469C98.4115 26.6546 98.3276 26.5622 98.2718 26.4853ZM45.4486 26.9316C45.5324 26.947 45.6162 26.9777 45.7 26.9931C45.5324 26.947 45.3927 26.9008 45.2251 26.8546C45.281 26.8854 45.3648 26.9162 45.4486 26.9316ZM70.673 26.87C70.8406 26.9162 70.9803 26.9624 71.1479 27.0085C70.9803 26.9624 70.8127 26.9162 70.673 26.87ZM49.6108 27.3317C49.7225 27.3933 49.8622 27.4702 49.9739 27.5318C49.7225 27.3933 49.499 27.2701 49.2476 27.1316C49.3594 27.1932 49.499 27.2701 49.6108 27.3317ZM46.985 27.8549C46.957 27.9165 46.9012 27.9935 46.8732 28.055C47.7951 28.3166 47.9906 27.8549 47.1246 27.6549C47.0688 27.7164 47.0408 27.7934 46.985 27.8549ZM96.3443 27.7934C96.5119 27.8396 96.6516 27.8857 96.8192 27.9319C96.2047 27.9781 95.2828 28.1473 95.1432 27.7934C95.5622 27.7011 95.8974 27.6549 96.3443 27.7934ZM171.291 27.6549C171.459 27.7472 171.599 27.8242 171.766 27.9165C171.626 27.8242 171.459 27.7472 171.291 27.6549ZM38.7724 28.055C37.7109 28.6398 36.2024 28.8091 36.1466 29.8248C34.7778 29.9017 33.437 29.794 33.5208 30.9328C33.2414 30.4558 32.3476 30.9021 32.0962 31.1945C32.3476 31.2406 32.571 31.2868 32.8224 31.333C30.5598 31.5176 29.5542 33.3644 27.3474 33.5644C27.1518 34.2416 25.7272 35.365 24.2467 35.3958C25.3361 35.7959 24.8333 36.5038 23.5204 36.1806C23.7718 36.4423 23.9953 36.7039 24.2467 36.9655C26.258 35.919 27.487 36.75 29.7218 36.827C29.7218 36.6577 29.7218 36.473 29.7218 36.3038C28.2971 36.3961 28.0457 35.011 29.7218 35.1188C29.5542 34.7648 29.4145 34.4262 29.2469 34.0723C30.4201 33.8722 30.1966 34.9341 31.3978 34.734C31.0067 35.1649 30.6157 35.6112 30.1966 36.0421C30.6715 35.8728 31.1464 35.6882 31.6213 35.5189C31.6213 35.7343 31.6213 35.9498 31.6213 36.1806C31.7889 36.1806 31.9286 36.1806 32.0962 36.1806C32.0962 35.8267 32.0962 35.4881 32.0962 35.1342C32.3476 35.1342 32.571 35.1342 32.8224 35.1342C32.8224 35.3034 32.8224 35.4881 32.8224 35.6574C34.3309 35.5651 33.018 34.4109 32.0962 34.9957C31.8447 34.257 30.476 32.7642 33.2973 33.4259C33.2973 33.1643 33.2973 32.9027 33.2973 32.6411C32.9062 32.7334 32.5152 32.8103 32.0962 32.9027C31.7889 32.2871 33.3253 32.3025 34.2471 32.2409C33.9957 32.8719 34.0515 34.1031 32.8224 34.0723C33.2973 34.3339 33.7722 34.5955 34.2471 34.8571C34.1633 34.6879 34.0795 34.5032 33.9957 34.3339C36.398 34.9033 37.8785 31.6715 39.2193 31.1945C38.2137 32.087 41.5937 31.4715 41.3702 31.056C40.9792 31.1021 40.5881 31.1483 40.1691 31.1945C40.2529 30.979 40.3367 30.7636 40.4205 30.5327C40.1691 30.625 39.9456 30.702 39.6942 30.7943C39.7221 29.7479 38.5768 29.9017 37.3198 29.871C37.3757 29.4093 38.4651 29.4708 39.2193 29.4708C39.2193 29.3016 39.2193 29.1169 39.2193 28.9476C39.5266 28.9938 39.8618 29.0399 40.1691 29.0861C40.3088 28.5475 38.8282 28.3936 38.7444 27.778C38.7724 27.8703 38.7724 27.9627 38.7724 28.055ZM40.5602 28.055C40.6719 28.3166 40.8395 28.332 41.1468 28.3166C41.035 28.0704 40.9512 27.7164 40.4205 27.7934C40.4764 27.8703 40.5322 27.9627 40.5602 28.055ZM42.3479 27.9781C42.4317 27.9935 42.5155 28.0242 42.5993 28.0396C42.4317 27.9935 42.2921 27.9473 42.1245 27.9011C42.1803 27.9473 42.2641 27.9627 42.3479 27.9781ZM98.9701 28.1166C98.8863 28.1781 98.8025 28.2551 98.7187 28.3166C98.9701 28.2705 99.1936 28.2243 99.445 28.1781C99.3612 28.0858 99.2774 28.0088 99.1936 27.9165C99.1377 27.9781 99.0539 28.055 98.9701 28.1166ZM43.2977 28.3782C43.2698 28.7321 43.7726 28.7783 44.2474 28.8399C44.3871 28.4551 43.9681 28.1781 43.2977 28.055C43.2977 28.1627 43.2977 28.2705 43.2977 28.3782ZM71.1479 28.1781C71.3155 28.1781 71.4551 28.1781 71.6227 28.1781C71.5389 28.2705 71.4551 28.3474 71.3713 28.4397C71.2875 28.3628 71.2037 28.2705 71.1479 28.1781ZM97.7969 28.2397C97.8807 28.2551 97.9645 28.2859 98.0483 28.3012C97.8807 28.2551 97.741 28.2089 97.5734 28.1627C97.6293 28.2089 97.7131 28.2243 97.7969 28.2397ZM144.642 28.1781C144.81 28.2243 144.949 28.2705 145.117 28.3166C144.977 28.2705 144.81 28.2243 144.642 28.1781ZM47.4599 28.4397C47.4878 28.4859 47.5437 28.5321 47.5716 28.5783C47.4878 28.4859 47.404 28.409 47.3202 28.3166C47.376 28.3628 47.4319 28.3936 47.4599 28.4397ZM124.195 28.963C124.195 29.5478 122.518 29.9633 122.993 30.4096C123.552 30.0556 124.111 29.7171 124.669 29.3631C124.865 29.7479 125.424 29.9479 126.094 29.7632C126.094 29.9787 126.094 30.1941 126.094 30.425C127.156 30.4404 127.798 30.0864 127.77 29.5016C128.021 29.5478 128.245 29.594 128.496 29.6401C128.971 29.0092 128.217 28.5167 127.072 28.4551C127.239 29.6093 124.753 29.3785 124.446 28.4551C124.362 28.6244 124.278 28.7937 124.195 28.963ZM37.5992 28.5783C37.7668 28.6244 37.9064 28.6706 38.074 28.7168C37.9064 28.6552 37.7388 28.6244 37.5992 28.5783ZM95.7577 28.9014C95.1432 29.2092 95.227 29.4401 95.3946 29.7479C95.646 29.7017 95.8695 29.6555 96.1209 29.6093C95.8695 29.4708 95.646 29.3477 95.3946 29.2092C96.0371 29.1015 96.7913 28.9168 96.3443 28.5475C96.1488 28.686 95.9533 28.7937 95.7577 28.9014ZM125.731 28.8399C125.703 28.886 125.647 28.9322 125.619 28.9784C125.787 28.9784 125.926 28.9784 126.094 28.9784C126.01 28.886 125.926 28.8091 125.843 28.7168C125.815 28.7475 125.787 28.7937 125.731 28.8399ZM148.469 28.8399C148.553 28.9322 148.637 29.0092 148.721 29.1015C148.609 29.0092 148.553 28.9168 148.469 28.8399ZM141.569 29.1015C142.072 29.2246 142.91 29.3169 142.771 29.6247C142.128 29.7017 141.793 29.4093 141.569 29.1015ZM71.958 29.3016C72.0697 29.3169 72.2094 29.3477 72.3211 29.3631C71.93 29.5324 71.539 29.7171 71.1199 29.8864C71.3155 29.6555 71.511 29.2092 71.958 29.3016ZM123.133 29.3631C123.161 29.4093 123.217 29.4555 123.245 29.5016C123.161 29.4093 123.077 29.3323 122.993 29.24C123.049 29.2708 123.077 29.3169 123.133 29.3631ZM228.891 29.3631C229.059 29.4555 229.198 29.5324 229.366 29.6247C229.198 29.5324 229.031 29.4555 228.891 29.3631ZM40.0853 29.8248C40.0573 29.9325 40.0015 30.0402 39.9735 30.148C40.8674 30.2865 41.2026 29.517 40.2249 29.4862C40.1691 29.594 40.1411 29.7171 40.0853 29.8248ZM42.8228 30.0864C42.739 30.148 42.6552 30.2249 42.5714 30.2865C43.0463 30.1941 43.5212 30.1172 43.996 30.0249C43.605 29.9633 43.0742 29.8556 42.8228 30.0864ZM230.651 30.0095C230.679 30.0556 230.735 30.1018 230.763 30.148C230.679 30.0556 230.595 29.9787 230.511 29.8864C230.595 29.9325 230.623 29.9787 230.651 30.0095ZM273.837 29.8864C274.005 29.9325 274.144 29.9787 274.312 30.0249C274.172 29.9787 274.005 29.9325 273.837 29.8864ZM37.5992 30.148C37.8506 30.2865 38.074 30.4096 38.3254 30.5481C38.074 30.4096 37.8226 30.2865 37.5992 30.148ZM137.631 30.348C137.659 30.4096 137.715 30.4865 137.743 30.5481C137.994 30.4558 138.217 30.3788 138.469 30.2865C138.162 30.2403 137.826 30.1941 137.519 30.148C137.547 30.2095 137.603 30.2711 137.631 30.348ZM183.443 30.148C183.61 30.1941 183.75 30.2403 183.917 30.2865C183.75 30.2403 183.582 30.1941 183.443 30.148ZM43.186 30.7328C42.8228 30.9482 42.4876 30.8713 42.1245 30.7943C42.0407 30.9328 41.9569 31.056 41.8731 31.1945C43.0463 31.3637 43.2139 30.7174 44.2474 30.6712C43.8843 30.5943 43.5491 30.5173 43.186 30.7328ZM122.044 30.7328C121.96 30.7482 121.876 30.7789 121.792 30.7943C121.96 30.9636 122.099 31.1483 122.267 31.3176C121.708 31.3791 120.675 31.3791 120.842 31.7177C121.597 31.6561 122.267 31.7946 122.267 32.2409C121.234 31.6254 118.412 33.0566 120.368 33.2874C120.284 33.3798 120.2 33.4567 120.116 33.549C120.926 33.5337 121.178 33.1797 121.066 32.7642C122.323 33.072 122.77 32.3641 123.915 32.6257C123.999 32.4102 124.083 32.1948 124.167 31.9639C125.479 33.5644 125.731 31.1483 123.692 31.3022C123.273 32.6718 121.932 31.4561 123.692 30.7789C123.077 31.0098 122.546 30.7328 122.044 30.7328ZM125.396 31.0713C125.619 31.3637 125.982 31.2868 126.345 31.2098C126.29 30.8559 125.759 30.7636 125.144 30.8097C125.228 30.8867 125.312 30.979 125.396 31.0713ZM182.968 30.8097C183.135 30.8559 183.275 30.9021 183.443 30.9482C183.275 30.8867 183.107 30.8405 182.968 30.8097ZM191.879 31.0713C191.767 31.1637 191.627 31.2406 191.515 31.333C191.823 31.2868 192.158 31.2406 192.465 31.1945C192.381 31.056 192.298 30.9328 192.214 30.7943C192.13 30.8867 191.99 30.979 191.879 31.0713ZM32.8224 30.9328C32.99 31.0252 33.1297 31.1021 33.2973 31.1945C33.1576 31.1021 32.99 31.0252 32.8224 30.9328ZM39.2473 30.9328C39.4149 31.0252 39.5545 31.1021 39.7221 31.1945C39.5825 31.1021 39.4149 31.0252 39.2473 30.9328ZM170.816 30.9328C170.984 31.0713 171.124 31.1945 171.291 31.333C171.04 31.333 170.816 31.333 170.565 31.333C170.677 31.1945 170.76 31.0713 170.816 30.9328ZM121.569 31.1329C121.653 31.1483 121.736 31.1791 121.82 31.1945C121.653 31.1483 121.513 31.1021 121.345 31.056C121.429 31.0867 121.485 31.1021 121.569 31.1329ZM36.1745 31.1945C36.4818 31.4099 36.817 31.6254 37.1243 31.8562C36.6494 31.7639 36.1745 31.6869 35.6996 31.5946C35.6158 31.7639 35.532 31.9485 35.4482 32.1178C35.0572 31.7639 35.6438 31.4561 36.1745 31.1945ZM136.569 31.333C137.044 31.4253 137.519 31.5022 137.994 31.5946C137.351 31.5638 136.625 31.5946 136.569 31.9947C136.569 31.7639 136.569 31.5484 136.569 31.333ZM41.1468 31.7177C41.063 31.81 40.9792 31.887 40.8954 31.9793C41.5099 32.0563 41.7892 31.7793 41.8451 31.4561C41.5378 31.4407 41.3702 31.4715 41.1468 31.7177ZM125.871 31.5176C125.954 31.533 126.038 31.5638 126.122 31.5792C125.954 31.533 125.815 31.4869 125.647 31.4407C125.703 31.4869 125.787 31.5022 125.871 31.5176ZM93.1319 32.3794C93.1599 32.4718 93.2157 32.5487 93.2437 32.6411C93.3275 32.4718 93.4113 32.2871 93.4951 32.1178C93.3275 32.1178 93.1878 32.1178 93.0202 32.1178C93.0761 32.1948 93.104 32.2871 93.1319 32.3794ZM35.6996 32.3794C35.951 32.3794 36.1745 32.3794 36.4259 32.3794C36.3421 32.5179 36.2583 32.6411 36.1745 32.7796C36.0069 32.6411 35.8393 32.5026 35.6996 32.3794ZM31.3978 32.5026C31.5654 32.5026 31.7051 32.5026 31.8727 32.5026C31.7889 32.5949 31.7051 32.6718 31.6213 32.7642C31.5654 32.6872 31.4816 32.5949 31.3978 32.5026ZM187.968 32.8411C188.052 32.8565 188.135 32.8873 188.219 32.9027C188.052 32.8565 187.912 32.8103 187.744 32.7642C187.8 32.795 187.884 32.8103 187.968 32.8411ZM122.993 33.2874C122.407 33.5798 122.798 34.1646 122.993 34.5955C124.111 34.5032 124.502 33.3951 125.144 33.0258C124.418 33.0258 123.496 32.995 122.993 33.2874ZM66.846 33.1643C67.2371 33.4721 67.6282 33.7799 68.0472 34.0877C67.6561 34.1338 67.2651 34.18 66.846 34.2262C66.846 33.8568 66.846 33.5183 66.846 33.1643ZM178.191 33.4259C178.359 33.4259 178.498 33.4259 178.666 33.4259C178.582 33.5183 178.498 33.5952 178.414 33.6875C178.359 33.5952 178.275 33.5183 178.191 33.4259ZM119.306 33.8876C119.166 34.2108 119.39 34.3955 119.669 34.6109C120.06 34.2262 120.144 33.8107 119.418 33.5644C119.39 33.6722 119.362 33.7799 119.306 33.8876ZM120.731 34.1492C120.759 34.3493 120.815 34.5494 120.842 34.734C119.39 34.534 119.334 35.8267 117.742 35.3958C117.742 35.4881 117.742 35.5651 117.742 35.6574C118.133 35.6574 118.524 35.6574 118.943 35.6574C119.166 36.1037 118.021 36.196 117.267 36.3191C117.434 37.2425 119.25 36.4884 119.893 37.104C119.921 36.5654 120.228 36.0421 121.317 36.1806C121.15 36.1345 121.01 36.0883 120.842 36.0421C120.926 35.9498 121.01 35.8728 121.094 35.7805C121.401 35.8728 121.736 35.9498 122.044 36.0421C122.491 35.2265 122.072 33.9953 120.619 33.549C120.675 33.7491 120.703 33.9492 120.731 34.1492ZM87.5451 33.6875C87.7127 33.6875 87.8524 33.6875 88.02 33.6875C87.9362 33.7799 87.8524 33.8568 87.7686 33.9492C87.7127 33.8568 87.6289 33.7799 87.5451 33.6875ZM90.1709 33.8876C90.5061 34.2108 90.981 33.9338 90.8972 33.6875C90.5899 33.6875 90.2547 33.6875 89.9474 33.6875C90.0033 33.7491 90.0871 33.8107 90.1709 33.8876ZM28.5485 34.2108C28.7999 34.2108 29.0234 34.2108 29.2748 34.2108C29.3866 34.5186 28.5485 34.8418 28.0737 35.1342C27.9061 34.8725 27.7664 34.6109 27.5988 34.3493C27.9061 34.4878 28.2413 34.6109 28.5485 34.7494C28.5485 34.5647 28.5485 34.3801 28.5485 34.2108ZM65.4214 34.3493C65.589 34.4416 65.7287 34.5186 65.8963 34.6109C65.7566 34.5186 65.589 34.4262 65.4214 34.3493ZM175.817 34.3493C175.984 34.3955 176.124 34.4416 176.291 34.4878C176.152 34.4262 175.984 34.3801 175.817 34.3493ZM118.719 34.9341C118.719 34.9957 118.719 35.0726 118.719 35.1342C119.166 35.1957 119.334 34.9649 119.446 34.734C119.194 34.734 118.971 34.734 118.719 34.734C118.719 34.7956 118.719 34.8725 118.719 34.9341ZM175.817 34.734C175.984 34.7802 176.124 34.8264 176.291 34.8725C176.152 34.8264 175.984 34.7802 175.817 34.734ZM122.77 35.0572C122.742 35.2881 123.161 35.3342 123.496 35.3804C123.608 35.088 123.301 34.9033 122.77 34.8571C122.77 34.9341 122.77 34.9957 122.77 35.0572ZM182.493 34.8725C182.8 34.8725 183.135 34.8725 183.443 34.8725C183.554 35.1188 183.135 35.2111 182.716 35.2727C182.632 35.1342 182.577 34.9957 182.493 34.8725ZM127.994 35.6574C128.161 35.7497 128.301 35.8267 128.468 35.919C128.329 35.8267 128.161 35.7343 127.994 35.6574ZM173.917 35.6574C174.336 35.8113 174.392 36.0729 174.168 36.3191C173.61 36.2422 173.777 35.9036 173.917 35.6574ZM64.7231 35.7805C64.8069 35.8728 64.8907 35.9498 64.9745 36.0421C64.8627 35.9652 64.8069 35.8728 64.7231 35.7805ZM166.319 35.7805C166.403 35.8728 166.487 35.9498 166.57 36.0421C166.403 36.0421 166.263 36.0421 166.096 36.0421C166.151 35.9652 166.235 35.8728 166.319 35.7805ZM182.353 35.9806C182.381 36.0421 182.437 36.1191 182.465 36.1806C182.549 36.0883 182.632 36.0114 182.716 35.919C182.549 35.8728 182.409 35.8267 182.241 35.7805C182.297 35.8421 182.325 35.919 182.353 35.9806ZM224.841 35.7805C225.008 35.8728 225.148 35.9498 225.316 36.0421C225.148 35.9652 224.98 35.8728 224.841 35.7805ZM277.412 35.7805C277.496 35.8728 277.58 35.9498 277.664 36.0421C277.58 35.9652 277.496 35.8728 277.412 35.7805ZM30.0849 36.3807C29.9452 36.5962 30.1966 36.6423 30.448 36.7039C30.3642 36.5346 30.2804 36.3499 30.1966 36.1806C30.1687 36.2422 30.1408 36.3038 30.0849 36.3807ZM121.708 36.3807C121.68 36.4423 121.625 36.5192 121.597 36.5808C122.016 36.6115 122.435 36.5654 122.546 36.3191C122.295 36.273 122.072 36.2268 121.82 36.1806C121.764 36.2422 121.736 36.3038 121.708 36.3807ZM32.4872 36.4423C32.5152 36.4884 32.571 36.5346 32.599 36.5808C32.7666 36.5346 32.9062 36.4884 33.0738 36.4423C32.8224 36.3961 32.599 36.3499 32.3476 36.3038C32.4034 36.3499 32.4314 36.3961 32.4872 36.4423ZM83.0198 36.3038C83.1874 36.3499 83.3271 36.3961 83.4947 36.4423C83.355 36.3961 83.1874 36.3499 83.0198 36.3038ZM181.292 36.4423C181.375 36.4884 181.459 36.5346 181.543 36.5808C181.375 36.4884 181.236 36.4115 181.068 36.3191C181.124 36.3499 181.208 36.3961 181.292 36.4423ZM21.5371 37.0271C21.174 37.3348 21.2298 37.5041 21.4254 37.7504C19.9728 37.4118 18.9951 38.1813 19.5259 38.9353C17.9057 38.6583 15.9224 40.0434 15.4754 40.7667C13.5201 40.4281 12.5424 42.6134 10.7267 42.4749C11.2574 43.306 10.3914 44.0293 8.82714 43.5214C8.91094 43.6907 8.99475 43.8754 9.07855 44.0446C8.82714 43.9985 8.60367 43.9523 8.35226 43.9061C8.40813 44.1524 8.21259 44.1678 7.40251 44.2293C6.03374 44.2139 6.08961 45.4143 4.77671 45.2142C4.83258 45.5682 4.77671 45.9683 4.05043 45.9991C4.21803 46.1376 4.3577 46.2607 4.52531 46.3992C4.05043 46.3531 3.57555 46.3069 3.10067 46.2607C3.26828 46.5685 3.40795 46.8763 3.57555 47.1841C3.32415 47.1841 3.10067 47.1841 2.84927 47.1841C2.7096 47.5227 3.24034 47.7227 3.79902 47.8458C4.1063 47.4919 4.4415 47.1533 4.74878 46.7994C5.47506 47.3226 7.0673 46.9225 7.12317 47.8458C7.45838 47.338 8.18466 47.1379 9.02268 47.4457C9.02268 47.1379 9.02268 46.8301 9.02268 46.5223C8.464 46.5223 7.90532 46.5223 7.34664 46.5223C8.60367 46.153 6.95556 45.4605 9.13442 45.0757C11.7881 44.3832 10.559 45.045 10.9222 45.8606C10.6149 45.6913 10.2797 45.5066 9.97243 45.3374C9.63723 45.5374 9.19028 45.799 8.77127 45.599C8.21259 46.1684 9.46962 46.3531 9.97243 45.8606C9.80483 46.0761 9.66516 46.2915 9.49756 46.5223C10.2238 46.4762 10.9222 46.43 11.6485 46.3838C10.9501 46.3992 10.559 46.6609 10.6987 47.0456C11.2015 47.1379 12.5144 46.4146 12.3748 46.1222C11.9837 46.1222 11.5926 46.1222 11.1736 46.1222C11.1177 45.7375 12.4865 45.7529 12.1234 45.1989C12.5982 45.3374 13.0731 45.4605 13.548 45.599C13.6039 44.8757 14.8888 44.414 14.2743 43.506C14.8609 43.6445 15.0844 43.9523 15.0006 44.2909C15.252 44.2909 15.4754 44.2909 15.7268 44.2909C15.7268 44.1524 15.7268 44.0293 15.7268 43.8908C16.928 44.2447 18.1012 42.8597 19.3024 43.6291C18.8554 42.3518 20.9226 41.6747 21.2019 40.4897C20.8108 40.6897 20.308 40.7667 20.0007 40.4897C20.5594 40.0588 21.4254 39.9049 22.3751 39.9664C22.0679 40.0588 21.7326 40.1357 21.4254 40.2281C22.8779 40.7821 24.107 39.5971 26.1741 39.9664C26.1741 39.751 26.1741 39.5355 26.1741 39.3047C26.4256 39.3047 26.649 39.3047 26.9004 39.3047C26.677 39.8279 27.9899 40.0742 28.5765 39.7048C27.4032 39.4432 28.5206 38.1351 26.2021 38.6583C26.3418 37.6734 28.0737 36.3807 24.7774 37.2117C25.4479 37.3964 26.3976 37.5811 26.2021 37.9966C25.8948 37.7196 25.4199 37.7965 25.0009 37.9966C24.5819 37.3502 23.6601 36.9963 22.6265 37.4734C23.0735 36.9809 22.2634 36.3961 21.5371 37.0271ZM177.967 36.7039C178.386 36.8578 178.442 37.1194 178.219 37.3656C177.772 37.1963 177.744 36.9501 177.967 36.7039ZM121.708 36.9655C121.68 37.0117 121.625 37.0578 121.597 37.104C121.764 37.104 121.904 37.104 122.072 37.104C121.988 37.0117 121.904 36.9347 121.82 36.8424C121.764 36.8732 121.736 36.9193 121.708 36.9655ZM274.787 36.9655C274.954 37.0117 275.094 37.0578 275.262 37.104C275.122 37.0578 274.954 37.0117 274.787 36.9655ZM118.245 37.2271C118.328 37.2733 118.412 37.3195 118.496 37.3656C118.328 37.2733 118.189 37.1963 118.021 37.104C118.077 37.1348 118.161 37.181 118.245 37.2271ZM177.241 37.3502C177.325 37.5195 177.409 37.7042 177.493 37.8735C176.99 37.8273 177.074 37.5811 177.241 37.3502ZM82.0701 37.4887C82.517 37.8581 81.7349 38.1043 81.1203 38.2736C81.4555 38.012 81.7628 37.7504 82.0701 37.4887ZM27.1239 37.9504C27.1239 38.012 27.1239 38.0889 27.1239 38.1505C27.4312 38.1043 27.7664 38.0582 28.0737 38.012C27.7664 37.9196 27.4312 37.8427 27.1239 37.7504C27.1239 37.8119 27.1239 37.8735 27.1239 37.9504ZM166.542 37.8735C166.626 37.9196 166.71 37.9658 166.794 38.012C166.626 37.9196 166.487 37.8427 166.319 37.7504C166.375 37.7965 166.459 37.8427 166.542 37.8735ZM21.4254 38.2736C21.7885 38.5352 22.3193 38.7199 22.85 38.5352C22.9617 38.8276 22.6545 39.0123 22.1237 39.0585C23.0735 38.9353 24.8333 38.8892 24.4981 38.2736C24.9451 38.6891 24.9171 39.12 24.2467 39.4586C23.9394 39.3201 23.6042 39.197 23.2969 39.0585C23.0455 39.2739 22.8221 39.4894 22.5707 39.7202C21.9002 39.2893 21.2298 38.8122 21.4254 38.2736ZM230.176 38.4121C230.204 38.4583 230.26 38.5044 230.288 38.5506C230.204 38.4583 230.12 38.3813 230.036 38.289C230.12 38.3198 230.148 38.3659 230.176 38.4121ZM20.2242 38.6737C20.2242 38.8122 20.2242 38.9353 20.2242 39.0739C19.9728 39.0739 19.7493 39.0739 19.4979 39.0739C19.7493 38.9353 19.9728 38.7968 20.2242 38.6737ZM166.319 38.6737C166.57 38.6737 166.794 38.6737 167.045 38.6737C166.794 38.9353 166.57 39.197 166.319 39.4586C165.509 39.2277 164.922 38.6583 166.319 38.6737ZM168.442 38.6737C168.61 38.7199 168.749 38.7661 168.917 38.8122C168.777 38.7507 168.61 38.7045 168.442 38.6737ZM172.967 38.9353C173.135 38.9815 173.275 39.0277 173.442 39.0739C173.275 39.0123 173.135 38.9661 172.967 38.9353ZM18.5482 39.0585C18.7158 39.197 18.8554 39.3201 19.023 39.4586C18.7716 39.4586 18.5482 39.4586 18.2968 39.4586C18.4085 39.3201 18.4923 39.197 18.5482 39.0585ZM63.9968 39.197C64.1644 39.2893 64.304 39.3663 64.4716 39.4586C64.304 39.3663 64.1644 39.2739 63.9968 39.197ZM19.4979 39.4586C19.6655 39.5048 19.8052 39.5509 19.9728 39.5971C19.889 39.6894 19.8052 39.7664 19.7214 39.8587C19.5538 39.8125 19.4141 39.7664 19.2465 39.7202C19.3583 39.6279 19.4421 39.5355 19.4979 39.4586ZM62.0973 39.7202C62.6839 39.751 63.2146 39.9049 63.047 40.2435C62.7397 40.2435 62.4045 40.2435 62.0973 40.2435C62.0973 40.0588 62.0973 39.8895 62.0973 39.7202ZM80.5337 39.9203C80.5616 39.9818 80.6175 40.0588 80.6454 40.1203C80.7292 39.9818 80.813 39.8587 80.8968 39.7202C80.7292 39.7202 80.5896 39.7202 80.422 39.7202C80.4499 39.7818 80.5058 39.8433 80.5337 39.9203ZM17.0118 39.9818C17.4587 39.9818 17.6543 40.3973 17.8498 40.6436C17.3749 40.6436 16.9001 40.6436 16.4252 40.6436C16.509 40.3973 16.5649 39.9818 17.0118 39.9818ZM121.457 40.0434C121.569 40.0588 121.708 40.0896 121.82 40.1049C121.513 40.1511 121.178 40.1973 120.87 40.2435C120.982 40.1049 121.094 39.9664 121.457 40.0434ZM18.7996 40.2435C18.9672 40.3358 19.1068 40.4127 19.2745 40.5051C19.1068 40.4127 18.9672 40.3204 18.7996 40.2435ZM25.4479 40.3666C25.5317 40.4127 25.6155 40.4589 25.6993 40.5051C25.5317 40.4127 25.392 40.3358 25.2244 40.2435C25.3082 40.2896 25.392 40.3204 25.4479 40.3666ZM60.8961 40.7667C60.9799 40.9052 61.0637 41.0283 61.1475 41.1668C60.9799 41.1207 60.8402 41.0745 60.6726 41.0283C60.7564 40.936 60.8402 40.859 60.8961 40.7667ZM62.3487 40.8898C62.5163 40.936 62.6559 40.9821 62.8235 41.0283C62.6559 40.9821 62.4883 40.936 62.3487 40.8898ZM76.4833 41.0283C76.595 41.0283 76.7347 41.0283 76.8464 41.0283C76.7905 41.3977 76.2039 41.413 75.6452 41.2899C75.8967 41.1514 76.1201 41.0129 76.4833 41.0283ZM74.2206 41.1514C74.3882 41.1514 74.5279 41.1514 74.6955 41.1514C74.6955 41.3207 74.6955 41.5054 74.6955 41.6747C74.5279 41.6747 74.3882 41.6747 74.2206 41.6747C74.2206 41.5054 74.2206 41.3361 74.2206 41.1514ZM19.9728 41.4131C20.2242 41.5054 20.4477 41.5823 20.6991 41.6747C20.4477 41.6747 20.2242 41.6747 19.9728 41.6747C19.9728 41.5977 19.9728 41.5054 19.9728 41.4131ZM15.224 41.5516C15.3916 41.5516 15.5313 41.5516 15.6989 41.5516C15.6151 41.6439 15.5313 41.7208 15.4475 41.8132C15.3916 41.7208 15.3078 41.6439 15.224 41.5516ZM16.6487 41.5516C16.8163 41.5516 16.9559 41.5516 17.1235 41.5516C17.0397 41.6439 16.9559 41.7208 16.8721 41.8132C16.8163 41.7208 16.7325 41.6439 16.6487 41.5516ZM22.2355 41.6747C22.2634 41.7208 22.3193 41.767 22.3472 41.8132C22.431 41.7208 22.5148 41.6439 22.5986 41.5516C22.431 41.5516 22.2913 41.5516 22.1237 41.5516C22.1796 41.5977 22.2075 41.6439 22.2355 41.6747ZM17.3749 41.6747C17.6263 41.7208 17.8498 41.767 18.1012 41.8132C18.0174 42.0286 17.8219 42.2749 17.3749 42.2133C17.3749 42.0286 17.3749 41.8593 17.3749 41.6747ZM73.2709 41.8132C73.8575 42.044 74.0251 42.3826 73.7457 42.7365C73.4385 42.6904 73.1033 42.6442 72.796 42.598C72.9636 42.3364 73.1312 42.0748 73.2709 41.8132ZM76.6229 41.9517C76.7905 42.044 76.9302 42.121 77.0978 42.2133C76.8464 42.2595 76.6229 42.3056 76.3715 42.3518C76.4553 42.2133 76.5391 42.0748 76.6229 41.9517ZM16.6487 42.3364C16.9001 42.4749 17.1235 42.598 17.3749 42.7365C17.3191 42.1979 18.9951 42.3672 19.051 42.875C17.9895 42.7981 17.0397 42.9674 16.6766 43.5368C16.6487 43.1213 16.6487 42.7365 16.6487 42.3364ZM74.472 42.4749C74.5558 42.6442 74.6396 42.8289 74.7234 42.9982C74.5558 42.9982 74.4161 42.9982 74.2485 42.9982C74.3044 42.8135 74.3882 42.6442 74.472 42.4749ZM164.392 42.598C164.419 42.7827 165.174 42.8904 165.593 42.9982C165.676 42.8289 165.76 42.6442 165.844 42.4749C165.369 42.4749 164.894 42.4749 164.419 42.4749C164.392 42.5057 164.392 42.5519 164.392 42.598ZM261.239 42.5365C261.322 42.5519 261.406 42.5826 261.49 42.598C261.322 42.5519 261.183 42.5057 261.015 42.4595C261.071 42.4903 261.155 42.5057 261.239 42.5365ZM62.8235 42.8597C62.9911 42.9058 63.1308 42.952 63.2984 42.9982C63.1308 42.952 62.9632 42.9058 62.8235 42.8597ZM14.7491 42.9982C14.9168 43.0905 15.0564 43.1674 15.224 43.2598C14.9726 43.2598 14.7491 43.2598 14.4977 43.2598C14.5815 43.1674 14.6653 43.0751 14.7491 42.9982ZM60.6726 43.1213C60.924 43.1213 61.1475 43.1213 61.3989 43.1213C61.3151 43.2906 61.2313 43.4752 61.1475 43.6445C60.9799 43.4752 60.8402 43.306 60.6726 43.1213ZM62.5721 43.5214C62.8235 43.5676 63.047 43.6137 63.2984 43.6599C63.047 43.5984 62.8235 43.5676 62.5721 43.5214ZM73.9971 43.5214C74.1647 43.5214 74.3044 43.5214 74.472 43.5214C74.472 43.6599 74.472 43.783 74.472 43.9215C74.3044 43.9215 74.1647 43.9215 73.9971 43.9215C73.9971 43.783 73.9971 43.6445 73.9971 43.5214ZM71.6227 43.783C71.7904 43.8292 71.93 43.8754 72.0976 43.9215C72.0138 44.0139 71.93 44.0908 71.8462 44.1832C71.7624 44.0446 71.7066 43.9061 71.6227 43.783ZM13.0731 43.9061C13.5201 44.3063 13.4921 44.7064 12.5982 44.8295C12.7658 44.5217 12.9334 44.2139 13.0731 43.9061ZM17.0118 44.0446C16.9839 44.0908 16.928 44.137 16.9001 44.1832C17.3749 44.2293 17.8498 44.2755 18.3247 44.3217C18.1012 44.0293 17.4029 43.7215 17.0118 44.0446ZM62.0973 43.9061C62.2649 43.9061 62.4045 43.9061 62.5721 43.9061C62.4883 43.9985 62.4045 44.0754 62.3207 44.1678C62.2649 44.0908 62.1811 43.9985 62.0973 43.9061ZM9.05061 44.0446C9.35789 44.137 9.69309 44.2139 10.0004 44.3063C9.69309 44.3524 9.35789 44.3986 9.05061 44.4448C9.05061 44.3063 9.05061 44.1678 9.05061 44.0446ZM62.3487 44.4294C62.5163 44.4756 62.6559 44.5217 62.8235 44.5679C62.6559 44.5217 62.4883 44.4756 62.3487 44.4294ZM5.47506 46.1376C5.64267 46.1376 5.78234 46.1376 5.94994 46.1376C5.86614 46.2299 5.78234 46.3069 5.69853 46.3992C5.64267 46.3069 5.55886 46.2299 5.47506 46.1376ZM0.949756 47.1225C0.726284 47.4457 0.446944 47.4611 0 47.4457C0 47.615 0 47.7997 0 47.969C0.586614 47.8458 1.20116 47.8612 1.67604 48.1075C1.78778 47.7997 1.45257 47.5842 0.949756 47.4457C1.25703 47.2303 1.59224 47.0148 1.89951 46.784C1.45257 46.784 1.17323 46.7994 0.949756 47.1225ZM2.37439 46.984C2.29059 47.0456 2.20679 47.1225 2.12298 47.1841C2.43026 47.0918 2.76547 47.0148 3.07274 46.9225C2.82133 46.8455 2.6258 46.784 2.37439 46.984ZM12.7379 46.9225C12.7658 46.9686 12.8217 47.0148 12.8496 47.061C12.7658 46.9686 12.682 46.8917 12.5982 46.7994C12.6541 46.8301 12.682 46.8763 12.7379 46.9225ZM67.3209 47.1225C67.4047 47.1379 67.4885 47.1687 67.5723 47.1841C67.4047 47.1379 67.2651 47.0918 67.0974 47.0456C67.1812 47.0764 67.2651 47.1071 67.3209 47.1225ZM66.2594 47.5073C66.3712 47.5227 66.5108 47.5534 66.6226 47.5688C66.3712 47.5227 66.1477 47.4765 65.8963 47.4303C66.0359 47.4765 66.1477 47.4919 66.2594 47.5073ZM5.00018 47.7843C4.83258 47.7997 4.69291 47.8304 4.52531 47.8458C5.41919 48.7846 2.65373 48.2152 2.6258 48.8923C4.4415 49.2771 5.11192 48.4614 6.42482 48.2306C6.03374 48.0151 5.53093 47.6919 5.00018 47.7843Z" fill="#1AB9A2"/>
</svg>
