<svg width="327" height="69" viewBox="0 0 327 69" fill="none" xmlns="http://www.w3.org/2000/svg">
<g clip-path="url(#clip0_1_1845)">
<path d="M163.545 0.0870797C163.364 0.108751 163.214 0.152092 163.033 0.173763C163.123 0.303788 163.214 0.412142 163.304 0.542168C157.998 -0.107958 154.833 1.27898 150.854 3.96616C148.231 6.2416 142.081 7.82357 140.724 10.5108C138.855 10.8792 135.268 14.0648 133.549 14.5632C133.549 14.9316 133.549 15.3 133.549 15.6684C132.042 15.6901 129.389 16.9903 130.203 18.4423C129.691 18.2473 129.178 18.0739 128.666 17.8789C128.424 18.3123 128.455 18.7674 129.178 18.8107C127.46 18.9407 124.686 20.176 124.807 21.5846C124.716 21.4545 124.626 21.3462 124.536 21.2162C123.661 21.4545 123.631 22.3647 123.511 23.0582C122.877 22.3864 121.4 23.1015 121.461 23.795C121.853 23.4483 123.028 22.6681 122.877 23.5133C116.969 25.2036 114.075 30.0579 109.131 32.6584C109.402 33.0268 109.643 33.3952 109.914 33.7636C108.769 33.1351 107.352 33.7202 107.081 34.6954C107.352 34.7604 107.593 34.8255 107.864 34.8905C107.442 34.8905 107.02 34.8905 106.568 34.8905C106.568 35.1939 106.568 35.4973 106.568 35.8223C105.634 34.8688 99.3632 41.045 99.6345 42.1069C101.142 41.4134 102.438 39.463 105.031 39.7014C104.398 38.2928 107.292 38.8129 108.377 39.333C108.467 39.0296 108.558 38.7262 108.648 38.4011C109.432 38.8129 111.211 37.7294 110.97 37.1009C110.698 37.1009 110.457 37.1009 110.186 37.1009C111.211 35.8006 108.377 35.5623 108.136 34.8905C108.829 35.0855 109.492 35.2589 110.186 35.4539C110.186 35.1505 110.186 34.8471 110.186 34.5221C111.844 35.1939 112.658 32.615 114.286 33.0485C114.105 32.68 113.954 32.3116 113.773 31.9432C114.376 32.1816 114.979 32.4417 115.582 32.68C115.371 32.3767 115.311 32.0299 115.853 31.9432C115.341 31.9432 114.828 31.9432 114.316 31.9432C114.617 31.2931 115.582 31.5315 116.366 31.7482C116.486 30.903 118.536 31.4231 118.687 30.4479C119.019 30.578 119.38 30.6863 119.712 30.8164C119.622 30.4479 119.531 30.0795 119.441 29.7111C119.863 29.7111 120.285 29.7111 120.737 29.7111C119.772 28.7793 121.28 28.4542 121.521 27.8691C123.058 29.0393 123.752 26.5689 124.083 25.8321C124.355 25.8971 124.596 25.9621 124.867 26.0271C124.505 25.442 123.963 23.6866 125.138 23.6216C125.018 24.2067 124.716 24.9869 125.41 25.2903C125.47 24.6618 125.741 24.0117 126.706 24.1851C126.586 24.5968 126.917 24.8569 127.49 24.9219C127.641 24.3368 127.098 23.8383 126.465 23.4483C128.213 24.055 128.786 23.2099 130.324 22.8848C129.751 22.6031 129.148 22.278 129.299 21.7796C129.148 22.8198 127.128 22.1697 128.274 21.4112C127.52 21.5196 126.525 21.6929 126.465 21.0428C128.816 20.7177 130.143 22.1914 131.861 21.9746C131.68 21.6713 131.53 21.3679 131.349 21.0428C132.223 20.9128 133.127 20.6094 132.645 19.9376C132.977 20.0026 133.338 20.0676 133.67 20.1326C133.399 19.8292 133.157 19.5258 132.886 19.2008C134.273 19.4392 134.906 18.4206 136.232 18.8324C136.232 18.659 136.232 18.464 136.232 18.2689C136.504 18.2689 136.745 18.2689 137.016 18.2689C137.016 18.1389 137.016 18.0305 137.016 17.9005C136.685 17.9655 136.323 18.0305 135.991 18.0956C135.991 17.8572 135.991 17.5971 135.991 17.3588C137.529 17.8572 137.649 16.752 138.825 16.4269C138.403 16.4269 137.981 16.4269 137.529 16.4269C138.132 14.9316 137.529 15.04 140.363 15.235C143.98 14.0214 140.694 14.1515 139.579 13.1113C140.634 12.8946 141.538 13.653 142.412 13.6747C142.412 13.4797 142.412 13.3063 142.412 13.1113C144.824 14.2381 145.367 11.1609 147.296 11.4426C147.266 10.9008 147.477 10.0773 146.784 9.96899C147.99 9.99066 147.718 9.01547 147.568 8.30033C148.894 8.40869 150.009 7.23846 151.426 7.93193C151.637 7.15178 149.949 6.65335 150.401 6.08991C152.632 6.26327 150.763 8.27866 151.698 8.86378C152.21 7.91026 154.984 5.74317 156.069 5.17973C156.069 5.41811 156.069 5.67816 156.069 5.91654C156.25 5.91654 156.4 5.91654 156.581 5.91654C156.581 5.54813 156.581 5.17973 156.581 4.81133C157.275 4.87634 157.938 4.94135 158.631 5.00636C158.39 4.39958 158.36 3.70611 159.415 3.70611C159.325 3.51107 159.234 3.33771 159.144 3.14267C159.415 3.14267 159.656 3.14267 159.928 3.14267C159.837 3.51107 159.747 3.87948 159.656 4.24788C161.495 4.03118 162.038 2.40586 163.515 1.84242C163.606 2.03746 163.696 2.21082 163.786 2.40586C161.978 2.9693 161.254 7.62854 159.174 7.9536C157.184 11.9627 151.396 15.4734 150.703 19.7642C150.19 19.6992 149.678 19.6342 149.165 19.5692C149.256 19.8076 149.346 20.0676 149.437 20.306C146.844 21.2378 145.487 25.2903 143.799 26.7639C144.402 26.8506 144.221 27.3273 144.071 27.6957C142.141 27.154 141.87 29.191 142.021 30.2746C141.749 30.1446 141.508 30.0362 141.237 29.9062C141.84 31.1414 139.096 31.3581 139.428 32.8534C139.699 32.7234 139.94 32.615 140.212 32.485C140.212 32.68 140.212 32.8534 140.212 33.0485C139.94 33.0485 139.699 33.0485 139.428 33.0485C139.428 33.2868 139.428 33.5469 139.428 33.7853C139.006 33.7202 138.584 33.6552 138.132 33.5902C138.554 34.4354 136.956 34.8038 137.499 35.5189C138.222 36.3207 137.107 36.3858 136.353 36.1691C136.594 37.1442 133.67 38.4445 134.936 39.593C135.66 39.6581 136.232 38.1844 135.841 37.8377C137.529 38.0761 135.479 39.1163 135.841 39.8748C136.172 39.8748 136.534 39.8748 136.866 39.8748C136.866 39.5064 136.866 39.138 136.866 38.7696C137.137 38.7696 137.378 38.7696 137.649 38.7696C137.468 39.3547 138.493 39.8314 139.187 40.2432C138.885 39.4847 139.006 38.7045 140.212 38.5745C139.518 38.3795 138.855 38.2061 138.162 38.0111C139.518 37.4043 139.187 36.3424 138.433 35.4322C138.765 35.3672 139.126 35.3022 139.458 35.2372C139.609 35.6056 139.79 36.0607 139.187 36.1691C140.332 36.5158 141.9 35.9957 141.237 35.0638C141.749 35.0638 142.262 35.0638 142.774 35.0638C142.774 34.7604 142.774 34.4571 142.774 34.132C143.136 34.6521 144.221 34.262 144.071 33.7636C143.648 33.7636 143.226 33.7636 142.774 33.7636C142.774 33.3952 142.774 33.0268 142.774 32.6584C143.046 32.7234 143.287 32.7884 143.558 32.8534C143.679 32.3333 143.769 31.8999 144.854 31.9216C146.633 31.7915 146.392 29.2561 147.929 28.7793C147.447 28.6059 146.965 28.6276 146.633 28.9743C146.874 28.2158 147.085 27.2407 147.658 26.7639C149.105 28.3892 150.07 26.1354 151.245 25.4636C150.22 25.1386 150.22 24.3584 150.462 23.6216C150.823 24.055 151.456 23.86 151.999 23.6216C151.909 23.7517 151.818 23.86 151.728 23.99C153.597 23.6866 150.431 22.3864 151.728 21.4112C152.783 22.3214 155.436 20.7827 153.024 20.306C153.778 20.176 153.326 19.2224 153.295 18.6373C153.808 18.7023 154.32 18.7674 154.833 18.8324C154.652 19.0707 154.501 19.3308 154.32 19.5692C155.466 19.5042 155.466 17.7055 157.395 17.9005C156.973 17.6621 156.551 17.4021 156.099 17.1637C157.154 17.3371 157.727 16.7736 157.908 16.0585C158.179 16.1885 158.42 16.2969 158.692 16.4269C159.295 14.9316 157.998 13.7831 158.179 12.3745C158.782 12.9162 161.646 13.5447 162.038 12.3745C161.435 12.3745 160.832 12.3745 160.229 12.3745C160.229 11.876 160.229 11.3993 160.229 10.9008C160.32 11.0959 160.41 11.2692 160.5 11.4643C164.118 11.1609 164.058 10.2074 165.113 8.14864C164.51 7.65021 163.545 6.97841 164.329 6.47998C164.48 6.97841 165.475 6.74003 166.138 6.67502C165.957 6.30661 165.806 5.93821 165.625 5.56981C165.897 5.56981 166.138 5.56981 166.409 5.56981C166.017 4.94135 166.5 4.20454 166.922 3.53275C166.108 3.51107 165.444 3.22935 165.625 2.6009C166.379 2.66591 167.133 2.55756 167.434 2.03746C166.078 1.86409 165.444 -0.498033 163.545 0.0870797ZM162.52 0.282117C162.611 0.303788 162.701 0.34713 162.792 0.368801C162.611 0.303788 162.46 0.238776 162.279 0.173763C162.37 0.217105 162.46 0.238776 162.52 0.282117ZM161.767 1.30065C161.947 1.30065 162.098 1.30065 162.279 1.30065C162.279 1.49569 162.279 1.66905 162.279 1.86409C162.098 1.66905 161.947 1.47401 161.767 1.30065ZM163.304 1.47401C163.485 1.60404 163.636 1.71239 163.817 1.84242C163.636 1.73406 163.485 1.60404 163.304 1.47401ZM160.229 2.21082C160.681 2.42753 160.742 2.79594 160.5 3.14267C160.38 2.83928 160.32 2.51422 160.229 2.21082ZM165.867 3.05599C165.957 3.07766 166.047 3.121 166.138 3.14267C165.957 3.07766 165.806 3.01265 165.625 2.94763C165.686 2.99097 165.776 3.01265 165.867 3.05599ZM152.783 3.51107C152.964 3.51107 153.115 3.51107 153.295 3.51107C153.205 3.6411 153.115 3.74945 153.024 3.87948C152.934 3.74945 152.873 3.6411 152.783 3.51107ZM153.295 4.05285C153.476 4.18287 153.627 4.29122 153.808 4.42125C153.627 4.3129 153.446 4.18287 153.295 4.05285ZM154.562 4.24788C155.225 4.5296 154.742 5.00636 154.29 5.3531C154.411 4.98469 154.501 4.61629 154.562 4.24788ZM164.6 4.42125C164.691 4.61629 164.781 4.78965 164.872 4.98469C164.751 4.78965 164.661 4.61629 164.6 4.42125ZM163.304 4.61629C164.118 5.02803 164.359 5.61315 163.575 6.08991C163.485 5.59148 163.395 5.11472 163.304 4.61629ZM166.771 5.07138C166.801 5.22307 166.861 5.37477 166.891 5.52646C166.982 5.22307 167.072 4.91968 167.163 4.59462C166.982 4.59462 166.831 4.59462 166.65 4.59462C166.68 4.76798 166.711 4.91968 166.771 5.07138ZM97.1926 5.7215C97.2227 5.78651 97.283 5.85153 97.3132 5.91654C97.2227 5.78651 97.1323 5.67816 97.0419 5.54813C97.1022 5.59148 97.1323 5.65649 97.1926 5.7215ZM93.9669 6.00322C93.1228 6.06824 92.9118 6.69669 92.6706 7.19512C91.7662 6.28494 88.6611 8.06195 88.6913 8.86378C89.1133 9.47056 91.103 9.29719 90.8618 10.3374C90.1383 10.4241 89.5052 10.2074 89.053 9.77395C88.5405 11.7243 87.9677 9.23218 87.0031 9.40555C87.0633 9.90398 86.8222 9.96899 85.5862 10.1424C83.6568 10.1857 83.9281 11.941 82.3906 11.9844C82.6619 12.2878 82.9031 12.5912 83.1744 12.9162C81.7575 12.8946 81.5767 14.6932 80.3407 14.5849C81.2149 14.3465 81.4259 13.5664 80.3407 13.4797C80.6723 16.7303 76.2407 13.9998 75.2157 17.3588C74.6731 15.7768 67.5886 20.5227 68.0408 21.6062C67.6188 21.6062 67.1967 21.6062 66.7445 21.6062C66.8651 22.2347 64.4233 22.3864 64.9357 23.2749C64.7549 23.1449 64.6041 23.0365 64.4233 22.9065C64.4233 24.3801 60.5042 24.3801 60.8358 26.0488C59.1777 26.2655 57.2785 27.1106 56.4646 28.2592C57.0976 27.9775 57.791 27.8474 58.5145 27.8908C58.3336 28.6493 55.0175 28.6276 54.4146 29.7328C52.8771 30.5996 53.6308 32.7884 54.9271 31.4015C55.2587 31.7699 55.6205 32.1383 55.9521 32.5067C56.1329 31.7049 57.1579 31.4231 58.2734 31.4015C58.2734 31.5965 58.2734 31.7699 58.2734 31.9649C59.2079 31.9432 59.6902 31.2931 60.0821 30.6647C60.5042 31.9432 62.2226 31.3365 62.6446 30.2963C62.8858 30.643 62.8556 30.9897 62.3733 31.2281C63.0064 30.7947 63.8203 30.5996 64.6946 30.6647C64.0916 29.7111 65.7497 28.1292 67.257 28.4542C67.257 28.3242 67.257 28.2159 67.257 28.0858C68.4629 28.1725 69.2467 27.284 70.6033 27.7174C70.0004 27.2407 70.6636 26.4388 69.307 26.0488C70.3923 25.7454 71.5077 25.6804 72.382 26.2438C72.593 25.442 72.8342 24.4018 73.9194 24.2067C71.6283 23.1882 73.7385 23.0799 74.4319 22.1697C74.6128 22.6681 74.7635 23.1449 74.9444 23.6433C74.643 23.0365 75.8488 23.0365 75.7282 22.5381C75.4569 22.5381 75.2157 22.5381 74.9444 22.5381C75.1554 21.1078 77.115 22.2997 78.0194 21.5196C79.6171 20.0026 75.7584 20.9778 74.9444 19.9593C75.9995 19.6775 76.3312 19.0491 75.9694 18.2906C76.3914 18.4856 76.8135 18.659 77.2657 18.854C75.3363 20.1543 78.4716 20.7827 78.2907 19.0491C79.5267 19.9809 80.7024 19.1141 81.8781 19.6125C81.9686 19.4175 82.059 19.2441 82.1495 19.0491C81.034 19.2224 79.8583 18.3773 80.0995 17.5755C79.6774 17.7055 79.2554 17.8138 78.8032 17.9439C79.0443 17.5971 79.0142 17.2504 78.5319 17.012C79.0443 16.947 79.5568 16.882 80.0693 16.817C79.4664 17.4671 81.0943 17.7055 81.8781 17.9222C81.9384 17.0337 83.6266 15.4084 84.4406 14.975C84.2597 15.2133 84.109 15.4734 83.9281 15.7118C84.3502 15.8418 84.7722 15.9501 85.2244 16.0802C84.1994 14.975 86.0685 14.9316 85.7369 13.8697C85.3148 12.9379 86.1891 12.7862 86.7619 13.3063C86.6714 13.1113 86.581 12.9379 86.4906 12.7429C87.1236 12.8729 87.2744 12.0711 87.5155 11.6376C87.5155 11.941 87.5155 12.2444 87.5155 12.5695C88.1185 12.5695 88.7214 12.5695 89.3243 12.5695C89.3243 12.2661 89.3243 11.9627 89.3243 11.6376C89.6559 11.7677 90.0177 11.876 90.3493 12.006C90.078 10.5324 92.4294 10.3157 92.6706 9.42722C92.9419 9.49223 93.1831 9.55724 93.4544 9.62226C93.0625 10.2507 92.4897 11.0092 93.1831 11.4643C92.4897 11.3343 91.8567 12.6128 91.3743 13.1329C91.6456 13.1979 91.8868 13.263 92.1581 13.328C92.1581 13.0896 92.1581 12.8295 92.1581 12.5912C92.8816 12.5478 93.0324 13.393 93.9669 13.328C93.2735 13.5664 92.6103 13.8264 91.9169 14.0648C92.8816 14.5849 91.7059 15.1483 90.892 14.8016C90.892 14.9316 90.892 15.04 90.892 15.17C91.1633 15.17 91.4045 15.17 91.6758 15.17C91.103 15.9068 89.9876 16.9687 90.1383 17.5755C90.4096 17.5755 90.6508 17.5755 90.9221 17.5755C90.8317 17.8138 90.7412 18.0739 90.6508 18.3123C90.8317 18.3123 90.9824 18.3123 91.1633 18.3123C90.5603 18.5723 90.7412 19.1358 90.892 19.6125C90.4699 19.3091 90.0479 19.0057 89.5957 18.6807C90.1986 19.8292 86.8825 20.3927 87.2744 21.4545C87.6964 21.4545 88.1185 21.4545 88.5707 21.4545C88.6611 24.2067 93.3941 22.3214 94.7206 21.4545C94.6301 21.1511 94.5397 20.8478 94.4492 20.5227C94.7206 20.5227 94.9617 20.5227 95.2331 20.5227C95.3537 20.176 94.9015 20.0459 94.4492 19.9593C94.7809 19.8942 95.1426 19.8292 95.4742 19.7642C95.3537 19.3958 94.8713 19.4392 94.4492 19.5692C94.4492 19.3308 94.4492 19.0707 94.4492 18.8324C94.7206 18.8324 94.9617 18.8324 95.2331 18.8324C95.1728 17.8138 93.153 16.3836 93.9368 15.1483C94.4191 15.6468 94.9316 16.4052 95.7456 16.2535C95.7456 16.3836 95.7456 16.4919 95.7456 16.6219C96.3786 16.1235 97.1624 16.5786 97.7955 16.9903C97.9463 16.0152 98.308 14.8449 99.8455 15.1483C99.8455 15.3434 99.8455 15.5167 99.8455 15.7118C100.358 15.3217 101.051 15.43 101.654 15.7118C102.046 14.975 103.403 13.588 102.167 13.3063C102.438 13.0679 102.679 12.8079 102.951 12.5695C102.679 12.5695 102.438 12.5695 102.167 12.5695C102.408 12.1361 102.378 11.681 101.654 11.6376C101.654 11.8327 101.654 12.006 101.654 12.2011C101.473 12.2011 101.323 12.2011 101.142 12.2011C101.323 12.3961 101.473 12.5695 101.654 12.7645C100.659 12.6345 98.6396 13.1763 98.8205 14.0648C99.8756 13.4147 102.619 15.2783 100.479 15.2567C99.4837 14.6066 96.9213 14.2165 98.5492 13.1329C93.6956 12.6128 100.298 11.2909 98.8205 9.44889C100.961 10.2941 103.312 7.58519 99.8455 8.51704C100.117 8.14864 100.358 7.78023 100.629 7.41183C100.931 7.71522 101.413 7.82357 101.926 7.78023C102.106 7.21679 99.122 6.54499 98.0668 6.11158C98.2477 6.65335 97.4639 6.87006 96.7705 7.04342C97.283 7.2818 97.7955 7.54185 98.308 7.78023C94.9316 7.26013 98.2779 9.86063 96.7705 10.3591C96.8911 9.42722 94.4191 9.42722 93.9368 9.99066C94.2382 9.44889 94.7809 8.73375 94.7206 8.322C94.389 8.45203 94.0272 8.56038 93.6956 8.69041C93.7257 7.88859 94.2985 7.26013 95.2331 6.84839C95.4742 7.2818 95.836 7.69355 96.5294 7.5852C96.65 6.34996 95.5948 5.67816 93.9669 6.00322ZM166.379 6.28494C166.469 6.34996 166.56 6.41497 166.65 6.47998C166.469 6.34996 166.319 6.2416 166.138 6.11158C166.198 6.15492 166.289 6.21993 166.379 6.28494ZM148.412 6.65335C148.502 6.89173 148.593 7.15178 148.683 7.39016C148.412 7.39016 148.17 7.39016 147.899 7.39016C148.08 7.13011 148.231 6.89173 148.412 6.65335ZM92.7008 7.19512C92.7912 7.32514 92.8816 7.4335 92.9721 7.56352C92.8515 7.45517 92.7912 7.32514 92.7008 7.19512ZM91.9169 7.56352C92.0074 7.69355 92.0978 7.8019 92.1883 7.93193C92.0978 7.82357 92.0074 7.69355 91.9169 7.56352ZM94.6301 7.84525C94.6 7.93193 94.5397 8.04028 94.5096 8.12697C94.8412 7.99694 95.2029 7.88859 95.5345 7.75856C95.2632 7.69355 95.022 7.62854 94.7507 7.56352C94.6904 7.65021 94.6603 7.75856 94.6301 7.84525ZM206.173 8.04028C204.997 9.1455 201.922 9.88231 201.048 11.0959C200.776 11.0309 200.535 10.9658 200.264 10.9008C200.023 11.4426 199.992 12.8946 199.239 12.7429C199.239 12.4395 199.239 12.1361 199.239 11.811C198.214 11.7677 195.832 12.6128 196.676 13.653C195.983 13.653 195.32 13.653 194.626 13.653C194.837 14.2165 195.38 15.0833 194.355 15.1267C194.626 15.5601 194.868 15.9935 195.139 16.4269C194.626 16.4919 194.114 16.5569 193.601 16.6219C194.234 16.3402 193.993 15.6684 193.873 15.1483C193.421 15.6034 192.757 15.7334 192.064 15.5167C192.637 15.8418 192.938 16.2969 192.848 16.817C192.215 16.7736 191.642 16.5569 191.823 16.0802C191.22 16.3619 190.436 16.7736 190.014 16.2752C189.11 18.399 188.235 17.8789 185.643 18.9407C182.809 20.1326 184.618 22.6681 180.518 21.8013C180.789 22.6464 178.287 22.7331 178.468 23.6433C177.744 23.2316 175.694 24.4885 176.418 25.1169C172.8 25.312 173.102 29.4511 169.243 28.996C169.394 29.4511 168.308 29.6678 167.705 29.9278C167.796 30.0579 167.886 30.1662 167.977 30.2963C167.645 30.2963 167.283 30.2963 166.952 30.2963C167.133 30.5346 167.283 30.7947 167.464 31.0331C162.611 30.8164 164.51 35.6923 162.339 33.8069C162.55 34.2187 162.611 34.6738 162.068 34.9121C162.249 35.0422 162.4 35.1505 162.581 35.2805C162.158 35.3456 161.736 35.4106 161.284 35.4756C161.375 35.714 161.465 35.974 161.556 36.2124C160.681 35.7573 159.174 35.9307 157.968 36.0174C158.39 36.3858 158.812 36.7542 159.264 37.1226C158.933 37.2526 158.571 37.361 158.239 37.491C156.039 35.8006 155.134 39.2897 159.023 38.4228C159.204 38.8996 157.637 39.2463 156.973 39.528C156.913 39.0296 156.34 38.8996 155.677 38.9646C155.828 38.4878 155.285 38.2711 154.652 38.2278C154.652 38.4662 154.652 38.7262 154.652 38.9646C154.381 38.8346 154.139 38.7262 153.868 38.5962C153.778 39.0946 153.597 39.6581 152.843 39.528C152.843 39.7664 152.843 40.0265 152.843 40.2648C153.024 40.2648 153.175 40.2648 153.356 40.2648C152.421 41.24 148.834 40.7633 150.009 43.0387C150.733 42.4319 151.758 41.7385 152.572 42.4753C151.336 44.1873 148.14 42.8437 146.151 43.7755C145.909 44.8374 143.558 45.8776 145.879 47.2862C144.613 47.5246 144.372 46.6144 144.342 45.8126C141.538 46.6361 139.549 49.3883 136.383 50.6018C136.715 50.7319 137.077 50.8402 137.408 50.9702C135.78 50.8619 132.946 52.5305 132.796 53.5491C133.127 53.4841 133.489 53.4191 133.821 53.354C131.379 54.5243 135.177 56.388 133.037 55.9329C133.218 56.1279 133.368 56.3013 133.549 56.4963C132.826 56.388 131.319 56.4746 131.499 55.9329C131.921 55.9979 132.344 56.0629 132.796 56.1279C133.007 55.5861 132.193 55.4561 131.499 55.3911C131.59 55.1527 131.68 54.8927 131.771 54.6543C130.535 54.3942 129.329 54.5676 129.208 55.5861C128.515 55.3911 127.852 55.2177 127.158 55.0227C128.424 55.0444 129.329 54.3509 129.992 53.5491C128.967 53.5491 127.942 53.5491 126.917 53.5491C127.158 54.7626 125.802 55.2611 126.405 56.4963C126.736 56.4313 127.098 56.3663 127.43 56.3013C127.339 57.0814 128.937 57.9699 129.992 57.9699C129.902 57.5365 129.811 57.1031 129.721 56.6697C132.313 57.6665 138.614 56.1712 139.217 54.2642C139.488 54.3292 139.729 54.3942 140.001 54.4593C140.001 54.2209 140.001 53.9608 140.001 53.7224C141.357 54.0692 142.201 52.4872 143.347 52.6172C143.437 51.4253 148.231 50.5368 148.984 49.1932C150.04 48.0013 153.537 47.4596 153.084 45.7692C153.506 46.3544 155.285 45.8559 154.622 45.2058C154.351 45.3358 154.109 45.4442 153.838 45.5742C153.928 45.2708 154.019 44.9674 154.109 44.6424C156.853 45.7692 157.245 43.1037 159.234 42.7137C160.44 41.9985 164.058 40.8066 163.334 39.2897C164.631 39.8748 166.168 37.6643 167.434 37.9894C167.434 37.751 167.434 37.491 167.434 37.2526C169.424 36.3207 174.73 34.3487 173.855 32.2683C174.277 32.2683 174.699 32.2683 175.152 32.2683C174.971 31.5315 177.292 29.6678 178.498 30.2312C178.498 29.8628 178.498 29.4944 178.498 29.126C178.769 29.126 179.01 29.126 179.282 29.126C179.191 29.3211 179.101 29.4944 179.01 29.6895C181.211 28.3675 185.552 26.6122 186.969 24.7052C188.868 24.8785 190.466 22.2564 190.828 21.5629C190.828 21.7579 190.828 21.9313 190.828 22.1263C191.672 21.8663 192.637 21.7146 193.149 22.3214C191.582 22.6031 188.537 24.1634 189.29 25.637C187.21 25.8104 184.316 30.5563 184.919 31.9216C184.738 31.9216 184.588 31.9216 184.407 31.9216C184.497 32.29 184.588 32.6584 184.678 33.0268C183.743 32.7667 183.894 33.8936 183.141 33.7636C182.99 34.1537 183.683 34.2403 184.166 34.327C181.814 34.327 181.482 37.361 181.603 38.7479C177.533 43.1037 174.941 50.7752 174.428 56.2796C174.247 56.2796 174.097 56.2796 173.916 56.2796C174.036 56.8214 174.308 57.4715 173.644 57.7532C174.097 57.9699 174.157 58.3383 173.916 58.6851C174.971 59.1185 175.996 59.7469 176.991 60.3537C176.84 59.5736 177.111 58.8151 178.287 58.6851C178.196 58.9234 178.106 59.1835 178.016 59.4219C178.619 59.4219 179.432 59.4869 179.553 59.0535C179.432 59.5736 179.734 60.0287 180.337 60.3537C181.302 58.8151 184.256 58.8151 186.125 57.6665C188.145 57.1248 185.341 55.9762 186.517 55.001C186.818 55.5645 187.753 55.5861 188.567 55.5645C187.21 54.6326 190.074 53.3107 189.351 55.001C190.979 55.1961 191.973 54.5026 192.184 53.3324C192.938 54.2859 194.204 53.0073 194.234 52.2272C193.662 52.3138 193.3 52.0755 193.209 51.6637C194.325 51.382 194.506 49.6483 196.284 50.5585C196.465 50.2551 196.616 49.9517 196.797 49.6267C197.309 49.865 197.822 50.1251 198.334 50.3635C197.641 47.9147 204.213 48.153 201.681 45.9426C201.952 46.0076 202.193 46.0726 202.464 46.1376C202.555 45.8343 202.645 45.5309 202.736 45.2058C203.61 45.8126 206.173 45.0324 205.811 44.1006C205.63 44.2956 205.479 44.469 205.298 44.664C205.027 44.534 204.786 44.4256 204.514 44.2956C205.087 43.7538 205.901 43.4505 206.836 43.5588C206.836 43.3204 206.836 43.0604 206.836 42.822C207.348 42.952 207.861 43.0604 208.373 43.1904C208.283 42.822 208.192 42.4536 208.102 42.0852C209.097 42.0202 210.755 42.0202 210.423 41.1533C210.182 41.1533 209.911 41.1533 209.639 41.1533C214.403 39.2246 219.015 35.1722 223.748 32.9401C227.516 30.2529 234.269 28.5626 236.59 25.2903C236.922 25.4203 237.284 25.5287 237.615 25.6587C237.615 25.4203 237.615 25.1603 237.615 24.9219C238.037 24.9219 238.46 24.9219 238.912 24.9219C238.821 24.6835 238.731 24.4234 238.64 24.1851C238.912 24.1851 239.153 24.1851 239.424 24.1851C239.424 24.0117 239.424 23.8167 239.424 23.6216C241.203 24.9002 243.675 21.8229 245.574 21.953C245.242 20.6961 247.292 19.6125 248.92 20.2843C248.951 19.2224 251.694 18.6373 252.9 18.2473C254.256 17.8789 255.462 16.6436 257.15 16.947C257.15 16.7086 257.15 16.4486 257.15 16.2102C258.025 16.4919 259.592 16.2535 259.713 15.4734C261.642 17.4021 255.824 20.2843 255.613 22.2997C252.779 25.8537 248.83 30.903 246.87 34.8471C245.303 36.7325 242.137 39.138 242.258 41.6735C242.077 41.6084 241.926 41.5434 241.745 41.4784C241.052 43.1254 240.449 44.729 239.696 46.2677C239.424 46.2677 239.183 46.2677 238.912 46.2677C238.52 48.4348 236.199 53.159 238.128 55.3044C236.59 56.1279 238.61 57.0381 239.937 57.1464C239.756 56.9514 239.605 56.778 239.424 56.583C240.992 56.1929 241.534 58.1 242.891 56.9514C245.574 56.2146 246.961 56.4963 245.845 54.1775C246.026 54.3726 246.177 54.5459 246.358 54.741C246.509 54.2425 247.353 54.5893 247.895 54.741C247.021 52.4005 251.875 52.3572 252.659 50.6885C253.261 49.8434 255.492 49.93 256.246 49.0199C256.789 49.1499 259.803 46.116 260.497 46.8094C260.587 46.441 260.678 46.0726 260.768 45.7042C260.949 45.8343 261.1 45.9426 261.28 46.0726C261.793 45.6392 262.486 45.2275 263.089 45.7042C263.089 45.5092 263.089 45.3358 263.089 45.1408C263.933 45.0108 266.013 43.4721 266.436 42.9304C268.546 42.692 270.837 39.1813 273.61 39.7881C273.52 39.5497 273.43 39.2897 273.339 39.0513C273.761 39.1163 274.183 39.1813 274.635 39.2463C274.635 39.1163 274.635 39.0079 274.635 38.8779C275.751 39.2463 276.082 36.7758 277.198 37.4043C277.017 37.5993 276.866 37.7727 276.685 37.9677C277.017 38.0978 277.379 38.2061 277.71 38.3361C277.831 37.5126 279.881 37.2093 279.248 35.9307C279.821 36.0174 280.182 35.779 280.273 35.3672C282.745 37.4476 281.871 30.8814 284.373 33.6986C284.644 33.3952 284.885 33.0918 285.157 32.7667C285.247 32.9618 285.337 33.1351 285.428 33.3302C285.609 33.0918 285.759 32.8317 285.94 32.5934C286.121 32.6584 286.272 32.7234 286.453 32.7884C286.031 32.3767 285.428 32.2033 284.915 32.5934C285.036 31.5532 287.9 31.7915 288.503 31.1197C288.684 31.3148 288.834 31.4881 289.015 31.6832C290.281 27.479 303.847 23.5783 309.033 21.3462C307.284 20.5444 315.122 17.3804 316.208 18.2039C316.599 17.2287 317.896 16.7953 319.283 16.5353C317.715 22.2997 307.555 27.6957 304.661 32.9618C301.858 33.5902 300.441 37.1226 300.049 38.8779C297.456 37.9027 298.903 40.0915 297.095 40.6332C295.376 41.8251 292.693 43.4938 294.412 45.3358C292.874 45.1408 291.216 45.8776 293.387 46.6361C292.814 47.2429 291.608 46.3977 290.824 47.0045C291.427 47.2645 292 47.6329 291.608 48.1097C291.789 48.0447 291.94 47.9797 292.12 47.9147C292.12 48.1097 292.12 48.2831 292.12 48.4781C291.548 48.3914 291.186 48.6298 291.095 49.0415C290.673 48.8465 290.251 48.6731 289.799 48.4781C288.171 49.735 290.191 50.6885 290.07 52.1621C287.568 51.382 285.277 53.1807 288.533 53.2674C288.382 55.4561 288.141 54.5459 286.212 54.5676C286.393 54.3292 286.543 54.0692 286.724 53.8308C285.307 53.7658 285.488 54.871 285.699 55.6728C285.518 55.6078 285.368 55.5428 285.187 55.4778C285.126 55.9329 284.825 56.3446 284.162 56.2146C285.79 57.4065 281.81 57.7966 282.112 58.9885C282.443 58.9885 282.805 58.9885 283.137 58.9885C282.715 59.5519 282.624 60.137 283.137 60.6571C281.991 60.267 280.876 63.4743 282.112 63.2359C282.021 62.9976 281.931 62.7375 281.84 62.4991C282.021 62.4991 282.172 62.4991 282.353 62.4991C282.353 62.6942 282.353 62.8675 282.353 63.0626C282.685 63.0626 283.046 63.0626 283.378 63.0626C281.509 64.0161 286.121 65.5547 283.378 66.3782C284.343 66.79 285.79 65.9448 285.187 65.273C290.432 64.8396 291.337 60.8522 294.442 58.5334C297.577 56.2363 298.12 53.3107 299.567 50.8836C299.567 51.1219 299.567 51.382 299.567 51.6204C302.009 51.5337 300.772 48.9982 302.913 49.0415C302.732 48.8032 302.581 48.5431 302.4 48.3047C304.028 47.8496 305.355 45.8993 305.988 44.9891C305.717 45.0541 305.475 45.1191 305.204 45.1841C304.963 44.8374 304.993 44.4907 305.475 44.2523C305.204 44.2523 304.963 44.2523 304.692 44.2523C304.692 44.1223 304.692 44.0139 304.692 43.8839C306.5 44.2306 308.792 43.1471 307.013 42.0419C307.344 41.9118 307.706 41.8035 308.038 41.6735C307.947 41.9118 307.857 42.1719 307.767 42.4103C310.661 40.9583 312.288 37.2309 314.429 35.2155C315.574 33.0701 319.524 31.3148 319.041 28.7576C319.373 28.8226 319.735 28.8876 320.066 28.9527C321.423 26.6339 323.262 21.7363 324.679 19.3525C326.246 18.5723 324.317 15.2783 325.704 14.1948C325.432 14.3248 325.191 14.4332 324.92 14.5632C325.523 13.0679 321.393 13.718 321.574 12.7212C321.001 12.6778 320.488 12.8295 320.036 13.0896C320.217 13.2846 320.368 13.458 320.549 13.653C319.433 14.4115 318.8 13.0246 319.252 12.3528C318.077 12.2011 316.841 12.7429 317.444 13.653C316.238 13.1546 316.901 11.9194 314.489 13.0029C313.072 13.9998 310.57 13.653 311.022 14.9316C309.575 14.3465 308.761 16.1018 307.435 15.8635C307.555 16.2752 307.224 16.5353 306.651 16.6003C306.832 16.6653 306.983 16.7303 307.164 16.7953C306.983 17.0337 306.832 17.2937 306.651 17.5321C305.234 15.7118 303.486 18.6807 301.375 18.8324C299.959 20.241 297.004 20.0026 296.612 21.7796C295.648 21.2595 295.256 22.8415 294.291 22.343C294.291 22.5381 294.291 22.7115 294.291 22.9065C293.145 22.148 291.638 23.4916 291.729 24.3801C291.397 24.1851 291.035 24.0117 290.704 23.8167C290.372 25.1169 286.935 24.8135 288.382 26.5905C284.343 26.4172 282.775 28.801 279.79 30.1012C277.982 31.4448 275.992 31.1848 275.299 33.4169C275.027 33.2218 274.786 33.0485 274.515 32.8534C274.334 33.0485 274.183 33.2218 274.002 33.4169C274.274 33.4819 274.515 33.5469 274.786 33.6119C269.42 35.0638 265.26 38.7696 260.798 41.0883C256.728 42.4319 251.965 45.2708 248.86 47.2645C248.951 47.0695 249.041 46.8961 249.131 46.7011C247.715 46.5061 245.665 46.8745 244.519 46.3327C244.127 45.3142 246.358 44.9241 245.303 43.9272C246.72 44.339 246.418 42.1936 247.624 42.4536C247.624 42.692 247.624 42.952 247.624 43.1904C247.895 43.1254 248.137 43.0604 248.408 42.9954C247.745 42.4103 247.594 41.6951 247.895 40.9583C248.317 41.0233 248.739 41.0883 249.192 41.1533C249.192 41.0233 249.192 40.915 249.192 40.7849C249.463 40.7849 249.704 40.7849 249.976 40.7849C248.83 39.9181 251.423 39.463 251 38.5745C250.609 38.9429 250.036 39.203 249.463 38.9429C250.006 38.5745 249.795 38.1411 249.192 37.8377C250.066 37.816 250.337 37.3176 250.217 36.7325C251.061 37.0359 251.784 35.5623 252.538 35.9957C252.357 36.2341 252.206 36.4941 252.025 36.7325C252.689 36.5375 253.081 36.3641 252.809 35.6273C252.448 34.5654 254.347 34.5437 253.593 33.4169C253.955 33.8503 254.588 33.6552 255.131 33.4169C254.859 33.0485 254.618 32.68 254.347 32.3116C258.688 32.68 254.136 27.414 257.934 28.4326C257.934 28.2375 257.934 28.0642 257.934 27.8691C259.23 27.7391 259.864 25.9621 260.617 25.377C261.341 25.1603 259.803 22.9498 261.522 23.6216C261.431 23.7517 261.341 23.86 261.25 23.99C263.843 23.3182 264.838 20.6961 265.742 19.0057C266.375 18.1389 268.003 18.9191 267.551 17.5321C267.852 16.3619 269.209 15.43 269.209 14.2165C267.461 14.8016 267.4 13.2846 268.938 13.2846C268.938 13.523 268.938 13.7831 268.938 14.0214C269.269 13.9564 269.631 13.8914 269.963 13.8264C269.872 13.588 269.782 13.328 269.691 13.0896C270.686 13.1329 270.445 11.2692 269.963 10.8792C270.234 10.8142 270.475 10.7491 270.746 10.6841C270.746 10.9225 270.746 11.1826 270.746 11.4209C271.5 10.8358 270.505 10.1857 271.018 9.38388C270.746 9.57891 270.505 9.75228 270.234 9.94732C270.234 9.34053 270.234 8.71208 270.234 8.1053C269.209 8.23532 268.184 8.34367 267.159 8.4737C267.43 9.40555 267.672 10.3157 267.943 11.2476C266.466 10.9225 265.531 10.2941 263.572 10.6841C263.843 9.83896 266.225 10.099 265.893 8.8421C265.26 8.90712 264.687 9.10215 264.597 9.57891C263.481 8.56038 260.467 8.75542 260.225 10.1424C250.096 11.9194 240.148 18.594 231.224 22.148C231.315 22.278 231.405 22.3864 231.496 22.5164C229.838 23.0148 228.3 23.6216 226.732 24.2718C225.316 24.9436 224.833 26.5255 223.024 25.8321C223.235 26.8506 223.597 27.6307 221.608 27.5007C218.593 28.8226 215.066 31.2498 212.503 33.1351C211.508 34.0453 210.423 33.6769 209.157 34.8038C207.891 35.909 207.017 37.1226 205.057 37.3826C205.811 38.0544 205.811 38.8346 204.273 38.9429C204.183 38.7045 204.092 38.4445 204.002 38.2061C202.917 38.2711 201.53 39.0729 202.464 39.8748C201.017 39.7231 200.897 40.9583 199.631 40.8066C202.856 42.627 195.32 41.4784 196.284 43.5805C196.556 43.5805 196.797 43.5805 197.068 43.5805C196.978 44.1006 195.802 44.4473 195.772 45.2491C195.29 45.0758 194.596 44.9024 194.747 44.5123C195.169 44.5123 195.591 44.5123 196.043 44.5123C196.043 44.2739 196.043 44.0139 196.043 43.7755C194.687 44.2089 192.968 45.2708 193.209 46.7228C191.31 44.1006 189.622 49.1499 187.301 48.9332C189.381 49.9951 182.658 50.8186 187.301 51.3386C186.065 51.187 185.07 51.577 184.738 52.4439C184.557 52.3789 184.407 52.3138 184.226 52.2488C184.407 52.0538 184.557 51.8804 184.738 51.6854C183.231 51.6854 182.809 53.1807 183.442 54.0909C181.151 55.066 177.021 52.4222 180.88 52.9856C180.97 52.7906 181.06 52.6172 181.151 52.4222C180.397 52.5522 179.975 51.9671 179.613 51.4903C180.849 51.5337 184.286 51.1219 181.935 50.3851C182.266 50.3201 182.628 50.2551 182.96 50.1901C182.538 49.8434 182.025 49.3666 182.688 49.0849C181.482 48.8248 183.05 46.8528 183.472 48.3481C183.653 48.218 183.804 48.1097 183.985 47.9797C181.874 47.1778 182.779 45.7259 185.01 46.311C185.07 45.5309 183.201 45.3142 183.985 44.274C184.799 44.4473 185.221 44.9457 185.281 45.5742C187.391 44.5773 185.703 43.9272 184.768 42.8003C184.949 42.6703 185.1 42.562 185.281 42.4319C185.281 42.627 185.281 42.8003 185.281 42.9954C186.185 42.952 186.065 42.1069 186.065 41.5218C186.668 41.7168 187.271 41.8902 187.874 42.0852C188.296 41.4134 187.874 40.1348 186.577 40.6116C186.668 40.8066 186.758 40.98 186.849 41.175C186.577 41.175 186.336 41.175 186.065 41.175C186.215 40.6766 185.613 40.3515 185.04 40.0698C185.552 39.6364 186.065 39.203 186.577 38.7696C186.487 39.3547 186.698 39.8964 187.361 40.2432C188.296 39.5714 189.23 38.8996 190.195 38.2061C190.014 38.0761 189.863 37.9677 189.682 37.8377C189.411 38.1411 189.17 38.4445 188.898 38.7696C186.125 37.0576 195.139 35.8006 189.923 35.6273C190.285 35.0422 190.948 33.5469 189.923 33.2218C191.28 33.0918 190.466 34.5004 191.069 34.7821C193.692 34.7821 194.868 30.7947 193.752 29.7111C193.481 29.7762 193.24 29.8412 192.968 29.9062C192.968 29.6678 192.968 29.4077 192.968 29.1694C193.511 29.2561 194.415 29.2777 194.265 29.7328C195.109 29.6895 195.32 28.866 195.561 28.2592C195.048 28.3242 194.536 28.3892 194.023 28.4542C194.355 28.2592 194.717 28.0858 195.048 27.8908C194.777 27.8908 194.536 27.8908 194.265 27.8908C194.325 27.3273 195.29 27.1323 196.073 26.9589C193.843 25.6804 197.249 24.8135 197.731 24.0117C197.249 22.8415 199.962 22.278 199.902 21.4329C200.505 21.4329 201.108 21.4329 201.711 21.4329C201.711 21.1945 201.711 20.9344 201.711 20.6961C201.53 20.6961 201.379 20.6961 201.198 20.6961C201.289 19.3091 202.193 18.2256 204.032 17.7488C203.61 17.1854 203.188 16.6436 202.736 16.0802C203.188 15.7984 203.64 16.1669 204.032 16.4486C203.52 15.0183 205.781 14.3248 205.057 12.9379C205.479 12.9379 205.901 12.9379 206.353 12.9379C206.293 12.3311 206.323 11.681 207.137 11.4643C206.956 11.2692 206.806 11.0959 206.625 10.9008C207.047 10.7708 207.469 10.6625 207.921 10.5324C207.017 9.77395 208.795 7.9536 206.173 8.04028ZM98.4588 8.12697C98.5793 8.12697 98.7301 8.12697 98.8507 8.12697C98.7602 8.36535 98.6698 8.6254 98.5793 8.86378C98.0367 8.69041 97.5544 8.14864 98.4588 8.12697ZM148.924 8.40869C148.321 8.71208 148.683 9.21051 148.924 9.60058C148.713 9.01547 149.768 8.64707 150.462 8.30033C149.919 8.19198 149.437 8.1053 148.924 8.40869ZM160.983 8.12697C161.405 8.43036 161.827 8.73375 162.279 9.05881C161.345 8.69041 160.591 9.40555 159.958 9.99066C160.32 9.3622 160.651 8.73375 160.983 8.12697ZM163.817 8.30033C163.907 8.43036 163.997 8.53871 164.088 8.66874C163.907 8.66874 163.756 8.66874 163.575 8.66874C163.636 8.56038 163.726 8.43036 163.817 8.30033ZM146.874 8.66874C147.055 8.79876 147.206 8.90712 147.387 9.03714C147.206 8.92879 147.055 8.79876 146.874 8.66874ZM94.7507 9.1455C94.7507 9.23218 94.7507 9.34053 94.7507 9.42722C94.9316 9.42722 95.0823 9.42722 95.2632 9.42722C95.2632 9.23218 95.2632 9.05881 95.2632 8.86378C95.0823 8.86378 94.9316 8.86378 94.7507 8.86378C94.7507 8.95046 94.7507 9.03714 94.7507 9.1455ZM91.6758 9.23218C91.7662 9.42722 91.8567 9.60058 91.9471 9.79562C91.5552 9.86063 91.2839 9.68727 91.1633 9.42722C91.314 9.36221 91.4949 9.29719 91.6758 9.23218ZM158.692 9.40555C158.873 9.47056 159.023 9.53557 159.204 9.60058C159.023 9.53557 158.842 9.47056 158.692 9.40555ZM161.254 9.40555C161.435 9.47056 161.586 9.53557 161.767 9.60058C161.586 9.53557 161.405 9.47056 161.254 9.40555ZM147.899 9.77395C147.899 9.83896 147.899 9.90398 147.899 9.96899C148.17 9.90398 148.412 9.83896 148.683 9.77395C148.412 9.70894 148.17 9.64393 147.899 9.57891C147.899 9.6656 147.899 9.73061 147.899 9.77395ZM162.792 9.60058C162.972 9.73061 163.123 9.83896 163.304 9.96899C163.033 10.034 162.792 10.099 162.52 10.164C162.611 9.96899 162.701 9.77395 162.792 9.60058ZM145.729 10.2507C146.392 10.3374 146.392 10.5758 146.362 10.9008C146.09 10.9008 145.849 10.9008 145.578 10.9008C145.578 11.1392 145.578 11.3993 145.578 11.6376C144.643 11.7893 144.523 9.96899 145.729 10.2507ZM97.0419 11.2692C97.2227 11.3343 97.3735 11.3993 97.5544 11.4643C97.4036 11.3776 97.2227 11.3126 97.0419 11.2692ZM143.287 11.2692C143.377 11.2692 143.468 11.2692 143.558 11.2692C143.166 11.5943 143.679 11.9194 144.071 12.2011C143.558 12.0711 143.046 11.9627 142.533 11.8327C142.714 11.5943 142.955 11.2476 143.287 11.2692ZM92.9419 11.811C93.1228 11.876 93.2735 11.941 93.4544 12.006C93.3037 11.941 93.1228 11.876 92.9419 11.811ZM99.8756 12.006C99.8756 12.0711 99.8756 12.1361 99.8756 12.2011C100.207 12.2011 100.569 12.2011 100.901 12.2011C100.901 12.0711 100.901 11.9627 100.901 11.8327C100.569 11.8327 100.207 11.8327 99.8756 11.8327C99.8756 11.876 99.8756 11.941 99.8756 12.006ZM159.445 12.006C159.536 12.1361 159.626 12.2444 159.717 12.3745C159.626 12.2444 159.536 12.1144 159.445 12.006ZM140.453 12.1794C140.875 12.2444 141.297 12.3094 141.749 12.3745C141.418 12.5045 141.056 12.6128 140.724 12.7429C140.634 12.5478 140.543 12.3745 140.453 12.1794ZM142.503 12.3745C142.835 12.4395 143.196 12.5045 143.528 12.5695C143.196 12.6345 142.835 12.6995 142.503 12.7645C142.503 12.6128 142.503 12.4828 142.503 12.3745ZM268.576 12.7429C268.666 12.8729 268.757 12.9812 268.847 13.1113C268.757 12.9812 268.666 12.8512 268.576 12.7429ZM197.189 12.9162C197.611 12.9812 198.033 13.0463 198.485 13.1113C197.731 13.3063 197.792 13.7831 198.214 14.2165C197.611 13.9348 196.948 13.8264 196.405 14.2165C197.008 13.8914 197.309 13.4363 197.189 12.9162ZM262.155 12.9162C262.818 13.8047 261.22 15.2783 259.592 15.3217C259.592 15.1267 259.592 14.9533 259.592 14.7582C259.864 14.7582 260.105 14.7582 260.376 14.7582C260.105 14.6282 259.864 14.5199 259.592 14.3898C260.436 13.9131 261.311 13.4147 262.155 12.9162ZM84.4707 13.2846C85.3148 13.328 85.2847 14.0214 85.2545 14.5849C84.8325 14.5849 84.4104 14.5849 83.9582 14.5849C84.1391 14.1515 84.2899 13.718 84.4707 13.2846ZM101.413 13.2846C101.594 13.4797 101.745 13.653 101.926 13.8481C101.594 13.9781 101.232 14.0865 100.901 14.2165C101.082 13.9131 101.262 13.588 101.413 13.2846ZM84.7421 13.7614C84.8325 13.7831 84.9229 13.8264 85.0134 13.8481C84.8325 13.7831 84.6818 13.718 84.5009 13.653C84.5612 13.6964 84.6516 13.718 84.7421 13.7614ZM159.053 14.3032C159.084 14.4549 159.144 14.6066 159.174 14.7582C159.355 14.5199 159.506 14.2598 159.686 14.0214C159.415 13.9564 159.174 13.8914 158.903 13.8264C158.993 13.9998 159.023 14.1515 159.053 14.3032ZM86.792 14.2165C86.8825 14.2815 86.9729 14.3465 87.0633 14.4115C86.8825 14.2815 86.7317 14.1731 86.5508 14.0431C86.6111 14.0865 86.7016 14.1515 86.792 14.2165ZM157.154 14.0214C157.335 14.0214 157.486 14.0214 157.667 14.0214C157.576 14.1515 157.486 14.2598 157.395 14.3898C157.305 14.2815 157.214 14.1515 157.154 14.0214ZM326.729 14.5849C326.759 14.7149 326.819 14.8233 326.849 14.9533C327.06 14.6499 327.121 14.3032 326.578 14.2165C326.638 14.3465 326.699 14.4549 326.729 14.5849ZM79.2252 14.7582C79.2554 14.8233 79.3157 14.8883 79.3458 14.9533C79.2554 14.8233 79.1649 14.7149 79.0745 14.5849C79.1348 14.6499 79.1649 14.7149 79.2252 14.7582ZM156.37 14.5849C156.943 14.4982 157.305 14.7366 157.395 15.1483C157.064 15.2133 156.702 15.2783 156.37 15.3434C156.37 15.0833 156.37 14.8233 156.37 14.5849ZM196.164 14.5849C196.435 14.5849 196.676 14.5849 196.948 14.5849C196.857 14.8883 196.646 15.235 196.164 15.1483C196.164 14.9533 196.164 14.7582 196.164 14.5849ZM82.9333 14.7582C83.2046 14.8883 83.4458 14.9966 83.7171 15.1267C83.4458 15.1267 83.2046 15.1267 82.9333 15.1267C82.9333 15.0183 82.9333 14.8883 82.9333 14.7582ZM88.9626 15.1267C88.9927 15.2567 89.053 15.365 89.0832 15.4951C89.264 15.3 89.4148 15.1267 89.5957 14.9316C89.3243 14.8666 89.0832 14.8016 88.8118 14.7366C88.8721 14.8883 88.9324 15.0183 88.9626 15.1267ZM96.5294 14.7582C96.7103 14.7582 96.861 14.7582 97.0419 14.7582C97.0419 14.9533 97.0419 15.1267 97.0419 15.3217C96.861 15.3217 96.7103 15.3217 96.5294 15.3217C96.5294 15.1267 96.5294 14.9533 96.5294 14.7582ZM93.2132 14.9533C93.4846 14.9533 93.7257 14.9533 93.9971 14.9533C93.8162 15.1917 93.6655 15.4517 93.4846 15.6901C93.364 15.4517 93.3037 15.1917 93.2132 14.9533ZM266.767 14.9533C266.948 15.0183 267.099 15.0833 267.28 15.1483C267.129 15.0833 266.948 15.0183 266.767 14.9533ZM86.792 15.4084C86.792 15.4951 86.792 15.6034 86.792 15.6901C86.5207 15.6251 86.2795 15.5601 86.0082 15.4951C85.9178 15.7334 85.8273 15.9935 85.7369 16.2319C86.2494 16.2319 86.7619 16.2319 87.2744 16.2319C87.2744 15.7984 87.3648 15.2133 86.7619 15.1267C86.792 15.235 86.792 15.3217 86.792 15.4084ZM135.328 15.1267C135.238 15.2567 135.147 15.365 135.057 15.4951C135.147 15.3867 135.238 15.2567 135.328 15.1267ZM325.704 15.4084C325.674 15.4951 325.613 15.6034 325.583 15.6901C325.764 15.6901 325.915 15.6901 326.096 15.6901C326.005 15.4951 325.915 15.3217 325.824 15.1267C325.794 15.235 325.734 15.3217 325.704 15.4084ZM201.56 15.3217C201.952 15.6468 201.47 15.8851 201.048 16.0585C201.228 15.8201 201.379 15.5601 201.56 15.3217ZM98.7301 16.0585C98.6999 16.2535 98.6396 16.4269 98.6095 16.6219C98.7904 16.6219 98.9411 16.6219 99.122 16.6219C99.0315 16.2535 98.9411 15.8851 98.8507 15.5167C98.8205 15.6901 98.7602 15.8851 98.7301 16.0585ZM260.105 15.4951C260.286 15.6251 260.436 15.7334 260.617 15.8635C260.436 15.7551 260.286 15.6251 260.105 15.4951ZM321.996 15.4951C322.177 15.5601 322.327 15.6251 322.508 15.6901C322.327 15.6251 322.146 15.5601 321.996 15.4951ZM78.562 15.6901C79.0745 15.7768 79.0142 16.1235 78.8333 16.4269C78.7429 16.1885 78.6525 15.9285 78.562 15.6901ZM93.2132 16.0585C93.3037 16.0585 93.3941 16.0585 93.4846 16.0585C92.761 16.6003 93.5147 17.5321 92.1883 17.7272C92.3691 17.9655 92.5199 18.2256 92.7008 18.464C92.5199 18.529 92.3691 18.594 92.1883 18.659C92.0074 18.4206 91.8567 18.1606 91.6758 17.9222C92.3691 17.8138 92.0074 17.0987 91.9471 16.6219C92.2184 16.687 92.4596 16.752 92.7309 16.817C92.7912 16.5353 92.8816 16.0585 93.2132 16.0585ZM135.841 16.0585C136.112 16.0585 136.353 16.0585 136.624 16.0585C136.624 16.2969 136.624 16.5569 136.624 16.7953C136.021 16.7303 135.72 16.4702 135.841 16.0585ZM87.6964 16.6219C87.7266 16.687 87.7869 16.752 87.817 16.817C87.7266 16.687 87.6361 16.5786 87.5457 16.4486C87.606 16.4919 87.6361 16.5569 87.6964 16.6219ZM84.5913 16.7086C84.0788 16.8603 84.2296 17.7705 84.1994 18.2689C84.4707 18.2689 84.7119 18.2689 84.9832 18.2689C84.8626 17.5971 86.0987 17.4238 85.767 16.6003C85.3751 16.6003 84.9832 16.6003 84.5913 16.7086ZM76.7834 16.9903C77.0547 17.1204 77.2958 17.2287 77.5672 17.3588C77.1451 17.5971 76.7231 17.8572 76.2709 18.0956C76.4216 17.7272 76.6025 17.3588 76.7834 16.9903ZM86.792 17.5321C86.7016 17.6621 86.6111 17.7705 86.5207 17.9005C86.8523 17.7055 87.2141 17.5321 87.5457 17.3371C87.3648 17.2721 87.2141 17.2071 87.0332 17.142C86.9428 17.2937 86.8825 17.4021 86.792 17.5321ZM75.4871 17.3588C75.6679 17.4888 75.8187 17.5971 75.9995 17.7272C75.8187 17.5971 75.6679 17.4671 75.4871 17.3588ZM78.3208 17.3588C78.5017 17.7272 78.6524 18.0956 78.8333 18.464C78.562 18.529 78.3208 18.594 78.0495 18.659C77.8988 18.1606 77.7179 17.6188 78.3208 17.3588ZM73.4371 17.9005C73.5275 18.0305 73.618 18.1389 73.7084 18.2689C73.618 18.1606 73.5275 18.0305 73.4371 17.9005ZM190.768 17.9005C190.948 18.1389 191.099 18.399 191.28 18.6373C191.099 18.6373 190.948 18.6373 190.768 18.6373C190.768 18.399 190.768 18.1606 190.768 17.9005ZM151.487 18.0956C151.667 18.1606 151.818 18.2256 151.999 18.2906C151.818 18.2039 151.667 18.1606 151.487 18.0956ZM95.7757 18.7457C95.7456 19.2875 96.6801 19.4175 97.3132 19.5692C96.9514 18.9191 95.7456 19.1141 95.7757 18.2689C95.7757 18.4206 95.7757 18.5723 95.7757 18.7457ZM150.974 18.6373C151.245 18.7023 151.487 18.7674 151.758 18.8324C151.426 18.9624 151.065 19.0707 150.733 19.2008C150.793 19.0057 150.884 18.8324 150.974 18.6373ZM199.751 19.2008C200.023 19.2008 200.264 19.2008 200.535 19.2008C200.445 19.5042 200.234 19.8509 199.751 19.7642C199.751 19.5692 199.751 19.3741 199.751 19.2008ZM91.4045 19.5692C93.5449 20.4794 90.8015 20.5877 90.5001 21.4112C88.5104 23.4916 90.3192 20.306 89.3545 19.9376C90.1684 19.8292 90.8618 20.2193 91.4045 20.6744C91.4045 20.306 91.4045 19.9376 91.4045 19.5692ZM92.7008 19.5692C92.8816 19.6342 93.0324 19.6992 93.2132 19.7642C93.0324 19.6992 92.8515 19.6342 92.7008 19.5692ZM126.827 19.7425C127.158 19.9809 127.52 20.241 127.852 20.4794C127.52 20.241 127.188 20.0026 126.827 19.7425ZM131.469 19.7425C131.65 19.7425 131.801 19.7425 131.982 19.7425C131.891 19.9376 131.801 20.1109 131.71 20.306C131.62 20.1109 131.56 19.9376 131.469 19.7425ZM199.751 19.9376C200.023 20.1326 200.264 20.306 200.535 20.501C200.264 20.306 200.023 20.111 199.751 19.9376ZM151.999 20.111C152.18 20.176 152.331 20.241 152.512 20.306C152.361 20.241 152.18 20.176 151.999 20.111ZM97.0419 20.4794C97.0419 20.5444 97.0419 20.6094 97.0419 20.6744C97.3735 20.6744 97.7352 20.6744 98.0668 20.6744C97.7352 20.5444 97.3735 20.436 97.0419 20.306C97.0419 20.371 97.0419 20.436 97.0419 20.4794ZM129.419 20.306C129.691 20.436 129.932 20.5444 130.203 20.6744C129.932 20.5444 129.66 20.436 129.419 20.306ZM186.668 20.306C186.849 20.436 186.999 20.5444 187.18 20.6744C186.909 20.8044 186.668 20.9128 186.396 21.0428C186.487 20.8044 186.577 20.5444 186.668 20.306ZM79.7377 20.8478C79.7076 20.9128 79.6473 20.9778 79.6171 21.0428C80.0392 21.0428 80.4612 21.0428 80.9134 21.0428C80.5818 20.9128 80.2201 20.8044 79.8885 20.6744C79.798 20.7394 79.7679 20.8044 79.7377 20.8478ZM69.8496 21.4112C70.1813 21.4762 70.543 21.5412 70.8746 21.6062C70.4526 21.7363 69.9702 21.7796 69.8496 21.4112ZM97.1926 21.6062C97.2227 21.6713 97.283 21.7363 97.3132 21.8013C97.2227 21.6713 97.1323 21.5629 97.0419 21.4329C97.1022 21.4762 97.1323 21.5412 97.1926 21.6062ZM73.9496 21.6062C74.04 21.8013 74.1305 21.9746 74.2209 22.1697C74.04 22.1047 73.8893 22.0397 73.7084 21.9746C73.7687 21.8446 73.8591 21.7146 73.9496 21.6062ZM94.3588 22.148C94.2081 22.5164 94.4191 22.6031 94.7507 22.7115C94.9015 22.343 95.0823 21.888 94.4794 21.7796C94.4493 21.9096 94.389 22.018 94.3588 22.148ZM69.3372 22.0613C69.9401 22.148 69.8496 22.6898 69.8496 23.0799C70.4224 22.8415 71.1459 22.4081 71.6584 22.7115C71.3871 23.0799 71.146 23.4483 70.8746 23.8167C71.2062 23.6866 71.568 23.5783 71.8996 23.4483C71.8996 23.7517 71.8996 24.055 71.8996 24.3801C71.3871 24.3151 70.8746 24.2501 70.3621 24.1851C70.3621 24.3801 70.3621 24.5535 70.3621 24.7485C69.8496 24.7485 69.3372 24.7485 68.8247 24.7485C70.4827 23.8167 70.0908 23.2749 68.0408 23.4483C68.3122 22.9932 68.6438 21.9313 69.3372 22.0613ZM70.3621 21.9746C70.6335 21.9746 70.8746 21.9746 71.1459 21.9746C71.1459 22.1047 71.1459 22.213 71.1459 22.343C70.8746 22.343 70.6335 22.343 70.3621 22.343C70.3621 22.213 70.3621 22.083 70.3621 21.9746ZM182.568 21.9746C182.658 22.278 182.749 22.5814 182.839 22.9065C182.718 22.5814 182.658 22.278 182.568 21.9746ZM184.105 22.148C184.377 22.213 184.618 22.278 184.889 22.343C184.618 22.278 184.346 22.213 184.105 22.148ZM88.2089 22.5164C88.2391 22.5814 88.2994 22.6464 88.3295 22.7115C88.2391 22.5814 88.1486 22.4731 88.0582 22.343C88.1185 22.3864 88.1486 22.4514 88.2089 22.5164ZM152.903 22.4297C153.024 22.4514 153.175 22.4947 153.295 22.5164C153.024 22.4514 152.783 22.3864 152.512 22.3214C152.632 22.3647 152.783 22.3864 152.903 22.4297ZM181.271 22.343C181.362 22.4731 181.452 22.5814 181.543 22.7115C181.452 22.5814 181.362 22.4514 181.271 22.343ZM85.8876 23.1665C85.134 23.7083 84.5009 26.2655 84.2296 27.0456C82.8428 27.3057 81.7575 27.3707 82.4208 28.801C82.2399 28.801 82.0892 28.801 81.9083 28.801C81.9083 29.1044 81.9083 29.4077 81.9083 29.7328C80.2804 29.5378 80.009 31.0331 79.8583 31.9432C80.1296 31.8782 80.3708 31.8132 80.6421 31.7482C80.7326 32.4417 77.6878 34.392 78.5922 35.2589C77.537 35.0638 77.3863 35.8873 77.2958 36.5591C77.8083 36.5591 78.3208 36.5591 78.8333 36.5591C78.8333 36.6892 78.8333 36.7975 78.8333 36.9275C77.8686 36.6025 77.2959 37.816 75.9995 37.2959C75.879 38.2061 75.3966 39.2246 75.0951 40.0698C74.4319 40.4599 76.3613 42.627 74.1908 41.5434C73.7084 42.0419 73.6783 42.627 73.9194 43.2121C72.6834 43.0821 71.568 43.4938 72.1106 44.5123C71.7489 45.7042 69.518 46.311 70.5732 48.023C70.2415 48.023 69.8798 48.023 69.5482 48.023C69.4276 48.8248 69.6688 49.5833 70.5732 50.0601C70.0004 50.3201 69.4276 50.0601 69.0357 49.6917C67.8901 50.9486 66.1416 52.5089 66.4732 53.7441C67.0762 53.4407 67.6791 53.1373 68.282 52.8123C67.6791 53.3757 67.0762 53.9175 66.4732 54.4809C66.9556 54.806 67.5284 54.806 68.0107 54.4809C68.1011 54.676 68.1916 54.8493 68.282 55.0444C65.7497 54.3292 64.0615 56.3663 66.9857 56.8864C66.8048 57.0814 66.6541 57.2548 66.4732 57.4498C64.8152 56.0196 64.8755 58.1216 64.9357 59.1185C62.4034 59.0318 64.4233 61.1772 64.1519 61.8924C64.4836 61.9574 64.8453 62.0224 65.1769 62.0874C64.7549 62.0874 64.3328 62.0874 63.8806 62.0874C63.8806 62.2824 63.8806 62.4558 63.8806 62.6508C63.6093 62.6508 63.3681 62.6508 63.0968 62.6508C63.8203 64.1678 65.81 68.2853 69.0055 66.7033C68.8247 67.18 69.9401 67.1584 70.543 67.2667C70.3923 66.79 70.9349 66.5733 71.568 66.5299C71.3871 66.3349 71.2364 66.1615 71.0555 65.9665C71.6584 65.8364 72.2614 65.7281 72.8643 65.5981C72.7739 65.403 72.6834 65.2297 72.593 65.0346C73.3768 65.0346 74.1305 65.0346 74.9143 65.0346C74.9143 64.9046 74.9143 64.7962 74.9143 64.6662C75.2459 64.7962 75.6076 64.9046 75.9392 65.0346C75.9392 64.6012 75.9392 64.1678 75.9392 63.7344C76.3613 63.7344 76.7834 63.7344 77.2356 63.7344C77.2356 63.5393 77.2356 63.366 77.2356 63.1709C77.7481 63.301 78.2605 63.4093 78.773 63.5393C79.376 62.3041 82.5112 61.5456 81.848 60.0287C82.5414 60.0287 83.2046 60.0287 83.8979 60.0287C83.8075 59.8336 83.7171 59.6603 83.6266 59.4652C83.8979 59.4652 84.1391 59.4652 84.4104 59.4652C84.2296 58.9668 81.9686 58.0783 84.1391 57.7966C84.1391 57.9266 84.1391 58.0349 84.1391 58.165C87.4251 57.6882 84.8928 57.2115 83.3553 56.6914C84.2899 56.648 85.1641 56.4313 85.4053 55.7595C85.6766 55.9545 85.9178 56.1279 86.1891 56.3229C85.5862 55.066 88.3898 54.741 89.264 55.3911C89.0832 55.1961 88.9324 55.0227 88.7515 54.8277C89.3545 54.5893 89.9574 54.3292 90.5603 54.0909C90.1383 53.8525 89.7162 53.5924 89.264 53.354C90.0177 53.0073 89.9574 52.4222 89.5354 51.8804C90.892 51.9671 90.3795 53.6358 91.5853 53.7224C90.7714 52.7039 91.8567 52.0538 91.8567 51.1436C92.9118 53.3757 93.8765 50.9269 95.3235 50.4935C96.3786 50.3851 95.2632 48.8682 96.4691 48.9332C96.3786 49.1282 96.2882 49.3016 96.1978 49.4966C97.0419 49.6267 97.9161 48.9982 97.7352 48.3914C96.7103 48.4781 95.7757 48.2397 95.1728 47.6546C95.6551 47.4812 96.1375 47.5029 96.4691 47.8496C96.2882 47.4812 96.1375 47.1128 95.9566 46.7444C96.2882 46.7444 96.65 46.7444 96.9816 46.7444C96.7103 46.181 96.4691 45.6392 96.1978 45.0758C97.3433 44.9457 97.6448 46.5494 99.0315 46.376C98.9411 46.181 98.8507 46.0076 98.7602 45.8126C100.268 46.0293 100.388 44.7941 100.298 43.9706C100.629 44.0356 100.991 44.1006 101.323 44.1656C101.051 44.6424 101.172 45.0758 101.835 45.2708C102.257 44.9024 102.408 44.4473 102.348 43.9706C102.016 43.9706 101.654 43.9706 101.323 43.9706C101.654 43.8405 102.016 43.7322 102.348 43.6022C101.082 41.6301 105.694 43.7105 104.91 40.6549C104.398 41.7168 101.594 43.2771 100.81 41.7601C100.72 42.3669 100.629 42.9954 100.539 43.6022C99.9359 43.3421 99.3933 43.6022 99.0014 43.9706C98.8205 43.8405 98.6698 43.7322 98.4889 43.6022C99.1521 43.2988 98.9712 42.4103 99.0014 41.7601C97.886 41.8468 97.4639 43.4938 96.1676 43.4288C96.7404 44.1006 95.625 44.9024 94.6301 44.729C95.2934 45.5309 93.4544 45.7692 94.1176 46.5711C89.1435 46.246 90.9824 51.5987 87.6964 51.9238C87.9677 51.8588 88.2089 51.7937 88.4802 51.7287C85.0737 51.4687 80.2502 58.1 76.6628 59.2919C76.9341 59.7253 77.1753 60.1587 77.4466 60.5921C76.9341 60.3971 76.4216 60.2237 75.9091 60.0287C75.8187 60.2237 75.7282 60.3971 75.6378 60.5921C73.1959 60.7655 69.8195 63.3876 71.5378 65.3814C70.2415 65.5331 70.2114 64.4495 70.2415 63.7127C69.8195 63.7127 69.3974 63.7127 68.9452 63.7127C68.3725 64.9913 70.5129 65.013 70.2415 66.1182C69.4879 66.0965 69.0658 65.7281 69.2166 65.1863C68.9452 65.2513 68.7041 65.3164 68.4328 65.3814C65.0563 63.1493 70.4827 61.5673 68.4328 59.6603C68.4328 59.8553 68.4328 60.0287 68.4328 60.2237C68.0107 60.2237 67.5886 60.2237 67.1365 60.2237C68.282 59.4652 72.9246 48.9332 72.0202 53.3974C73.1658 53.0506 73.3165 51.8371 73.5577 50.9919C72.8944 51.1003 72.593 50.7102 72.5327 50.2551C74.1908 50.5802 74.3415 49.3016 75.6076 49.1499C75.0951 48.9549 74.5827 48.7815 74.0702 48.5865C74.3415 48.5865 74.5827 48.5865 74.854 48.5865C73.7386 47.2212 76.2407 45.6392 76.6628 44.339C76.1503 44.274 75.6378 44.2089 75.1253 44.1439C75.2459 44.8374 75.5775 45.7476 74.6128 45.986C74.3415 45.0541 74.1003 44.1439 73.829 43.2121C74.854 43.4071 75.276 42.5836 75.6378 41.9118C75.7282 42.3886 76.0598 43.1037 75.3665 43.2121C75.8488 43.8839 77.5973 42.8653 77.9289 43.7755C78.351 42.2586 81.6671 42.887 79.4664 41.3701C80.3105 41.305 81.2149 41.175 81.5164 40.6332C81.0642 40.1348 79.798 40.5466 79.3458 40.2648C79.1046 39.6797 80.0995 39.463 80.7627 39.7014C80.9436 39.2463 79.8282 39.138 79.2252 38.9646C79.4664 39.6581 77.115 39.5497 78.4414 38.8779C79.4664 38.5745 81.0943 38.7045 82.0289 38.4228C81.848 38.6179 81.6973 38.7912 81.5164 38.9863C81.848 39.0513 82.2097 39.1163 82.5414 39.1813C82.1193 38.2495 81.6973 37.3393 81.245 36.4074C81.7274 36.3207 82.4208 36.2557 82.27 35.844C82.5414 36.039 82.7825 36.2124 83.0538 36.4074C83.4156 35.8006 83.6266 35.1072 82.7825 34.7388C84.8325 35.4322 86.792 34.4354 84.5913 33.2652C85.2847 33.1351 85.9479 33.0268 86.6413 32.8968C86.0685 31.8132 85.2546 30.5563 83.5663 30.8597C83.2347 30.0795 85.4656 30.2312 86.4001 30.1229C86.3097 29.8195 86.2192 29.5161 86.1288 29.191C87.0633 29.4728 87.3648 27.6741 88.0582 28.8226C88.6008 30.0145 88.9626 28.0208 89.7162 28.2592C89.2942 28.6059 88.7817 29.0827 89.4449 29.3644C89.9574 28.8443 90.3192 28.2592 89.9574 27.6957C90.289 27.6307 90.6508 27.5657 90.9824 27.5007C88.1185 26.5905 87.395 27.219 86.6111 24.9219C87.395 25.1603 88.1486 25.4203 88.9324 25.6587C88.6611 25.2903 88.4199 24.9219 88.1486 24.5535C89.5354 25.0952 90.8015 24.4885 91.7361 23.6216C90.6206 23.2966 89.5052 23.3182 88.6611 23.8167C88.4802 23.6866 88.3295 23.5783 88.1486 23.4483C88.2391 23.5783 88.3295 23.6866 88.4199 23.8167C87.395 23.99 86.5508 23.1232 85.8575 22.5164C85.9781 22.7331 85.9178 22.9498 85.8876 23.1665ZM76.2709 22.8848C76.1804 22.9498 76.09 23.0148 75.9995 23.0799C76.3312 23.2099 76.6929 23.3182 77.0245 23.4483C76.8437 23.2099 76.6929 22.9498 76.512 22.7115C76.4216 22.7548 76.3312 22.8198 76.2709 22.8848ZM199.902 22.8848C199.932 22.9498 199.992 23.0148 200.023 23.0799C200.113 22.9498 200.203 22.8415 200.294 22.7115C200.113 22.7115 199.962 22.7115 199.781 22.7115C199.812 22.7548 199.842 22.8198 199.902 22.8848ZM240.6 22.8848C240.781 23.0148 240.932 23.1232 241.112 23.2532C240.932 23.1449 240.751 23.0148 240.6 22.8848ZM127.882 23.0799C128.153 23.1449 128.394 23.2099 128.666 23.2749C128.394 23.3399 128.153 23.4049 127.882 23.4699C127.882 23.3182 127.882 23.1882 127.882 23.0799ZM182.296 23.2532C182.718 23.2532 183.141 23.2532 183.593 23.2532C183.593 23.3832 183.593 23.4916 183.593 23.6216C183.171 23.6216 182.749 23.6216 182.296 23.6216C182.296 23.5133 182.296 23.3832 182.296 23.2532ZM65.9909 23.4483C66.0813 23.5783 66.1718 23.6866 66.2622 23.8167C66.0813 23.8817 65.9306 23.9467 65.7497 24.0117C65.81 23.8167 65.9004 23.6216 65.9909 23.4483ZM74.3415 24.1851C74.3716 24.3151 74.4319 24.4235 74.4621 24.5535C74.3716 24.3151 74.2812 24.055 74.1908 23.8167C74.251 23.925 74.2812 24.055 74.3415 24.1851ZM148.653 23.99C148.743 24.1851 148.834 24.3584 148.924 24.5535C148.743 24.5535 148.593 24.5535 148.412 24.5535C148.502 24.3584 148.593 24.1851 148.653 23.99ZM151.366 24.5535C151.396 24.6835 151.456 24.7919 151.487 24.9219C151.396 24.6835 151.306 24.4234 151.215 24.1851C151.276 24.2934 151.306 24.4235 151.366 24.5535ZM227.245 24.5535C227.426 24.6185 227.577 24.6835 227.757 24.7485C227.577 24.6618 227.396 24.6185 227.245 24.5535ZM71.6283 24.7268C71.8092 24.8569 71.9599 24.9652 72.1408 25.0952C71.9901 24.9869 71.8092 24.8569 71.6283 24.7268ZM185.643 24.9219C185.914 24.9869 186.155 25.0519 186.426 25.1169C186.155 25.0519 185.884 24.9869 185.643 24.9219ZM71.6283 25.4636C71.8092 25.5287 71.9599 25.5937 72.1408 25.6587C71.9901 25.5937 71.8092 25.5287 71.6283 25.4636ZM85.767 25.6587C85.9479 25.9621 86.0987 26.2655 86.2795 26.5905C85.8876 26.3088 85.3751 25.9838 85.767 25.6587ZM286.935 25.9404C286.784 26.2438 287.056 26.3088 287.327 26.3955C287.538 26.0921 287.598 25.7454 287.056 25.6587C287.026 25.7454 286.965 25.8321 286.935 25.9404ZM67.2872 25.8321C67.4681 25.9621 67.6188 26.0704 67.7997 26.2005C67.5284 26.2005 67.2872 26.2005 67.0159 26.2005C67.1063 26.0921 67.1967 25.9621 67.2872 25.8321ZM89.5957 25.9404C89.6861 25.9621 89.7765 26.0054 89.867 26.0271C89.6861 25.9621 89.5354 25.8971 89.3545 25.8321C89.4449 25.8754 89.5354 25.8971 89.5957 25.9404ZM122.486 26.3955C122.817 26.4605 123.179 26.5255 123.511 26.5905C123.089 26.7206 122.606 26.7639 122.486 26.3955ZM69.5783 26.5905C69.6688 26.7206 69.7592 26.8289 69.8496 26.9589C69.7592 26.8289 69.6688 26.6989 69.5783 26.5905ZM60.866 26.9589C61.1373 27.154 61.3785 27.3273 61.6498 27.5224C61.3785 27.3273 61.1071 27.1323 60.866 26.9589ZM118.868 26.9589C119.652 27.1323 120.918 27.2407 120.677 27.8908C119.893 27.6957 118.657 27.5874 118.868 26.9589ZM176.026 27.1323C176.569 27.349 176.267 28.2158 175.634 28.0642C175.634 27.8691 175.634 27.6957 175.634 27.5007C175.182 28.1942 173.072 28.3459 173.072 27.5007C174.066 27.9775 175.182 26.9589 176.026 27.1323ZM59.5697 27.3273C59.841 27.5224 60.0821 27.6957 60.3535 27.8908C60.0821 27.6957 59.841 27.5007 59.5697 27.3273ZM122.214 27.3273C122.395 27.3924 122.546 27.4574 122.727 27.5224C122.576 27.4357 122.395 27.3707 122.214 27.3273ZM61.3785 27.8691C62.8858 28.1725 63.2777 29.8845 61.3785 29.7111C61.3785 29.1044 61.3785 28.4976 61.3785 27.8691ZM58.5447 28.2375C58.8763 28.2375 59.238 28.2375 59.5697 28.2375C59.5697 28.3675 59.5697 28.4759 59.5697 28.6059C59.238 28.4976 58.8763 28.3675 58.5447 28.2375ZM64.1821 28.2375C64.5137 28.3025 64.8755 28.3675 65.2071 28.4326C64.9659 28.7359 64.6644 29.061 64.1821 28.996C64.1821 28.736 64.1821 28.4976 64.1821 28.2375ZM86.0082 28.2375C86.1891 28.3675 86.3398 28.4759 86.5207 28.6059C86.1891 28.6709 85.8273 28.7359 85.4957 28.801C85.6766 28.6059 85.8575 28.4326 86.0082 28.2375ZM116.577 28.2375C116.667 28.3675 116.758 28.4759 116.848 28.6059C116.728 28.4759 116.667 28.3675 116.577 28.2375ZM90.892 28.6059C90.892 28.6709 90.892 28.7359 90.892 28.801C91.1633 28.801 91.4045 28.801 91.6758 28.801C91.6758 28.6709 91.6758 28.5626 91.6758 28.4326C91.4045 28.4326 91.1633 28.4326 90.892 28.4326C90.892 28.4976 90.892 28.5409 90.892 28.6059ZM145.729 28.6059C145.849 28.6059 146 28.6059 146.121 28.6059C146.362 29.2344 145.126 29.3644 144.312 29.5378C144.704 29.191 145.246 28.6059 145.729 28.6059ZM174.85 28.6059C175.031 28.7359 175.182 28.8443 175.363 28.9743C175.212 28.866 175.031 28.7359 174.85 28.6059ZM57.5197 28.9743C57.6101 29.1694 57.7006 29.3427 57.791 29.5378C57.5197 29.5378 57.2785 29.5378 57.0072 29.5378C57.1579 29.3427 57.3388 29.1694 57.5197 28.9743ZM116.818 28.9743C116.908 29.1044 116.999 29.2127 117.089 29.3427C116.999 29.2344 116.908 29.1044 116.818 28.9743ZM171.263 29.1694C171.866 29.3644 172.469 29.5378 173.072 29.7328C172.318 30.1662 171.233 31.0981 170.509 30.4696C170.6 30.903 170.69 31.3365 170.78 31.7699C169.936 31.7699 169.062 31.7699 168.218 31.7699C168.308 32.0733 168.399 32.3767 168.489 32.7017C167.886 32.7017 167.283 32.7017 166.68 32.7017C167.555 31.4665 170.63 31.6398 170.539 29.9278C170.961 30.0579 171.383 30.1662 171.836 30.2963C171.594 29.9062 171.444 29.5378 171.263 29.1694ZM63.6696 29.3427C63.76 29.4728 63.8505 29.5811 63.9409 29.7111C63.76 29.7111 63.6093 29.7111 63.4284 29.7111C63.5189 29.6028 63.5792 29.4728 63.6696 29.3427ZM83.2046 29.9929C83.295 30.0145 83.3855 30.0579 83.4759 30.0795C82.4208 30.4479 82.6017 31.6398 81.1546 31.7482C80.7627 31.1631 82.5112 29.9278 83.2046 29.9929ZM60.5946 30.0795C61.1674 30.2529 61.4387 30.5996 61.1071 31.0114C60.9263 30.708 60.7755 30.4046 60.5946 30.0795ZM87.5457 30.3613C87.3648 30.4479 87.2141 30.5563 87.0332 30.643C87.3648 30.643 87.7266 30.643 88.0582 30.643C88.0582 30.4479 88.0582 30.2746 88.0582 30.0795C87.9074 30.1879 87.7266 30.2746 87.5457 30.3613ZM143.287 30.0795C143.468 30.2096 143.618 30.3179 143.799 30.4479C143.618 30.3396 143.437 30.2096 143.287 30.0795ZM86.4001 30.5563C86.5207 30.578 86.6714 30.6213 86.792 30.643C86.5207 30.578 86.2795 30.513 86.0082 30.4479C86.1589 30.4913 86.2795 30.513 86.4001 30.5563ZM115.793 30.4479C115.974 30.578 116.125 30.6863 116.306 30.8164C116.155 30.708 115.974 30.578 115.793 30.4479ZM56.7359 30.643C56.9168 30.708 57.0675 30.773 57.2484 30.838C56.977 30.968 56.7359 31.0764 56.4646 31.2064C56.5851 31.0114 56.6454 30.8164 56.7359 30.643ZM193.33 30.643C193.511 30.838 193.662 31.0114 193.843 31.2064C193.662 31.2064 193.511 31.2064 193.33 31.2064C193.33 31.0114 193.33 30.8164 193.33 30.643ZM52.6359 31.0981C52.7264 31.1197 52.8168 31.1631 52.9073 31.1848C52.7264 31.1197 52.5756 31.0547 52.3948 30.9897C52.4551 31.0331 52.5455 31.0764 52.6359 31.0981ZM87.3045 31.0981C87.395 31.1197 87.4854 31.1631 87.5758 31.1848C87.395 31.1197 87.2442 31.0547 87.0633 30.9897C87.1236 31.0331 87.2141 31.0764 87.3045 31.0981ZM88.3295 31.3798C88.3295 31.4448 88.3295 31.5098 88.3295 31.5748C88.6008 31.5748 88.842 31.5748 89.1133 31.5748C89.1133 31.4448 89.1133 31.3365 89.1133 31.2064C88.842 31.2064 88.6008 31.2064 88.3295 31.2064C88.3295 31.2498 88.3295 31.3148 88.3295 31.3798ZM63.6696 31.5532C63.76 31.6182 63.8505 31.6832 63.9409 31.7482C63.76 31.6182 63.6093 31.5098 63.4284 31.3798C63.5189 31.4448 63.5792 31.5098 63.6696 31.5532ZM191.551 31.3798C192.878 31.5532 192.396 32.7667 191.28 32.8534C191.762 32.3767 192.184 31.7915 191.551 31.3798ZM185.13 31.7482C185.311 31.8132 185.462 31.8782 185.643 31.9432C185.552 32.0733 185.462 32.1816 185.371 32.3116C185.19 32.2466 185.04 32.1816 184.859 32.1166C184.949 31.9866 185.04 31.8782 185.13 31.7482ZM50.8271 32.5717C50.7367 32.7884 50.6463 33.0051 50.5558 33.2218C50.2845 33.0918 50.0433 32.9834 49.772 32.8534C48.325 34.5871 44.2552 35.3022 46.1846 38.4011C46.6669 38.3145 47.3603 38.2495 47.2096 37.8377C46.8779 37.9027 46.5162 37.9677 46.1846 38.0327C46.275 37.621 46.6368 37.4043 47.2096 37.4693C47.1191 36.9925 46.7875 36.2774 47.4809 36.1691C47.6618 36.4074 47.8125 36.6675 47.9934 36.9059C48.0838 36.4724 48.1742 36.039 48.2647 35.6056C48.7772 35.7356 49.2897 35.844 49.8022 35.974C48.7169 34.9555 52.6058 34.262 50.3147 33.7636C50.586 33.5686 50.8271 33.3952 51.0985 33.2001C52.6962 34.7388 51.611 30.2963 50.8271 32.5717ZM81.637 31.9432C81.9987 32.55 82.5715 33.2868 82.1495 33.7853C81.034 33.2001 79.7679 32.355 81.637 31.9432ZM83.7171 31.9432C83.8075 32.1383 83.898 32.3116 83.9884 32.5067C83.8678 32.3116 83.7774 32.1166 83.7171 31.9432ZM86.6714 32.1166C86.7016 32.1816 86.7619 32.2466 86.792 32.3116C86.9729 32.2466 87.1236 32.1816 87.3045 32.1166C87.0332 32.0516 86.792 31.9866 86.5207 31.9216C86.581 31.9866 86.6111 32.0516 86.6714 32.1166ZM141.599 32.3116C141.719 32.3116 141.87 32.3116 141.99 32.3116C142.021 32.8534 141.81 33.6769 142.503 33.7853C142.232 34.0886 141.99 34.392 141.719 34.7171C141.418 34.2187 140.694 34.0453 139.91 33.9803C140.212 33.2435 140.483 32.29 141.599 32.3116ZM283.981 32.485C284.162 32.615 284.312 32.7234 284.493 32.8534C284.222 32.9184 283.981 32.9834 283.71 33.0485C283.8 32.8534 283.89 32.68 283.981 32.485ZM53.6609 32.8534C53.3595 33.0701 53.5705 33.4819 53.6609 33.7853C54.4447 33.7419 54.505 33.1785 54.4447 32.68C54.1433 32.6584 53.9021 32.6584 53.6609 32.8534ZM311.957 32.8534C312.047 33.0485 312.138 33.2218 312.228 33.4169C312.047 33.4169 311.897 33.4169 311.716 33.4169C311.806 33.2218 311.897 33.0485 311.957 32.8534ZM110.397 33.2218C110.578 33.2868 110.728 33.3518 110.909 33.4169C110.759 33.3518 110.578 33.2868 110.397 33.2218ZM165.113 33.4169C165.444 33.4819 165.806 33.5469 166.138 33.6119C165.686 33.7419 165.203 33.7853 165.113 33.4169ZM172.288 33.4169C172.469 33.5469 172.619 33.6552 172.8 33.7853C172.619 33.6552 172.469 33.5252 172.288 33.4169ZM86.4001 33.9586C86.4303 34.0236 86.4906 34.0887 86.5207 34.1537C86.4303 34.0236 86.3398 33.9153 86.2494 33.7853C86.3097 33.8503 86.37 33.8936 86.4001 33.9586ZM110.156 33.7853C110.246 33.7853 110.337 33.7853 110.427 33.7853C110.337 34.0236 110.246 34.2837 110.156 34.5221C109.583 34.4787 109.643 33.8069 110.156 33.7853ZM56.4947 34.1537C56.555 34.4354 57.7006 34.5654 58.3035 34.7171C58.5447 34.067 57.2785 34.067 56.4947 33.9803C56.4947 34.0236 56.4947 34.0887 56.4947 34.1537ZM53.5403 34.4137C53.5102 34.5004 53.4499 34.6088 53.4198 34.6954C53.6006 34.6304 53.7514 34.5654 53.9322 34.5004C53.8418 34.3704 53.7514 34.262 53.6609 34.132C53.6308 34.2403 53.5705 34.327 53.5403 34.4137ZM138.132 34.1537C138.704 34.2187 139.006 34.4787 138.915 34.8905C138.644 34.6304 138.403 34.392 138.132 34.1537ZM161.646 34.2403C161.767 34.262 161.917 34.3054 162.038 34.327C161.767 34.262 161.525 34.197 161.254 34.132C161.375 34.1753 161.495 34.2187 161.646 34.2403ZM54.9572 34.5221C54.9572 34.5871 54.9572 34.6521 54.9572 34.7171C55.2285 34.6521 55.4697 34.5871 55.741 34.5221C55.4697 34.4571 55.2285 34.392 54.9572 34.327C54.9572 34.392 54.9572 34.4571 54.9572 34.5221ZM139.94 34.327C140.212 34.327 140.453 34.327 140.724 34.327C140.724 34.5654 140.724 34.8255 140.724 35.0638C140.453 34.8255 140.182 34.5871 139.94 34.327ZM164.6 34.327C164.691 34.4571 164.781 34.5654 164.872 34.6954C164.751 34.5871 164.661 34.4571 164.6 34.327ZM52.0029 35.0638C51.9727 35.1289 51.9124 35.1939 51.8823 35.2589C52.1536 35.3239 52.3948 35.3889 52.6661 35.4539C52.6661 35.2589 52.6661 35.0855 52.6661 34.8905C52.3948 34.8905 52.1234 34.8688 52.0029 35.0638ZM54.6859 35.2589C54.5955 35.3889 54.505 35.4973 54.4146 35.6273C54.6859 35.5623 54.9271 35.4973 55.1984 35.4322C55.108 35.2372 55.0175 35.0638 54.9271 34.8688C54.8668 34.9988 54.7763 35.1288 54.6859 35.2589ZM53.269 35.4322C53.2992 35.4973 53.3595 35.5623 53.3896 35.6273C53.2992 35.4973 53.2087 35.3889 53.1183 35.2589C53.1786 35.3239 53.2389 35.3672 53.269 35.4322ZM79.8583 35.6273C79.3458 36.2124 81.3355 37.7077 79.3458 37.6643C79.376 36.9709 79.1649 35.9307 79.8583 35.6273ZM51.3396 35.909C51.2492 35.9307 51.1588 35.974 51.0683 35.9957C51.219 36.4724 52.1837 36.3641 52.8771 36.3641C52.8771 36.1691 52.8771 35.9957 52.8771 35.8006C52.3948 35.8006 51.6712 35.779 51.3396 35.909ZM54.294 35.9957C54.3242 36.0607 54.3844 36.1257 54.4146 36.1907C54.3242 36.0607 54.2337 35.9523 54.1433 35.8223C54.2337 35.8657 54.2639 35.9307 54.294 35.9957ZM109.643 35.8006C109.734 35.9957 109.824 36.1691 109.914 36.3641C109.643 36.4291 109.402 36.4941 109.131 36.5591C109.281 36.2991 109.462 36.0607 109.643 35.8006ZM111.573 36.2774C111.452 36.7108 111.573 36.8192 111.964 36.9275C112.145 36.6241 112.296 36.3208 112.477 35.9957C112.206 35.9307 111.964 35.8657 111.693 35.8006C111.663 35.9523 111.603 36.1257 111.573 36.2774ZM189.501 35.9957C189.773 36.1257 190.014 36.2341 190.285 36.3641C190.014 36.2341 189.743 36.1257 189.501 35.9957ZM159.717 36.1691C160.711 36.5591 161.043 37.2093 160.229 37.8377C159.596 37.556 159.717 36.7758 159.717 36.1691ZM161.495 36.1691C161.676 36.1691 161.827 36.1691 162.008 36.1691C161.917 36.2991 161.827 36.4074 161.736 36.5375C161.676 36.4291 161.586 36.2991 161.495 36.1691ZM49.2897 37.0142C49.1088 37.1659 48.9581 37.3176 48.7772 37.4693C50.0433 38.1194 52.6359 37.1009 52.1234 38.9429C52.3948 38.9429 52.6359 38.9429 52.9073 38.9429C52.6359 38.7045 52.3948 38.4445 52.1234 38.2061C52.7264 37.9677 53.3293 37.7077 53.9322 37.4693C53.3293 37.2093 50.9779 37.0792 50.3448 37.4693C50.1639 37.1659 50.0132 36.8625 49.8323 36.5375C49.6514 36.7108 49.4706 36.8625 49.2897 37.0142ZM54.4447 36.7325C54.5352 36.7975 54.6256 36.8625 54.7161 36.9275C54.5352 36.7975 54.3844 36.6892 54.2036 36.5591C54.2639 36.6025 54.3543 36.6675 54.4447 36.7325ZM107.322 36.5375C107.503 37.2743 107.653 38.0111 107.834 38.7479C107.171 38.0544 106.659 37.2526 107.322 36.5375ZM137.378 36.5375C137.468 36.5375 137.559 36.5375 137.649 36.5375C137.8 37.0576 137.137 37.556 136.624 38.0111C136.443 37.816 136.293 37.6427 136.112 37.4476C136.383 37.4476 136.624 37.4476 136.896 37.4476C136.534 37.1009 136.715 36.5591 137.378 36.5375ZM157.787 36.7325C157.817 36.7975 157.878 36.8625 157.908 36.9275C157.817 36.7975 157.727 36.6892 157.637 36.5591C157.697 36.6025 157.727 36.6675 157.787 36.7325ZM140.845 37.1876C140.815 37.3393 140.754 37.491 140.724 37.6427C140.905 37.6427 141.056 37.6427 141.237 37.6427C141.146 37.3393 141.056 37.0359 140.965 36.7108C140.935 36.8842 140.875 37.0359 140.845 37.1876ZM44.4059 37.3826C44.5868 37.5343 44.7375 37.686 44.9184 37.8377C45.0089 37.5993 45.0993 37.3393 45.1897 37.1009C44.7677 37.0359 44.3456 36.9709 43.8934 36.9059C44.0743 37.0792 44.2552 37.2309 44.4059 37.3826ZM308.128 37.1009C308.219 37.2959 308.309 37.4693 308.4 37.6643C308.279 37.4693 308.189 37.2959 308.128 37.1009ZM106.056 37.2959C106.146 37.426 106.237 37.5343 106.327 37.6643C106.206 37.5343 106.116 37.4043 106.056 37.2959ZM49.0485 37.9244C49.1389 37.9461 49.2294 37.9894 49.3198 38.0111C49.1389 37.9461 48.9882 37.8811 48.8073 37.816C48.8676 37.8594 48.9581 37.9027 49.0485 37.9244ZM76.2709 37.8377C76.4517 37.9027 76.6025 37.9677 76.7834 38.0327C76.6025 37.9677 76.4216 37.9027 76.2709 37.8377ZM53.5403 38.4878C53.6609 38.5745 53.8117 38.6829 53.9322 38.7696C53.6609 38.5745 53.4198 38.4011 53.1484 38.2061C53.269 38.2928 53.4198 38.4012 53.5403 38.4878ZM50.7066 39.2246C50.6764 39.3113 50.6161 39.4197 50.586 39.5064C51.5808 39.8748 51.7918 39.2246 50.8573 38.9429C50.797 39.0296 50.7668 39.138 50.7066 39.2246ZM103.976 39.138C104.156 39.203 104.307 39.268 104.488 39.333C103.825 39.398 102.83 39.6364 102.679 39.138C103.131 39.0079 103.493 38.9429 103.976 39.138ZM184.859 38.9429C185.04 39.0729 185.19 39.1813 185.371 39.3113C185.221 39.1813 185.04 39.0729 184.859 38.9429ZM41.8435 39.5064C40.6979 40.3299 39.07 40.5682 39.0097 41.9985C37.5325 42.1069 36.0855 41.9552 36.1759 43.5588C35.8744 42.887 34.9097 43.5155 34.6384 43.9272C34.9097 43.9922 35.1509 44.0572 35.4222 44.1223C32.9804 44.3823 31.8951 46.9828 29.5135 47.2645C29.3025 48.218 27.765 49.8 26.1672 49.8434C27.343 50.4068 26.8003 51.4037 25.3834 50.9486C25.6547 51.317 25.8959 51.6854 26.1672 52.0538C28.3378 50.5802 29.6642 51.7504 32.076 51.8588C32.076 51.6204 32.076 51.3603 32.076 51.1219C30.5385 51.252 30.2672 49.3016 32.076 49.4533C31.8951 48.9549 31.7444 48.4781 31.5635 47.9797C32.8296 47.6979 32.5885 49.1932 33.8848 48.9115C33.4627 49.5183 33.0407 50.1468 32.5885 50.7535C33.101 50.5152 33.6134 50.2551 34.1259 50.0167C34.1259 50.3201 34.1259 50.6235 34.1259 50.9486C34.3068 50.9486 34.4576 50.9486 34.6384 50.9486C34.6384 50.4501 34.6384 49.9734 34.6384 49.475C34.9097 49.475 35.1509 49.475 35.4222 49.475C35.4222 49.7133 35.4222 49.9734 35.4222 50.2118C37.0502 50.0817 35.6333 48.4564 34.6384 49.2799C34.3671 48.2397 32.8899 46.1376 35.9347 47.0695C35.9347 46.7011 35.9347 46.3327 35.9347 45.9643C35.5127 46.0943 35.0906 46.2027 34.6384 46.3327C34.3068 45.4659 35.9649 45.4875 36.9597 45.4008C36.6884 46.2893 36.7487 48.023 35.4222 47.9797C35.9347 48.3481 36.4472 48.7165 36.9597 49.0849C36.8693 48.8465 36.7788 48.5865 36.6884 48.3481C39.281 49.1499 40.8788 44.599 42.3258 43.9272C41.2405 45.1841 44.8883 44.3173 44.6471 43.7322C44.225 43.7972 43.803 43.8622 43.3508 43.9272C43.4412 43.6238 43.5317 43.3204 43.6221 42.9954C43.3508 43.1254 43.1096 43.2338 42.8383 43.3638C42.8685 41.8902 41.6324 42.1069 40.2758 42.0635C40.3361 41.4134 41.5118 41.5001 42.3258 41.5001C42.3258 41.2617 42.3258 41.0017 42.3258 40.7633C42.6574 40.8283 43.0192 40.8933 43.3508 40.9583C43.5015 40.1998 41.9038 39.9831 41.8133 39.1163C41.8435 39.2463 41.8435 39.3763 41.8435 39.5064ZM43.7728 39.5064C43.8934 39.8748 44.0743 39.8964 44.4059 39.8748C44.2853 39.528 44.1949 39.0296 43.6221 39.138C43.6824 39.2463 43.7427 39.3763 43.7728 39.5064ZM45.7022 39.398C45.7927 39.4197 45.8831 39.463 45.9735 39.4847C45.7927 39.4197 45.6419 39.3547 45.4611 39.2897C45.5213 39.3547 45.6118 39.3763 45.7022 39.398ZM106.809 39.593C106.719 39.6797 106.628 39.7881 106.538 39.8748C106.809 39.8098 107.051 39.7447 107.322 39.6797C107.231 39.5497 107.141 39.4413 107.051 39.3113C106.99 39.398 106.9 39.5064 106.809 39.593ZM46.7272 39.9614C46.6971 40.4599 47.2397 40.5249 47.7522 40.6116C47.9029 40.0698 47.4507 39.6797 46.7272 39.5064C46.7272 39.6581 46.7272 39.8098 46.7272 39.9614ZM76.7834 39.6797C76.9642 39.6797 77.115 39.6797 77.2958 39.6797C77.2054 39.8098 77.115 39.9181 77.0245 40.0481C76.9341 39.9398 76.8437 39.8098 76.7834 39.6797ZM105.543 39.7664C105.634 39.7881 105.724 39.8314 105.815 39.8531C105.634 39.7881 105.483 39.7231 105.302 39.6581C105.362 39.7231 105.453 39.7447 105.543 39.7664ZM156.099 39.6797C156.28 39.7447 156.431 39.8098 156.612 39.8748C156.461 39.8098 156.28 39.7447 156.099 39.6797ZM51.219 40.0481C51.2492 40.1131 51.3095 40.1782 51.3396 40.2432C51.2492 40.1131 51.1588 40.0048 51.0683 39.8748C51.1286 39.9398 51.1889 39.9831 51.219 40.0481ZM134.032 40.7849C134.032 41.6084 132.223 42.1936 132.735 42.822C133.338 42.3236 133.941 41.8468 134.544 41.3484C134.755 41.8902 135.358 42.1719 136.082 41.9118C136.082 42.2152 136.082 42.5186 136.082 42.8437C137.227 42.8653 137.921 42.3669 137.89 41.5434C138.162 41.6084 138.403 41.6735 138.674 41.7385C139.187 40.85 138.373 40.1565 137.137 40.0698C137.318 41.6951 134.635 41.3701 134.303 40.0698C134.213 40.3082 134.122 40.5466 134.032 40.7849ZM40.5773 40.2432C40.7582 40.3082 40.9089 40.3732 41.0898 40.4382C40.9089 40.3515 40.728 40.3082 40.5773 40.2432ZM103.342 40.6983C102.679 41.1317 102.77 41.4567 102.951 41.8902C103.222 41.8251 103.463 41.7601 103.734 41.6951C103.463 41.5001 103.222 41.3267 102.951 41.1317C103.644 40.98 104.458 40.7199 103.976 40.1998C103.765 40.3949 103.554 40.5466 103.342 40.6983ZM135.69 40.6116C135.66 40.6766 135.599 40.7416 135.569 40.8066C135.75 40.8066 135.901 40.8066 136.082 40.8066C135.991 40.6766 135.901 40.5682 135.81 40.4382C135.78 40.4816 135.75 40.5466 135.69 40.6116ZM160.229 40.6116C160.32 40.7416 160.41 40.85 160.5 40.98C160.38 40.85 160.32 40.7199 160.229 40.6116ZM152.783 40.98C153.326 41.1534 154.23 41.2834 154.079 41.7168C153.386 41.8251 153.024 41.4134 152.783 40.98ZM77.6576 41.2617C77.7782 41.2834 77.9289 41.3267 78.0495 41.3484C77.6275 41.5868 77.2054 41.8468 76.7532 42.0852C76.9642 41.7601 77.1753 41.1317 77.6576 41.2617ZM132.886 41.3484C132.916 41.4134 132.977 41.4784 133.007 41.5434C132.916 41.4134 132.826 41.305 132.735 41.175C132.796 41.2184 132.826 41.2834 132.886 41.3484ZM247.021 41.3484C247.202 41.4784 247.353 41.5868 247.534 41.7168C247.353 41.5868 247.172 41.4784 247.021 41.3484ZM43.2604 41.9985C43.2302 42.1502 43.1699 42.3019 43.1398 42.4536C44.1045 42.6486 44.4662 41.5651 43.4111 41.5218C43.3508 41.6735 43.3206 41.8468 43.2604 41.9985ZM46.2147 42.3669C46.1243 42.4536 46.0338 42.562 45.9434 42.6486C46.4559 42.5186 46.9684 42.4103 47.4809 42.2802C47.0588 42.1936 46.486 42.0419 46.2147 42.3669ZM248.92 42.2586C248.951 42.3236 249.011 42.3886 249.041 42.4536C248.951 42.3236 248.86 42.2152 248.77 42.0852C248.86 42.1502 248.89 42.2152 248.92 42.2586ZM295.527 42.0852C295.708 42.1502 295.859 42.2152 296.039 42.2802C295.889 42.2152 295.708 42.1502 295.527 42.0852ZM40.5773 42.4536C40.8486 42.6486 41.0898 42.822 41.3611 43.017C41.0898 42.822 40.8185 42.6486 40.5773 42.4536ZM148.532 42.7353C148.562 42.822 148.623 42.9304 148.653 43.017C148.924 42.887 149.165 42.7787 149.437 42.6486C149.105 42.5836 148.743 42.5186 148.412 42.4536C148.442 42.5403 148.502 42.627 148.532 42.7353ZM197.973 42.4536C198.154 42.5186 198.304 42.5836 198.485 42.6486C198.304 42.5836 198.123 42.5186 197.973 42.4536ZM46.6066 43.2771C46.2147 43.5805 45.853 43.4721 45.4611 43.3638C45.3706 43.5588 45.2802 43.7322 45.1897 43.9272C46.4559 44.1656 46.6368 43.2554 47.7522 43.1904C47.3603 43.0821 46.9985 42.9737 46.6066 43.2771ZM131.71 43.2771C131.62 43.2988 131.53 43.3421 131.439 43.3638C131.62 43.6022 131.771 43.8622 131.952 44.1006C131.349 44.1873 130.233 44.1873 130.414 44.664C131.228 44.5773 131.952 44.7724 131.952 45.4008C130.836 44.534 127.791 46.5494 129.902 46.8745C129.811 47.0045 129.721 47.1128 129.63 47.2429C130.505 47.2212 130.776 46.7228 130.655 46.1376C132.012 46.5711 132.494 45.5742 133.73 45.9426C133.821 45.6392 133.911 45.3358 134.002 45.0108C135.418 47.2645 135.69 43.8622 133.489 44.0789C133.037 46.0076 131.59 44.2956 133.489 43.3421C132.826 43.6672 132.253 43.2771 131.71 43.2771ZM135.328 43.7538C135.569 44.1656 135.961 44.0572 136.353 43.9489C136.293 43.4505 135.72 43.3204 135.057 43.3854C135.147 43.4938 135.238 43.6238 135.328 43.7538ZM197.46 43.3854C197.641 43.4505 197.792 43.5155 197.973 43.5805C197.792 43.4938 197.611 43.4288 197.46 43.3854ZM207.077 43.7538C206.956 43.8839 206.806 43.9922 206.685 44.1223C207.017 44.0572 207.378 43.9922 207.71 43.9272C207.62 43.7322 207.529 43.5588 207.439 43.3638C207.348 43.4938 207.197 43.6238 207.077 43.7538ZM35.4222 43.5588C35.6031 43.6888 35.7539 43.7972 35.9347 43.9272C35.784 43.7972 35.6031 43.6888 35.4222 43.5588ZM42.356 43.5588C42.5368 43.6888 42.6876 43.7972 42.8684 43.9272C42.7177 43.7972 42.5368 43.6888 42.356 43.5588ZM184.346 43.5588C184.527 43.7539 184.678 43.9272 184.859 44.1223C184.588 44.1223 184.346 44.1223 184.075 44.1223C184.196 43.9272 184.286 43.7539 184.346 43.5588ZM131.198 43.8405C131.288 43.8622 131.379 43.9055 131.469 43.9272C131.288 43.8622 131.138 43.7972 130.957 43.7322C131.047 43.7755 131.108 43.7972 131.198 43.8405ZM39.0398 43.9272C39.3714 44.2306 39.7332 44.534 40.0648 44.8591C39.5523 44.729 39.0398 44.6207 38.5273 44.4907C38.4369 44.729 38.3465 44.9891 38.256 45.2275C37.834 44.729 38.467 44.2956 39.0398 43.9272ZM147.387 44.1223C147.899 44.2523 148.412 44.3606 148.924 44.4907C148.231 44.4473 147.447 44.4907 147.387 45.0541C147.387 44.729 147.387 44.4256 147.387 44.1223ZM44.4059 44.664C44.3155 44.7941 44.225 44.9024 44.1346 45.0324C44.7978 45.1408 45.0993 44.7507 45.1596 44.2956C44.828 44.2739 44.6471 44.3173 44.4059 44.664ZM135.841 44.3823C135.931 44.404 136.021 44.4473 136.112 44.469C135.931 44.404 135.78 44.339 135.599 44.274C135.66 44.339 135.75 44.3606 135.841 44.3823ZM100.509 45.5959C100.539 45.7259 100.599 45.8343 100.629 45.9643C100.72 45.7259 100.81 45.4658 100.901 45.2275C100.72 45.2275 100.569 45.2275 100.388 45.2275C100.448 45.3358 100.479 45.4658 100.509 45.5959ZM38.5273 45.5959C38.7987 45.5959 39.0398 45.5959 39.3111 45.5959C39.2207 45.7909 39.1303 45.9643 39.0398 46.1593C38.859 45.9643 38.6781 45.7692 38.5273 45.5959ZM33.8848 45.7692C34.0656 45.7692 34.2164 45.7692 34.3973 45.7692C34.3068 45.8993 34.2164 46.0076 34.1259 46.1376C34.0656 46.0293 33.9752 45.8993 33.8848 45.7692ZM202.856 46.246C202.947 46.2677 203.037 46.311 203.128 46.3327C202.947 46.2677 202.796 46.2027 202.615 46.1376C202.675 46.181 202.766 46.2027 202.856 46.246ZM132.735 46.8745C132.102 47.2862 132.524 48.1097 132.735 48.7165C133.941 48.5865 134.363 47.0261 135.057 46.5061C134.273 46.5061 133.278 46.4627 132.735 46.8745ZM72.1408 46.7011C72.5628 47.1345 72.9849 47.5679 73.4371 48.0013C73.015 48.0664 72.593 48.1314 72.1408 48.1964C72.1408 47.6763 72.1408 47.1995 72.1408 46.7011ZM192.305 47.0695C192.486 47.0695 192.637 47.0695 192.818 47.0695C192.727 47.1995 192.637 47.3079 192.546 47.4379C192.486 47.3079 192.396 47.1995 192.305 47.0695ZM128.756 47.7196C128.605 48.1747 128.847 48.4348 129.148 48.7381C129.57 48.1964 129.66 47.6113 128.877 47.2645C128.847 47.4162 128.816 47.5679 128.756 47.7196ZM130.294 48.088C130.324 48.3697 130.384 48.6515 130.414 48.9115C128.847 48.6298 128.786 50.4501 127.068 49.8434C127.068 49.9734 127.068 50.0817 127.068 50.2118C127.49 50.2118 127.912 50.2118 128.364 50.2118C128.605 50.8402 127.369 50.9702 126.555 51.1436C126.736 52.4439 128.696 51.382 129.389 52.2488C129.419 51.4903 129.751 50.7535 130.927 50.9486C130.746 50.8836 130.595 50.8186 130.414 50.7535C130.505 50.6235 130.595 50.5152 130.685 50.3851C131.017 50.5152 131.379 50.6235 131.71 50.7535C132.193 49.605 131.741 47.8713 130.173 47.2429C130.233 47.5246 130.263 47.8063 130.294 48.088ZM94.4794 47.4379C94.6603 47.4379 94.811 47.4379 94.9919 47.4379C94.9015 47.5679 94.811 47.6763 94.7206 47.8063C94.6603 47.6763 94.5698 47.5679 94.4794 47.4379ZM97.3132 47.7196C97.6749 48.1747 98.1874 47.7846 98.097 47.4379C97.7654 47.4379 97.4036 47.4379 97.072 47.4379C97.1323 47.5246 97.2227 47.6113 97.3132 47.7196ZM30.8098 48.1747C31.0811 48.1747 31.3223 48.1747 31.5936 48.1747C31.7142 48.6081 30.8098 49.0632 30.2973 49.475C30.1164 49.1066 29.9657 48.7381 29.7848 48.3697C30.1164 48.5648 30.4782 48.7381 30.8098 48.9332C30.8098 48.6731 30.8098 48.4131 30.8098 48.1747ZM70.6033 48.3697C70.7842 48.4998 70.9349 48.6081 71.1158 48.7381C70.9651 48.6081 70.7842 48.4781 70.6033 48.3697ZM189.743 48.3697C189.924 48.4348 190.074 48.4998 190.255 48.5648C190.104 48.4781 189.924 48.4131 189.743 48.3697ZM128.123 49.1932C128.123 49.2799 128.123 49.3883 128.123 49.475C128.605 49.5616 128.786 49.2366 128.907 48.9115C128.635 48.9115 128.394 48.9115 128.123 48.9115C128.123 48.9982 128.123 49.1066 128.123 49.1932ZM189.743 48.9115C189.924 48.9765 190.074 49.0415 190.255 49.1066C190.104 49.0415 189.924 48.9765 189.743 48.9115ZM132.494 49.3666C132.464 49.6917 132.916 49.7567 133.278 49.8217C133.399 49.4099 133.067 49.1499 132.494 49.0849C132.494 49.1932 132.494 49.2799 132.494 49.3666ZM196.948 49.1066C197.279 49.1066 197.641 49.1066 197.973 49.1066C198.093 49.4533 197.641 49.5833 197.189 49.67C197.098 49.475 197.038 49.2799 196.948 49.1066ZM138.132 50.2118C138.313 50.3418 138.463 50.4501 138.644 50.5802C138.493 50.4501 138.313 50.3201 138.132 50.2118ZM187.693 50.2118C188.145 50.4285 188.205 50.7969 187.964 51.1436C187.361 51.0353 187.542 50.5585 187.693 50.2118ZM69.8496 50.3851C69.9401 50.5152 70.0305 50.6235 70.121 50.7535C70.0004 50.6452 69.9401 50.5152 69.8496 50.3851ZM179.493 50.3851C179.583 50.5152 179.674 50.6235 179.764 50.7535C179.583 50.7535 179.432 50.7535 179.252 50.7535C179.312 50.6452 179.402 50.5152 179.493 50.3851ZM196.797 50.6669C196.827 50.7535 196.887 50.8619 196.918 50.9486C197.008 50.8186 197.098 50.7102 197.189 50.5802C197.008 50.5152 196.857 50.4501 196.676 50.3851C196.737 50.4718 196.767 50.5802 196.797 50.6669ZM242.65 50.3851C242.831 50.5152 242.981 50.6235 243.162 50.7535C242.981 50.6452 242.801 50.5152 242.65 50.3851ZM299.386 50.3851C299.476 50.5152 299.567 50.6235 299.657 50.7535C299.567 50.6452 299.476 50.5152 299.386 50.3851ZM32.4679 51.2303C32.3171 51.5337 32.5885 51.5987 32.8598 51.6854C32.7693 51.447 32.6789 51.187 32.5885 50.9486C32.5583 51.0353 32.5282 51.1219 32.4679 51.2303ZM131.349 51.2303C131.319 51.317 131.258 51.4253 131.228 51.512C131.68 51.5554 132.132 51.4903 132.253 51.1436C131.982 51.0786 131.741 51.0136 131.469 50.9486C131.409 51.0353 131.379 51.1219 131.349 51.2303ZM35.0605 51.317C35.0906 51.382 35.1509 51.447 35.1811 51.512C35.3619 51.447 35.5127 51.382 35.6936 51.317C35.4222 51.252 35.1811 51.187 34.9097 51.1219C34.97 51.187 35.0002 51.252 35.0605 51.317ZM89.5957 51.1219C89.7765 51.187 89.9273 51.252 90.1081 51.317C89.9574 51.252 89.7765 51.187 89.5957 51.1219ZM195.651 51.317C195.742 51.382 195.832 51.447 195.923 51.512C195.742 51.382 195.591 51.2736 195.41 51.1436C195.47 51.187 195.561 51.252 195.651 51.317ZM23.243 52.1405C22.8511 52.5739 22.9114 52.8123 23.1224 53.159C21.5548 52.6822 20.4997 53.7658 21.0725 54.8277C19.324 54.4376 17.1836 56.388 16.7012 57.4065C14.5909 56.9297 13.5358 60.007 11.5763 59.812C12.1491 60.9822 11.2145 62.0007 9.52632 61.2856C9.61676 61.5239 9.7072 61.784 9.79764 62.0224C9.52632 61.9574 9.28515 61.8924 9.01383 61.8273C9.07412 62.1741 8.8631 62.1957 7.98885 62.2824C6.51166 62.2608 6.57196 63.9511 5.15507 63.6694C5.21536 64.1678 5.15507 64.7312 4.37125 64.7746C4.55213 64.9696 4.70287 65.143 4.88375 65.338C4.37126 65.273 3.85876 65.208 3.34627 65.143C3.52715 65.5764 3.67788 66.0098 3.85876 66.4432C3.58744 66.4432 3.34627 66.4432 3.07495 66.4432C2.92422 66.92 3.497 67.2017 4.09994 67.3751C4.43155 66.8766 4.79331 66.3999 5.12492 65.9015C5.90873 66.6383 7.62709 66.0748 7.68738 67.3751C8.04914 66.6599 8.83295 66.3782 9.73735 66.8116C9.73735 66.3782 9.73735 65.9448 9.73735 65.5114C9.13442 65.5114 8.53148 65.5114 7.92855 65.5114C9.28515 64.9913 7.5065 64.0161 9.85793 63.4743C12.7219 62.4991 11.3954 63.431 11.7873 64.5795C11.4557 64.3412 11.0939 64.0811 10.7623 63.8427C10.4006 64.1245 9.91823 64.4929 9.46603 64.2111C8.8631 65.013 10.2197 65.273 10.7623 64.5795C10.5815 64.8829 10.4307 65.1863 10.2498 65.5114C11.0337 65.4464 11.7873 65.3814 12.5711 65.3164C11.8175 65.338 11.3954 65.7064 11.5461 66.2482C12.0888 66.3782 13.5057 65.3597 13.3549 64.948C12.9329 64.948 12.5108 64.948 12.0586 64.948C11.9983 64.4062 13.4755 64.4278 13.0836 63.6477C13.5961 63.8427 14.1086 64.0161 14.6211 64.2111C14.6814 63.1926 16.0681 62.5425 15.4049 61.2639C16.038 61.4589 16.2792 61.8924 16.1887 62.3691C16.46 62.3691 16.7012 62.3691 16.9725 62.3691C16.9725 62.1741 16.9725 62.0007 16.9725 61.8057C18.2688 62.3041 19.535 60.3537 20.8313 61.4373C20.3489 59.6386 22.5798 58.6851 22.8813 57.0164C22.4592 57.2981 21.9166 57.4065 21.585 57.0164C22.1879 56.4096 23.1224 56.1929 24.1474 56.2796C23.8158 56.4096 23.454 56.518 23.1224 56.648C24.6901 57.4282 26.0165 55.7595 28.2474 56.2796C28.2474 55.9762 28.2474 55.6728 28.2474 55.3478C28.5187 55.3478 28.7598 55.3478 29.0312 55.3478C28.79 56.0846 30.2069 56.4313 30.84 55.9112C29.5738 55.5428 30.7797 53.7008 28.2775 54.4376C28.4282 53.0506 30.2973 51.2303 26.74 52.4005C27.4635 52.6606 28.4885 52.9206 28.2775 53.5057C27.9459 53.1157 27.4334 53.224 26.9812 53.5057C26.529 52.5956 25.5342 52.0971 24.4187 52.7689C24.9011 52.0755 24.0268 51.252 23.243 52.1405ZM192.064 51.6854C192.516 51.9021 192.576 52.2705 192.335 52.6172C191.853 52.3789 191.823 52.0321 192.064 51.6854ZM131.349 52.0538C131.319 52.1188 131.258 52.1838 131.228 52.2488C131.409 52.2488 131.56 52.2488 131.741 52.2488C131.65 52.1188 131.56 52.0104 131.469 51.8804C131.409 51.9238 131.379 51.9888 131.349 52.0538ZM296.552 52.0538C296.733 52.1188 296.884 52.1838 297.064 52.2488C296.914 52.1838 296.733 52.1188 296.552 52.0538ZM127.61 52.4222C127.701 52.4872 127.791 52.5522 127.882 52.6172C127.701 52.4872 127.55 52.3789 127.369 52.2488C127.43 52.2922 127.52 52.3572 127.61 52.4222ZM191.28 52.5956C191.371 52.8339 191.461 53.094 191.551 53.3324C191.009 53.2674 191.099 52.9206 191.28 52.5956ZM88.5707 52.7906C89.053 53.3107 88.2089 53.6574 87.5457 53.8958C87.9074 53.5274 88.2391 53.159 88.5707 52.7906ZM29.2723 53.4407C29.2723 53.5274 29.2723 53.6358 29.2723 53.7224C29.6039 53.6574 29.9657 53.5924 30.2973 53.5274C29.9657 53.3974 29.6039 53.289 29.2723 53.159C29.2723 53.2457 29.2723 53.3324 29.2723 53.4407ZM179.734 53.3324C179.824 53.3974 179.915 53.4624 180.005 53.5274C179.824 53.3974 179.674 53.289 179.493 53.159C179.553 53.224 179.644 53.289 179.734 53.3324ZM23.1224 53.8958C23.5143 54.2642 24.0871 54.5243 24.6599 54.2642C24.7805 54.676 24.4489 54.936 23.8761 55.001C24.9011 54.8277 26.8003 54.7626 26.4386 53.8958C26.9209 54.4809 26.8908 55.0877 26.1672 55.5645C25.8356 55.3694 25.4739 55.1961 25.1423 55.001C24.8709 55.3044 24.6298 55.6078 24.3584 55.9329C23.6349 55.3261 22.9114 54.6543 23.1224 53.8958ZM248.408 54.0909C248.438 54.1559 248.498 54.2209 248.528 54.2859C248.438 54.1559 248.348 54.0475 248.257 53.9175C248.348 53.9608 248.378 54.0258 248.408 54.0909ZM21.8261 54.4593C21.8261 54.6543 21.8261 54.8277 21.8261 55.0227C21.5548 55.0227 21.3136 55.0227 21.0423 55.0227C21.3136 54.8277 21.5548 54.6326 21.8261 54.4593ZM179.493 54.4593C179.764 54.4593 180.005 54.4593 180.277 54.4593C180.005 54.8277 179.764 55.1961 179.493 55.5645C178.619 55.2394 177.985 54.4376 179.493 54.4593ZM181.784 54.4593C181.965 54.5243 182.116 54.5893 182.296 54.6543C182.146 54.5676 181.965 54.5026 181.784 54.4593ZM186.668 54.8277C186.849 54.8927 186.999 54.9577 187.18 55.0227C186.999 54.936 186.849 54.871 186.668 54.8277ZM20.0173 55.001C20.1982 55.1961 20.3489 55.3694 20.5298 55.5645C20.2585 55.5645 20.0173 55.5645 19.746 55.5645C19.8666 55.3694 19.957 55.1961 20.0173 55.001ZM69.0658 55.1961C69.2467 55.3261 69.3974 55.4344 69.5783 55.5645C69.3974 55.4344 69.2467 55.3044 69.0658 55.1961ZM21.0423 55.5645C21.2232 55.6295 21.3739 55.6945 21.5548 55.7595C21.4644 55.8895 21.3739 55.9979 21.2835 56.1279C21.1026 56.0629 20.9519 55.9979 20.771 55.9329C20.8916 55.8028 20.982 55.6728 21.0423 55.5645ZM67.0159 55.9329C67.6489 55.9762 68.2217 56.1929 68.0408 56.6697C67.7092 56.6697 67.3475 56.6697 67.0159 56.6697C67.0159 56.4096 67.0159 56.1713 67.0159 55.9329ZM86.9126 56.2146C86.9428 56.3013 87.0031 56.4096 87.0332 56.4963C87.1236 56.3013 87.2141 56.1279 87.3045 55.9329C87.1236 55.9329 86.9729 55.9329 86.792 55.9329C86.8222 56.0196 86.8825 56.1062 86.9126 56.2146ZM18.3593 56.3013C18.8416 56.3013 19.0526 56.8864 19.2637 57.2331C18.7512 57.2331 18.2387 57.2331 17.7262 57.2331C17.8166 56.8864 17.8769 56.3013 18.3593 56.3013ZM131.077 56.388C131.198 56.4096 131.349 56.453 131.469 56.4746C131.138 56.5397 130.776 56.6047 130.444 56.6697C130.565 56.4746 130.685 56.2796 131.077 56.388ZM20.2887 56.6697C20.4695 56.7997 20.6203 56.9081 20.8011 57.0381C20.6203 56.9081 20.4695 56.778 20.2887 56.6697ZM27.4635 56.843C27.554 56.9081 27.6444 56.9731 27.7349 57.0381C27.554 56.9081 27.4032 56.7997 27.2224 56.6697C27.3128 56.7347 27.4032 56.778 27.4635 56.843ZM65.7196 57.4065C65.81 57.6015 65.9004 57.7749 65.9909 57.9699C65.81 57.9049 65.6593 57.8399 65.4784 57.7749C65.5688 57.6449 65.6593 57.5365 65.7196 57.4065ZM67.2872 57.5799C67.4681 57.6449 67.6188 57.7099 67.7997 57.7749C67.6188 57.7099 67.4379 57.6449 67.2872 57.5799ZM82.5414 57.7749C82.6619 57.7749 82.8127 57.7749 82.9333 57.7749C82.873 58.295 82.2399 58.3167 81.637 58.1433C81.9083 57.9483 82.1494 57.7532 82.5414 57.7749ZM80.0995 57.9483C80.2804 57.9483 80.4311 57.9483 80.612 57.9483C80.612 58.1866 80.612 58.4467 80.612 58.6851C80.4311 58.6851 80.2804 58.6851 80.0995 58.6851C80.0995 58.4467 80.0995 58.2083 80.0995 57.9483ZM21.5548 58.3167C21.8261 58.4467 22.0673 58.555 22.3386 58.6851C22.0673 58.6851 21.8261 58.6851 21.5548 58.6851C21.5548 58.5767 21.5548 58.4467 21.5548 58.3167ZM16.4299 58.5117C16.6108 58.5117 16.7615 58.5117 16.9424 58.5117C16.8519 58.6417 16.7615 58.7501 16.6711 58.8801C16.6108 58.7501 16.5203 58.6417 16.4299 58.5117ZM17.9674 58.5117C18.1482 58.5117 18.299 58.5117 18.4799 58.5117C18.3894 58.6417 18.299 58.7501 18.2085 58.8801C18.1482 58.7501 18.0578 58.6417 17.9674 58.5117ZM23.9967 58.6851C24.0268 58.7501 24.0871 58.8151 24.1173 58.8801C24.2077 58.7501 24.2981 58.6417 24.3886 58.5117C24.2077 58.5117 24.057 58.5117 23.8761 58.5117C23.9364 58.5767 23.9665 58.6417 23.9967 58.6851ZM18.7512 58.6851C19.0225 58.7501 19.2637 58.8151 19.535 58.8801C19.4445 59.1835 19.2335 59.5302 18.7512 59.4435C18.7512 59.1835 18.7512 58.9451 18.7512 58.6851ZM79.0745 58.8801C79.7076 59.2052 79.8885 59.6819 79.587 60.1804C79.2554 60.1153 78.8936 60.0503 78.562 59.9853C78.7429 59.6169 78.9238 59.2485 79.0745 58.8801ZM82.6921 59.0751C82.873 59.2052 83.0237 59.3135 83.2046 59.4435C82.9333 59.5086 82.6921 59.5736 82.4208 59.6386C82.5112 59.4436 82.6016 59.2485 82.6921 59.0751ZM17.9674 59.6169C18.2387 59.812 18.4799 59.9853 18.7512 60.1804C18.6909 59.4219 20.4997 59.6603 20.56 60.3754C19.4144 60.267 18.3894 60.5054 17.9975 61.3072C17.9674 60.7221 17.9674 60.1804 17.9674 59.6169ZM80.3708 59.812C80.4612 60.0503 80.5517 60.3104 80.6421 60.5488C80.4612 60.5488 80.3105 60.5488 80.1296 60.5488C80.1899 60.2887 80.2804 60.0503 80.3708 59.812ZM177.413 59.9853C177.443 60.2454 178.257 60.3971 178.709 60.5488C178.799 60.3104 178.89 60.0503 178.98 59.812C178.468 59.812 177.955 59.812 177.443 59.812C177.413 59.8553 177.413 59.9203 177.413 59.9853ZM281.931 59.8986C282.021 59.9203 282.112 59.9636 282.202 59.9853C282.021 59.9203 281.871 59.8553 281.69 59.7903C281.75 59.8336 281.84 59.8553 281.931 59.8986ZM67.7997 60.3537C67.9806 60.4187 68.1313 60.4837 68.3122 60.5488C68.1313 60.4837 67.9504 60.4187 67.7997 60.3537ZM15.9174 60.5488C16.0983 60.6788 16.249 60.7871 16.4299 60.9172C16.1586 60.9172 15.9174 60.9172 15.6461 60.9172C15.7365 60.7871 15.827 60.6571 15.9174 60.5488ZM65.4784 60.7221C65.7497 60.7221 65.9909 60.7221 66.2622 60.7221C66.1718 60.9605 66.0813 61.2206 65.9909 61.4589C65.81 61.2206 65.6593 60.9822 65.4784 60.7221ZM67.5284 61.2856C67.7997 61.3506 68.0408 61.4156 68.3122 61.4806C68.0408 61.3939 67.7997 61.3506 67.5284 61.2856ZM79.8583 61.2856C80.0392 61.2856 80.1899 61.2856 80.3708 61.2856C80.3708 61.4806 80.3708 61.654 80.3708 61.849C80.1899 61.849 80.0392 61.849 79.8583 61.849C79.8583 61.654 79.8583 61.4589 79.8583 61.2856ZM77.2958 61.654C77.4767 61.719 77.6275 61.784 77.8083 61.849C77.7179 61.979 77.6275 62.0874 77.537 62.2174C77.4466 62.0224 77.3863 61.8273 77.2958 61.654ZM14.1086 61.8273C14.5909 62.3908 14.5608 62.9542 13.5961 63.1276C13.777 62.6942 13.9579 62.2608 14.1086 61.8273ZM18.3593 62.0224C18.3291 62.0874 18.2688 62.1524 18.2387 62.2174C18.7512 62.2824 19.2637 62.3474 19.7762 62.4125C19.535 62.0007 18.7813 61.5673 18.3593 62.0224ZM67.0159 61.8273C67.1967 61.8273 67.3475 61.8273 67.5284 61.8273C67.4379 61.9574 67.3475 62.0657 67.257 62.1957C67.1967 62.0874 67.1063 61.9574 67.0159 61.8273ZM9.76749 62.0224C10.0991 62.1524 10.4609 62.2608 10.7925 62.3908C10.4609 62.4558 10.0991 62.5208 9.76749 62.5858C9.76749 62.3908 9.76749 62.1958 9.76749 62.0224ZM67.2872 62.5642C67.4681 62.6292 67.6188 62.6942 67.7997 62.7592C67.6188 62.6942 67.4379 62.6292 67.2872 62.5642ZM5.90873 64.9696C6.08961 64.9696 6.24034 64.9696 6.42122 64.9696C6.33078 65.0996 6.24034 65.208 6.1499 65.338C6.08961 65.208 5.99917 65.0996 5.90873 64.9696ZM1.02498 66.3566C0.783811 66.8116 0.482345 66.8333 0 66.8116C0 67.05 0 67.3101 0 67.5485C0.633078 67.3751 1.2963 67.3968 1.8088 67.7435C1.92938 67.3101 1.56762 67.0067 1.02498 66.8116C1.3566 66.5082 1.71836 66.2049 2.04997 65.8798C1.56762 65.8798 1.26616 65.9015 1.02498 66.3566ZM2.56246 66.1615C2.47202 66.2482 2.38158 66.3566 2.29114 66.4432C2.62275 66.3132 2.98451 66.2049 3.31612 66.0748C3.04481 65.9665 2.83378 65.8798 2.56246 66.1615ZM13.7468 66.0748C13.777 66.1398 13.8373 66.2049 13.8674 66.2699C13.777 66.1398 13.6866 66.0315 13.5961 65.9015C13.6564 65.9448 13.6866 66.0098 13.7468 66.0748ZM72.6533 66.3566C72.7437 66.3782 72.8342 66.4216 72.9246 66.4432C72.7437 66.3782 72.593 66.3132 72.4121 66.2482C72.5025 66.2915 72.593 66.3349 72.6533 66.3566ZM71.5077 66.8983C71.6283 66.92 71.779 66.9633 71.8996 66.985C71.6283 66.92 71.3871 66.855 71.1158 66.79C71.2665 66.855 71.3871 66.8767 71.5077 66.8983ZM5.39624 67.2884C5.21536 67.3101 5.06463 67.3534 4.88375 67.3751C5.84844 68.697 2.86393 67.8952 2.83378 68.8487C4.79331 69.3905 5.51683 68.2419 6.93371 67.9169C6.51166 67.6135 5.96902 67.1584 5.39624 67.2884Z" fill="#FEA800"/>
</g>
<defs>
<clipPath id="clip0_1_1845">
<rect width="327" height="69" fill="white"/>
</clipPath>
</defs>
</svg>
