<svg width="45" height="45" viewBox="0 0 45 45" fill="none" xmlns="http://www.w3.org/2000/svg">
<g clip-path="url(#clip0_3067_293)">
<path d="M25.5663 41.1891C15.1532 42.7633 5.4914 35.6973 3.88905 25.3067C2.27583 14.8466 9.41278 5.22286 19.7759 3.63272C30.2085 2.03171 39.8585 9.12324 41.4502 19.5472C43.0342 29.9723 35.9144 39.5538 25.5663 41.1891ZM30.7594 37.0321C30.8704 36.9832 30.9992 36.9472 31.1012 36.8917C33.7149 35.3521 35.7689 33.2677 37.2619 30.6306C37.3234 30.5182 37.3837 30.3981 37.4688 30.2345C35.8788 30.4834 34.357 30.7136 32.8389 30.967C32.754 30.9803 32.6522 31.1385 32.6204 31.2384C32.3729 32.2337 32.1931 33.258 31.879 34.2322C31.5857 35.1872 31.1514 36.1011 30.7594 37.0321ZM25.9059 6.01765C25.9034 6.00221 25.901 5.98678 25.8986 5.97134C25.8909 5.97255 25.8832 5.97376 25.8767 5.98269C25.8868 5.99691 25.8957 6.00342 25.9059 6.01765C27.3773 7.48715 28.55 9.16945 29.4949 11.0139C29.5391 11.0939 29.7145 11.1534 29.8225 11.1365C31.2748 10.9172 32.7259 10.6901 34.1693 10.4642C34.2233 10.4557 34.2749 10.4319 34.3432 10.4133C34.3039 10.3641 34.2913 10.3344 34.2722 10.3137C31.9704 8.1361 29.2849 6.69055 26.1833 6.02167C26.0935 6.00409 26.0009 6.01859 25.9059 6.01765ZM14.5673 7.79206C14.4409 7.84346 14.3109 7.87171 14.1959 7.94506C11.7992 9.3558 9.87426 11.254 8.40069 13.6114C8.21019 13.91 8.04527 14.2204 7.83356 14.5856C9.44674 14.3331 10.975 14.094 12.5098 13.8459C12.587 13.8338 12.6745 13.6857 12.6974 13.5793C12.9037 12.7248 13.0268 11.8438 13.3074 11.0093C13.6586 9.91866 14.1341 8.86391 14.5673 7.79206C14.5726 7.77542 14.5868 7.76528 14.5999 7.74743C14.5921 7.74864 14.5832 7.74213 14.5755 7.74334C14.5625 7.76119 14.5649 7.77662 14.5673 7.79206ZM32.9684 28.6619C33.0159 28.6624 33.0557 28.6641 33.0943 28.658C34.8387 28.385 36.5831 28.112 38.321 27.848C38.5062 27.819 38.5612 27.7155 38.6102 27.5735C39.173 25.8646 39.4358 24.1079 39.4318 22.3139C39.4313 21.8554 39.3844 21.4042 39.3558 20.9185C39.1937 20.9439 39.0779 20.962 38.9622 20.9801C37.65 21.1855 36.3379 21.3908 35.0257 21.5962C34.331 21.7049 33.6364 21.8136 32.9494 21.9211C32.8105 21.9428 32.6679 21.9414 32.694 22.1587C32.7498 22.6164 32.8069 23.0819 32.8472 23.542C32.9012 24.1898 32.9794 24.8416 32.9871 25.4966C33.0075 26.537 32.9817 27.5846 32.9684 28.6619ZM15.1683 24.7195C15.5802 26.9478 16.1999 29.0882 17.0836 31.1478C18.9824 30.8506 20.8657 30.5559 22.749 30.2612C22.4061 28.0696 22.0643 25.8856 21.7213 23.694C19.5293 24.0371 17.3681 24.3753 15.1683 24.7195ZM14.8091 31.5195C13.9709 29.3975 13.359 27.2559 12.9234 25.0788C10.7082 25.4254 8.51609 25.7685 6.33174 26.1103C6.33247 26.1655 6.32958 26.1976 6.33441 26.2285C6.85854 28.4155 7.76591 30.4239 9.09271 32.2323C9.15352 32.3176 9.34191 32.3593 9.46662 32.3477C10.7812 32.1578 12.0921 31.9447 13.4043 31.7394C13.8597 31.6681 14.3151 31.5968 14.8091 31.5195ZM24.9951 29.9097C26.8862 29.6137 28.7618 29.3202 30.6606 29.0231C30.8794 26.7831 30.7757 24.554 30.5217 22.3247C28.3142 22.6702 26.153 23.0084 23.9764 23.349C24.3128 25.5496 24.6522 27.7181 24.9951 29.9097ZM14.8299 22.4561C17.0374 22.1106 19.1986 21.7724 21.3598 21.4342C21.0156 19.2348 20.6774 17.0741 20.3381 14.9056C18.4316 15.204 16.556 15.4975 14.6727 15.7922C14.486 18.0351 14.5064 20.2377 14.8299 22.4561ZM38.9991 18.6895C38.9276 18.3845 38.874 18.0924 38.7985 17.8118C38.2633 15.9585 37.4416 14.245 36.3257 12.6725C36.1939 12.4875 36.0649 12.4207 35.8333 12.457C34.175 12.7244 32.5156 12.9841 30.8561 13.2438C30.7557 13.2595 30.6566 13.2829 30.5343 13.31C31.3599 15.4023 31.9771 17.5273 32.3303 19.7332C34.5609 19.3841 36.7607 19.0398 38.9991 18.6895ZM12.4871 22.8464C12.4183 20.5882 12.3568 18.3762 12.2941 16.1565C12.3173 16.1529 12.2698 16.1524 12.2312 16.1585C10.4868 16.4315 8.7424 16.7044 6.9968 16.9697C6.78068 17.0035 6.75249 17.1265 6.69704 17.2775C6.14188 18.9851 5.87908 20.7418 5.89199 22.5424C5.89666 22.9765 5.91798 23.4159 5.93279 23.8642C8.18781 23.5192 10.3722 23.1774 12.4871 22.8464ZM28.265 13.6651C26.3586 13.9634 24.483 14.257 22.5919 14.5529C22.9337 16.7368 23.273 18.9053 23.616 21.0969C25.8004 20.7551 27.9693 20.4156 30.1305 20.0774C29.7737 17.8484 29.1102 15.7307 28.265 13.6651ZM19.9891 12.6754C19.6521 10.5224 19.32 8.4002 18.9698 6.16228C18.5685 6.47808 18.205 6.7326 17.8874 7.02739C17.0822 7.79379 16.5435 8.74775 16.1083 9.75666C15.5892 10.9368 15.2443 12.1688 15.0017 13.448C16.6778 13.1936 18.3219 12.9363 19.9891 12.6754ZM23.0981 32.4914C21.4308 32.7523 19.7868 33.0096 18.1196 33.2705C18.1447 33.3298 18.1609 33.3826 18.1835 33.4265C18.9079 34.7204 19.7384 35.9344 20.7889 36.9876C21.5964 37.802 22.5016 38.4826 23.6156 38.83C23.7731 38.8765 23.9347 38.8987 24.0987 38.9363C23.7659 36.7589 23.4326 34.629 23.0981 32.4914ZM21.2195 5.83393C21.5673 8.05642 21.9007 10.1863 22.2364 12.3316C23.9036 12.0707 25.5476 11.8134 27.2149 11.5525C27.1784 11.4713 27.1521 11.4042 27.1193 11.3461C26.5071 10.2639 25.8161 9.23361 24.9827 8.30463C24.2167 7.45207 23.3778 6.68997 22.3164 6.2236C21.9828 6.06235 21.6279 5.96767 21.2195 5.83393ZM26.3538 38.5913C26.4765 38.5167 26.5797 38.4689 26.6728 38.4069C27.3981 37.9377 27.9542 37.2972 28.4186 36.5763C29.2942 35.198 29.8064 33.671 30.1754 32.0874C30.2265 31.8581 30.2764 31.621 30.325 31.3762C28.6424 31.6395 26.9983 31.8968 25.3389 32.1565C25.6811 34.2929 26.0144 36.4228 26.3538 38.5913ZM10.9401 34.3861C13.3742 36.7011 16.1608 38.1862 19.39 38.8114C19.1808 38.5358 18.9379 38.2971 18.7079 38.0406C17.5785 36.7863 16.6703 35.3789 15.8914 33.888C15.8246 33.764 15.7939 33.6186 15.5778 33.6524C14.0661 33.8969 12.5379 34.1361 10.9401 34.3861Z" fill="#F8F9F9"/>
</g>
<defs>
<clipPath id="clip0_3067_293">
<rect width="38" height="38" fill="white" transform="translate(0.958008 6.57776) rotate(-8.89428)"/>
</clipPath>
</defs>
</svg>
