<svg width="76" height="86" viewBox="0 0 76 86" fill="none" xmlns="http://www.w3.org/2000/svg">
<g clip-path="url(#clip0_1_1934)">
<path d="M12.9026 58.3079C10.1403 56.2967 10.2472 52.0801 5.90649 51.4908C6.08368 52.4235 6.14389 53.0477 6.3708 53.491C9.02987 58.9528 11.7279 64.5175 14.4899 69.9404C14.9437 70.827 15.862 72.0081 16.6671 72.1146C18.2062 72.2957 18.5291 70.8204 18.7562 69.5579C19.5334 65.5577 20.4135 61.5184 21.2226 57.4473C18.7189 57.5143 18.7189 57.5143 16.4057 63.9791C12.2297 52.0342 19.2213 39.9135 31.5098 38.1952C31.6302 39.4435 31.6797 40.66 31.8001 41.9083C32.2252 45.5115 33.5689 48.59 36.3844 51.0516C38.4056 52.8144 40.7 53.5914 43.3033 52.5455C45.9384 51.4288 46.7863 49.1663 46.8859 46.4817C47.174 40.7259 43.9331 36.3669 38.3087 35.0291C37.6065 34.8837 36.9682 34.5963 36.0143 34.2522C38.4871 27.4328 42.5094 21.908 48.7799 18.5894C58.4553 13.3917 66.136 19.067 69.8234 25.8447C70.3091 26.6604 70.5572 27.625 71.206 29.026C71.983 26.7315 71.3591 25.0859 70.7032 23.5112C68.1896 17.3472 61.2605 13.0339 54.5932 13.4443C50.3587 13.7559 46.5533 15.1987 43.2866 17.9078C38.5055 21.8968 34.8734 26.7443 32.9575 32.7055C32.773 33.3048 32.5176 33.8722 32.2692 34.6134C26.6409 35.7475 21.2856 37.6015 17.3697 42.3213C13.6596 46.963 13.5772 52.6408 12.9026 58.3079ZM35.152 37.8729C41.0675 37.8064 44.8013 41.449 44.1694 46.4529C44.0451 47.6764 43.2328 49.102 42.2503 49.7686C40.8955 50.694 39.399 49.8497 38.3069 48.6757C35.3673 45.7318 34.5947 42.1427 35.152 37.8729Z" fill="#FB72CC"/>
</g>
<defs>
<clipPath id="clip0_1_1934">
<rect width="50.4007" height="70.8565" fill="white" transform="matrix(0.911866 0.410488 0.410488 -0.911866 0 64.6117)"/>
</clipPath>
</defs>
</svg>
