<svg width="52" height="52" viewBox="0 0 52 52" fill="none" xmlns="http://www.w3.org/2000/svg">
<g clip-path="url(#clip0_1_2429)">
<path d="M26 0C11.6415 0 0 11.6415 0 26C0 40.3585 11.6415 52 26 52C40.3585 52 52 40.3585 52 26C52 11.6382 40.3585 0 26 0ZM41.9738 31.8208C41.7982 33.9853 40.157 36.7477 37.856 37.1475C30.5012 37.7163 21.7717 37.648 14.1473 37.1475C11.7683 36.8485 10.205 33.982 10.0295 31.8208C9.659 27.2773 9.659 24.6903 10.0295 20.1467C10.205 17.9855 11.8073 15.1353 14.1473 14.8753C21.684 14.2415 30.4557 14.378 37.856 14.8753C40.508 14.9728 41.7982 17.6995 41.9738 19.864C42.341 24.4075 42.341 27.2773 41.9738 31.8208ZM22.75 32.5L32.5 26L22.75 19.5V32.5Z" fill="#1AB9A2"/>
</g>
<defs>
<clipPath id="clip0_1_2429">
<rect width="52" height="52" fill="white"/>
</clipPath>
</defs>
</svg>
