<svg width="42" height="41" viewBox="0 0 42 41" fill="none" xmlns="http://www.w3.org/2000/svg">
<path d="M20.9771 0C9.89377 0 0.907715 8.98606 0.907715 20.0694C0.907715 31.1527 9.89377 40.1387 20.9771 40.1387C32.0604 40.1387 41.0464 31.1527 41.0464 20.0694C41.0464 8.98355 32.0604 0 20.9771 0ZM33.3072 24.5624C33.1717 26.2332 31.9049 28.3655 30.1287 28.6741C24.4516 29.1131 17.7133 29.0604 11.828 28.6741C9.99161 28.4433 8.78494 26.2307 8.64947 24.5624C8.36348 21.0553 8.36348 19.0584 8.64947 15.5513C8.78494 13.883 10.0217 11.6829 11.828 11.4822C17.6456 10.993 24.4165 11.0984 30.1287 11.4822C32.1758 11.5574 33.1717 13.6622 33.3072 15.333C33.5907 18.8401 33.5907 21.0553 33.3072 24.5624ZM18.4684 25.0867L25.9944 20.0694L18.4684 15.052V25.0867Z" fill="white"/>
</svg>
